<svg width="225" height="600" viewBox="0 0 225 600" fill="none" xmlns="http://www.w3.org/2000/svg">
<g clip-path="url(#clip0_488_3908)">
<path fill-rule="evenodd" clip-rule="evenodd" d="M96.0226 36.56C107.71 35.4867 122.488 35.6217 134.222 39.9927C135.351 40.4133 136.39 40.8227 137.39 41.2165C139.189 41.925 140.86 42.5829 142.692 43.164C143.348 43.3722 143.91 43.6663 144.322 43.9029C144.635 44.0826 144.968 44.2932 145.214 44.4493C145.278 44.4898 145.337 44.5266 145.387 44.5583C145.687 44.7459 145.856 44.8427 145.974 44.8987C147.794 45.1938 149.082 46.8644 148.876 48.7127C148.755 49.7979 148.145 50.7107 147.29 51.257C147.304 51.2694 147.319 51.2818 147.333 51.294C148.575 52.3417 149.757 53.7936 150.688 54.9367C150.868 55.1585 151.039 55.3686 151.199 55.562C152.381 56.9882 153.186 57.7944 153.855 58.158C159.021 60.9672 162.58 65.0856 165.435 69.333C166.859 71.4508 168.14 73.6508 169.35 75.76C169.508 76.0365 169.665 76.3111 169.821 76.5837C170.874 78.4231 171.878 80.1769 172.941 81.8606C176.857 88.0615 179.497 95.6271 181.869 102.425C182.6 104.521 183.306 106.544 184.016 108.432C190.073 124.535 185.802 142.265 178.088 156.382C175.005 162.024 171.259 168.449 166.516 173.922C161.764 179.405 155.829 184.149 148.302 186.113C137.204 189.008 124.532 188.225 113.91 187.227C105.587 186.445 97.3707 184.602 89.5043 182.424L89.1842 182.335C80.6027 179.959 69.9273 177.004 62.3651 170.103C56.6192 164.86 52.7178 157.871 49.5985 151.527C40.7552 133.541 37.0807 115.694 37.2528 95.8754C37.3892 80.1732 40.4014 63.6379 54.2679 52.5781C65.9434 43.2658 81.4033 37.9024 96.0226 36.56ZM135.084 47.7839C134.894 47.7093 134.705 47.6349 134.517 47.5611C133.57 47.1889 132.652 46.8284 131.782 46.5042C121.531 42.6857 108.016 42.4392 96.6621 43.4818C83.1535 44.7223 69.0544 49.6862 58.6234 58.006C47.2935 67.0426 44.356 80.8114 44.2247 95.9355C44.0611 114.766 47.5322 131.532 55.8589 148.467C58.9201 154.693 62.3515 160.668 67.0724 164.975C73.2736 170.634 82.3621 173.231 91.3703 175.726C99.0309 177.848 106.81 179.578 114.564 180.307C125.217 181.307 136.763 181.938 146.537 179.388C152.221 177.905 157.024 174.243 161.24 169.378C165.465 164.502 168.917 158.634 171.965 153.056C179.155 139.9 182.562 124.365 177.488 110.873C176.644 108.628 175.854 106.369 175.07 104.127C172.754 97.5002 170.492 91.0288 167.041 85.5643C165.891 83.7428 164.805 81.846 163.76 80.0183C163.605 79.7472 163.45 79.4776 163.297 79.21C162.09 77.1061 160.917 75.0963 159.644 73.2032C157.106 69.4287 154.305 66.3204 150.516 64.2604C148.515 63.1719 146.941 61.3363 145.824 59.9893C145.573 59.686 145.34 59.4013 145.121 59.1341C144.197 58.0058 143.527 57.1886 142.83 56.6004C142.489 56.3131 142.151 56.0229 141.81 55.731C141.104 55.1253 140.389 54.5124 139.63 53.9036C138.503 52.9992 137.552 52.3315 136.838 51.9754C135.271 51.1943 134.552 49.3952 135.084 47.7839ZM146.031 44.9238C146.031 44.9238 146.028 44.923 146.024 44.9211C146.028 44.9227 146.031 44.9237 146.031 44.9238Z" fill="black"/>
<path fill-rule="evenodd" clip-rule="evenodd" d="M129.524 74.6566C131.59 74.6566 133.265 76.2258 133.265 78.1614V103.574C133.265 105.509 131.59 107.078 129.524 107.078C127.458 107.078 125.783 105.509 125.783 103.574V78.1614C125.783 76.2258 127.458 74.6566 129.524 74.6566Z" fill="black"/>
<path fill-rule="evenodd" clip-rule="evenodd" d="M100.688 72.1627C102.523 72.1627 104.01 73.7766 104.01 75.7675V88.9574C104.01 89.4278 103.955 90.138 103.908 90.7396C103.9 90.8429 103.892 90.943 103.885 91.0381C103.826 91.8121 103.769 92.6375 103.753 93.4192C103.739 94.0634 103.756 94.5588 103.792 94.901C104.629 95.9688 104.847 97.5171 104.233 98.8499C103.412 100.631 101.417 101.352 99.7752 100.462C98.7485 99.905 98.1713 99.0132 97.8609 98.3533C97.5493 97.6909 97.388 97.0174 97.2947 96.4791C97.1082 95.4041 97.0885 94.229 97.109 93.2544C97.1303 92.2424 97.2019 91.2342 97.262 90.4449C97.2719 90.3154 97.2812 90.1946 97.29 90.0809C97.3092 89.8313 97.3259 89.616 97.3396 89.4187C97.3492 89.2802 97.356 89.1703 97.3602 89.0838C97.3645 88.9982 97.3649 88.9609 97.365 88.9576V88.9574V75.7675C97.365 73.7766 98.8525 72.1627 100.688 72.1627ZM103.845 95.2421C103.845 95.2422 103.845 95.2405 103.844 95.2371C103.845 95.2404 103.845 95.2421 103.845 95.2421Z" fill="black"/>
<path fill-rule="evenodd" clip-rule="evenodd" d="M91.4351 153.486C91.8963 153.532 92.3149 153.573 92.6711 153.617C99.1237 154.409 105.727 155.063 112.418 155.054C120.861 155.042 127.996 153.479 135.61 150.095C139.219 148.492 142.333 146.283 144.762 142.928C145.058 142.52 145.367 141.874 145.548 141.486C145.79 140.964 146.075 140.295 146.318 139.609C146.542 138.979 146.812 138.109 146.893 137.259C146.93 136.864 146.965 136.138 146.703 135.349C146.394 134.419 145.56 133.19 143.91 132.782C142.006 132.312 140.081 133.418 139.611 135.251C139.447 135.887 139.481 136.527 139.674 137.112C139.65 137.184 139.624 137.261 139.596 137.341C139.438 137.785 139.239 138.255 139.061 138.638C138.974 138.828 138.899 138.978 138.847 139.078C138.845 139.081 138.843 139.084 138.842 139.088C137.276 141.204 135.261 142.68 132.591 143.866C125.872 146.852 119.739 148.19 112.345 148.2C106.114 148.209 99.8683 147.6 93.5059 146.818C92.766 146.728 92.1116 146.663 91.5146 146.604C90.1653 146.47 89.109 146.365 88.0216 146.057C87.5031 145.91 86.9492 145.642 86.2367 145.203C85.8787 144.983 85.5173 144.742 85.0978 144.461C85.0782 144.448 85.0585 144.435 85.0385 144.421C84.6504 144.162 84.2087 143.866 83.7523 143.582C82.0987 142.55 79.9033 143 78.849 144.587C77.7947 146.173 78.2807 148.296 79.9343 149.328C80.2908 149.55 80.647 149.788 81.062 150.065L81.087 150.082C81.4954 150.355 81.9622 150.667 82.4499 150.968C83.4286 151.572 84.635 152.223 86.0791 152.632C87.8473 153.132 89.8828 153.333 91.4351 153.486ZM138.799 139.167C138.799 139.167 138.801 139.163 138.807 139.153C138.802 139.161 138.799 139.167 138.799 139.167Z" fill="black"/>
</g>
<g clip-path="url(#clip1_488_3908)">
<path fill-rule="evenodd" clip-rule="evenodd" d="M83.695 220.81C91.7933 219.751 100.418 219.913 108.289 220.274C117.852 220.712 128.211 222.345 137.478 224.972C138.96 225.392 141.047 226.252 142.901 227.44C142.92 227.453 142.94 227.465 142.959 227.478C150.106 230.459 155.604 235.681 160.023 241.534C164.699 247.728 168.322 254.846 171.45 261.15C180.057 278.501 188.151 299.056 184.044 320.05C181.502 333.043 176.778 346.19 169.142 357.33C161.843 367.978 149.498 372.653 137.733 373.271C122.116 374.09 106.903 370.181 92.8129 365.069C91.0537 364.43 89.1133 363.79 87.0894 363.123C83.1464 361.822 78.8868 360.416 75.0343 358.717C69.0209 356.065 63.132 352.38 59.1141 346.305C51.2938 334.482 44.1066 320.264 40.6125 306.177C37.9453 295.424 37.768 285.072 38.1539 274.376C38.6515 260.585 45.8142 243.664 56.1633 234.307C57.0523 233.503 57.7633 232.801 58.5161 232.058C59.084 231.497 59.6756 230.914 60.3853 230.245C61.8813 228.835 63.5646 227.395 65.663 226.142C71.5374 222.633 77.7288 221.591 83.695 220.81ZM137.868 232.608C138.232 233.005 138.692 233.323 139.231 233.521C139.384 233.577 139.537 233.634 139.688 233.693C140.047 233.956 140.328 234.204 140.529 234.425C140.703 234.616 140.767 234.73 140.785 234.764C141.186 236.627 142.996 237.828 144.857 237.453C145.224 237.379 145.565 237.249 145.874 237.074C149.089 239.385 151.925 242.36 154.499 245.77C158.733 251.378 162.1 257.945 165.242 264.278C173.792 281.512 180.855 300.19 177.235 318.697C174.827 331.005 170.397 343.193 163.432 353.354C157.744 361.652 147.775 365.739 137.372 366.285C123.092 367.034 108.89 363.467 95.1637 358.487C92.9928 357.699 90.8547 356.997 88.743 356.303C85.0313 355.083 81.4009 353.89 77.8168 352.309C72.3769 349.909 67.8587 346.915 64.8888 342.425C57.3514 331.029 50.5879 317.552 47.3456 304.48C44.9166 294.688 44.7113 285.117 45.0897 274.63C45.5259 262.539 51.9903 247.477 60.7978 239.514C61.713 238.686 62.6963 237.721 63.589 236.845C64.1501 236.294 64.6754 235.778 65.1255 235.354C66.4462 234.11 67.7137 233.048 69.2012 232.16C73.757 229.439 78.7013 228.517 84.5882 227.747C92.0531 226.771 100.172 226.904 107.974 227.262C117.029 227.676 126.862 229.229 135.598 231.706C136.183 231.872 137.015 232.186 137.868 232.608Z" fill="black"/>
<path fill-rule="evenodd" clip-rule="evenodd" d="M121.269 334.815C117.777 335.236 113.836 334.825 109.332 334.336C108.576 334.254 107.932 334.201 107.339 334.152C106.394 334.074 105.578 334.007 104.643 333.85C103.297 333.623 102.517 333.305 102.031 332.908C98.7978 330.262 95.6866 326.914 93.5245 323.642C93.212 323.169 92.9147 322.738 92.6306 322.326C92.0845 321.534 91.5872 320.813 91.1246 320.001C90.4571 318.829 90.1502 317.921 90.1502 317.187V313.262C90.1502 311.602 88.5495 310.256 86.5751 310.256C84.6006 310.256 83 311.602 83 313.262V317.187C83 319.236 83.823 321.101 84.6763 322.599C85.2608 323.624 86.004 324.705 86.6184 325.597C86.8636 325.954 87.0882 326.28 87.2741 326.562C89.8019 330.388 93.3533 334.197 97.0444 337.217C98.95 338.776 101.289 339.417 103.24 339.746C104.488 339.955 105.98 340.083 107.15 340.183C107.644 340.225 108.08 340.262 108.417 340.299C108.517 340.31 108.618 340.321 108.718 340.332C112.914 340.788 117.754 341.313 122.285 340.767C127.157 340.179 131.8 338.345 135.302 334.104C140.897 327.33 142 318.223 142 311.006C142 309.346 140.4 308 138.425 308C136.451 308 134.85 309.346 134.85 311.006C134.85 318 133.704 325.499 129.429 330.675C127.249 333.315 124.53 334.421 121.269 334.815Z" fill="black"/>
<path fill-rule="evenodd" clip-rule="evenodd" d="M69.7505 267.673C70.8009 266.09 72.9296 265.662 74.5052 266.718C75.9779 267.704 76.8587 269.147 77.339 269.934C77.3911 270.02 77.4384 270.097 77.4814 270.166L74.5799 272.002L77.4814 270.166C77.8958 270.827 78.5226 271.479 79.4377 272.274C79.6859 272.49 80.0036 272.754 80.3528 273.044C81.0531 273.626 81.8799 274.314 82.5263 274.925C82.6581 275.05 82.7859 275.171 82.9101 275.289C83.9952 276.319 84.8117 277.094 85.661 277.594C86.4415 278.054 86.725 277.976 86.9856 277.858C88.0935 277.357 88.7615 276.491 89.1944 275.069C89.6644 273.526 89.7508 271.642 89.7508 269.585C89.7508 267.682 91.2859 266.139 93.1794 266.139C95.073 266.139 96.6081 267.682 96.6081 269.585C96.6081 271.654 96.5504 274.462 95.7516 277.086C94.9158 279.831 93.1904 282.609 89.7996 284.143C86.8426 285.48 84.152 284.692 82.1959 283.541C80.6126 282.609 79.1832 281.241 78.1919 280.292C78.0625 280.168 77.9405 280.051 77.8266 279.944C77.3036 279.449 76.8343 279.062 76.2854 278.609C75.8971 278.288 75.469 277.935 74.9541 277.488C73.8801 276.555 72.6395 275.371 71.6785 273.838C71.6121 273.732 71.5523 273.636 71.4977 273.548C71.2647 273.174 71.1264 272.952 70.9667 272.74C70.8062 272.526 70.7267 272.468 70.7014 272.451C69.1259 271.396 68.7002 269.257 69.7505 267.673Z" fill="black"/>
<path fill-rule="evenodd" clip-rule="evenodd" d="M116.25 269.88C118.134 269.88 119.66 271.473 119.66 273.44C119.66 273.729 119.653 274.135 119.647 274.485C119.644 274.702 119.64 274.897 119.639 275.029C119.635 275.505 119.645 275.879 119.676 276.202C119.737 276.827 119.861 277.049 119.955 277.169C120.224 277.512 120.422 277.857 120.554 278.107C120.693 278.369 120.813 278.63 120.91 278.845C120.996 279.039 121.064 279.195 121.124 279.332C121.205 279.518 121.271 279.67 121.35 279.836C121.875 279.922 122.396 280.009 122.914 280.095C127.476 280.853 131.769 281.567 136.011 281.453C135.994 281.453 135.986 281.454 135.986 281.453C135.985 281.451 136.151 281.43 136.501 281.315C136.879 281.192 137.325 281.008 137.761 280.785C138.204 280.559 138.562 280.332 138.799 280.146C138.849 280.106 138.887 280.073 138.915 280.049C139.826 278.478 141.755 277.877 143.355 278.712C145.04 279.591 145.722 281.73 144.88 283.488C144.354 284.586 143.502 285.361 142.899 285.834C142.227 286.363 141.473 286.816 140.755 287.182C139.457 287.844 137.666 288.531 136.186 288.571C131.258 288.702 126.253 287.866 121.717 287.107C120.93 286.976 120.158 286.847 119.403 286.725C118.008 286.501 117.056 285.676 116.496 285.023C115.945 284.382 115.568 283.674 115.325 283.177C115.154 282.826 114.968 282.401 114.84 282.107C114.797 282.008 114.76 281.923 114.732 281.862C114.66 281.7 114.615 281.611 114.595 281.572C113.42 280.019 113.027 278.319 112.891 276.92C112.796 275.948 112.818 274.825 112.832 274.04C112.837 273.805 112.84 273.601 112.84 273.44C112.84 271.473 114.367 269.88 116.25 269.88ZM138.976 279.99C138.976 279.99 138.974 279.993 138.968 279.999C138.973 279.993 138.976 279.99 138.976 279.99Z" fill="black"/>
</g>
<g clip-path="url(#clip2_488_3908)">
<path fill-rule="evenodd" clip-rule="evenodd" d="M92.9475 406.541C106.939 404.72 121.194 402.865 135.346 411.389C137.943 412.953 141.571 415.377 144.865 418.324C145.247 416.453 147.063 415.242 148.93 415.617C151.998 416.233 154.494 418.106 156.394 419.805C157.364 420.673 158.283 421.593 159.096 422.409L159.108 422.42C159.954 423.269 160.672 423.988 161.355 424.591C166.411 429.055 170.706 433.908 174.967 438.722C175.147 438.926 175.327 439.13 175.508 439.333C180.442 444.906 184.231 453.084 186.073 459.988C194.092 490.042 180.205 519.091 159.852 539.523C154.712 544.682 148.521 550.491 141.575 554.909C134.627 559.328 126.662 562.524 118.022 562.079C107.849 561.555 97.8432 558.229 88.8825 554.816C88.6669 554.734 88.4498 554.651 88.2313 554.568C81.0343 551.83 72.3464 548.524 65.9478 542.605C55.1418 532.608 47.3522 517.193 42.1174 504.464C38.9283 496.71 36.0051 487.77 35.2402 479.004C34.9196 475.33 34.9903 471.486 35.0563 467.89C35.0826 466.463 35.1081 465.074 35.1081 463.751C35.1081 458.358 35.1411 452.63 36.8905 446.813C38.1623 442.584 40.3539 438.73 42.3127 435.285C42.7048 434.596 43.0877 433.923 43.4519 433.266C47.2357 426.446 53.3666 420.46 59.8036 416.433C68.9488 410.712 80.5018 408.132 90.4463 406.864C91.2791 406.758 92.1129 406.649 92.9475 406.541ZM149.484 423.221C151.646 426.043 153.314 429.367 153.314 432.985C153.314 434.902 151.766 436.456 149.857 436.456C147.948 436.456 146.4 434.902 146.4 432.985C146.4 430.693 144.692 427.774 141.445 424.607C138.354 421.591 134.531 418.992 131.789 417.341C119.753 410.091 107.772 411.633 93.2736 413.498C92.6266 413.582 91.9746 413.666 91.3173 413.749C81.693 414.976 71.3302 417.4 63.4604 422.323C57.8578 425.828 52.6214 431.003 49.4923 436.643C49.0554 437.431 48.6238 438.193 48.2026 438.936C46.2592 442.366 44.5344 445.411 43.5095 448.819C42.0947 453.524 42.0222 458.272 42.0222 463.751C42.0222 465.357 41.9933 466.908 41.9651 468.423C41.9013 471.858 41.8409 475.109 42.1279 478.398C42.8037 486.143 45.4301 494.331 48.5082 501.816C53.6699 514.367 60.9937 528.583 70.6333 537.501C76.0356 542.498 83.639 545.395 91.253 548.295L91.3354 548.326C100.204 551.704 109.353 554.683 118.377 555.147C125.064 555.492 131.602 553.036 137.875 549.046C144.15 545.055 149.9 539.697 154.963 534.615C174.324 515.179 186.539 488.563 179.394 461.784C177.75 455.624 174.378 448.505 170.34 443.945C170.19 443.776 170.041 443.607 169.892 443.439C165.559 438.544 161.518 433.978 156.789 429.802C155.931 429.045 155.072 428.184 154.281 427.391L154.222 427.332C153.385 426.492 152.599 425.707 151.794 424.987C150.952 424.234 150.189 423.648 149.484 423.221Z" fill="black"/>
<path fill-rule="evenodd" clip-rule="evenodd" d="M95.1753 449.892C97.0648 449.892 98.5964 451.452 98.5964 453.376C98.5964 456.085 97.9316 459.425 96.068 462.054C95.9822 462.175 95.8991 462.318 95.6997 462.663L95.6905 462.679C95.5277 462.961 95.2524 463.439 94.8974 463.897C94.0218 465.027 92.6078 466.098 90.4904 466.098C90.2423 466.098 89.99 466.099 89.7338 466.1C86.9331 466.112 83.6649 466.126 80.2673 464.76C78.0428 463.865 76.6319 462.622 75.523 461.193C75.0294 460.557 74.602 459.891 74.244 459.333L74.2266 459.306C73.8445 458.71 73.5034 458.179 73.0941 457.623C71.9604 456.083 72.2668 453.899 73.7783 452.744C75.2898 451.589 77.4342 451.901 78.5678 453.441C79.1113 454.179 79.5563 454.873 79.9177 455.436C79.93 455.455 79.9421 455.474 79.9542 455.493C80.3427 456.099 80.6118 456.512 80.8909 456.872C81.3435 457.455 81.8076 457.886 82.7795 458.277C84.8722 459.119 86.8416 459.131 89.8026 459.129C89.8151 459.107 89.8285 459.084 89.8427 459.059C89.992 458.799 90.2341 458.378 90.5212 457.973C91.2928 456.885 91.7543 455.125 91.7543 453.376C91.7543 451.452 93.2859 449.892 95.1753 449.892Z" fill="black"/>
<path fill-rule="evenodd" clip-rule="evenodd" d="M124.412 452.872C124.055 451.005 122.363 449.7 120.495 449.915C118.525 450.14 117.105 451.971 117.324 454.003C117.461 455.272 118.045 456.353 118.45 457.011C118.912 457.763 119.474 458.486 120.014 459.114C121.075 460.35 122.32 461.532 123.191 462.199C123.241 462.238 123.296 462.28 123.355 462.325C123.827 462.689 124.546 463.244 125.31 463.695C126.164 464.199 127.466 464.819 129.031 464.819C129.125 464.819 129.222 464.823 129.392 464.83C129.468 464.833 129.558 464.837 129.668 464.841C129.969 464.852 130.378 464.864 130.813 464.847C131.496 464.82 133.084 464.717 134.426 463.652C134.917 463.263 135.368 462.816 135.655 462.533C135.694 462.494 135.73 462.459 135.762 462.427C136.102 462.093 136.254 461.963 136.361 461.89C136.961 461.477 137.479 460.995 137.871 460.61C138.087 460.397 138.375 460.101 138.614 459.856C138.745 459.72 138.863 459.6 138.945 459.517C139.267 459.192 139.497 458.979 139.682 458.835C139.766 458.77 139.817 458.736 139.84 458.723C141.686 458.055 142.677 455.98 142.056 454.059C141.429 452.119 139.396 451.071 137.516 451.717C135.855 452.288 134.592 453.551 133.927 454.222C133.663 454.488 133.449 454.707 133.273 454.888C132.819 455.353 132.604 455.574 132.379 455.729C131.705 456.192 131.16 456.723 130.814 457.063C130.772 457.104 130.733 457.142 130.696 457.179C130.586 457.287 130.495 457.376 130.418 457.451C130.283 457.452 130.125 457.449 129.926 457.441L129.729 457.434C129.662 457.431 129.589 457.428 129.517 457.425C129.411 457.421 129.289 457.418 129.161 457.416C129.113 457.396 129.019 457.353 128.874 457.268C128.515 457.056 128.159 456.782 127.632 456.378C127.58 456.338 127.527 456.298 127.472 456.255C127.07 455.948 126.184 455.133 125.388 454.205C124.998 453.751 124.7 453.351 124.512 453.045C124.466 452.971 124.434 452.914 124.412 452.872ZM124.377 452.8C124.374 452.794 124.373 452.791 124.373 452.791C124.373 452.791 124.374 452.794 124.377 452.8Z" fill="black"/>
<path fill-rule="evenodd" clip-rule="evenodd" d="M112.446 528.932C114.269 528.778 116.033 528.385 117.177 528.091C120.912 527.128 125.135 525.883 128.748 523.022C128.84 522.95 128.944 522.869 129.057 522.78C129.76 522.232 130.832 521.396 131.716 520.452C132.741 519.357 134 517.624 134 515.358C134 513.546 132.438 512.077 130.509 512.077C128.587 512.077 127.028 513.536 127.019 515.341C127.013 515.365 126.952 515.607 126.475 516.117C125.983 516.643 125.392 517.106 124.673 517.671C124.537 517.777 124.397 517.888 124.252 518.003C121.897 519.866 118.988 520.819 115.332 521.761C114.377 522.007 113.06 522.29 111.82 522.395C111.203 522.448 110.688 522.448 110.295 522.406C109.964 522.371 109.83 522.318 109.823 522.316C108.627 521.651 107.426 520.863 106.149 520.024C105.636 519.688 105.11 519.343 104.567 518.995C103.099 518.052 102.009 516.65 100.803 514.68C100.544 514.257 100.269 513.786 99.9772 513.287C99.0368 511.676 97.9166 509.759 96.5646 508.125C95.6628 507.035 95.1471 505.872 94.641 504.373C94.5313 504.048 94.4164 503.685 94.2929 503.295C93.8895 502.022 93.3936 500.456 92.6813 498.949C91.8984 497.293 89.8356 496.547 88.0739 497.284C86.3122 498.02 85.5187 499.958 86.3017 501.615C86.8156 502.701 87.1274 503.684 87.4964 504.848C87.6449 505.315 87.8027 505.813 87.9866 506.358C88.5895 508.144 89.4072 510.164 91.0538 512.155C92.0357 513.341 92.7646 514.588 93.6272 516.062C93.9724 516.652 94.3391 517.279 94.7519 517.953C96.0824 520.127 97.814 522.606 100.63 524.414C101.037 524.676 101.478 524.965 101.942 525.269C103.296 526.158 104.84 527.172 106.289 527.976C108.315 529.102 110.812 529.07 112.446 528.932Z" fill="black"/>
</g>
<defs>
<clipPath id="clip0_488_3908">
<rect width="150" height="153" fill="white" transform="translate(37 36)"/>
</clipPath>
<clipPath id="clip1_488_3908">
<rect width="148" height="154" fill="white" transform="translate(38 220)"/>
</clipPath>
<clipPath id="clip2_488_3908">
<rect width="154" height="158" fill="white" transform="translate(35 405)"/>
</clipPath>
</defs>
</svg>
