<svg width="225" height="600" viewBox="0 0 225 600" fill="none" xmlns="http://www.w3.org/2000/svg">
<g clip-path="url(#clip0_488_3891)">
<path fill-rule="evenodd" clip-rule="evenodd" d="M96.0226 36.56C107.71 35.4867 122.488 35.6217 134.222 39.9927C135.351 40.4133 136.39 40.8227 137.39 41.2165C139.189 41.925 140.86 42.5829 142.692 43.164C143.348 43.3722 143.91 43.6663 144.322 43.9029C144.635 44.0826 144.968 44.2932 145.214 44.4493C145.278 44.4898 145.337 44.5266 145.387 44.5583C145.687 44.7459 145.856 44.8427 145.974 44.8987C147.794 45.1938 149.082 46.8644 148.876 48.7127C148.755 49.7979 148.145 50.7107 147.29 51.257C147.304 51.2694 147.319 51.2818 147.333 51.294C148.575 52.3417 149.757 53.7936 150.688 54.9367C150.868 55.1585 151.039 55.3686 151.199 55.562C152.381 56.9882 153.186 57.7944 153.855 58.158C159.021 60.9672 162.58 65.0856 165.435 69.333C166.859 71.4508 168.14 73.6508 169.35 75.76C169.508 76.0365 169.665 76.3111 169.821 76.5837C170.874 78.4231 171.878 80.1769 172.941 81.8606C176.857 88.0615 179.497 95.6271 181.869 102.425C182.6 104.521 183.306 106.544 184.016 108.432C190.073 124.535 185.802 142.265 178.088 156.382C175.005 162.024 171.259 168.449 166.516 173.922C161.764 179.405 155.829 184.149 148.302 186.113C137.204 189.008 124.532 188.225 113.91 187.227C105.587 186.445 97.3707 184.602 89.5043 182.424L89.1842 182.335C80.6027 179.959 69.9273 177.004 62.3651 170.103C56.6192 164.86 52.7178 157.871 49.5985 151.527C40.7552 133.541 37.0807 115.694 37.2528 95.8754C37.3892 80.1732 40.4014 63.6379 54.2679 52.5781C65.9434 43.2658 81.4033 37.9024 96.0226 36.56ZM135.084 47.7839C134.894 47.7093 134.705 47.6349 134.517 47.5611C133.57 47.1889 132.652 46.8284 131.782 46.5042C121.531 42.6857 108.016 42.4392 96.6621 43.4818C83.1535 44.7223 69.0544 49.6862 58.6234 58.006C47.2935 67.0426 44.356 80.8114 44.2247 95.9355C44.0611 114.766 47.5322 131.532 55.8589 148.467C58.9201 154.693 62.3515 160.668 67.0724 164.975C73.2736 170.634 82.3621 173.231 91.3703 175.726C99.0309 177.848 106.81 179.578 114.564 180.307C125.217 181.307 136.763 181.938 146.537 179.388C152.221 177.905 157.024 174.243 161.24 169.378C165.465 164.502 168.917 158.634 171.965 153.056C179.155 139.9 182.562 124.365 177.488 110.873C176.644 108.628 175.854 106.369 175.07 104.127C172.754 97.5002 170.492 91.0288 167.041 85.5643C165.891 83.7428 164.805 81.846 163.76 80.0183C163.605 79.7472 163.45 79.4776 163.297 79.21C162.09 77.1061 160.917 75.0963 159.644 73.2032C157.106 69.4287 154.305 66.3204 150.516 64.2604C148.515 63.1719 146.941 61.3363 145.824 59.9893C145.573 59.686 145.34 59.4013 145.121 59.1341C144.197 58.0058 143.527 57.1886 142.83 56.6004C142.489 56.3131 142.151 56.0229 141.81 55.731C141.104 55.1253 140.389 54.5124 139.63 53.9036C138.503 52.9992 137.552 52.3315 136.838 51.9754C135.271 51.1943 134.552 49.3952 135.084 47.7839ZM146.031 44.9238C146.031 44.9238 146.028 44.923 146.024 44.9211C146.028 44.9227 146.031 44.9237 146.031 44.9238Z" fill="black"/>
<path fill-rule="evenodd" clip-rule="evenodd" d="M129.524 74.6566C131.59 74.6566 133.265 76.2258 133.265 78.1614V103.574C133.265 105.509 131.59 107.078 129.524 107.078C127.458 107.078 125.783 105.509 125.783 103.574V78.1614C125.783 76.2258 127.458 74.6566 129.524 74.6566Z" fill="black"/>
<path fill-rule="evenodd" clip-rule="evenodd" d="M100.688 72.1627C102.523 72.1627 104.01 73.7766 104.01 75.7675V88.9574C104.01 89.4278 103.955 90.138 103.908 90.7396C103.9 90.8429 103.892 90.943 103.885 91.0381C103.826 91.8121 103.769 92.6375 103.753 93.4192C103.739 94.0634 103.756 94.5588 103.792 94.901C104.629 95.9688 104.847 97.5171 104.233 98.8499C103.412 100.631 101.417 101.352 99.7752 100.462C98.7485 99.905 98.1713 99.0132 97.8609 98.3533C97.5493 97.6909 97.388 97.0174 97.2947 96.4791C97.1082 95.4041 97.0885 94.229 97.109 93.2544C97.1303 92.2424 97.2019 91.2342 97.262 90.4449C97.2719 90.3154 97.2812 90.1946 97.29 90.0809C97.3092 89.8313 97.3259 89.616 97.3396 89.4187C97.3492 89.2802 97.356 89.1703 97.3602 89.0838C97.3645 88.9982 97.3649 88.9609 97.365 88.9576V88.9574V75.7675C97.365 73.7766 98.8525 72.1627 100.688 72.1627ZM103.845 95.2421C103.845 95.2422 103.845 95.2405 103.844 95.2371C103.845 95.2404 103.845 95.2421 103.845 95.2421Z" fill="black"/>
<path fill-rule="evenodd" clip-rule="evenodd" d="M87.151 133.294C87.6081 133.305 88.0229 133.315 88.3769 133.315C94.7897 133.315 101.334 133.474 107.884 134.312C116.148 135.369 122.946 137.829 129.994 142.184C133.334 144.248 136.118 146.861 138.093 150.545C138.334 150.994 138.559 151.683 138.689 152.097C138.864 152.654 139.062 153.363 139.218 154.085C139.361 154.748 139.521 155.659 139.498 156.527C139.487 156.93 139.434 157.666 139.083 158.429C138.668 159.329 137.704 160.465 136.039 160.672C134.118 160.91 132.366 159.557 132.126 157.65C132.043 156.988 132.153 156.347 132.412 155.781C132.397 155.705 132.381 155.624 132.363 155.54C132.262 155.073 132.124 154.574 131.996 154.166C131.933 153.964 131.878 153.803 131.839 153.696C131.837 153.692 131.836 153.689 131.835 153.685C130.556 151.357 128.761 149.619 126.29 148.092C120.07 144.249 114.226 142.14 106.988 141.214C100.888 140.434 94.7001 140.275 88.3769 140.275C87.6416 140.275 86.9931 140.259 86.4015 140.245C85.0643 140.213 84.0175 140.188 82.9158 140.364C82.3905 140.448 81.8161 140.649 81.0656 141.004C80.6886 141.182 80.3059 141.38 79.8614 141.611C79.8406 141.622 79.8197 141.633 79.7985 141.644C79.3875 141.857 78.9194 142.101 78.4384 142.331C76.6953 143.167 74.6 142.441 73.7585 140.71C72.917 138.98 73.6479 136.9 75.391 136.064C75.7667 135.884 76.1441 135.688 76.5838 135.459L76.6103 135.446C77.0429 135.221 77.5375 134.964 78.0511 134.721C79.0819 134.234 80.3414 133.726 81.8044 133.493C83.5957 133.207 85.6128 133.256 87.151 133.294ZM131.802 153.6C131.802 153.6 131.804 153.604 131.808 153.615C131.804 153.606 131.802 153.6 131.802 153.6Z" fill="black"/>
</g>
<g clip-path="url(#clip1_488_3891)">
<path fill-rule="evenodd" clip-rule="evenodd" d="M83.695 220.81C91.7933 219.751 100.418 219.913 108.289 220.274C117.852 220.712 128.211 222.345 137.478 224.972C138.96 225.392 141.047 226.252 142.901 227.44C142.92 227.453 142.94 227.465 142.959 227.478C150.106 230.459 155.604 235.681 160.023 241.534C164.699 247.728 168.322 254.846 171.45 261.15C180.057 278.501 188.151 299.056 184.044 320.05C181.502 333.043 176.778 346.19 169.142 357.33C161.843 367.978 149.498 372.653 137.733 373.271C122.116 374.09 106.903 370.181 92.8129 365.069C91.0537 364.43 89.1133 363.79 87.0894 363.123C83.1464 361.822 78.8868 360.416 75.0343 358.717C69.0209 356.065 63.132 352.38 59.1141 346.305C51.2938 334.482 44.1066 320.264 40.6125 306.177C37.9453 295.424 37.768 285.072 38.1539 274.376C38.6515 260.585 45.8142 243.664 56.1633 234.307C57.0523 233.503 57.7633 232.801 58.5161 232.058C59.084 231.497 59.6756 230.914 60.3853 230.245C61.8813 228.835 63.5646 227.395 65.663 226.142C71.5374 222.633 77.7288 221.591 83.695 220.81ZM137.868 232.608C138.232 233.005 138.692 233.323 139.231 233.521C139.384 233.577 139.537 233.634 139.688 233.693C140.047 233.956 140.328 234.204 140.529 234.425C140.703 234.616 140.767 234.73 140.785 234.764C141.186 236.627 142.996 237.828 144.857 237.453C145.224 237.379 145.565 237.249 145.874 237.074C149.089 239.385 151.925 242.36 154.499 245.77C158.733 251.378 162.1 257.945 165.242 264.278C173.792 281.512 180.855 300.19 177.235 318.697C174.827 331.005 170.397 343.193 163.432 353.354C157.744 361.652 147.775 365.739 137.372 366.285C123.092 367.034 108.89 363.467 95.1637 358.487C92.9928 357.699 90.8547 356.997 88.743 356.303C85.0313 355.083 81.4009 353.89 77.8168 352.309C72.3769 349.909 67.8587 346.915 64.8888 342.425C57.3514 331.029 50.5879 317.552 47.3456 304.48C44.9166 294.688 44.7113 285.117 45.0897 274.63C45.5259 262.539 51.9903 247.477 60.7978 239.514C61.713 238.686 62.6963 237.721 63.589 236.845C64.1501 236.294 64.6754 235.778 65.1255 235.354C66.4462 234.11 67.7137 233.048 69.2012 232.16C73.757 229.439 78.7013 228.517 84.5882 227.747C92.0531 226.771 100.172 226.904 107.974 227.262C117.029 227.676 126.862 229.229 135.598 231.706C136.183 231.872 137.015 232.186 137.868 232.608Z" fill="black"/>
<path fill-rule="evenodd" clip-rule="evenodd" d="M118.413 310.56C114.944 310.082 111.029 310.549 106.555 311.103C105.804 311.196 105.164 311.256 104.575 311.311C103.636 311.4 102.825 311.476 101.896 311.654C100.56 311.911 99.7846 312.271 99.3018 312.722C96.0904 315.721 92.9999 319.516 90.8521 323.226C90.5417 323.762 90.2464 324.251 89.9642 324.718C89.4217 325.616 88.9277 326.433 88.4682 327.353C87.8051 328.682 87.5002 329.711 87.5002 330.543V334.993C87.5002 336.875 85.9102 338.401 83.9489 338.401C81.9875 338.401 80.3975 336.875 80.3975 334.993V330.543C80.3975 328.221 81.215 326.106 82.0627 324.408C82.6433 323.246 83.3816 322.021 83.9919 321.009C84.2355 320.605 84.4586 320.235 84.6432 319.916C87.1542 315.579 90.6821 311.26 94.3487 307.837C96.2416 306.069 98.5654 305.342 100.503 304.97C101.743 304.732 103.225 304.588 104.387 304.474C104.878 304.427 105.311 304.384 105.646 304.343C105.745 304.33 105.845 304.318 105.945 304.306C110.113 303.789 114.92 303.193 119.422 303.813C124.262 304.479 128.874 306.558 132.353 311.366C137.91 319.045 139.006 329.369 139.006 337.55C139.006 339.432 137.416 340.958 135.455 340.958C133.493 340.958 131.903 339.432 131.903 337.55C131.903 329.622 130.765 321.121 126.519 315.253C124.352 312.26 121.652 311.006 118.413 310.56Z" fill="black"/>
<path fill-rule="evenodd" clip-rule="evenodd" d="M69.751 267.673C70.8014 266.09 72.9301 265.662 74.5057 266.718C75.9784 267.704 76.8592 269.147 77.3395 269.934C77.3916 270.02 77.4389 270.097 77.4819 270.166L74.5804 272.002L77.4819 270.166C77.8963 270.827 78.5231 271.479 79.4382 272.274C79.6864 272.49 80.0041 272.754 80.3533 273.044C81.0536 273.626 81.8804 274.314 82.5268 274.925C82.6586 275.05 82.7864 275.171 82.9106 275.289C83.9957 276.319 84.8122 277.094 85.6615 277.594C86.442 278.054 86.7255 277.976 86.9861 277.858C88.094 277.357 88.762 276.491 89.1949 275.069C89.6649 273.526 89.7513 271.642 89.7513 269.585C89.7513 267.682 91.2864 266.139 93.1799 266.139C95.0735 266.139 96.6086 267.682 96.6086 269.585C96.6086 271.654 96.5509 274.462 95.7521 277.086C94.9163 279.831 93.1909 282.609 89.8001 284.143C86.8431 285.48 84.1525 284.692 82.1964 283.541C80.6131 282.609 79.1837 281.241 78.1924 280.292C78.063 280.168 77.941 280.051 77.8271 279.944C77.3041 279.449 76.8348 279.062 76.2859 278.609C75.8976 278.288 75.4695 277.935 74.9546 277.488C73.8806 276.555 72.64 275.371 71.679 273.838C71.6126 273.732 71.5528 273.636 71.4982 273.548C71.2652 273.174 71.1269 272.952 70.9672 272.74C70.8067 272.526 70.7272 272.468 70.7019 272.451C69.1264 271.396 68.7007 269.257 69.751 267.673Z" fill="black"/>
<path fill-rule="evenodd" clip-rule="evenodd" d="M116.25 269.88C118.134 269.88 119.66 271.473 119.66 273.44C119.66 273.729 119.653 274.135 119.647 274.485C119.644 274.702 119.64 274.897 119.639 275.029C119.635 275.505 119.645 275.879 119.676 276.202C119.737 276.827 119.861 277.049 119.955 277.169C120.224 277.512 120.422 277.857 120.554 278.107C120.693 278.369 120.813 278.63 120.91 278.845C120.996 279.039 121.064 279.195 121.124 279.332C121.205 279.518 121.271 279.67 121.35 279.836C121.875 279.922 122.396 280.009 122.914 280.095C127.476 280.853 131.769 281.567 136.011 281.453C135.994 281.453 135.986 281.454 135.986 281.453C135.985 281.451 136.151 281.43 136.501 281.315C136.879 281.192 137.325 281.008 137.761 280.785C138.204 280.559 138.562 280.332 138.799 280.146C138.849 280.106 138.887 280.073 138.915 280.049C139.826 278.478 141.755 277.877 143.355 278.712C145.04 279.591 145.722 281.73 144.88 283.488C144.354 284.586 143.502 285.361 142.899 285.834C142.227 286.363 141.473 286.816 140.755 287.182C139.457 287.844 137.666 288.531 136.186 288.571C131.258 288.702 126.253 287.866 121.717 287.107C120.93 286.976 120.158 286.847 119.403 286.725C118.008 286.501 117.056 285.676 116.496 285.023C115.945 284.382 115.568 283.674 115.325 283.177C115.154 282.826 114.968 282.401 114.84 282.107C114.797 282.008 114.76 281.923 114.732 281.862C114.66 281.7 114.615 281.611 114.595 281.572C113.42 280.019 113.027 278.319 112.891 276.92C112.796 275.948 112.818 274.825 112.832 274.04C112.837 273.805 112.84 273.601 112.84 273.44C112.84 271.473 114.367 269.88 116.25 269.88ZM138.976 279.99C138.976 279.99 138.974 279.993 138.968 279.999C138.973 279.993 138.976 279.99 138.976 279.99Z" fill="black"/>
</g>
<g clip-path="url(#clip2_488_3891)">
<path fill-rule="evenodd" clip-rule="evenodd" d="M92.9475 406.541C106.939 404.72 121.194 402.865 135.346 411.389C137.943 412.953 141.571 415.377 144.865 418.324C145.247 416.453 147.063 415.242 148.93 415.617C151.998 416.233 154.494 418.106 156.394 419.805C157.364 420.673 158.283 421.593 159.096 422.409L159.108 422.42C159.954 423.269 160.672 423.988 161.355 424.591C166.411 429.055 170.706 433.908 174.967 438.722C175.147 438.926 175.327 439.13 175.508 439.333C180.442 444.906 184.231 453.084 186.073 459.988C194.092 490.042 180.205 519.091 159.852 539.523C154.712 544.682 148.521 550.491 141.575 554.909C134.627 559.328 126.662 562.524 118.022 562.079C107.849 561.555 97.8432 558.229 88.8825 554.816C88.6669 554.734 88.4498 554.651 88.2313 554.568C81.0343 551.83 72.3464 548.524 65.9478 542.605C55.1418 532.608 47.3522 517.193 42.1174 504.464C38.9283 496.71 36.0051 487.77 35.2402 479.004C34.9196 475.33 34.9903 471.486 35.0563 467.89C35.0826 466.463 35.1081 465.074 35.1081 463.751C35.1081 458.358 35.1411 452.63 36.8905 446.813C38.1623 442.584 40.3539 438.73 42.3127 435.285C42.7048 434.596 43.0877 433.923 43.4519 433.266C47.2357 426.446 53.3666 420.46 59.8036 416.433C68.9488 410.712 80.5018 408.132 90.4463 406.864C91.2791 406.758 92.1129 406.649 92.9475 406.541ZM149.484 423.221C151.646 426.043 153.314 429.367 153.314 432.985C153.314 434.902 151.766 436.456 149.857 436.456C147.948 436.456 146.4 434.902 146.4 432.985C146.4 430.693 144.692 427.774 141.445 424.607C138.354 421.591 134.531 418.992 131.789 417.341C119.753 410.091 107.772 411.633 93.2736 413.498C92.6266 413.582 91.9746 413.666 91.3173 413.749C81.693 414.976 71.3302 417.4 63.4604 422.323C57.8578 425.828 52.6214 431.003 49.4923 436.643C49.0554 437.431 48.6238 438.193 48.2026 438.936C46.2592 442.366 44.5344 445.411 43.5095 448.819C42.0947 453.524 42.0222 458.272 42.0222 463.751C42.0222 465.357 41.9933 466.908 41.9651 468.423C41.9013 471.858 41.8409 475.109 42.1279 478.398C42.8037 486.143 45.4301 494.331 48.5082 501.816C53.6699 514.367 60.9937 528.583 70.6333 537.501C76.0356 542.498 83.639 545.395 91.253 548.295L91.3354 548.326C100.204 551.704 109.353 554.683 118.377 555.147C125.064 555.492 131.602 553.036 137.875 549.046C144.15 545.055 149.9 539.697 154.963 534.615C174.324 515.179 186.539 488.563 179.394 461.784C177.75 455.624 174.378 448.505 170.34 443.945C170.19 443.776 170.041 443.607 169.892 443.439C165.559 438.544 161.518 433.978 156.789 429.802C155.931 429.045 155.072 428.184 154.281 427.391L154.222 427.332C153.385 426.492 152.599 425.707 151.794 424.987C150.952 424.234 150.189 423.648 149.484 423.221Z" fill="black"/>
<path fill-rule="evenodd" clip-rule="evenodd" d="M95.1748 449.892C97.0643 449.892 98.5959 451.452 98.5959 453.376C98.5959 456.085 97.9311 459.425 96.0675 462.054C95.9817 462.175 95.8986 462.318 95.6992 462.663L95.69 462.679C95.5272 462.961 95.2519 463.439 94.8969 463.897C94.0213 465.027 92.6073 466.098 90.4899 466.098C90.2418 466.098 89.9895 466.099 89.7333 466.1C86.9326 466.112 83.6644 466.126 80.2668 464.76C78.0423 463.865 76.6314 462.622 75.5225 461.193C75.0289 460.557 74.6015 459.891 74.2435 459.333L74.2261 459.306C73.844 458.71 73.5029 458.179 73.0936 457.623C71.9599 456.083 72.2663 453.899 73.7778 452.744C75.2893 451.589 77.4337 451.901 78.5673 453.441C79.1108 454.179 79.5558 454.873 79.9172 455.436C79.9295 455.455 79.9416 455.474 79.9537 455.493C80.3422 456.099 80.6113 456.512 80.8904 456.872C81.343 457.455 81.8071 457.886 82.779 458.277C84.8717 459.119 86.8411 459.131 89.8021 459.129C89.8146 459.107 89.828 459.084 89.8422 459.059C89.9915 458.799 90.2336 458.378 90.5207 457.973C91.2923 456.885 91.7538 455.125 91.7538 453.376C91.7538 451.452 93.2854 449.892 95.1748 449.892Z" fill="black"/>
<path fill-rule="evenodd" clip-rule="evenodd" d="M124.412 452.872C124.055 451.005 122.363 449.7 120.495 449.915C118.525 450.14 117.105 451.971 117.324 454.003C117.461 455.272 118.045 456.353 118.45 457.011C118.912 457.763 119.474 458.486 120.014 459.114C121.075 460.35 122.32 461.532 123.191 462.199C123.241 462.238 123.296 462.28 123.355 462.325C123.827 462.689 124.546 463.244 125.31 463.695C126.164 464.199 127.466 464.819 129.031 464.819C129.125 464.819 129.222 464.823 129.392 464.83C129.468 464.833 129.558 464.837 129.668 464.841C129.969 464.852 130.378 464.864 130.813 464.847C131.496 464.82 133.084 464.717 134.426 463.652C134.917 463.263 135.368 462.816 135.655 462.533C135.694 462.494 135.73 462.459 135.762 462.427C136.102 462.093 136.254 461.963 136.361 461.89C136.961 461.477 137.479 460.995 137.871 460.61C138.087 460.397 138.375 460.101 138.614 459.856C138.745 459.72 138.863 459.6 138.945 459.517C139.267 459.192 139.497 458.979 139.682 458.835C139.766 458.77 139.817 458.736 139.84 458.723C141.686 458.055 142.677 455.98 142.056 454.059C141.429 452.119 139.396 451.071 137.516 451.717C135.855 452.288 134.592 453.551 133.927 454.222C133.663 454.488 133.449 454.707 133.273 454.888C132.819 455.353 132.604 455.574 132.379 455.729C131.705 456.192 131.16 456.723 130.814 457.063C130.772 457.104 130.733 457.142 130.696 457.179C130.586 457.287 130.495 457.376 130.418 457.451C130.283 457.452 130.125 457.449 129.926 457.441L129.729 457.434C129.662 457.431 129.589 457.428 129.517 457.425C129.411 457.421 129.289 457.418 129.161 457.416C129.113 457.396 129.019 457.353 128.874 457.268C128.515 457.056 128.159 456.782 127.632 456.378C127.58 456.338 127.527 456.298 127.472 456.255C127.07 455.948 126.184 455.133 125.388 454.205C124.998 453.751 124.7 453.351 124.512 453.045C124.466 452.971 124.434 452.914 124.412 452.872ZM124.377 452.8C124.374 452.794 124.373 452.791 124.373 452.791C124.373 452.791 124.374 452.794 124.377 452.8Z" fill="black"/>
<path fill-rule="evenodd" clip-rule="evenodd" d="M120.403 496.102C122.25 496.264 124.037 496.677 125.196 496.987C128.98 497.999 133.259 499.31 136.92 502.319C137.013 502.396 137.118 502.481 137.233 502.574C137.945 503.151 139.031 504.03 139.927 505.024C140.965 506.176 142.241 507.999 142.241 510.383C142.241 512.29 140.658 513.836 138.704 513.836C136.757 513.836 135.177 512.3 135.168 510.401C135.162 510.376 135.1 510.122 134.616 509.585C134.118 509.032 133.519 508.544 132.791 507.95C132.653 507.838 132.511 507.722 132.364 507.601C129.979 505.64 127.031 504.638 123.327 503.647C122.359 503.388 121.025 503.09 119.769 502.979C119.143 502.924 118.622 502.924 118.223 502.968C117.888 503.005 117.753 503.06 117.745 503.062C116.533 503.763 115.317 504.592 114.023 505.474C113.503 505.828 112.97 506.191 112.42 506.557C110.933 507.549 109.829 509.024 108.606 511.097C108.344 511.542 108.066 512.037 107.77 512.562C106.817 514.257 105.682 516.274 104.312 517.994C103.399 519.141 102.876 520.364 102.363 521.941C102.252 522.283 102.136 522.665 102.011 523.075C101.602 524.415 101.099 526.063 100.378 527.648C99.5845 529.39 97.4945 530.175 95.7096 529.4C93.9247 528.626 93.1208 526.586 93.9141 524.843C94.4347 523.7 94.7507 522.666 95.1245 521.442C95.275 520.95 95.4349 520.426 95.6212 519.853C96.232 517.974 97.0605 515.848 98.7288 513.754C99.7236 512.506 100.462 511.194 101.336 509.643C101.686 509.022 102.057 508.362 102.476 507.653C103.824 505.366 105.578 502.757 108.431 500.855C108.844 500.58 109.291 500.276 109.76 499.956C111.132 499.02 112.697 497.954 114.164 497.107C116.218 495.923 118.747 495.956 120.403 496.102Z" fill="black"/>
</g>
<defs>
<clipPath id="clip0_488_3891">
<rect width="150" height="153" fill="white" transform="translate(37 36)"/>
</clipPath>
<clipPath id="clip1_488_3891">
<rect width="148" height="154" fill="white" transform="translate(38 220)"/>
</clipPath>
<clipPath id="clip2_488_3891">
<rect width="154" height="158" fill="white" transform="translate(35 405)"/>
</clipPath>
</defs>
</svg>
