<svg width="180" height="600" viewBox="0 0 180 600" fill="none" xmlns="http://www.w3.org/2000/svg">
<path fill-rule="evenodd" clip-rule="evenodd" d="M75.4185 61.5079C86.0408 60.5344 99.4715 60.6569 110.136 64.6218C111.162 65.0033 112.107 65.3747 113.016 65.732C114.651 66.3746 116.169 66.9714 117.834 67.4985C118.43 67.6873 118.941 67.9541 119.316 68.1687C119.6 68.3318 119.903 68.5228 120.126 68.6643C120.185 68.7011 120.238 68.7345 120.284 68.7632C120.556 68.9335 120.71 69.0213 120.817 69.0721C122.471 69.3398 123.642 70.8551 123.455 72.5317C123.345 73.5161 122.79 74.3441 122.013 74.8397C122.026 74.8509 122.04 74.8622 122.052 74.8732C123.181 75.8236 124.255 77.1406 125.101 78.1776C125.265 78.3787 125.42 78.5693 125.566 78.7448C126.64 80.0385 127.372 80.7698 127.98 81.0996C132.675 83.6478 135.91 87.3837 138.504 91.2365C139.799 93.1576 140.963 95.1532 142.063 97.0664C142.206 97.3173 142.349 97.5663 142.491 97.8136C143.448 99.4822 144.36 101.073 145.326 102.6C148.885 108.225 151.285 115.088 153.441 121.255C154.105 123.156 154.747 124.991 155.392 126.703C160.897 141.31 157.015 157.393 150.004 170.199C147.202 175.317 143.798 181.145 139.487 186.11C135.168 191.083 129.774 195.387 122.933 197.168C112.846 199.794 101.33 199.084 91.676 198.179C84.1113 197.469 76.6437 195.797 69.4943 193.822L69.2034 193.741C61.404 191.586 51.7016 188.905 44.8287 182.645C39.6065 177.889 36.0607 171.55 33.2257 165.795C25.1884 149.479 21.8488 133.29 22.0052 115.313C22.1292 101.07 24.8669 86.0704 37.4695 76.0381C48.0808 67.5908 62.1317 62.7257 75.4185 61.5079ZM110.92 71.6892C110.747 71.6215 110.575 71.5541 110.404 71.4871C109.543 71.1495 108.709 70.8225 107.918 70.5284C98.6018 67.0646 86.3183 66.841 75.9997 67.7868C63.7223 68.912 50.9083 73.4148 41.428 80.9617C31.1308 89.1589 28.461 101.649 28.3416 115.368C28.193 132.449 31.3477 147.657 38.9155 163.019C41.6977 168.667 44.8163 174.087 49.1069 177.994C54.7429 183.127 63.0031 185.483 71.1902 187.746C78.1526 189.671 85.2223 191.24 92.2703 191.901C101.952 192.809 112.445 193.381 121.329 191.068C126.495 189.723 130.86 186.401 134.692 181.988C138.532 177.565 141.669 172.242 144.439 167.182C150.974 155.248 154.07 141.156 149.459 128.917C148.692 126.881 147.974 124.832 147.261 122.798C145.156 116.787 143.1 110.917 139.964 105.96C138.919 104.308 137.932 102.587 136.982 100.929C136.841 100.683 136.7 100.439 136.561 100.196C135.464 98.2875 134.398 96.4644 133.241 94.7472C130.935 91.3233 128.389 88.5037 124.945 86.6351C123.127 85.6477 121.696 83.9827 120.681 82.7608C120.453 82.4857 120.241 82.2274 120.042 81.985C119.202 80.9615 118.593 80.2203 117.96 79.6867C117.65 79.4261 117.343 79.1628 117.033 78.8981C116.391 78.3486 115.741 77.7927 115.051 77.2404C114.027 76.42 113.163 75.8144 112.514 75.4913C111.09 74.7828 110.436 73.1508 110.92 71.6892ZM120.869 69.0948C120.869 69.0949 120.866 69.0941 120.863 69.0924C120.866 69.0938 120.869 69.0947 120.869 69.0948Z" fill="black"/>
<path fill-rule="evenodd" clip-rule="evenodd" d="M105.5 96C107.433 96 109 97.4036 109 99.1349V121.865C109 123.596 107.433 125 105.5 125C103.567 125 102 123.596 102 121.865V99.1349C102 97.4036 103.567 96 105.5 96Z" fill="black"/>
<path fill-rule="evenodd" clip-rule="evenodd" d="M79.3541 94C81.0709 94 82.4626 95.4631 82.4626 97.2679V109.225C82.4626 109.651 82.4108 110.295 82.3669 110.841C82.3593 110.934 82.352 111.025 82.3453 111.111C82.2902 111.813 82.237 112.561 82.2216 113.27C82.2089 113.854 82.2253 114.303 82.2588 114.613C83.0417 115.581 83.2458 116.985 82.6712 118.193C81.9033 119.807 80.0361 120.461 78.5005 119.654C77.5399 119.149 76.9999 118.341 76.7095 117.743C76.418 117.142 76.2671 116.532 76.1798 116.044C76.0053 115.069 75.9869 114.004 76.0061 113.12C76.026 112.203 76.093 111.289 76.1492 110.573C76.1585 110.456 76.1672 110.347 76.1754 110.243C76.1934 110.017 76.209 109.822 76.2218 109.643C76.2308 109.518 76.2371 109.418 76.2411 109.34C76.2451 109.262 76.2455 109.228 76.2456 109.225V109.225V97.2679C76.2456 95.4631 77.6372 94 79.3541 94ZM82.3082 114.922C82.3082 114.922 82.3078 114.921 82.307 114.918C82.3079 114.921 82.3083 114.922 82.3082 114.922Z" fill="black"/>
<path fill-rule="evenodd" clip-rule="evenodd" d="M67.4755 149.026C67.8904 149.037 68.267 149.046 68.5884 149.046C74.4102 149.046 80.3512 149.19 86.2975 149.954C93.8003 150.917 99.9719 153.159 106.37 157.128C109.403 159.008 111.93 161.39 113.722 164.747C113.941 165.156 114.146 165.784 114.264 166.161C114.422 166.669 114.602 167.315 114.744 167.973C114.874 168.577 115.019 169.407 114.998 170.198C114.988 170.565 114.94 171.236 114.621 171.931C114.244 172.751 113.369 173.787 111.858 173.975C110.114 174.192 108.524 172.959 108.306 171.221C108.23 170.618 108.33 170.034 108.565 169.518C108.552 169.449 108.537 169.375 108.521 169.299C108.43 168.873 108.304 168.418 108.188 168.046C108.13 167.862 108.08 167.716 108.045 167.618C108.044 167.615 108.043 167.612 108.041 167.608C106.88 165.487 105.251 163.903 103.007 162.511C97.3609 159.009 92.0554 157.087 85.4843 156.244C79.9469 155.533 74.3289 155.388 68.5884 155.388C67.9209 155.388 67.3321 155.373 66.795 155.361C65.5811 155.331 64.6307 155.309 63.6306 155.469C63.1537 155.546 62.6322 155.729 61.9509 156.052C61.6086 156.214 61.2612 156.395 60.8576 156.605C60.8388 156.615 60.8198 156.625 60.8005 156.636C60.4274 156.83 60.0024 157.052 59.5658 157.262C57.9833 158.023 56.0811 157.362 55.3171 155.784C54.5532 154.208 55.2167 152.312 56.7992 151.551C57.1403 151.387 57.4829 151.208 57.8821 151L57.9061 150.987C58.2989 150.782 58.7479 150.548 59.2142 150.327C60.15 149.883 61.2934 149.42 62.6216 149.208C64.2478 148.947 66.079 148.992 67.4755 149.026ZM108.012 167.531C108.012 167.531 108.014 167.534 108.017 167.544C108.014 167.536 108.012 167.531 108.012 167.531Z" fill="black"/>
<path fill-rule="evenodd" clip-rule="evenodd" d="M64.3024 228.734C71.6223 227.774 79.4183 227.921 86.5326 228.248C95.1762 228.645 104.539 230.125 112.915 232.506C114.255 232.887 116.141 233.666 117.817 234.743C117.834 234.754 117.852 234.765 117.87 234.777C124.33 237.478 129.299 242.211 133.293 247.515C137.52 253.129 140.794 259.579 143.622 265.292C151.401 281.016 158.717 299.644 155.005 318.67C152.707 330.445 148.438 342.359 141.536 352.455C134.938 362.105 123.78 366.341 113.146 366.901C99.0299 367.644 85.2792 364.101 72.5439 359.468C70.9538 358.889 69.1999 358.309 67.3706 357.705C63.8066 356.526 59.9565 355.252 56.4743 353.712C51.0389 351.309 45.7161 347.969 42.0845 342.464C35.0159 331.749 28.5196 318.864 25.3613 306.098C22.9505 296.353 22.7903 286.972 23.1391 277.278C23.5889 264.78 30.0631 249.445 39.4173 240.965C40.2208 240.237 40.8635 239.601 41.5439 238.928C42.0572 238.42 42.592 237.89 43.2335 237.284C44.5856 236.007 46.1071 234.702 48.0038 233.566C53.3135 230.386 58.9098 229.442 64.3024 228.734ZM113.268 239.426C113.597 239.786 114.013 240.074 114.5 240.253C114.638 240.304 114.776 240.356 114.913 240.409C115.237 240.647 115.491 240.873 115.673 241.073C115.83 241.245 115.888 241.349 115.905 241.38C116.267 243.068 117.903 244.156 119.585 243.816C119.917 243.749 120.225 243.632 120.504 243.474C123.41 245.568 125.974 248.263 128.3 251.354C132.127 256.437 135.171 262.388 138.011 268.127C145.739 283.745 152.123 300.672 148.851 317.444C146.674 328.598 142.67 339.643 136.375 348.852C131.233 356.372 122.223 360.076 112.82 360.57C99.9127 361.249 87.0752 358.017 74.6687 353.503C72.7065 352.789 70.7739 352.153 68.8652 351.524C65.5103 350.419 62.2289 349.337 58.9893 347.905C54.0723 345.73 49.9885 343.016 47.304 338.947C40.4912 328.62 34.3779 316.406 31.4472 304.56C29.2517 295.686 29.0662 287.012 29.4082 277.508C29.8025 266.551 35.6454 252.901 43.6063 245.684C44.4335 244.934 45.3223 244.06 46.1292 243.265C46.6364 242.766 47.1112 242.299 47.518 241.915C48.7117 240.787 49.8574 239.825 51.2019 239.02C55.3198 236.554 59.7888 235.719 65.1098 235.021C71.8571 234.136 79.1959 234.257 86.2477 234.581C94.4322 234.957 103.32 236.364 111.216 238.608C111.745 238.759 112.497 239.044 113.268 239.426Z" fill="black"/>
<path fill-rule="evenodd" clip-rule="evenodd" d="M95.3776 310.185C92.2403 309.764 88.7002 310.175 84.6542 310.664C83.9751 310.746 83.3967 310.799 82.8642 310.848C82.0147 310.926 81.2817 310.993 80.4416 311.15C79.2331 311.377 78.5319 311.695 78.0953 312.092C75.1912 314.738 72.3965 318.086 70.4542 321.358C70.1735 321.831 69.9064 322.262 69.6513 322.674C69.1607 323.466 68.7139 324.187 68.2984 324.999C67.6988 326.171 67.423 327.079 67.423 327.813V331.738C67.423 333.398 65.9852 334.744 64.2116 334.744C62.4379 334.744 61 333.398 61 331.738V327.813C61 325.764 61.7393 323.899 62.5059 322.401C63.0309 321.376 63.6985 320.295 64.2504 319.403C64.4707 319.046 64.6725 318.72 64.8394 318.438C67.1101 314.612 70.3005 310.803 73.6162 307.783C75.328 306.224 77.4294 305.583 79.1819 305.254C80.3031 305.045 81.6429 304.917 82.6941 304.817C83.1376 304.775 83.5297 304.738 83.8323 304.701C83.9222 304.69 84.0124 304.679 84.103 304.668C87.872 304.212 92.2193 303.687 96.29 304.233C100.667 304.821 104.838 306.655 107.984 310.896C113.009 317.67 114 326.777 114 333.994C114 335.654 112.562 337 110.789 337C109.015 337 107.577 335.654 107.577 333.994C107.577 327 106.548 319.501 102.708 314.325C100.749 311.685 98.3067 310.579 95.3776 310.185Z" fill="black"/>
<path fill-rule="evenodd" clip-rule="evenodd" d="M51.5251 271.395C52.4823 269.956 54.4221 269.567 55.8579 270.526C57.2 271.423 58.0027 272.735 58.4403 273.45C58.4878 273.528 58.5309 273.598 58.5701 273.66L55.926 275.329L58.5701 273.66C58.9477 274.261 59.5189 274.854 60.3529 275.576C60.579 275.772 60.8686 276.012 61.1868 276.276C61.8249 276.805 62.5784 277.43 63.1675 277.986C63.2876 278.099 63.404 278.209 63.5172 278.317C64.506 279.253 65.2501 279.957 66.0241 280.412C66.7353 280.829 66.9937 280.759 67.2312 280.652C68.2408 280.196 68.8495 279.409 69.244 278.117C69.6723 276.714 69.751 275.002 69.751 273.132C69.751 271.402 71.15 270 72.8755 270C74.6011 270 76 271.402 76 273.132C76 275.013 75.9474 277.565 75.2195 279.949C74.4578 282.444 72.8855 284.969 69.7955 286.363C67.1008 287.578 64.6489 286.862 62.8664 285.816C61.4235 284.969 60.1209 283.726 59.2176 282.863C59.0997 282.751 58.9885 282.645 58.8847 282.547C58.4081 282.097 57.9804 281.745 57.4802 281.334C57.1264 281.042 56.7362 280.722 56.267 280.315C55.2883 279.467 54.1578 278.391 53.282 276.997C53.2215 276.901 53.167 276.814 53.1173 276.734C52.9049 276.394 52.7789 276.193 52.6334 275.999C52.4871 275.805 52.4147 275.753 52.3916 275.737C50.9559 274.778 50.5679 272.834 51.5251 271.395Z" fill="black"/>
<path fill-rule="evenodd" clip-rule="evenodd" d="M94.069 273C95.7535 273 97.119 274.449 97.119 276.236C97.119 276.499 97.1128 276.868 97.1075 277.185C97.1041 277.383 97.1011 277.56 97.1002 277.68C97.0968 278.113 97.105 278.453 97.133 278.746C97.1873 279.314 97.2988 279.516 97.3829 279.625C97.6235 279.937 97.8 280.25 97.9186 280.478C98.0423 280.716 98.1504 280.953 98.2365 281.149C98.314 281.324 98.3748 281.466 98.4282 281.591C98.5008 281.76 98.56 281.898 98.63 282.049C99.0997 282.127 99.5661 282.206 100.029 282.284C104.109 282.973 107.949 283.622 111.744 283.519C111.729 283.519 111.721 283.519 111.721 283.519C111.721 283.517 111.869 283.497 112.183 283.393C112.521 283.281 112.919 283.114 113.309 282.912C113.706 282.706 114.026 282.499 114.238 282.33C114.283 282.294 114.317 282.265 114.342 282.242C115.157 280.815 116.882 280.268 118.313 281.027C119.82 281.827 120.43 283.77 119.677 285.368C119.207 286.366 118.445 287.071 117.905 287.501C117.304 287.981 116.63 288.393 115.988 288.726C114.827 289.328 113.224 289.951 111.901 289.987C107.493 290.107 103.016 289.347 98.9582 288.657C98.255 288.538 97.5645 288.421 96.889 288.31C95.6411 288.107 94.7899 287.357 94.2883 286.763C93.796 286.181 93.4584 285.537 93.2415 285.086C93.0883 284.767 92.9223 284.38 92.8074 284.113C92.7686 284.023 92.7356 283.946 92.711 283.89C92.6463 283.744 92.6063 283.662 92.5886 283.626C91.5372 282.215 91.1855 280.67 91.064 279.399C90.9795 278.515 90.9984 277.495 91.0115 276.782C91.0155 276.568 91.0189 276.382 91.0189 276.236C91.0189 274.449 92.3845 273 94.069 273ZM114.396 282.189C114.396 282.189 114.395 282.192 114.389 282.197C114.394 282.192 114.396 282.189 114.396 282.189Z" fill="black"/>
<path fill-rule="evenodd" clip-rule="evenodd" d="M72.5147 397.392C85.1948 395.747 98.1134 394.071 110.938 401.774C113.292 403.188 116.58 405.378 119.565 408.041C119.911 406.351 121.557 405.257 123.249 405.595C126.029 406.152 128.291 407.845 130.013 409.38C130.892 410.165 131.725 410.997 132.462 411.733L132.472 411.744C133.239 412.511 133.89 413.16 134.509 413.705C139.091 417.741 142.983 422.126 146.845 426.477C147.008 426.661 147.171 426.845 147.335 427.029C151.806 432.065 155.24 439.457 156.909 445.696C164.177 472.858 151.592 499.112 133.147 517.577C128.489 522.24 122.878 527.49 116.583 531.483C110.287 535.476 103.068 538.365 95.2388 537.963C86.0196 537.489 76.9515 534.483 68.8309 531.399C68.6355 531.324 68.4387 531.249 68.2407 531.174C61.7184 528.7 53.8451 525.712 48.0463 520.363C38.2534 511.328 31.1941 497.396 26.4501 485.893C23.56 478.884 20.9109 470.805 20.2177 462.882C19.9272 459.562 19.9912 456.087 20.0511 452.838C20.0748 451.548 20.098 450.293 20.098 449.097C20.098 444.223 20.1278 439.047 21.7133 433.789C22.8658 429.967 24.8519 426.484 26.6271 423.371C26.9825 422.748 27.3294 422.139 27.6595 421.546C31.0886 415.382 36.6447 409.972 42.4782 406.333C50.766 401.162 61.2359 398.83 70.248 397.685C71.0028 397.589 71.7584 397.491 72.5147 397.392ZM123.751 412.468C125.71 415.018 127.222 418.022 127.222 421.292C127.222 423.024 125.819 424.429 124.089 424.429C122.359 424.429 120.956 423.024 120.956 421.292C120.956 419.22 119.408 416.582 116.465 413.72C113.664 410.995 110.2 408.646 107.715 407.153C96.8074 400.601 85.9496 401.995 72.8103 403.681C72.2239 403.756 71.6331 403.832 71.0374 403.907C62.3154 405.016 52.9241 407.207 45.7922 411.656C40.7148 414.824 35.9693 419.501 33.1336 424.598C32.7377 425.31 32.3465 425.998 31.9648 426.67C30.2036 429.771 28.6405 432.522 27.7117 435.602C26.4296 439.854 26.3638 444.145 26.3638 449.097C26.3638 450.548 26.3377 451.95 26.3121 453.319C26.2543 456.424 26.1995 459.362 26.4596 462.335C27.0721 469.335 29.4522 476.734 32.2418 483.499C36.9195 494.842 43.5567 507.69 52.2926 515.75C57.1884 520.266 64.0789 522.884 70.9791 525.505L71.0538 525.533C79.0907 528.586 87.3819 531.278 95.5597 531.698C101.62 532.01 107.545 529.79 113.23 526.184C118.917 522.577 124.128 517.735 128.716 513.142C146.262 495.576 157.332 471.521 150.857 447.319C149.367 441.752 146.311 435.318 142.651 431.197C142.516 431.044 142.38 430.892 142.245 430.74C138.319 426.316 134.657 422.19 130.371 418.415C129.593 417.731 128.815 416.953 128.098 416.236L128.045 416.183C127.286 415.424 126.574 414.714 125.844 414.064C125.081 413.383 124.39 412.853 123.751 412.468Z" fill="black"/>
<path fill-rule="evenodd" clip-rule="evenodd" d="M74.8646 436C76.5963 436 78 437.444 78 439.225C78 441.731 77.3907 444.821 75.6827 447.253C75.6041 447.365 75.5279 447.498 75.3452 447.818L75.3368 447.832C75.1876 448.093 74.9352 448.535 74.6099 448.959C73.8074 450.005 72.5115 450.996 70.5709 450.996C70.3435 450.996 70.1123 450.997 69.8775 450.998C67.3106 451.009 64.3154 451.022 61.2015 449.758C59.1627 448.93 57.8697 447.78 56.8534 446.458C56.401 445.869 56.0093 445.252 55.6812 444.736L55.6652 444.711C55.315 444.16 55.0024 443.668 54.6273 443.154C53.5883 441.729 53.8691 439.708 55.2543 438.639C56.6396 437.571 58.605 437.859 59.6439 439.284C60.142 439.967 60.5499 440.609 60.8811 441.13C60.8923 441.148 60.9034 441.166 60.9145 441.183C61.2706 441.743 61.5172 442.126 61.773 442.459C62.1878 442.998 62.6132 443.397 63.5039 443.759C65.4218 444.538 67.2268 444.549 69.9405 444.547C69.952 444.527 69.9643 444.505 69.9773 444.483C70.1141 444.242 70.336 443.852 70.5991 443.478C71.3063 442.471 71.7293 440.842 71.7293 439.225C71.7293 437.444 73.133 436 74.8646 436Z" fill="black"/>
<path fill-rule="evenodd" clip-rule="evenodd" d="M101.272 438.789C100.957 437.042 99.4645 435.821 97.817 436.022C96.0789 436.233 94.8265 437.945 95.0196 439.847C95.1402 441.034 95.6554 442.045 96.0125 442.661C96.4204 443.364 96.9166 444.041 97.3921 444.629C98.3281 445.785 99.427 446.891 100.195 447.515C100.24 447.551 100.288 447.591 100.339 447.633C100.756 447.974 101.39 448.493 102.064 448.914C102.817 449.385 103.966 449.966 105.347 449.966C105.43 449.966 105.515 449.97 105.666 449.976C105.732 449.979 105.811 449.983 105.909 449.986C106.174 449.997 106.535 450.008 106.918 449.992C107.521 449.967 108.922 449.871 110.106 448.874C110.539 448.51 110.937 448.092 111.19 447.827C111.225 447.791 111.256 447.758 111.284 447.728C111.584 447.416 111.718 447.294 111.813 447.225C112.342 446.839 112.799 446.388 113.145 446.028C113.335 445.828 113.589 445.552 113.8 445.322C113.916 445.196 114.02 445.083 114.092 445.005C114.376 444.702 114.579 444.503 114.742 444.367C114.817 444.306 114.862 444.275 114.882 444.262C116.51 443.638 117.384 441.696 116.837 439.899C116.284 438.084 114.49 437.103 112.832 437.708C111.367 438.242 110.252 439.424 109.665 440.052C109.432 440.301 109.244 440.505 109.088 440.675C108.688 441.11 108.499 441.316 108.3 441.461C107.705 441.895 107.224 442.392 106.919 442.709C106.883 442.748 106.848 442.784 106.815 442.818C106.718 442.919 106.639 443.002 106.57 443.072C106.451 443.074 106.311 443.07 106.136 443.063L105.962 443.056C105.904 443.054 105.839 443.051 105.775 443.048C105.682 443.045 105.574 443.041 105.462 443.04C105.419 443.021 105.336 442.981 105.208 442.901C104.892 442.703 104.577 442.447 104.112 442.068C104.067 442.032 104.02 441.993 103.971 441.954C103.617 441.666 102.836 440.903 102.133 440.035C101.789 439.611 101.526 439.237 101.36 438.951C101.32 438.881 101.292 438.828 101.272 438.789ZM101.241 438.721C101.239 438.716 101.238 438.713 101.238 438.713C101.238 438.713 101.239 438.716 101.241 438.721Z" fill="black"/>
<path fill-rule="evenodd" clip-rule="evenodd" d="M97.2421 478.066C98.9135 478.216 100.53 478.596 101.578 478.881C105.003 479.813 108.874 481.02 112.186 483.791C112.27 483.861 112.365 483.94 112.469 484.025C113.113 484.556 114.096 485.366 114.906 486.281C115.846 487.342 117 489.02 117 491.215C117 492.971 115.568 494.395 113.8 494.395C112.038 494.395 110.609 492.98 110.601 491.232C110.595 491.209 110.539 490.975 110.102 490.48C109.651 489.971 109.109 489.522 108.45 488.975C108.326 488.872 108.197 488.765 108.064 488.654C105.906 486.848 103.239 485.925 99.8875 485.013C99.0123 484.775 97.8049 484.5 96.6682 484.398C96.1024 484.348 95.6306 484.347 95.2701 484.388C94.9667 484.422 94.8445 484.473 94.8375 484.475C93.7412 485.119 92.6404 485.883 91.4697 486.695C90.9992 487.021 90.5174 487.356 90.02 487.692C88.6741 488.606 87.675 489.964 86.5691 491.873C86.3318 492.282 86.08 492.738 85.8124 493.222C84.9504 494.782 83.9235 496.639 82.6842 498.223C81.8575 499.279 81.3849 500.405 80.9209 501.857C80.8203 502.172 80.715 502.524 80.6018 502.901C80.2321 504.135 79.7774 505.652 79.1246 507.112C78.4068 508.716 76.5159 509.439 74.901 508.725C73.2862 508.012 72.5588 506.134 73.2766 504.529C73.7476 503.477 74.0335 502.525 74.3717 501.398C74.5078 500.945 74.6525 500.462 74.8211 499.935C75.3737 498.205 76.1233 496.247 77.6326 494.319C78.5327 493.17 79.2009 491.962 79.9916 490.534C80.3081 489.962 80.6442 489.354 81.0225 488.702C82.2422 486.596 83.8295 484.194 86.4109 482.443C86.7841 482.189 87.1884 481.909 87.6131 481.614C88.8544 480.753 90.2705 479.771 91.5978 478.992C93.4558 477.901 95.744 477.932 97.2421 478.066Z" fill="black"/>
</svg>
