<svg width="743" height="220" viewBox="0 0 743 220" fill="none" xmlns="http://www.w3.org/2000/svg">
<rect width="743" height="220" fill="white"/>
<path fill-rule="evenodd" clip-rule="evenodd" d="M143.419 41.5079C154.041 40.5344 167.471 40.6569 178.136 44.6218C179.162 45.0033 180.107 45.3747 181.016 45.732C182.651 46.3746 184.169 46.9714 185.834 47.4985C186.43 47.6873 186.941 47.9541 187.316 48.1687C187.6 48.3318 187.903 48.5228 188.126 48.6643C188.185 48.7011 188.238 48.7345 188.284 48.7632C188.556 48.9335 188.71 49.0213 188.817 49.0721C190.471 49.3398 191.642 50.8551 191.455 52.5317C191.345 53.5161 190.79 54.3441 190.013 54.8397C190.026 54.8509 190.04 54.8622 190.052 54.8732C191.181 55.8236 192.255 57.1406 193.101 58.1776C193.265 58.3787 193.42 58.5693 193.566 58.7448C194.64 60.0385 195.372 60.7698 195.98 61.0996C200.675 63.6478 203.91 67.3837 206.504 71.2365C207.799 73.1576 208.963 75.1532 210.063 77.0664C210.206 77.3173 210.349 77.5663 210.491 77.8136C211.448 79.4822 212.36 81.073 213.326 82.6003C216.885 88.2252 219.285 95.088 221.441 101.255C222.105 103.156 222.747 104.991 223.392 106.703C228.897 121.31 225.015 137.393 218.004 150.199C215.202 155.317 211.798 161.145 207.487 166.11C203.168 171.083 197.774 175.387 190.933 177.168C180.846 179.794 169.33 179.084 159.676 178.179C152.111 177.469 144.644 175.797 137.494 173.822L137.203 173.741C129.404 171.586 119.702 168.905 112.829 162.645C107.606 157.889 104.061 151.55 101.226 145.795C93.1884 129.479 89.8488 113.29 90.0052 95.3132C90.1292 81.0697 92.8669 66.0704 105.469 56.0381C116.081 47.5908 130.132 42.7257 143.419 41.5079ZM178.92 51.6892C178.747 51.6215 178.575 51.5541 178.404 51.4871C177.543 51.1495 176.709 50.8225 175.918 50.5284C166.602 47.0646 154.318 46.841 144 47.7868C131.722 48.912 118.908 53.4148 109.428 60.9617C99.1308 69.1589 96.461 81.6486 96.3416 95.3677C96.193 112.449 99.3477 127.657 106.915 143.019C109.698 148.667 112.816 154.087 117.107 157.994C122.743 163.127 131.003 165.483 139.19 167.746C146.153 169.671 153.222 171.24 160.27 171.901C169.952 172.809 180.445 173.381 189.329 171.068C194.495 169.723 198.86 166.401 202.692 161.988C206.532 157.565 209.669 152.242 212.439 147.182C218.974 135.248 222.07 121.156 217.459 108.917C216.692 106.881 215.974 104.832 215.261 102.798C213.156 96.7871 211.1 90.9168 207.964 85.96C206.919 84.3077 205.932 82.5871 204.982 80.9292C204.841 80.6832 204.7 80.4387 204.561 80.196C203.464 78.2875 202.398 76.4644 201.241 74.7472C198.935 71.3233 196.389 68.5037 192.945 66.6351C191.127 65.6477 189.696 63.9827 188.681 62.7608C188.453 62.4857 188.241 62.2274 188.042 61.985C187.202 60.9615 186.593 60.2203 185.96 59.6867C185.65 59.4261 185.343 59.1628 185.033 58.8981C184.391 58.3486 183.741 57.7927 183.051 57.2404C182.027 56.42 181.163 55.8144 180.514 55.4913C179.09 54.7828 178.436 53.1508 178.92 51.6892ZM188.869 49.0948C188.869 49.0949 188.866 49.0941 188.863 49.0924C188.866 49.0938 188.869 49.0947 188.869 49.0948Z" fill="black"/>
<path fill-rule="evenodd" clip-rule="evenodd" d="M173.5 76C175.433 76 177 77.4036 177 79.1349V101.865C177 103.596 175.433 105 173.5 105C171.567 105 170 103.596 170 101.865V79.1349C170 77.4036 171.567 76 173.5 76Z" fill="black"/>
<path fill-rule="evenodd" clip-rule="evenodd" d="M147.354 74C149.071 74 150.463 75.4631 150.463 77.2679V89.225C150.463 89.6514 150.411 90.2952 150.367 90.8406C150.359 90.9342 150.352 91.025 150.345 91.1112C150.29 91.8128 150.237 92.5611 150.222 93.2697C150.209 93.8537 150.225 94.3028 150.259 94.613C151.042 95.581 151.246 96.9846 150.671 98.1928C149.903 99.8071 148.036 100.461 146.501 99.6543C145.54 99.1493 145 98.3409 144.71 97.7427C144.418 97.1422 144.267 96.5316 144.18 96.0436C144.005 95.0691 143.987 94.0038 144.006 93.1203C144.026 92.2029 144.093 91.289 144.149 90.5734C144.158 90.456 144.167 90.3465 144.175 90.2434C144.193 90.0172 144.209 89.822 144.222 89.6431C144.231 89.5176 144.237 89.418 144.241 89.3395C144.245 89.2619 144.245 89.2281 144.246 89.2251V89.225V77.2679C144.246 75.4631 145.637 74 147.354 74ZM150.308 94.9222C150.308 94.9223 150.308 94.9208 150.307 94.9177C150.308 94.9207 150.308 94.9222 150.308 94.9222Z" fill="black"/>
<path fill-rule="evenodd" clip-rule="evenodd" d="M140.475 147.977C140.89 147.968 141.267 147.96 141.588 147.96C147.41 147.96 153.351 147.833 159.297 147.161C166.8 146.313 172.972 144.34 179.37 140.848C182.403 139.193 184.93 137.097 186.722 134.143C186.941 133.783 187.146 133.23 187.264 132.898C187.422 132.452 187.602 131.883 187.744 131.304C187.874 130.772 188.019 130.042 187.998 129.346C187.988 129.023 187.94 128.432 187.621 127.82C187.244 127.099 186.369 126.188 184.858 126.022C183.114 125.831 181.524 126.916 181.306 128.445C181.23 128.976 181.33 129.49 181.565 129.944C181.552 130.005 181.537 130.07 181.521 130.137C181.43 130.512 181.304 130.912 181.188 131.239C181.13 131.401 181.08 131.53 181.045 131.616C181.044 131.619 181.043 131.622 181.041 131.625C179.88 133.492 178.251 134.885 176.007 136.11C170.361 139.192 165.055 140.883 158.484 141.626C152.947 142.251 147.329 142.379 141.588 142.379C140.921 142.379 140.332 142.391 139.795 142.403C138.581 142.428 137.631 142.448 136.631 142.307C136.154 142.24 135.632 142.079 134.951 141.794C134.609 141.651 134.261 141.492 133.858 141.307C133.839 141.298 133.82 141.29 133.801 141.281C133.427 141.11 133.002 140.914 132.566 140.73C130.983 140.059 129.081 140.642 128.317 142.03C127.553 143.417 128.217 145.085 129.799 145.755C130.14 145.9 130.483 146.057 130.882 146.24L130.906 146.251C131.299 146.432 131.748 146.638 132.214 146.832C133.15 147.223 134.293 147.63 135.622 147.817C137.248 148.046 139.079 148.007 140.475 147.977ZM181.012 131.693C181.012 131.693 181.014 131.69 181.017 131.681C181.014 131.688 181.012 131.693 181.012 131.693Z" fill="black"/>
<path fill-rule="evenodd" clip-rule="evenodd" d="M346.302 41.7344C353.622 40.7745 361.418 40.9212 368.533 41.248C377.176 41.645 386.539 43.1252 394.915 45.5058C396.255 45.8867 398.141 46.6661 399.817 47.7429C399.834 47.7541 399.852 47.7653 399.87 47.7766C406.33 50.4784 411.299 55.2111 415.293 60.5151C419.52 66.1286 422.794 72.5787 425.622 78.2916C433.401 94.0164 440.717 112.644 437.005 131.67C434.707 143.445 430.438 155.359 423.536 165.455C416.938 175.105 405.78 179.341 395.146 179.901C381.03 180.644 367.279 177.101 354.544 172.468C352.954 171.889 351.2 171.309 349.371 170.705C345.807 169.526 341.956 168.252 338.474 166.712C333.039 164.309 327.716 160.969 324.084 155.464C317.016 144.749 310.52 131.864 307.361 119.098C304.951 109.353 304.79 99.9718 305.139 90.2777C305.589 77.78 312.063 62.4451 321.417 53.9652C322.221 53.2369 322.864 52.6009 323.544 51.9275C324.057 51.4196 324.592 50.8904 325.233 50.2843C326.586 49.0065 328.107 47.7019 330.004 46.5661C335.314 43.3864 340.91 42.4416 346.302 41.7344ZM395.268 52.4262C395.597 52.7861 396.013 53.0741 396.5 53.253C396.638 53.3038 396.776 53.356 396.913 53.4092C397.237 53.6475 397.491 53.8728 397.673 54.0729C397.83 54.2453 397.888 54.3489 397.905 54.3803C398.267 56.0682 399.903 57.1563 401.585 56.8164C401.917 56.7494 402.225 56.6319 402.504 56.4735C405.41 58.5679 407.974 61.2632 410.3 64.3538C414.127 69.4366 417.171 75.3875 420.011 81.1266C427.739 96.7453 434.123 113.672 430.851 130.444C428.674 141.598 424.67 152.643 418.375 161.852C413.233 169.372 404.223 173.076 394.82 173.57C381.913 174.249 369.075 171.017 356.669 166.503C354.706 165.789 352.774 165.153 350.865 164.524C347.51 163.419 344.229 162.337 340.989 160.905C336.072 158.73 331.988 156.016 329.304 151.947C322.491 141.62 316.378 129.406 313.447 117.56C311.252 108.686 311.066 100.012 311.408 90.5081C311.802 79.5509 317.645 65.9008 325.606 58.6841C326.434 57.9341 327.322 57.0595 328.129 56.2655C328.636 55.7664 329.111 55.2991 329.518 54.9147C330.712 53.7867 331.857 52.825 333.202 52.0198C337.32 49.5539 341.789 48.7189 347.11 48.021C353.857 47.1362 361.196 47.2569 368.248 47.5808C376.432 47.9568 385.32 49.364 393.216 51.6084C393.745 51.7585 394.497 52.0437 395.268 52.4262Z" fill="black"/>
<path fill-rule="evenodd" clip-rule="evenodd" d="M376.378 145.939C373.24 146.284 369.7 145.947 365.654 145.548C364.975 145.48 364.397 145.437 363.864 145.397C363.015 145.333 362.282 145.278 361.442 145.15C360.233 144.965 359.532 144.704 359.095 144.379C356.191 142.215 353.396 139.475 351.454 136.798C351.173 136.411 350.906 136.058 350.651 135.721C350.161 135.073 349.714 134.483 349.298 133.819C348.699 132.86 348.423 132.117 348.423 131.517V128.305C348.423 126.947 346.985 125.845 345.212 125.845C343.438 125.845 342 126.947 342 128.305V131.517C342 133.193 342.739 134.719 343.506 135.945C344.031 136.783 344.699 137.668 345.25 138.398C345.471 138.69 345.672 138.957 345.839 139.187C348.11 142.317 351.3 145.434 354.616 147.905C356.328 149.18 358.429 149.705 360.182 149.974C361.303 150.145 362.643 150.25 363.694 150.332C364.138 150.366 364.53 150.397 364.832 150.427C364.922 150.435 365.012 150.444 365.103 150.453C368.872 150.826 373.219 151.256 377.29 150.809C381.667 150.328 385.838 148.828 388.984 145.358C394.009 139.815 395 132.364 395 126.46C395 125.101 393.562 124 391.789 124C390.015 124 388.577 125.101 388.577 126.46C388.577 132.182 387.548 138.317 383.708 142.552C381.749 144.712 379.307 145.617 376.378 145.939Z" fill="black"/>
<path fill-rule="evenodd" clip-rule="evenodd" d="M333.525 84.3948C334.482 82.9558 336.422 82.5669 337.858 83.5263C339.2 84.4231 340.003 85.7346 340.44 86.4499C340.488 86.5275 340.531 86.598 340.57 86.6603L337.926 88.3288L340.57 86.6603C340.948 87.2614 341.519 87.8541 342.353 88.5762C342.579 88.7722 342.869 89.0123 343.187 89.2762C343.825 89.8054 344.578 90.4303 345.167 90.986C345.288 91.0992 345.404 91.2095 345.517 91.3167C346.506 92.2528 347.25 92.9573 348.024 93.4116C348.735 93.8291 348.994 93.7587 349.231 93.6516C350.241 93.1962 350.85 92.4093 351.244 91.1169C351.672 89.7139 351.751 88.002 351.751 86.1319C351.751 84.4024 353.15 83.0003 354.875 83.0003C356.601 83.0003 358 84.4024 358 86.1319C358 88.0131 357.947 90.5646 357.219 92.9492C356.458 95.4444 354.885 97.9694 351.796 99.363C349.101 100.578 346.649 99.8624 344.866 98.8161C343.424 97.9694 342.121 96.7258 341.218 95.8634C341.1 95.7508 340.988 95.6446 340.885 95.5467C340.408 95.0972 339.98 94.7452 339.48 94.3337C339.126 94.0425 338.736 93.7216 338.267 93.315C337.288 92.4673 336.158 91.3913 335.282 89.9973C335.222 89.9009 335.167 89.8137 335.117 89.7341C334.905 89.3943 334.779 89.1926 334.633 88.9993C334.487 88.8049 334.415 88.7528 334.392 88.7375C332.956 87.7781 332.568 85.8339 333.525 84.3948Z" fill="black"/>
<path fill-rule="evenodd" clip-rule="evenodd" d="M376.069 86C377.753 86 379.119 87.4486 379.119 89.2355C379.119 89.499 379.113 89.868 379.107 90.1854C379.104 90.3827 379.101 90.5601 379.1 90.6797C379.097 91.1128 379.105 91.453 379.133 91.746C379.187 92.3138 379.299 92.5162 379.383 92.6252C379.624 92.9371 379.8 93.2502 379.919 93.478C380.042 93.7156 380.15 93.9532 380.236 94.1485C380.314 94.3244 380.375 94.4661 380.428 94.5908C380.501 94.7602 380.56 94.8984 380.63 95.0488C381.1 95.1271 381.566 95.2059 382.029 95.2841C386.109 95.9732 389.949 96.6218 393.744 96.5186C393.729 96.519 393.721 96.5194 393.721 96.5188C393.721 96.5166 393.869 96.4974 394.183 96.3933C394.521 96.281 394.919 96.1139 395.309 95.9117C395.706 95.7062 396.026 95.4995 396.238 95.3304C396.283 95.2943 396.317 95.2648 396.342 95.2423C397.157 93.8152 398.882 93.2682 400.313 94.0275C401.82 94.8266 402.43 96.7701 401.677 98.3684C401.207 99.3664 400.445 100.071 399.905 100.501C399.304 100.981 398.63 101.393 397.988 101.726C396.827 102.328 395.224 102.951 393.901 102.987C389.493 103.107 385.016 102.347 380.958 101.657C380.255 101.538 379.564 101.421 378.889 101.31C377.641 101.107 376.79 100.357 376.288 99.7632C375.796 99.1808 375.458 98.5374 375.242 98.0856C375.088 97.7665 374.922 97.3803 374.807 97.1131C374.769 97.0229 374.736 96.9462 374.711 96.8903C374.646 96.7435 374.606 96.662 374.589 96.6264C373.537 95.2152 373.186 93.6699 373.064 92.3989C372.98 91.5155 372.998 90.4949 373.012 89.7817C373.015 89.5681 373.019 89.382 373.019 89.2355C373.019 87.4486 374.384 86 376.069 86ZM396.396 95.1887C396.396 95.1887 396.395 95.1916 396.389 95.1973C396.394 95.1915 396.396 95.1886 396.396 95.1887Z" fill="black"/>
<path fill-rule="evenodd" clip-rule="evenodd" d="M569.515 42.3924C582.195 40.747 595.113 39.0706 607.938 46.7742C610.292 48.1876 613.58 50.3779 616.565 53.0413C616.911 51.3509 618.557 50.2565 620.249 50.5953C623.029 51.1521 625.291 52.8448 627.013 54.3798C627.892 55.1645 628.725 55.9965 629.462 56.7334L629.472 56.7438C630.239 57.5105 630.89 58.1603 631.509 58.7053C636.091 62.7405 639.983 67.1264 643.845 71.4768C644.008 71.6611 644.171 71.8453 644.335 72.0294C648.806 77.0653 652.24 84.457 653.909 90.6965C661.177 117.858 648.592 144.112 630.147 162.577C625.489 167.24 619.878 172.49 613.583 176.483C607.287 180.476 600.068 183.365 592.239 182.963C583.02 182.489 573.951 179.483 565.831 176.399C565.635 176.324 565.439 176.249 565.241 176.174C558.718 173.7 550.845 170.712 545.046 165.363C535.253 156.328 528.194 142.396 523.45 130.893C520.56 123.884 517.911 115.805 517.218 107.882C516.927 104.562 516.991 101.087 517.051 97.8383C517.075 96.5478 517.098 95.2927 517.098 94.0969C517.098 89.2227 517.128 84.0468 518.713 78.7892C519.866 74.9671 521.852 71.4841 523.627 68.3709C523.982 67.7477 524.329 67.1393 524.66 66.5459C528.089 60.3824 533.645 54.972 539.478 51.3326C547.766 46.1619 558.236 43.8302 567.248 42.6845C568.003 42.5886 568.758 42.4905 569.515 42.3924ZM620.751 57.4676C622.71 60.0181 624.222 63.0224 624.222 66.2922C624.222 68.0244 622.819 69.4286 621.089 69.4286C619.359 69.4286 617.956 68.0244 617.956 66.2922C617.956 64.2201 616.408 61.582 613.465 58.7197C610.664 55.9946 607.2 53.6458 604.715 52.1531C593.807 45.6015 582.95 46.9947 569.81 48.6806C569.224 48.7558 568.633 48.8317 568.037 48.9074C559.315 50.0162 549.924 52.2067 542.792 56.6563C537.715 59.824 532.969 64.501 530.134 69.5982C529.738 70.3099 529.347 70.9983 528.965 71.6703C527.204 74.7706 525.641 77.5221 524.712 80.602C523.43 84.8541 523.364 89.1454 523.364 94.0969C523.364 95.5484 523.338 96.9501 523.312 98.3193C523.254 101.424 523.199 104.362 523.46 107.335C524.072 114.335 526.452 121.734 529.242 128.499C533.92 139.842 540.557 152.69 549.293 160.75C554.188 165.266 561.079 167.884 567.979 170.505L568.054 170.533C576.091 173.586 584.382 176.278 592.56 176.698C598.62 177.01 604.545 174.79 610.23 171.184C615.917 167.577 621.128 162.735 625.716 158.142C643.262 140.576 654.332 116.521 647.857 92.3194C646.367 86.7518 643.311 80.3184 639.651 76.1968C639.516 76.0441 639.38 75.8917 639.245 75.7396C635.319 71.3158 631.657 67.1896 627.371 63.4151C626.593 62.731 625.815 61.9528 625.098 61.2361L625.045 61.1827C624.286 60.4241 623.574 59.7141 622.844 59.0637C622.081 58.383 621.39 57.8532 620.751 57.4676Z" fill="black"/>
<path fill-rule="evenodd" clip-rule="evenodd" d="M571.865 81C573.596 81 575 82.4437 575 84.2245C575 86.7311 574.391 89.8214 572.683 92.2535C572.604 92.3654 572.528 92.4978 572.345 92.8175L572.337 92.8323C572.188 93.0935 571.935 93.535 571.61 93.959C570.807 95.0048 569.511 95.9959 567.571 95.9959C567.344 95.9959 567.112 95.9969 566.877 95.9979C564.311 96.0089 561.315 96.0218 558.201 94.7577C556.163 93.93 554.87 92.78 553.853 91.4575C553.401 90.8689 553.009 90.2524 552.681 89.7362L552.665 89.711C552.315 89.1599 552.002 88.6679 551.627 88.1535C550.588 86.7288 550.869 84.7077 552.254 83.6392C553.64 82.5706 555.605 82.8594 556.644 84.2841C557.142 84.9672 557.55 85.6089 557.881 86.1304C557.892 86.1481 557.903 86.1656 557.915 86.183C558.271 86.7435 558.517 87.1257 558.773 87.4586C559.188 87.9984 559.613 88.3974 560.504 88.7591C562.422 89.5377 564.227 89.5494 566.941 89.5472C566.952 89.5272 566.964 89.5055 566.977 89.4826C567.114 89.2423 567.336 88.8524 567.599 88.4777C568.306 87.4707 568.729 85.8424 568.729 84.2245C568.729 82.4437 570.133 81 571.865 81Z" fill="black"/>
<path fill-rule="evenodd" clip-rule="evenodd" d="M598.272 83.7889C597.957 82.0418 596.465 80.8212 594.817 81.0215C593.079 81.2328 591.827 82.9453 592.02 84.8466C592.14 86.034 592.655 87.0449 593.012 87.6609C593.42 88.3645 593.917 89.0412 594.392 89.6285C595.328 90.7847 596.427 91.8909 597.195 92.515C597.24 92.5511 597.288 92.5906 597.339 92.6328C597.756 92.9736 598.39 93.4928 599.064 93.9144C599.817 94.3855 600.966 94.9664 602.347 94.9664C602.43 94.9664 602.515 94.97 602.666 94.9764C602.732 94.9792 602.811 94.9825 602.909 94.9864C603.174 94.9968 603.535 95.008 603.918 94.992C604.521 94.967 605.922 94.8706 607.106 93.8741C607.539 93.5097 607.937 93.0924 608.19 92.8272C608.225 92.7911 608.256 92.7579 608.284 92.728C608.584 92.4157 608.718 92.2941 608.813 92.2255C609.342 91.8389 609.799 91.3881 610.145 91.0277C610.335 90.8284 610.589 90.5523 610.8 90.3225C610.916 90.1956 611.02 90.083 611.092 90.005C611.376 89.7017 611.579 89.5025 611.742 89.3671C611.817 89.3061 611.862 89.2751 611.882 89.2625C613.51 88.6378 614.384 86.6963 613.837 84.8989C613.284 83.084 611.49 82.1032 609.832 82.7082C608.367 83.2424 607.252 84.4241 606.665 85.0516C606.432 85.3008 606.244 85.5053 606.088 85.675C605.688 86.1101 605.499 86.3165 605.3 86.4615C604.705 86.895 604.224 87.3918 603.919 87.7094C603.883 87.7477 603.848 87.7838 603.815 87.8178C603.718 87.9189 603.639 88.002 603.57 88.0723C603.451 88.0736 603.311 88.0702 603.136 88.0634L602.962 88.0562C602.904 88.0537 602.839 88.051 602.775 88.0484C602.682 88.0449 602.574 88.0413 602.462 88.0397C602.419 88.0211 602.336 87.9811 602.208 87.9009C601.892 87.7028 601.577 87.447 601.112 87.0685C601.067 87.0315 601.02 86.9934 600.971 86.954C600.617 86.6662 599.836 85.9035 599.133 85.0355C598.789 84.6107 598.526 84.2366 598.36 83.9507C598.32 83.8812 598.292 83.8275 598.272 83.7889ZM598.241 83.7211C598.239 83.7155 598.238 83.7127 598.238 83.7127C598.238 83.7128 598.239 83.7156 598.241 83.7211Z" fill="black"/>
<path fill-rule="evenodd" clip-rule="evenodd" d="M585.242 149.936C586.913 149.791 588.53 149.424 589.578 149.147C593.003 148.245 596.874 147.078 600.186 144.396C600.27 144.328 600.365 144.252 600.469 144.169C601.113 143.655 602.096 142.871 602.906 141.986C603.846 140.96 605 139.335 605 137.211C605 135.512 603.568 134.134 601.8 134.134C600.038 134.134 598.609 135.503 598.601 137.195C598.595 137.217 598.539 137.444 598.102 137.922C597.651 138.415 597.109 138.85 596.45 139.379C596.326 139.479 596.197 139.582 596.064 139.69C593.906 141.437 591.239 142.33 587.888 143.213C587.012 143.444 585.805 143.71 584.668 143.808C584.102 143.857 583.631 143.857 583.27 143.818C582.967 143.786 582.844 143.736 582.838 143.734C581.741 143.11 580.64 142.371 579.47 141.585C578.999 141.27 578.517 140.946 578.02 140.62C576.674 139.736 575.675 138.422 574.569 136.575C574.332 136.178 574.08 135.737 573.812 135.269C572.95 133.759 571.924 131.962 570.684 130.429C569.858 129.407 569.385 128.318 568.921 126.912C568.82 126.608 568.715 126.267 568.602 125.902C568.232 124.708 567.777 123.24 567.125 121.827C566.407 120.275 564.516 119.576 562.901 120.266C561.286 120.956 560.559 122.774 561.277 124.327C561.748 125.345 562.033 126.266 562.372 127.357C562.508 127.795 562.653 128.262 562.821 128.773C563.374 130.447 564.123 132.342 565.633 134.207C566.533 135.319 567.201 136.488 567.992 137.87C568.308 138.424 568.644 139.012 569.023 139.644C570.242 141.681 571.83 144.006 574.411 145.701C574.784 145.946 575.188 146.217 575.613 146.502C576.854 147.336 578.27 148.286 579.598 149.04C581.456 150.096 583.744 150.066 585.242 149.936Z" fill="black"/>
</svg>
