<svg width="1200" height="523" viewBox="0 0 1200 523" fill="none" xmlns="http://www.w3.org/2000/svg">
<path fill-rule="evenodd" clip-rule="evenodd" d="M217.557 269.987C213.394 269.556 209.34 269.894 206.026 271.554C191.691 278.732 179.93 288.545 167.584 298.845C165.129 300.892 162.652 302.96 160.126 305.029C152.146 311.569 148.39 318.272 148.39 327.759C148.39 327.937 148.385 328.186 148.35 328.446C148.333 328.571 148.297 328.795 148.212 329.054C148.155 329.225 147.936 329.877 147.291 330.414C146.914 330.728 146.387 331.003 145.737 331.073C145.101 331.141 144.565 330.99 144.188 330.814C143.531 330.507 143.172 330.039 143.072 329.906C142.818 329.571 142.675 329.234 142.628 329.124L142.628 329.123C142.405 328.599 142.167 327.754 141.977 327.076C141.908 326.827 141.839 326.579 141.772 326.334C141.378 324.912 141.013 323.594 140.745 322.99C140.68 322.844 140.613 322.693 140.544 322.54C139.413 320.006 137.857 316.518 137.857 312.895C137.857 311.067 136.935 309.485 135.194 307.488C134.767 306.998 134.317 306.511 133.836 305.993L133.745 305.894C133.3 305.415 132.828 304.907 132.372 304.39C131.403 303.293 130.386 302.028 129.618 300.575C127.964 297.447 125.421 294.561 122.426 291.645C121.057 290.312 119.632 289.009 118.179 287.68C118.049 287.561 117.919 287.442 117.788 287.322C116.215 285.882 114.614 284.409 113.11 282.903C112.309 282.1 111.613 281.497 110.861 280.845C110.334 280.388 109.778 279.907 109.139 279.316C107.81 278.087 106.452 276.648 105.373 274.711C105.36 274.707 105.347 274.703 105.333 274.699C104.972 274.592 104.385 274.52 103.557 274.513C102.756 274.507 101.896 274.562 101.029 274.626C100.914 274.635 100.796 274.644 100.676 274.653C99.9719 274.707 99.1996 274.766 98.5986 274.766C86.4679 274.766 77.5323 280.49 69.2402 289.314C65.6841 293.098 62.7898 296.354 60.0561 300.541C59.544 301.325 59.1447 302.497 58.9093 304.103C58.6769 305.69 58.6294 307.516 58.6864 309.476C58.7414 311.37 58.8903 313.296 59.0354 315.176L59.0498 315.362C59.1958 317.254 59.3402 319.153 59.3402 320.757C59.3402 372.273 74.4998 422.429 97.0414 468.656C103.179 481.243 110.541 492.655 118.242 504.554C118.839 505.477 119.495 506.678 120.144 507.872L120.313 508.184C120.931 509.324 121.572 510.506 122.248 511.653C122.987 512.908 123.724 514.049 124.45 514.968C125.202 515.921 125.803 516.456 126.221 516.695C127.299 517.312 128.349 517.355 129.571 516.919C130.905 516.443 132.397 515.393 133.969 513.851C137.113 510.767 139.844 506.461 141.598 503.664C144.197 499.519 147.418 495.721 150.619 492.12C151.354 491.293 152.085 490.479 152.81 489.673C155.288 486.916 157.681 484.254 159.843 481.486C164.62 475.373 168.648 468.773 172.759 462.038C174.499 459.186 176.254 456.311 178.087 453.437C193.976 428.53 209.758 403.564 221.131 376.513C232.721 348.944 228.872 322.521 224.612 293.286C224.287 291.057 223.96 288.812 223.638 286.549C223.398 284.87 222.468 280.424 221.044 276.386C220.329 274.359 219.543 272.588 218.74 271.349C217.984 270.181 217.552 270 217.557 269.987C217.557 269.987 217.557 269.987 217.557 269.987ZM105.521 274.768C105.521 274.769 105.516 274.766 105.507 274.761C105.517 274.766 105.522 274.768 105.521 274.768ZM203.439 266.373C208.141 264.018 213.467 263.732 218.228 264.233C220.812 264.506 222.548 266.584 223.593 268.198C224.755 269.993 225.72 272.253 226.498 274.457C228.058 278.882 229.074 283.702 229.363 285.73C229.696 288.062 230.036 290.387 230.375 292.705C234.61 321.656 238.703 349.641 226.461 378.761C214.868 406.336 198.817 431.701 182.961 456.556C181.264 459.216 179.584 461.968 177.884 464.753C173.699 471.61 169.392 478.666 164.398 485.056C162.1 487.997 159.527 490.859 157.026 493.641C156.322 494.425 155.623 495.201 154.938 495.972C151.768 499.538 148.822 503.034 146.496 506.744C144.791 509.464 141.723 514.353 138.016 517.989C136.163 519.807 133.968 521.499 131.513 522.375C128.945 523.292 126.104 523.3 123.351 521.724C121.994 520.947 120.849 519.745 119.914 518.561C118.953 517.345 118.063 515.95 117.266 514.595C116.536 513.355 115.847 512.086 115.236 510.959C115.178 510.851 115.12 510.744 115.063 510.639C114.387 509.395 113.841 508.403 113.388 507.704C105.712 495.844 98.1594 484.148 91.8445 471.198C69.0439 424.44 53.5567 373.404 53.5567 320.757C53.5567 319.42 53.4341 317.76 53.2834 315.808L53.2656 315.578C53.123 313.732 52.9645 311.681 52.9053 309.644C52.8437 307.525 52.8852 305.322 53.187 303.262C53.4858 301.223 54.0658 299.132 55.2155 297.371C58.2369 292.743 61.4169 289.187 65.0286 285.344C73.9202 275.882 84.2733 268.974 98.5986 268.974C98.9589 268.974 99.4625 268.936 100.193 268.881C100.321 268.871 100.457 268.861 100.599 268.85C101.476 268.784 102.543 268.713 103.603 268.721C104.636 268.729 105.844 268.812 106.962 269.141C108.058 269.463 109.505 270.156 110.323 271.704C110.992 272.97 111.892 273.977 113.063 275.061C113.423 275.394 113.874 275.788 114.367 276.219C115.27 277.008 116.315 277.92 117.2 278.807C118.6 280.209 120.111 281.602 121.69 283.047C121.822 283.168 121.956 283.29 122.089 283.412C123.53 284.73 125.02 286.093 126.457 287.492C129.586 290.538 132.648 293.928 134.729 297.865C135.177 298.711 135.838 299.572 136.705 300.553C137.112 301.014 137.537 301.473 137.994 301.964L138.073 302.05C138.55 302.564 139.058 303.112 139.551 303.679C141.49 305.904 143.641 308.861 143.641 312.895C143.641 314.102 143.928 315.339 144.381 316.648C146.535 310.477 150.62 305.334 156.464 300.546C158.904 298.547 161.324 296.526 163.745 294.505C176.094 284.195 188.45 273.879 203.439 266.373Z" fill="black"/>
<path fill-rule="evenodd" clip-rule="evenodd" d="M56.0383 154.284C56.2435 154.526 56.5243 154.878 56.8839 155.341C58.0755 156.875 58.9766 158.506 59.657 160.184C60.9646 162.864 61.3249 165.622 61.6078 167.912C61.6163 167.981 61.6247 168.049 61.6331 168.117C61.9736 170.878 62.2269 172.932 63.216 174.772C64.0358 176.297 65.0702 178.41 65.9289 180.595C66.7601 182.709 67.5416 185.172 67.6477 187.297C67.7401 189.148 68.3003 190.959 69.102 193.015C69.3016 193.527 69.5246 194.073 69.7576 194.642C70.4001 196.213 71.1178 197.968 71.6253 199.711C72.0602 201.204 72.3357 202.879 72.5721 204.315C72.6685 204.901 72.7584 205.447 72.85 205.926C73.2029 207.77 73.6511 209.236 74.525 210.501C75.8649 212.439 77.6587 215.426 79.1295 218.51C80.5368 221.461 81.8993 225.004 81.8993 227.872C81.8993 229.472 80.6046 230.768 79.0075 230.768C77.4104 230.768 76.1157 229.472 76.1157 227.872C76.1157 226.43 75.3049 223.93 73.9106 221.006C72.5798 218.215 70.9435 215.496 69.7698 213.798C68.2112 211.543 67.5753 209.135 67.1698 207.016C67.0151 206.208 66.8977 205.487 66.7884 204.815C66.5853 203.567 66.4098 202.489 66.0732 201.333C65.6562 199.901 65.1175 198.585 64.5191 197.122C64.2604 196.49 63.9906 195.83 63.7145 195.122C62.8517 192.909 62.0115 190.392 61.8714 187.586C61.8423 187.003 61.702 186.266 61.4674 185.418C60.676 203.176 57.766 221.287 49.6717 237.616C45.3362 246.362 40.2893 254.913 35.3158 263.34C32.6507 267.856 30.0067 272.336 27.5045 276.791C22.1184 286.381 17.7835 297.509 17.7835 308.138C17.7835 319.339 18.0782 327.853 21.2177 338.072C22.4396 342.049 26.5453 346.578 31.9339 350.347C37.2759 354.082 43.1738 356.577 47.2374 356.984C48.8265 357.143 49.986 358.562 49.8271 360.154C49.6681 361.745 48.2511 362.907 46.6619 362.747C41.2466 362.205 34.405 359.139 28.623 355.096C22.8877 351.085 17.4849 345.618 15.6899 339.775C12.2818 328.682 12 319.436 12 308.138C12 296.067 16.8702 283.91 22.4637 273.951C25.0988 269.26 27.8075 264.672 30.5001 260.112C35.396 251.821 40.239 243.619 44.4914 235.04C53.7867 216.289 55.9312 194.746 55.9312 173.635C55.9312 169.583 55.6516 165.818 54.3781 162.56C54.2627 162.336 54.1374 162.116 54.0012 161.899C53.8141 161.601 53.4742 161.093 53.0792 160.502C52.6616 159.877 52.1826 159.16 51.7574 158.502C51.5722 158.216 51.3953 157.938 51.2613 157.713C51.1988 157.608 51.1165 157.467 51.0434 157.322C51.0119 157.26 50.9421 157.119 50.8778 156.943C50.8479 156.86 50.7851 156.68 50.7426 156.444C50.7421 156.441 50.7415 156.438 50.7408 156.434C50.7165 156.302 50.5842 155.585 50.9312 154.776C51.1545 154.254 51.584 153.687 52.284 153.331C52.9415 152.998 53.5604 152.993 53.9426 153.039C54.5943 153.118 55.0437 153.403 55.1447 153.467L55.1504 153.47C55.4254 153.644 55.6187 153.833 55.6677 153.881L55.6716 153.885C55.8148 154.024 55.9473 154.177 56.0383 154.284Z" fill="#FB0153"/>
<path fill-rule="evenodd" clip-rule="evenodd" d="M80.1951 66.8217C81.7922 66.8217 83.0869 68.1183 83.0869 69.7178C83.0869 74.8413 82.0511 80.3521 80.9038 85.6507C80.6281 86.9241 80.3467 88.1827 80.0687 89.4258C79.1652 93.4666 78.2981 97.344 77.7819 101.037C75.0787 120.375 76.2443 141.282 81.8412 159.78C82.7642 162.831 84.4166 165.608 86.3352 168.672C86.4825 168.907 86.6316 169.145 86.7821 169.384C88.5277 172.162 90.4515 175.223 91.7379 178.619C93.7792 184.009 95.1935 189.068 96.6923 194.429L96.7 194.456C97.2407 196.39 97.7417 198.642 98.2372 200.869C98.5406 202.234 98.842 203.588 99.1491 204.855C100.005 208.385 100.969 211.555 102.314 213.98C104.43 217.795 106.29 222.186 106.596 226.733C106.911 231.421 105.558 236.133 101.541 240.317C101.234 240.637 100.92 240.97 100.598 241.311C97.1662 244.951 92.8313 249.547 85.9711 249.793C82.8725 249.903 80.262 249.15 78.3913 247.276C76.5925 245.475 75.9319 243.08 75.6885 240.904C75.4435 238.714 75.5787 236.312 75.7427 234.121C75.7778 233.651 75.8142 233.191 75.8499 232.741C75.9885 230.99 76.116 229.38 76.116 227.872C76.116 226.273 77.4107 224.976 79.0078 224.976C80.6049 224.976 81.8995 226.273 81.8995 227.872C81.8995 229.634 81.7478 231.541 81.6068 233.313C81.5732 233.736 81.5402 234.151 81.51 234.554C81.3454 236.753 81.2579 238.666 81.4361 240.26C81.6159 241.867 82.0243 242.723 82.4808 243.18C82.8652 243.565 83.6959 244.078 85.7647 244.004C90.1592 243.847 92.8657 241.015 96.6412 237.066C96.8802 236.816 97.1235 236.561 97.3717 236.303C100.192 233.366 101.038 230.282 100.825 227.122C100.603 223.821 99.2095 220.311 97.2582 216.793C95.5119 213.645 94.4037 209.829 93.529 206.222C93.1587 204.695 92.8369 203.242 92.5291 201.852C92.0702 199.78 91.6423 197.848 91.1307 196.018C89.6208 190.618 88.2695 185.794 86.3303 180.673C85.2583 177.843 83.6352 175.256 81.8284 172.376C81.6983 172.169 81.5673 171.96 81.4355 171.75C79.5348 168.714 77.4803 165.34 76.3062 161.46C70.4394 142.07 69.2482 120.307 72.0542 100.234C72.6063 96.2843 73.5455 92.0866 74.4601 87.9988C74.7296 86.7943 74.997 85.5994 75.2517 84.4231C76.3954 79.1408 77.3033 74.1638 77.3033 69.7178C77.3033 68.1183 78.598 66.8217 80.1951 66.8217Z" fill="#FB0153"/>
<path fill-rule="evenodd" clip-rule="evenodd" d="M199.598 13.3981C198.085 14.9318 196.867 16.7142 195.424 18.9624C189.135 28.7606 182.667 38.0823 175.877 47.499C173.941 50.1833 172.981 53.1312 172.406 56.4504C172.035 58.5929 171.849 60.6556 171.649 62.8768C171.521 64.3043 171.386 65.7973 171.193 67.4189C170.817 70.5728 170.81 73.8026 170.868 77.1887C170.878 77.7723 170.889 78.3625 170.902 78.9578C170.958 81.7588 171.017 84.6745 170.88 87.5607C170.72 90.9235 170.209 94.209 169.724 97.3221C169.681 97.5954 169.639 97.8674 169.597 98.138C169.069 101.549 168.607 104.779 168.575 108.063L168.57 108.493C168.34 131.858 168.075 158.727 147.066 175.942C145.016 177.622 142.031 179.975 138.806 181.918C135.684 183.798 131.88 185.582 128.282 185.582C125.835 185.582 124.149 185.184 122.584 184.301C121.888 183.909 121.271 183.449 120.747 183.059L120.67 183.001C120.147 182.611 119.635 182.23 118.993 181.814C116.898 180.456 115.819 178.316 115.255 176.237C114.692 174.16 114.554 171.829 114.576 169.611C114.599 167.373 114.789 165.064 114.963 163.011L114.981 162.807C115.153 160.779 115.298 159.069 115.298 157.714C115.298 141.556 113.905 126.912 108.85 111.725C107.833 108.668 106.125 105.302 104.162 101.833C103.186 100.11 102.168 98.3952 101.16 96.7017L101.028 96.4792C100.071 94.8715 99.1226 93.2785 98.2613 91.7604C95.028 86.0611 92.4995 80.2722 91.0297 73.7952C90.1016 69.7055 89.4278 65.2541 88.7638 60.868C88.4453 58.7641 88.1291 56.6753 87.7882 54.6486C87.0115 50.0306 86.0927 45.6115 84.7294 41.5772C84.6273 42.8428 84.5231 44.1034 84.4192 45.3605C83.747 53.4918 83.087 61.4751 83.087 69.7181C83.087 71.3176 81.7923 72.6142 80.1952 72.6142C78.5982 72.6142 77.3035 71.3176 77.3035 69.7181C77.3035 61.2515 77.9973 52.8346 78.6805 44.5462C79.0258 40.3563 79.3685 36.1992 79.6175 32.0852C79.6176 32.0835 79.6186 32.0646 79.6201 32.022C79.6215 31.9795 79.6232 31.9242 79.6248 31.8551C79.6282 31.7168 79.6315 31.5381 79.6346 31.3233C79.6409 30.8943 79.6463 30.341 79.6509 29.7161C79.6602 28.4674 79.6663 26.952 79.6704 25.6143C79.6742 24.3418 79.6762 23.2335 79.6771 22.6733L79.6778 22.3178L79.6779 22.2969C79.6779 22.2998 79.6779 22.3032 79.678 22.3068C79.678 22.2989 79.6779 22.2929 79.6779 22.2886L79.6779 22.2864L79.678 22.2688L79.6784 22.2405C79.6786 22.2294 79.6797 22.1891 79.6809 22.1598C79.7117 21.8499 82.8506 19.4084 85.4552 22.1005C85.4583 22.1539 85.4607 22.2228 85.461 22.2383L85.4614 22.2618L85.4615 22.2784L85.4615 22.2942L85.4616 22.3282L85.4617 23.342C85.4617 27.2891 86.3817 30.8459 88.1516 34.588C90.9427 40.4892 92.3956 47.1717 93.4914 53.6864C93.8687 55.9296 94.2013 58.1304 94.5271 60.2862C95.1703 64.5422 95.7871 68.6233 96.6694 72.5115C97.981 78.2915 100.253 83.5455 103.29 88.8989C104.121 90.3632 105.041 91.9091 106.008 93.5345L106.128 93.7361C107.133 95.425 108.182 97.1914 109.193 98.9771C111.202 102.526 113.137 106.287 114.337 109.893C119.66 125.886 121.082 141.209 121.082 157.714C121.082 159.324 120.917 161.259 120.755 163.164L120.726 163.501C120.55 165.577 120.38 167.679 120.36 169.669C120.339 171.679 120.477 173.395 120.836 174.719C121.195 176.042 121.685 176.659 122.135 176.951C122.941 177.473 123.588 177.955 124.103 178.339L124.2 178.412C124.757 178.827 125.094 179.069 125.422 179.254C125.905 179.527 126.548 179.789 128.282 179.789C130.214 179.789 132.864 178.737 135.825 176.954C138.683 175.233 141.408 173.094 143.403 171.459C162.104 156.135 162.553 132.098 162.791 108.006C162.828 104.257 163.355 100.652 163.882 97.2507C163.922 96.9927 163.962 96.736 164.001 96.4804C164.494 93.3098 164.959 90.3229 165.103 87.2851C165.23 84.6141 165.176 81.9356 165.12 79.142C165.108 78.5298 165.096 77.912 165.085 77.2875C165.027 73.8706 165.024 70.3048 165.45 66.7322C165.6 65.4754 165.724 64.1271 165.85 62.7459C166.074 60.3126 166.307 57.7772 166.708 55.4607C167.371 51.6291 168.562 47.7488 171.188 44.1076C177.939 34.7463 184.343 25.5144 190.559 15.8302C192.53 12.7589 194.51 9.83604 197.746 7.3148C197.73 7.32761 197.721 7.33452 197.72 7.33372C197.717 7.33042 197.846 7.19814 198.117 6.81193C198.333 6.50347 198.541 6.1808 198.768 5.82788C198.851 5.69941 198.936 5.56693 199.025 5.42966L199.059 5.37766C199.292 5.01841 199.74 4.32711 200.22 3.87913C200.361 3.74732 200.698 3.44751 201.199 3.23697C201.75 3.00525 202.88 2.75359 203.996 3.48652C204.93 4.0994 205.197 5.00058 205.274 5.30426C205.37 5.68798 205.382 6.02921 205.382 6.23169V15.018C205.382 19.14 204.184 22.7456 203.08 25.892C203.003 26.1136 202.925 26.3325 202.849 26.5491C201.801 29.5262 200.908 32.0618 200.689 34.8036C200.176 41.2303 199.32 47.5315 198.479 53.7222C198.242 55.4701 198.005 57.2092 197.778 58.9398C196.741 66.8497 195.883 74.6647 195.883 82.7324C195.883 85.1808 196.535 87.7425 197.431 90.6229C197.607 91.1882 197.795 91.772 197.987 92.3698C198.728 94.6725 199.535 97.1833 199.991 99.6456C202.091 111.003 203.007 123.385 203.007 134.856V135.022C203.007 144.803 203.007 155.047 199.909 165.046C198.594 169.29 196.888 173.291 195.24 177.131L195.124 177.402C193.5 181.186 191.944 184.815 190.731 188.593C187.357 199.107 186.385 207.997 186.385 219.549C186.385 221.543 186.748 222.235 186.852 222.388C186.922 222.398 187.081 222.41 187.361 222.369C188.104 222.26 189.115 221.88 190.385 221.259C190.993 220.962 191.606 220.637 192.231 220.304L192.453 220.185C192.993 219.896 193.551 219.598 194.073 219.336C195.501 218.621 197.238 219.201 197.953 220.632C198.667 222.062 198.088 223.802 196.659 224.517C196.212 224.741 195.727 225 195.177 225.295L194.952 225.415C194.325 225.749 193.632 226.117 192.921 226.465C191.551 227.134 189.87 227.856 188.195 228.101C186.46 228.354 184.242 228.143 182.581 226.299C181.086 224.638 180.601 222.227 180.601 219.549C180.601 207.585 181.617 198.063 185.225 186.82C186.523 182.775 188.176 178.925 189.769 175.211L189.926 174.845C191.586 170.976 193.173 167.241 194.385 163.329C197.199 154.249 197.224 144.831 197.224 134.856C197.224 123.666 196.327 111.645 194.304 100.7C193.923 98.641 193.268 96.5998 192.545 94.3488C192.337 93.7005 192.124 93.0349 191.909 92.3464C190.994 89.4048 190.1 86.1233 190.1 82.7324C190.1 74.2724 190.999 66.1515 192.044 58.1854C192.279 56.3965 192.52 54.6192 192.761 52.848C193.598 46.6832 194.425 40.5926 194.924 34.3417C195.206 30.8093 196.349 27.5792 197.354 24.7371C197.445 24.4789 197.535 24.2239 197.624 23.9722C198.726 20.8297 199.598 18.0553 199.598 15.018V13.3981ZM79.6779 22.2886L79.6779 22.2969C79.6778 22.2867 79.6778 22.2806 79.6778 22.2798C79.6778 22.2791 79.6779 22.2818 79.6779 22.2886Z" fill="#FB0153"/>
<path fill-rule="evenodd" clip-rule="evenodd" d="M243.38 140.586C241.826 142.954 240.085 145.194 238.358 147.331C237.631 148.23 236.908 149.11 236.196 149.976C233.131 153.705 230.282 157.172 228.233 160.844C227.594 161.989 226.981 162.888 226.459 163.634C226.374 163.756 226.294 163.87 226.217 163.979C225.802 164.571 225.505 164.994 225.245 165.44C224.756 166.28 224.378 167.228 224.378 169.341C224.378 171.648 223.31 173.492 222.527 174.763C222.37 175.018 222.222 175.255 222.082 175.478C221.426 176.526 220.961 177.269 220.679 178.151C219.025 183.327 216.62 187.752 214.076 191.921C213.146 193.445 212.219 194.903 211.302 196.345C209.649 198.946 208.027 201.498 206.468 204.307C205.723 205.651 204.911 207.005 204.118 208.329C204.059 208.427 204 208.525 203.941 208.623C203.082 210.057 202.245 211.464 201.471 212.885C199.917 215.739 198.713 218.49 198.211 221.256C197.925 222.83 196.419 223.873 194.848 223.587C193.277 223.301 192.235 221.793 192.52 220.22C193.184 216.562 194.724 213.178 196.393 210.112C197.231 208.573 198.126 207.072 198.982 205.643L199.147 205.367C199.953 204.024 200.717 202.749 201.413 201.494C203.045 198.551 204.843 195.72 206.561 193.014C207.454 191.608 208.326 190.236 209.141 188.9C211.587 184.891 213.722 180.92 215.17 176.386C215.697 174.737 216.624 173.275 217.286 172.23C217.401 172.047 217.509 171.878 217.605 171.722C218.363 170.491 218.595 169.875 218.595 169.341C218.595 166.307 219.194 164.334 220.248 162.523C220.644 161.843 221.106 161.188 221.517 160.604C221.587 160.504 221.656 160.406 221.723 160.31C222.205 159.621 222.688 158.908 223.184 158.019C225.513 153.845 228.78 149.876 231.865 146.128C232.544 145.303 233.214 144.489 233.863 143.686C237.589 139.077 240.737 134.72 242.211 130.024C243.164 126.985 244.927 123.619 246.411 120.786C246.864 119.922 247.29 119.107 247.66 118.367C247.761 118.165 248.001 117.702 248.432 117.293C248.658 117.08 249.114 116.709 249.805 116.54C250.609 116.343 251.435 116.494 252.101 116.918C252.672 117.28 252.979 117.745 253.122 117.998C253.277 118.273 253.365 118.524 253.416 118.689C253.515 119.018 253.561 119.331 253.586 119.547C253.681 120.376 253.652 121.552 253.6 122.588C253.546 123.691 253.451 124.879 253.357 125.848C253.273 126.717 253.167 127.657 253.065 128.103C252.395 131.039 251.497 133.878 250.638 136.59L250.619 136.652C249.755 139.378 248.931 141.978 248.313 144.631C245.954 154.756 242.032 167.768 237.108 177.161C231.201 188.428 230.109 202.492 230.315 215.672C230.398 221.012 231.127 224.899 232.677 228.081C234.211 231.229 236.675 233.946 240.679 236.722C244.182 239.151 246.991 241.721 248.895 244.915C250.824 248.152 251.687 251.798 251.687 256.148C251.687 256.567 251.689 256.989 251.691 257.415C251.697 258.461 251.702 259.528 251.676 260.613C252.1 260.296 252.438 260.023 252.716 259.752C258.231 254.383 263.039 248.661 266.401 242.022C266.948 240.94 267.542 239.824 268.156 238.67C269.262 236.592 270.433 234.391 271.514 232.053C273.187 228.436 274.326 225.116 274.4 222.505C274.406 222.297 274.412 222.079 274.417 221.851C274.372 218.926 274.361 216.318 274.363 214.25C274.365 212.732 274.374 211.503 274.383 210.653C274.387 210.228 274.391 209.898 274.394 209.672L274.398 209.415L274.4 209.327C274.4 209.326 274.4 209.325 277.291 209.375C280.183 209.334 280.183 209.334 280.183 209.334L280.183 209.336L280.188 209.725C280.191 209.976 280.195 210.339 280.2 210.789C280.21 211.687 280.222 212.931 280.23 214.314C280.244 216.755 280.246 219.666 280.201 221.867C280.221 223.188 280.248 224.572 280.284 226C280.516 235.263 281.109 246.099 282.501 253.069C284.701 264.082 286.708 276.783 286.971 289.401C287.233 301.998 285.764 314.713 280.852 325.645C274.628 339.497 265.994 351.494 255.325 362.178C254.657 362.848 253.97 363.543 253.264 364.257C247.329 370.26 240.115 377.559 232.279 381.483C230.85 382.198 229.113 381.618 228.399 380.187C227.685 378.757 228.264 377.017 229.692 376.302C236.611 372.837 243.112 366.276 249.174 360.158C249.867 359.458 250.554 358.765 251.236 358.082C261.465 347.838 269.672 336.411 275.577 323.268C280.001 313.424 281.442 301.67 281.188 289.522C280.936 277.396 279.001 265.075 276.83 254.205C275.94 249.75 275.369 243.969 275.003 238.074C274.366 239.315 273.726 240.522 273.132 241.64C272.545 242.743 272.005 243.761 271.559 244.641C267.801 252.064 262.509 258.295 256.748 263.905C256.064 264.572 255.306 265.135 254.672 265.595C254.527 265.7 254.39 265.799 254.258 265.894C253.763 266.25 253.35 266.547 252.955 266.871C251.987 267.666 251.724 268.16 251.667 268.641C251.524 269.859 251.272 270.94 250.892 271.784C250.717 272.172 250.411 272.749 249.884 273.23C249.354 273.715 247.919 274.602 246.275 273.71C245.074 273.059 244.742 271.894 244.651 271.539C244.516 271.01 244.487 270.473 244.498 270.006C244.519 269.049 244.717 267.893 245.091 266.583C245.927 263.654 245.918 260.903 245.906 257.423C245.905 257.009 245.903 256.584 245.903 256.148C245.903 252.61 245.215 250.042 243.929 247.884C242.616 245.682 240.544 243.674 237.387 241.485C232.818 238.317 229.564 234.9 227.48 230.621C225.412 226.376 224.622 221.542 224.532 215.762C224.323 202.401 225.37 187.091 231.987 174.469C236.573 165.72 240.363 153.264 242.681 143.315C242.895 142.396 243.131 141.486 243.38 140.586ZM277.291 209.375L280.183 209.334L274.4 209.325L277.291 209.375ZM245.619 269.404C245.608 269.43 245.607 269.425 245.622 269.398C245.621 269.4 245.62 269.402 245.619 269.404Z" fill="#FB0153"/>
<path fill-rule="evenodd" clip-rule="evenodd" d="M517.557 269.987C513.394 269.556 509.34 269.894 506.026 271.554C491.691 278.732 479.93 288.545 467.584 298.845C465.129 300.892 462.652 302.96 460.126 305.029C452.146 311.569 448.39 318.272 448.39 327.759C448.39 327.937 448.385 328.186 448.35 328.446C448.333 328.571 448.297 328.795 448.212 329.054C448.155 329.225 447.936 329.877 447.291 330.414C446.914 330.728 446.387 331.003 445.737 331.073C445.101 331.141 444.565 330.99 444.188 330.814C443.531 330.507 443.172 330.039 443.072 329.906C442.818 329.571 442.675 329.234 442.628 329.124L442.628 329.123C442.405 328.599 442.167 327.754 441.977 327.076C441.908 326.827 441.839 326.579 441.772 326.334C441.378 324.912 441.013 323.594 440.745 322.99C440.68 322.844 440.613 322.693 440.544 322.54C439.413 320.006 437.857 316.518 437.857 312.895C437.857 311.067 436.935 309.485 435.194 307.488C434.767 306.998 434.317 306.511 433.836 305.993L433.745 305.894C433.3 305.415 432.828 304.907 432.372 304.39C431.403 303.293 430.386 302.028 429.618 300.575C427.964 297.447 425.421 294.561 422.426 291.645C421.057 290.312 419.632 289.009 418.179 287.68C418.049 287.561 417.919 287.442 417.788 287.322C416.215 285.882 414.614 284.409 413.11 282.903C412.309 282.1 411.613 281.497 410.861 280.845C410.334 280.388 409.778 279.907 409.139 279.316C407.81 278.087 406.452 276.648 405.373 274.711C405.36 274.707 405.347 274.703 405.333 274.699C404.972 274.592 404.385 274.52 403.557 274.513C402.756 274.507 401.896 274.562 401.029 274.626C400.914 274.635 400.796 274.644 400.676 274.653C399.972 274.707 399.2 274.766 398.599 274.766C386.468 274.766 377.532 280.49 369.24 289.314C365.684 293.098 362.79 296.354 360.056 300.541C359.544 301.325 359.145 302.497 358.909 304.103C358.677 305.69 358.629 307.516 358.686 309.476C358.741 311.37 358.89 313.296 359.035 315.176L359.05 315.362C359.196 317.254 359.34 319.153 359.34 320.757C359.34 372.273 374.5 422.429 397.041 468.656C403.179 481.243 410.541 492.655 418.242 504.554C418.839 505.477 419.495 506.678 420.144 507.872L420.313 508.184C420.931 509.324 421.572 510.506 422.248 511.653C422.987 512.908 423.724 514.049 424.45 514.968C425.202 515.921 425.803 516.456 426.221 516.695C427.299 517.312 428.349 517.355 429.571 516.919C430.905 516.443 432.397 515.393 433.969 513.851C437.113 510.767 439.844 506.461 441.598 503.664C444.197 499.519 447.418 495.721 450.619 492.12C451.354 491.293 452.085 490.479 452.81 489.673C455.288 486.916 457.681 484.254 459.843 481.486C464.62 475.373 468.648 468.773 472.759 462.038C474.499 459.186 476.254 456.311 478.087 453.437C493.976 428.53 509.758 403.564 521.131 376.513C532.721 348.944 528.872 322.521 524.612 293.286C524.287 291.057 523.96 288.812 523.638 286.549C523.398 284.87 522.468 280.424 521.044 276.386C520.329 274.359 519.543 272.588 518.74 271.349C517.984 270.181 517.552 270 517.557 269.987C517.557 269.987 517.557 269.987 517.557 269.987ZM405.521 274.768C405.521 274.769 405.516 274.766 405.507 274.761C405.517 274.766 405.522 274.768 405.521 274.768ZM503.439 266.373C508.141 264.018 513.467 263.732 518.228 264.233C520.812 264.506 522.548 266.584 523.593 268.198C524.755 269.993 525.72 272.253 526.498 274.457C528.058 278.882 529.074 283.702 529.363 285.73C529.696 288.062 530.036 290.387 530.375 292.705C534.61 321.656 538.703 349.641 526.461 378.761C514.868 406.336 498.817 431.701 482.961 456.556C481.264 459.216 479.584 461.968 477.884 464.753C473.699 471.61 469.392 478.666 464.398 485.056C462.1 487.997 459.527 490.859 457.026 493.641C456.322 494.425 455.623 495.201 454.938 495.972C451.768 499.538 448.822 503.034 446.496 506.744C444.791 509.464 441.723 514.353 438.016 517.989C436.163 519.807 433.968 521.499 431.513 522.375C428.945 523.292 426.104 523.3 423.351 521.724C421.994 520.947 420.849 519.745 419.914 518.561C418.953 517.345 418.063 515.95 417.266 514.595C416.536 513.355 415.847 512.086 415.236 510.959C415.178 510.851 415.12 510.744 415.063 510.639C414.387 509.395 413.841 508.403 413.388 507.704C405.712 495.844 398.159 484.148 391.845 471.198C369.044 424.44 353.557 373.404 353.557 320.757C353.557 319.42 353.434 317.76 353.283 315.808L353.266 315.578C353.123 313.732 352.964 311.681 352.905 309.644C352.844 307.525 352.885 305.322 353.187 303.262C353.486 301.223 354.066 299.132 355.215 297.371C358.237 292.743 361.417 289.187 365.029 285.344C373.92 275.882 384.273 268.974 398.599 268.974C398.959 268.974 399.463 268.936 400.193 268.881C400.321 268.871 400.457 268.861 400.599 268.85C401.476 268.784 402.543 268.713 403.603 268.721C404.636 268.729 405.844 268.812 406.962 269.141C408.058 269.463 409.505 270.156 410.323 271.704C410.992 272.97 411.892 273.977 413.063 275.061C413.423 275.394 413.874 275.788 414.367 276.219C415.27 277.008 416.315 277.92 417.2 278.807C418.6 280.209 420.111 281.602 421.69 283.047C421.822 283.168 421.956 283.29 422.089 283.412C423.53 284.73 425.02 286.093 426.457 287.492C429.586 290.538 432.648 293.928 434.729 297.865C435.177 298.711 435.838 299.572 436.705 300.553C437.112 301.014 437.537 301.473 437.994 301.964L438.073 302.05C438.55 302.564 439.058 303.112 439.551 303.679C441.49 305.904 443.641 308.861 443.641 312.895C443.641 314.102 443.928 315.339 444.381 316.648C446.535 310.477 450.62 305.334 456.464 300.546C458.904 298.547 461.324 296.526 463.745 294.505C476.094 284.195 488.45 273.879 503.439 266.373Z" fill="black"/>
<path d="M346.117 354.415C345.067 353.831 344.324 352.988 343.581 352.058C341.752 349.772 339.396 347.972 337.39 345.848C333.345 341.565 330.013 336.766 326.187 332.329C324.214 330.04 322.899 326.811 322.034 323.941C320.589 319.151 318.361 314.531 317.8 309.484C317.094 303.125 317.001 296.827 317.001 290.433C317.001 283.639 316.869 275.9 319.178 269.405C320.019 267.041 321.428 265.016 322.553 262.795C324.02 259.898 325.202 256.882 326.347 253.849C327.307 251.307 328.335 247.827 330.301 245.861" stroke="#FB0153" stroke-width="6" stroke-linecap="round"/>
<path d="M330.661 245.501C330.661 240.992 331.498 237.75 333.357 233.619C335.832 228.118 337.969 222.439 340.286 216.825C344.06 207.681 346.246 197.17 347.735 187.41C348.488 182.473 349.712 177.407 349.712 172.413C349.712 170.806 350.226 169.762 349.712 168.219" stroke="#FB0153" stroke-width="6" stroke-linecap="round"/>
<path d="M349.711 168.22C349.874 169.845 351.391 172.011 352.228 173.332C353.318 175.054 354.296 176.91 355.283 178.664C358.258 183.953 361.461 189.086 364.449 194.38C368.682 201.878 372.281 209.562 374.314 217.983C376.537 227.195 377.097 235.955 384.578 242.606C386.194 244.042 388.269 244.304 390.349 244.044C393.071 243.703 393.574 240.981 394.643 239.111C397.359 234.358 397.518 227.95 397.518 222.656C397.518 219.78 397.849 216.671 397.079 213.87C396.32 211.108 395.3 208.48 394.303 205.802C392.24 200.257 389.803 194.57 387.014 189.347C382.884 181.611 377.781 174.497 373.615 166.782C370.742 161.462 368.228 156.008 365.527 150.606" stroke="#FB0153" stroke-width="6" stroke-linecap="round"/>
<path d="M365.887 150.606C365.887 147.485 365.394 143.646 364.269 140.722C362.215 135.382 361.196 129.149 360.135 123.568C357.579 110.111 354.787 96.5737 354.364 82.8301C353.986 70.5321 350.636 58.744 348.633 46.7253" stroke="#FB0153" stroke-width="6" stroke-linecap="round"/>
<path d="M348.633 45.6469C348.633 39.813 349.034 34.7134 345.937 29.4717C343.941 26.0943 341.62 22.8181 338.848 20.0461C337.982 19.1804 336.996 18.6571 336.132 17.8894C335.916 17.6975 336.212 18.7159 336.491 18.9677C337.811 20.1554 339.285 21.163 340.725 22.2827C343.335 24.3129 346.896 24.5916 349.531 26.4164C354.761 30.0366 358.541 35.1031 362.931 39.6561C364.757 41.5494 366.563 43.4479 368.423 45.3075C371.79 48.6752 373.602 53.8099 376.291 57.7085C380.172 63.3369 383.516 70.1649 385.936 76.5597C389.209 85.2094 392.95 93.7492 396.799 102.161C400.39 110.008 404.741 117.727 407.762 125.784C408.55 127.885 409.509 130.096 410.478 132.115C411.338 133.906 411.464 135.92 412.435 137.646C414.315 140.989 416.118 144.271 419.045 146.892C419.663 147.445 424.575 151.848 425.555 149.888" stroke="#FB0153" stroke-width="6" stroke-linecap="round"/>
<path d="M425.915 149.528C428.581 149.528 430.85 148.024 432.565 145.914C434.505 143.525 436.771 141.511 438.496 138.924C440.463 135.973 442.067 132.882 443.328 129.559C446.897 120.149 448.4 110.183 451.436 100.643C453.022 95.6572 454.598 90.6362 456.109 85.6259C456.471 84.4233 456.946 80.5941 458.265 80.1543" stroke="#FB0153" stroke-width="6" stroke-linecap="round"/>
<path d="M456.109 84.1081C456.109 82.4573 456.109 80.8065 456.109 79.1557C456.109 76.9804 457.408 74.6866 457.986 72.6057C458.811 69.6333 460.609 66.348 462.139 63.6993C465.416 58.0287 467.418 51.3897 470.307 45.4872C473.438 39.0887 477.57 33.37 481.27 27.315C483.318 23.9632 485.725 20.8619 487.92 17.6098C489.58 15.1498 491.14 12.6398 493.112 10.4208C494.528 8.82759 495.715 7.83748 497.246 6.30708C498.468 5.08471 502.628 2.01962 501.479 3.31166C500.719 4.16706 500.251 5.57336 499.602 6.54671C498.247 8.57919 497.032 10.7482 495.808 12.8571C492.771 18.0872 491.317 23.641 489.897 29.4717C488.496 35.2217 487.85 41.5329 487.74 47.4442C487.645 52.5782 488.453 56.8118 490.077 61.6824C492.075 67.6771 492.909 74.0005 494.949 79.9944C497.231 86.6981 499.602 93.6978 499.602 100.862C499.602 112.949 496.064 124.703 493.312 136.428C491.584 143.786 489.916 151.069 487.061 158.075C486.091 160.456 484.146 163.45 484.146 166.063" stroke="#FB0153" stroke-width="6" stroke-linecap="round"/>
<path d="M484.146 166.422C484.146 169.678 483.798 172.811 482.888 175.948C481.48 180.796 481.248 185.911 480.471 190.865C480.105 193.203 479.358 197.734 480.931 199.831C482.975 202.557 485.169 204.231 488.539 204.963C494.511 206.262 498.362 204.713 502.278 199.851C507.142 193.813 510.248 187.128 514.06 180.441C519.919 170.163 524.689 159.076 532.472 150.047C538.774 142.736 542.537 133.193 549.386 126.344C550.008 125.721 550.585 125.395 551.363 125.006C552.033 124.67 552.13 123.809 552.082 124.726C552.008 126.128 550.599 128.048 549.905 129.219C548.407 131.748 546.719 134.175 545.073 136.608C541.74 141.534 539.178 146.713 536.626 152.044C534.448 156.591 533.702 161.581 532.492 166.422C530.764 173.336 529.383 180.296 528.358 187.35C527.743 191.585 527.639 195.861 527.639 200.131C527.639 201.913 527.331 203.932 527.999 205.602" stroke="#FB0153" stroke-width="6" stroke-linecap="round"/>
<path d="M528.718 206.681C528.718 209.554 530.061 211.826 532.032 213.95C534.435 216.537 535.209 220.406 536.066 223.715C538.258 232.166 538.286 241.227 536.546 249.735C536.253 251.163 535.348 252.694 537.205 250.494C539.834 247.378 542.544 244.315 545.252 241.268C550.627 235.222 555.65 228.474 560.169 221.778C564.687 215.085 568.417 205.363 565.741 197.335" stroke="#FB0153" stroke-width="6" stroke-linecap="round"/>
<path d="M565.741 198.413C565.741 201.604 565.428 204.968 565.921 208.118C567.087 215.586 569.701 223.108 572.231 230.225C575.667 239.889 579.648 249.271 581.477 259.4C582.712 266.24 582.82 273.437 583.074 280.368C583.356 288.019 583.912 295.866 582.635 303.453C581.552 309.886 579.398 315.844 577.443 322.044C575.681 327.634 574.305 333.553 571.492 338.739C567.919 345.328 563.469 351.712 558.013 356.931C552.786 361.93 544.912 364.839 537.704 364.839" stroke="#FB0153" stroke-width="6" stroke-linecap="round"/>
<path fill-rule="evenodd" clip-rule="evenodd" d="M817.557 269.987C813.394 269.556 809.34 269.894 806.026 271.554C791.691 278.732 779.93 288.545 767.584 298.845C765.129 300.892 762.652 302.96 760.126 305.029C752.146 311.569 748.39 318.272 748.39 327.759C748.39 327.937 748.385 328.186 748.35 328.446C748.333 328.571 748.297 328.795 748.212 329.054C748.155 329.225 747.936 329.877 747.291 330.414C746.914 330.728 746.387 331.003 745.737 331.073C745.101 331.141 744.565 330.99 744.188 330.814C743.531 330.507 743.172 330.039 743.072 329.906C742.818 329.571 742.675 329.234 742.628 329.124L742.628 329.123C742.405 328.599 742.167 327.754 741.977 327.076C741.908 326.827 741.839 326.579 741.772 326.334C741.378 324.912 741.013 323.594 740.745 322.99C740.68 322.844 740.613 322.693 740.544 322.54C739.413 320.006 737.857 316.518 737.857 312.895C737.857 311.067 736.935 309.485 735.194 307.488C734.767 306.998 734.317 306.511 733.836 305.993L733.745 305.894C733.3 305.415 732.828 304.907 732.372 304.39C731.403 303.293 730.386 302.028 729.618 300.575C727.964 297.447 725.421 294.561 722.426 291.645C721.057 290.312 719.632 289.009 718.179 287.68C718.049 287.561 717.919 287.442 717.788 287.322C716.215 285.882 714.614 284.409 713.11 282.903C712.309 282.1 711.613 281.497 710.861 280.845C710.334 280.388 709.778 279.907 709.139 279.316C707.81 278.087 706.452 276.648 705.373 274.711C705.36 274.707 705.347 274.703 705.333 274.699C704.972 274.592 704.385 274.52 703.557 274.513C702.756 274.507 701.896 274.562 701.029 274.626C700.914 274.635 700.796 274.644 700.676 274.653C699.972 274.707 699.2 274.766 698.599 274.766C686.468 274.766 677.532 280.49 669.24 289.314C665.684 293.098 662.79 296.354 660.056 300.541C659.544 301.325 659.145 302.497 658.909 304.103C658.677 305.69 658.629 307.516 658.686 309.476C658.741 311.37 658.89 313.296 659.035 315.176L659.05 315.362C659.196 317.254 659.34 319.153 659.34 320.757C659.34 372.273 674.5 422.429 697.041 468.656C703.179 481.243 710.541 492.655 718.242 504.554C718.839 505.477 719.495 506.678 720.144 507.872L720.313 508.184C720.931 509.324 721.572 510.506 722.248 511.653C722.987 512.908 723.724 514.049 724.45 514.968C725.202 515.921 725.803 516.456 726.221 516.695C727.299 517.312 728.349 517.355 729.571 516.919C730.905 516.443 732.397 515.393 733.969 513.851C737.113 510.767 739.844 506.461 741.598 503.664C744.197 499.519 747.418 495.721 750.619 492.12C751.354 491.293 752.085 490.479 752.81 489.673C755.288 486.916 757.681 484.254 759.843 481.486C764.62 475.373 768.648 468.773 772.759 462.038C774.499 459.186 776.254 456.311 778.087 453.437C793.976 428.53 809.758 403.564 821.131 376.513C832.721 348.944 828.872 322.521 824.612 293.286C824.287 291.057 823.96 288.812 823.638 286.549C823.398 284.87 822.468 280.424 821.044 276.386C820.329 274.359 819.543 272.588 818.74 271.349C817.984 270.181 817.552 270 817.557 269.987C817.557 269.987 817.557 269.987 817.557 269.987ZM705.521 274.768C705.521 274.769 705.516 274.766 705.507 274.761C705.517 274.766 705.522 274.768 705.521 274.768ZM803.439 266.373C808.141 264.018 813.467 263.732 818.228 264.233C820.812 264.506 822.548 266.584 823.593 268.198C824.755 269.993 825.72 272.253 826.498 274.457C828.058 278.882 829.074 283.702 829.363 285.73C829.696 288.062 830.036 290.387 830.375 292.705C834.61 321.656 838.703 349.641 826.461 378.761C814.868 406.336 798.817 431.701 782.961 456.556C781.264 459.216 779.584 461.968 777.884 464.753C773.699 471.61 769.392 478.666 764.398 485.056C762.1 487.997 759.527 490.859 757.026 493.641C756.322 494.425 755.623 495.201 754.938 495.972C751.768 499.538 748.822 503.034 746.496 506.744C744.791 509.464 741.723 514.353 738.016 517.989C736.163 519.807 733.968 521.499 731.513 522.375C728.945 523.292 726.104 523.3 723.351 521.724C721.994 520.947 720.849 519.745 719.914 518.561C718.953 517.345 718.063 515.95 717.266 514.595C716.536 513.355 715.847 512.086 715.236 510.959C715.178 510.851 715.12 510.744 715.063 510.639C714.387 509.395 713.841 508.403 713.388 507.704C705.712 495.844 698.159 484.148 691.845 471.198C669.044 424.44 653.557 373.404 653.557 320.757C653.557 319.42 653.434 317.76 653.283 315.808L653.266 315.578C653.123 313.732 652.964 311.681 652.905 309.644C652.844 307.525 652.885 305.322 653.187 303.262C653.486 301.223 654.066 299.132 655.215 297.371C658.237 292.743 661.417 289.187 665.029 285.344C673.92 275.882 684.273 268.974 698.599 268.974C698.959 268.974 699.463 268.936 700.193 268.881C700.321 268.871 700.457 268.861 700.599 268.85C701.476 268.784 702.543 268.713 703.603 268.721C704.636 268.729 705.844 268.812 706.962 269.141C708.058 269.463 709.505 270.156 710.323 271.704C710.992 272.97 711.892 273.977 713.063 275.061C713.423 275.394 713.874 275.788 714.367 276.219C715.27 277.008 716.315 277.92 717.2 278.807C718.6 280.209 720.111 281.602 721.69 283.047C721.822 283.168 721.956 283.29 722.089 283.412C723.53 284.73 725.02 286.093 726.457 287.492C729.586 290.538 732.648 293.928 734.729 297.865C735.177 298.711 735.838 299.572 736.705 300.553C737.112 301.014 737.537 301.473 737.994 301.964L738.073 302.05C738.55 302.564 739.058 303.112 739.551 303.679C741.49 305.904 743.641 308.861 743.641 312.895C743.641 314.102 743.928 315.339 744.381 316.648C746.535 310.477 750.62 305.334 756.464 300.546C758.904 298.547 761.324 296.526 763.745 294.505C776.094 284.195 788.45 273.879 803.439 266.373Z" fill="black"/>
<path d="M639.881 161.481C639.881 166.337 643.121 171.156 643.77 176.023C644.418 180.883 646.76 185.342 647.297 190.178C647.526 192.239 648.142 193.925 648.142 196.072C648.142 198.455 648.142 200.838 648.142 203.222C648.142 209.401 647.942 214.694 645.968 220.614C643.763 227.229 642.885 234.548 639.857 240.856C637.228 246.333 636.01 252.613 632.731 257.765C631.122 260.293 630.64 263.254 629.108 265.978C626.438 270.725 622.585 274.858 620.412 279.746C619.313 282.22 617.707 286.418 617.707 289.094C617.707 290.263 616.837 291.404 616.837 292.573C616.837 294.024 617.107 295.774 616.62 297.138C616.03 298.788 616.402 301.053 616.402 302.79C616.402 308.1 616.127 313.294 615.194 318.54C614.528 322.29 615.691 324.558 616.934 327.912C619.374 334.502 624.442 340.397 629.229 345.183C630.073 346.027 631.077 347.242 632.152 347.671C633.229 348.102 635.437 349.614 636.065 350.618C636.579 351.441 638.247 352.028 639.012 352.792C639.952 353.732 639.874 354.318 641.186 353.662" stroke="#FB0153" stroke-width="6" stroke-linecap="round"/>
<path d="M639.881 160.177C638.562 160.341 642.974 167.569 643.577 168.655C645.395 171.928 648.999 174.512 651.621 177.134C654.888 180.401 658.154 183.6 661.597 186.699C663.874 188.749 667.078 190.85 668.481 193.656C672.373 201.44 674.134 210.709 675.873 219.212C676.685 223.181 677.289 227.237 678.772 231.049C679.438 232.761 680.186 234.446 680.849 236.17C681.418 237.65 682.762 238.474 683.579 239.745C685.725 243.083 693.124 245.28 695.101 240.832C697.774 234.816 698.144 228.409 698.144 221.918C698.144 219.067 698.246 216.283 697.371 213.56C696.113 209.644 694.302 205.697 693.362 201.7C692.833 199.455 691.238 197.416 690.535 195.154C689.792 192.757 689.072 190.461 687.709 188.342C686.789 186.911 686.339 184.575 685.125 183.462C684.405 182.803 683.789 181.467 683.361 180.612" stroke="#FB0153" stroke-width="6" stroke-linecap="round"/>
<path d="M683.361 180.612C683.361 177.652 681.211 174.135 680.221 171.385C678.998 167.988 677.649 164.153 677.25 160.563C676.582 154.55 674.78 148.616 674.254 142.567C673.867 138.105 672.743 132.418 670.752 128.436" stroke="#FB0153" stroke-width="6" stroke-linecap="round"/>
<path d="M670.752 128.436C669.517 128.282 670.317 110.368 670.317 108.435C670.317 99.8148 671.622 91.3709 671.622 82.7823C671.622 77.7304 672.056 72.6926 672.056 67.6127C672.056 63.6904 672.03 59.8756 670.317 56.2596C669.302 54.1172 668.237 51.9311 667.467 49.6893C666.714 47.4985 664.84 45.7865 664.23 43.6504C664.004 42.8578 663.255 41.66 664.447 42.5876C665.926 43.7378 667.318 46.7747 668.24 48.4332C671.096 53.5737 675.978 57.833 679.665 62.3709C681.828 65.033 684.259 67.158 686.646 69.5451C690.161 73.0595 691.408 77.0577 694.134 81.0431C697.259 85.6095 697.903 93.0407 698.917 98.3384C699.988 103.932 699.449 109.9 699.449 115.585C699.449 122.154 699.794 128.314 700.753 134.789C701.496 139.804 702.107 145.321 704.666 149.838C708.085 155.871 710.129 163.595 717.469 166.264C720.181 167.25 722.797 167.881 725.585 168.655C729.62 169.776 733.001 168.591 736.407 166.698C740.86 164.224 744.482 159.493 748.049 155.925C752.691 151.283 756.068 145.719 759.886 140.417C766.425 131.335 771.19 121.549 771.19 110.271C771.19 95.828 764.988 81.5567 757.808 69.2069C756.73 67.3523 755.616 65.5319 754.427 63.7478C753.549 62.4317 753.983 61.2283 753.702 59.738C753.372 57.991 752.077 56.446 751.19 54.9552C749.842 52.6927 748.707 50.3076 747.277 48.095C745.237 44.94 742.984 41.9485 740.561 39.085C738.071 36.1416 735.927 32.6256 732.928 30.1717C731.258 28.8055 729.419 27.5806 727.928 26.0894C727.494 25.6551 728.867 26.9339 729.45 27.1281" stroke="#FB0153" stroke-width="6" stroke-linecap="round"/>
<path d="M729.885 27.1282C731.415 27.2982 732.815 29.3555 734.039 30.1718C736.271 31.6595 738.309 33.5672 740.465 35.1961C744.217 38.031 748.824 39.872 752.711 42.5635C758.626 46.6579 766.856 47.1429 772.06 52.3465C774.616 54.9022 777.524 57.7725 780.321 60.0762C785.694 64.5012 788.957 70.5471 792.471 76.4778C796.166 82.7121 798.099 90.0071 800.104 96.9133C801.487 101.674 801.95 106.628 802.931 111.479C803.592 114.748 803.624 118.342 804.67 121.479" stroke="#FB0153" stroke-width="6" stroke-linecap="round"/>
<path d="M804.67 122.349C804.67 125.718 805.571 130.522 804.453 133.654C803.692 135.785 803.531 138.585 803.027 140.852C802.446 143.469 801.58 146.062 800.853 148.678C796.73 163.522 790.737 177.656 787.375 192.786C786.796 195.391 786.36 200.568 789.645 201.506C792.622 202.357 794.876 203.157 797.278 200.613C798.543 199.274 798.73 197.103 799.694 195.588C800.873 193.735 801.74 192.092 803.148 190.371C805.054 188.042 806.038 184.906 807.931 182.593C810.578 179.358 813.754 176.703 816.192 173.22C823.128 163.312 827.59 151.901 833.801 141.698C835.115 139.54 836.356 137.374 837.715 135.296C838.635 133.888 839.156 131.846 840.323 130.61C842.53 128.273 843.802 123.957 843.802 120.827C843.802 118.594 844.237 122.571 844.237 123.315C844.237 125.695 844.647 128.46 843.898 130.707C842.12 136.043 840.014 140.794 837.497 145.828C833.643 153.536 831.193 161.537 831.193 170.177C831.193 171.922 830.813 174.214 831.531 175.829C831.83 176.502 831.86 177.331 832.159 178.003C832.637 179.079 832.458 178.278 832.932 177.568" stroke="#FB0153" stroke-width="6" stroke-linecap="round"/>
<path d="M832.932 177.134C832.932 184.099 832.932 191.063 832.932 198.028C832.932 208.281 830.577 219.269 834.888 228.851C835.824 230.93 837.198 233.011 838.391 234.962C839.383 236.586 840.739 238.787 842.063 240.18C845.52 243.819 846.845 247.292 846.845 252.306C846.845 256.338 843.887 268.15 844.865 264.238C845.303 262.487 846.788 260.786 847.498 259.093C848.42 256.893 849.672 254.913 850.734 252.789C852.365 249.527 853.515 246.059 855.106 242.788C859.384 233.996 862.933 223.082 862.933 213.222C862.933 210.448 860.803 208.807 859.237 206.893C858.434 205.912 857.742 204.96 856.749 204.188C856.531 204.018 857.869 206.419 858.367 206.917C863.605 212.155 868.63 216.805 872.595 223.319C879.553 234.749 884.21 248.577 885.446 261.919C885.943 267.291 885.977 272.62 885.977 278.007C885.977 281.815 885.101 284.111 883.803 287.573" stroke="#FB0153" stroke-width="6" stroke-linecap="round"/>
<path d="M882.934 289.747C882.934 294.783 878.578 299.328 876.412 303.66C873.187 310.11 870.032 316.315 865.88 322.26C863.004 326.378 859.885 330.49 856.628 334.313C853.897 337.52 850.802 340.5 848.15 343.758C845.582 346.913 842.732 349.514 839.864 352.382C838.182 354.064 837.41 354.88 836.845 357.14" stroke="#FB0153" stroke-width="6" stroke-linecap="round"/>
<path fill-rule="evenodd" clip-rule="evenodd" d="M1117.56 269.987C1113.39 269.556 1109.34 269.894 1106.03 271.554C1091.69 278.732 1079.93 288.545 1067.58 298.845C1065.13 300.892 1062.65 302.96 1060.13 305.029C1052.15 311.569 1048.39 318.272 1048.39 327.759C1048.39 327.937 1048.38 328.186 1048.35 328.446C1048.33 328.571 1048.3 328.795 1048.21 329.054C1048.16 329.225 1047.94 329.877 1047.29 330.414C1046.91 330.728 1046.39 331.003 1045.74 331.073C1045.1 331.141 1044.56 330.99 1044.19 330.814C1043.53 330.507 1043.17 330.039 1043.07 329.906C1042.82 329.571 1042.68 329.234 1042.63 329.124L1042.63 329.123C1042.41 328.599 1042.17 327.754 1041.98 327.076C1041.91 326.827 1041.84 326.579 1041.77 326.334C1041.38 324.912 1041.01 323.594 1040.74 322.99C1040.68 322.844 1040.61 322.693 1040.54 322.54C1039.41 320.006 1037.86 316.518 1037.86 312.895C1037.86 311.067 1036.93 309.485 1035.19 307.488C1034.77 306.998 1034.32 306.511 1033.84 305.993L1033.74 305.894C1033.3 305.415 1032.83 304.907 1032.37 304.39C1031.4 303.293 1030.39 302.028 1029.62 300.575C1027.96 297.447 1025.42 294.561 1022.43 291.645C1021.06 290.312 1019.63 289.009 1018.18 287.68C1018.05 287.561 1017.92 287.442 1017.79 287.322C1016.22 285.882 1014.61 284.409 1013.11 282.903C1012.31 282.1 1011.61 281.497 1010.86 280.845C1010.33 280.388 1009.78 279.907 1009.14 279.316C1007.81 278.087 1006.45 276.648 1005.37 274.711C1005.36 274.707 1005.35 274.703 1005.33 274.699C1004.97 274.592 1004.39 274.52 1003.56 274.513C1002.76 274.507 1001.9 274.562 1001.03 274.626C1000.91 274.635 1000.8 274.644 1000.68 274.653C999.972 274.707 999.2 274.766 998.599 274.766C986.468 274.766 977.532 280.49 969.24 289.314C965.684 293.098 962.79 296.354 960.056 300.541C959.544 301.325 959.145 302.497 958.909 304.103C958.677 305.69 958.629 307.516 958.686 309.476C958.741 311.37 958.89 313.296 959.035 315.176L959.05 315.362C959.196 317.254 959.34 319.153 959.34 320.757C959.34 372.273 974.5 422.429 997.041 468.656C1003.18 481.243 1010.54 492.655 1018.24 504.554C1018.84 505.477 1019.5 506.678 1020.14 507.872L1020.31 508.184C1020.93 509.324 1021.57 510.506 1022.25 511.653C1022.99 512.908 1023.72 514.049 1024.45 514.968C1025.2 515.921 1025.8 516.456 1026.22 516.695C1027.3 517.312 1028.35 517.355 1029.57 516.919C1030.91 516.443 1032.4 515.393 1033.97 513.851C1037.11 510.767 1039.84 506.461 1041.6 503.664C1044.2 499.519 1047.42 495.721 1050.62 492.12C1051.35 491.293 1052.09 490.479 1052.81 489.673C1055.29 486.916 1057.68 484.254 1059.84 481.486C1064.62 475.373 1068.65 468.773 1072.76 462.038C1074.5 459.186 1076.25 456.311 1078.09 453.437C1093.98 428.53 1109.76 403.564 1121.13 376.513C1132.72 348.944 1128.87 322.521 1124.61 293.286C1124.29 291.057 1123.96 288.812 1123.64 286.549C1123.4 284.87 1122.47 280.424 1121.04 276.386C1120.33 274.359 1119.54 272.588 1118.74 271.349C1117.98 270.181 1117.55 270 1117.56 269.987C1117.56 269.987 1117.56 269.987 1117.56 269.987ZM1005.52 274.768C1005.52 274.769 1005.52 274.766 1005.51 274.761C1005.52 274.766 1005.52 274.768 1005.52 274.768ZM1103.44 266.373C1108.14 264.018 1113.47 263.732 1118.23 264.233C1120.81 264.506 1122.55 266.584 1123.59 268.198C1124.76 269.993 1125.72 272.253 1126.5 274.457C1128.06 278.882 1129.07 283.702 1129.36 285.73C1129.7 288.062 1130.04 290.387 1130.37 292.705C1134.61 321.656 1138.7 349.641 1126.46 378.761C1114.87 406.336 1098.82 431.701 1082.96 456.556C1081.26 459.216 1079.58 461.968 1077.88 464.753C1073.7 471.61 1069.39 478.666 1064.4 485.056C1062.1 487.997 1059.53 490.859 1057.03 493.641C1056.32 494.425 1055.62 495.201 1054.94 495.972C1051.77 499.538 1048.82 503.034 1046.5 506.744C1044.79 509.464 1041.72 514.353 1038.02 517.989C1036.16 519.807 1033.97 521.499 1031.51 522.375C1028.94 523.292 1026.1 523.3 1023.35 521.724C1021.99 520.947 1020.85 519.745 1019.91 518.561C1018.95 517.345 1018.06 515.95 1017.27 514.595C1016.54 513.355 1015.85 512.086 1015.24 510.959C1015.18 510.851 1015.12 510.744 1015.06 510.639C1014.39 509.395 1013.84 508.403 1013.39 507.704C1005.71 495.844 998.159 484.148 991.845 471.198C969.044 424.44 953.557 373.404 953.557 320.757C953.557 319.42 953.434 317.76 953.283 315.808L953.266 315.578C953.123 313.732 952.964 311.681 952.905 309.644C952.844 307.525 952.885 305.322 953.187 303.262C953.486 301.223 954.066 299.132 955.215 297.371C958.237 292.743 961.417 289.187 965.029 285.344C973.92 275.882 984.273 268.974 998.599 268.974C998.959 268.974 999.463 268.936 1000.19 268.881C1000.32 268.871 1000.46 268.861 1000.6 268.85C1001.48 268.784 1002.54 268.713 1003.6 268.721C1004.64 268.729 1005.84 268.812 1006.96 269.141C1008.06 269.463 1009.5 270.156 1010.32 271.704C1010.99 272.97 1011.89 273.977 1013.06 275.061C1013.42 275.394 1013.87 275.788 1014.37 276.219C1015.27 277.008 1016.31 277.92 1017.2 278.807C1018.6 280.209 1020.11 281.602 1021.69 283.047C1021.82 283.168 1021.96 283.29 1022.09 283.412C1023.53 284.73 1025.02 286.093 1026.46 287.492C1029.59 290.538 1032.65 293.928 1034.73 297.865C1035.18 298.711 1035.84 299.572 1036.7 300.553C1037.11 301.014 1037.54 301.473 1037.99 301.964L1038.07 302.05C1038.55 302.564 1039.06 303.112 1039.55 303.679C1041.49 305.904 1043.64 308.861 1043.64 312.895C1043.64 314.102 1043.93 315.339 1044.38 316.648C1046.54 310.477 1050.62 305.334 1056.46 300.546C1058.9 298.547 1061.32 296.526 1063.74 294.505C1076.09 284.195 1088.45 273.879 1103.44 266.373Z" fill="black"/>
<path d="M939.881 175.271C939.881 180.127 943.121 184.945 943.77 189.812C944.418 194.673 946.76 199.132 947.297 203.967C947.526 206.028 948.142 207.714 948.142 209.861C948.142 212.244 948.142 214.628 948.142 217.011C948.142 223.191 947.942 228.484 945.968 234.403C943.763 241.018 942.885 248.337 939.857 254.645C937.228 260.123 936.01 266.402 932.731 271.554C931.122 274.083 930.64 277.043 929.108 279.767C926.438 284.514 922.585 288.647 920.412 293.536C919.313 296.009 917.707 300.208 917.707 302.884C917.707 304.052 916.837 305.194 916.837 306.362C916.837 307.814 917.107 309.564 916.62 310.928C916.03 312.578 916.402 314.843 916.402 316.58C916.402 321.89 916.127 327.084 915.194 332.329C914.528 336.079 915.691 338.348 916.934 341.702C919.374 348.292 924.442 354.187 929.229 358.973C930.073 359.817 931.077 361.031 932.152 361.461C933.229 361.892 935.437 363.403 936.065 364.408C936.579 365.23 938.247 365.817 939.012 366.582C939.952 367.522 939.874 368.107 941.186 367.451" stroke="#FB0153" stroke-width="6" stroke-linecap="round"/>
<path d="M939.881 173.966C938.562 174.131 942.974 181.358 943.577 182.445C945.395 185.717 948.999 188.302 951.621 190.923C954.888 194.19 958.154 197.39 961.597 200.489C963.874 202.538 967.078 204.64 968.481 207.446C972.373 215.229 974.134 224.499 975.873 233.002C976.685 236.971 977.289 241.027 978.772 244.838C979.438 246.551 980.186 248.235 980.849 249.959C981.418 251.439 982.762 252.263 983.579 253.534C985.725 256.873 993.124 259.069 995.101 254.621C997.774 248.606 998.144 242.199 998.144 235.707C998.144 232.856 998.246 230.072 997.371 227.35C996.113 223.433 994.302 219.486 993.362 215.489C992.833 213.245 991.702 193.186 991 190.923" stroke="#FB0153" stroke-width="6" stroke-linecap="round"/>
<path d="M990.85 189.492C989.698 185.396 987.882 181.528 986.96 177.377C985.803 172.172 985.987 166.596 985.55 161.292C983.732 139.283 984.782 117.351 981.215 95.4396C979.146 82.7318 976.94 69.0823 971.11 57.4217C969.532 54.2664 966.724 51.9437 963.93 49.9017C961.997 48.4895 963.638 49.0354 964.765 49.5361C971.96 52.7339 974.556 60.957 979.57 66.5606C985.242 72.8997 990.58 82.1642 992.13 90.5307C994.248 101.968 998.082 113.053 1000.22 124.475C1002.52 136.711 1002.55 149.022 1004.92 161.24C1006.54 169.538 1009.76 177.258 1012.6 185.158C1013.24 186.921 1015.06 187.77 1016.49 189.022C1018.47 190.755 1020.97 192.782 1023.75 192.782C1028.74 192.782 1032.69 192.502 1037.38 190.667C1043.16 188.405 1046.45 184.503 1049.94 179.622C1056.48 170.468 1058.68 160.24 1061.12 149.438C1062.7 142.441 1063.98 135.156 1064.77 128.026C1064.96 126.361 1063.91 118.771 1065.35 118.052" stroke="#FB0153" stroke-width="6" stroke-linecap="round"/>
<path d="M1063.47 123.222C1063.47 119.647 1063.36 116.653 1064.98 113.352C1067.53 108.148 1069.37 102.518 1072.4 97.5546C1075.32 92.7466 1077.66 87.7259 1081.22 83.2718C1086.07 77.2151 1092.49 72.0691 1098.95 67.7618C1100.41 66.7875 1113.39 58.3463 1112.24 57.0562C1111.3 55.9934 1109.25 59.0184 1108.85 59.5368C1106.78 62.1941 1104.85 65.2641 1102.95 68.1273C1101.13 70.8551 1098.75 74.2366 1097.78 77.3968C1095.57 84.5665 1094.02 91.7086 1094.02 99.2519C1094.02 110.895 1098.25 121.847 1098.25 133.562C1098.25 143.39 1097.17 152.298 1094.46 161.788C1091.25 173.024 1087.13 183.951 1083.78 195.132C1082.76 198.532 1081.22 202.094 1080.88 205.655C1080.72 207.387 1079.92 209.147 1079.92 210.851C1079.92 213.786 1082.97 213.356 1085.45 213.828C1091.96 215.069 1096.38 210.899 1101.04 207.117C1105.04 203.865 1107.06 199.915 1110.1 195.863C1114.09 190.537 1118.05 185.288 1120.78 179.152C1124.69 170.348 1128.33 160.266 1128.33 150.508C1128.33 145.08 1127.86 139.599 1127.86 134.267C1127.86 131.421 1125.48 126.317 1123.86 123.979C1121.85 121.082 1123.02 123.907 1124.1 125.468C1125.09 126.911 1127.58 129.901 1129.06 130.742C1131.89 132.361 1134.25 137.828 1135.38 140.716C1137.49 146.125 1137.45 152.529 1138.43 158.211C1139.65 165.298 1140.11 174.324 1138.67 181.398C1137.23 188.416 1135.67 195.293 1133.73 202.182C1133.16 204.219 1132.63 206.28 1132.56 208.397C1132.49 210.077 1131.46 209.778 1132.56 209.232" stroke="#FB0153" stroke-width="6" stroke-linecap="round"/>
<path d="M1132.05 206.79C1132.05 211.713 1132.05 216.637 1132.05 221.561C1132.05 227.856 1131.71 234.121 1132.84 240.142C1133.72 244.775 1134.83 250.366 1137.1 253.399C1139.56 256.683 1142.4 259.124 1145.55 258.932C1148.7 258.74 1150.18 249.006 1151.19 245.309C1152.39 240.96 1153.19 236.112 1153.99 231.478C1154.71 227.225 1156.18 223.637 1157.31 219.734C1158.46 215.758 1159.5 213.562 1161.3 210.548C1162.42 208.661 1162.97 208.669 1164.49 208.669C1165.19 208.669 1165.51 208.199 1164.62 208.199C1163.87 208.199 1163.68 209.085 1163.37 210.078C1162.16 213.916 1160.82 217.591 1160.77 222.291C1160.73 225.455 1160.36 229.691 1160.94 232.678C1162.07 238.492 1164.38 243.865 1166.05 249.224C1169.94 261.668 1173.09 275.038 1173 289.466C1172.93 300.175 1167.27 309.158 1163.75 317.077C1162.12 320.736 1160.18 323.863 1158.54 327.463C1157.3 330.166 1155.77 332.898 1154.12 334.823C1151.04 338.413 1148.1 338.79 1144.55 338.79" stroke="#FB0153" stroke-width="6" stroke-linecap="round"/>
</svg>
