<svg width="3322" height="264" viewBox="0 0 3322 264" fill="none" xmlns="http://www.w3.org/2000/svg">
<path d="M146.46 51.4585C146.46 41.0372 148.212 37.6207 154.657 29.3585C162.458 19.3576 172.061 6.75573 186.19 6.23073C189.275 6.1161 193.206 5.09444 194.386 8.51495C197.247 16.8058 202.413 24.4962 203.835 33.4131C205.559 44.2252 204.86 55.3698 204.86 66.306C204.86 82.0157 199.185 95.906 196.435 111.077C195.097 118.465 190.618 125.331 188.694 132.663C186.717 140.201 183.386 148.924 179.701 155.791C177.203 160.445 173.212 164.758 172.074 170.181C171.224 174.232 168.995 180.369 166.951 183.83C165.392 186.469 164.052 188.28 163.877 191.253C163.703 194.237 159.343 187.366 158.755 186.628C153.338 179.835 142.529 175.853 135.418 171.266C125.21 164.682 115.087 153.321 107.584 143.913C96.3947 129.88 88.3851 114.273 80.8888 97.9425C72.3551 79.3514 60.7898 48.5525 77.5875 31.6999C84.1791 25.0868 96.1379 26.7888 104.966 26.7888C112.588 26.7888 118.657 29.7322 123.92 35.012C125.441 36.5376 127.576 37.1949 129.27 38.8952C130.981 40.6109 132.57 43.0876 134.621 44.2631C136.709 45.4603 144.411 57.066 144.411 52.4864" stroke="black" stroke-width="3" stroke-linecap="round"/>
<path d="M419.306 38.1115C423.663 33.7525 429.015 27.3089 435.04 25.0764C438.521 23.7865 444.909 20.8604 447.578 18.19C454.767 10.9974 466.001 11.5495 475.727 11.5495C481.096 11.5495 484.503 13.9048 489.248 15.7305C491.587 16.6307 496.582 21.7123 496.746 24.8305C497.326 35.8421 502.623 50.3463 498.344 61.3533C496.69 65.6076 496.964 69.7519 494.78 73.7735C492.404 78.1464 491.255 83.2847 489.002 87.7923C483.476 98.8495 476.243 108.956 470.748 119.95C467.876 125.697 463.043 130.227 459.747 135.752C455.971 142.082 451.225 147.412 446.595 153.091C438.817 162.628 432.307 173.165 423.731 181.989C415.852 190.097 408.04 198.066 399.147 204.985C398.578 205.428 394.505 195.955 393.861 195.024C390.075 189.553 385.825 184.428 382.307 178.669C375.594 167.679 367.646 155.475 363.439 143.314C361.228 136.925 357.748 130.95 355.695 124.377C354.59 120.842 354.18 116.991 353.175 113.371C352.244 110.017 350.716 106.935 350.716 103.41C350.716 96.338 348.379 89.7738 347.459 82.8734C346.561 76.1344 347.397 68.7002 347.397 61.9066C347.397 54.7073 346.205 46.2635 347.951 39.2797C349.493 33.1091 353.727 28.4288 355.387 22.617C357.152 16.4382 360.552 13.1668 363.746 8.2292C365.351 5.74672 373.333 4.89645 376.161 3.55625C383.964 -0.141342 393.269 3.20991 398.84 8.78257C401.63 11.574 403.912 12.708 404.986 16.4683C405.779 19.2474 409.457 23.346 412.054 24.8305C413.87 25.8689 415.987 30.0828 415.987 32.0244C415.987 35.8468 419.266 39.0994 420.412 42.5385" stroke="black" stroke-width="3" stroke-linecap="round"/>
<path d="M135.54 177C135.54 186.761 134.931 196.68 136.48 206.269C138.419 218.274 136.098 230.553 129.497 240.726C126.864 244.783 124 253.561 119.29 254.894C117.748 255.331 115.276 260.761 116.202 260.814C120.808 261.083 142.724 263.342 144 260.814" stroke="black" stroke-width="3" stroke-linecap="round"/>
<path d="M177 161C177 186.405 181.663 212.239 192.323 235.406C193.349 237.637 198.701 254.759 200.29 253.974C203.007 252.632 205.263 246.777 207.645 244.555C209.795 242.549 215 240.009 215 237.29" stroke="black" stroke-width="3" stroke-linecap="round"/>
<path d="M433.46 171C433.46 178.249 429.503 185.051 429.118 192.212C428.853 197.13 429.118 202.138 429.118 207.061C429.118 212.733 434.409 218.821 436.516 223.873C437.202 225.519 439.092 226.641 439.973 228.273C441.386 230.888 443.273 233.261 445.039 235.658C446.891 238.17 449.707 241 453 241" stroke="black" stroke-width="3" stroke-linecap="round"/>
<path d="M452 242C451.759 244.336 448.626 246.446 447.273 248.294C445.917 250.146 443.382 254.088 441.455 255.331C439.157 256.813 438.658 260.143 436 261" stroke="black" stroke-width="3" stroke-linecap="round"/>
<path d="M387.163 188C387.163 198.919 387.163 209.838 387.163 220.756C387.163 229.366 388.594 237.696 388.594 246.221C388.594 248.924 390.272 261 386.806 261C384.493 261 381.534 260.155 379.257 259.596C376.287 258.867 372.543 258.453 370 256.788" stroke="black" stroke-width="3" stroke-linecap="round"/>
<path d="M399.644 96.1021C400.882 95.9652 398.598 93 397.256 93C395.282 93 393.809 93.5754 393.203 95.3188C392.29 97.9466 392 100.236 392 103.011C392 104.083 392.849 103.998 393.77 103.998C395.258 103.998 396.613 103.803 397.096 102.306C397.399 101.367 400.868 97.3104 399.574 96.1648C398.048 94.8137 395.573 98.1684 395.026 98.9222C394.523 99.6152 393.947 100.847 393.911 101.68C393.887 102.24 393.866 103.825 394.3 102.526C395.112 100.101 396.179 97.6029 397.733 95.5381" stroke="black" stroke-width="3" stroke-linecap="round"/>
<path d="M417.224 103.39C415.253 102.876 423.955 89.4415 423.955 97.65C423.955 101.684 424.457 105.815 422.119 109.2C421.355 110.306 419.875 111.917 418.448 111.999C417.691 112.043 416 109.745 416 108.97C416 107.216 416.02 105.935 416.782 104.346C417.839 102.142 419.192 100.109 420.13 97.8272C420.706 96.4259 422.119 94.0549 422.119 96.8883C422.119 100.189 422.289 103.275 421.371 106.419C421.322 106.588 419.55 111.512 419.076 109.289C418.794 107.963 418.448 107.222 418.448 105.781C418.448 104.689 419.671 102.697 419.671 104.825C419.671 105.575 419.671 107.075 419.671 107.075C419.671 107.075 419.671 105.894 419.671 105.303" stroke="black" stroke-width="3" stroke-linecap="round"/>
<path d="M383 114C383 118.547 384.224 123.199 387.166 126.871C390.937 131.579 397.754 133.457 403.597 134.623C409.76 135.854 415.72 133.986 420.395 130.231C421.68 129.198 422.51 128.177 423.22 126.758C423.604 125.991 423.578 125.003 424 124.215" stroke="black" stroke-width="3" stroke-linecap="round"/>
<path d="M160 103.166C160 101.565 160 99.9632 160 98.3618C160 96.4099 160.817 95.3388 161.772 93.7267C162.203 92.9994 164.163 92.8162 164.907 93.1854C166.474 93.9632 167.599 97.6263 168.298 99.0723C169.444 101.443 172.035 111.722 167.054 111.996C165.366 112.089 164.706 110.371 164.157 109.053C163.477 107.418 162.164 106.091 161.687 104.384C161.441 103.505 161.533 102.549 161.533 101.644C161.533 100.956 162.165 98.0234 163.237 98.0234C163.588 98.0234 163.89 98.6434 163.987 98.9031C164.627 100.624 164.951 102.575 165.333 104.35C165.381 104.575 166.482 108.424 166.202 109.121C165.84 110.02 165.472 107.324 165.094 106.431C164.697 105.49 164.39 104.528 164.311 103.504C164.203 102.116 164.075 97.4021 165.35 101.018C165.949 102.717 166.408 104.957 166.679 106.752C166.704 106.916 166.883 109.45 166.202 108.342C164.989 106.373 164.96 102.965 164.907 100.662C164.89 99.9118 165.1 98.8889 164.89 98.1588C164.766 97.7269 164.294 97.418 164.294 96.9239C164.294 96.1825 162.147 94.5345 162.147 96.0104C162.147 96.6681 162.802 97.2636 162.999 97.9219C163.197 98.5866 163.067 99.4274 163.067 100.121" stroke="black" stroke-width="3" stroke-linecap="round"/>
<path d="M141.951 113.953C141.951 110.892 142.265 107.735 141.304 104.777C141.11 104.181 140.854 103.595 140.605 103.018C140.331 102.384 139.717 101.86 139.311 101.303C138.819 100.628 137.951 100 137.051 100C135.59 100 134.881 100.744 134.421 102.006C134.11 102.862 134 103.722 134 104.622C134 106.119 133.983 107.573 134.298 109.05C134.704 110.949 136.023 115 138.664 115C139.488 115 140.158 114.13 140.359 113.43C140.79 111.925 140.711 110.349 140.2 108.861C139.79 107.672 139.125 106.563 138.458 105.494C138.167 105.027 137.363 105.19 137.051 105.484C136.227 106.262 136.493 107.745 136.661 108.711C136.751 109.229 136.971 109.813 137.467 110.073C138.473 110.6 138.833 107.443 138.88 106.996C138.927 106.548 139.042 105.781 138.88 105.339C138.78 105.068 138.452 104.997 138.345 104.797" stroke="black" stroke-width="3" stroke-linecap="round"/>
<path d="M138.007 103C138.007 104.135 138.007 105.271 138.007 106.406C138.007 107.267 137.93 108.23 138.294 109.029C138.516 109.516 138.544 110.086 138.646 110.605C138.719 110.978 138.911 111.347 138.911 111.73C138.911 112.122 139.111 112.6 138.911 113" stroke="black" stroke-width="3" stroke-linecap="round"/>
<path d="M165.99 131C165.99 131.94 166.013 132.884 165.99 133.824C165.964 134.872 165.33 135.822 164.712 136.62C163.256 138.501 160.873 139.96 158.438 139.999C157.564 140.013 156.912 139.822 156.15 139.391C155.548 139.051 155.036 138.561 154.533 138.095C153.943 137.549 153.322 137.042 152.75 136.476C152.047 135.78 151.665 135.158 151.368 134.22C151.256 133.868 151.161 133.478 151 133.16" stroke="black" stroke-width="3" stroke-linecap="round"/>
<path d="M194 112.551C194.121 113.044 200.452 114.911 201.254 115.244C205.333 116.935 209.311 119.176 213.732 119.676C220.368 120.427 225.442 120.116 231.143 116.097C240.632 109.407 245.489 97.3976 251.197 87.6312C253.276 84.0759 255.551 79.8566 256.808 75.9099C257.503 73.7265 259 72.35 259 70" stroke="black" stroke-width="3" stroke-linecap="round"/>
<path d="M354 124.7C344.648 124.7 334.437 125.905 325.342 123.487C315.104 120.764 305.734 115.81 296.813 110.078C288.32 104.62 281.323 97.5311 274.974 89.6211C272.327 86.3242 269.397 83.1122 268.316 78.7042C267.718 76.2685 266 73.4379 266 71" stroke="black" stroke-width="3" stroke-linecap="round"/>
<path d="M93 128.33C77.4224 128.33 61.5068 134.211 46.2131 128.516C42.413 127.101 39.1518 124.496 36.3318 121.534C30.2441 115.139 22.9325 109.108 17.7182 101.982C12.0039 94.1732 7.96372 84.647 4.48182 75.6344C3.44713 72.9561 2 70.8759 2 68" stroke="black" stroke-width="3" stroke-linecap="round"/>
<path d="M468 124.85C485.697 124.85 503.308 126.958 518.203 115.366C529.666 106.444 537.92 95.8225 545.151 83.3889C549.21 76.4107 555 67.197 555 59" stroke="black" stroke-width="3" stroke-linecap="round"/>
<path d="M2911.46 51.4585C2911.46 41.0372 2913.21 37.6207 2919.66 29.3585C2927.46 19.3576 2937.06 6.75573 2951.19 6.23073C2954.27 6.1161 2958.21 5.09444 2959.39 8.51495C2962.25 16.8058 2967.41 24.4962 2968.83 33.4131C2970.56 44.2252 2969.86 55.3698 2969.86 66.306C2969.86 82.0157 2964.18 95.906 2961.44 111.077C2960.1 118.465 2955.62 125.331 2953.69 132.663C2951.72 140.201 2948.39 148.924 2944.7 155.791C2942.2 160.445 2938.21 164.758 2937.07 170.181C2936.22 174.232 2934 180.369 2931.95 183.83C2930.39 186.469 2929.05 188.28 2928.88 191.253C2928.7 194.237 2924.34 187.366 2923.75 186.628C2918.34 179.835 2907.53 175.853 2900.42 171.266C2890.21 164.682 2880.09 153.321 2872.58 143.913C2861.39 129.88 2853.39 114.273 2845.89 97.9425C2837.36 79.3514 2825.79 48.5525 2842.59 31.6999C2849.18 25.0868 2861.14 26.7888 2869.97 26.7888C2877.59 26.7888 2883.66 29.7322 2888.92 35.012C2890.44 36.5376 2892.58 37.1949 2894.27 38.8952C2895.98 40.6109 2897.57 43.0876 2899.62 44.2631C2901.71 45.4603 2909.41 57.066 2909.41 52.4864" stroke="black" stroke-width="3" stroke-linecap="round"/>
<path d="M3184.31 38.1115C3188.66 33.7525 3194.01 27.3089 3200.04 25.0764C3203.52 23.7865 3209.91 20.8604 3212.58 18.19C3219.77 10.9974 3231 11.5495 3240.73 11.5495C3246.1 11.5495 3249.5 13.9048 3254.25 15.7305C3256.59 16.6307 3261.58 21.7123 3261.75 24.8305C3262.33 35.8421 3267.62 50.3463 3263.34 61.3533C3261.69 65.6076 3261.96 69.7519 3259.78 73.7735C3257.4 78.1464 3256.26 83.2847 3254 87.7923C3248.48 98.8495 3241.24 108.956 3235.75 119.95C3232.88 125.697 3228.04 130.227 3224.75 135.752C3220.97 142.082 3216.22 147.412 3211.59 153.091C3203.82 162.628 3197.31 173.165 3188.73 181.989C3180.85 190.097 3173.04 198.066 3164.15 204.985C3163.58 205.428 3159.51 195.955 3158.86 195.024C3155.08 189.553 3150.82 184.428 3147.31 178.669C3140.59 167.679 3132.65 155.475 3128.44 143.314C3126.23 136.925 3122.75 130.95 3120.69 124.377C3119.59 120.842 3119.18 116.991 3118.17 113.371C3117.24 110.017 3115.72 106.935 3115.72 103.41C3115.72 96.338 3113.38 89.7738 3112.46 82.8734C3111.56 76.1344 3112.4 68.7002 3112.4 61.9066C3112.4 54.7073 3111.21 46.2635 3112.95 39.2797C3114.49 33.1091 3118.73 28.4288 3120.39 22.617C3122.15 16.4382 3125.55 13.1668 3128.75 8.2292C3130.35 5.74672 3138.33 4.89645 3141.16 3.55625C3148.96 -0.141342 3158.27 3.20991 3163.84 8.78257C3166.63 11.574 3168.91 12.708 3169.99 16.4683C3170.78 19.2474 3174.46 23.346 3177.05 24.8305C3178.87 25.8689 3180.99 30.0828 3180.99 32.0244C3180.99 35.8468 3184.27 39.0994 3185.41 42.5385" stroke="black" stroke-width="3" stroke-linecap="round"/>
<path d="M2900.54 177C2900.54 186.761 2899.93 196.68 2901.48 206.269C2903.42 218.274 2901.1 230.553 2894.5 240.726C2891.86 244.783 2889 253.561 2884.29 254.894C2882.75 255.331 2880.28 260.761 2881.2 260.814C2885.81 261.083 2907.72 263.342 2909 260.814" stroke="black" stroke-width="3" stroke-linecap="round"/>
<path d="M2942 161C2942 186.405 2946.66 212.239 2957.32 235.406C2958.35 237.637 2963.7 254.759 2965.29 253.974C2968.01 252.632 2970.26 246.777 2972.65 244.555C2974.8 242.549 2980 240.009 2980 237.29" stroke="black" stroke-width="3" stroke-linecap="round"/>
<path d="M3198.46 171C3198.46 178.249 3194.5 185.051 3194.12 192.212C3193.85 197.13 3194.12 202.138 3194.12 207.061C3194.12 212.733 3199.41 218.821 3201.52 223.873C3202.2 225.519 3204.09 226.641 3204.97 228.273C3206.39 230.888 3208.27 233.261 3210.04 235.658C3211.89 238.17 3214.71 241 3218 241" stroke="black" stroke-width="3" stroke-linecap="round"/>
<path d="M3217 242C3216.76 244.336 3213.63 246.446 3212.27 248.294C3210.92 250.146 3208.38 254.088 3206.45 255.331C3204.16 256.813 3203.66 260.143 3201 261" stroke="black" stroke-width="3" stroke-linecap="round"/>
<path d="M3152.16 188C3152.16 198.919 3152.16 209.838 3152.16 220.756C3152.16 229.366 3153.59 237.696 3153.59 246.221C3153.59 248.924 3155.27 261 3151.81 261C3149.49 261 3146.53 260.155 3144.26 259.596C3141.29 258.867 3137.54 258.453 3135 256.788" stroke="black" stroke-width="3" stroke-linecap="round"/>
<path d="M3164.64 96.1021C3165.88 95.9652 3163.6 93 3162.26 93C3160.28 93 3158.81 93.5754 3158.2 95.3188C3157.29 97.9466 3157 100.236 3157 103.011C3157 104.083 3157.85 103.998 3158.77 103.998C3160.26 103.998 3161.61 103.803 3162.1 102.306C3162.4 101.367 3165.87 97.3104 3164.57 96.1648C3163.05 94.8137 3160.57 98.1684 3160.03 98.9222C3159.52 99.6152 3158.95 100.847 3158.91 101.68C3158.89 102.24 3158.87 103.825 3159.3 102.526C3160.11 100.101 3161.18 97.6029 3162.73 95.5381" stroke="black" stroke-width="3" stroke-linecap="round"/>
<path d="M3182.22 103.39C3180.25 102.876 3188.95 89.4415 3188.95 97.65C3188.95 101.684 3189.46 105.815 3187.12 109.2C3186.36 110.306 3184.88 111.917 3183.45 111.999C3182.69 112.043 3181 109.745 3181 108.97C3181 107.216 3181.02 105.935 3181.78 104.346C3182.84 102.142 3184.19 100.109 3185.13 97.8272C3185.71 96.4259 3187.12 94.0549 3187.12 96.8883C3187.12 100.189 3187.29 103.275 3186.37 106.419C3186.32 106.588 3184.55 111.512 3184.08 109.289C3183.79 107.963 3183.45 107.222 3183.45 105.781C3183.45 104.689 3184.67 102.697 3184.67 104.825C3184.67 105.575 3184.67 107.075 3184.67 107.075C3184.67 107.075 3184.67 105.894 3184.67 105.303" stroke="black" stroke-width="3" stroke-linecap="round"/>
<path d="M3148 114C3148 118.547 3149.22 123.199 3152.17 126.871C3155.94 131.579 3162.75 133.457 3168.6 134.623C3174.76 135.854 3180.72 133.986 3185.39 130.231C3186.68 129.198 3187.51 128.177 3188.22 126.758C3188.6 125.991 3188.58 125.003 3189 124.215" stroke="black" stroke-width="3" stroke-linecap="round"/>
<path d="M2925 103.166C2925 101.565 2925 99.9632 2925 98.3618C2925 96.4099 2925.82 95.3388 2926.77 93.7267C2927.2 92.9994 2929.16 92.8162 2929.91 93.1854C2931.47 93.9632 2932.6 97.6263 2933.3 99.0723C2934.44 101.443 2937.04 111.722 2932.05 111.996C2930.37 112.089 2929.71 110.371 2929.16 109.053C2928.48 107.418 2927.16 106.091 2926.69 104.384C2926.44 103.505 2926.53 102.549 2926.53 101.644C2926.53 100.956 2927.17 98.0234 2928.24 98.0234C2928.59 98.0234 2928.89 98.6434 2928.99 98.9031C2929.63 100.624 2929.95 102.575 2930.33 104.35C2930.38 104.575 2931.48 108.424 2931.2 109.121C2930.84 110.02 2930.47 107.324 2930.09 106.431C2929.7 105.49 2929.39 104.528 2929.31 103.504C2929.2 102.116 2929.08 97.4021 2930.35 101.018C2930.95 102.717 2931.41 104.957 2931.68 106.752C2931.7 106.916 2931.88 109.45 2931.2 108.342C2929.99 106.373 2929.96 102.965 2929.91 100.662C2929.89 99.9118 2930.1 98.8889 2929.89 98.1588C2929.77 97.7269 2929.29 97.418 2929.29 96.9239C2929.29 96.1825 2927.15 94.5345 2927.15 96.0104C2927.15 96.6681 2927.8 97.2636 2928 97.9219C2928.2 98.5866 2928.07 99.4274 2928.07 100.121" stroke="black" stroke-width="3" stroke-linecap="round"/>
<path d="M2906.95 113.953C2906.95 110.892 2907.26 107.735 2906.3 104.777C2906.11 104.181 2905.85 103.595 2905.61 103.018C2905.33 102.384 2904.72 101.86 2904.31 101.303C2903.82 100.628 2902.95 100 2902.05 100C2900.59 100 2899.88 100.744 2899.42 102.006C2899.11 102.862 2899 103.722 2899 104.622C2899 106.119 2898.98 107.573 2899.3 109.05C2899.7 110.949 2901.02 115 2903.66 115C2904.49 115 2905.16 114.13 2905.36 113.43C2905.79 111.925 2905.71 110.349 2905.2 108.861C2904.79 107.672 2904.13 106.563 2903.46 105.494C2903.17 105.027 2902.36 105.19 2902.05 105.484C2901.23 106.262 2901.49 107.745 2901.66 108.711C2901.75 109.229 2901.97 109.813 2902.47 110.073C2903.47 110.6 2903.83 107.443 2903.88 106.996C2903.93 106.548 2904.04 105.781 2903.88 105.339C2903.78 105.068 2903.45 104.997 2903.35 104.797" stroke="black" stroke-width="3" stroke-linecap="round"/>
<path d="M2903.01 103C2903.01 104.135 2903.01 105.271 2903.01 106.406C2903.01 107.267 2902.93 108.23 2903.29 109.029C2903.52 109.516 2903.54 110.086 2903.65 110.605C2903.72 110.978 2903.91 111.347 2903.91 111.73C2903.91 112.122 2904.11 112.6 2903.91 113" stroke="black" stroke-width="3" stroke-linecap="round"/>
<path d="M2930.99 131C2930.99 131.94 2931.01 132.884 2930.99 133.824C2930.96 134.872 2930.33 135.822 2929.71 136.62C2928.26 138.501 2925.87 139.96 2923.44 139.999C2922.56 140.013 2921.91 139.822 2921.15 139.391C2920.55 139.051 2920.04 138.561 2919.53 138.095C2918.94 137.549 2918.32 137.042 2917.75 136.476C2917.05 135.78 2916.67 135.158 2916.37 134.22C2916.26 133.868 2916.16 133.478 2916 133.16" stroke="black" stroke-width="3" stroke-linecap="round"/>
<path d="M2959 112.551C2959.12 113.044 2965.45 114.911 2966.25 115.244C2970.33 116.935 2974.31 119.176 2978.73 119.676C2985.37 120.427 2990.44 120.116 2996.14 116.097C3005.63 109.407 3010.49 97.3976 3016.2 87.6312C3018.28 84.0759 3020.55 79.8566 3021.81 75.9099C3022.5 73.7265 3024 72.35 3024 70" stroke="black" stroke-width="3" stroke-linecap="round"/>
<path d="M3119 124.7C3109.65 124.7 3099.44 125.905 3090.34 123.487C3080.1 120.764 3070.73 115.81 3061.81 110.078C3053.32 104.62 3046.32 97.5311 3039.97 89.6211C3037.33 86.3242 3034.4 83.1122 3033.32 78.7042C3032.72 76.2685 3031 73.4379 3031 71" stroke="black" stroke-width="3" stroke-linecap="round"/>
<path d="M2858 128.33C2842.42 128.33 2826.51 134.211 2811.21 128.516C2807.41 127.101 2804.15 124.496 2801.33 121.534C2795.24 115.139 2787.93 109.108 2782.72 101.982C2777 94.1732 2772.96 84.647 2769.48 75.6344C2768.45 72.9561 2767 70.8759 2767 68" stroke="black" stroke-width="3" stroke-linecap="round"/>
<path d="M3233 124.85C3250.7 124.85 3268.31 126.958 3283.2 115.366C3294.67 106.444 3302.92 95.8225 3310.15 83.3889C3314.21 76.4107 3320 67.197 3320 59" stroke="black" stroke-width="3" stroke-linecap="round"/>
<path d="M699.46 51.4585C699.46 41.0372 701.212 37.6207 707.657 29.3585C715.458 19.3576 725.061 6.75573 739.19 6.23073C742.275 6.1161 746.206 5.09444 747.386 8.51495C750.247 16.8058 755.413 24.4962 756.835 33.4131C758.559 44.2252 757.86 55.3698 757.86 66.306C757.86 82.0157 752.185 95.906 749.435 111.077C748.097 118.465 743.618 125.331 741.694 132.663C739.717 140.201 736.386 148.924 732.701 155.791C730.203 160.445 726.212 164.758 725.074 170.181C724.224 174.232 721.995 180.369 719.951 183.83C718.392 186.469 717.052 188.28 716.877 191.253C716.703 194.237 712.343 187.366 711.755 186.628C706.338 179.835 695.529 175.853 688.418 171.266C678.21 164.682 668.087 153.321 660.584 143.913C649.395 129.88 641.385 114.273 633.889 97.9425C625.355 79.3514 613.79 48.5525 630.588 31.6999C637.179 25.0868 649.138 26.7888 657.966 26.7888C665.588 26.7888 671.657 29.7322 676.92 35.012C678.441 36.5376 680.576 37.1949 682.27 38.8952C683.981 40.6109 685.57 43.0876 687.621 44.2631C689.709 45.4603 697.411 57.066 697.411 52.4864" stroke="black" stroke-width="3" stroke-linecap="round"/>
<path d="M972.306 38.1115C976.663 33.7525 982.015 27.3089 988.04 25.0764C991.521 23.7865 997.909 20.8604 1000.58 18.19C1007.77 10.9974 1019 11.5495 1028.73 11.5495C1034.1 11.5495 1037.5 13.9048 1042.25 15.7305C1044.59 16.6307 1049.58 21.7123 1049.75 24.8305C1050.33 35.8421 1055.62 50.3463 1051.34 61.3533C1049.69 65.6076 1049.96 69.7519 1047.78 73.7735C1045.4 78.1464 1044.26 83.2847 1042 87.7923C1036.48 98.8495 1029.24 108.956 1023.75 119.95C1020.88 125.697 1016.04 130.227 1012.75 135.752C1008.97 142.082 1004.22 147.412 999.595 153.091C991.817 162.628 985.307 173.165 976.731 181.989C968.852 190.097 961.04 198.066 952.147 204.985C951.578 205.428 947.505 195.955 946.861 195.024C943.075 189.553 938.825 184.428 935.307 178.669C928.594 167.679 920.646 155.475 916.439 143.314C914.228 136.925 910.748 130.95 908.695 124.377C907.59 120.842 907.18 116.991 906.175 113.371C905.244 110.017 903.716 106.935 903.716 103.41C903.716 96.338 901.379 89.7738 900.459 82.8734C899.561 76.1344 900.397 68.7002 900.397 61.9066C900.397 54.7073 899.205 46.2635 900.951 39.2797C902.493 33.1091 906.727 28.4288 908.387 22.617C910.152 16.4382 913.552 13.1668 916.746 8.2292C918.351 5.74672 926.333 4.89645 929.161 3.55625C936.964 -0.141342 946.269 3.20991 951.84 8.78257C954.63 11.574 956.912 12.708 957.986 16.4683C958.779 19.2474 962.457 23.346 965.054 24.8305C966.87 25.8689 968.987 30.0828 968.987 32.0244C968.987 35.8468 972.266 39.0994 973.412 42.5385" stroke="black" stroke-width="3" stroke-linecap="round"/>
<path d="M688.54 177C688.54 186.761 687.931 196.68 689.48 206.269C691.419 218.274 689.098 230.553 682.497 240.726C679.864 244.783 677 253.561 672.29 254.894C670.748 255.331 668.276 260.761 669.202 260.814C673.808 261.083 695.724 263.342 697 260.814" stroke="black" stroke-width="3" stroke-linecap="round"/>
<path d="M730 161C730 186.405 734.663 212.239 745.323 235.406C746.349 237.637 751.701 254.759 753.29 253.974C756.007 252.632 758.263 246.777 760.645 244.555C762.795 242.549 768 240.009 768 237.29" stroke="black" stroke-width="3" stroke-linecap="round"/>
<path d="M986.46 171C986.46 178.249 982.503 185.051 982.118 192.212C981.853 197.13 982.118 202.138 982.118 207.061C982.118 212.733 987.409 218.821 989.516 223.873C990.202 225.519 992.092 226.641 992.973 228.273C994.386 230.888 996.273 233.261 998.039 235.658C999.891 238.17 1002.71 241 1006 241" stroke="black" stroke-width="3" stroke-linecap="round"/>
<path d="M1005 242C1004.76 244.336 1001.63 246.446 1000.27 248.294C998.917 250.146 996.382 254.088 994.455 255.331C992.157 256.813 991.658 260.143 989 261" stroke="black" stroke-width="3" stroke-linecap="round"/>
<path d="M940.163 188C940.163 198.919 940.163 209.838 940.163 220.756C940.163 229.366 941.594 237.696 941.594 246.221C941.594 248.924 943.272 261 939.806 261C937.493 261 934.534 260.155 932.257 259.596C929.287 258.867 925.543 258.453 923 256.788" stroke="black" stroke-width="3" stroke-linecap="round"/>
<path d="M952.644 96.1021C953.882 95.9652 951.598 93 950.256 93C948.282 93 946.809 93.5754 946.203 95.3188C945.29 97.9466 945 100.236 945 103.011C945 104.083 945.849 103.998 946.77 103.998C948.258 103.998 949.613 103.803 950.096 102.306C950.399 101.367 953.868 97.3104 952.574 96.1648C951.048 94.8137 948.573 98.1684 948.026 98.9222C947.523 99.6152 946.947 100.847 946.911 101.68C946.887 102.24 946.866 103.825 947.3 102.526C948.112 100.101 949.179 97.6029 950.733 95.5381" stroke="black" stroke-width="3" stroke-linecap="round"/>
<path d="M970.224 103.39C968.253 102.876 976.955 89.4415 976.955 97.65C976.955 101.684 977.457 105.815 975.119 109.2C974.355 110.306 972.875 111.917 971.448 111.999C970.691 112.043 969 109.745 969 108.97C969 107.216 969.02 105.935 969.782 104.346C970.839 102.142 972.192 100.109 973.13 97.8272C973.706 96.4259 975.119 94.0549 975.119 96.8883C975.119 100.189 975.289 103.275 974.371 106.419C974.322 106.588 972.55 111.512 972.076 109.289C971.794 107.963 971.448 107.222 971.448 105.781C971.448 104.689 972.671 102.697 972.671 104.825C972.671 105.575 972.671 107.075 972.671 107.075C972.671 107.075 972.671 105.894 972.671 105.303" stroke="black" stroke-width="3" stroke-linecap="round"/>
<path d="M936 114C936 118.547 937.224 123.199 940.166 126.871C943.937 131.579 950.754 133.457 956.597 134.623C962.76 135.854 968.72 133.986 973.395 130.231C974.68 129.198 975.51 128.177 976.22 126.758C976.604 125.991 976.578 125.003 977 124.215" stroke="black" stroke-width="3" stroke-linecap="round"/>
<path d="M713 103.166C713 101.565 713 99.9632 713 98.3618C713 96.4099 713.817 95.3388 714.772 93.7267C715.203 92.9994 717.163 92.8162 717.907 93.1854C719.474 93.9632 720.599 97.6263 721.298 99.0723C722.444 101.443 725.035 111.722 720.054 111.996C718.366 112.089 717.706 110.371 717.157 109.053C716.477 107.418 715.164 106.091 714.687 104.384C714.441 103.505 714.533 102.549 714.533 101.644C714.533 100.956 715.165 98.0234 716.237 98.0234C716.588 98.0234 716.89 98.6434 716.987 98.9031C717.627 100.624 717.951 102.575 718.333 104.35C718.381 104.575 719.482 108.424 719.202 109.121C718.84 110.02 718.472 107.324 718.094 106.431C717.697 105.49 717.39 104.528 717.311 103.504C717.203 102.116 717.075 97.4021 718.35 101.018C718.949 102.717 719.408 104.957 719.679 106.752C719.704 106.916 719.883 109.45 719.202 108.342C717.989 106.373 717.96 102.965 717.907 100.662C717.89 99.9118 718.1 98.8889 717.89 98.1588C717.766 97.7269 717.294 97.418 717.294 96.9239C717.294 96.1825 715.147 94.5345 715.147 96.0104C715.147 96.6681 715.802 97.2636 715.999 97.9219C716.197 98.5866 716.067 99.4274 716.067 100.121" stroke="black" stroke-width="3" stroke-linecap="round"/>
<path d="M694.951 113.953C694.951 110.892 695.265 107.735 694.304 104.777C694.11 104.181 693.854 103.595 693.605 103.018C693.331 102.384 692.717 101.86 692.311 101.303C691.819 100.628 690.951 100 690.051 100C688.59 100 687.881 100.744 687.421 102.006C687.11 102.862 687 103.722 687 104.622C687 106.119 686.983 107.573 687.298 109.05C687.704 110.949 689.023 115 691.664 115C692.488 115 693.158 114.13 693.359 113.43C693.79 111.925 693.711 110.349 693.2 108.861C692.79 107.672 692.125 106.563 691.458 105.494C691.167 105.027 690.363 105.19 690.051 105.484C689.227 106.262 689.493 107.745 689.661 108.711C689.751 109.229 689.971 109.813 690.467 110.073C691.473 110.6 691.833 107.443 691.88 106.996C691.927 106.548 692.042 105.781 691.88 105.339C691.78 105.068 691.452 104.997 691.345 104.797" stroke="black" stroke-width="3" stroke-linecap="round"/>
<path d="M691.007 103C691.007 104.135 691.007 105.271 691.007 106.406C691.007 107.267 690.93 108.23 691.294 109.029C691.516 109.516 691.544 110.086 691.646 110.605C691.719 110.978 691.911 111.347 691.911 111.73C691.911 112.122 692.111 112.6 691.911 113" stroke="black" stroke-width="3" stroke-linecap="round"/>
<path d="M718.99 131C718.99 131.94 719.013 132.884 718.99 133.824C718.964 134.872 718.33 135.822 717.712 136.62C716.256 138.501 713.873 139.96 711.438 139.999C710.564 140.013 709.912 139.822 709.15 139.391C708.548 139.051 708.036 138.561 707.533 138.095C706.943 137.549 706.322 137.042 705.75 136.476C705.047 135.78 704.665 135.158 704.368 134.22C704.256 133.868 704.161 133.478 704 133.16" stroke="black" stroke-width="3" stroke-linecap="round"/>
<path d="M748.778 110.646C748.38 110.96 749.307 117.495 749.337 118.363C749.488 122.776 749.099 127.325 750.478 131.556C752.546 137.905 754.933 142.394 760.954 145.915C770.977 151.775 783.919 151.214 795.174 152.359C799.271 152.776 804.054 153.096 808.166 152.603C810.441 152.331 812.315 153.122 814.453 152.147" stroke="black" stroke-width="3" stroke-linecap="round"/>
<path d="M905.559 108.366C902.36 117.154 900.001 127.162 894.618 134.881C888.558 143.571 880.698 150.682 872.26 157.104C864.227 163.218 855.172 167.368 845.567 170.629C841.564 171.988 837.544 173.643 833.032 173.152C830.538 172.88 827.291 173.527 825 172.693" stroke="black" stroke-width="3" stroke-linecap="round"/>
<path d="M646 128.33C630.422 128.33 614.507 134.211 599.213 128.516C595.413 127.101 592.152 124.496 589.332 121.534C583.244 115.139 575.932 109.108 570.718 101.982C565.004 94.1732 560.964 84.647 557.482 75.6344C556.447 72.9561 555 70.8759 555 68" stroke="black" stroke-width="3" stroke-linecap="round"/>
<path d="M1021 124.85C1038.7 124.85 1056.31 126.958 1071.2 115.366C1082.67 106.444 1090.92 95.8225 1098.15 83.3889C1102.21 76.4107 1108 67.197 1108 59" stroke="black" stroke-width="3" stroke-linecap="round"/>
<path d="M1252.46 51.4585C1252.46 41.0372 1254.21 37.6207 1260.66 29.3585C1268.46 19.3576 1278.06 6.75573 1292.19 6.23073C1295.27 6.1161 1299.21 5.09444 1300.39 8.51495C1303.25 16.8058 1308.41 24.4962 1309.83 33.4131C1311.56 44.2252 1310.86 55.3698 1310.86 66.306C1310.86 82.0157 1305.18 95.906 1302.44 111.077C1301.1 118.465 1296.62 125.331 1294.69 132.663C1292.72 140.201 1289.39 148.924 1285.7 155.791C1283.2 160.445 1279.21 164.758 1278.07 170.181C1277.22 174.232 1275 180.369 1272.95 183.83C1271.39 186.469 1270.05 188.28 1269.88 191.253C1269.7 194.237 1265.34 187.366 1264.75 186.628C1259.34 179.835 1248.53 175.853 1241.42 171.266C1231.21 164.682 1221.09 153.321 1213.58 143.913C1202.39 129.88 1194.39 114.273 1186.89 97.9425C1178.36 79.3514 1166.79 48.5525 1183.59 31.6999C1190.18 25.0868 1202.14 26.7888 1210.97 26.7888C1218.59 26.7888 1224.66 29.7322 1229.92 35.012C1231.44 36.5376 1233.58 37.1949 1235.27 38.8952C1236.98 40.6109 1238.57 43.0876 1240.62 44.2631C1242.71 45.4603 1250.41 57.066 1250.41 52.4864" stroke="black" stroke-width="3" stroke-linecap="round"/>
<path d="M1525.31 38.1115C1529.66 33.7525 1535.01 27.3089 1541.04 25.0764C1544.52 23.7865 1550.91 20.8604 1553.58 18.19C1560.77 10.9974 1572 11.5495 1581.73 11.5495C1587.1 11.5495 1590.5 13.9048 1595.25 15.7305C1597.59 16.6307 1602.58 21.7123 1602.75 24.8305C1603.33 35.8421 1608.62 50.3463 1604.34 61.3533C1602.69 65.6076 1602.96 69.7519 1600.78 73.7735C1598.4 78.1464 1597.26 83.2847 1595 87.7923C1589.48 98.8495 1582.24 108.956 1576.75 119.95C1573.88 125.697 1569.04 130.227 1565.75 135.752C1561.97 142.082 1557.22 147.412 1552.59 153.091C1544.82 162.628 1538.31 173.165 1529.73 181.989C1521.85 190.097 1514.04 198.066 1505.15 204.985C1504.58 205.428 1500.51 195.955 1499.86 195.024C1496.08 189.553 1491.82 184.428 1488.31 178.669C1481.59 167.679 1473.65 155.475 1469.44 143.314C1467.23 136.925 1463.75 130.95 1461.69 124.377C1460.59 120.842 1460.18 116.991 1459.17 113.371C1458.24 110.017 1456.72 106.935 1456.72 103.41C1456.72 96.338 1454.38 89.7738 1453.46 82.8734C1452.56 76.1344 1453.4 68.7002 1453.4 61.9066C1453.4 54.7073 1452.21 46.2635 1453.95 39.2797C1455.49 33.1091 1459.73 28.4288 1461.39 22.617C1463.15 16.4382 1466.55 13.1668 1469.75 8.2292C1471.35 5.74672 1479.33 4.89645 1482.16 3.55625C1489.96 -0.141342 1499.27 3.20991 1504.84 8.78257C1507.63 11.574 1509.91 12.708 1510.99 16.4683C1511.78 19.2474 1515.46 23.346 1518.05 24.8305C1519.87 25.8689 1521.99 30.0828 1521.99 32.0244C1521.99 35.8468 1525.27 39.0994 1526.41 42.5385" stroke="black" stroke-width="3" stroke-linecap="round"/>
<path d="M1241.54 177C1241.54 186.761 1240.93 196.68 1242.48 206.269C1244.42 218.274 1242.1 230.553 1235.5 240.726C1232.86 244.783 1230 253.561 1225.29 254.894C1223.75 255.331 1221.28 260.761 1222.2 260.814C1226.81 261.083 1248.72 263.342 1250 260.814" stroke="black" stroke-width="3" stroke-linecap="round"/>
<path d="M1283 161C1283 186.405 1287.66 212.239 1298.32 235.406C1299.35 237.637 1304.7 254.759 1306.29 253.974C1309.01 252.632 1311.26 246.777 1313.65 244.555C1315.8 242.549 1321 240.009 1321 237.29" stroke="black" stroke-width="3" stroke-linecap="round"/>
<path d="M1539.46 171C1539.46 178.249 1535.5 185.051 1535.12 192.212C1534.85 197.13 1535.12 202.138 1535.12 207.061C1535.12 212.733 1540.41 218.821 1542.52 223.873C1543.2 225.519 1545.09 226.641 1545.97 228.273C1547.39 230.888 1549.27 233.261 1551.04 235.658C1552.89 238.17 1555.71 241 1559 241" stroke="black" stroke-width="3" stroke-linecap="round"/>
<path d="M1558 242C1557.76 244.336 1554.63 246.446 1553.27 248.294C1551.92 250.146 1549.38 254.088 1547.45 255.331C1545.16 256.813 1544.66 260.143 1542 261" stroke="black" stroke-width="3" stroke-linecap="round"/>
<path d="M1493.16 188C1493.16 198.919 1493.16 209.838 1493.16 220.756C1493.16 229.366 1494.59 237.696 1494.59 246.221C1494.59 248.924 1496.27 261 1492.81 261C1490.49 261 1487.53 260.155 1485.26 259.596C1482.29 258.867 1478.54 258.453 1476 256.788" stroke="black" stroke-width="3" stroke-linecap="round"/>
<path d="M1505.64 96.1021C1506.88 95.9652 1504.6 93 1503.26 93C1501.28 93 1499.81 93.5754 1499.2 95.3188C1498.29 97.9466 1498 100.236 1498 103.011C1498 104.083 1498.85 103.998 1499.77 103.998C1501.26 103.998 1502.61 103.803 1503.1 102.306C1503.4 101.367 1506.87 97.3104 1505.57 96.1648C1504.05 94.8137 1501.57 98.1684 1501.03 98.9222C1500.52 99.6152 1499.95 100.847 1499.91 101.68C1499.89 102.24 1499.87 103.825 1500.3 102.526C1501.11 100.101 1502.18 97.6029 1503.73 95.5381" stroke="black" stroke-width="3" stroke-linecap="round"/>
<path d="M1523.22 103.39C1521.25 102.876 1529.95 89.4415 1529.95 97.65C1529.95 101.684 1530.46 105.815 1528.12 109.2C1527.36 110.306 1525.88 111.917 1524.45 111.999C1523.69 112.043 1522 109.745 1522 108.97C1522 107.216 1522.02 105.935 1522.78 104.346C1523.84 102.142 1525.19 100.109 1526.13 97.8272C1526.71 96.4259 1528.12 94.0549 1528.12 96.8883C1528.12 100.189 1528.29 103.275 1527.37 106.419C1527.32 106.588 1525.55 111.512 1525.08 109.289C1524.79 107.963 1524.45 107.222 1524.45 105.781C1524.45 104.689 1525.67 102.697 1525.67 104.825C1525.67 105.575 1525.67 107.075 1525.67 107.075C1525.67 107.075 1525.67 105.894 1525.67 105.303" stroke="black" stroke-width="3" stroke-linecap="round"/>
<path d="M1489 114C1489 118.547 1490.22 123.199 1493.17 126.871C1496.94 131.579 1503.75 133.457 1509.6 134.623C1515.76 135.854 1521.72 133.986 1526.39 130.231C1527.68 129.198 1528.51 128.177 1529.22 126.758C1529.6 125.991 1529.58 125.003 1530 124.215" stroke="black" stroke-width="3" stroke-linecap="round"/>
<path d="M1266 103.166C1266 101.565 1266 99.9632 1266 98.3618C1266 96.4099 1266.82 95.3388 1267.77 93.7267C1268.2 92.9994 1270.16 92.8162 1270.91 93.1854C1272.47 93.9632 1273.6 97.6263 1274.3 99.0723C1275.44 101.443 1278.04 111.722 1273.05 111.996C1271.37 112.089 1270.71 110.371 1270.16 109.053C1269.48 107.418 1268.16 106.091 1267.69 104.384C1267.44 103.505 1267.53 102.549 1267.53 101.644C1267.53 100.956 1268.17 98.0234 1269.24 98.0234C1269.59 98.0234 1269.89 98.6434 1269.99 98.9031C1270.63 100.624 1270.95 102.575 1271.33 104.35C1271.38 104.575 1272.48 108.424 1272.2 109.121C1271.84 110.02 1271.47 107.324 1271.09 106.431C1270.7 105.49 1270.39 104.528 1270.31 103.504C1270.2 102.116 1270.08 97.4021 1271.35 101.018C1271.95 102.717 1272.41 104.957 1272.68 106.752C1272.7 106.916 1272.88 109.45 1272.2 108.342C1270.99 106.373 1270.96 102.965 1270.91 100.662C1270.89 99.9118 1271.1 98.8889 1270.89 98.1588C1270.77 97.7269 1270.29 97.418 1270.29 96.9239C1270.29 96.1825 1268.15 94.5345 1268.15 96.0104C1268.15 96.6681 1268.8 97.2636 1269 97.9219C1269.2 98.5866 1269.07 99.4274 1269.07 100.121" stroke="black" stroke-width="3" stroke-linecap="round"/>
<path d="M1247.95 113.953C1247.95 110.892 1248.26 107.735 1247.3 104.777C1247.11 104.181 1246.85 103.595 1246.61 103.018C1246.33 102.384 1245.72 101.86 1245.31 101.303C1244.82 100.628 1243.95 100 1243.05 100C1241.59 100 1240.88 100.744 1240.42 102.006C1240.11 102.862 1240 103.722 1240 104.622C1240 106.119 1239.98 107.573 1240.3 109.05C1240.7 110.949 1242.02 115 1244.66 115C1245.49 115 1246.16 114.13 1246.36 113.43C1246.79 111.925 1246.71 110.349 1246.2 108.861C1245.79 107.672 1245.13 106.563 1244.46 105.494C1244.17 105.027 1243.36 105.19 1243.05 105.484C1242.23 106.262 1242.49 107.745 1242.66 108.711C1242.75 109.229 1242.97 109.813 1243.47 110.073C1244.47 110.6 1244.83 107.443 1244.88 106.996C1244.93 106.548 1245.04 105.781 1244.88 105.339C1244.78 105.068 1244.45 104.997 1244.35 104.797" stroke="black" stroke-width="3" stroke-linecap="round"/>
<path d="M1244.01 103C1244.01 104.135 1244.01 105.271 1244.01 106.406C1244.01 107.267 1243.93 108.23 1244.29 109.029C1244.52 109.516 1244.54 110.086 1244.65 110.605C1244.72 110.978 1244.91 111.347 1244.91 111.73C1244.91 112.122 1245.11 112.6 1244.91 113" stroke="black" stroke-width="3" stroke-linecap="round"/>
<path d="M1271.99 131C1271.99 131.94 1272.01 132.884 1271.99 133.824C1271.96 134.872 1271.33 135.822 1270.71 136.62C1269.26 138.501 1266.87 139.96 1264.44 139.999C1263.56 140.013 1262.91 139.822 1262.15 139.391C1261.55 139.051 1261.04 138.561 1260.53 138.095C1259.94 137.549 1259.32 137.042 1258.75 136.476C1258.05 135.78 1257.67 135.158 1257.37 134.22C1257.26 133.868 1257.16 133.478 1257 133.16" stroke="black" stroke-width="3" stroke-linecap="round"/>
<path d="M1302.71 120.351C1302.41 120.761 1305.05 126.81 1305.31 127.639C1306.63 131.851 1307.47 136.338 1309.93 140.047C1313.62 145.613 1317.12 149.3 1323.87 151.084C1335.09 154.053 1347.41 150.053 1358.56 148.149C1362.62 147.456 1367.32 146.486 1371.15 144.912C1373.27 144.041 1375.28 144.303 1377.08 142.793" stroke="black" stroke-width="3" stroke-linecap="round"/>
<path d="M1460.18 114.623C1455.72 122.842 1451.91 132.391 1445.44 139.23C1438.16 146.928 1429.34 152.799 1420.05 157.904C1411.2 162.763 1401.63 165.529 1391.65 167.335C1387.49 168.088 1383.27 169.13 1378.88 167.977C1376.45 167.34 1373.14 167.499 1371 166.336" stroke="black" stroke-width="3" stroke-linecap="round"/>
<path d="M1199 128.33C1183.42 128.33 1167.51 134.211 1152.21 128.516C1148.41 127.101 1145.15 124.496 1142.33 121.534C1136.24 115.139 1128.93 109.108 1123.72 101.982C1118 94.1732 1113.96 84.647 1110.48 75.6344C1109.45 72.9561 1108 70.8759 1108 68" stroke="black" stroke-width="3" stroke-linecap="round"/>
<path d="M1574 124.85C1591.7 124.85 1609.31 126.958 1624.2 115.366C1635.67 106.444 1643.92 95.8225 1651.15 83.3889C1655.21 76.4107 1661 67.197 1661 59" stroke="black" stroke-width="3" stroke-linecap="round"/>
<path d="M1805.46 51.4585C1805.46 41.0372 1807.21 37.6207 1813.66 29.3585C1821.46 19.3576 1831.06 6.75573 1845.19 6.23073C1848.27 6.1161 1852.21 5.09444 1853.39 8.51495C1856.25 16.8058 1861.41 24.4962 1862.83 33.4131C1864.56 44.2252 1863.86 55.3698 1863.86 66.306C1863.86 82.0157 1858.18 95.906 1855.44 111.077C1854.1 118.465 1849.62 125.331 1847.69 132.663C1845.72 140.201 1842.39 148.924 1838.7 155.791C1836.2 160.445 1832.21 164.758 1831.07 170.181C1830.22 174.232 1828 180.369 1825.95 183.83C1824.39 186.469 1823.05 188.28 1822.88 191.253C1822.7 194.237 1818.34 187.366 1817.75 186.628C1812.34 179.835 1801.53 175.853 1794.42 171.266C1784.21 164.682 1774.09 153.321 1766.58 143.913C1755.39 129.88 1747.39 114.273 1739.89 97.9425C1731.36 79.3514 1719.79 48.5525 1736.59 31.6999C1743.18 25.0868 1755.14 26.7888 1763.97 26.7888C1771.59 26.7888 1777.66 29.7322 1782.92 35.012C1784.44 36.5376 1786.58 37.1949 1788.27 38.8952C1789.98 40.6109 1791.57 43.0876 1793.62 44.2631C1795.71 45.4603 1803.41 57.066 1803.41 52.4864" stroke="black" stroke-width="3" stroke-linecap="round"/>
<path d="M2078.31 38.1115C2082.66 33.7525 2088.01 27.3089 2094.04 25.0764C2097.52 23.7865 2103.91 20.8604 2106.58 18.19C2113.77 10.9974 2125 11.5495 2134.73 11.5495C2140.1 11.5495 2143.5 13.9048 2148.25 15.7305C2150.59 16.6307 2155.58 21.7123 2155.75 24.8305C2156.33 35.8421 2161.62 50.3463 2157.34 61.3533C2155.69 65.6076 2155.96 69.7519 2153.78 73.7735C2151.4 78.1464 2150.26 83.2847 2148 87.7923C2142.48 98.8495 2135.24 108.956 2129.75 119.95C2126.88 125.697 2122.04 130.227 2118.75 135.752C2114.97 142.082 2110.22 147.412 2105.59 153.091C2097.82 162.628 2091.31 173.165 2082.73 181.989C2074.85 190.097 2067.04 198.066 2058.15 204.985C2057.58 205.428 2053.51 195.955 2052.86 195.024C2049.08 189.553 2044.82 184.428 2041.31 178.669C2034.59 167.679 2026.65 155.475 2022.44 143.314C2020.23 136.925 2016.75 130.95 2014.69 124.377C2013.59 120.842 2013.18 116.991 2012.17 113.371C2011.24 110.017 2009.72 106.935 2009.72 103.41C2009.72 96.338 2007.38 89.7738 2006.46 82.8734C2005.56 76.1344 2006.4 68.7002 2006.4 61.9066C2006.4 54.7073 2005.21 46.2635 2006.95 39.2797C2008.49 33.1091 2012.73 28.4288 2014.39 22.617C2016.15 16.4382 2019.55 13.1668 2022.75 8.2292C2024.35 5.74672 2032.33 4.89645 2035.16 3.55625C2042.96 -0.141342 2052.27 3.20991 2057.84 8.78257C2060.63 11.574 2062.91 12.708 2063.99 16.4683C2064.78 19.2474 2068.46 23.346 2071.05 24.8305C2072.87 25.8689 2074.99 30.0828 2074.99 32.0244C2074.99 35.8468 2078.27 39.0994 2079.41 42.5385" stroke="black" stroke-width="3" stroke-linecap="round"/>
<path d="M1794.54 177C1794.54 186.761 1793.93 196.68 1795.48 206.269C1797.42 218.274 1795.1 230.553 1788.5 240.726C1785.86 244.783 1783 253.561 1778.29 254.894C1776.75 255.331 1774.28 260.761 1775.2 260.814C1779.81 261.083 1801.72 263.342 1803 260.814" stroke="black" stroke-width="3" stroke-linecap="round"/>
<path d="M1836 161C1836 186.405 1840.66 212.239 1851.32 235.406C1852.35 237.637 1857.7 254.759 1859.29 253.974C1862.01 252.632 1864.26 246.777 1866.65 244.555C1868.8 242.549 1874 240.009 1874 237.29" stroke="black" stroke-width="3" stroke-linecap="round"/>
<path d="M2092.46 171C2092.46 178.249 2088.5 185.051 2088.12 192.212C2087.85 197.13 2088.12 202.138 2088.12 207.061C2088.12 212.733 2093.41 218.821 2095.52 223.873C2096.2 225.519 2098.09 226.641 2098.97 228.273C2100.39 230.888 2102.27 233.261 2104.04 235.658C2105.89 238.17 2108.71 241 2112 241" stroke="black" stroke-width="3" stroke-linecap="round"/>
<path d="M2111 242C2110.76 244.336 2107.63 246.446 2106.27 248.294C2104.92 250.146 2102.38 254.088 2100.45 255.331C2098.16 256.813 2097.66 260.143 2095 261" stroke="black" stroke-width="3" stroke-linecap="round"/>
<path d="M2046.16 188C2046.16 198.919 2046.16 209.838 2046.16 220.756C2046.16 229.366 2047.59 237.696 2047.59 246.221C2047.59 248.924 2049.27 261 2045.81 261C2043.49 261 2040.53 260.155 2038.26 259.596C2035.29 258.867 2031.54 258.453 2029 256.788" stroke="black" stroke-width="3" stroke-linecap="round"/>
<path d="M2058.64 96.1021C2059.88 95.9652 2057.6 93 2056.26 93C2054.28 93 2052.81 93.5754 2052.2 95.3188C2051.29 97.9466 2051 100.236 2051 103.011C2051 104.083 2051.85 103.998 2052.77 103.998C2054.26 103.998 2055.61 103.803 2056.1 102.306C2056.4 101.367 2059.87 97.3104 2058.57 96.1648C2057.05 94.8137 2054.57 98.1684 2054.03 98.9222C2053.52 99.6152 2052.95 100.847 2052.91 101.68C2052.89 102.24 2052.87 103.825 2053.3 102.526C2054.11 100.101 2055.18 97.6029 2056.73 95.5381" stroke="black" stroke-width="3" stroke-linecap="round"/>
<path d="M2076.22 103.39C2074.25 102.876 2082.95 89.4415 2082.95 97.65C2082.95 101.684 2083.46 105.815 2081.12 109.2C2080.36 110.306 2078.88 111.917 2077.45 111.999C2076.69 112.043 2075 109.745 2075 108.97C2075 107.216 2075.02 105.935 2075.78 104.346C2076.84 102.142 2078.19 100.109 2079.13 97.8272C2079.71 96.4259 2081.12 94.0549 2081.12 96.8883C2081.12 100.189 2081.29 103.275 2080.37 106.419C2080.32 106.588 2078.55 111.512 2078.08 109.289C2077.79 107.963 2077.45 107.222 2077.45 105.781C2077.45 104.689 2078.67 102.697 2078.67 104.825C2078.67 105.575 2078.67 107.075 2078.67 107.075C2078.67 107.075 2078.67 105.894 2078.67 105.303" stroke="black" stroke-width="3" stroke-linecap="round"/>
<path d="M2042 114C2042 118.547 2043.22 123.199 2046.17 126.871C2049.94 131.579 2056.75 133.457 2062.6 134.623C2068.76 135.854 2074.72 133.986 2079.39 130.231C2080.68 129.198 2081.51 128.177 2082.22 126.758C2082.6 125.991 2082.58 125.003 2083 124.215" stroke="black" stroke-width="3" stroke-linecap="round"/>
<path d="M1819 103.166C1819 101.565 1819 99.9632 1819 98.3618C1819 96.4099 1819.82 95.3388 1820.77 93.7267C1821.2 92.9994 1823.16 92.8162 1823.91 93.1854C1825.47 93.9632 1826.6 97.6263 1827.3 99.0723C1828.44 101.443 1831.04 111.722 1826.05 111.996C1824.37 112.089 1823.71 110.371 1823.16 109.053C1822.48 107.418 1821.16 106.091 1820.69 104.384C1820.44 103.505 1820.53 102.549 1820.53 101.644C1820.53 100.956 1821.17 98.0234 1822.24 98.0234C1822.59 98.0234 1822.89 98.6434 1822.99 98.9031C1823.63 100.624 1823.95 102.575 1824.33 104.35C1824.38 104.575 1825.48 108.424 1825.2 109.121C1824.84 110.02 1824.47 107.324 1824.09 106.431C1823.7 105.49 1823.39 104.528 1823.31 103.504C1823.2 102.116 1823.08 97.4021 1824.35 101.018C1824.95 102.717 1825.41 104.957 1825.68 106.752C1825.7 106.916 1825.88 109.45 1825.2 108.342C1823.99 106.373 1823.96 102.965 1823.91 100.662C1823.89 99.9118 1824.1 98.8889 1823.89 98.1588C1823.77 97.7269 1823.29 97.418 1823.29 96.9239C1823.29 96.1825 1821.15 94.5345 1821.15 96.0104C1821.15 96.6681 1821.8 97.2636 1822 97.9219C1822.2 98.5866 1822.07 99.4274 1822.07 100.121" stroke="black" stroke-width="3" stroke-linecap="round"/>
<path d="M1800.95 113.953C1800.95 110.892 1801.26 107.735 1800.3 104.777C1800.11 104.181 1799.85 103.595 1799.61 103.018C1799.33 102.384 1798.72 101.86 1798.31 101.303C1797.82 100.628 1796.95 100 1796.05 100C1794.59 100 1793.88 100.744 1793.42 102.006C1793.11 102.862 1793 103.722 1793 104.622C1793 106.119 1792.98 107.573 1793.3 109.05C1793.7 110.949 1795.02 115 1797.66 115C1798.49 115 1799.16 114.13 1799.36 113.43C1799.79 111.925 1799.71 110.349 1799.2 108.861C1798.79 107.672 1798.13 106.563 1797.46 105.494C1797.17 105.027 1796.36 105.19 1796.05 105.484C1795.23 106.262 1795.49 107.745 1795.66 108.711C1795.75 109.229 1795.97 109.813 1796.47 110.073C1797.47 110.6 1797.83 107.443 1797.88 106.996C1797.93 106.548 1798.04 105.781 1797.88 105.339C1797.78 105.068 1797.45 104.997 1797.35 104.797" stroke="black" stroke-width="3" stroke-linecap="round"/>
<path d="M1797.01 103C1797.01 104.135 1797.01 105.271 1797.01 106.406C1797.01 107.267 1796.93 108.23 1797.29 109.029C1797.52 109.516 1797.54 110.086 1797.65 110.605C1797.72 110.978 1797.91 111.347 1797.91 111.73C1797.91 112.122 1798.11 112.6 1797.91 113" stroke="black" stroke-width="3" stroke-linecap="round"/>
<path d="M1824.99 131C1824.99 131.94 1825.01 132.884 1824.99 133.824C1824.96 134.872 1824.33 135.822 1823.71 136.62C1822.26 138.501 1819.87 139.96 1817.44 139.999C1816.56 140.013 1815.91 139.822 1815.15 139.391C1814.55 139.051 1814.04 138.561 1813.53 138.095C1812.94 137.549 1812.32 137.042 1811.75 136.476C1811.05 135.78 1810.67 135.158 1810.37 134.22C1810.26 133.868 1810.16 133.478 1810 133.16" stroke="black" stroke-width="3" stroke-linecap="round"/>
<path d="M1854.16 124.277C1853.99 124.753 1858.19 129.84 1858.67 130.565C1861.11 134.248 1863.15 138.33 1866.54 141.217C1871.62 145.55 1876 148.13 1882.97 147.986C1894.58 147.747 1905.32 140.506 1915.52 135.601C1919.23 133.816 1923.47 131.59 1926.72 129.021C1928.52 127.6 1930.53 127.296 1931.85 125.348" stroke="black" stroke-width="3" stroke-linecap="round"/>
<path d="M2021.08 123.54C2013.15 128.495 2005.13 134.929 1996.14 137.697C1986.01 140.814 1975.44 141.579 1964.84 141.445C1954.74 141.317 1945.05 139.012 1935.48 135.669C1931.49 134.276 1927.3 133.104 1924.05 129.939C1922.25 128.19 1919.29 126.7 1918 124.633" stroke="black" stroke-width="3" stroke-linecap="round"/>
<path d="M1752 128.33C1736.42 128.33 1720.51 134.211 1705.21 128.516C1701.41 127.101 1698.15 124.496 1695.33 121.534C1689.24 115.139 1681.93 109.108 1676.72 101.982C1671 94.1732 1666.96 84.647 1663.48 75.6344C1662.45 72.9561 1661 70.8759 1661 68" stroke="black" stroke-width="3" stroke-linecap="round"/>
<path d="M2127 124.85C2144.7 124.85 2162.31 126.958 2177.2 115.366C2188.67 106.444 2196.92 95.8225 2204.15 83.3889C2208.21 76.4107 2214 67.197 2214 59" stroke="black" stroke-width="3" stroke-linecap="round"/>
<path d="M2358.46 51.4585C2358.46 41.0372 2360.21 37.6207 2366.66 29.3585C2374.46 19.3576 2384.06 6.75573 2398.19 6.23073C2401.27 6.1161 2405.21 5.09444 2406.39 8.51495C2409.25 16.8058 2414.41 24.4962 2415.83 33.4131C2417.56 44.2252 2416.86 55.3698 2416.86 66.306C2416.86 82.0157 2411.18 95.906 2408.44 111.077C2407.1 118.465 2402.62 125.331 2400.69 132.663C2398.72 140.201 2395.39 148.924 2391.7 155.791C2389.2 160.445 2385.21 164.758 2384.07 170.181C2383.22 174.232 2381 180.369 2378.95 183.83C2377.39 186.469 2376.05 188.28 2375.88 191.253C2375.7 194.237 2371.34 187.366 2370.75 186.628C2365.34 179.835 2354.53 175.853 2347.42 171.266C2337.21 164.682 2327.09 153.321 2319.58 143.913C2308.39 129.88 2300.39 114.273 2292.89 97.9425C2284.36 79.3514 2272.79 48.5525 2289.59 31.6999C2296.18 25.0868 2308.14 26.7888 2316.97 26.7888C2324.59 26.7888 2330.66 29.7322 2335.92 35.012C2337.44 36.5376 2339.58 37.1949 2341.27 38.8952C2342.98 40.6109 2344.57 43.0876 2346.62 44.2631C2348.71 45.4603 2356.41 57.066 2356.41 52.4864" stroke="black" stroke-width="3" stroke-linecap="round"/>
<path d="M2631.31 38.1115C2635.66 33.7525 2641.01 27.3089 2647.04 25.0764C2650.52 23.7865 2656.91 20.8604 2659.58 18.19C2666.77 10.9974 2678 11.5495 2687.73 11.5495C2693.1 11.5495 2696.5 13.9048 2701.25 15.7305C2703.59 16.6307 2708.58 21.7123 2708.75 24.8305C2709.33 35.8421 2714.62 50.3463 2710.34 61.3533C2708.69 65.6076 2708.96 69.7519 2706.78 73.7735C2704.4 78.1464 2703.26 83.2847 2701 87.7923C2695.48 98.8495 2688.24 108.956 2682.75 119.95C2679.88 125.697 2675.04 130.227 2671.75 135.752C2667.97 142.082 2663.22 147.412 2658.59 153.091C2650.82 162.628 2644.31 173.165 2635.73 181.989C2627.85 190.097 2620.04 198.066 2611.15 204.985C2610.58 205.428 2606.51 195.955 2605.86 195.024C2602.08 189.553 2597.82 184.428 2594.31 178.669C2587.59 167.679 2579.65 155.475 2575.44 143.314C2573.23 136.925 2569.75 130.95 2567.69 124.377C2566.59 120.842 2566.18 116.991 2565.17 113.371C2564.24 110.017 2562.72 106.935 2562.72 103.41C2562.72 96.338 2560.38 89.7738 2559.46 82.8734C2558.56 76.1344 2559.4 68.7002 2559.4 61.9066C2559.4 54.7073 2558.21 46.2635 2559.95 39.2797C2561.49 33.1091 2565.73 28.4288 2567.39 22.617C2569.15 16.4382 2572.55 13.1668 2575.75 8.2292C2577.35 5.74672 2585.33 4.89645 2588.16 3.55625C2595.96 -0.141342 2605.27 3.20991 2610.84 8.78257C2613.63 11.574 2615.91 12.708 2616.99 16.4683C2617.78 19.2474 2621.46 23.346 2624.05 24.8305C2625.87 25.8689 2627.99 30.0828 2627.99 32.0244C2627.99 35.8468 2631.27 39.0994 2632.41 42.5385" stroke="black" stroke-width="3" stroke-linecap="round"/>
<path d="M2347.54 177C2347.54 186.761 2346.93 196.68 2348.48 206.269C2350.42 218.274 2348.1 230.553 2341.5 240.726C2338.86 244.783 2336 253.561 2331.29 254.894C2329.75 255.331 2327.28 260.761 2328.2 260.814C2332.81 261.083 2354.72 263.342 2356 260.814" stroke="black" stroke-width="3" stroke-linecap="round"/>
<path d="M2389 161C2389 186.405 2393.66 212.239 2404.32 235.406C2405.35 237.637 2410.7 254.759 2412.29 253.974C2415.01 252.632 2417.26 246.777 2419.65 244.555C2421.8 242.549 2427 240.009 2427 237.29" stroke="black" stroke-width="3" stroke-linecap="round"/>
<path d="M2645.46 171C2645.46 178.249 2641.5 185.051 2641.12 192.212C2640.85 197.13 2641.12 202.138 2641.12 207.061C2641.12 212.733 2646.41 218.821 2648.52 223.873C2649.2 225.519 2651.09 226.641 2651.97 228.273C2653.39 230.888 2655.27 233.261 2657.04 235.658C2658.89 238.17 2661.71 241 2665 241" stroke="black" stroke-width="3" stroke-linecap="round"/>
<path d="M2664 242C2663.76 244.336 2660.63 246.446 2659.27 248.294C2657.92 250.146 2655.38 254.088 2653.45 255.331C2651.16 256.813 2650.66 260.143 2648 261" stroke="black" stroke-width="3" stroke-linecap="round"/>
<path d="M2599.16 188C2599.16 198.919 2599.16 209.838 2599.16 220.756C2599.16 229.366 2600.59 237.696 2600.59 246.221C2600.59 248.924 2602.27 261 2598.81 261C2596.49 261 2593.53 260.155 2591.26 259.596C2588.29 258.867 2584.54 258.453 2582 256.788" stroke="black" stroke-width="3" stroke-linecap="round"/>
<path d="M2611.64 96.1021C2612.88 95.9652 2610.6 93 2609.26 93C2607.28 93 2605.81 93.5754 2605.2 95.3188C2604.29 97.9466 2604 100.236 2604 103.011C2604 104.083 2604.85 103.998 2605.77 103.998C2607.26 103.998 2608.61 103.803 2609.1 102.306C2609.4 101.367 2612.87 97.3104 2611.57 96.1648C2610.05 94.8137 2607.57 98.1684 2607.03 98.9222C2606.52 99.6152 2605.95 100.847 2605.91 101.68C2605.89 102.24 2605.87 103.825 2606.3 102.526C2607.11 100.101 2608.18 97.6029 2609.73 95.5381" stroke="black" stroke-width="3" stroke-linecap="round"/>
<path d="M2629.22 103.39C2627.25 102.876 2635.95 89.4415 2635.95 97.65C2635.95 101.684 2636.46 105.815 2634.12 109.2C2633.36 110.306 2631.88 111.917 2630.45 111.999C2629.69 112.043 2628 109.745 2628 108.97C2628 107.216 2628.02 105.935 2628.78 104.346C2629.84 102.142 2631.19 100.109 2632.13 97.8272C2632.71 96.4259 2634.12 94.0549 2634.12 96.8883C2634.12 100.189 2634.29 103.275 2633.37 106.419C2633.32 106.588 2631.55 111.512 2631.08 109.289C2630.79 107.963 2630.45 107.222 2630.45 105.781C2630.45 104.689 2631.67 102.697 2631.67 104.825C2631.67 105.575 2631.67 107.075 2631.67 107.075C2631.67 107.075 2631.67 105.894 2631.67 105.303" stroke="black" stroke-width="3" stroke-linecap="round"/>
<path d="M2595 114C2595 118.547 2596.22 123.199 2599.17 126.871C2602.94 131.579 2609.75 133.457 2615.6 134.623C2621.76 135.854 2627.72 133.986 2632.39 130.231C2633.68 129.198 2634.51 128.177 2635.22 126.758C2635.6 125.991 2635.58 125.003 2636 124.215" stroke="black" stroke-width="3" stroke-linecap="round"/>
<path d="M2372 103.166C2372 101.565 2372 99.9632 2372 98.3618C2372 96.4099 2372.82 95.3388 2373.77 93.7267C2374.2 92.9994 2376.16 92.8162 2376.91 93.1854C2378.47 93.9632 2379.6 97.6263 2380.3 99.0723C2381.44 101.443 2384.04 111.722 2379.05 111.996C2377.37 112.089 2376.71 110.371 2376.16 109.053C2375.48 107.418 2374.16 106.091 2373.69 104.384C2373.44 103.505 2373.53 102.549 2373.53 101.644C2373.53 100.956 2374.17 98.0234 2375.24 98.0234C2375.59 98.0234 2375.89 98.6434 2375.99 98.9031C2376.63 100.624 2376.95 102.575 2377.33 104.35C2377.38 104.575 2378.48 108.424 2378.2 109.121C2377.84 110.02 2377.47 107.324 2377.09 106.431C2376.7 105.49 2376.39 104.528 2376.31 103.504C2376.2 102.116 2376.08 97.4021 2377.35 101.018C2377.95 102.717 2378.41 104.957 2378.68 106.752C2378.7 106.916 2378.88 109.45 2378.2 108.342C2376.99 106.373 2376.96 102.965 2376.91 100.662C2376.89 99.9118 2377.1 98.8889 2376.89 98.1588C2376.77 97.7269 2376.29 97.418 2376.29 96.9239C2376.29 96.1825 2374.15 94.5345 2374.15 96.0104C2374.15 96.6681 2374.8 97.2636 2375 97.9219C2375.2 98.5866 2375.07 99.4274 2375.07 100.121" stroke="black" stroke-width="3" stroke-linecap="round"/>
<path d="M2353.95 113.953C2353.95 110.892 2354.26 107.735 2353.3 104.777C2353.11 104.181 2352.85 103.595 2352.61 103.018C2352.33 102.384 2351.72 101.86 2351.31 101.303C2350.82 100.628 2349.95 100 2349.05 100C2347.59 100 2346.88 100.744 2346.42 102.006C2346.11 102.862 2346 103.722 2346 104.622C2346 106.119 2345.98 107.573 2346.3 109.05C2346.7 110.949 2348.02 115 2350.66 115C2351.49 115 2352.16 114.13 2352.36 113.43C2352.79 111.925 2352.71 110.349 2352.2 108.861C2351.79 107.672 2351.13 106.563 2350.46 105.494C2350.17 105.027 2349.36 105.19 2349.05 105.484C2348.23 106.262 2348.49 107.745 2348.66 108.711C2348.75 109.229 2348.97 109.813 2349.47 110.073C2350.47 110.6 2350.83 107.443 2350.88 106.996C2350.93 106.548 2351.04 105.781 2350.88 105.339C2350.78 105.068 2350.45 104.997 2350.35 104.797" stroke="black" stroke-width="3" stroke-linecap="round"/>
<path d="M2350.01 103C2350.01 104.135 2350.01 105.271 2350.01 106.406C2350.01 107.267 2349.93 108.23 2350.29 109.029C2350.52 109.516 2350.54 110.086 2350.65 110.605C2350.72 110.978 2350.91 111.347 2350.91 111.73C2350.91 112.122 2351.11 112.6 2350.91 113" stroke="black" stroke-width="3" stroke-linecap="round"/>
<path d="M2377.99 131C2377.99 131.94 2378.01 132.884 2377.99 133.824C2377.96 134.872 2377.33 135.822 2376.71 136.62C2375.26 138.501 2372.87 139.96 2370.44 139.999C2369.56 140.013 2368.91 139.822 2368.15 139.391C2367.55 139.051 2367.04 138.561 2366.53 138.095C2365.94 137.549 2365.32 137.042 2364.75 136.476C2364.05 135.78 2363.67 135.158 2363.37 134.22C2363.26 133.868 2363.16 133.478 2363 133.16" stroke="black" stroke-width="3" stroke-linecap="round"/>
<path d="M2404.68 127.461C2404.68 127.968 2410.43 131.211 2411.14 131.716C2414.73 134.282 2418.1 137.36 2422.3 138.842C2428.6 141.066 2433.61 141.905 2440.07 139.271C2450.82 134.887 2458.25 124.278 2466.01 116.046C2468.84 113.049 2472 109.45 2474.12 105.887C2475.28 103.916 2477.05 102.912 2477.58 100.622" stroke="black" stroke-width="3" stroke-linecap="round"/>
<path d="M2571.13 132.406C2561.83 133.383 2551.8 135.649 2542.5 134.195C2532.04 132.558 2522.2 128.61 2512.73 123.842C2503.71 119.302 2496.01 112.983 2488.87 105.78C2485.89 102.778 2482.64 99.8895 2481.11 95.6186C2480.26 93.2588 2478.25 90.6233 2478 88.1987" stroke="black" stroke-width="3" stroke-linecap="round"/>
<path d="M2305 128.33C2289.42 128.33 2273.51 134.211 2258.21 128.516C2254.41 127.101 2251.15 124.496 2248.33 121.534C2242.24 115.139 2234.93 109.108 2229.72 101.982C2224 94.1732 2219.96 84.647 2216.48 75.6344C2215.45 72.9561 2214 70.8759 2214 68" stroke="black" stroke-width="3" stroke-linecap="round"/>
<path d="M2680 124.85C2697.7 124.85 2715.31 126.958 2730.2 115.366C2741.67 106.444 2749.92 95.8225 2757.15 83.3889C2761.21 76.4107 2767 67.197 2767 59" stroke="black" stroke-width="3" stroke-linecap="round"/>
</svg>
