<svg width="129" height="182" viewBox="0 0 129 182" fill="none" xmlns="http://www.w3.org/2000/svg">
<g clip-path="url(#clip0_570_6390)">
<path fill-rule="evenodd" clip-rule="evenodd" d="M65.0324 25.8876C68.5799 21.4977 72.3971 17.8225 75.7538 14.5908C76.5554 13.8189 77.3309 13.0723 78.0701 12.3474C82.1261 8.36902 87.6207 3.51903 95.9705 1.62937C95.4357 1.75037 99.5731 0.623951 102.157 0.257404C103.667 0.0431239 106.109 -0.195645 108.75 0.259452C111.357 0.708466 116.231 2.252 119.087 7.42533C120.596 10.1564 121.372 12.9406 121.833 14.8206C122.057 15.7322 122.251 16.6346 122.405 17.3425L122.437 17.4975C122.611 18.2981 122.731 18.8421 122.85 19.3061C123.472 21.7387 124.015 23.965 124.54 26.1184C125.277 29.1395 125.979 32.0172 126.815 35.1199C131.72 53.3387 127.823 69.8866 120.555 84.8944C111.855 102.857 98.9391 118.907 87.3228 132.886C85.2869 135.337 83.366 137.55 81.5553 139.638C77.1266 144.742 73.3576 149.085 70.179 154.267C69.9769 154.596 69.7525 154.972 69.5059 155.385C68.0319 157.852 65.7644 161.647 62.7219 164.867C62.7065 164.886 62.6278 164.98 62.4643 165.195C62.3446 165.352 62.2142 165.527 62.0369 165.767C61.8743 165.986 61.6591 166.278 61.4394 166.569L61.4332 166.578C60.6974 167.553 59.008 169.793 56.5375 171.568C56.1825 171.823 55.6872 172.273 54.4907 173.51C54.4017 173.602 54.3056 173.702 54.2028 173.808C53.2061 174.845 51.5821 176.534 49.7286 177.998C48.3678 179.074 46.1805 180.471 43.2333 181.003C39.9241 181.6 36.5758 180.928 33.7799 179.148C29.3255 176.311 27.926 171.736 27.5702 170.572L27.561 170.542C26.9933 168.687 26.7166 166.849 26.573 165.842C26.3991 164.621 26.3754 164.424 26.3943 164.487C25.3182 159.942 23.8288 155.416 22.1366 150.334L21.9762 149.853C20.3619 145.007 18.5668 139.618 17.2139 134.027C14.5501 123.019 13.4535 112.15 12.6968 101.711C12.5339 99.4661 12.3933 97.2084 12.2664 94.9569C11.501 92.0567 10.7824 89.1423 10.1082 86.2029C9.92702 85.4137 9.6974 84.6779 9.32666 83.4902C9.20447 83.0987 9.06702 82.6578 8.91097 82.1503C8.38215 80.4307 7.63702 77.9106 7.29246 75.1378C6.80252 71.1952 7.02556 67.5303 7.89312 64.106C8.06567 58.8885 8.94912 53.7256 10.3072 49.4321C11.3526 46.1275 12.6155 42.4983 14.4043 38.807C15.945 35.6281 18.1593 33.3479 19.1794 32.2973C19.2137 32.2621 19.2465 32.2283 19.278 32.1958C20.2566 31.1862 20.5013 30.9065 20.5269 30.8855C20.542 30.8603 20.5576 30.8345 20.5735 30.8081C21.8696 28.6566 25.7991 22.1338 30.6002 17.2785C32.8496 15.0037 36.8776 11.4105 42.2753 10.2084C45.3367 9.5266 48.9378 9.60152 52.5127 11.2068C55.9851 12.766 58.4336 15.3196 60.1079 17.8748C61.8117 20.4752 63.4629 23.1406 65.0324 25.8876ZM48.7459 33.3071C48.7459 33.3076 48.7357 33.3143 48.7156 33.3262C48.7359 33.3126 48.7459 33.3067 48.7459 33.3071Z" fill="#FB0153"/>
<path fill-rule="evenodd" clip-rule="evenodd" d="M92.1811 10.4997C91.8371 10.6521 91.5196 10.7924 91.2358 10.9137C89.5119 11.6498 87.7012 12.1948 86.0133 12.7031C85.348 12.9032 84.703 13.0976 84.0885 13.2957C83.8938 13.3585 83.7015 13.422 83.5099 13.4866C82.2301 14.4438 81.0949 15.5444 80.0277 16.9544C78.4242 19.0724 76.4497 21.3582 74.5085 23.239C74.0863 23.6482 73.5555 24.0964 73.0833 24.4951C72.8268 24.7118 72.5875 24.9138 72.3924 25.0871C71.745 25.6617 71.2633 26.1737 70.9487 26.7256C67.722 32.3854 65.491 39.668 66.8459 45.9486C66.946 46.413 67.0324 46.894 67.1128 47.3676C67.7994 48.3104 68.5204 49.3157 69.2134 50.3449C69.4371 50.0046 69.6372 49.6627 69.81 49.3162L70.5433 47.8462L73.4765 49.3162L72.7432 50.7862C72.2831 51.7085 71.7048 52.562 71.0846 53.3554C71.1792 53.5248 71.2714 53.6937 71.361 53.8621C71.6463 54.3983 71.8633 54.6925 71.9805 54.8367C72.0389 54.9085 72.0812 54.9539 72.1211 54.9966C72.1226 54.9982 72.1939 55.0729 72.2529 55.1463L72.2552 55.149C72.2796 55.1793 72.389 55.315 72.4778 55.5097C72.524 55.6112 72.9205 56.5088 72.2026 57.3042C71.9099 57.6285 71.5724 57.748 71.3967 57.794C71.2141 57.8418 71.0634 57.8473 70.9892 57.8479C70.8422 57.8491 70.7247 57.8298 70.6973 57.8254C70.6535 57.8185 70.6152 57.8108 70.5999 57.8077L70.5537 57.7984C70.5157 57.7908 70.4749 57.7832 70.4144 57.7774C70.2941 57.7659 70.0255 57.7555 69.575 57.8375C69.1843 57.9088 68.5924 58.2038 67.807 58.8512C67.0499 59.4753 66.2518 60.3094 65.4487 61.2409C64.6491 62.1683 63.8821 63.1475 63.1722 64.0542L63.1344 64.1025C62.4595 64.9645 61.8026 65.8036 61.2623 66.3862C58.8834 68.9517 56.7334 71.7158 54.5452 74.5505C54.4543 74.6681 54.3633 74.786 54.2723 74.904C52.1853 77.6084 50.0526 80.3717 47.7019 82.9762C47.1887 83.545 46.4158 84.1843 45.7468 84.7381L45.6509 84.8174C45.2642 85.1382 44.9033 85.4387 44.5851 85.7188C47.2962 85.747 50.3516 86.0992 53.257 86.9331C56.2807 87.8 59.2478 89.2191 61.464 91.4408C61.837 91.8142 62.2094 92.1735 62.5832 92.521C64.1221 92.3178 65.5802 92.008 66.9237 91.5208C67.2639 91.3968 68.0652 91.2086 68.6729 91.1897C68.826 91.185 69.1 91.1842 69.3922 91.2603C69.568 91.3058 70.5317 91.5875 70.7117 92.6701C70.7903 93.1423 70.6568 93.5251 70.5485 93.7448C70.4396 93.966 70.3045 94.13 70.2081 94.2343C70.0158 94.443 69.7856 94.6187 69.5781 94.7615C69.4556 94.8462 69.2384 95.0525 68.9394 95.4416C68.6542 95.8127 68.3547 96.2693 68.0491 96.7729C68.0402 96.7878 68.0312 96.8027 68.0222 96.8176C68.2949 97.0051 68.5719 97.1926 68.8532 97.3801C69.3087 97.6845 69.511 98.1363 69.5674 98.5027C69.6159 98.8173 69.5613 99.0683 69.5317 99.1805C69.4715 99.4095 69.3746 99.5759 69.3467 99.6237C69.2711 99.7524 69.1868 99.8606 69.1435 99.9148C69.0406 100.044 68.9083 100.193 68.7783 100.335C68.5093 100.629 68.1457 101.008 67.7816 101.382C67.5015 101.669 67.2296 101.947 66.9892 102.191C66.562 102.627 66.2349 102.96 66.1393 103.07C63.9845 105.551 62.1675 108.209 60.4919 110.999C60.0266 111.975 59.5569 112.954 59.0748 113.934C57.7804 116.567 56.5191 119.271 55.2487 121.995C53.0036 126.809 50.7296 131.685 48.1921 136.334C47.7427 137.157 47.2505 137.968 46.7245 138.754C47.8562 138.947 48.9578 139.207 50.0407 139.514C50.1257 139.506 50.2102 139.498 50.2941 139.491C50.6809 139.457 51.0498 139.428 51.4073 139.4C52.1602 139.342 52.862 139.287 53.5721 139.191C53.5926 139.185 53.633 139.173 53.6981 139.15C53.8388 139.1 54.0251 139.028 54.2567 138.935C54.4102 138.874 54.5861 138.802 54.7742 138.726C55.1208 138.585 55.5095 138.427 55.8777 138.285C56.4491 138.062 57.0805 137.831 57.6205 137.689C57.882 137.62 58.2033 137.55 58.5229 137.535C58.683 137.527 58.9112 137.528 59.1628 137.586C59.4091 137.642 59.8056 137.783 60.1366 138.151C60.5236 138.583 60.6352 139.082 60.6764 139.365C60.7229 139.682 60.7177 139.999 60.6982 140.269C60.6587 140.814 60.5406 141.414 60.4138 141.947C60.2228 142.751 59.977 143.545 59.8185 144.032C59.8354 144.047 59.8523 144.062 59.8687 144.076C60.036 144.228 60.1969 144.382 60.3346 144.538C60.4553 144.675 60.6488 144.911 60.7776 145.226C60.9281 145.594 61.0279 146.187 60.6983 146.785C60.4295 147.273 60.0131 147.491 59.8735 147.56C59.7077 147.642 59.5358 147.699 59.4771 147.72C59.3843 147.752 59.3449 147.765 59.3049 147.782C59.299 147.784 59.294 147.785 59.2897 147.788C58.1487 148.997 57.1725 150.564 56.267 152.308C55.6501 153.496 55.1038 154.689 54.5604 155.874C54.2867 156.471 54.0138 157.067 53.733 157.66C52.9015 159.414 52.1389 161.206 51.3618 163.032L51.2404 163.317C50.8981 164.121 50.5524 164.931 50.1977 165.742C50.2633 165.868 50.3277 165.994 50.3905 166.122C50.5164 165.902 50.6437 165.679 50.7656 165.472C50.9209 165.209 51.0841 164.941 51.2414 164.713C51.3612 164.54 51.6013 164.198 51.9249 163.954C52.4297 163.576 52.7902 163.245 53.1908 162.878C53.4327 162.657 53.6892 162.422 54.001 162.155C54.7688 161.497 55.6628 160.852 56.9465 160.384C57.5438 160.167 58.0796 159.819 58.5916 159.356C59.1276 158.723 59.6709 158.094 60.2127 157.469C60.3475 157.283 60.4835 157.089 60.6214 156.889C60.8075 156.619 61.0032 156.327 61.205 156.026C61.6066 155.427 62.0324 154.792 62.4545 154.22C63.1093 153.332 63.8678 152.43 64.7961 151.707C65.0034 151.545 65.2165 151.372 65.434 151.189C65.7248 150.8 66.0081 150.41 66.283 150.015C67.541 148.209 68.6858 146.353 69.8579 144.452C70.2677 143.788 70.6808 143.118 71.1033 142.443C72.7146 139.868 74.4337 137.268 76.5068 134.86C77.2654 133.98 78.0244 133.107 78.783 132.239C79.1544 131.535 79.525 130.827 79.8963 130.117C80.0058 129.908 80.1153 129.698 80.2247 129.489C82.8016 124.555 85.434 119.517 88.63 114.818C93.5313 107.613 98.4223 100.354 102.158 92.641C106.66 83.3465 108.684 74.3129 109.001 63.852C109.362 51.9238 108.181 39.9694 106.63 28.0492C106.441 26.5987 106.3 25.0448 106.158 23.4809L106.133 23.1994C105.981 21.5274 105.824 19.8381 105.6 18.1704C105.556 17.8414 105.51 17.5146 105.461 17.1907C104.803 16.2232 104.091 15.4053 103.344 14.8098C100.683 12.6916 98.3645 10.9442 95.9447 10.0743C95.3834 9.87214 94.8127 9.71657 94.2271 9.61891C93.4836 9.92368 92.7901 10.2304 92.1811 10.4997ZM99.4465 8.0683C101.023 8.92668 102.527 10.0079 103.986 11.1362C103.729 10.4592 103.441 9.81369 103.114 9.20541C102.774 8.57209 102.252 8.2241 101.453 8.0734C100.888 7.96686 100.211 7.96898 99.4465 8.0683ZM110.081 29.1695C111.54 40.6402 112.632 52.2807 112.278 63.9516C111.95 74.8287 109.831 84.3247 105.108 94.0766C101.252 102.039 96.2246 109.489 91.3398 116.67C90.3493 118.126 89.4142 119.618 88.5143 121.137C89.1969 120.341 89.8778 119.541 90.5549 118.734C101.093 106.181 112.04 92.0707 115.46 76.282C117.285 67.8573 115.933 59.0249 114.58 50.1858C114.306 48.3947 114.032 46.6033 113.784 44.815C113.696 44.1758 113.497 43.5452 113.233 42.8043C113.191 42.685 113.146 42.561 113.099 42.4329C112.874 41.8108 112.615 41.0929 112.431 40.3545C112.159 39.2649 111.999 38.1633 111.856 37.1441C111.848 37.0804 111.838 37.0169 111.83 36.9537C111.694 35.9822 111.569 35.0882 111.375 34.2177C110.998 32.5222 110.553 30.8501 110.081 29.1695ZM81.5014 134.118C82.5772 132.89 83.6624 131.66 84.7507 130.428C87.5457 127.26 90.3571 124.075 93.0645 120.85C103.56 108.348 115.051 93.6656 118.665 76.9794C120.631 67.9014 119.159 58.3438 117.798 49.506C117.53 47.7605 117.265 46.043 117.033 44.3629C116.895 43.3703 116.597 42.4738 116.322 41.7007C116.268 41.5481 116.215 41.4015 116.164 41.2597C115.942 40.6442 115.752 40.1167 115.612 39.5572C115.388 38.6573 115.249 37.7159 115.104 36.6869C115.094 36.6146 115.084 36.5419 115.073 36.4687C114.942 35.5259 114.8 34.5067 114.575 33.5016C113.976 30.8084 113.21 28.1565 112.459 25.5606C112.279 24.9381 112.1 24.3189 111.924 23.703C111.403 21.8732 110.605 19.6943 109.541 17.6487C109.249 17.0874 108.932 16.5271 108.59 15.981C108.107 13.075 107.354 10.1644 106.001 7.64705C105.107 5.98117 103.64 5.14109 102.059 4.84305C100.546 4.55777 98.9023 4.75627 97.4028 5.10807C96.173 5.39644 94.9299 5.8177 93.7947 6.25516C91.5994 6.07126 89.2688 6.49658 86.7459 7.76095C85.0274 8.62206 83.4474 9.49206 81.9791 10.5382C79.955 11.2503 77.9011 12.1719 75.9871 13.6641C75.8992 13.7327 75.8105 13.8018 75.721 13.8714C71.7711 16.9493 66.4065 21.1295 63.7126 25.9899L62.9163 27.4266L65.783 29.0229L66.5792 27.5862C66.8932 27.0197 67.2524 26.4607 67.6489 25.9096C65.1805 30.4755 63.2196 36.1453 63.1636 41.7546C60.0926 36.5098 56.7365 31.3652 52.8254 26.7054C50.9949 24.5244 49.1676 22.3479 46.3533 20.7294C44.7101 19.7844 42.956 19.4873 41.3262 19.4036C40.6868 19.3707 40.0032 19.3714 39.3305 19.3834C38.2247 18.7666 37.0676 18.2157 35.8465 17.7785C34.5246 17.3053 33.1435 17.1907 31.8889 17.1759C31.2571 17.1685 30.6292 17.1867 30.0417 17.2054C29.9894 17.2071 29.9375 17.2088 29.8859 17.2104C29.3466 17.2278 28.8459 17.2438 28.3615 17.2438C21.6765 17.2438 14.5493 19.7734 9.21224 23.7361C9.01374 23.8834 8.81453 24.0302 8.61509 24.1771C6.40091 25.8083 4.15439 27.4633 2.48113 30.2586C0.72527 33.1918 0.612623 36.3535 0.510286 39.226C0.498556 39.5552 0.486963 39.8806 0.473045 40.2015C0.306131 44.0494 0.319803 47.9898 0.472808 51.8238C0.478554 51.9678 0.485293 52.1116 0.49295 52.2552C0.00920108 56.2283 0.00922897 60.2181 0.00925845 64.4131L0.00925891 64.5114C0.00925891 65.2831 0.00700168 66.0665 0.00471629 66.8596C-0.0254153 77.3162 -0.0604529 89.4749 5.0078 99.3531C6.01726 101.321 7.02262 103.304 8.03123 105.294C8.24998 105.726 8.46889 106.158 8.68796 106.59C9.75381 109.449 10.9112 112.268 12.1114 115.075C13.8227 119.077 15.9316 122.982 17.9983 126.81C19.2072 129.049 20.4018 131.261 21.494 133.451C24.6965 139.871 28.0003 146.301 31.7528 152.492C34.517 157.052 36.543 161.717 38.4028 166.788C38.6354 167.422 38.8699 168.042 39.1004 168.653C40.4193 172.144 41.6107 175.297 41.6107 178.754L41.6106 178.773C41.6101 178.898 41.6072 179.515 41.6698 180.032C41.6873 180.176 41.7143 180.353 41.7599 180.531C41.7923 180.658 41.8843 181.004 42.1348 181.325C42.2737 181.503 42.5434 181.779 42.9812 181.919C43.4621 182.072 43.9169 181.989 44.2538 181.825C44.7779 181.57 45.0356 181.118 45.111 180.986L45.1119 180.984C45.7486 179.868 46.6817 178.884 47.7173 177.793C48.0667 177.425 48.4279 177.044 48.7931 176.642C51.4885 173.676 53.9588 170.499 56.3878 167.376C57.4972 165.95 58.598 164.535 59.7076 163.156C60.1196 162.644 60.5401 162.136 60.9671 161.63C61.6653 160.97 62.2606 160.234 62.7874 159.511C62.9085 159.371 63.0297 159.232 63.1514 159.092C63.556 158.627 63.9638 158.158 64.3732 157.682C65.5497 156.317 66.7284 154.916 67.833 153.46C69.9482 151.636 72.3134 149.107 73.9262 146.837C76.8019 142.788 79.2107 138.451 81.5014 134.118ZM49.3271 170.999C48.3698 172.16 47.39 173.305 46.3685 174.429C46.1196 174.703 45.8378 174.999 45.5379 175.314C45.2731 175.592 44.9943 175.885 44.7117 176.19C44.2866 173.054 43.1708 170.12 42.1316 167.386C41.9086 166.799 41.6891 166.222 41.4807 165.654C39.5797 160.471 37.4689 155.591 34.5554 150.785C31.9958 146.562 29.6417 142.213 27.3697 137.8C27.627 138.155 27.8842 138.51 28.1411 138.864C30.5824 142.232 33.0016 145.569 35.2931 149.014C36.1231 150.262 36.9527 151.506 37.7814 152.749C39.9121 155.944 42.0365 159.129 44.1424 162.343C44.4414 162.8 44.7457 163.245 45.0518 163.693C45.2684 164.01 45.4859 164.329 45.7031 164.653C45.1903 165.807 44.6978 166.949 44.2236 168.063C44.0315 168.515 43.8825 168.912 43.7785 169.256C43.6823 169.574 43.5925 169.949 43.5889 170.32C43.5867 170.538 43.6094 171.631 44.6789 172.088C45.1532 172.291 45.5881 172.236 45.8428 172.17C46.1004 172.104 46.3044 171.994 46.4384 171.911C46.9202 171.614 47.3571 171.114 47.6736 170.698C47.8738 170.434 48.0747 170.139 48.263 169.827C48.3224 170.004 48.4169 170.214 48.5721 170.417C48.752 170.653 49.0076 170.868 49.3271 170.999ZM47.3024 161.166C49.2597 157.046 51.4937 152.919 54.09 149.353C54.9917 148.114 55.4479 146.858 55.9389 145.344C55.8884 145.315 55.8375 145.286 55.786 145.257C54.9772 144.801 54.1619 144.41 53.6133 144.2C52.2914 143.694 51.0111 143.235 49.7391 142.85C48.9552 142.941 48.2327 143.065 47.5601 143.265C47.3288 143.334 47.0462 143.36 46.9159 143.372H46.9133C46.7162 143.391 46.4763 143.406 46.2153 143.417C45.6959 143.44 45.0453 143.447 44.4246 143.415C43.8633 143.385 43.121 143.316 42.5415 143.096C42.3184 143.011 41.6528 142.74 41.3218 142.02C41.2494 141.863 41.2025 141.71 41.1758 141.562C41.0062 141.528 40.7875 141.471 40.5673 141.371C40.367 141.28 39.7883 140.986 39.5411 140.28C39.2508 139.45 39.6433 138.785 39.8751 138.498C40.1088 138.208 40.4008 138.001 40.6297 137.857C41.1211 137.55 41.6647 136.914 42.2965 135.97C42.5541 135.584 42.8002 135.19 43.0545 134.782C43.0998 134.709 43.1454 134.636 43.1914 134.562C43.485 134.092 43.7978 133.597 44.1154 133.161C47.079 129.09 49.396 124.665 51.784 120.104C52.1838 119.34 52.5855 118.573 52.9926 117.803L53.0972 117.605C54.5414 114.873 55.9921 112.128 57.5949 109.45C57.6817 109.267 57.7686 109.085 57.8556 108.902C59.6092 105.219 61.4247 101.404 63.6094 97.901C63.6395 97.8531 63.6706 97.8021 63.7028 97.7488C62.9517 97.1746 62.2167 96.5799 61.4886 95.9492C61.0584 95.9892 60.6295 96.0222 60.2031 96.0512C58.8901 96.1383 57.5761 96.1814 56.3102 96.2206L56.0553 96.2285C54.8717 96.2646 53.7356 96.2991 52.6415 96.365C52.0218 96.4018 48.2454 96.4874 44.6004 96.3116C42.7838 96.2246 40.9247 96.0692 39.484 95.7923C38.7773 95.6566 38.0671 95.473 37.4915 95.2016C37.0629 94.9992 35.9943 94.4171 35.9207 93.1627C35.839 91.7703 36.3727 90.49 36.9137 89.5023C37.3275 88.7476 37.8444 88 38.2513 87.4117C38.373 87.2352 38.485 87.0736 38.5814 86.93C42.3849 81.2645 46.8637 75.8007 51.4307 70.7913C55.8389 65.956 60.1175 61.0347 64.3289 56.0161C64.7614 55.5008 65.2543 54.9586 65.7503 54.4229C65.0778 53.2977 64.6946 52.0685 64.431 50.922C64.4037 50.8028 64.3773 50.6835 64.352 50.5643C63.2748 48.5895 62.1828 46.6187 61.0606 44.6689C55.9822 37.8218 50.8043 31.3916 43.9241 26.4405C43.6068 26.2122 43.2934 25.9851 42.9828 25.76C41.4547 24.653 39.9952 23.5954 38.4933 22.6926C37.9394 22.709 37.3618 22.7255 36.7304 22.7255C30.0407 22.7255 23.2062 25.5223 17.025 28.7348C12.0884 31.3004 9.173 36.4922 6.69215 41.9315C5.07907 45.4684 4.23046 48.8672 3.78405 52.3643C3.88805 54.0341 4.12291 55.6958 4.36857 57.4339C4.39382 57.6125 4.41917 57.792 4.44452 57.9723C4.74498 60.1102 5.04029 62.359 5.04029 64.6821C5.04029 73.8723 5.87632 83.7262 7.87119 92.6332C8.83971 96.9573 10.1608 101.133 11.6955 105.267C13.9487 109.709 16.2083 114.136 18.5847 118.491C21.3282 123.519 24.5517 128.243 27.9177 132.947C28.8535 134.255 29.8029 135.565 30.7558 136.879C33.2117 140.267 35.691 143.687 38.0217 147.191C38.8467 148.431 39.6735 149.671 40.5007 150.912C42.634 154.111 44.7698 157.313 46.8835 160.539C47.0113 160.734 47.1522 160.944 47.3024 161.166ZM3.74303 40.4918C6.21556 35.0801 9.51223 28.9367 15.5155 25.8167C19.5109 23.7401 23.9729 21.7217 28.6283 20.5295C28.5391 20.5304 28.4501 20.5308 28.3615 20.5308C22.4301 20.5308 15.9787 22.8027 11.1642 26.3773C10.9851 26.5103 10.8092 26.6404 10.6365 26.7682C8.34669 28.4615 6.61447 29.7425 5.29318 31.9498C3.99565 34.1173 3.9054 36.4109 3.78762 39.4041C3.77559 39.71 3.76327 40.0232 3.74933 40.3443C3.7472 40.3934 3.7451 40.4426 3.74303 40.4918ZM41.4816 88.499C41.4216 88.5876 41.3618 88.6763 41.3021 88.7649C41.1578 88.9799 41.0136 89.1885 40.8713 89.3948C40.4846 89.9542 40.1117 90.4939 39.788 91.0846C39.5174 91.5788 39.3448 92.0025 39.2583 92.3633C39.4708 92.4277 39.7498 92.4967 40.1016 92.5642C41.3085 92.7964 42.9808 92.9431 44.7574 93.0286C48.299 93.1988 51.957 93.1133 52.4461 93.0835C53.59 93.0152 54.772 92.9791 55.9442 92.9431L56.2096 92.9352C56.8519 92.9156 57.4919 92.8944 58.1292 92.8685C56.5507 91.6377 54.5536 90.7238 52.3548 90.093C49.664 89.3211 46.7757 89.0034 44.2235 89.0034C43.4624 89.0034 42.7788 88.9461 42.209 88.7884C41.9915 88.7288 41.7357 88.6386 41.4816 88.499ZM38.7804 92.1672C38.7826 92.1672 38.801 92.1766 38.8292 92.1978C38.7921 92.1782 38.7781 92.168 38.7804 92.1672ZM56.1256 141.724C56.4017 141.859 56.6843 142.005 56.9651 142.156C57.0441 141.885 57.1246 141.591 57.1967 141.298C57.153 141.314 57.1088 141.332 57.0641 141.349C56.7408 141.474 56.4288 141.601 56.1256 141.724Z" fill="black"/>
<path d="M78.0308 44.2744C78.0308 46.2518 78.2526 48.7792 77.4422 50.5862C76.9119 51.7687 76.7083 53.1611 75.9708 54.2404C75.4357 55.0234 74.8329 55.9358 74.7201 56.8979C74.6221 57.733 73.43 59.3366 72.8072 59.9616C71.5387 61.2344 69.7799 61.7134 68.2458 62.693C64.8567 64.857 60.6788 65.8673 56.6767 65.8673C55.8888 65.8673 54.7201 66.0869 54.0282 65.7012C53.6437 65.4869 53.2904 65.5599 52.8694 65.5351C52.4935 65.5129 52.2071 64.9017 51.8578 64.7046C50.9028 64.1656 49.1138 63.129 48.0689 62.896C47.1452 62.69 47.0316 61.7407 46.248 61.2165" stroke="#FB0153" stroke-width="20" stroke-linecap="round"/>
<path d="M79.0248 50.9185C77.3162 50.9185 75.4576 54.4693 74.0771 55.4216C72.7608 56.3297 70.9522 58.4143 69.9388 59.7217C68.8291 61.1533 67.2318 61.9396 66.0395 63.136C64.6023 64.578 59.1767 64.3297 57.4869 63.3759C56.0355 62.5567 54.1242 62.2922 52.5392 61.6226C51.2196 61.0651 50.0281 60.0947 49.2285 58.8912" stroke="#FB0153" stroke-width="20" stroke-linecap="round"/>
<path d="M68.9766 62.8393C68.9766 62.0409 69.5283 61.5272 69.5283 60.7633C69.5283 59.7424 70.0761 59.9735 70.7544 59.7791C71.7575 59.4915 72.0991 57.7074 73.1146 57.58C73.7945 57.4947 73.7282 56.995 74.0954 56.6265C74.5777 56.1426 75.5049 55.6068 76.1491 55.2118C77.6222 54.3085 78.8754 53.0394 80.3791 52.1054C81.0897 51.6639 81.9874 51.4902 80.8388 51.4902" stroke="#FB0153" stroke-width="20" stroke-linecap="round"/>
<path d="M49.9428 71.974C49.9428 74.1743 51.2434 73.2183 52.6402 72.097C54.0662 70.9523 55.2745 69.4743 56.7322 68.3909C57.6019 67.7444 58.6658 66.7456 59.6594 66.3763C60.8658 65.928 61.5274 64.7778 62.6327 64.2849C63.6793 63.8181 65.9044 63.9725 65.9431 65.3306C66.0224 68.118 62.4047 68.9608 60.487 70.0978C57.9095 71.6261 55.4277 73.36 52.916 75.0189C49.3498 77.3742 43.5017 80.4467 42.2185 84.9532C41.8623 86.2042 41.9427 87.4933 41.9427 88.8592C41.9427 90.5695 40.02 92.4967 39.184 93.9648C38.1782 95.7309 43.1835 93.0269 43.6438 92.8575C47.2459 91.5323 50.9134 90.7969 54.7551 90.7969C56.4154 90.7969 58.0758 90.7969 59.7361 90.7969C60.4533 90.7969 61.4036 95.2715 61.5292 95.9332C61.8782 97.7715 61.999 98.3263 63.7361 98.8243C64.6929 99.0986 65.5837 99.447 66.5561 99.7162C66.8337 99.793 68.2064 99.8167 68.3646 99.993C68.6062 100.262 68.4259 101.294 68.4259 101.669C68.4259 103.171 68.3532 98.6595 68.4872 97.1634C68.5306 96.6793 69.5602 89.6896 68.7017 89.6896C67.8265 89.6896 66.9582 91.1806 66.4795 91.7811C65.1526 93.4453 63.983 95.5301 63.0311 97.4402C61.2165 101.082 59.3691 104.243 56.8395 107.467C55.0363 109.765 53.6956 112.354 52.1497 114.818C51.4308 115.963 51.6769 117.963 51.598 119.308C51.5803 119.609 51.2131 119.804 51.0463 120.031C50.3147 121.027 49.9325 122.305 49.4064 123.414C48.624 125.063 47.8729 126.692 47.1841 128.381C47.0226 128.777 45.376 132.361 45.6669 132.595C46.1638 132.994 46.6979 135.662 46.8929 136.347C47.2256 137.515 48.3836 137.74 49.5443 138.269C50.6812 138.788 55.7593 138.052 55.9965 139.361C56.2355 140.68 55.1843 141.337 55.1843 142.421C55.1843 143.395 54.8279 144.515 54.6172 145.466C54.3948 146.47 53.8049 147.45 53.8049 148.511C53.8049 149.07 52.9773 151.037 52.9773 150.034" stroke="#FB0153" stroke-width="20" stroke-linecap="round"/>
<path d="M45.2523 142.56C43.518 142.56 43.8663 140.065 42.7695 139.515" stroke="#FB0153" stroke-width="20" stroke-linecap="round"/>
<path d="M51.5977 153.355C51.9974 153.405 51.8735 153.875 51.8735 154.186" stroke="#FB0153" stroke-width="20" stroke-linecap="round"/>
<path d="M47.75 160.146C47.75 160.3 47.9013 160.42 47.9433 160.56C47.9812 160.687 48.123 160.801 48.1898 160.915C48.2443 161.007 48.3499 161.072 48.4062 161.169C48.474 161.286 48.5823 161.384 48.674 161.491C48.7774 161.612 48.8553 161.756 48.9631 161.876C49.028 161.948 49.1509 162.067 49.1866 162.148C49.2203 162.224 49.3164 162.323 49.3781 162.388C49.5034 162.52 49.6443 162.693 49.7293 162.854C49.8122 163.012 49.8998 163.173 49.9687 163.335C50.0119 163.436 50.0767 163.611 50.1514 163.694C50.303 163.863 50.2471 164.054 50.3057 164.26C50.3266 164.334 50.4601 164.091 50.4706 164.061C50.5302 163.888 50.5498 163.698 50.6089 163.52C50.7418 163.12 50.9104 162.686 50.9104 162.26" stroke="#FB0153" stroke-width="2" stroke-linecap="round"/>
<path d="M51.6429 162.004C51.2071 162.004 50.8141 161.951 50.3997 161.795C50.2286 161.731 49.9869 161.587 49.8055 161.587C49.7331 161.587 49.3125 161.487 49.3125 161.523C49.3125 161.655 49.6314 161.827 49.7275 161.876" stroke="#FB0153" stroke-width="2" stroke-linecap="round"/>
<path d="M50.4304 164.754C50.3992 164.75 50.3628 164.704 50.342 164.683C50.3303 164.671 50.3565 164.788 50.3389 164.726C50.3193 164.657 50.3558 164.713 50.3711 164.751C50.379 164.771 50.3836 164.776 50.385 164.8C50.3858 164.813 50.411 164.815 50.419 164.829C50.4397 164.865 50.4653 164.879 50.4765 164.919C50.4802 164.931 50.4994 164.948 50.4702 164.948C50.4498 164.948 50.4414 164.987 50.4329 165.005C50.4257 165.02 50.4304 165.045 50.4304 165.062C50.4304 165.081 50.4122 165.107 50.4014 165.124C50.3792 165.159 50.3552 165.255 50.3281 165.187" stroke="#FB0153" stroke-linecap="round"/>
<path d="M50.2941 165.324C50.2941 165.242 50.2378 165.148 50.1943 165.082C50.1769 165.056 50.1725 165.016 50.1602 164.988C50.1427 164.949 50.122 164.889 50.1123 164.845C50.0971 164.777 50.0294 164.696 49.9929 164.635C49.9406 164.547 49.9284 164.447 49.9014 164.35C49.8711 164.241 49.8395 164.125 49.8395 164.012C49.8395 163.92 49.8395 163.827 49.8395 163.735C49.8395 163.697 49.8449 163.659 49.8281 163.625" stroke="#FB0153" stroke-linecap="round"/>
<path d="M45.0854 164.878C45.3138 165.13 45.4444 165.457 45.6 165.755C45.6994 165.945 45.8606 166.094 45.9592 166.281C46.0429 166.44 46.1302 166.6 46.2431 166.739C46.4029 166.935 46.5403 167.107 46.7019 167.289C46.7772 167.374 46.7998 167.635 46.8329 167.742C46.9019 167.965 47.0161 168.226 47.1363 168.427C47.2131 168.555 47.2608 168.742 47.3135 168.887C47.3698 169.042 47.4527 169.191 47.498 169.35C47.5661 169.589 47.7431 169.943 47.9033 170.136C47.9781 170.226 48.1873 170.581 48.1873 170.567C48.1873 170.352 48.0364 170.094 47.9251 169.91C47.8606 169.803 47.8617 169.602 47.7698 169.523C47.6018 169.378 47.5803 169.043 47.4227 168.885C47.3243 168.786 47.2291 168.575 47.1606 168.451C47.1258 168.388 47.0162 168.322 47.0077 168.254C46.9808 168.038 46.7027 167.848 46.6606 167.616C46.6216 167.4 46.5069 167.098 46.4058 166.895C46.3055 166.694 46.1339 166.444 46.1339 166.215C46.1339 166.03 46.0377 165.722 45.9058 165.589C45.7598 165.443 45.6761 165.24 45.5441 165.078C45.4509 164.964 45.3208 164.862 45.2602 164.725C45.2246 164.645 45.128 164.623 45.0951 164.537C45.0637 164.455 45.0655 164.42 44.998 164.352" stroke="#FB0153" stroke-linecap="round"/>
<path d="M44.9983 164.528C44.9983 165.682 44.8327 166.851 44.5396 167.969C44.484 168.181 44.3237 168.384 44.2993 168.604C44.289 168.698 44.2316 168.792 44.2144 168.887C44.1933 169.003 44.2288 169.126 44.2023 169.242C44.114 169.63 44.212 170.008 44.212 170.402C44.212 170.59 44.2616 170.852 44.2095 171.035C44.2004 171.067 44.1799 170.616 44.1464 170.555C44.0346 170.353 44.0922 170.038 43.9935 169.815C43.9715 169.765 43.7444 169.452 43.7969 169.547C43.8772 169.692 43.8506 169.844 43.8649 170.002C43.8819 170.19 43.9975 170.394 44.0469 170.577C44.0898 170.736 44.162 170.873 44.2217 171.015C44.2993 171.2 44.244 171.431 44.2557 171.629C44.2676 171.832 44.619 171.636 44.4304 171.541" stroke="#FB0153" stroke-linecap="round"/>
<path d="M43.7754 170.5C43.8246 170.506 43.8023 170.661 43.8023 170.703C43.8023 170.836 43.7988 170.81 43.8965 170.865C44.0666 170.959 44.1781 171.172 44.3406 171.262C44.4825 171.341 44.5295 171.577 44.653 171.673C44.7577 171.755 44.8679 171.839 44.9655 171.937C45.0053 171.977 45.1479 172.095 45.1479 172.012" stroke="#FB0153" stroke-linecap="round"/>
<path d="M45.0938 171.985C45.3022 171.985 45.5598 172.026 45.7606 171.964C45.9489 171.906 46.058 171.86 46.2106 171.73C46.4363 171.539 46.6687 171.364 46.9298 171.25C46.9999 171.22 47.1929 171.119 47.1929 171.027C47.1929 170.909 47.1778 170.779 47.1944 170.662C47.2032 170.6 47.2012 170.475 47.2258 170.419C47.2762 170.305 47.2033 170.275 47.1929 170.176C47.1894 170.143 47.1194 169.939 47.1421 170.002C47.1888 170.131 47.2143 170.266 47.2453 170.406C47.2889 170.603 47.3971 170.679 47.5219 170.818C47.6028 170.908 47.3466 170.646 47.2871 170.541C47.1671 170.328 47.0002 170.15 46.9103 169.919C46.8022 169.642 46.6473 169.388 46.547 169.111C46.5058 168.997 46.4176 168.907 46.3796 168.793C46.3265 168.633 46.2366 168.453 46.2241 168.286C46.1941 167.884 45.852 167.557 45.792 167.165C45.7681 167.01 45.7843 166.725 45.6649 166.605C45.6239 166.564 45.5514 166.536 45.5244 166.488C45.4458 166.351 45.469 166.403 45.5632 166.529C45.7842 166.825 46.0893 167.055 46.3317 167.335C46.4738 167.498 46.6198 167.678 46.7459 167.854C46.7934 167.92 46.8497 167.987 46.876 168.064C46.9481 168.273 47.0853 168.529 47.0853 168.758C47.0853 168.892 46.7623 168.904 46.7623 168.772" stroke="#FB0153" stroke-linecap="round"/>
<path d="M46.0085 167.638C46.0085 167.432 45.8183 167.297 45.6796 167.158C45.5093 166.987 45.2252 166.889 45.0277 166.747C44.9591 166.697 44.7997 166.523 44.9051 166.747C44.9719 166.889 45.115 167.036 45.1443 167.191C45.2137 167.556 45.2819 167.904 45.2819 168.28C45.2819 168.596 45.2793 168.868 45.0995 169.135C44.9294 169.388 44.8539 169.76 44.8229 170.056C44.768 170.579 44.7303 171.222 45.1593 171.607C45.3388 171.768 45.5272 171.739 45.7394 171.682C45.9975 171.614 45.9737 171.431 46.0758 171.226C46.1748 171.028 46.3587 170.862 46.3838 170.635C46.403 170.462 46.392 170.27 46.3853 170.095C46.3766 169.867 46.1884 169.628 46.1162 169.414C46.0424 169.195 45.8914 169.002 45.8067 168.785C45.7489 168.637 45.6574 168.486 45.545 168.373C45.5146 168.342 45.0956 167.912 45.0128 168.058C44.9085 168.241 44.9446 168.468 44.8782 168.664C44.7436 169.062 44.6936 169.506 44.784 169.92C44.8945 170.424 45.1299 170.915 45.4987 171.285C45.5794 171.366 45.7292 171.469 45.8471 171.472C45.9321 171.475 46.0604 171.535 46.1431 171.493C46.1718 171.479 46.2152 171.437 46.2223 171.405C46.2364 171.341 46.302 171.341 46.33 171.285C46.3521 171.24 46.4558 171.247 46.4989 171.208C46.5889 171.127 46.7248 171.083 46.8294 171.013C46.9208 170.952 47.0117 170.869 47.112 170.824C47.1651 170.8 47.2054 170.73 47.26 170.718C47.3622 170.695 47.0681 170.64 47.0312 170.629C46.914 170.596 46.8159 170.482 46.8159 170.359C46.8159 170.021 46.789 169.68 46.789 169.345C46.789 169.105 46.6795 168.986 46.493 168.847C46.3234 168.72 46.1748 168.575 46.0325 168.419C45.874 168.246 45.6925 168.08 45.5645 167.882C45.5108 167.799 45.4381 167.701 45.3686 167.632C45.3126 167.575 45.354 167.792 45.3656 167.87C45.3836 167.992 45.4418 168.111 45.4703 168.232C45.521 168.446 45.5496 168.667 45.572 168.886C45.5915 169.077 45.5779 169.276 45.5779 169.468C45.5779 169.76 45.4703 170.038 45.4703 170.332C45.4703 170.421 45.4434 170.51 45.4434 170.364C45.4434 170.176 45.4367 169.95 45.4852 169.77C45.5017 169.708 45.5123 169.498 45.557 169.453C45.6306 169.379 45.7488 169.648 45.7633 169.678C45.8315 169.82 45.8659 170.002 45.9158 170.152C45.957 170.276 46.0057 170.416 46.0085 170.548C46.0118 170.697 46.058 170.833 46.0145 170.98C45.9291 171.27 45.8102 170.818 45.7947 170.701C45.7923 170.683 45.8137 170.438 45.7394 170.512C45.6608 170.591 45.6839 170.75 45.6587 170.851" stroke="#FB0153" stroke-linecap="round"/>
</g>
<defs>
<clipPath id="clip0_570_6390">
<rect width="129" height="182" fill="white"/>
</clipPath>
</defs>
</svg>
