<svg width="150" height="173" viewBox="0 0 150 173" fill="none" xmlns="http://www.w3.org/2000/svg">
<g clip-path="url(#clip0_570_6374)">
<path fill-rule="evenodd" clip-rule="evenodd" d="M41.1711 0.176662C45.7993 -0.257367 52.9314 -0.143113 59.2974 3.49221C63.9027 6.122 67.3341 9.74554 69.8036 12.6537C70.9913 14.0525 72.1138 15.4802 73.0649 16.69C73.1214 16.7617 73.1772 16.8327 73.2324 16.903C74.2769 18.2311 75.1125 19.2853 75.9174 20.2134C77.3705 21.8889 79.5448 24.5664 81.3895 27.8849C83.4691 27.1275 85.6445 26.5197 87.9086 26.1083C98.5162 24.1809 108.247 24.5915 118.681 27.665C126.121 29.856 134.392 33.5409 140.641 39.8367C147.346 46.5922 151.171 55.8666 149.679 67.1064C148.399 76.7512 142.729 84.9727 138.676 90.1534C133.661 96.563 128.131 103.056 121.683 108.983C115.556 114.615 108.957 119.806 102.797 124.651C101.464 125.7 100.151 126.732 98.8681 127.749C92.3898 132.887 88.6822 135.886 85.7788 140.615C85.3131 141.374 84.8639 142.101 84.4312 142.802C81.1877 148.05 78.8914 151.766 77.7474 155.747C77.5234 156.527 77.2851 157.22 77.0977 157.748C77.0104 157.994 76.9229 158.235 76.8516 158.431L76.8369 158.471C76.7577 158.69 76.6967 158.858 76.6403 159.018C76.6243 159.063 76.6095 159.105 76.5958 159.145C76.584 159.531 76.554 160.104 76.472 160.727C76.4237 161.094 76.277 162.159 75.8226 163.415C75.5984 164.035 75.1025 165.265 74.1073 166.59C73.1196 167.905 70.9756 170.169 67.3324 171.074C64.0211 171.897 61.2789 171.136 59.7801 170.52C58.2874 169.907 57.251 169.131 56.724 168.702C55.6744 167.847 55.0089 167.006 54.7828 166.716C54.2393 166.02 53.8677 165.387 53.7357 165.161C53.399 164.584 53.0982 163.987 52.8978 163.581C52.4586 162.689 51.9536 161.588 51.5141 160.616C51.2369 160.003 50.9388 159.338 50.6787 158.756C50.5311 158.427 50.3956 158.124 50.2831 157.874C50.1774 157.638 50.0895 157.444 50.0182 157.288C48.9001 155.497 47.6106 153.476 46.281 151.391C44.3654 148.387 42.3663 145.253 40.6751 142.489C37.4898 137.286 34.4764 131.107 31.8218 125.665C30.4777 122.909 29.2257 120.342 28.0898 118.186C26.4447 115.062 24.658 112.01 22.7129 108.687C22.4362 108.214 22.1563 107.736 21.8732 107.251C19.6632 103.469 17.2897 99.349 15.1618 95.0028C14.181 92.9996 13.1044 90.9581 11.9272 88.7435C11.8113 88.5251 11.6943 88.3052 11.5762 88.0836C10.5239 86.1047 9.39495 83.9825 8.31244 81.8345C5.90794 77.064 3.43585 71.6035 1.87815 65.6234C-0.382916 56.9431 -0.536926 46.2793 1.06407 37.7326C2.72131 28.8856 6.99039 21.8962 12.0821 16.0942C12.2903 15.8569 12.5547 15.5332 12.8736 15.1428C14.9256 12.6305 19.2348 7.35466 25.3734 4.54663C29.7858 2.52825 35.7704 0.683119 41.1711 0.176662ZM49.8063 156.836C49.8051 156.832 49.8237 156.869 49.8657 156.958C49.8284 156.884 49.8075 156.84 49.8063 156.836ZM71.94 29.1968C72.2188 29.1711 72.4941 29.156 72.7654 29.1507C72.4879 29.1568 72.2126 29.1723 71.94 29.1968ZM108.32 49.773C104.599 48.9859 101.018 48.7525 97.2094 49.0492C97.4937 49.4427 97.7097 49.7909 97.866 50.0606C98.2539 50.7289 98.5453 51.3841 98.7644 51.977C99.8607 51.436 101.057 50.9728 102.351 50.6421C103.93 50.2383 106.083 49.854 108.32 49.773ZM110.093 75.1708C110.093 75.1708 110.086 75.169 110.072 75.1654C110.087 75.169 110.093 75.1709 110.093 75.1708Z" fill="#FB0153"/>
<path fill-rule="evenodd" clip-rule="evenodd" d="M51.4002 9.16597C50.1745 8.71671 48.7239 8.58888 45.9241 8.98788C45.664 9.02498 45.4027 9.07305 45.1403 9.13184C45.7775 9.29247 46.3865 9.4733 46.9588 9.67315C48.0539 10.0555 49.0994 10.3541 50.1794 10.6626C50.7118 10.8146 51.2526 10.9691 51.8118 11.1371C53.4547 11.6309 55.1494 12.215 56.8253 13.1345C57.5426 13.5281 58.2334 13.9308 58.9035 14.3433C58.0738 13.5466 57.2112 12.8175 56.2864 12.1787C55.9736 11.9627 55.6812 11.7595 55.4062 11.5683C53.616 10.3239 52.5633 9.5922 51.4002 9.16597ZM75.9503 34.6875C75.7307 34.3214 75.5355 33.9649 75.3537 33.6329C75.3333 33.5955 75.313 33.5584 75.2929 33.5217C74.7324 32.4993 74.263 31.6737 73.5412 30.9534C70.8723 28.2909 68.0916 25.6595 65.2307 23.1895C61.9444 20.3523 58.9637 18.0385 55.2463 15.9987C53.8699 15.2434 52.4318 14.7374 50.8667 14.267C50.396 14.1256 49.9017 13.9843 49.3924 13.8386C48.2632 13.5157 47.06 13.1717 45.8764 12.7584C44.2085 12.176 42.0805 11.7613 39.8265 11.5922C38.0987 12.7673 36.3857 14.27 34.7435 15.9855C31.2046 19.6823 28.2171 24.1336 26.3834 27.6569C26.1439 28.1171 25.9005 28.582 25.655 29.051C24.0868 32.0465 22.4271 35.2167 21.087 38.478C19.5375 42.2489 18.4762 46.0045 18.4762 49.56V58.577C18.5695 58.79 18.6632 59.0037 18.7573 59.218L18.8077 59.333C19.7249 61.4237 20.6677 63.5793 21.4704 65.7972C26.1986 78.8599 31.374 91.3089 37.6853 103.609C41.8895 111.803 45.2685 120.373 48.4114 128.976C48.4376 128.902 48.4655 128.827 48.495 128.754C48.9331 127.657 49.7047 126.717 50.8264 125.985C57.9214 121.357 64.5806 114.916 70.6353 108.595L70.3915 108.627L69.9584 105.387L71.5823 105.171C72.4693 105.053 73.3602 104.964 74.2506 104.895C75.1344 104.119 76.0611 103.442 76.9539 102.811C74.6561 101.898 72.0745 101.212 69.6317 100.563C69.1487 100.435 68.671 100.308 68.2022 100.181C65.9227 99.5651 63.4766 99.1518 60.9102 98.7189C59.9831 98.5623 59.0403 98.4034 58.084 98.2312C54.5609 97.5964 50.9196 96.7893 47.7238 95.2378C46.7576 94.7689 46.0484 94.0135 45.7544 92.9974C45.4814 92.0533 45.6286 91.0944 45.8957 90.2701C46.423 88.6442 47.64 86.8829 48.9212 85.3001C50.2341 83.6773 51.754 82.0749 53.0435 80.7567C53.4743 80.3159 53.8693 79.9167 54.2216 79.5605C54.9676 78.8067 55.5214 78.2472 55.8156 77.9003C61.8899 70.7385 67.8222 63.8354 74.3183 57.0728C74.6246 56.7539 75.0153 56.4674 75.3905 56.2242C73.497 56.0087 71.5249 55.9841 69.4557 55.9758C69.2883 55.9752 69.1201 55.9747 68.9513 55.9741C66.4855 55.9661 63.8826 55.9576 61.3383 55.595C60.324 55.4504 59.7448 54.7451 59.4637 54.1647C59.1968 53.6137 59.1002 53.0057 59.0625 52.5209C58.9857 51.5339 59.1148 50.4781 59.2456 49.8909C59.3593 49.3802 59.6414 48.9629 59.8455 48.6965C60.0749 48.3972 60.3535 48.1028 60.6386 47.8279C61.2105 47.2765 61.9272 46.6909 62.628 46.1492C63.3352 45.6027 64.0623 45.0731 64.666 44.6358L64.8266 44.5194C65.3724 44.1241 65.7596 43.8436 65.9576 43.6834C66.9588 42.873 67.9649 42.0499 68.9754 41.223C69.9039 40.4634 70.8362 39.7006 71.7721 38.9417C72.4562 38.1062 73.1999 37.3199 73.9416 36.5851C74.6003 35.9325 75.2825 35.2973 75.9503 34.6875ZM64.0351 49.2064C63.6061 49.5529 63.2219 49.883 62.9155 50.1784C62.6929 50.393 62.5407 50.5614 62.4485 50.6818C62.4373 50.6964 62.4278 50.7092 62.4199 50.7203C62.3525 51.088 62.287 51.7258 62.3292 52.2679C62.3337 52.3266 62.3393 52.3809 62.3457 52.4306C64.4867 52.6896 66.6975 52.6974 69.0207 52.7054C69.1696 52.706 69.3189 52.7065 69.4687 52.7071C69.5249 52.7073 69.5812 52.7076 69.6375 52.7078C69.3928 52.5843 69.1502 52.4566 68.9102 52.3248C68.8902 52.3139 68.847 52.2908 68.7842 52.2572C68.3911 52.0469 67.2295 51.4254 66.1981 50.8065C65.6131 50.4555 64.9846 50.0553 64.5448 49.6982C64.4283 49.6036 64.2236 49.4342 64.0351 49.2064ZM55.2591 83.1716C54.0195 84.4429 52.6427 85.9044 51.4707 87.3533C50.2258 88.8916 49.3431 90.2583 49.0132 91.276C48.8516 91.7746 48.8808 92.0157 48.9024 92.0909C48.9024 92.0901 48.9025 92.0909 48.9024 92.0909C48.9035 92.0995 48.9123 92.1793 49.1571 92.2983C51.9205 93.6401 55.1808 94.3861 58.6663 95.0147C59.5348 95.1704 60.4226 95.3207 61.3179 95.4718C63.9333 95.9125 66.613 96.365 69.0597 97.0265C69.5036 97.147 69.9693 97.2699 70.4516 97.3967C73.4109 98.178 76.9971 99.1252 80.0279 100.595C80.4386 100.27 80.8337 99.9369 81.2122 99.5831C81.4981 99.3146 81.7769 99.0297 82.0769 98.7181C82.1185 98.6751 82.1609 98.6304 82.2041 98.5858C82.4201 98.3619 82.6486 98.1248 82.8834 97.8907C81.3002 97.5557 79.8072 96.9341 78.4399 96.3032C77.893 96.0511 77.3701 95.8006 76.8637 95.5572C75.3986 94.8542 74.0721 94.217 72.706 93.8115C69.8046 92.9512 67.34 91.2235 65.1287 89.6423C65.0348 89.575 64.9414 89.5084 64.8485 89.4419C62.6729 87.8841 60.7308 86.4938 58.5675 85.7087C57.2761 85.2406 56.2004 84.6002 55.5481 83.664C55.4352 83.5019 55.3394 83.3376 55.2591 83.1716ZM80.2769 104.477C80.2078 104.526 80.1394 104.574 80.0711 104.622C80.1921 104.618 80.3122 104.614 80.4331 104.61C80.3633 104.55 80.3114 104.506 80.2769 104.477ZM75.644 108.074C76.8624 108.002 78.0776 107.962 79.3188 107.921C80.6939 107.875 82.1012 107.829 83.58 107.737C83.8148 107.722 84.1863 107.661 84.5499 107.412C84.9606 107.132 85.2096 106.716 85.2944 106.282C85.4287 105.603 85.135 105.043 85.0494 104.88C84.7996 104.406 84.3803 103.918 84.0402 103.55C83.6727 103.153 83.2659 102.759 82.9227 102.446C83.1017 102.289 83.2792 102.13 83.4544 101.966C83.8062 101.636 84.1352 101.299 84.4384 100.984C84.4839 100.937 84.5287 100.89 84.5735 100.844C84.8311 100.577 85.0682 100.33 85.3133 100.09C85.8811 99.5338 86.4033 99.1017 86.9892 98.7941C87.2578 98.6524 87.5012 98.5122 87.7078 98.3721C87.8821 98.2531 88.1617 98.048 88.3784 97.7482C88.4931 97.5901 88.6604 97.3106 88.7122 96.9263C88.7719 96.4903 88.6635 96.0527 88.4098 95.6957C88.0164 95.1407 87.4305 94.9974 87.2962 94.9654L87.2892 94.9638C86.8957 94.8675 86.4292 94.8644 86.1528 94.8644C85.9887 94.8644 85.8182 94.8675 85.6619 94.8698L85.6502 94.8706C85.486 94.873 85.336 94.8753 85.1955 94.8753C83.5133 94.8753 81.7824 94.2436 79.8143 93.3363C79.3824 93.1367 78.9324 92.9207 78.4698 92.6983C76.9461 91.9656 75.2813 91.1656 73.6397 90.6787C71.3395 89.9961 69.2932 88.5988 67.0378 86.9854C66.9083 86.8931 66.7778 86.7991 66.6465 86.7052C64.5736 85.2186 62.2898 83.581 59.6871 82.637C58.6726 82.2682 58.3326 81.9332 58.2386 81.7986C58.237 81.7962 58.2353 81.7939 58.2335 81.7915C58.2036 81.7492 58.1669 81.6984 58.2351 81.4729C58.3292 81.1629 58.5825 80.7191 59.0596 80.1304C59.5231 79.5582 60.1051 78.9593 60.7437 78.3221C63.0313 76.0399 65.1466 73.6351 67.2152 71.2835C67.4411 71.0266 67.6665 70.7704 67.8915 70.515C70.191 67.9051 72.458 65.3749 74.9421 63.0515C77.1075 61.0261 79.3981 58.086 81.0606 55.8171C81.3347 55.4428 81.6182 55.0366 81.7941 54.656C81.9182 54.388 82.3635 53.3306 81.5444 52.4243C81.2169 52.0617 80.8258 51.9107 80.5941 51.8422C80.3507 51.7701 80.1112 51.7404 79.9266 51.7246C79.5811 51.6952 79.1515 51.6952 78.7321 51.6953H78.6693C75.8422 51.6953 73.0564 50.8693 70.4891 49.4606C70.4525 49.4405 70.3875 49.4058 70.2996 49.3586C69.9231 49.1568 69.1248 48.7289 68.3189 48.2604C68.7369 47.9908 69.138 47.6974 69.5228 47.392C69.5302 47.3979 69.5377 47.4038 69.5452 47.4097C70.357 48.0414 71.2477 47.78 71.5928 47.6416C71.9973 47.4793 72.3535 47.2221 72.6225 47.0012C73.1831 46.5411 73.7547 45.9113 74.2151 45.3292C74.6625 44.7636 75.1141 44.1052 75.3569 43.5602C75.6282 42.9511 75.9253 42.3528 76.2434 41.7617C76.5848 41.548 77.0748 41.1991 77.5625 40.8297C77.835 40.6233 78.1305 40.3925 78.4316 40.1469C78.472 40.8297 78.5146 41.3572 78.557 41.7496C78.5821 41.9842 78.6096 42.1889 78.6394 42.3582L78.6418 42.3703C78.6591 42.4696 78.7117 42.7745 78.8554 43.0515C78.8955 43.1296 79.0188 43.3582 79.2653 43.5664C79.5606 43.8155 80.174 44.1236 80.9036 43.854C81.4604 43.6484 81.7093 43.2244 81.7729 43.1127C81.864 42.9512 81.9088 42.8082 81.9292 42.7391C81.9991 42.4959 82.0125 42.2476 82.0172 42.1438C82.0321 41.8479 82.0243 41.4526 81.9968 41.0188C81.9418 40.1435 81.7957 38.942 81.4981 37.7788C81.4384 37.5474 81.3701 37.3049 81.2907 37.0576C81.3363 36.9614 81.3771 36.8624 81.4117 36.7609C81.5837 36.2624 81.7156 35.3055 80.9499 34.5509C81.4298 34.0964 81.8892 33.6448 82.307 33.2002C82.9832 32.48 83.6813 31.7678 84.3968 31.0654C85.8803 29.9646 87.6347 28.9579 89.5274 28.1055C93.2028 26.4498 97.1389 25.4919 100.119 25.4919C106.279 25.4919 114.404 27.2707 120.101 29.6316C121.461 30.1952 122.842 30.8113 124.247 31.4381C127.214 32.7607 130.285 34.1306 133.482 35.1532C135.654 37.0949 137.662 39.277 139.312 41.644C138.983 42.169 138.658 42.663 138.348 43.1358C138.006 43.6556 137.681 44.1499 137.385 44.6316C134.722 48.9668 132.252 53.5879 129.957 58.0693C123.638 70.4094 116.709 83.0103 108.32 94.2342C107.207 95.3035 106.088 96.3736 104.965 97.4476C101.727 100.544 98.4583 103.671 95.2242 106.884C94.3038 107.798 93.3881 108.718 92.4787 109.645C90.8507 110.974 89.2777 112.375 87.8051 113.871C81.9944 119.775 77.1004 126.941 72.4686 133.724C71.7646 134.755 71.0667 135.777 70.3725 136.784C69.1766 138.519 67.8996 140.117 66.5856 141.761C66.2643 142.162 65.9406 142.568 65.6154 142.978C63.9799 145.041 62.3337 147.209 60.9109 149.693C60.3513 150.671 59.9054 151.68 59.5239 152.679C58.8582 153.579 58.234 154.445 57.7145 155.414C57.4652 154.592 57.2084 153.773 56.9448 152.956C56.9133 150.775 56.6843 149.14 55.8057 146.901C55.2624 145.515 54.9593 144.001 54.6228 142.32C54.6044 142.228 54.5859 142.136 54.5673 142.042C54.2205 140.314 53.8223 138.406 53.0234 136.653C52.207 134.861 51.5128 133.156 51.3637 131.688C51.2919 130.981 51.358 130.415 51.5386 129.964C51.7106 129.533 52.0235 129.11 52.6194 128.721C61.0332 123.232 68.7595 115.381 75.4356 108.29C75.5042 108.217 75.5737 108.145 75.644 108.074ZM57.2644 166.741C57.0945 166.864 56.8625 166.991 56.5711 167.055C56.2454 167.127 55.8577 167.113 55.4776 166.941C55.1159 166.777 54.8845 166.525 54.7476 166.324C54.5036 165.967 54.4334 165.592 54.4052 165.408C54.3703 165.181 54.3594 164.94 54.3594 164.707C54.3594 162.912 54.1956 161.119 54.0228 159.249L54.0169 159.186C53.9317 158.264 53.8446 157.323 53.7793 156.37C53.4399 155.171 53.1104 153.98 52.7823 152.794C51.9393 149.748 51.1058 146.735 50.1387 143.708C48.4886 139.517 46.6934 135.36 44.816 131.22C42.5115 126.137 40.0633 121.041 37.6129 115.941C34.0671 108.56 30.5168 101.169 27.3901 93.7958C26.6055 91.9461 25.7878 90.0806 24.9635 88.2003C22.6019 82.8131 20.1853 77.3007 18.3344 71.6584C18.1004 70.945 17.8283 70.1721 17.5477 69.375C17.1232 68.1689 16.6792 66.9076 16.3182 65.7139C15.7024 63.6773 15.2147 61.5117 15.2001 59.2594C14.484 57.616 13.7753 55.9452 13.1538 54.251C11.5543 49.8909 10.4794 45.2441 11.248 40.0676C12.8774 29.0951 16.5414 15.6546 28.1068 10.0502C30.7837 8.75304 34.2484 8.23991 37.5789 8.23912C38.0336 8.23897 38.4894 8.24844 38.9441 8.26715C41.0256 6.9853 43.2186 6.0715 45.4608 5.75194C48.4939 5.31965 50.5694 5.37909 52.53 6.09761C54.122 6.68105 55.5705 7.69203 57.3034 8.90146C57.5783 9.09332 57.8604 9.2902 58.1515 9.49122C61.0597 11.4999 63.3625 14.2169 65.4884 16.7599C65.5596 16.8451 65.6306 16.93 65.7013 17.0147C67.7963 19.5219 69.7325 21.8392 72.0566 23.5781C73.7429 24.8399 75.1234 26.6739 76.2702 28.3913C77.0167 26.2615 78.3986 24.4802 80.1622 23.023C82.8182 20.8279 86.3688 19.3322 90.0716 18.33C92.3978 17.7004 94.8363 17.2519 97.2355 16.9525C101.381 14.4492 105.114 12.8826 109.708 11.2042C109.838 11.1569 109.971 11.1079 110.108 11.0575C111.99 10.3676 114.593 9.41372 117.214 8.85981C119.953 8.28108 123.144 8.03693 125.639 9.4019C132.054 12.9111 136.421 20.053 139.501 25.7893C140.987 28.5564 142.258 31.4686 143.325 34.4725C143.592 34.6197 143.899 34.8206 144.163 35.0929C144.447 35.3857 144.81 35.8998 144.81 36.6135C144.81 37.1811 144.713 37.755 144.562 38.3121C146.56 45.1731 147.551 52.3777 147.634 59.3265C147.661 61.6355 147.653 63.6677 147.245 65.6483C146.827 67.6766 146.008 69.5823 144.52 71.7353C142.051 75.3068 138.6 78.4998 135.012 81.3625C132.422 83.4299 129.69 85.3783 127.158 87.1843C126.192 87.8731 125.254 88.5409 124.366 89.1875C121.338 91.3871 118.498 93.7802 115.605 96.2163C115.438 96.3572 115.271 96.4981 115.104 96.639C112.053 99.2066 108.936 101.808 105.563 104.169C104.918 104.62 104.273 105.069 103.628 105.517C103.351 105.71 103.074 105.903 102.797 106.095C101.594 107.415 100.363 108.706 99.1015 109.965C97.5049 111.558 95.9154 113.101 94.3455 114.626C87.7046 121.073 81.436 127.16 76.6345 135.054C75.1539 137.489 73.5268 139.79 71.8484 142.02C67.9878 148.994 64.5569 156.629 63.2596 163.963C63.2133 164.225 63.15 164.761 63.0645 165.484C63.0339 165.743 63.0006 166.025 62.9641 166.328C62.8326 167.42 62.6679 168.705 62.4727 169.758C62.3761 170.28 62.263 170.796 62.1279 171.222C62.0613 171.432 61.9733 171.672 61.8541 171.899C61.7661 172.065 61.525 172.498 61.0332 172.773C60.7409 172.936 60.3542 173.044 59.9195 172.983C59.5023 172.925 59.1913 172.732 58.9906 172.562C58.6349 172.258 58.4519 171.874 58.3623 171.665C58.1582 171.188 58 170.533 57.859 169.759C57.675 168.749 57.4766 167.744 57.2644 166.741ZM59.596 162.247C59.724 162.767 59.8487 163.288 59.9698 163.81C59.9924 163.646 60.0135 163.505 60.033 163.395C60.5885 160.254 61.504 157.084 62.6571 153.951C62.5803 154.055 62.5051 154.158 62.4313 154.258C62.2421 154.778 62.0625 155.313 61.8839 155.861C61.7973 156.128 61.7106 156.398 61.6226 156.673C61.1809 158.052 60.7096 159.525 60.09 160.916C60.0913 160.913 60.088 160.921 60.0791 160.945C60.0624 160.99 60.0261 161.086 59.9625 161.259L59.9128 161.393C59.8367 161.6 59.7434 161.854 59.6393 162.132C59.6251 162.17 59.6107 162.208 59.596 162.247ZM61.3854 170.401C61.3853 170.402 61.3817 170.395 61.3749 170.379C61.3821 170.393 61.3855 170.4 61.3854 170.401ZM114.007 93.2847C116.721 90.9997 119.49 88.6873 122.436 86.5455C123.373 85.8645 124.34 85.1748 125.324 84.4734C127.832 82.6847 130.449 80.8185 132.965 78.8106C136.459 76.0222 139.622 73.0637 141.823 69.8795C143.096 68.0376 143.717 66.5335 144.036 64.9903C144.25 63.9489 144.334 62.8602 144.358 61.5781C143.242 63.2772 141.905 64.7981 140.652 66.2239C140.476 66.4232 140.303 66.6208 140.132 66.8168C137.283 70.0778 134.223 73.1194 131.168 76.0972C130.658 76.5948 130.148 77.0903 129.639 77.5847C127.089 80.0615 124.568 82.5117 122.15 85.0668C119.539 87.823 116.802 90.5582 114.007 93.2847ZM141.204 44.7529C141.123 44.878 141.043 45.0001 140.966 45.1184C140.648 45.6025 140.373 46.0247 140.179 46.3398C137.581 50.5687 135.156 55.1032 132.875 59.5565C129.028 67.0697 124.922 74.7486 120.365 82.1947C122.651 79.8102 125.022 77.5078 127.367 75.2297C127.872 74.7385 128.377 74.2486 128.878 73.7591C131.927 70.7879 134.906 67.8241 137.662 64.6693C137.755 64.5628 137.847 64.4568 137.94 64.3515C141.237 60.5794 143.947 57.4805 143.637 52.9852C143.438 50.1097 142.555 47.3454 141.204 44.7529ZM141.043 38.4675C141.072 38.3978 141.101 38.3287 141.127 38.2602C140.991 37.816 140.85 37.3737 140.705 36.9332C140.633 36.9112 140.558 36.8891 140.481 36.8669C140.166 36.7768 139.843 36.6956 139.534 36.6239C140.054 37.2215 140.558 37.8363 141.043 38.4675ZM135.133 32.2467C136.217 32.5726 137.318 32.8508 138.443 33.0667C138.482 33.074 138.533 33.0836 138.596 33.0954C138.773 33.1282 139.04 33.1777 139.361 33.2425C138.548 31.2089 137.633 29.2325 136.613 27.3328C133.514 21.5626 129.533 15.2603 124.064 12.2681C122.669 11.5048 120.504 11.5058 117.893 12.0576C115.512 12.5608 113.117 13.438 111.206 14.1378C111.08 14.1839 110.956 14.2292 110.834 14.2736C108.833 15.0049 107.026 15.7047 105.292 16.4635C107.399 16.4711 109.283 16.5916 110.794 16.7924C112.399 17.006 114.445 17.9645 116.187 18.8969C117.952 19.8415 119.662 20.9051 120.748 21.58L120.833 21.6328C125.358 24.4465 129.51 27.7065 133.584 30.9584C134.103 31.3723 134.62 31.8019 135.133 32.2467ZM90.3253 21.6536C87.103 22.5825 84.279 23.8651 82.252 25.5403C80.2376 27.2052 79.0439 29.219 78.9402 31.7251C79.8559 30.5936 80.9884 29.5411 82.2567 28.5813C84.7714 26.1269 87.4949 23.793 90.3253 21.6536ZM93.8507 23.1177C95.3271 22.055 96.8279 21.0498 98.3366 20.1135C103.027 19.5853 107.49 19.6508 110.36 20.0325C111.302 20.1578 112.865 20.828 114.638 21.7772C116.308 22.671 117.942 23.6872 119.033 24.3662L119.099 24.407C120.818 25.475 122.484 26.6132 124.124 27.8003C123.215 27.4 122.295 27.0014 121.358 26.6129C115.309 24.1064 106.759 22.2232 100.119 22.2232C98.2046 22.2232 96.0496 22.544 93.8507 23.1177ZM72.0257 45.5879C72.0305 45.6304 72.0258 45.6368 72.0257 45.59C72.0257 45.5893 72.0257 45.5886 72.0257 45.5879ZM78.7431 42.0087C78.7423 42.0211 78.7415 42.0266 78.7415 42.0263C78.7415 42.026 78.7423 42.0198 78.7431 42.0087ZM81.8711 41.8183C81.8758 41.8377 81.8782 41.849 81.8782 41.8502C81.8782 41.8515 81.8758 41.8417 81.8711 41.8183ZM34.4661 11.685C32.5882 11.9071 30.8814 12.3397 29.5382 12.9905C19.6414 17.7863 16.1237 29.5389 14.4891 40.5467C14.003 43.8206 14.3666 46.8956 15.1997 49.9381V49.56C15.1997 45.3937 16.4341 41.1838 18.0554 37.2382C19.4577 33.8254 21.1951 30.5079 22.7592 27.5213C23.0028 27.056 23.2422 26.5989 23.4755 26.1507C25.4344 22.3868 28.5958 17.6746 32.374 13.7278C33.0456 13.0262 33.7442 12.3409 34.4661 11.685Z" fill="black"/>
<path fill-rule="evenodd" clip-rule="evenodd" d="M103.191 46.9539C106.196 49.7546 107.449 53.3911 107.568 56.7104C107.676 59.7461 107.382 62.4521 107.054 64.7475C106.692 67.2911 105.798 69.3478 105.453 70.1414C105.435 70.1833 105.419 70.2217 105.404 70.2564C105.389 70.2907 105.375 70.3222 105.363 70.3514C105.324 70.4425 105.294 70.5112 105.269 70.5699C103.879 76.6843 97.9523 80.7259 91.6986 79.6817C85.2102 78.5983 80.8264 72.4497 81.9078 65.9485C82.0382 65.1645 82.2117 64.4544 82.3947 63.8316C80.0214 61.6501 78.5332 58.5167 78.5332 55.0351C78.5332 48.4443 83.8657 43.1013 90.4445 43.1013C90.4437 43.1013 90.4437 43.1013 90.4445 43.1013C90.4515 43.1012 90.523 43.1002 90.7853 43.0907C90.8104 43.0898 90.8379 43.0888 90.8678 43.0876C91.0994 43.0792 91.4717 43.0655 91.8479 43.059C92.634 43.0454 94.1717 43.0389 95.8908 43.3558C97.5573 43.6629 100.527 44.4702 103.191 46.9539ZM92.3976 66.9234C92.3968 66.9236 92.3811 66.9236 92.3513 66.9224C92.3835 66.9225 92.3984 66.9231 92.3976 66.9234Z" fill="#FB0153"/>
<path fill-rule="evenodd" clip-rule="evenodd" d="M106.734 61.5169C106.349 61.5915 105.797 61.6904 105.146 61.7651C98.591 62.5163 92.6876 57.6446 91.9588 50.8839C91.2363 44.1753 95.8816 38.1275 102.358 37.3007C102.394 37.2934 102.444 37.2831 102.528 37.2659C102.539 37.2635 102.551 37.261 102.565 37.2582C102.66 37.2387 102.804 37.2089 102.948 37.1803C103.648 37.041 104.985 36.7917 106.645 36.7917C113.24 36.7917 118.587 42.3061 118.587 49.1085C118.587 55.6942 113.575 61.0726 107.271 61.4086C107.267 61.4095 107.262 61.4105 107.257 61.4115L107.212 61.4209C107.096 61.4447 106.923 61.4803 106.734 61.5169ZM107.52 61.3585C107.52 61.3586 107.514 61.3598 107.502 61.3617C107.515 61.3594 107.521 61.3585 107.52 61.3585Z" fill="#FB0153"/>
<path d="M83.4911 35.7007C83.4309 36.2413 82.6354 36.843 82.3109 37.215C81.8061 37.7936 81.3045 38.3671 80.7624 38.9129C79.9553 39.7254 79.1413 40.5292 78.3266 41.3325C76.6019 43.0331 75.0103 44.8711 73.2457 46.5304C72.7931 46.9561 72.3763 47.4188 71.9985 47.9029C71.7686 48.1977 72.724 47.4986 72.7937 47.4566C73.5564 46.9967 74.4229 46.9011 75.2797 46.7223C76.5991 46.4471 77.8345 46.3056 78.9962 45.5876C79.9893 44.9739 80.957 44.0996 81.7292 43.2306C81.9798 42.9485 82.2406 42.6876 82.3444 42.3254C82.4596 41.9234 82.551 41.497 82.7378 41.1072C82.8983 40.7723 83.4078 39.9313 83.1898 39.6054" stroke="#FB0153" stroke-width="5" stroke-linecap="round"/>
<path d="M82.8875 35.7759C82.8572 36.0484 82.3653 36.372 82.2095 36.6186C82.0955 36.7992 81.4185 37.8785 81.3809 37.8033" stroke="#FB0153" stroke-width="5" stroke-linecap="round"/>
<path d="M73.0938 35.926C73.5185 35.926 74.0154 36.2166 74.0731 36.6769C74.1184 37.0381 74.7899 37.5137 75.0357 37.82C75.3479 38.209 75.7128 38.6877 75.9732 39.1549C76.2445 39.6417 76.4725 40.1654 76.7474 40.6526C76.8307 40.8 77.1812 41.2939 77.2371 41.1824" stroke="#FB0153" stroke-width="5" stroke-linecap="round"/>
<path d="M74.1484 35.0999C74.1484 35.852 75.0884 36.166 75.337 36.8103C75.5682 37.4093 76.0567 37.9131 76.3666 38.4748C76.6694 39.0235 77.2671 39.5448 77.4631 40.1309" stroke="#FB0153" stroke-width="5" stroke-linecap="round"/>
<path d="M83.7427 35.4995C83.6226 35.5145 83.5684 35.7011 83.5036 35.7815C83.3151 36.0152 83.1433 36.2634 82.9139 36.4606C82.7217 36.626 82.6406 36.7877 82.4079 36.8935C82.0916 37.0374 81.8142 37.2752 81.5752 37.5171C81.1888 37.908 80.8028 38.3153 80.4356 38.7244C80.2423 38.9397 79.9951 39.1189 79.834 39.3598" stroke="#FB0153" stroke-width="5" stroke-linecap="round"/>
<path d="M49.8281 124.761C49.8281 125.042 50.0006 125.297 50.1208 125.543C50.3114 125.933 50.4782 126.343 50.6455 126.743C50.8843 127.314 51.1884 127.89 51.4904 128.433C51.6659 128.749 51.8775 129.036 52.0316 129.363C52.1639 129.645 52.2457 129.937 52.3685 130.217C52.5363 130.599 52.7761 130.936 52.9594 131.301" stroke="#FB0153" stroke-width="5" stroke-linecap="round"/>
<path d="M49.877 126.991C49.9516 127.475 50.2896 127.942 50.4237 128.417C50.4965 128.675 50.536 128.921 50.6446 129.168C50.8055 129.535 50.9941 129.927 51.1941 130.286C51.4569 130.757 51.669 131.225 51.9645 131.675C52.3796 132.308 52.8178 132.845 53.3561 133.382" stroke="#FB0153" stroke-width="5" stroke-linecap="round"/>
<path d="M72.9042 41.4753C72.5231 44.8942 67.6414 45.5203 66.1126 48.314C65.9216 48.6631 62.3042 53.8075 62.0065 52.027C61.5514 49.3055 63.8965 43.9606 65.9047 41.9588C67.5352 40.3336 70.9984 40.043 72.8869 41.3371C75.1571 42.8929 75.9984 46.1978 77.2702 48.5558C78.7656 51.3283 79.6213 54.2444 81.0125 57.0179" stroke="#FB0153" stroke-width="5" stroke-linecap="round"/>
<path d="M61.6777 54.2202C61.6777 55.6785 62.4089 56.5315 63.0638 57.7777C63.6047 58.807 63.9134 60.1673 65.1082 60.5926C66.2457 60.9976 67.3945 61.1595 68.556 61.3525C69.3782 61.4891 70.4403 61.1103 71.1894 61.5252C71.9218 61.9307 72.7703 61.9915 73.5977 61.9915C75.04 61.9915 75.3995 61.9656 75.3995 60.4372C75.3995 55.9851 73.2165 51.5296 73.2165 47.0706" stroke="#FB0153" stroke-width="7" stroke-linecap="round"/>
<path d="M55.7519 124.473C55.7519 119.351 62.6361 117.001 65.9046 114.336C67.4187 113.101 69.4888 112.228 70.4093 110.623C72.0942 107.684 75.0462 105.173 77.582 103.007C78.7106 102.043 79.7337 101.281 81.0125 100.606C81.5863 100.304 82.1428 99.9838 82.5718 99.4493C82.9519 98.9756 84.0116 99.2165 83.438 98.4304C82.2964 96.8657 81.4628 95.8635 79.4532 95.4082C76.3966 94.7158 72.6058 95.2528 69.4737 95.2528C66.9848 95.2528 64.5721 96.7484 62.1277 97.187C61.0508 97.3802 60.1212 98.0881 59.0091 97.5842C57.0255 96.6854 53.4334 95.3508 52.3908 93.3877C51.14 91.0328 54.326 87.2104 55.6826 85.8582C56.7731 84.7712 57.6214 83.7757 59.0264 82.8015C62.054 80.7021 65.1018 78.6314 68.2956 76.7744C69.0156 76.3557 69.8466 75.9892 70.4093 75.3583C70.9835 74.7144 69.918 74.834 69.647 74.5639C68.912 73.8313 68.2633 73.0466 67.5332 72.3188C66.2569 71.0466 62.571 69.7081 61.6079 71.6281C60.8883 73.0627 61.8102 74.4829 62.7861 75.5482C65.7124 78.7429 68.8569 81.6722 71.8993 84.7529C73.4737 86.3472 77.3639 91.7004 75.5376 90.4001C73.3256 88.8252 72.6453 85.657 72.1072 83.1641C71.6349 80.9764 71.9229 74.7783 69.0059 74.1321C68.2525 73.9653 67.5495 75.3847 66.9788 75.6691" stroke="#FB0153" stroke-width="20" stroke-linecap="round"/>
<path d="M79.4547 66.6544C79.4005 66.2225 78.4747 65.8806 78.1899 65.4974C77.1462 64.0929 76.2545 62.5441 75.3312 61.0591C74.0571 59.0098 73.571 56.7521 72.4552 54.6866C71.5249 52.9645 70.7109 51.3598 69.6485 49.6957C69.2147 49.0163 68.8529 47.5115 68.6089 46.6908C68.4386 46.1177 68.8827 44.3601 68.3837 43.9622C67.2932 43.0927 65.399 43.3405 64.0177 43.3405C61.6033 43.3405 62.6143 47.0907 62.6143 48.8668C62.6143 51.8372 62.6143 54.8075 62.6143 57.7779C62.6143 60.9475 65.1234 61.4846 67.8466 62.2334C69.2846 62.6288 70.8098 62.3049 72.2993 62.7688C72.8706 62.9468 75.0103 64.0113 74.7768 63.5459" stroke="#FB0153" stroke-width="20" stroke-linecap="round"/>
</g>
<defs>
<clipPath id="clip0_570_6374">
<rect width="150" height="173" fill="white"/>
</clipPath>
</defs>
</svg>
