<svg width="165" height="232" viewBox="0 0 165 232" fill="none" xmlns="http://www.w3.org/2000/svg">
<g clip-path="url(#clip0_411_15)">
<path fill-rule="evenodd" clip-rule="evenodd" d="M83.18 32.9996C87.7175 27.4037 92.6 22.7188 96.8934 18.5992C97.9188 17.6153 98.9106 16.6636 99.8561 15.7395C105.044 10.6682 112.072 4.48579 122.752 2.077C122.068 2.23124 127.36 0.795366 130.665 0.328119C132.597 0.0549712 135.72 -0.249394 139.098 0.33073C142.432 0.9031 148.666 2.87068 152.32 9.46525C154.25 12.9466 155.242 16.4957 155.832 18.8922C156.118 20.0542 156.367 21.2045 156.563 22.1069L156.605 22.3045C156.827 23.3251 156.981 24.0185 157.133 24.61C157.928 27.7109 158.623 30.5488 159.295 33.2938C160.237 37.1449 161.135 40.8131 162.204 44.7682C168.478 67.9922 163.494 89.0862 154.197 108.217C143.069 131.114 126.549 151.574 111.691 169.393C109.087 172.517 106.63 175.339 104.314 178C98.6493 184.506 93.8285 190.043 89.7629 196.648C89.5044 197.068 89.2174 197.547 88.9019 198.073C87.0166 201.218 84.1163 206.055 80.2247 210.16C80.2051 210.184 80.1044 210.304 79.8953 210.578C79.7422 210.778 79.5754 211.002 79.3486 211.307C79.1406 211.587 78.8654 211.959 78.5843 212.33L78.5764 212.341C77.6352 213.584 75.4744 216.439 72.3145 218.702C71.8604 219.027 71.2269 219.601 69.6965 221.178C69.5826 221.295 69.4597 221.422 69.3282 221.558C68.0534 222.879 65.9762 225.032 63.6054 226.899C61.8649 228.27 59.0671 230.051 55.2975 230.729C51.0648 231.49 46.7821 230.633 43.2059 228.364C37.5084 224.748 35.7184 218.916 35.2633 217.433L35.2515 217.394C34.5253 215.03 34.1714 212.686 33.9878 211.403C33.7653 209.847 33.735 209.595 33.7592 209.676C32.3828 203.882 30.4778 198.113 28.3133 191.635L28.1082 191.022C26.0434 184.844 23.7473 177.975 22.0168 170.848C18.6096 156.816 17.207 142.961 16.2391 129.654C16.0308 126.792 15.851 123.914 15.6886 121.044C14.7096 117.347 13.7905 113.632 12.9281 109.885C12.6964 108.879 12.4027 107.941 11.9285 106.427C11.7722 105.928 11.5964 105.366 11.3968 104.719C10.7204 102.527 9.76733 99.3146 9.32661 95.7801C8.69995 90.7543 8.98523 86.0826 10.0949 81.7176C10.3156 75.0667 11.4456 68.4854 13.1827 63.0124C14.5198 58.7999 16.1351 54.1736 18.4232 49.4683C20.3938 45.416 23.2261 42.5094 24.5309 41.1702C24.5747 41.1253 24.6167 41.0822 24.6569 41.0408C25.9087 39.7538 26.2216 39.3973 26.2544 39.3705C26.2737 39.3384 26.2936 39.3055 26.314 39.2718C27.9718 36.5293 32.9979 28.2145 39.1388 22.0254C42.016 19.1256 47.1681 14.5452 54.0721 13.0129C57.9878 12.1438 62.5939 12.2393 67.1664 14.2856C71.6079 16.2732 74.7397 19.5283 76.8812 22.7855C79.0605 26.1003 81.1725 29.4979 83.18 32.9996ZM62.3485 42.4574C62.3484 42.458 62.3354 42.4666 62.3097 42.4817C62.3357 42.4644 62.3485 42.4569 62.3485 42.4574Z" fill="#FB0153"/>
<path fill-rule="evenodd" clip-rule="evenodd" d="M117.906 13.3844C117.466 13.5786 117.06 13.7575 116.697 13.9121C114.492 14.8504 112.176 15.5452 110.017 16.1931C109.166 16.4482 108.341 16.696 107.555 16.9485C107.306 17.0285 107.06 17.1095 106.815 17.1918C105.178 18.412 103.726 19.815 102.361 21.6124C100.31 24.3122 97.7845 27.226 95.3016 29.6235C94.7615 30.1451 94.0826 30.7164 93.4786 31.2247C93.1505 31.5009 92.8445 31.7584 92.5949 31.9793C91.7669 32.7118 91.1507 33.3644 90.7483 34.0679C86.6211 41.2826 83.7676 50.566 85.5005 58.572C85.6286 59.1639 85.7391 59.7771 85.8419 60.3808C86.7201 61.5826 87.6424 62.8641 88.5288 64.176C88.8149 63.7422 89.0708 63.3064 89.2919 62.8647L90.2298 60.9909L93.9816 62.8647L93.0436 64.7386C92.4551 65.9143 91.7155 67.0023 90.9221 68.0136C91.0431 68.2295 91.1611 68.4448 91.2757 68.6595C91.6406 69.343 91.9182 69.7181 92.0681 69.9019C92.1428 69.9934 92.1969 70.0513 92.2479 70.1057C92.2498 70.1077 92.341 70.2029 92.4165 70.2965L92.4194 70.3C92.4506 70.3386 92.5906 70.5116 92.7041 70.7597C92.7633 70.8892 93.2704 72.0333 92.3521 73.0473C91.9778 73.4606 91.5461 73.613 91.3213 73.6716C91.0878 73.7325 90.8951 73.7395 90.8001 73.7403C90.6121 73.7418 90.4618 73.7172 90.4268 73.7117C90.3708 73.7028 90.3217 73.693 90.3022 73.6891L90.2431 73.6772C90.1945 73.6675 90.1423 73.6578 90.0649 73.6504C89.911 73.6358 89.5675 73.6225 88.9913 73.7271C88.4915 73.8179 87.7345 74.194 86.7299 75.0192C85.7615 75.8148 84.7407 76.878 83.7134 78.0655C82.6907 79.2476 81.7096 80.4959 80.8016 81.6517L80.7533 81.7132C79.8901 82.812 79.0498 83.8816 78.3588 84.6243C75.316 87.8946 72.566 91.4181 69.7671 95.0315C69.6508 95.1815 69.5345 95.3318 69.4181 95.4821C66.7486 98.9295 64.0208 102.452 61.0141 105.772C60.3577 106.497 59.369 107.312 58.5133 108.018L58.3907 108.119C57.8961 108.528 57.4345 108.911 57.0274 109.268C60.4951 109.304 64.4032 109.753 68.1194 110.816C71.987 111.921 75.7821 113.73 78.6167 116.562C79.0938 117.038 79.5702 117.496 80.0483 117.939C82.0166 117.68 83.8816 117.285 85.6001 116.664C86.0352 116.506 87.0601 116.266 87.8374 116.242C88.0333 116.236 88.3837 116.235 88.7575 116.332C88.9823 116.39 90.215 116.749 90.4452 118.129C90.5457 118.731 90.375 119.219 90.2365 119.499C90.0972 119.781 89.9244 119.99 89.801 120.123C89.5551 120.389 89.2606 120.613 88.9952 120.795C88.8385 120.903 88.5607 121.166 88.1783 121.662C87.8135 122.135 87.4304 122.717 87.0396 123.359C87.0281 123.378 87.0166 123.397 87.0051 123.416C87.354 123.655 87.7082 123.894 88.068 124.133C88.6507 124.521 88.9094 125.097 88.9815 125.564C89.0436 125.965 88.9737 126.285 88.9359 126.428C88.8589 126.72 88.735 126.932 88.6992 126.993C88.6025 127.157 88.4947 127.295 88.4393 127.364C88.3078 127.529 88.1385 127.719 87.9722 127.9C87.6282 128.275 87.1631 128.757 86.6974 129.234C86.3391 129.6 85.9913 129.954 85.6839 130.266C85.1375 130.821 84.719 131.246 84.5968 131.386C81.8406 134.549 79.5166 137.937 77.3733 141.494C76.7782 142.737 76.1774 143.986 75.5608 145.235C73.9051 148.591 72.2919 152.038 70.667 155.51C67.7953 161.647 64.8867 167.862 61.6411 173.788C61.0662 174.837 60.4367 175.871 59.7639 176.873C61.2114 177.119 62.6205 177.451 64.0056 177.842C64.1143 177.832 64.2223 177.822 64.3297 177.813C64.8244 177.769 65.2963 177.732 65.7535 177.697C66.7165 177.623 67.6142 177.553 68.5225 177.431C68.5487 177.423 68.6004 177.407 68.6836 177.378C68.8636 177.314 69.1019 177.222 69.3981 177.104C69.5945 177.026 69.8194 176.935 70.06 176.838C70.5034 176.658 71.0005 176.457 71.4715 176.275C72.2024 175.991 73.0099 175.697 73.7006 175.516C74.0351 175.428 74.4461 175.339 74.8549 175.319C75.0596 175.309 75.3515 175.311 75.6733 175.384C75.9884 175.456 76.4955 175.635 76.9189 176.105C77.4139 176.655 77.5566 177.292 77.6094 177.652C77.6688 178.056 77.6622 178.46 77.6372 178.805C77.5867 179.499 77.4356 180.264 77.2735 180.944C77.0292 181.969 76.7148 182.981 76.512 183.601C76.5337 183.62 76.5552 183.639 76.5763 183.658C76.7902 183.851 76.996 184.048 77.1722 184.247C77.3265 184.421 77.5741 184.722 77.7388 185.123C77.9313 185.592 78.0589 186.348 77.6373 187.111C77.2936 187.733 76.761 188.01 76.5824 188.098C76.3703 188.203 76.1505 188.276 76.0753 188.302C75.9567 188.343 75.9063 188.36 75.8551 188.381C75.8476 188.384 75.8411 188.386 75.8356 188.389C74.3762 189.93 73.1276 191.928 71.9694 194.151C71.1804 195.666 70.4816 197.186 69.7865 198.697C69.4365 199.458 69.0874 200.217 68.7282 200.973C67.6647 203.209 66.6893 205.493 65.6953 207.821L65.54 208.184C65.1022 209.209 64.66 210.242 64.2064 211.276C64.2903 211.436 64.3726 211.597 64.453 211.76C64.614 211.479 64.7768 211.195 64.9327 210.932C65.1314 210.596 65.3401 210.255 65.5413 209.964C65.6945 209.743 66.0017 209.307 66.4156 208.997C67.0613 208.514 67.5224 208.093 68.0348 207.625C68.3441 207.343 68.6722 207.044 69.071 206.703C70.0531 205.864 71.1966 205.042 72.8385 204.446C73.6025 204.169 74.2879 203.725 74.9427 203.135C75.6283 202.328 76.3233 201.526 77.0162 200.73C77.1886 200.493 77.3626 200.246 77.539 199.991C77.777 199.646 78.0273 199.274 78.2854 198.891C78.7992 198.127 79.3438 197.317 79.8837 196.588C80.7212 195.456 81.6914 194.307 82.8787 193.385C83.1439 193.179 83.4165 192.958 83.6946 192.725C84.0666 192.229 84.429 191.731 84.7806 191.228C86.3896 188.926 87.8539 186.56 89.3531 184.137C89.8773 183.29 90.4057 182.436 90.9461 181.576C93.007 178.294 95.2059 174.979 97.8575 171.91C98.8278 170.788 99.7986 169.675 100.769 168.569C101.244 167.671 101.718 166.769 102.193 165.864C102.333 165.597 102.473 165.33 102.613 165.063C105.909 158.774 109.276 152.352 113.364 146.362C119.633 137.177 125.889 127.924 130.667 118.092C136.425 106.244 139.015 94.7287 139.42 81.3939C139.881 66.1887 138.371 50.9502 136.387 35.7551C136.145 33.9062 135.965 31.9254 135.784 29.9318L135.751 29.573C135.557 27.4416 135.356 25.2883 135.07 23.1624C135.014 22.743 134.955 22.3265 134.892 21.9135C134.05 20.6803 133.14 19.6376 132.184 18.8785C128.78 16.1784 125.815 13.951 122.72 12.8421C122.002 12.5844 121.272 12.3861 120.523 12.2616C119.572 12.6501 118.685 13.0411 117.906 13.3844ZM127.199 10.285C129.215 11.3792 131.139 12.7575 133.005 14.1957C132.677 13.3327 132.308 12.5099 131.89 11.7345C131.455 10.9272 130.788 10.4836 129.766 10.2915C129.043 10.1557 128.177 10.1584 127.199 10.285ZM140.801 37.1832C142.668 51.8052 144.064 66.6437 143.612 81.5208C143.192 95.3862 140.482 107.491 134.441 119.922C129.508 130.072 123.078 139.569 116.83 148.722C115.563 150.578 114.367 152.48 113.216 154.416C114.089 153.402 114.96 152.382 115.826 151.353C129.305 135.352 143.307 117.365 147.682 97.2387C150.016 86.4996 148.287 75.2407 146.556 63.9733C146.205 61.6901 145.855 59.4066 145.538 57.127C145.425 56.3121 145.17 55.5083 144.833 54.5639C144.779 54.4118 144.722 54.2537 144.662 54.0904C144.374 53.2974 144.042 52.3823 143.807 51.441C143.459 50.0521 143.255 48.6478 143.072 47.3487C143.061 47.2674 143.049 47.1865 143.038 47.106C142.864 45.8676 142.704 44.7279 142.456 43.6183C141.974 41.457 141.405 39.3255 140.801 37.1832ZM104.246 170.964C105.622 169.398 107.01 167.831 108.402 166.26C111.977 162.222 115.573 158.162 119.036 154.051C132.46 138.114 147.158 119.398 151.781 98.1277C154.296 86.5558 152.413 74.3725 150.672 63.1067C150.329 60.8816 149.99 58.6923 149.693 56.5506C149.517 55.2854 149.136 54.1425 148.784 53.1571C148.715 52.9625 148.647 52.7757 148.582 52.5949C148.298 51.8103 148.055 51.1379 147.876 50.4247C147.589 49.2776 147.411 48.0776 147.226 46.7658C147.213 46.6737 147.2 46.581 147.187 46.4877C147.019 45.2859 146.837 43.9867 146.55 42.7055C145.783 39.2724 144.803 35.892 143.843 32.5829C143.613 31.7894 143.384 31 143.159 30.2149C142.492 27.8824 141.472 25.1049 140.11 22.4974C139.737 21.7819 139.331 21.0676 138.894 20.3715C138.277 16.6672 137.313 12.957 135.583 9.74803C134.439 7.62448 132.563 6.55362 130.541 6.17369C128.605 5.81004 126.503 6.06307 124.585 6.51152C123.012 6.87911 121.422 7.41611 119.97 7.97375C117.162 7.73932 114.181 8.28149 110.954 9.89321C108.756 10.9909 106.735 12.0999 104.857 13.4335C102.268 14.3412 99.6409 15.516 97.1928 17.4181C97.0804 17.5055 96.9669 17.5936 96.8525 17.6824C91.8003 21.6058 84.9385 26.9345 81.4928 33.1301L80.4743 34.9615L84.141 36.9963L85.1595 35.1649C85.5611 34.4428 86.0205 33.7302 86.5277 33.0277C83.3704 38.848 80.8623 46.0754 80.7906 53.2258C76.8626 46.5401 72.57 39.9822 67.5674 34.0422C65.226 31.262 62.8888 28.4876 59.2891 26.4244C57.1873 25.2198 54.9437 24.8411 52.8591 24.7344C52.0412 24.6925 51.1669 24.6934 50.3064 24.7086C48.8921 23.9224 47.4121 23.2201 45.8502 22.6629C44.1594 22.0597 42.3928 21.9135 40.7881 21.8947C39.98 21.8853 39.1769 21.9085 38.4254 21.9323C38.3585 21.9345 38.2921 21.9366 38.2262 21.9387C37.5364 21.9608 36.8959 21.9813 36.2763 21.9813C27.7257 21.9813 18.6096 25.2058 11.7831 30.2571C11.5292 30.4449 11.2744 30.632 11.0193 30.8193C8.18721 32.8986 5.31376 35.0083 3.17354 38.5715C0.927671 42.3106 0.783588 46.3409 0.652691 50.0025C0.637688 50.4221 0.622859 50.837 0.605057 51.246C0.391563 56.151 0.40905 61.1739 0.604754 66.0612C0.612104 66.2448 0.620724 66.4281 0.630518 66.6112C0.0117688 71.6758 0.0118045 76.7617 0.0118422 82.1092L0.0118428 82.2344C0.0118428 83.2182 0.00895564 84.2168 0.00603246 85.2278C-0.0325079 98.557 -0.0773234 114.056 6.40533 126.648C7.6965 129.156 8.98242 131.685 10.2725 134.221C10.5523 134.772 10.8323 135.322 11.1125 135.873C12.4758 139.517 13.9562 143.111 15.4913 146.689C17.6802 151.791 20.3776 156.769 23.0211 161.648C24.5674 164.502 26.0953 167.322 27.4923 170.113C31.5886 178.297 35.8143 186.494 40.6141 194.385C44.1496 200.198 46.741 206.145 49.1198 212.609C49.4174 213.417 49.7173 214.208 50.0122 214.986C51.6991 219.436 53.223 223.456 53.223 227.863L53.2229 227.886C53.2222 228.046 53.2185 228.833 53.2986 229.492C53.3209 229.675 53.3555 229.901 53.4138 230.128C53.4553 230.29 53.5729 230.731 53.8933 231.14C54.071 231.367 54.416 231.719 54.976 231.897C55.591 232.092 56.1728 231.986 56.6037 231.777C57.2741 231.452 57.6037 230.876 57.7001 230.707L57.7013 230.705C58.5157 229.282 59.7092 228.028 61.0338 226.637C61.4807 226.168 61.9426 225.683 62.4098 225.17C65.8574 221.389 69.0171 217.34 72.1239 213.359C73.5429 211.541 74.9509 209.737 76.3702 207.979C76.8972 207.326 77.435 206.679 77.9812 206.034C78.8742 205.193 79.6357 204.254 80.3095 203.333C80.4643 203.155 80.6194 202.977 80.775 202.799C81.2925 202.206 81.8141 201.608 82.3378 201.002C83.8426 199.262 85.3503 197.475 86.7632 195.619C89.4686 193.295 92.4939 190.071 94.5567 187.177C98.235 182.015 101.316 176.487 104.246 170.964ZM63.0928 217.977C61.8683 219.457 60.6151 220.916 59.3086 222.349C58.9902 222.698 58.6297 223.076 58.2461 223.477C57.9075 223.832 57.5509 224.205 57.1894 224.594C56.6456 220.597 55.2185 216.856 53.8892 213.371C53.604 212.623 53.3233 211.887 53.0567 211.163C50.6252 204.556 47.9254 198.336 44.1988 192.21C40.9248 186.827 37.9138 181.283 35.0078 175.657C35.3369 176.11 35.6658 176.562 35.9944 177.014C39.117 181.307 42.2114 185.561 45.1423 189.952C46.2039 191.543 47.2651 193.129 48.3251 194.713C51.0504 198.786 53.7676 202.846 56.4612 206.943C56.8437 207.525 57.2329 208.093 57.6244 208.664C57.9014 209.068 58.1796 209.474 58.4575 209.888C57.8015 211.359 57.1716 212.814 56.5651 214.234C56.3194 214.81 56.1288 215.316 55.9958 215.755C55.8727 216.16 55.7579 216.638 55.7532 217.111C55.7504 217.389 55.7794 218.782 57.1474 219.365C57.7541 219.624 58.3104 219.554 58.6362 219.47C58.9656 219.385 59.2266 219.245 59.3979 219.14C60.0142 218.761 60.573 218.123 60.9779 217.593C61.2339 217.257 61.4909 216.881 61.7318 216.483C61.8077 216.708 61.9286 216.976 62.1271 217.235C62.3572 217.536 62.6842 217.81 63.0928 217.977ZM60.5031 205.442C63.0066 200.191 65.864 194.93 69.1849 190.384C70.3382 188.805 70.9217 187.204 71.5497 185.274C71.4852 185.237 71.42 185.2 71.3542 185.163C70.3197 184.581 69.2769 184.083 68.5751 183.816C66.8844 183.171 65.2467 182.585 63.6198 182.095C62.6171 182.211 61.693 182.369 60.8327 182.624C60.5369 182.711 60.1754 182.745 60.0087 182.76H60.0054C59.7533 182.784 59.4464 182.804 59.1126 182.818C58.4482 182.847 57.6161 182.856 56.8222 182.815C56.1042 182.777 55.1548 182.689 54.4136 182.408C54.1282 182.3 53.2768 181.955 52.8534 181.037C52.7609 180.836 52.7009 180.641 52.6667 180.453C52.4498 180.409 52.17 180.337 51.8884 180.209C51.6322 180.093 50.892 179.718 50.5758 178.818C50.2045 177.761 50.7065 176.913 51.003 176.547C51.302 176.177 51.6754 175.913 51.9682 175.73C52.5967 175.338 53.292 174.528 54.1002 173.324C54.4296 172.833 54.7445 172.33 55.0697 171.81C55.1277 171.717 55.186 171.624 55.2448 171.53C55.6203 170.931 56.0204 170.3 56.4267 169.744C60.2173 164.555 63.1809 158.914 66.2354 153.1C66.7467 152.126 67.2605 151.148 67.7812 150.167L67.915 149.914C69.7622 146.432 71.6178 142.933 73.6679 139.519C73.7789 139.286 73.8901 139.054 74.0014 138.82C76.2443 134.125 78.5665 129.263 81.3609 124.797C81.3993 124.736 81.4391 124.671 81.4803 124.603C80.5196 123.871 79.5795 123.113 78.6482 122.309C78.098 122.36 77.5494 122.402 77.0039 122.439C75.3245 122.55 73.6438 122.605 72.0247 122.655L71.6987 122.665C70.1847 122.711 68.7316 122.755 67.3322 122.839C66.5395 122.886 61.7092 122.995 57.047 122.771C54.7234 122.66 52.3455 122.462 50.5028 122.109C49.5989 121.936 48.6905 121.702 47.9543 121.356C47.406 121.098 46.0392 120.356 45.9451 118.757C45.8406 116.982 46.5232 115.35 47.2152 114.091C47.7445 113.129 48.4056 112.176 48.9261 111.426C49.0818 111.201 49.225 110.995 49.3483 110.812C54.2132 103.59 59.942 96.6252 65.7834 90.2396C71.4219 84.0759 76.8945 77.8026 82.2812 71.4053C82.8343 70.7484 83.4648 70.0573 84.0992 69.3744C83.2391 67.9401 82.7489 66.3732 82.4118 64.9117C82.3768 64.7598 82.3431 64.6077 82.3107 64.4557C80.9329 61.9384 79.5361 59.4262 78.1008 56.9407C71.6052 48.2125 64.9822 40.0158 56.182 33.7045C55.7762 33.4135 55.3753 33.124 54.978 32.8371C53.0235 31.4259 51.1566 30.0778 49.2356 28.927C48.5271 28.9479 47.7883 28.9689 46.9807 28.9689C38.4242 28.9689 29.6824 32.534 21.7762 36.6291C15.4619 39.8996 11.7329 46.5176 8.55972 53.4513C6.49648 57.9598 5.41105 62.2924 4.84006 66.7502C4.97309 68.8788 5.27349 70.997 5.58771 73.2126C5.62 73.4403 5.65243 73.669 5.68485 73.8989C6.06916 76.6241 6.44688 79.4907 6.44688 82.452C6.44688 94.167 7.51622 106.728 10.0678 118.082C11.3066 123.594 12.9964 128.917 14.9594 134.186C17.8413 139.849 20.7315 145.492 23.7711 151.044C27.2802 157.453 31.4034 163.475 35.7087 169.471C36.9057 171.138 38.12 172.808 39.3388 174.483C42.4801 178.802 45.6513 183.161 48.6324 187.628C49.6877 189.209 50.7452 190.79 51.8032 192.371C54.5319 196.449 57.2637 200.531 59.9673 204.643C60.1307 204.892 60.311 205.16 60.5031 205.442ZM4.7876 51.616C7.95013 44.7176 12.1668 36.8865 19.8454 32.9093C24.9558 30.2623 30.663 27.6893 36.6176 26.1696C36.5035 26.1707 36.3897 26.1713 36.2763 26.1713C28.6897 26.1713 20.4379 29.0673 14.2798 33.624C14.0507 33.7935 13.8257 33.9593 13.6048 34.1222C10.676 36.2807 8.46037 37.9136 6.77035 40.7273C5.11072 43.4903 4.99528 46.414 4.84463 50.2296C4.82924 50.6195 4.81348 51.0187 4.79566 51.428C4.79293 51.4906 4.79025 51.5533 4.7876 51.616ZM53.0579 112.812C52.9811 112.925 52.9046 113.038 52.8283 113.151C52.6437 113.425 52.4593 113.691 52.2772 113.954C51.7826 114.667 51.3057 115.355 50.8916 116.108C50.5455 116.738 50.3247 117.278 50.2141 117.738C50.4859 117.82 50.8427 117.908 51.2927 117.994C52.8365 118.29 54.9754 118.477 57.2479 118.586C61.7778 118.803 66.4566 118.694 67.0822 118.656C68.5453 118.569 70.0572 118.523 71.5565 118.477L71.896 118.467C72.7175 118.442 73.5361 118.415 74.3513 118.382C72.3323 116.813 69.7778 115.648 66.9654 114.844C63.5237 113.86 59.8294 113.455 56.565 113.455C55.5915 113.455 54.7171 113.382 53.9883 113.181C53.7101 113.105 53.3829 112.99 53.0579 112.812ZM49.6028 117.488C49.6056 117.488 49.6292 117.5 49.6652 117.527C49.6178 117.502 49.5999 117.489 49.6028 117.488ZM71.7885 180.659C72.1417 180.832 72.5032 181.017 72.8624 181.21C72.9634 180.864 73.0664 180.49 73.1586 180.116C73.1027 180.137 73.0462 180.159 72.989 180.181C72.5754 180.341 72.1764 180.502 71.7885 180.659Z" fill="black"/>
<path d="M99.8071 56.4377C99.8071 58.9584 100.091 62.1801 99.0543 64.4835C98.3759 65.9909 98.1156 67.7659 97.1722 69.1416C96.4878 70.1397 95.7168 71.3028 95.5725 72.5293C95.4472 73.5938 93.9225 75.6379 93.1258 76.4345C91.5032 78.0571 89.2537 78.6676 87.2914 79.9163C82.9565 82.6749 77.6127 83.9627 72.4938 83.9627C71.486 83.9627 69.9911 84.2427 69.1061 83.751C68.6144 83.4778 68.1624 83.5709 67.624 83.5393C67.1432 83.511 66.7768 82.7319 66.3301 82.4806C65.1085 81.7935 62.8203 80.4721 61.4838 80.1751C60.3023 79.9125 60.157 78.7024 59.1548 78.0343" stroke="#FB0153" stroke-width="20" stroke-linecap="round"/>
<path d="M101.077 64.907C98.892 64.907 96.5147 69.4333 94.749 70.6472C93.0652 71.8048 90.7519 74.4621 89.4557 76.1287C88.0364 77.9536 85.9933 78.9559 84.4683 80.481C82.63 82.3192 75.6903 82.0026 73.5288 80.7868C71.6724 79.7425 69.2277 79.4054 67.2004 78.5519C65.5126 77.8412 63.9885 76.6041 62.9658 75.0701" stroke="#FB0153" stroke-width="20" stroke-linecap="round"/>
<path d="M88.2261 80.1028C88.2261 79.085 88.9318 78.4303 88.9318 77.4564C88.9318 76.1552 89.6325 76.4497 90.5 76.2019C91.7831 75.8353 92.2201 73.561 93.5189 73.3986C94.3885 73.2899 94.3037 72.653 94.7735 72.1832C95.3903 71.5664 96.5762 70.8834 97.4003 70.3798C99.2845 69.2283 100.887 67.6106 102.811 66.42C103.72 65.8573 104.868 65.6359 103.399 65.6359" stroke="#FB0153" stroke-width="20" stroke-linecap="round"/>
<path d="M63.8794 91.747C63.8794 94.5519 65.5429 93.3331 67.3295 91.9039C69.1535 90.4447 70.699 88.5607 72.5635 87.1796C73.676 86.3555 75.0367 85.0823 76.3077 84.6116C77.8507 84.0401 78.697 82.5739 80.1106 81.9456C81.4493 81.3506 84.2954 81.5474 84.3449 83.2786C84.4464 86.8317 79.819 87.9061 77.3662 89.3555C74.0693 91.3036 70.8949 93.5138 67.6824 95.6284C63.121 98.6309 55.6408 102.547 53.9995 108.292C53.5439 109.887 53.6467 111.53 53.6467 113.271C53.6467 115.451 51.1875 117.908 50.1181 119.779C48.8316 122.031 55.2338 118.584 55.8226 118.368C60.4299 116.678 65.1209 115.741 70.0347 115.741C72.1584 115.741 74.282 115.741 76.4057 115.741C77.323 115.741 78.5386 121.445 78.6992 122.288C79.1456 124.632 79.3002 125.339 81.522 125.974C82.7458 126.323 83.8852 126.768 85.129 127.111C85.4841 127.209 87.2398 127.239 87.4421 127.464C87.7512 127.807 87.5205 129.122 87.5205 129.6C87.5205 131.515 87.4275 125.764 87.599 123.857C87.6544 123.239 88.9714 114.33 87.8734 114.33C86.754 114.33 85.6433 116.23 85.031 116.996C83.3338 119.117 81.8378 121.775 80.6203 124.21C78.2993 128.852 75.9363 132.881 72.7007 136.991C70.3943 139.92 68.6795 143.22 66.7022 146.361C65.7827 147.821 66.0974 150.37 65.9965 152.085C65.9739 152.469 65.5042 152.717 65.2908 153.006C64.3551 154.276 63.8662 155.906 63.1933 157.319C62.1926 159.42 61.2319 161.497 60.3509 163.651C60.1443 164.156 58.0382 168.724 58.4102 169.022C59.0458 169.53 59.7289 172.932 59.9784 173.805C60.4039 175.294 61.885 175.58 63.3697 176.255C64.8238 176.916 71.3192 175.979 71.6226 177.647C71.9282 179.328 70.5836 180.166 70.5836 181.548C70.5836 182.789 70.1278 184.217 69.8583 185.43C69.5739 186.709 68.8193 187.958 68.8193 189.311C68.8193 190.023 67.7608 192.531 67.7608 191.252" stroke="#FB0153" stroke-width="20" stroke-linecap="round"/>
<path d="M57.8808 181.725C55.6624 181.725 56.108 178.545 54.7051 177.843" stroke="#FB0153" stroke-width="20" stroke-linecap="round"/>
<path d="M65.9966 195.486C66.5079 195.55 66.3494 196.148 66.3494 196.544" stroke="#FB0153" stroke-width="20" stroke-linecap="round"/>
<path d="M61.0742 204.142C61.0742 204.338 61.2678 204.491 61.3215 204.67C61.37 204.832 61.5514 204.977 61.6368 205.122C61.7065 205.24 61.8415 205.323 61.9136 205.446C62.0003 205.595 62.1388 205.72 62.2561 205.857C62.3883 206.011 62.488 206.194 62.6259 206.347C62.7089 206.439 62.8661 206.591 62.9117 206.694C62.9548 206.791 63.0778 206.917 63.1567 207C63.3169 207.169 63.4972 207.389 63.6058 207.594C63.7119 207.795 63.8239 208.001 63.9121 208.207C63.9673 208.336 64.0503 208.559 64.1457 208.665C64.3397 208.881 64.2681 209.124 64.3431 209.387C64.3699 209.48 64.5406 209.171 64.5541 209.132C64.6303 208.912 64.6554 208.67 64.731 208.443C64.9009 207.933 65.1166 207.38 65.1166 206.837" stroke="#FB0153" stroke-width="2" stroke-linecap="round"/>
<path d="M66.056 206.51C65.4985 206.51 64.9958 206.443 64.4658 206.245C64.2469 206.163 63.9378 205.979 63.7058 205.979C63.6131 205.979 63.0752 205.852 63.0752 205.898C63.0752 206.065 63.4831 206.285 63.606 206.347" stroke="#FB0153" stroke-width="2" stroke-linecap="round"/>
<path d="M64.5044 210.016C64.4644 210.011 64.4179 209.952 64.3913 209.926C64.3763 209.91 64.4098 210.059 64.3873 209.98C64.3623 209.893 64.4089 209.964 64.4285 210.013C64.4386 210.038 64.4445 210.045 64.4462 210.074C64.4473 210.092 64.4796 210.093 64.4898 210.111C64.5163 210.158 64.549 210.176 64.5633 210.226C64.568 210.242 64.5926 210.263 64.5552 210.263C64.5291 210.263 64.5184 210.313 64.5076 210.336C64.4984 210.355 64.5044 210.387 64.5044 210.408C64.5044 210.433 64.481 210.466 64.4672 210.488C64.4388 210.532 64.4082 210.655 64.3735 210.568" stroke="#FB0153" stroke-linecap="round"/>
<path d="M64.3299 210.743C64.3299 210.637 64.2579 210.518 64.2023 210.434C64.1801 210.401 64.1744 210.35 64.1587 210.315C64.1363 210.264 64.1098 210.189 64.0973 210.132C64.0779 210.045 63.9914 209.942 63.9447 209.864C63.8778 209.753 63.8622 209.624 63.8276 209.501C63.7889 209.363 63.7484 209.214 63.7484 209.07C63.7484 208.952 63.7484 208.834 63.7484 208.716C63.7484 208.668 63.7554 208.62 63.7339 208.577" stroke="#FB0153" stroke-linecap="round"/>
<path d="M57.6674 210.175C57.9595 210.496 58.1266 210.912 58.3256 211.292C58.4527 211.535 58.6589 211.724 58.785 211.963C58.892 212.166 59.0038 212.37 59.1482 212.546C59.3526 212.796 59.5283 213.015 59.735 213.248C59.8313 213.356 59.8603 213.689 59.9026 213.825C59.9908 214.11 60.1369 214.441 60.2907 214.698C60.3889 214.861 60.4499 215.099 60.5173 215.284C60.5893 215.483 60.6953 215.672 60.7532 215.874C60.8404 216.179 61.0668 216.631 61.2717 216.877C61.3674 216.992 61.6349 217.445 61.6349 217.427C61.6349 217.152 61.442 216.823 61.2996 216.588C61.217 216.452 61.2185 216.196 61.1009 216.095C60.886 215.91 60.8586 215.483 60.657 215.281C60.5311 215.156 60.4093 214.886 60.3217 214.729C60.2773 214.649 60.137 214.564 60.1261 214.477C60.0917 214.202 59.736 213.96 59.6822 213.664C59.6323 213.389 59.4855 213.004 59.3562 212.745C59.228 212.489 59.0085 212.17 59.0085 211.879C59.0085 211.642 58.8854 211.25 58.7167 211.081C58.5299 210.894 58.4229 210.635 58.2542 210.429C58.1349 210.283 57.9685 210.154 57.8909 209.979C57.8455 209.877 57.7219 209.849 57.6798 209.74C57.6397 209.636 57.642 209.59 57.5557 209.504" stroke="#FB0153" stroke-linecap="round"/>
<path d="M57.556 209.728C57.556 211.2 57.3441 212.69 56.9693 214.114C56.8982 214.384 56.6931 214.644 56.662 214.924C56.6487 215.043 56.5754 215.163 56.5533 215.284C56.5263 215.433 56.5718 215.589 56.5378 215.738C56.4249 216.231 56.5502 216.714 56.5502 217.215C56.5502 217.455 56.6137 217.79 56.5471 218.023C56.5354 218.063 56.5092 217.488 56.4664 217.411C56.3234 217.154 56.397 216.751 56.2708 216.467C56.2427 216.404 55.9521 216.005 56.0193 216.126C56.122 216.311 56.0879 216.505 56.1063 216.706C56.128 216.946 56.2759 217.205 56.3391 217.439C56.394 217.642 56.4863 217.816 56.5626 217.998C56.6619 218.234 56.5912 218.528 56.6061 218.78C56.6213 219.039 57.0709 218.789 56.8296 218.668" stroke="#FB0153" stroke-linecap="round"/>
<path d="M55.9907 217.341C56.0537 217.349 56.0251 217.546 56.0251 217.599C56.0251 217.768 56.0206 217.736 56.1456 217.805C56.3632 217.926 56.5058 218.197 56.7136 218.312C56.8952 218.413 56.9553 218.713 57.1133 218.836C57.2472 218.94 57.3881 219.048 57.513 219.173C57.5639 219.224 57.7463 219.373 57.7463 219.268" stroke="#FB0153" stroke-linecap="round"/>
<path d="M57.6772 219.234C57.9438 219.234 58.2734 219.286 58.5302 219.207C58.771 219.133 58.9106 219.074 59.1058 218.909C59.3944 218.665 59.6917 218.442 60.0257 218.297C60.1154 218.258 60.3622 218.13 60.3622 218.012C60.3622 217.861 60.3428 217.697 60.3642 217.547C60.3754 217.469 60.3728 217.308 60.4043 217.237C60.4688 217.092 60.3755 217.054 60.3622 216.928C60.3578 216.885 60.2682 216.626 60.2972 216.706C60.357 216.87 60.3896 217.042 60.4292 217.22C60.485 217.471 60.6233 217.569 60.783 217.746C60.8864 217.861 60.5588 217.527 60.4827 217.392C60.3293 217.121 60.1157 216.894 60.0008 216.601C59.8625 216.247 59.6644 215.923 59.5361 215.57C59.4833 215.425 59.3706 215.31 59.3219 215.164C59.2541 214.961 59.139 214.731 59.123 214.518C59.0846 214.006 58.6471 213.589 58.5703 213.089C58.5398 212.891 58.5605 212.529 58.4078 212.376C58.3554 212.324 58.2627 212.288 58.228 212.227C58.1276 212.051 58.1572 212.118 58.2777 212.279C58.5603 212.655 58.9506 212.949 59.2607 213.306C59.4425 213.514 59.6291 213.744 59.7904 213.967C59.8512 214.051 59.9232 214.138 59.9568 214.235C60.0491 214.502 60.2245 214.828 60.2245 215.12C60.2245 215.291 59.8115 215.307 59.8115 215.138" stroke="#FB0153" stroke-linecap="round"/>
<path d="M58.8479 213.692C58.8479 213.429 58.6045 213.257 58.4272 213.08C58.2093 212.862 57.846 212.738 57.5934 212.556C57.5056 212.493 57.3017 212.27 57.4365 212.556C57.522 212.737 57.705 212.925 57.7425 213.122C57.8312 213.588 57.9185 214.031 57.9185 214.51C57.9185 214.913 57.9151 215.26 57.6852 215.601C57.4676 215.922 57.3711 216.398 57.3314 216.775C57.2612 217.441 57.213 218.261 57.7617 218.752C57.9913 218.958 58.2322 218.92 58.5037 218.848C58.8338 218.76 58.8033 218.528 58.934 218.266C59.0606 218.013 59.2958 217.802 59.3279 217.513C59.3525 217.292 59.3384 217.047 59.3298 216.824C59.3186 216.533 59.078 216.229 58.9856 215.956C58.8912 215.678 58.698 215.432 58.5897 215.155C58.5158 214.966 58.3987 214.773 58.2551 214.629C58.2161 214.59 57.6802 214.042 57.5742 214.227C57.4408 214.461 57.487 214.75 57.4021 215C57.2299 215.507 57.166 216.074 57.2816 216.601C57.4229 217.244 57.7241 217.869 58.1958 218.341C58.299 218.444 58.4905 218.576 58.6414 218.58C58.7501 218.583 58.9142 218.66 59.02 218.607C59.0568 218.588 59.1122 218.535 59.1214 218.494C59.1394 218.413 59.2232 218.413 59.2591 218.341C59.2874 218.284 59.42 218.293 59.4752 218.243C59.5902 218.14 59.764 218.084 59.8978 217.995C60.0148 217.917 60.131 217.811 60.2592 217.754C60.3272 217.724 60.3788 217.634 60.4486 217.618C60.5793 217.589 60.2031 217.519 60.156 217.505C60.006 217.463 59.8806 217.318 59.8806 217.161C59.8806 216.73 59.8462 216.295 59.8462 215.868C59.8462 215.562 59.7061 215.411 59.4675 215.233C59.2506 215.072 59.0605 214.887 58.8785 214.688C58.6758 214.467 58.4437 214.256 58.2799 214.004C58.2112 213.898 58.1182 213.773 58.0294 213.684C57.9577 213.613 58.0107 213.888 58.0256 213.988C58.0485 214.143 58.123 214.296 58.1594 214.449C58.2243 214.723 58.2608 215.004 58.2895 215.283C58.3145 215.527 58.2971 215.78 58.2971 216.025C58.2971 216.397 58.1594 216.751 58.1594 217.127C58.1594 217.24 58.125 217.353 58.125 217.167C58.125 216.928 58.1165 216.64 58.1786 216.409C58.1996 216.331 58.2131 216.063 58.2704 216.006C58.3645 215.912 58.5156 216.254 58.5343 216.293C58.6214 216.473 58.6655 216.706 58.7293 216.897C58.782 217.055 58.8442 217.234 58.8479 217.402C58.852 217.591 58.9111 217.765 58.8555 217.953C58.7463 218.322 58.5942 217.746 58.5744 217.597C58.5713 217.574 58.5987 217.261 58.5037 217.356C58.4031 217.457 58.4326 217.659 58.4004 217.788" stroke="#FB0153" stroke-linecap="round"/>
</g>
<defs>
<clipPath id="clip0_411_15">
<rect width="165" height="232" fill="white"/>
</clipPath>
</defs>
</svg>
