<svg width="157" height="164" viewBox="0 0 157 164" fill="none" xmlns="http://www.w3.org/2000/svg">
<g clip-path="url(#clip0_570_6408)">
<path fill-rule="evenodd" clip-rule="evenodd" d="M54.8458 3.32C47.2974 3.25298 40.0657 3.18877 33.486 6.296C32.9984 6.5263 32.5281 6.74653 32.0743 6.95909C28.8965 8.44742 26.521 9.56002 24.5647 11.1263C22.4322 12.8336 20.7588 15.1312 19.4109 19.2687C19.0802 20.284 18.7406 21.2875 18.4041 22.2821C16.1678 28.8914 14.0639 35.1095 15.5467 41.8055C16.1417 44.4927 16.5453 47.106 16.9362 49.6381C17.0466 50.3527 17.156 51.061 17.2684 51.7626C17.7834 54.9779 18.37 58.1173 19.4135 61.375C19.9411 63.0224 20.4291 64.6317 20.9104 66.2189C22.0219 69.8843 23.0977 73.4323 24.545 77.0632C29.3054 89.0063 36.036 101.495 43.0154 112.413C45.1609 115.769 47.1656 119.193 49.1483 122.577C49.6497 123.434 50.1496 124.288 50.65 125.137C53.1396 129.363 55.6542 133.509 58.4802 137.48C60.5591 140.401 62.9951 143.064 65.4832 145.783C66.756 147.174 68.0426 148.581 69.3018 150.044C70.564 151.511 70.7285 153.41 70.8384 154.68C70.8431 154.734 70.8478 154.788 70.8524 154.84C70.9891 156.387 71.1199 157.051 71.5181 157.45C71.5885 157.521 71.651 157.564 71.8556 157.55C72.1294 157.531 72.5734 157.398 73.2035 157.039C74.4612 156.322 75.9714 154.991 77.5352 153.371C79.0758 151.775 80.5752 149.999 81.8163 148.482C82.2025 148.01 82.5738 147.55 82.9168 147.125C83.6288 146.242 84.2176 145.514 84.5567 145.151C88.7399 140.679 92.508 135.804 96.3003 130.834C96.5562 130.499 96.8121 130.164 97.068 129.828C100.595 125.203 104.168 120.516 108.084 116.125C114.669 108.739 121.029 101.006 127.213 93.249C127.597 92.7672 127.981 92.2863 128.364 91.8053C136.521 81.5837 144.552 71.5183 150.352 59.9839C154.415 51.9058 154.13 43.7647 152.947 34.5324C152.577 31.6422 150.611 25.7607 147.778 20.5821C146.369 18.007 144.798 15.7032 143.181 14.0663C141.53 12.3941 140.059 11.6412 138.835 11.6412C136.026 11.6412 133.223 11.8929 130.326 12.1535L130.311 12.1548C127.444 12.4128 124.486 12.6789 121.485 12.6789C117.282 12.6789 114.549 13.0727 112.202 14.1021C109.851 15.1331 107.724 16.8728 104.867 19.8914C100.622 24.3749 96.6535 29.5978 94.6526 35.2222C94.2538 36.3429 94.2679 37.6002 94.4524 39.1559C94.4971 39.538 94.556 39.9517 94.6172 40.3863C94.7201 41.1178 94.8315 41.9085 94.903 42.7073C94.9799 42.9547 94.9972 43.2135 94.9564 43.4628C94.9697 43.7226 94.9776 43.9817 94.9776 44.2381C94.9776 45.1477 94.2428 45.8851 93.3361 45.8851C92.4302 45.8851 91.6955 45.1477 91.6955 44.2381C91.6955 44.0506 91.6908 43.8647 91.6821 43.6794C91.0526 42.7298 90.4183 41.7693 89.7793 40.8012C83.851 31.8244 77.4966 22.2009 70.2086 14.5947C69.6254 13.986 68.8595 13.0975 68.0166 12.1195C67.8506 11.9269 67.6815 11.7307 67.5103 11.5327C66.4482 10.3037 65.2609 8.94794 64.0451 7.68375C62.8224 6.41236 61.6133 5.27855 60.5139 4.47319C59.3473 3.61864 58.5761 3.33968 58.1788 3.33968C57.0617 3.33968 55.9504 3.32981 54.8458 3.32ZM91.0588 36.7767C85.5411 28.4398 79.4715 19.51 72.5747 12.3117C72.0573 11.7717 71.3643 10.9679 70.5187 9.98721C70.3486 9.78985 70.1723 9.58541 69.99 9.37449C68.9233 8.14008 67.6876 6.72789 66.4069 5.39628C65.1332 4.07185 63.7724 2.78201 62.4491 1.81267C61.193 0.892523 59.6889 0.0457282 58.1788 0.0457282C57.1143 0.0457282 56.0332 0.0345541 54.94 0.0232532C47.4574 -0.0540949 39.4001 -0.137383 32.0884 3.31557C31.6177 3.53787 31.1541 3.75446 30.698 3.96755C27.5739 5.42716 24.803 6.72178 22.5177 8.55134C19.7955 10.7307 17.7995 13.6148 16.291 18.2452C15.9824 19.1925 15.6545 20.1545 15.3216 21.1308C13.0918 27.6718 10.6442 34.8511 12.3424 42.52C12.9121 45.0925 13.2944 47.5667 13.6829 50.0814C13.7957 50.8115 13.909 51.545 14.0276 52.2854C14.5502 55.5477 15.1677 58.8837 16.2885 62.3829C16.7825 63.9254 17.253 65.4762 17.7252 67.0333C18.8552 70.7588 19.996 74.5199 21.4974 78.2866C26.3517 90.4649 33.1882 103.141 40.2527 114.191C42.36 117.488 44.3235 120.84 46.3028 124.22C46.8081 125.083 47.3144 125.947 47.8245 126.813C50.3222 131.053 52.8963 135.302 55.8093 139.395C58.0005 142.473 60.6808 145.407 63.251 148.219C64.4876 149.572 65.6987 150.897 66.8176 152.197C67.3221 152.783 67.4501 153.629 67.5828 155.131C67.588 155.19 67.5934 155.251 67.5987 155.315C67.7042 156.547 67.8666 158.445 69.1971 159.779C70.0191 160.604 71.0503 160.908 72.0836 160.836C73.0477 160.769 73.9856 160.382 74.8245 159.903C76.5048 158.946 78.2804 157.333 79.8922 155.663C81.5282 153.969 83.0942 152.111 84.3534 150.573C84.8299 149.989 85.2506 149.468 85.6125 149.02C86.2429 148.238 86.6927 147.68 86.9502 147.405C91.2598 142.798 95.1196 137.799 98.9065 132.837C99.1569 132.508 99.4081 132.179 99.6585 131.851C103.201 127.205 106.702 122.614 110.53 118.32C117.171 110.872 123.574 103.087 129.776 95.3069C130.18 94.7991 130.586 94.2913 130.992 93.7828C139.095 83.6298 147.323 73.3184 153.283 61.468C157.814 52.4574 157.401 43.4641 156.203 34.1124C155.764 30.6855 153.613 24.403 150.655 18.9968C149.168 16.2794 147.426 13.6856 145.514 11.7481C143.636 9.84583 141.365 8.34728 138.835 8.34728C135.874 8.34728 132.941 8.6111 130.087 8.86783L130.033 8.87272C127.138 9.13314 124.321 9.38498 121.485 9.38498C117.115 9.38498 113.849 9.78504 110.887 11.0838C107.93 12.3809 105.439 14.5038 102.487 17.6227C98.116 22.2401 93.7875 27.8577 91.5612 34.1144C91.2441 35.0054 91.1004 35.902 91.0588 36.7767Z" fill="black"/>
<path fill-rule="evenodd" clip-rule="evenodd" d="M80.0015 34.8973C81.7921 29.9173 84.7037 25.0857 89.2638 20.7716C92.8748 17.3561 97.6617 13.1834 103.189 9.82647C108.646 6.51208 115.699 3.4546 123.675 3.4546C123.998 3.4546 124.275 3.43924 124.767 3.412C125.178 3.3893 125.736 3.35836 126.595 3.32117C128.048 3.2582 130.117 3.2017 132.287 3.40127C135.343 3.68225 145.577 5.13839 148.559 15.6432C150.914 23.941 149.852 33.1952 148.301 39.5515C142.885 61.7506 129.331 82.2721 118.412 98.8046C118.228 99.0821 118.045 99.3597 117.863 99.6356C113.497 106.247 108.976 112.712 104.562 119.025L104.344 119.336C99.8283 125.793 95.426 132.094 91.2113 138.497C90.6501 139.35 90.0566 140.273 89.4302 141.247C85.7485 146.975 80.9059 154.508 74.5211 160.293C72.0234 162.556 68.0639 164.539 63.2517 163.867C58.5866 163.216 55.4376 160.388 53.6955 157.882C51.9969 155.44 50.4878 152.917 49.2031 150.762L49.0316 150.474C47.7534 148.329 46.6857 146.536 45.5576 144.86C32.3279 125.2 21.8096 103.574 19.8715 77.82C19.0004 66.2451 18.7882 54.8138 18.8497 43.4679C18.9004 34.1321 20.8448 26.3227 24.7255 18.1494C26.604 14.1932 30.0867 8.81014 35.151 5.09293C37.785 3.15965 41.4295 1.25697 45.9099 0.86212C50.6641 0.443129 55.2504 1.82701 59.1742 4.69085C69.8009 12.4468 76.3935 25.8894 80.0015 34.8973Z" fill="#FB0153"/>
<path fill-rule="evenodd" clip-rule="evenodd" d="M93.1591 42.5898C94.0705 42.7024 94.7165 43.5239 94.6027 44.4246C94.4991 45.2413 93.9464 45.818 93.6662 46.0876C93.3177 46.4227 92.9 46.7281 92.5389 46.9761C92.3074 47.1353 92.0467 47.3065 91.8207 47.4543C91.7053 47.5297 91.5993 47.5991 91.5114 47.6578C91.3654 47.7552 91.25 47.8345 91.162 47.8999C91.0835 47.9578 91.0545 47.9843 91.0545 47.9841C91.0545 47.9841 91.0561 47.9824 91.0592 47.9794C88.1296 50.9501 85.3515 53.8727 82.7633 57.0612C81.8661 58.1668 81.0363 59.3215 80.1815 60.5153C80.1485 60.5618 80.1155 60.6084 80.0818 60.6551C79.2677 61.7928 78.4279 62.9672 77.5242 64.0972C77.0699 64.6653 76.6928 65.2917 76.2484 66.0296C76.2158 66.0837 76.1828 66.1384 76.1495 66.1938C75.7647 66.8321 75.3256 67.5497 74.7807 68.2363C80.7341 69.5878 85.9638 71.3507 91.1197 75.4289C91.582 75.7941 92.0813 76.1661 92.5994 76.5513C93.8185 77.4589 95.1373 78.4403 96.2912 79.581C96.3132 79.6031 96.3713 79.6527 96.5299 79.7765C96.544 79.7876 96.5581 79.7994 96.5738 79.8112C96.7018 79.9114 96.8784 80.0501 97.0441 80.1952C97.2277 80.3568 97.4703 80.5879 97.6752 80.8796C97.8777 81.169 98.125 81.6341 98.125 82.2326C98.125 82.7112 98.0449 83.1977 97.8134 83.6581C97.5771 84.1265 97.2474 84.4395 96.9569 84.6555C96.7458 84.8116 96.4977 84.9536 96.3501 85.0379C96.3242 85.0529 96.3014 85.0663 96.2826 85.0774C96.1154 85.1743 96.0024 85.2469 95.9003 85.332C93.2054 87.5665 90.7201 90.0636 88.2332 92.6545C87.6821 93.2277 87.1303 93.8072 86.5753 94.3899C84.6442 96.417 82.6817 98.4781 80.6368 100.431C79.084 101.915 77.6243 103.478 76.1238 105.085C75.3832 105.879 74.6327 106.683 73.8562 107.493C71.5488 109.9 69.0807 112.284 66.2299 114.235C66.1903 114.263 66.1483 114.291 66.1043 114.321C65.9567 114.423 65.7856 114.541 65.5966 114.668C66.8285 115.263 68.0695 115.868 69.3522 116.592C72.2472 118.227 74.0166 120.258 75.871 122.385C76.1299 122.681 76.3904 122.981 76.656 123.281C77.3359 124.049 78.0562 124.783 78.7426 125.462C79.172 125.887 79.497 126.448 79.694 126.789C79.7207 126.835 79.745 126.877 79.767 126.914C80.0119 127.329 80.1564 127.523 80.2977 127.639C80.9272 128.158 81.3904 128.768 81.7358 129.223L81.7475 129.238C82.0333 129.615 82.2429 129.892 82.4556 130.118C82.6134 130.139 82.9172 130.202 83.2226 130.424C83.648 130.734 83.8702 131.198 83.8977 131.652C83.9196 132.017 83.8121 132.29 83.7666 132.395C83.7124 132.521 83.6543 132.613 83.6245 132.658C83.5648 132.748 83.5075 132.813 83.4942 132.829C83.4722 132.854 83.4534 132.875 83.4455 132.883L83.4063 132.926C83.3772 132.957 83.2885 133.054 83.1284 133.272C82.4289 134.218 81.7342 135.109 81.0536 135.984C79.8997 137.466 78.785 138.897 77.7534 140.457C77.437 140.935 77.1133 141.385 76.8152 141.8L76.7783 141.851C76.4637 142.289 76.1795 142.686 75.9181 143.089C75.4042 143.881 75.0125 144.644 74.7842 145.547C73.8418 149.273 72.9195 153.16 72.9195 156.837C72.9195 157.745 72.1753 158.481 71.2571 158.481C70.339 158.481 69.5947 157.745 69.5947 156.837C69.5947 152.698 70.6263 148.437 71.5587 144.749C71.9045 143.382 72.4907 142.283 73.1199 141.314C73.4301 140.836 73.7587 140.378 74.0683 139.947L74.0926 139.913C74.3997 139.486 74.6902 139.082 74.9706 138.658C76.0601 137.011 77.3273 135.38 78.5432 133.817C78.9828 133.251 79.4161 132.693 79.8321 132.147C79.566 131.843 79.3384 131.543 79.1492 131.291C79.1241 131.258 79.099 131.226 79.0754 131.194C78.7167 130.721 78.4622 130.406 78.1693 130.165C77.5363 129.644 77.1426 128.99 76.8951 128.57L76.8546 128.502C76.5782 128.034 76.4888 127.882 76.3919 127.786C75.6845 127.087 74.9048 126.294 74.1538 125.446C73.8705 125.126 73.6006 124.817 73.3399 124.519C71.4664 122.378 70.0737 120.786 67.7026 119.446C66.4601 118.744 65.3028 118.185 64.0476 117.579C63.5995 117.362 63.139 117.139 62.6577 116.902C62.5932 116.893 62.4988 116.882 62.3731 116.873C62.0843 116.852 61.7318 116.844 61.3993 116.844C61.0818 116.843 60.8078 116.849 60.6586 116.852H60.6454C60.6128 116.853 60.5754 116.854 60.5487 116.854H60.5164C60.5103 116.854 60.4709 116.854 60.4245 116.852C60.41 116.851 60.3829 116.849 60.3491 116.846L60.3479 116.845C60.3265 116.844 60.2422 116.835 60.1376 116.811C60.0739 116.795 59.9008 116.738 59.7938 116.692C59.5823 116.571 59.0536 115.995 58.875 115.483C58.8916 114.854 59.3475 114.04 59.59 113.844C59.7112 113.771 59.9091 113.68 59.9812 113.654C60.0947 113.616 60.188 113.598 60.2097 113.594H60.2113C60.247 113.587 60.2757 113.583 60.2906 113.582C60.3212 113.577 60.3456 113.575 60.3555 113.574C60.4094 113.568 60.512 113.563 60.5991 113.558L60.6361 113.557C60.8671 113.544 61.4373 113.341 62.2866 112.856C63.0018 112.448 63.6947 111.973 64.2186 111.614C64.2592 111.586 64.2989 111.559 64.3374 111.533C66.9007 109.778 69.1804 107.592 71.443 105.231C72.1541 104.49 72.8713 103.722 73.5961 102.945C75.1343 101.299 76.7066 99.6158 78.3264 98.0681C80.3094 96.1734 82.1997 94.188 84.1222 92.1704C84.685 91.5798 85.2502 90.9861 85.8217 90.3908C88.3251 87.7834 90.9171 85.1735 93.7635 82.8137C94.01 82.6095 94.2471 82.4541 94.4418 82.3351C94.3091 82.231 94.1105 82.0741 93.9402 81.9054C92.9534 80.93 91.9455 80.1818 90.8245 79.3492C90.2624 78.9321 89.6729 78.4939 89.0433 77.9957C84.0782 74.0687 79.0275 72.4982 72.6429 71.1335C72.119 71.0215 71.4611 70.7378 71.0587 70.068C70.6638 69.4107 70.7318 68.7397 70.8409 68.3247C71.0424 67.5585 71.5813 66.8825 71.9204 66.4994C72.4142 65.9413 72.8228 65.2916 73.2936 64.5107C73.3318 64.4473 73.3705 64.3829 73.4097 64.3176C73.8315 63.6159 74.3182 62.8061 74.9162 62.0583C75.7635 60.9989 76.5576 59.8889 77.3858 58.7312L77.4676 58.6169C78.3162 57.4307 79.201 56.1981 80.1705 55.0041C82.8599 51.6896 85.7275 48.6767 88.6783 45.6846C88.9648 45.394 89.3723 45.1189 89.6533 44.9317C89.7899 44.8408 89.9178 44.7572 90.0419 44.6758C90.242 44.5452 90.4336 44.4199 90.64 44.278C90.9634 44.0553 91.2005 43.8731 91.3489 43.7304C91.3575 43.7217 91.3662 43.7134 91.374 43.7057C91.6174 42.974 92.3568 42.4907 93.1591 42.5898ZM91.4439 43.6265C91.4446 43.6264 91.4399 43.6342 91.4266 43.6499C91.4368 43.6344 91.4431 43.6266 91.4439 43.6265Z" fill="black"/>
<path fill-rule="evenodd" clip-rule="evenodd" d="M94.3594 37.4206L94.1812 39.0544C94.0721 40.0468 93.5712 40.9936 93.1866 41.6574C93.0257 41.9362 92.853 42.2161 92.7007 42.4642C92.6598 42.5306 92.6198 42.5948 92.5821 42.6561C92.3929 42.9655 92.2516 43.2051 92.1527 43.4019C91.0655 45.562 89.7718 47.6374 88.5253 49.6387C88.0393 50.4181 87.5605 51.1862 87.1036 51.9438C86.9741 52.1583 86.8454 52.3726 86.7158 52.5869C83.8459 57.3442 81.0026 62.0579 78.6358 66.9864C78.533 67.2003 78.4047 67.4823 78.258 67.8045C77.9401 68.5026 77.5362 69.3894 77.1209 70.1828C76.7189 70.9511 76.2084 71.8363 75.5892 72.5748C85.0391 75.1916 93.7204 78.8816 101.822 84.8408C102.045 85.0048 102.358 85.2665 102.575 85.6466C102.833 86.0968 103.022 86.8876 102.515 87.6264C102.139 88.1744 101.589 88.3463 101.371 88.403C101.088 88.4771 100.807 88.4968 100.575 88.4968C98.7216 88.4968 97.1744 89.3019 95.2025 90.5248C90.549 93.4098 86.1404 96.6227 81.8276 100.056C80.5952 101.038 79.3078 101.963 78.0587 102.86C77.7848 103.057 77.5127 103.253 77.2434 103.447C75.7272 104.543 74.2777 105.621 72.9423 106.807C70.8089 108.7 68.4592 110.463 66.174 112.177C65.7953 112.461 65.4183 112.744 65.0444 113.026C63.0481 114.53 61.1281 116.016 59.3925 117.578C59.4003 117.582 59.408 117.585 59.4158 117.588C60.012 117.817 60.635 118.047 61.1615 118.241L61.2831 118.286C61.7506 118.458 62.2083 118.626 62.4105 118.718C66.6715 120.641 70.7373 123.603 74.5151 126.355C75.7009 127.218 76.8583 128.062 77.9845 128.846C78.9946 129.548 79.891 130.367 80.6996 131.114C80.7467 131.157 80.793 131.2 80.8385 131.243C81.6173 131.962 82.3167 132.608 83.0679 133.166C83.4738 133.467 83.9134 133.837 84.2054 134.302C84.3671 134.559 84.5084 134.884 84.5524 135.27C84.5979 135.667 84.528 136.025 84.4103 136.323C84.2148 136.818 83.8584 137.193 83.6904 137.37L83.6779 137.383C83.6088 137.456 83.5468 137.52 83.4871 137.581C83.3442 137.728 83.221 137.855 83.0774 138.025C82.9078 138.224 82.739 138.422 82.5718 138.619C79.7859 141.891 77.2859 144.828 75.218 148.504C73.3283 151.863 70.8925 155.534 67.8313 158.199L66.6027 159.269L64.4965 156.773L65.7251 155.704C68.3636 153.406 70.5794 150.123 72.408 146.872C74.6377 142.909 77.3315 139.746 80.0779 136.523C80.2608 136.308 80.4445 136.092 80.6282 135.876C80.7121 135.777 80.7938 135.685 80.8707 135.601C80.0849 134.991 79.3596 134.32 78.6916 133.703C78.635 133.65 78.5785 133.598 78.5228 133.546C77.7042 132.79 76.9589 132.117 76.1552 131.557C74.898 130.682 73.656 129.778 72.4183 128.877C68.702 126.172 65.0252 123.496 61.0961 121.722C61.0934 121.72 61.069 121.71 61.0116 121.687C60.9546 121.665 60.881 121.637 60.7903 121.603C60.6087 121.534 60.3777 121.449 60.109 121.35L60.0524 121.329C59.5301 121.137 58.8875 120.9 58.2686 120.662C57.6362 120.419 56.9886 120.158 56.506 119.93C56.2804 119.825 56.0108 119.689 55.789 119.537C55.7048 119.479 55.4691 119.315 55.2754 119.044C55.1759 118.905 54.9864 118.6 54.9539 118.162C54.9152 117.638 55.1178 117.168 55.4353 116.845C57.7551 114.489 60.4538 112.392 63.1158 110.386C63.501 110.095 63.8852 109.807 64.2677 109.52C66.5588 107.801 68.7879 106.128 70.8127 104.331C72.2783 103.03 73.8406 101.872 75.3679 100.768C75.6516 100.563 75.9334 100.361 76.2133 100.16C77.4591 99.2641 78.6672 98.396 79.8314 97.4688C84.214 93.9798 88.7278 90.688 93.5163 87.7186C94.7024 86.983 95.9757 86.2316 97.4138 85.7451C90.0175 80.8149 82.0663 77.667 73.3138 75.362C72.9958 75.2782 72.6057 75.1623 72.2657 74.9809C71.9764 74.8265 71.2538 74.3742 71.1405 73.4193C71.0371 72.5481 71.538 71.931 71.7462 71.6962C72.0125 71.3961 72.3594 71.1143 72.7124 70.8535C73.1221 70.5508 73.6632 69.7862 74.2633 68.6397C74.6424 67.9152 74.9572 67.2219 75.2508 66.5753C75.4137 66.2166 75.57 65.8723 75.7272 65.5451C78.164 60.4705 81.0819 55.6342 83.9306 50.9115C84.0688 50.683 84.2062 50.4547 84.3436 50.2267C84.8562 49.3777 85.3672 48.5569 85.8712 47.749C87.0863 45.7987 88.2552 43.9231 89.2702 41.9057C89.4382 41.5722 89.6462 41.2271 89.8346 40.9193C89.8809 40.8441 89.9257 40.7707 89.9704 40.6985C90.1196 40.4561 90.2601 40.2273 90.3967 39.9913C90.7766 39.3356 90.9391 38.9221 90.9642 38.6913L91.1432 37.0576L94.3594 37.4206ZM99.9572 87.5302C99.9564 87.5302 99.9517 87.5263 99.9439 87.5192C99.9533 87.5263 99.9572 87.5302 99.9572 87.5302Z" fill="black"/>
<path fill-rule="evenodd" clip-rule="evenodd" d="M126.77 6.49066C124.469 6.448 122.233 6.40654 119.983 6.54854C118.394 6.64882 116.719 7.39604 114.955 8.51148C113.789 9.24814 112.723 10.0475 111.659 10.8449C111.075 11.2833 110.49 11.7212 109.892 12.1478C106.31 14.6964 103.467 17.8858 100.994 21.632C98.2633 25.7669 96.6266 29.3333 94.8965 34.1201C93.6985 37.4337 92.7793 40.2438 92.7793 43.4531V45.1019H89.5129V43.4531C89.5129 39.6024 90.6308 36.3022 91.8287 32.9896C93.6216 28.0288 95.3651 24.2115 98.2767 19.8029C100.921 15.7986 104.03 12.2851 108.01 9.45267C108.479 9.11899 108.998 8.72997 109.552 8.31579C110.684 7.46818 111.958 6.51527 113.221 5.71643C115.145 4.50096 117.377 3.40902 119.779 3.25745C122.16 3.10723 124.625 3.15226 127.001 3.19564C128.096 3.21564 129.171 3.23528 130.21 3.23528C134.898 3.23528 139.219 3.74762 142.838 8.06655C145.796 11.5953 148.232 16.6408 149.198 21.1465C149.485 22.4874 149.828 23.8104 150.182 25.1737C150.263 25.4834 150.344 25.7951 150.425 26.1096C150.858 27.7887 151.284 29.5263 151.579 31.3117C151.929 33.4363 152.015 35.5879 152.05 37.6615C152.059 38.2061 152.065 38.7422 152.071 39.2717C152.088 40.7946 152.103 42.2629 152.198 43.7245C152.67 50.9846 151.325 56.6687 147.747 63.0737C141.554 74.1585 134.006 84.7848 125.205 93.9767C123.922 95.3171 123.311 96.0874 122.638 97.5461C121.891 99.1671 121.202 100.806 120.5 102.477C120.422 102.663 120.343 102.85 120.264 103.038C119.483 104.891 118.68 106.778 117.781 108.645C113.97 116.558 109.074 123.808 104.274 130.915L104.14 131.115C103.183 132.532 102.149 133.892 101.145 135.213L101.067 135.316C100.03 136.682 99.0224 138.011 98.0961 139.396C96.8064 141.323 95.4829 143.278 92.8241 144.315C92.01 144.632 91.3004 145.081 90.5452 145.637C90.294 145.821 90.0004 146.048 89.6864 146.29C89.166 146.692 88.589 147.139 88.052 147.511C87.8927 147.621 87.7318 147.732 87.5701 147.844C86.9907 148.243 86.3988 148.649 85.8266 149.089C85.0926 149.652 84.5007 150.188 84.1184 150.688C83.5501 151.43 82.9315 152.069 82.3482 152.645C82.174 152.818 82.0052 152.981 81.8419 153.14C81.4384 153.535 81.0632 153.9 80.6903 154.3C80.5137 154.489 80.3771 154.685 80.1754 154.974C80.1047 155.077 80.0254 155.19 79.9336 155.32C79.6313 155.745 79.1878 156.335 78.53 156.778L77.171 157.692L75.3594 154.948L76.7181 154.034C76.8528 153.943 77.0099 153.777 77.2798 153.398C77.3206 153.34 77.3669 153.273 77.4181 153.199C77.6415 152.876 77.9577 152.418 78.3139 152.037C78.7435 151.577 79.2027 151.13 79.6258 150.718C79.7774 150.569 79.9241 150.427 80.0639 150.289C80.6173 149.742 81.1064 149.23 81.5342 148.671C82.1787 147.829 83.039 147.086 83.8499 146.464C84.4968 145.967 85.1821 145.496 85.7693 145.092C85.9208 144.988 86.066 144.888 86.2018 144.794C86.7113 144.441 87.121 144.121 87.5591 143.781C87.8817 143.53 88.2192 143.267 88.6219 142.972C89.4831 142.338 90.4557 141.704 91.6466 141.239C93.2472 140.615 94.0746 139.515 95.3894 137.549C96.3793 136.07 97.4453 134.665 98.4761 133.308L98.531 133.237C99.5515 131.893 100.537 130.597 101.441 129.257L101.512 129.152C106.355 121.98 111.138 114.899 114.844 107.203C115.704 105.42 116.478 103.601 117.258 101.748C117.337 101.561 117.416 101.373 117.495 101.186C118.194 99.5227 118.906 97.8299 119.677 96.1544C120.561 94.2385 121.438 93.1669 122.857 91.6846C131.437 82.7238 138.824 72.3319 144.903 61.4535C148.181 55.5844 149.368 50.5354 148.94 43.9402C148.839 42.3808 148.821 40.7827 148.804 39.2351C148.798 38.7228 148.793 38.216 148.784 37.7179C148.75 35.6775 148.667 33.727 148.357 31.8538C148.088 30.223 147.693 28.6055 147.264 26.9393C147.187 26.6406 147.109 26.3395 147.03 26.0365C146.675 24.6694 146.309 23.2615 146.005 21.8433C145.152 17.8572 142.951 13.3058 140.345 10.1966C137.695 7.03368 134.655 6.53279 130.21 6.53279C129.042 6.53279 127.898 6.51158 126.77 6.49066Z" fill="black"/>
<path fill-rule="evenodd" clip-rule="evenodd" d="M15.0317 52.8269V54.4712C15.0317 56.838 15.6425 59.2192 16.5263 61.6712C16.9671 62.8941 17.4667 64.1111 17.9809 65.3437C18.0519 65.5141 18.1234 65.685 18.195 65.8563C18.6366 66.9126 19.0846 67.9842 19.4908 69.0433C20.7219 72.253 22.0624 75.4374 23.4242 78.6423C23.5776 79.003 23.7312 79.3642 23.8849 79.7261C25.0935 82.5677 26.3108 85.429 27.4598 88.3116C27.9364 89.5069 28.3955 90.6912 28.8507 91.866C30.1564 95.2351 31.4301 98.5222 32.9919 101.742C37.2883 110.601 43.6073 118.301 49.9806 126.066C51.3464 127.731 52.7147 129.398 54.0662 131.081C58.5173 136.622 62.6157 142.383 66.4515 148.355C67.0225 149.244 67.648 150.169 68.2864 151.113C69.2773 152.578 70.2992 154.089 71.1964 155.582C71.2617 155.691 71.3482 155.828 71.4463 155.984C71.6926 156.376 72.0124 156.884 72.2574 157.352C72.6173 158.038 73.0054 158.961 73.0054 159.991V161.635H69.7491V159.991C69.7491 159.764 69.6541 159.414 69.3793 158.89C69.1935 158.535 69.0054 158.238 68.796 157.907C68.6762 157.717 68.5495 157.516 68.4123 157.288C67.537 155.831 66.6296 154.492 65.6948 153.113C65.0489 152.16 64.39 151.188 63.7195 150.144C59.9399 144.26 55.9086 138.594 51.5372 133.152C50.2352 131.532 48.9004 129.906 47.555 128.268C41.172 120.495 34.5509 112.432 30.0675 103.188C28.4414 99.8358 27.0973 96.3673 25.7781 92.9628C25.3323 91.8116 24.8893 90.6683 24.4392 89.54C23.3051 86.6945 22.1033 83.8694 20.893 81.0239C20.7394 80.6628 20.5856 80.3008 20.4317 79.9389C19.0698 76.7336 17.7085 73.5012 16.4543 70.231C16.0671 69.2217 15.6404 68.2009 15.1977 67.1417C15.1255 66.9689 15.0529 66.7952 14.98 66.6204C14.4645 65.3847 13.9372 64.1022 13.4664 62.7959C12.5268 60.1892 11.7754 57.3922 11.7754 54.4712V52.8269H15.0317Z" fill="black"/>
<path fill-rule="evenodd" clip-rule="evenodd" d="M12.2461 13.8361C14.6362 12.5588 17.1899 11.4359 19.7579 10.3068C20.7461 9.87217 21.7365 9.4367 22.7205 8.99114C32.5609 4.5352 44.9442 6.32375 55.1668 10.0974C55.9636 10.3915 56.7694 10.6703 57.5845 10.9523C58.9245 11.4159 60.2894 11.8882 61.6806 12.4515C63.8729 13.3393 65.8316 14.3457 67.2636 15.6093C70.5596 18.5175 73.7738 21.8703 76.7604 25.1847C78.4271 27.0344 80.0088 28.9513 81.6172 30.9C81.9116 31.2575 82.2075 31.6161 82.5051 31.9756C84.4126 34.2801 86.3743 36.6068 88.5103 38.8055C89.1658 39.4802 89.7153 40.2518 90.3284 41.1386C90.3716 41.2007 90.4147 41.2637 90.4587 41.3271C91.0168 42.1363 91.6433 43.0445 92.3961 43.8796C92.732 44.2525 93.0154 44.5512 93.2494 44.7764C93.4315 44.9509 93.7345 45.2344 94.0815 45.4031C94.1851 45.4536 94.368 45.5317 94.6043 45.5678C94.8429 45.6043 95.2503 45.6132 95.675 45.3801C96.5997 44.8729 96.5589 43.9045 96.5534 43.7867C96.5417 43.5285 96.4773 43.3125 96.4443 43.2078C96.4027 43.0785 96.3532 42.9539 96.3069 42.8455C96.0871 42.3305 95.6177 41.4777 95.2142 40.7458C95.0431 40.4349 94.8837 40.1459 94.7605 39.9137L94.7424 39.8796C93.2721 37.1029 91.94 34.5886 90.1455 31.8859C86.5094 26.4099 81.2028 21.2951 76.2015 17.3248C75.0357 16.3994 73.8216 15.396 72.5766 14.3671C70.6111 12.7427 68.5684 11.0545 66.5165 9.50837C63.1093 6.94091 59.441 4.57245 55.4361 3.07972C53.1376 2.223 50.8512 1.80475 48.6483 1.49071C47.9533 1.39163 47.277 1.3039 46.6112 1.21754C45.1156 1.02356 43.6728 0.836424 42.1907 0.542968C34.6642 -0.947178 26.1981 0.78123 19.4022 3.88286C16.6287 5.14871 13.7388 7.48536 11.6697 9.433C11.1458 9.92618 10.5802 10.5701 10.0322 11.2918C9.20051 11.7514 8.38733 12.2313 7.60222 12.7359C7.42882 12.8473 7.24686 12.9619 7.05848 13.0805C5.33966 14.1631 3.08668 15.5821 1.92833 17.9977C0.480604 21.0168 0.341355 24.3027 0.219831 27.1704L0.218836 27.1939C0.208027 27.4489 0.196949 27.706 0.185788 27.965C-0.0123773 32.5633 -0.235859 37.7491 0.581533 42.4683C2.98017 56.3167 9.61311 68.8336 17.1274 80.2031C19.0475 83.1078 20.9064 86.0976 22.7775 89.1064C27.2949 96.3721 31.8832 103.751 37.5743 110.329C39.3672 112.402 41.1564 114.41 42.9355 116.406C45.3726 119.141 47.7909 121.855 50.1742 124.685C53.6451 128.807 56.0068 132.89 58.3676 137.867C58.8388 138.861 59.3081 139.863 59.7792 140.868C61.0757 143.636 62.3859 146.432 63.7904 149.175C64.5283 150.615 65.6631 152.765 67.7265 153.801L69.195 154.538L70.6636 151.59L69.195 150.852C68.2269 150.366 67.5124 149.232 66.7107 147.667C65.3349 144.981 64.0614 142.262 62.773 139.512C62.2968 138.496 61.8186 137.475 61.3324 136.45C58.8969 131.314 56.3937 126.964 52.6817 122.556C50.2946 119.722 47.7978 116.919 45.3179 114.135C43.5389 112.137 41.7685 110.15 40.0535 108.167C34.5398 101.794 30.1715 94.7668 25.715 87.5981C23.8125 84.5381 21.894 81.452 19.8635 78.3796C12.4476 67.1594 6.10108 55.0918 3.81676 41.9033C3.06236 37.5478 3.27034 32.6913 3.47147 27.9947C3.48091 27.7741 3.49035 27.5539 3.49966 27.3341C3.62579 24.3579 3.77457 21.748 4.88703 19.428C5.36242 18.4367 6.13698 17.7049 7.13757 16.984C7.07807 17.2687 7.03727 17.5503 7.01898 17.8258C6.52187 25.3128 6.63961 33.5706 8.55964 41.0069C8.74506 41.7248 8.89413 42.4188 9.0505 43.1472C9.09564 43.3573 9.14132 43.5701 9.18874 43.7874C9.39637 44.7389 9.62967 45.7402 9.9644 46.7857C10.777 49.3243 11.4152 52.1984 11.4152 54.7186V56.3672H14.699V54.7186C14.699 51.7136 13.9531 48.4707 13.0907 45.7767C12.8052 44.8848 12.5984 44.0073 12.3965 43.0817C12.3542 42.8881 12.3118 42.6905 12.2688 42.49C12.1102 41.7512 11.9425 40.97 11.7384 40.1794C9.94603 33.2378 9.80826 25.3836 10.2955 18.0451C10.3432 17.3265 10.7965 16.1658 11.5756 14.8679C11.7896 14.5114 12.016 14.1646 12.2461 13.8361ZM54.2933 6.17082C53.023 5.69731 51.7341 5.37151 50.4075 5.11843C52.4106 5.66072 54.3543 6.28741 56.2098 6.96952C55.577 6.67845 54.9385 6.41125 54.2933 6.17082Z" fill="black"/>
</g>
<defs>
<clipPath id="clip0_570_6408">
<rect width="157" height="164" fill="white"/>
</clipPath>
</defs>
</svg>
