<svg width="200" height="208" viewBox="0 0 200 208" fill="none" xmlns="http://www.w3.org/2000/svg">
<g clip-path="url(#clip0_411_2)">
<path fill-rule="evenodd" clip-rule="evenodd" d="M69.8668 4.21073C60.251 4.12573 51.0386 4.04429 42.6568 7.98517C42.0356 8.27726 41.4366 8.55657 40.8585 8.82616C36.8103 10.7138 33.7842 12.1249 31.2921 14.1114C28.5755 16.2767 26.4438 19.1908 24.7267 24.4384C24.3054 25.7261 23.8729 26.9988 23.4442 28.2602C20.5954 36.6428 17.9153 44.5291 19.8042 53.0216C20.5622 56.4298 21.0763 59.7442 21.5743 62.9556C21.7149 63.862 21.8542 64.7603 21.9974 65.6501C22.6535 69.7281 23.4008 73.7098 24.73 77.8414C25.4022 79.9309 26.0238 81.9719 26.6369 83.985C28.0528 88.6338 29.4233 93.1336 31.267 97.7387C37.3312 112.886 45.9052 128.725 54.7962 142.573C57.5293 146.829 60.0831 151.171 62.6088 155.464C63.2475 156.55 63.8843 157.633 64.5218 158.71C67.6932 164.07 70.8965 169.329 74.4966 174.365C77.1448 178.07 80.248 181.447 83.4176 184.896C85.039 186.66 86.6779 188.444 88.282 190.3C89.8899 192.16 90.0995 194.569 90.2395 196.179C90.2455 196.248 90.2514 196.316 90.2573 196.382C90.4314 198.344 90.5981 199.186 91.1053 199.693C91.195 199.783 91.2746 199.837 91.5353 199.819C91.884 199.795 92.4497 199.627 93.2524 199.172C94.8545 198.262 96.7783 196.574 98.7704 194.519C100.733 192.495 102.643 190.242 104.224 188.319C104.716 187.72 105.189 187.137 105.626 186.598C106.533 185.478 107.283 184.554 107.715 184.094C113.044 178.422 117.844 172.239 122.675 165.936C123.001 165.511 123.327 165.086 123.653 164.66C128.146 158.794 132.698 152.849 137.686 147.28C146.074 137.913 154.177 128.105 162.054 118.267C162.543 117.656 163.032 117.046 163.521 116.436C173.911 103.472 184.142 90.7061 191.531 76.0771C196.706 65.8318 196.344 55.5064 194.837 43.7972C194.365 40.1316 191.861 32.6721 188.252 26.1041C186.457 22.8381 184.455 19.9163 182.396 17.8402C180.293 15.7193 178.418 14.7645 176.859 14.7645C173.281 14.7645 169.71 15.0837 166.02 15.4142L166.001 15.4159C162.348 15.7431 158.58 16.0806 154.758 16.0806C149.403 16.0806 145.922 16.58 142.932 17.8856C139.937 19.1932 137.228 21.3996 133.588 25.2281C128.181 30.9145 123.125 37.5387 120.576 44.6721C120.068 46.0934 120.086 47.6881 120.321 49.6612C120.378 50.1457 120.453 50.6704 120.531 51.2216C120.662 52.1494 120.804 53.1523 120.895 54.1654C120.993 54.4791 121.015 54.8074 120.963 55.1235C120.98 55.4531 120.99 55.7817 120.99 56.1069C120.99 57.2605 120.054 58.1957 118.899 58.1957C117.745 58.1957 116.809 57.2605 116.809 56.1069C116.809 55.8691 116.803 55.6333 116.792 55.3983C115.99 54.1939 115.182 52.9757 114.368 51.7479C106.816 40.3627 98.7213 28.1573 89.4372 18.5104C88.6942 17.7384 87.7186 16.6115 86.6448 15.3711C86.4333 15.1268 86.2179 14.878 85.9998 14.6268C84.6469 13.0681 83.1344 11.3486 81.5856 9.74524C80.028 8.13275 78.4877 6.69474 77.0872 5.67331C75.6011 4.58949 74.6187 4.23569 74.1126 4.23569C72.6896 4.23569 71.2739 4.22317 69.8668 4.21073ZM115.998 46.6436C108.969 36.07 101.237 24.7444 92.4513 15.6148C91.7922 14.9299 90.9094 13.9105 89.8322 12.6667C89.6155 12.4164 89.3909 12.1571 89.1587 11.8896C87.7998 10.324 86.2257 8.53293 84.5943 6.84406C82.9717 5.1643 81.2382 3.5284 79.5525 2.299C77.9524 1.13198 76.0363 0.0579967 74.1126 0.0579967C72.7565 0.0579967 71.3794 0.0438247 69.9868 0.0294919C60.4547 -0.0686082 50.1907 -0.174242 40.8764 4.20511C40.2768 4.48705 39.6862 4.76176 39.1052 5.03201C35.1255 6.88323 31.5956 8.52519 28.6844 10.8456C25.2167 13.6097 22.674 17.2675 20.7524 23.1403C20.3592 24.3417 19.9415 25.5618 19.5175 26.8C16.6769 35.0959 13.559 44.2014 15.7223 53.9278C16.448 57.1905 16.935 60.3285 17.4299 63.5179C17.5736 64.4439 17.7179 65.3742 17.869 66.3132C18.5347 70.4507 19.3214 74.6818 20.7492 79.1198C21.3785 81.0761 21.9778 83.043 22.5794 85.0178C24.0189 89.7429 25.4721 94.513 27.3847 99.2903C33.5685 114.736 42.2775 130.813 51.2768 144.828C53.9613 149.009 56.4626 153.261 58.9839 157.547C59.6276 158.642 60.2726 159.738 60.9224 160.836C64.1042 166.214 67.3833 171.603 71.0941 176.794C73.8855 180.698 77.2998 184.418 80.574 187.985C82.1493 189.701 83.6921 191.381 85.1175 193.03C85.7601 193.774 85.9232 194.846 86.0922 196.751C86.0989 196.826 86.1057 196.904 86.1125 196.985C86.2469 198.548 86.4537 200.954 88.1487 202.647C89.1958 203.693 90.5094 204.078 91.8257 203.987C93.0539 203.902 94.2487 203.411 95.3173 202.804C97.4578 201.59 99.7197 199.544 101.773 197.426C103.857 195.278 105.852 192.921 107.456 190.97C108.063 190.23 108.599 189.569 109.06 189.001C109.863 188.009 110.436 187.301 110.764 186.953C116.254 181.11 121.171 174.77 125.995 168.476C126.314 168.059 126.634 167.642 126.953 167.226C131.466 161.333 135.926 155.51 140.802 150.065C149.262 140.618 157.418 130.744 165.319 120.877C165.834 120.233 166.351 119.589 166.868 118.944C177.19 106.067 187.672 92.9892 195.264 77.9594C201.037 66.5314 200.51 55.1252 198.984 43.2645C198.425 38.9182 195.685 30.9501 191.917 24.0935C190.023 20.6471 187.803 17.3574 185.367 14.9C182.975 12.4874 180.082 10.5868 176.859 10.5868C173.087 10.5868 169.351 10.9214 165.716 11.247L165.647 11.2532C161.959 11.5835 158.37 11.9029 154.758 11.9029C149.191 11.9029 145.03 12.4103 141.257 14.0575C137.49 15.7026 134.317 18.3951 130.556 22.3507C124.988 28.207 119.474 35.3317 116.638 43.267C116.234 44.3971 116.051 45.5343 115.998 46.6436Z" fill="black"/>
<path fill-rule="evenodd" clip-rule="evenodd" d="M101.913 44.2598C104.194 37.9438 107.903 31.8159 113.712 26.3443C118.312 22.0125 124.41 16.7203 131.451 12.4627C138.403 8.25909 147.388 4.3813 157.548 4.3813C157.959 4.3813 158.312 4.36182 158.939 4.32727C159.462 4.29848 160.174 4.25924 161.268 4.21208C163.119 4.13221 165.754 4.06055 168.519 4.31367C172.412 4.67003 185.449 6.51684 189.247 19.84C192.247 30.364 190.894 42.1011 188.919 50.1627C182.019 78.3177 164.753 104.345 150.843 125.313C150.609 125.665 150.376 126.017 150.144 126.367C144.583 134.752 138.823 142.952 133.2 150.958L132.922 151.353C127.17 159.542 121.562 167.534 116.193 175.655C115.478 176.736 114.722 177.907 113.924 179.143C109.234 186.407 103.065 195.961 94.9316 203.298C91.7498 206.169 86.7058 208.684 80.5756 207.831C74.6328 207.005 70.6213 203.419 68.4021 200.241C66.2383 197.143 64.3159 193.944 62.6793 191.21L62.4609 190.845C60.8325 188.124 59.4724 185.851 58.0353 183.725C41.1823 158.79 27.7831 131.362 25.3142 98.6984C24.2046 84.018 23.9342 69.5198 24.0126 55.1299C24.0772 43.2893 26.5541 33.3847 31.4977 23.0186C33.8906 18.001 38.3272 11.1737 44.7786 6.45919C48.134 4.00722 52.7766 1.59407 58.4841 1.09328C64.5404 0.561875 70.3829 2.31704 75.3814 5.94923C88.9185 15.786 97.3168 32.8352 101.913 44.2598Z" fill="#FB0153"/>
<path fill-rule="evenodd" clip-rule="evenodd" d="M161.491 8.23211C158.56 8.178 155.712 8.12542 152.845 8.30551C150.821 8.4327 148.688 9.38039 146.44 10.7951C144.955 11.7294 143.597 12.7432 142.242 13.7545C141.497 14.3106 140.753 14.866 139.99 15.407C135.428 18.6394 131.806 22.6845 128.655 27.4358C125.177 32.68 123.092 37.2032 120.888 43.2743C119.362 47.4769 118.191 51.041 118.191 55.1113V57.2024H114.03V55.1113C114.03 50.2275 115.454 46.0418 116.98 41.8405C119.264 35.5488 121.485 30.7073 125.194 25.1159C128.562 20.0373 132.523 15.5812 137.593 11.9888C138.19 11.5656 138.852 11.0722 139.557 10.5469C141 9.47188 142.622 8.26332 144.232 7.25016C146.682 5.70858 149.526 4.32368 152.586 4.13145C155.618 3.94093 158.759 3.99804 161.785 4.05305C163.18 4.07842 164.55 4.10333 165.874 4.10333C171.846 4.10333 177.35 4.75313 181.96 10.2308C185.728 14.7063 188.832 21.1055 190.062 26.82C190.427 28.5207 190.865 30.1986 191.316 31.9277C191.419 32.3205 191.522 32.7158 191.625 33.1147C192.176 35.2443 192.719 37.448 193.095 39.7125C193.541 42.407 193.65 45.1359 193.695 47.7658C193.707 48.4566 193.714 49.1365 193.722 49.808C193.743 51.7395 193.763 53.6018 193.884 55.4555C194.485 64.6634 192.772 71.8726 188.213 79.9959C180.324 94.0547 170.709 107.532 159.498 119.19C157.863 120.89 157.085 121.867 156.228 123.717C155.276 125.773 154.398 127.852 153.504 129.971C153.404 130.207 153.304 130.444 153.203 130.682C152.209 133.033 151.186 135.426 150.04 137.794C145.186 147.83 138.948 157.025 132.834 166.039L132.663 166.292C131.444 168.09 130.127 169.814 128.848 171.49L128.749 171.62C127.427 173.353 126.144 175.039 124.964 176.795C123.321 179.239 121.635 181.718 118.248 183.034C117.211 183.436 116.307 184.005 115.345 184.71C115.025 184.944 114.651 185.232 114.251 185.539C113.588 186.049 112.853 186.615 112.169 187.087C111.966 187.227 111.761 187.368 111.555 187.509C110.817 188.015 110.063 188.531 109.334 189.088C108.399 189.803 107.645 190.483 107.158 191.116C106.434 192.057 105.646 192.868 104.903 193.599C104.681 193.818 104.466 194.025 104.258 194.227C103.744 194.727 103.266 195.19 102.791 195.697C102.566 195.937 102.392 196.186 102.135 196.553C102.045 196.683 101.944 196.827 101.827 196.991C101.442 197.53 100.877 198.278 100.039 198.84L98.3078 200L96 196.52L97.7309 195.36C97.9024 195.245 98.1026 195.034 98.4464 194.553C98.4984 194.48 98.5574 194.395 98.6226 194.301C98.9072 193.891 99.31 193.311 99.7637 192.828C100.311 192.244 100.896 191.677 101.435 191.154C101.628 190.966 101.815 190.785 101.993 190.61C102.698 189.917 103.321 189.267 103.866 188.559C104.687 187.491 105.783 186.548 106.816 185.759C107.64 185.129 108.513 184.532 109.261 184.019C109.454 183.887 109.639 183.761 109.812 183.641C110.461 183.193 110.983 182.788 111.541 182.356C111.952 182.038 112.382 181.705 112.895 181.33C113.992 180.526 115.231 179.722 116.748 179.133C118.787 178.341 119.841 176.946 121.516 174.453C122.777 172.577 124.135 170.795 125.448 169.074L125.518 168.983C126.818 167.279 128.073 165.635 129.225 163.936L129.316 163.802C135.485 154.707 141.578 145.725 146.299 135.965C147.394 133.703 148.38 131.397 149.374 129.046C149.475 128.809 149.575 128.571 149.676 128.333C150.566 126.224 151.473 124.077 152.456 121.952C153.582 119.522 154.699 118.163 156.507 116.283C167.437 104.918 176.847 91.7381 184.59 77.9411C188.767 70.4973 190.278 64.0937 189.733 55.7291C189.604 53.7513 189.582 51.7245 189.56 49.7617C189.553 49.1119 189.546 48.4691 189.535 47.8374C189.491 45.2495 189.385 42.7758 188.991 40.4C188.648 38.3316 188.145 36.2802 187.598 34.167C187.5 33.7881 187.401 33.4063 187.3 33.022C186.848 31.2881 186.382 29.5024 185.995 27.7038C184.908 22.6482 182.104 16.8757 178.784 12.9323C175.408 8.92081 171.536 8.28554 165.874 8.28554C164.385 8.28554 162.928 8.25864 161.491 8.23211Z" fill="black"/>
<path fill-rule="evenodd" clip-rule="evenodd" d="M19.1482 67V69.0854C19.1482 72.0872 19.9262 75.1073 21.0521 78.2171C21.6136 79.7682 22.2501 81.3117 22.9051 82.875C22.9956 83.0911 23.0866 83.3078 23.1779 83.5251C23.7404 84.8648 24.3111 86.2239 24.8285 87.5671C26.3968 91.638 28.1045 95.6767 29.8393 99.7415C30.0346 100.199 30.2303 100.657 30.4261 101.116C31.9658 104.72 33.5164 108.349 34.9802 112.005C35.5873 113.521 36.1721 115.023 36.752 116.513C38.4153 120.786 40.0379 124.955 42.0274 129.039C47.5005 140.274 55.5502 150.04 63.669 159.889C65.4089 162 67.152 164.115 68.8736 166.249C74.5438 173.277 79.7647 180.583 84.6511 188.157C85.3785 189.285 86.1753 190.458 86.9886 191.655C88.2508 193.513 89.5526 195.43 90.6955 197.324C90.7788 197.462 90.8889 197.636 91.0139 197.834C91.3277 198.331 91.735 198.975 92.0471 199.568C92.5056 200.439 93 201.609 93 202.915V205H88.8518V202.915C88.8518 202.628 88.7309 202.184 88.3808 201.519C88.1441 201.069 87.9045 200.692 87.6377 200.272C87.4851 200.031 87.3237 199.777 87.1489 199.487C86.0339 197.639 84.878 195.941 83.6872 194.192C82.8644 192.984 82.025 191.751 81.1709 190.427C76.3561 182.964 71.2207 175.778 65.652 168.876C63.9934 166.821 62.293 164.759 60.5791 162.681C52.4479 152.823 44.0134 142.597 38.302 130.873C36.2306 126.621 34.5184 122.222 32.8378 117.904C32.2699 116.444 31.7056 114.994 31.1322 113.563C29.6875 109.954 28.1566 106.371 26.6148 102.762C26.4191 102.304 26.2232 101.845 26.0272 101.386C24.2922 97.3207 22.5581 93.2211 20.9604 89.0735C20.4672 87.7934 19.9236 86.4987 19.3596 85.1553C19.2677 84.9362 19.1752 84.7159 19.0823 84.4942C18.4256 82.9269 17.7539 81.3004 17.1541 79.6436C15.9572 76.3375 15 72.7901 15 69.0854V67H19.1482Z" fill="black"/>
<path fill-rule="evenodd" clip-rule="evenodd" d="M15.6001 17.5482C18.6449 15.9282 21.898 14.5041 25.1693 13.072C26.4282 12.5208 27.6898 11.9685 28.9433 11.4034C41.4789 5.75196 57.2538 8.02037 70.2762 12.8065C71.2912 13.1795 72.3177 13.5331 73.356 13.8907C75.063 14.4787 76.8018 15.0777 78.574 15.7922C81.3668 16.9181 83.8619 18.1946 85.6861 19.7971C89.8848 23.4856 93.9794 27.7379 97.784 31.9416C99.9072 34.2875 101.922 36.7187 103.971 39.1903C104.346 39.6437 104.723 40.0985 105.102 40.5544C107.532 43.4772 110.031 46.4281 112.752 49.2167C113.587 50.0725 114.287 51.051 115.068 52.1758C115.123 52.2546 115.178 52.3344 115.234 52.4149C115.945 53.4411 116.743 54.593 117.702 55.6522C118.13 56.1251 118.491 56.5039 118.789 56.7896C119.021 57.0109 119.407 57.3705 119.849 57.5844C119.981 57.6485 120.214 57.7475 120.515 57.7933C120.819 57.8396 121.338 57.8509 121.879 57.5553C123.057 56.912 123.005 55.6838 122.998 55.5343C122.983 55.2069 122.901 54.9329 122.859 54.8001C122.806 54.6362 122.743 54.4781 122.684 54.3406C122.404 53.6874 121.806 52.6058 121.292 51.6776C121.074 51.2833 120.871 50.9167 120.714 50.6223L120.691 50.579C118.818 47.0573 117.121 43.8685 114.835 40.4407C110.203 33.4955 103.443 27.0084 97.072 21.9729C95.5869 20.7992 94.0403 19.5266 92.4543 18.2217C89.9504 16.1615 87.3483 14.0204 84.7344 12.0594C80.394 8.8031 75.721 5.7992 70.6193 3.90599C67.6912 2.81942 64.7786 2.28895 61.9723 1.89065C61.087 1.76499 60.2255 1.65373 59.3773 1.5442C57.4721 1.29817 55.6342 1.06083 53.7461 0.688642C44.1582 -1.2013 33.3734 0.990828 24.7162 4.9246C21.183 6.53007 17.5016 9.49363 14.8659 11.9638C14.1985 12.5893 13.4779 13.406 12.7799 14.3213C11.7204 14.9042 10.6845 15.5129 9.68436 16.1528C9.46347 16.2941 9.23167 16.4395 8.9917 16.5899C6.80211 17.9629 3.93208 19.7626 2.45647 22.8263C0.612234 26.6554 0.434847 30.8229 0.28004 34.46L0.278772 34.4898C0.265003 34.8133 0.25089 35.1393 0.236673 35.4678C-0.0157672 41.2998 -0.300457 47.8769 0.740806 53.8622C3.79639 71.426 12.246 87.3012 21.8184 101.721C24.2643 105.405 26.6324 109.197 29.0159 113.013C34.7706 122.228 40.6155 131.587 47.8654 139.93C50.1493 142.559 52.4285 145.105 54.6949 147.637C57.7995 151.106 60.8801 154.548 63.9162 158.137C68.3377 163.365 71.3463 168.543 74.3536 174.856C74.9539 176.116 75.5517 177.387 76.1518 178.662C77.8034 182.172 79.4725 185.719 81.2617 189.197C82.2016 191.024 83.6472 193.751 86.2758 195.065L88.1465 196L90.0173 192.26L88.1465 191.325C86.9133 190.708 86.0031 189.27 84.9818 187.285C83.2292 183.878 81.6069 180.43 79.9656 176.942C79.359 175.653 78.7498 174.358 78.1304 173.058C75.0279 166.545 71.8391 161.028 67.1105 155.437C64.0695 151.842 60.8889 148.287 57.7298 144.756C55.4636 142.223 53.2083 139.703 51.0236 137.188C43.9998 129.105 38.435 120.192 32.7579 111.1C30.3344 107.219 27.8905 103.305 25.3038 99.4083C15.8568 85.1778 7.77208 69.8725 4.86212 53.1457C3.9011 47.6216 4.16604 41.4621 4.42225 35.5055C4.43428 35.2257 4.4463 34.9464 4.45817 34.6676C4.61884 30.8929 4.80837 27.5828 6.22552 24.6404C6.83111 23.3831 7.81781 22.455 9.09245 21.5407C9.01665 21.9018 8.96468 22.2589 8.94138 22.6083C8.30812 32.1041 8.4581 42.5774 10.904 52.0087C11.1402 52.9193 11.3301 53.7995 11.5293 54.7233C11.5868 54.9897 11.645 55.2597 11.7054 55.5352C11.9699 56.742 12.2671 58.012 12.6935 59.338C13.7287 62.5577 14.5416 66.2029 14.5416 69.3992V71.4901H18.7248V69.3992C18.7248 65.588 17.7746 61.475 16.676 58.0583C16.3123 56.9271 16.0489 55.8141 15.7917 54.6402C15.7378 54.3946 15.6838 54.1441 15.629 53.8897C15.427 52.9528 15.2134 51.962 14.9534 50.9592C12.6701 42.1552 12.4946 32.1938 13.1153 22.8865C13.1761 21.9751 13.7535 20.5029 14.746 18.8568C15.0186 18.4047 15.307 17.9649 15.6001 17.5482ZM69.1635 7.8264C67.5452 7.22585 65.9033 6.81264 64.2134 6.49166C66.7651 7.17945 69.2411 7.97427 71.6048 8.83939C70.7987 8.47023 69.9853 8.13134 69.1635 7.8264Z" fill="black"/>
</g>
<defs>
<clipPath id="clip0_411_2">
<rect width="200" height="208" fill="white"/>
</clipPath>
</defs>
</svg>
