<svg width="191" height="221" viewBox="0 0 191 221" fill="none" xmlns="http://www.w3.org/2000/svg">
<path fill-rule="evenodd" clip-rule="evenodd" d="M52.4245 0.225678C58.3178 -0.328776 67.3993 -0.182821 75.5054 4.46114C81.3694 7.82059 85.7387 12.4495 88.8832 16.1646C90.3956 17.9514 91.8249 19.7753 93.036 21.3207C93.1079 21.4124 93.179 21.5031 93.2493 21.5928C94.5793 23.2894 95.6433 24.6361 96.6682 25.8217C98.5184 27.9621 101.287 31.3825 103.636 35.6217C106.284 34.6542 109.054 33.8778 111.937 33.3522C125.444 30.89 137.834 31.4146 151.121 35.3408C160.594 38.1398 171.126 42.8471 179.083 50.8897C187.62 59.5195 192.491 71.3672 190.591 85.7255C188.961 98.0463 181.742 108.549 176.581 115.167C170.195 123.355 163.154 131.649 154.943 139.221C147.141 146.416 138.738 153.047 130.895 159.236C129.197 160.576 127.526 161.895 125.892 163.194C117.643 169.757 112.922 173.588 109.225 179.63C108.632 180.599 108.06 181.528 107.509 182.423C103.379 189.128 100.455 193.875 98.9983 198.96C98.7131 199.956 98.4097 200.842 98.1711 201.516C98.0599 201.83 97.9485 202.138 97.8577 202.389L97.839 202.44C97.7381 202.719 97.6604 202.934 97.5887 203.138C97.5683 203.196 97.5494 203.25 97.532 203.301C97.517 203.794 97.4788 204.526 97.3743 205.322C97.3129 205.79 97.1261 207.151 96.5475 208.755C96.2619 209.547 95.6305 211.119 94.3633 212.811C93.1056 214.491 90.3756 217.383 85.7366 218.54C81.5202 219.591 78.0285 218.619 76.12 217.832C74.2193 217.049 72.8996 216.057 72.2285 215.509C70.8921 214.417 70.0446 213.343 69.7567 212.973C69.0647 212.083 68.5915 211.275 68.4234 210.986C67.9947 210.249 67.6117 209.486 67.3565 208.967C66.7973 207.828 66.1543 206.422 65.5946 205.18C65.2416 204.397 64.8621 203.547 64.5309 202.804C64.3429 202.383 64.1704 201.996 64.0272 201.677C63.8925 201.376 63.7806 201.128 63.6898 200.928C62.2661 198.641 60.6242 196.059 58.9311 193.395C56.492 189.558 53.9464 185.554 51.7929 182.024C47.737 175.377 43.8999 167.484 40.5197 160.532C38.8083 157.011 37.214 153.732 35.7677 150.977C33.6729 146.987 31.3978 143.088 28.9211 138.843C28.5688 138.239 28.2124 137.628 27.8519 137.009C25.0378 132.177 22.0156 126.914 19.306 121.362C18.0571 118.803 16.6863 116.195 15.1873 113.366C15.0397 113.087 14.8907 112.806 14.7404 112.523C13.4004 109.995 11.9629 107.284 10.5845 104.54C7.52278 98.4459 4.37498 91.4704 2.39151 83.8311C-0.487579 72.7423 -0.683685 59.1198 1.35492 48.2017C3.46513 36.9001 8.9011 27.9715 15.3845 20.5596C15.6497 20.2565 15.9863 19.843 16.3924 19.3443C19.0053 16.1349 24.4923 9.39526 32.3088 5.80812C37.9272 3.22973 45.5477 0.872654 52.4245 0.225678ZM63.42 200.351C63.4185 200.346 63.4422 200.393 63.4956 200.507C63.4482 200.412 63.4215 200.356 63.42 200.351ZM91.6036 37.2976C91.9586 37.2648 92.3091 37.2455 92.6546 37.2387C92.3012 37.2466 91.9507 37.2663 91.6036 37.2976ZM137.927 63.5829C133.189 62.5774 128.63 62.2792 123.78 62.6582C124.142 63.1609 124.417 63.6057 124.616 63.9503C125.11 64.804 125.481 65.6409 125.76 66.3984C127.156 65.7072 128.679 65.1155 130.327 64.6931C132.338 64.1772 135.079 63.6863 137.927 63.5829ZM140.185 96.0275C140.185 96.0275 140.176 96.0251 140.158 96.0205C140.177 96.0252 140.185 96.0276 140.185 96.0275Z" fill="#FB0153"/>
<path fill-rule="evenodd" clip-rule="evenodd" d="M65.4504 11.709C63.8896 11.1351 62.0426 10.9718 58.4775 11.4815C58.1463 11.5289 57.8135 11.5903 57.4794 11.6654C58.2908 11.8706 59.0663 12.1016 59.795 12.3569C61.1894 12.8453 62.5207 13.2268 63.8959 13.6209C64.5738 13.8151 65.2624 14.0124 65.9745 14.2271C68.0664 14.8579 70.2244 15.604 72.3583 16.7786C73.2717 17.2815 74.1513 17.7959 75.0046 18.3228C73.9481 17.3051 72.8497 16.3737 71.6722 15.5577C71.2738 15.2817 70.9015 15.0221 70.5514 14.7779C68.2718 13.1882 66.9314 12.2535 65.4504 11.709ZM96.7109 44.3116C96.4312 43.844 96.1826 43.3885 95.9512 42.9644C95.9252 42.9167 95.8993 42.8693 95.8737 42.8224C95.16 41.5163 94.5624 40.4616 93.6432 39.5415C90.2449 36.1403 86.7041 32.7788 83.0612 29.6235C78.8767 25.9991 75.0812 23.0433 70.3477 20.4375C68.5951 19.4727 66.7639 18.8263 64.7711 18.2254C64.1717 18.0447 63.5423 17.8642 62.8938 17.6781C61.4559 17.2656 59.9239 16.8262 58.4168 16.2982C56.293 15.5542 53.5833 15.0244 50.7132 14.8084C48.5131 16.3095 46.3319 18.2292 44.2408 20.4206C39.7346 25.1431 35.9306 30.8295 33.5956 35.3304C33.2907 35.9183 32.9808 36.5121 32.6681 37.1113C30.6713 40.9379 28.558 44.9877 26.8516 49.1539C24.8786 53.971 23.5272 58.7686 23.5272 63.3106V74.8294C23.646 75.1016 23.7653 75.3745 23.8851 75.6483L23.9493 75.7952C25.1171 78.466 26.3176 81.2197 27.3398 84.0529C33.3603 100.74 39.9503 116.643 47.9867 132.356C53.3401 142.823 57.6427 153.771 61.6447 164.761C61.678 164.666 61.7135 164.571 61.7511 164.477C62.3089 163.076 63.2914 161.875 64.7197 160.94C73.754 155.028 82.2334 146.8 89.9431 138.725L89.6326 138.766L89.0812 134.627L91.1489 134.351C92.2784 134.2 93.4128 134.087 94.5465 133.999C95.6719 133.008 96.8519 132.142 97.9888 131.337C95.0629 130.17 91.7757 129.294 88.6651 128.465C88.0501 128.301 87.4419 128.139 86.8449 127.977C83.9424 127.19 80.8277 126.662 77.5598 126.109C76.3793 125.909 75.1788 125.706 73.9611 125.486C69.475 124.675 64.8384 123.644 60.7691 121.662C59.5388 121.063 58.6357 120.098 58.2614 118.8C57.9138 117.594 58.1012 116.369 58.4413 115.316C59.1127 113.239 60.6624 110.989 62.2938 108.967C63.9656 106.894 65.9009 104.847 67.5429 103.163C68.0914 102.6 68.5944 102.09 69.0429 101.635C69.9929 100.672 70.6981 99.9573 71.0727 99.5141C78.8072 90.3653 86.361 81.5469 94.6327 72.9079C95.0228 72.5005 95.5203 72.1345 95.998 71.8238C93.587 71.5486 91.0758 71.5171 88.4411 71.5066C88.2279 71.5058 88.0137 71.5051 87.7988 71.5044C84.659 71.4941 81.3446 71.4833 78.1049 71.0201C76.8134 70.8354 76.0758 69.9344 75.7179 69.1929C75.3781 68.489 75.2551 67.7124 75.207 67.0931C75.1093 65.8322 75.2736 64.4835 75.4402 63.7333C75.585 63.081 75.9442 62.5478 76.2041 62.2075C76.4961 61.8252 76.8509 61.4491 77.214 61.0979C77.9422 60.3935 78.8547 59.6455 79.7471 58.9535C80.6476 58.2553 81.5735 57.5788 82.3421 57.0202L82.5467 56.8715C83.2416 56.3665 83.7347 56.0082 83.9868 55.8035C85.2617 54.7683 86.5427 53.7168 87.8295 52.6605C89.0118 51.6901 90.1989 50.7157 91.3906 49.7462C92.2617 48.6789 93.2086 47.6744 94.1531 46.7357C94.9918 45.9021 95.8605 45.0906 96.7109 44.3116ZM81.5388 62.8589C80.9925 63.3016 80.5034 63.7232 80.1132 64.1006C79.8298 64.3748 79.6359 64.5899 79.5185 64.7437C79.5043 64.7623 79.4922 64.7787 79.4821 64.7928C79.3963 65.2626 79.3129 66.0774 79.3666 66.7699C79.3724 66.8449 79.3795 66.9142 79.3877 66.9777C82.1138 67.3086 84.9289 67.3185 87.8871 67.3288C88.0767 67.3295 88.2668 67.3302 88.4576 67.3309C88.5292 67.3312 88.6008 67.3315 88.6725 67.3318C88.3609 67.1741 88.0521 67.0109 87.7464 66.8426C87.721 66.8286 87.666 66.7991 87.586 66.7562C87.0854 66.4875 85.6064 65.6936 84.2931 64.903C83.5482 64.4546 82.7478 63.9434 82.1879 63.4872C82.0395 63.3663 81.7788 63.1499 81.5388 62.8589ZM70.3641 106.248C68.7856 107.872 67.0325 109.739 65.5401 111.59C63.955 113.555 62.831 115.301 62.4109 116.601C62.2052 117.238 62.2424 117.546 62.2699 117.642C62.27 117.642 62.2699 117.641 62.2699 117.642C62.2712 117.653 62.2824 117.755 62.5942 117.907C66.1129 119.621 70.2644 120.574 74.7026 121.377C75.8084 121.576 76.9389 121.768 78.0789 121.961C81.4092 122.524 84.8213 123.102 87.9368 123.947C88.5021 124.101 89.095 124.258 89.7092 124.42C93.4774 125.418 98.0437 126.628 101.903 128.506C102.426 128.091 102.929 127.665 103.411 127.213C103.775 126.87 104.13 126.506 104.512 126.108C104.565 126.053 104.619 125.996 104.674 125.939C104.949 125.653 105.24 125.35 105.539 125.051C103.523 124.623 101.622 123.829 99.8809 123.023C99.1845 122.701 98.5187 122.381 97.8739 122.07C96.0084 121.172 94.3193 120.358 92.5798 119.84C88.8853 118.741 85.747 116.534 82.9313 114.514C82.8118 114.428 82.6929 114.343 82.5746 114.258C79.8043 112.268 77.3314 110.492 74.5767 109.489C72.9324 108.891 71.5626 108.073 70.732 106.877C70.5883 106.67 70.4663 106.46 70.3641 106.248ZM102.22 133.465C102.132 133.527 102.045 133.589 101.958 133.65C102.112 133.645 102.265 133.64 102.419 133.634C102.33 133.558 102.264 133.502 102.22 133.465ZM96.3208 138.06C97.8722 137.968 99.4196 137.917 101 137.864C102.751 137.806 104.543 137.747 106.426 137.629C106.725 137.61 107.198 137.532 107.661 137.214C108.184 136.856 108.501 136.325 108.609 135.771C108.78 134.903 108.406 134.188 108.297 133.98C107.979 133.374 107.445 132.75 107.012 132.281C106.544 131.774 106.026 131.27 105.589 130.87C105.817 130.67 106.043 130.466 106.266 130.257C106.714 129.836 107.133 129.405 107.519 129.003C107.577 128.943 107.634 128.883 107.691 128.824C108.019 128.482 108.321 128.167 108.633 127.861C109.356 127.15 110.021 126.598 110.767 126.205C111.109 126.024 111.419 125.845 111.682 125.666C111.904 125.514 112.26 125.252 112.536 124.869C112.682 124.667 112.895 124.31 112.961 123.819C113.037 123.262 112.899 122.703 112.576 122.247C112.075 121.538 111.329 121.355 111.158 121.314L111.149 121.312C110.648 121.189 110.054 121.185 109.702 121.185C109.493 121.185 109.276 121.189 109.077 121.192L109.062 121.193C108.853 121.196 108.662 121.199 108.483 121.199C106.341 121.199 104.137 120.392 101.631 119.233C101.081 118.978 100.508 118.702 99.919 118.418C97.9788 117.482 95.859 116.46 93.7687 115.838C90.8398 114.966 88.2341 113.181 85.3623 111.12C85.1973 111.002 85.0312 110.882 84.864 110.762C82.2245 108.863 79.3165 106.771 76.0024 105.565C74.7106 105.094 74.2777 104.666 74.158 104.494C74.1559 104.491 74.1537 104.488 74.1515 104.485C74.1134 104.431 74.0666 104.366 74.1535 104.078C74.2733 103.682 74.5958 103.115 75.2033 102.363C75.7936 101.632 76.5346 100.867 77.3478 100.053C80.2606 97.1375 82.9541 94.0655 85.5881 91.0614C85.8758 90.7333 86.1628 90.406 86.4493 90.0797C89.3773 86.7457 92.264 83.5135 95.4271 80.5454C98.1844 77.9581 101.101 74.2022 103.218 71.3038C103.567 70.8257 103.928 70.3068 104.152 69.8205C104.31 69.4782 104.877 68.1274 103.834 66.9696C103.417 66.5064 102.919 66.3135 102.624 66.226C102.314 66.134 102.009 66.096 101.774 66.0758C101.334 66.0382 100.787 66.0383 100.253 66.0384L100.173 66.0384C96.5732 66.0384 93.0259 64.9832 89.7569 63.1837C89.7103 63.158 89.6276 63.1136 89.5156 63.0534C89.0362 62.7956 88.0197 62.249 86.9935 61.6504C87.5258 61.306 88.0365 60.9313 88.5265 60.5411C88.5359 60.5487 88.5454 60.5562 88.555 60.5637C89.5887 61.3707 90.7229 61.0368 91.1623 60.8599C91.6773 60.6526 92.1309 60.3241 92.4734 60.0419C93.1873 59.4541 93.9151 58.6496 94.5014 57.906C95.071 57.1834 95.6461 56.3424 95.9552 55.6461C96.3007 54.8681 96.679 54.1037 97.084 53.3486C97.5188 53.0756 98.1427 52.63 98.7637 52.158C99.1107 51.8944 99.4869 51.5995 99.8703 51.2858C99.9218 52.158 99.9761 52.8319 100.03 53.3332C100.062 53.6329 100.097 53.8944 100.135 54.1106L100.138 54.1261C100.16 54.253 100.227 54.6425 100.41 54.9963C100.461 55.0961 100.618 55.3881 100.932 55.6541C101.308 55.9723 102.089 56.3658 103.018 56.0215C103.727 55.7588 104.044 55.2172 104.125 55.0745C104.241 54.8682 104.298 54.6855 104.324 54.5972C104.413 54.2865 104.43 53.9694 104.436 53.8368C104.455 53.4587 104.445 52.9538 104.41 52.3996C104.34 51.2815 104.154 49.7466 103.775 48.2606C103.699 47.9651 103.612 47.6553 103.511 47.3394C103.569 47.2165 103.621 47.09 103.665 46.9603C103.884 46.3235 104.052 45.1011 103.077 44.1371C103.688 43.5566 104.273 42.9797 104.805 42.4117C105.666 41.4917 106.555 40.5819 107.466 39.6846C109.355 38.2783 111.589 36.9924 113.999 35.9035C118.679 33.7884 123.691 32.5647 127.486 32.5647C135.33 32.5647 145.675 34.837 152.929 37.853C154.661 38.5729 156.42 39.36 158.209 40.1607C161.986 41.8502 165.897 43.6002 169.968 44.9066C172.734 47.387 175.291 50.1745 177.392 53.1983C176.972 53.8689 176.559 54.5 176.164 55.104C175.729 55.768 175.315 56.3994 174.938 57.0148C171.547 62.5528 168.402 68.4561 165.48 74.1809C157.433 89.9448 148.61 106.042 137.928 120.38C136.511 121.746 135.086 123.113 133.656 124.485C129.533 128.441 125.371 132.435 121.253 136.539C120.081 137.707 118.915 138.883 117.757 140.066C115.684 141.765 113.681 143.554 111.806 145.465C104.407 153.007 98.1753 162.162 92.2775 170.826C91.3811 172.143 90.4924 173.449 89.6085 174.735C88.0857 176.952 86.4596 178.993 84.7865 181.093C84.3773 181.606 83.9652 182.124 83.5511 182.648C81.4685 185.284 79.3724 188.053 77.5607 191.226C76.8481 192.475 76.2803 193.764 75.7945 195.041C74.9469 196.19 74.1521 197.297 73.4906 198.534C73.1731 197.485 72.8462 196.438 72.5105 195.395C72.4704 192.609 72.1788 190.52 71.06 187.659C70.3682 185.889 69.9823 183.955 69.5538 181.807C69.5304 181.69 69.5069 181.572 69.4832 181.453C69.0416 179.245 68.5345 176.808 67.5173 174.568C66.4777 172.279 65.5938 170.101 65.4039 168.225C65.3125 167.322 65.3966 166.6 65.6266 166.023C65.8456 165.473 66.244 164.932 67.0028 164.435C77.7164 157.424 87.5546 147.394 96.0554 138.336C96.1428 138.243 96.2313 138.151 96.3208 138.06ZM72.9175 213.004C72.7011 213.161 72.4057 213.324 72.0346 213.406C71.6199 213.497 71.1263 213.48 70.6423 213.26C70.1817 213.05 69.8871 212.728 69.7127 212.472C69.402 212.016 69.3126 211.536 69.2768 211.302C69.2323 211.011 69.2184 210.704 69.2184 210.406C69.2184 208.113 69.0098 205.822 68.7898 203.434L68.7823 203.353C68.6738 202.175 68.5629 200.973 68.4798 199.756C68.0476 198.224 67.628 196.703 67.2102 195.188C66.1368 191.296 65.0755 187.448 63.8441 183.581C61.743 178.227 59.457 172.917 57.0665 167.628C54.1321 161.135 51.0147 154.625 47.8945 148.109C43.3796 138.68 38.8588 129.239 34.8775 119.82C33.8785 117.457 32.8373 115.074 31.7876 112.672C28.7805 105.79 25.7034 98.7482 23.3466 91.5404C23.0486 90.6291 22.7021 89.6417 22.3449 88.6235C21.8043 87.0827 21.239 85.4714 20.7793 83.9465C19.9952 81.3449 19.3742 78.5784 19.3556 75.7012C18.4438 73.6018 17.5414 71.4674 16.75 69.3032C14.7133 63.7333 13.3445 57.7972 14.3233 51.1845C16.398 37.1676 21.0635 19.9979 35.7901 12.8386C39.1987 11.1815 43.6104 10.526 47.8513 10.525C48.4303 10.5248 49.0106 10.5369 49.5896 10.5608C52.2401 8.92329 55.0325 7.75595 57.8875 7.34773C61.7497 6.7955 64.3925 6.87143 66.889 7.78931C68.9161 8.53463 70.7606 9.82611 72.9671 11.3711C73.3172 11.6162 73.6764 11.8677 74.047 12.1245C77.7501 14.6905 80.6824 18.1613 83.3894 21.4099C83.48 21.5187 83.5704 21.6272 83.6605 21.7354C86.3281 24.9383 88.7935 27.8985 91.7529 30.1199C93.9001 31.7318 95.6579 34.0746 97.1182 36.2685C98.0687 33.5478 99.8283 31.2723 102.074 29.4108C105.456 26.6066 109.977 24.6959 114.692 23.4157C117.654 22.6114 120.759 22.0384 123.814 21.656C129.093 18.4581 133.846 16.4569 139.696 14.3127C139.861 14.2523 140.031 14.1897 140.205 14.1254C142.602 13.244 145.916 12.0255 149.253 11.3179C152.741 10.5786 156.804 10.2667 159.981 12.0104C168.149 16.4933 173.71 25.6167 177.632 32.9446C179.524 36.4794 181.143 40.1997 182.501 44.037C182.841 44.2251 183.232 44.4817 183.568 44.8295C183.93 45.2036 184.392 45.8603 184.392 46.7721C184.392 47.4971 184.269 48.2303 184.077 48.9419C186.621 57.7065 187.883 66.9101 187.988 75.7869C188.023 78.7365 188.012 81.3326 187.493 83.8627C186.961 86.4538 185.918 88.8882 184.023 91.6386C180.879 96.201 176.485 100.28 171.916 103.937C168.618 106.578 165.139 109.067 161.915 111.374C160.685 112.254 159.491 113.107 158.36 113.933C154.505 116.743 150.888 119.8 147.205 122.912C146.992 123.092 146.779 123.272 146.566 123.452C142.682 126.732 138.713 130.055 134.418 133.071C133.597 133.647 132.775 134.221 131.954 134.793C131.601 135.04 131.248 135.286 130.895 135.532C129.364 137.218 127.796 138.867 126.19 140.475C124.157 142.51 122.133 144.482 120.134 146.429C111.678 154.666 103.696 162.441 97.582 172.526C95.6967 175.636 93.6249 178.575 91.4878 181.424C86.5719 190.333 82.2033 200.087 80.5514 209.455C80.4924 209.79 80.4118 210.475 80.3029 211.399C80.264 211.729 80.2215 212.09 80.1751 212.477C80.0076 213.872 79.7979 215.513 79.5493 216.859C79.4264 217.525 79.2824 218.184 79.1103 218.729C79.0255 218.997 78.9135 219.304 78.7617 219.593C78.6496 219.806 78.3426 220.359 77.7164 220.71C77.3442 220.918 76.8518 221.056 76.2983 220.978C75.7671 220.904 75.3711 220.658 75.1155 220.44C74.6625 220.052 74.4296 219.561 74.3154 219.294C74.0556 218.685 73.8541 217.848 73.6746 216.86C73.4403 215.57 73.1876 214.285 72.9175 213.004ZM75.8864 207.264C76.0494 207.928 76.2081 208.593 76.3624 209.26C76.3911 209.051 76.418 208.871 76.4428 208.73C77.1501 204.718 78.3159 200.668 79.7841 196.666C79.6864 196.799 79.5906 196.93 79.4967 197.058C79.2557 197.722 79.0271 198.405 78.7996 199.106C78.6894 199.446 78.5789 199.792 78.4669 200.143C77.9045 201.905 77.3043 203.786 76.5154 205.563C76.5171 205.559 76.5129 205.57 76.5015 205.6C76.4803 205.657 76.434 205.78 76.353 206.001L76.2897 206.173C76.1929 206.437 76.074 206.761 75.9415 207.116C75.9234 207.165 75.9051 207.214 75.8864 207.264ZM78.1649 217.68C78.1647 217.681 78.1601 217.672 78.1515 217.652C78.1607 217.669 78.165 217.679 78.1649 217.68ZM145.17 119.167C148.626 116.248 152.151 113.294 155.903 110.558C157.096 109.688 158.327 108.807 159.58 107.911C162.773 105.626 166.106 103.242 169.31 100.677C173.759 97.115 177.786 93.3356 180.589 89.2679C182.21 86.915 183.001 84.9936 183.406 83.0222C183.679 81.6918 183.786 80.3011 183.817 78.6632C182.395 80.8338 180.693 82.7766 179.098 84.598C178.874 84.8527 178.653 85.1051 178.435 85.3554C174.808 89.5212 170.912 93.4067 167.022 97.2107C166.372 97.8464 165.722 98.4794 165.074 99.111C161.828 102.275 158.617 105.405 155.538 108.669C152.214 112.19 148.729 115.684 145.17 119.167ZM179.801 57.1698C179.697 57.3296 179.595 57.4855 179.497 57.6367C179.093 58.2551 178.742 58.7945 178.496 59.1969C175.187 64.5992 172.099 70.3918 169.195 76.0807C164.296 85.6785 159.068 95.488 153.266 105C156.177 101.954 159.195 99.0127 162.181 96.1025C162.825 95.4751 163.467 94.8492 164.106 94.2239C167.988 90.4283 171.781 86.6422 175.29 82.6121C175.409 82.476 175.526 82.3407 175.644 82.2061C179.843 77.3874 183.293 73.4287 182.898 67.6862C182.645 64.0129 181.521 60.4816 179.801 57.1698ZM179.595 49.1404C179.632 49.0514 179.669 48.9631 179.703 48.8756C179.529 48.3082 179.35 47.7431 179.165 47.1805C179.073 47.1523 178.978 47.1241 178.88 47.0958C178.479 46.9806 178.068 46.8769 177.674 46.7853C178.336 47.5487 178.978 48.3341 179.595 49.1404ZM172.07 41.1937C173.451 41.61 174.852 41.9654 176.285 42.2411C176.334 42.2505 176.4 42.2628 176.48 42.2778C176.705 42.3197 177.045 42.383 177.454 42.4657C176.419 39.8679 175.254 37.3431 173.955 34.9164C170.009 27.5451 164.939 19.4942 157.975 15.6718C156.199 14.6968 153.443 14.698 150.118 15.403C147.086 16.0457 144.036 17.1664 141.603 18.0603C141.443 18.1192 141.285 18.1771 141.13 18.2338C138.582 19.168 136.28 20.0619 134.073 21.0313C136.755 21.041 139.155 21.1949 141.078 21.4514C143.122 21.7243 145.728 22.9488 147.945 24.1398C150.193 25.3465 152.37 26.7052 153.753 27.5674L153.861 27.6348C159.623 31.2292 164.91 35.3937 170.098 39.5479C170.759 40.0766 171.417 40.6254 172.07 41.1937ZM115.015 27.6614C110.912 28.848 107.316 30.4865 104.735 32.6265C102.17 34.7534 100.65 37.3259 100.518 40.5273C101.684 39.0819 103.126 37.7373 104.741 36.5112C107.943 33.3758 111.411 30.3944 115.015 27.6614ZM119.504 29.5318C121.384 28.1742 123.295 26.8901 125.216 25.694C131.189 25.0192 136.872 25.1029 140.526 25.5905C141.725 25.7506 143.715 26.6067 145.973 27.8193C148.099 28.9611 150.18 30.2593 151.57 31.1266L151.654 31.1787C153.842 32.5431 155.964 33.9971 158.052 35.5136C156.895 35.0022 155.723 34.493 154.53 33.9967C146.828 30.7948 135.941 28.389 127.486 28.389C125.048 28.389 122.304 28.7989 119.504 29.5318ZM91.7135 58.2364C91.7196 58.2907 91.7137 58.2989 91.7135 58.2391C91.7135 58.2382 91.7135 58.2373 91.7135 58.2364ZM100.267 53.6642C100.266 53.68 100.265 53.6871 100.265 53.6867C100.265 53.6863 100.266 53.6784 100.267 53.6642ZM104.25 53.421C104.256 53.4457 104.259 53.4602 104.259 53.4617C104.259 53.4633 104.256 53.4508 104.25 53.421ZM43.8876 14.9269C41.4964 15.2107 39.3231 15.7633 37.6128 16.5947C25.0108 22.7211 20.5317 37.7345 18.4503 51.7965C17.8313 55.9788 18.2942 59.907 19.3551 63.7936V63.3106C19.3551 57.9884 20.9269 52.6104 22.9913 47.57C24.7769 43.2104 26.9892 38.9724 28.9808 35.1571C29.291 34.5628 29.5959 33.9788 29.8929 33.4062C32.3872 28.5981 36.4128 22.5784 41.2237 17.5365C42.0789 16.6403 42.9684 15.7649 43.8876 14.9269Z" fill="black"/>
<path fill-rule="evenodd" clip-rule="evenodd" d="M131.398 59.9817C135.224 63.5594 136.82 68.2049 136.971 72.4452C137.109 76.3232 136.734 79.78 136.317 82.7122C135.855 85.9616 134.717 88.5889 134.278 89.6027C134.255 89.6562 134.234 89.7053 134.215 89.7496C134.196 89.7934 134.179 89.8337 134.163 89.871C134.113 89.9874 134.075 90.0751 134.043 90.1501C132.274 97.961 124.727 103.124 116.764 101.79C108.502 100.406 102.92 92.5514 104.297 84.2464C104.463 83.2449 104.684 82.3378 104.917 81.5422C101.895 78.7554 100 74.7527 100 70.3051C100 61.8856 106.79 55.0601 115.167 55.0601C115.166 55.0601 115.166 55.0601 115.167 55.0601C115.176 55.06 115.267 55.0587 115.601 55.0466C115.633 55.0454 115.668 55.0442 115.706 55.0427C116.001 55.0319 116.475 55.0144 116.954 55.0061C117.955 54.9888 119.913 54.9805 122.102 55.3853C124.224 55.7776 128.006 56.8089 131.398 59.9817ZM117.654 85.4918C117.653 85.4921 117.633 85.4921 117.595 85.4906C117.636 85.4907 117.655 85.4915 117.654 85.4918Z" fill="#FB0153"/>
<path fill-rule="evenodd" clip-rule="evenodd" d="M135.908 78.5853C135.418 78.6806 134.715 78.807 133.886 78.9024C125.539 79.862 118.022 73.6386 117.094 65.0021C116.174 56.4322 122.089 48.7064 130.335 47.6501C130.381 47.6409 130.445 47.6277 130.552 47.6057C130.566 47.6027 130.582 47.5994 130.599 47.5959C130.72 47.5709 130.903 47.5329 131.087 47.4963C131.978 47.3184 133.681 47 135.795 47C144.192 47 151 54.0444 151 62.7341C151 71.147 144.619 78.0177 136.592 78.4469C136.586 78.4481 136.58 78.4494 136.574 78.4507L136.516 78.4627C136.369 78.4931 136.149 78.5386 135.908 78.5853ZM136.909 78.383C136.909 78.3831 136.901 78.3846 136.886 78.3871C136.902 78.3841 136.91 78.3829 136.909 78.383Z" fill="#FB0153"/>
</svg>
