<svg width="200" height="208" viewBox="0 0 200 208" fill="none" xmlns="http://www.w3.org/2000/svg">
<path fill-rule="evenodd" clip-rule="evenodd" d="M69.8668 4.21073C60.251 4.12573 51.0386 4.04429 42.6568 7.98517C42.0356 8.27726 41.4366 8.55657 40.8585 8.82616C36.8103 10.7138 33.7842 12.1249 31.2921 14.1114C28.5755 16.2767 26.4438 19.1908 24.7267 24.4384C24.3054 25.7261 23.8729 26.9988 23.4442 28.2602C20.5954 36.6428 17.9153 44.5291 19.8042 53.0216C20.5622 56.4298 21.0763 59.7442 21.5743 62.9556C21.7149 63.862 21.8542 64.7603 21.9974 65.6501C22.6535 69.7281 23.4008 73.7098 24.73 77.8414C25.4022 79.9309 26.0238 81.9719 26.6369 83.985C28.0528 88.6338 29.4233 93.1336 31.267 97.7387C37.3312 112.886 45.9052 128.725 54.7962 142.573C57.5293 146.829 60.0831 151.171 62.6088 155.464C63.2475 156.55 63.8843 157.633 64.5218 158.71C67.6932 164.07 70.8965 169.329 74.4966 174.365C77.1448 178.07 80.248 181.447 83.4176 184.896C85.039 186.66 86.6779 188.444 88.282 190.3C89.8899 192.16 90.0995 194.569 90.2395 196.179C90.2455 196.248 90.2514 196.316 90.2573 196.382C90.4314 198.344 90.5981 199.186 91.1053 199.693C91.195 199.783 91.2746 199.837 91.5353 199.819C91.884 199.795 92.4497 199.627 93.2524 199.172C94.8545 198.262 96.7783 196.574 98.7704 194.519C100.733 192.495 102.643 190.242 104.224 188.319C104.716 187.72 105.189 187.137 105.626 186.598C106.533 185.478 107.283 184.554 107.715 184.094C113.044 178.422 117.844 172.239 122.675 165.936C123.001 165.511 123.327 165.086 123.653 164.66C128.146 158.794 132.698 152.849 137.686 147.28C146.074 137.913 154.177 128.105 162.054 118.267C162.543 117.656 163.032 117.046 163.521 116.436C173.911 103.472 184.142 90.7061 191.531 76.0771C196.706 65.8318 196.344 55.5064 194.837 43.7972C194.365 40.1316 191.861 32.6721 188.252 26.1041C186.457 22.8381 184.455 19.9163 182.396 17.8402C180.293 15.7193 178.418 14.7645 176.859 14.7645C173.281 14.7645 169.71 15.0837 166.02 15.4142L166.001 15.4159C162.348 15.7431 158.58 16.0806 154.758 16.0806C149.403 16.0806 145.922 16.58 142.932 17.8856C139.937 19.1932 137.228 21.3996 133.588 25.2281C128.181 30.9145 123.125 37.5387 120.576 44.6721C120.068 46.0934 120.086 47.6881 120.321 49.6612C120.378 50.1457 120.453 50.6704 120.531 51.2216C120.662 52.1494 120.804 53.1523 120.895 54.1654C120.993 54.4791 121.015 54.8074 120.963 55.1235C120.98 55.4531 120.99 55.7817 120.99 56.1069C120.99 57.2605 120.054 58.1957 118.899 58.1957C117.745 58.1957 116.809 57.2605 116.809 56.1069C116.809 55.8691 116.803 55.6333 116.792 55.3983C115.99 54.1939 115.182 52.9757 114.368 51.7479C106.816 40.3627 98.7213 28.1573 89.4372 18.5104C88.6942 17.7384 87.7186 16.6115 86.6448 15.3711C86.4333 15.1268 86.2179 14.878 85.9998 14.6268C84.6469 13.0681 83.1344 11.3486 81.5856 9.74524C80.028 8.13275 78.4877 6.69474 77.0872 5.67331C75.6011 4.58949 74.6187 4.23569 74.1126 4.23569C72.6896 4.23569 71.2739 4.22317 69.8668 4.21073ZM115.998 46.6436C108.969 36.07 101.237 24.7444 92.4513 15.6148C91.7922 14.9299 90.9094 13.9105 89.8322 12.6667C89.6155 12.4164 89.3909 12.1571 89.1587 11.8896C87.7998 10.324 86.2257 8.53293 84.5943 6.84406C82.9717 5.1643 81.2382 3.5284 79.5525 2.299C77.9524 1.13198 76.0363 0.0579967 74.1126 0.0579967C72.7565 0.0579967 71.3794 0.0438247 69.9868 0.0294919C60.4547 -0.0686082 50.1907 -0.174242 40.8764 4.20511C40.2768 4.48705 39.6862 4.76176 39.1052 5.03201C35.1255 6.88323 31.5956 8.52519 28.6844 10.8456C25.2167 13.6097 22.674 17.2675 20.7524 23.1403C20.3592 24.3417 19.9415 25.5618 19.5175 26.8C16.6769 35.0959 13.559 44.2014 15.7223 53.9278C16.448 57.1905 16.935 60.3285 17.4299 63.5179C17.5736 64.4439 17.7179 65.3742 17.869 66.3132C18.5347 70.4507 19.3214 74.6818 20.7492 79.1198C21.3785 81.0761 21.9778 83.043 22.5794 85.0178C24.0189 89.7429 25.4721 94.513 27.3847 99.2903C33.5685 114.736 42.2775 130.813 51.2768 144.828C53.9613 149.009 56.4626 153.261 58.9839 157.547C59.6276 158.642 60.2726 159.738 60.9224 160.836C64.1042 166.214 67.3833 171.603 71.0941 176.794C73.8855 180.698 77.2998 184.418 80.574 187.985C82.1493 189.701 83.6921 191.381 85.1175 193.03C85.7601 193.774 85.9232 194.846 86.0922 196.751C86.0989 196.826 86.1057 196.904 86.1125 196.985C86.2469 198.548 86.4537 200.954 88.1487 202.647C89.1958 203.693 90.5094 204.078 91.8257 203.987C93.0539 203.902 94.2487 203.411 95.3173 202.804C97.4578 201.59 99.7197 199.544 101.773 197.426C103.857 195.278 105.852 192.921 107.456 190.97C108.063 190.23 108.599 189.569 109.06 189.001C109.863 188.009 110.436 187.301 110.764 186.953C116.254 181.11 121.171 174.77 125.995 168.476C126.314 168.059 126.634 167.642 126.953 167.226C131.466 161.333 135.926 155.51 140.802 150.065C149.262 140.618 157.418 130.744 165.319 120.877C165.834 120.233 166.351 119.589 166.868 118.944C177.19 106.067 187.672 92.9892 195.264 77.9594C201.037 66.5314 200.51 55.1252 198.984 43.2645C198.425 38.9182 195.685 30.9501 191.917 24.0935C190.023 20.6471 187.803 17.3574 185.367 14.9C182.975 12.4874 180.082 10.5868 176.859 10.5868C173.087 10.5868 169.351 10.9214 165.716 11.247L165.647 11.2532C161.959 11.5835 158.37 11.9029 154.758 11.9029C149.191 11.9029 145.03 12.4103 141.257 14.0575C137.49 15.7026 134.317 18.3951 130.556 22.3507C124.988 28.207 119.474 35.3317 116.638 43.267C116.234 44.3971 116.051 45.5343 115.998 46.6436Z" fill="black"/>
<path fill-rule="evenodd" clip-rule="evenodd" d="M101.913 44.2598C104.194 37.9438 107.903 31.8159 113.712 26.3443C118.312 22.0125 124.41 16.7203 131.451 12.4627C138.403 8.25909 147.388 4.3813 157.548 4.3813C157.959 4.3813 158.312 4.36182 158.939 4.32727C159.462 4.29848 160.174 4.25924 161.268 4.21208C163.119 4.13221 165.754 4.06055 168.519 4.31367C172.412 4.67003 185.449 6.51684 189.247 19.84C192.247 30.364 190.894 42.1011 188.919 50.1627C182.019 78.3177 164.753 104.345 150.843 125.313C150.609 125.665 150.376 126.017 150.144 126.367C144.583 134.752 138.823 142.952 133.2 150.958L132.922 151.353C127.17 159.542 121.562 167.534 116.193 175.655C115.478 176.736 114.722 177.907 113.924 179.143C109.234 186.407 103.065 195.961 94.9316 203.298C91.7498 206.169 86.7058 208.684 80.5756 207.831C74.6328 207.005 70.6213 203.419 68.4021 200.241C66.2383 197.143 64.3159 193.944 62.6793 191.21L62.4609 190.845C60.8325 188.124 59.4724 185.851 58.0353 183.725C41.1823 158.79 27.7831 131.362 25.3142 98.6984C24.2046 84.018 23.9342 69.5198 24.0126 55.1299C24.0772 43.2893 26.5541 33.3847 31.4977 23.0186C33.8906 18.001 38.3272 11.1737 44.7786 6.45919C48.134 4.00722 52.7766 1.59407 58.4841 1.09328C64.5404 0.561878 70.3829 2.31704 75.3814 5.94923C88.9185 15.786 97.3168 32.8352 101.913 44.2598Z" fill="#FB0153"/>
<path fill-rule="evenodd" clip-rule="evenodd" d="M118.674 54.0163C119.835 54.1591 120.658 55.201 120.513 56.3434C120.381 57.3792 119.677 58.1107 119.32 58.4526C118.876 58.8776 118.344 59.2649 117.884 59.5795C117.589 59.7814 117.257 59.9985 116.969 60.186C116.822 60.2816 116.687 60.3696 116.575 60.444C116.389 60.5676 116.242 60.6681 116.13 60.7511C116.03 60.8245 115.993 60.8582 115.993 60.8579C115.993 60.8579 115.995 60.8558 115.999 60.8519C112.267 64.6196 108.728 68.3263 105.431 72.3703C104.288 73.7725 103.231 75.237 102.142 76.7511C102.1 76.8101 102.058 76.8692 102.015 76.9284C100.978 78.3714 99.9082 79.8608 98.757 81.294C98.1782 82.0146 97.6978 82.809 97.1317 83.7449C97.0902 83.8135 97.0482 83.8829 97.0057 83.9531C96.5155 84.7627 95.9562 85.6728 95.262 86.5436C102.846 88.2577 109.508 90.4936 116.076 95.6659C116.665 96.1291 117.301 96.6009 117.961 97.0895C119.514 98.2406 121.194 99.4853 122.664 100.932C122.692 100.96 122.766 101.023 122.968 101.18C122.986 101.194 123.004 101.209 123.024 101.224C123.187 101.351 123.412 101.527 123.623 101.711C123.857 101.916 124.166 102.209 124.427 102.579C124.685 102.946 125 103.536 125 104.295C125 104.902 124.898 105.519 124.603 106.103C124.302 106.697 123.882 107.094 123.512 107.368C123.243 107.566 122.927 107.746 122.739 107.853C122.706 107.872 122.677 107.889 122.653 107.903C122.44 108.026 122.296 108.118 122.166 108.226C118.733 111.06 115.567 114.227 112.399 117.513C111.697 118.24 110.994 118.975 110.287 119.714C107.827 122.285 105.327 124.899 102.722 127.376C100.744 129.258 98.8845 131.241 96.973 133.279C96.0296 134.285 95.0735 135.305 94.0843 136.332C91.145 139.385 88.0009 142.409 84.3693 144.884C84.3188 144.919 84.2654 144.955 84.2093 144.993C84.0213 145.122 83.8033 145.271 83.5626 145.432C85.1319 146.187 86.7128 146.954 88.3468 147.873C92.0346 149.947 94.2886 152.522 96.6509 155.22C96.9807 155.596 97.3126 155.976 97.6509 156.356C98.5171 157.331 99.4347 158.261 100.309 159.122C100.856 159.661 101.27 160.373 101.521 160.805C101.555 160.864 101.586 160.917 101.614 160.964C101.926 161.49 102.11 161.737 102.29 161.884C103.092 162.542 103.682 163.315 104.122 163.892L104.137 163.912C104.501 164.39 104.768 164.741 105.039 165.028C105.24 165.054 105.627 165.134 106.016 165.416C106.558 165.809 106.841 166.397 106.876 166.973C106.904 167.436 106.767 167.783 106.709 167.916C106.64 168.075 106.566 168.192 106.528 168.249C106.452 168.363 106.379 168.446 106.362 168.466C106.334 168.498 106.31 168.524 106.3 168.535L106.25 168.589C106.213 168.629 106.1 168.752 105.896 169.028C105.005 170.228 104.12 171.358 103.253 172.467C101.783 174.347 100.363 176.162 99.0489 178.14C98.6458 178.747 98.2335 179.318 97.8537 179.844L97.8068 179.909C97.406 180.464 97.0439 180.968 96.7109 181.479C96.0563 182.483 95.5573 183.451 95.2665 184.596C94.066 189.322 92.8911 194.252 92.8911 198.915C92.8911 200.067 91.943 201 90.7734 201C89.6038 201 88.6557 200.067 88.6557 198.915C88.6557 193.666 89.9698 188.262 91.1576 183.584C91.5981 181.85 92.3449 180.456 93.1464 179.227C93.5415 178.621 93.9601 178.04 94.3545 177.494L94.3855 177.451C94.7767 176.909 95.1468 176.397 95.504 175.859C96.8918 173.77 98.5061 171.702 100.055 169.719C100.615 169.001 101.167 168.294 101.697 167.601C101.358 167.216 101.068 166.835 100.827 166.516C100.795 166.474 100.763 166.433 100.733 166.393C100.276 165.792 99.9518 165.393 99.5787 165.087C98.7724 164.426 98.2708 163.597 97.9556 163.065L97.9039 162.978C97.5519 162.384 97.438 162.192 97.3145 162.07C96.4134 161.183 95.4201 160.178 94.4634 159.102C94.1026 158.696 93.7587 158.304 93.4266 157.926C91.04 155.211 89.2658 153.192 86.2454 151.493C84.6626 150.602 83.1883 149.893 81.5893 149.124C81.0185 148.849 80.4319 148.567 79.8187 148.266C79.7365 148.254 79.6163 148.241 79.4562 148.229C79.0883 148.203 78.6392 148.193 78.2157 148.192C77.8112 148.191 77.4621 148.199 77.2721 148.203L77.2553 148.203C77.2138 148.204 77.1661 148.205 77.1321 148.205L77.0909 148.205C77.0832 148.205 77.033 148.205 76.9739 148.202C76.9554 148.201 76.9209 148.199 76.8778 148.195L76.8763 148.194C76.849 148.192 76.7416 148.181 76.6084 148.151C76.5272 148.13 76.3068 148.058 76.1705 147.999C75.901 147.846 75.2275 147.115 75 146.466C75.0212 145.668 75.6019 144.636 75.9108 144.388C76.0652 144.295 76.3173 144.179 76.4092 144.146C76.5537 144.098 76.6726 144.076 76.7003 144.071L76.7023 144.071C76.7478 144.062 76.7843 144.057 76.8033 144.055C76.8423 144.049 76.8734 144.046 76.886 144.045C76.9546 144.038 77.0854 144.031 77.1963 144.025L77.2434 144.023C77.5377 144.007 78.2641 143.749 79.346 143.135C80.2571 142.617 81.1397 142.015 81.8071 141.559C81.8589 141.524 81.9094 141.49 81.9585 141.456C85.2238 139.231 88.1279 136.458 91.0102 133.464C91.916 132.524 92.8297 131.55 93.753 130.565C95.7125 128.477 97.7154 126.342 99.7789 124.379C102.305 121.976 104.713 119.458 107.162 116.899C107.879 116.15 108.599 115.397 109.327 114.642C112.516 111.335 115.818 108.025 119.444 105.032C119.758 104.773 120.06 104.576 120.308 104.425C120.139 104.293 119.886 104.094 119.669 103.88C118.412 102.643 117.128 101.694 115.7 100.638C114.984 100.109 114.233 99.5532 113.431 98.9214C107.106 93.9408 100.672 91.949 92.5387 90.2181C91.8714 90.076 91.0332 89.7162 90.5206 88.8667C90.0176 88.0331 90.1042 87.1821 90.2432 86.6557C90.4999 85.6839 91.1864 84.8266 91.6183 84.3407C92.2474 83.6329 92.7679 82.8089 93.3677 81.8184C93.4163 81.7381 93.4656 81.6564 93.5156 81.5736C94.0529 80.6836 94.6729 79.6565 95.4347 78.7081C96.514 77.3645 97.5256 75.9566 98.5806 74.4884L98.6848 74.3434C99.7659 72.839 100.893 71.2757 102.128 69.7613C105.554 65.5575 109.207 61.7363 112.966 57.9414C113.331 57.5729 113.85 57.224 114.208 56.9866C114.382 56.8713 114.545 56.7653 114.703 56.662C114.958 56.4964 115.202 56.3375 115.465 56.1575C115.877 55.875 116.179 55.6439 116.368 55.463C116.379 55.4519 116.39 55.4414 116.4 55.4316C116.71 54.5036 117.652 53.8906 118.674 54.0163ZM116.489 55.3312C116.49 55.3311 116.484 55.3409 116.467 55.3608C116.48 55.3412 116.488 55.3313 116.489 55.3312Z" fill="black"/>
<path fill-rule="evenodd" clip-rule="evenodd" d="M120.204 47.4604L119.977 49.5325C119.838 50.7912 119.2 51.992 118.71 52.8339C118.505 53.1875 118.285 53.5425 118.091 53.8571C118.039 53.9414 117.988 54.0228 117.94 54.1005C117.699 54.4929 117.519 54.7968 117.393 55.0464C116.008 57.7861 114.36 60.4182 112.772 62.9565C112.153 63.945 111.543 64.9192 110.961 65.88C110.796 66.1521 110.632 66.4239 110.467 66.6957C106.811 72.7293 103.189 78.7077 100.174 84.9584C100.043 85.2298 99.8796 85.5874 99.6927 85.9961C99.2877 86.8814 98.7732 88.0062 98.2442 89.0124C97.732 89.9868 97.0818 91.1096 96.2929 92.0462C108.331 95.3651 119.39 100.045 129.711 107.603C129.994 107.811 130.393 108.143 130.67 108.625C130.999 109.196 131.239 110.199 130.593 111.136C130.114 111.831 129.414 112.049 129.136 112.121C128.775 112.215 128.418 112.24 128.122 112.24C125.761 112.24 123.79 113.261 121.278 114.812C115.35 118.471 109.734 122.546 104.24 126.901C102.67 128.146 101.03 129.319 99.4388 130.457C99.0899 130.707 98.7433 130.955 98.4002 131.201C96.4687 132.591 94.6222 133.958 92.9211 135.462C90.2034 137.863 87.2101 140.099 84.2991 142.273C83.8166 142.634 83.3364 142.992 82.8601 143.35C80.317 145.258 77.8712 147.142 75.6602 149.124C75.6701 149.128 75.68 149.132 75.6899 149.136C76.4494 149.427 77.243 149.718 77.9137 149.964L78.0686 150.021C78.6641 150.239 79.2472 150.453 79.5048 150.569C84.9328 153.008 90.1122 156.765 94.9247 160.255C96.4353 161.35 97.9097 162.42 99.3443 163.414C100.631 164.305 101.773 165.343 102.803 166.291C102.863 166.345 102.922 166.4 102.98 166.454C103.972 167.366 104.863 168.186 105.82 168.893C106.337 169.275 106.897 169.745 107.269 170.334C107.475 170.66 107.655 171.072 107.711 171.562C107.769 172.065 107.68 172.519 107.53 172.898C107.281 173.525 106.827 174.001 106.613 174.226L106.597 174.242C106.509 174.334 106.43 174.416 106.354 174.493C106.172 174.68 106.015 174.841 105.832 175.056C105.616 175.309 105.401 175.56 105.188 175.81C101.639 179.959 98.4544 183.684 95.8201 188.346C93.4128 192.607 90.3099 197.263 86.4103 200.643L84.8452 202L82.1621 198.834L83.7272 197.478C87.0884 194.564 89.9111 190.4 92.2405 186.277C95.0808 181.251 98.5125 177.239 102.011 173.151C102.244 172.878 102.478 172.604 102.712 172.33C102.819 172.205 102.923 172.089 103.021 171.982C102.02 171.208 101.096 170.357 100.245 169.574C100.173 169.507 100.101 169.441 100.03 169.376C98.9872 168.417 98.0378 167.563 97.014 166.853C95.4125 165.743 93.8303 164.597 92.2536 163.454C87.5195 160.023 82.8356 156.629 77.8304 154.379C77.8269 154.377 77.7959 154.364 77.7228 154.335C77.6502 154.307 77.5564 154.271 77.4409 154.228C77.2095 154.141 76.9152 154.033 76.5729 153.907L76.5009 153.881C75.8355 153.637 75.0169 153.337 74.2285 153.035C73.4229 152.726 72.5979 152.395 71.9831 152.107C71.6957 151.973 71.3523 151.801 71.0698 151.608C70.9625 151.534 70.6622 151.326 70.4155 150.983C70.2887 150.807 70.0473 150.42 70.006 149.864C69.9567 149.2 70.2147 148.603 70.6192 148.194C73.5744 145.206 77.0122 142.546 80.4033 140.002C80.894 139.633 81.3834 139.268 81.8707 138.904C84.7893 136.723 87.6289 134.601 90.2083 132.322C92.0753 130.672 94.0654 129.203 96.011 127.803C96.3724 127.544 96.7314 127.287 97.088 127.032C98.675 125.896 100.214 124.795 101.697 123.619C107.28 119.194 113.03 115.019 119.13 111.253C120.641 110.32 122.263 109.367 124.095 108.75C114.673 102.497 104.544 98.5046 93.3944 95.5812C92.9892 95.4749 92.4923 95.3279 92.0592 95.0978C91.6907 94.902 90.7701 94.3284 90.6258 93.1172C90.4941 92.0123 91.1322 91.2296 91.3974 90.9319C91.7366 90.5512 92.1785 90.1938 92.6282 89.8631C93.1501 89.4792 93.8395 88.5094 94.6039 87.0553C95.0868 86.1365 95.4879 85.2571 95.8619 84.437C96.0694 83.9821 96.2685 83.5454 96.4687 83.1304C99.573 76.6944 103.29 70.5605 106.919 64.5708C107.095 64.281 107.27 63.9914 107.445 63.7023C108.098 62.6255 108.749 61.5845 109.391 60.5598C110.939 58.0862 112.428 55.7074 113.721 53.1488C113.935 52.7258 114.2 52.2881 114.44 51.8977C114.499 51.8024 114.556 51.7093 114.613 51.6177C114.803 51.3103 114.982 51.0201 115.156 50.7208C115.64 49.8892 115.847 49.3647 115.879 49.072L116.107 47L120.204 47.4604ZM127.335 111.014C127.334 111.014 127.328 111.009 127.318 111C127.33 111.009 127.335 111.014 127.335 111.014Z" fill="black"/>
<path fill-rule="evenodd" clip-rule="evenodd" d="M161.491 8.23211C158.56 8.178 155.712 8.12542 152.845 8.30551C150.821 8.4327 148.688 9.38039 146.44 10.7951C144.955 11.7294 143.597 12.7432 142.242 13.7545C141.497 14.3106 140.753 14.866 139.99 15.407C135.428 18.6394 131.806 22.6845 128.655 27.4358C125.177 32.68 123.092 37.2032 120.888 43.2743C119.362 47.4769 118.191 51.041 118.191 55.1113V57.2024H114.03V55.1113C114.03 50.2275 115.454 46.0418 116.98 41.8405C119.264 35.5488 121.485 30.7073 125.194 25.1159C128.562 20.0373 132.523 15.5812 137.593 11.9888C138.19 11.5656 138.852 11.0722 139.557 10.5469C141 9.47188 142.622 8.26332 144.232 7.25016C146.682 5.70858 149.526 4.32368 152.586 4.13145C155.618 3.94093 158.759 3.99804 161.785 4.05305C163.18 4.07842 164.55 4.10333 165.874 4.10333C171.846 4.10333 177.35 4.75313 181.96 10.2308C185.728 14.7063 188.832 21.1055 190.062 26.82C190.427 28.5207 190.865 30.1986 191.316 31.9277C191.419 32.3205 191.522 32.7158 191.625 33.1147C192.176 35.2443 192.719 37.448 193.095 39.7125C193.541 42.407 193.65 45.1359 193.695 47.7658C193.707 48.4566 193.714 49.1365 193.722 49.808C193.743 51.7395 193.763 53.6018 193.884 55.4555C194.485 64.6634 192.772 71.8726 188.213 79.9959C180.324 94.0547 170.709 107.532 159.498 119.19C157.863 120.89 157.085 121.867 156.228 123.717C155.276 125.773 154.398 127.852 153.504 129.971C153.404 130.207 153.304 130.444 153.203 130.682C152.209 133.033 151.186 135.426 150.04 137.794C145.186 147.83 138.948 157.025 132.834 166.039L132.663 166.292C131.444 168.09 130.127 169.814 128.848 171.49L128.749 171.62C127.427 173.353 126.144 175.039 124.964 176.795C123.321 179.239 121.635 181.718 118.248 183.034C117.211 183.436 116.307 184.005 115.345 184.71C115.025 184.944 114.651 185.232 114.251 185.539C113.588 186.049 112.853 186.615 112.169 187.087C111.966 187.227 111.761 187.368 111.555 187.509C110.817 188.015 110.063 188.531 109.334 189.088C108.399 189.803 107.645 190.483 107.158 191.116C106.434 192.057 105.646 192.868 104.903 193.599C104.681 193.818 104.466 194.025 104.258 194.227C103.744 194.727 103.266 195.19 102.791 195.697C102.566 195.937 102.392 196.186 102.135 196.553C102.045 196.683 101.944 196.827 101.827 196.991C101.442 197.53 100.877 198.278 100.039 198.84L98.3078 200L96 196.52L97.7309 195.36C97.9024 195.245 98.1026 195.034 98.4464 194.553C98.4984 194.48 98.5574 194.395 98.6226 194.301C98.9072 193.891 99.31 193.311 99.7637 192.828C100.311 192.244 100.896 191.677 101.435 191.154C101.628 190.966 101.815 190.785 101.993 190.61C102.698 189.917 103.321 189.267 103.866 188.559C104.687 187.491 105.783 186.548 106.816 185.759C107.64 185.129 108.513 184.532 109.261 184.019C109.454 183.887 109.639 183.761 109.812 183.641C110.461 183.193 110.983 182.788 111.541 182.356C111.952 182.038 112.382 181.705 112.895 181.33C113.992 180.526 115.231 179.722 116.748 179.133C118.787 178.341 119.841 176.946 121.516 174.453C122.777 172.577 124.135 170.795 125.448 169.074L125.518 168.983C126.818 167.279 128.073 165.635 129.225 163.936L129.316 163.802C135.485 154.707 141.578 145.725 146.299 135.965C147.394 133.703 148.38 131.397 149.374 129.046C149.475 128.809 149.575 128.571 149.676 128.333C150.566 126.224 151.473 124.077 152.456 121.952C153.582 119.522 154.699 118.163 156.507 116.283C167.437 104.918 176.847 91.7381 184.59 77.9411C188.767 70.4973 190.278 64.0937 189.733 55.7291C189.604 53.7513 189.582 51.7245 189.56 49.7617C189.553 49.1119 189.546 48.4691 189.535 47.8374C189.491 45.2495 189.385 42.7758 188.991 40.4C188.648 38.3316 188.145 36.2802 187.598 34.167C187.5 33.7881 187.401 33.4063 187.3 33.022C186.848 31.2881 186.382 29.5024 185.995 27.7038C184.908 22.6482 182.104 16.8757 178.784 12.9323C175.408 8.92081 171.536 8.28554 165.874 8.28554C164.385 8.28554 162.928 8.25864 161.491 8.23211Z" fill="black"/>
<path fill-rule="evenodd" clip-rule="evenodd" d="M19.1482 67V69.0854C19.1482 72.0872 19.9262 75.1073 21.0521 78.2171C21.6136 79.7682 22.2501 81.3117 22.9051 82.875C22.9956 83.0911 23.0866 83.3078 23.1779 83.5251C23.7404 84.8648 24.3111 86.2239 24.8285 87.5671C26.3968 91.638 28.1045 95.6767 29.8393 99.7415C30.0346 100.199 30.2303 100.657 30.4261 101.116C31.9658 104.72 33.5164 108.349 34.9802 112.005C35.5873 113.521 36.1721 115.023 36.752 116.513C38.4153 120.786 40.0379 124.955 42.0274 129.039C47.5005 140.274 55.5502 150.04 63.669 159.889C65.4089 162 67.152 164.115 68.8736 166.249C74.5438 173.277 79.7647 180.583 84.6511 188.157C85.3785 189.285 86.1753 190.458 86.9886 191.655C88.2508 193.513 89.5526 195.43 90.6955 197.324C90.7788 197.462 90.8889 197.636 91.0139 197.834C91.3277 198.331 91.735 198.975 92.0471 199.568C92.5056 200.439 93 201.609 93 202.915V205H88.8518V202.915C88.8518 202.628 88.7309 202.184 88.3808 201.519C88.1441 201.069 87.9045 200.692 87.6377 200.272C87.4851 200.031 87.3237 199.777 87.1489 199.487C86.0339 197.639 84.878 195.941 83.6872 194.192C82.8644 192.984 82.025 191.751 81.1709 190.427C76.3561 182.964 71.2207 175.778 65.652 168.876C63.9934 166.821 62.293 164.759 60.5791 162.681C52.4479 152.823 44.0134 142.597 38.302 130.873C36.2306 126.621 34.5184 122.222 32.8378 117.904C32.2699 116.444 31.7056 114.994 31.1322 113.563C29.6875 109.954 28.1566 106.371 26.6148 102.762C26.4191 102.304 26.2232 101.845 26.0272 101.386C24.2922 97.3207 22.5581 93.2211 20.9604 89.0735C20.4672 87.7934 19.9236 86.4987 19.3596 85.1553C19.2677 84.9362 19.1752 84.7159 19.0823 84.4942C18.4256 82.9269 17.7539 81.3004 17.1541 79.6436C15.9572 76.3375 15 72.7901 15 69.0854V67H19.1482Z" fill="black"/>
<path fill-rule="evenodd" clip-rule="evenodd" d="M15.6001 17.5482C18.6449 15.9282 21.898 14.5041 25.1693 13.072C26.4282 12.5208 27.6898 11.9685 28.9433 11.4034C41.4789 5.75196 57.2538 8.02037 70.2762 12.8065C71.2912 13.1795 72.3177 13.5331 73.356 13.8907C75.063 14.4787 76.8018 15.0777 78.574 15.7922C81.3668 16.9181 83.8619 18.1946 85.6861 19.7971C89.8848 23.4856 93.9794 27.7379 97.784 31.9416C99.9072 34.2875 101.922 36.7187 103.971 39.1903C104.346 39.6437 104.723 40.0985 105.102 40.5544C107.532 43.4772 110.031 46.4281 112.752 49.2167C113.587 50.0725 114.287 51.051 115.068 52.1758C115.123 52.2546 115.178 52.3344 115.234 52.4149C115.945 53.4411 116.743 54.593 117.702 55.6522C118.13 56.1251 118.491 56.5039 118.789 56.7896C119.021 57.0109 119.407 57.3705 119.849 57.5844C119.981 57.6485 120.214 57.7475 120.515 57.7933C120.819 57.8396 121.338 57.8509 121.879 57.5553C123.057 56.912 123.005 55.6838 122.998 55.5343C122.983 55.2069 122.901 54.9329 122.859 54.8001C122.806 54.6362 122.743 54.4781 122.684 54.3406C122.404 53.6874 121.806 52.6058 121.292 51.6776C121.074 51.2833 120.871 50.9167 120.714 50.6223L120.691 50.579C118.818 47.0573 117.121 43.8685 114.835 40.4407C110.203 33.4955 103.443 27.0084 97.072 21.9729C95.5869 20.7992 94.0403 19.5266 92.4543 18.2217C89.9504 16.1615 87.3483 14.0204 84.7344 12.0594C80.394 8.8031 75.721 5.7992 70.6193 3.90599C67.6912 2.81942 64.7786 2.28895 61.9723 1.89065C61.087 1.76499 60.2255 1.65373 59.3773 1.5442C57.4721 1.29817 55.6342 1.06083 53.7461 0.688641C44.1582 -1.2013 33.3734 0.990827 24.7162 4.9246C21.183 6.53007 17.5016 9.49363 14.8659 11.9638C14.1985 12.5893 13.4779 13.406 12.7799 14.3213C11.7204 14.9042 10.6845 15.5129 9.68436 16.1528C9.46347 16.2941 9.23167 16.4395 8.9917 16.5899C6.80211 17.9629 3.93208 19.7626 2.45647 22.8263C0.612234 26.6554 0.434847 30.8229 0.28004 34.46L0.278772 34.4898C0.265003 34.8133 0.25089 35.1393 0.236673 35.4678C-0.0157673 41.2998 -0.300457 47.8769 0.740806 53.8622C3.79639 71.426 12.246 87.3012 21.8184 101.721C24.2643 105.405 26.6324 109.197 29.0159 113.013C34.7706 122.228 40.6155 131.587 47.8654 139.93C50.1493 142.559 52.4285 145.105 54.6949 147.637C57.7995 151.106 60.8801 154.548 63.9162 158.137C68.3377 163.365 71.3463 168.543 74.3536 174.856C74.9539 176.116 75.5517 177.387 76.1518 178.662C77.8034 182.172 79.4725 185.719 81.2617 189.197C82.2016 191.024 83.6472 193.751 86.2758 195.065L88.1465 196L90.0173 192.26L88.1465 191.325C86.9133 190.708 86.0031 189.27 84.9818 187.285C83.2292 183.878 81.6069 180.43 79.9656 176.942C79.359 175.653 78.7498 174.358 78.1304 173.058C75.0279 166.545 71.8391 161.028 67.1105 155.437C64.0695 151.842 60.8889 148.287 57.7298 144.756C55.4636 142.223 53.2083 139.703 51.0236 137.188C43.9998 129.105 38.435 120.192 32.7579 111.1C30.3344 107.219 27.8905 103.305 25.3038 99.4083C15.8568 85.1778 7.77208 69.8725 4.86212 53.1457C3.9011 47.6216 4.16604 41.4621 4.42225 35.5055C4.43428 35.2257 4.4463 34.9464 4.45817 34.6676C4.61884 30.8929 4.80837 27.5828 6.22552 24.6404C6.83111 23.3831 7.81781 22.455 9.09245 21.5407C9.01665 21.9018 8.96468 22.2589 8.94138 22.6083C8.30812 32.1041 8.4581 42.5774 10.904 52.0087C11.1402 52.9193 11.3301 53.7995 11.5293 54.7233C11.5868 54.9897 11.645 55.2597 11.7054 55.5352C11.9699 56.742 12.2671 58.012 12.6935 59.338C13.7287 62.5577 14.5416 66.2029 14.5416 69.3992V71.4901H18.7248V69.3992C18.7248 65.588 17.7746 61.475 16.676 58.0583C16.3123 56.9271 16.0489 55.8141 15.7917 54.6402C15.7378 54.3946 15.6838 54.1441 15.629 53.8897C15.427 52.9528 15.2134 51.962 14.9534 50.9592C12.6701 42.1552 12.4946 32.1938 13.1153 22.8865C13.1761 21.9751 13.7535 20.5029 14.746 18.8568C15.0186 18.4047 15.307 17.9649 15.6001 17.5482ZM69.1635 7.8264C67.5452 7.22585 65.9033 6.81264 64.2134 6.49166C66.7651 7.17945 69.2411 7.97427 71.6048 8.83939C70.7987 8.47023 69.9853 8.13134 69.1635 7.8264Z" fill="black"/>
</svg>
