<svg width="165" height="232" viewBox="0 0 165 232" fill="none" xmlns="http://www.w3.org/2000/svg">
<path fill-rule="evenodd" clip-rule="evenodd" d="M83.18 32.9996C87.7175 27.4037 92.6 22.7188 96.8934 18.5992C97.9188 17.6153 98.9106 16.6636 99.8561 15.7395C105.044 10.6682 112.072 4.48579 122.752 2.077C122.068 2.23124 127.36 0.795366 130.665 0.328119C132.597 0.0549711 135.72 -0.249394 139.098 0.33073C142.432 0.9031 148.666 2.87068 152.32 9.46525C154.25 12.9466 155.242 16.4957 155.832 18.8922C156.118 20.0542 156.367 21.2045 156.563 22.1069L156.605 22.3045C156.827 23.3251 156.981 24.0185 157.133 24.61C157.928 27.7109 158.623 30.5488 159.295 33.2938C160.237 37.1449 161.135 40.8131 162.204 44.7682C168.478 67.9922 163.494 89.0862 154.197 108.217C143.069 131.114 126.549 151.574 111.691 169.393C109.087 172.517 106.63 175.339 104.314 178C98.6493 184.506 93.8285 190.043 89.7629 196.648C89.5044 197.068 89.2174 197.547 88.9019 198.073C87.0166 201.218 84.1163 206.055 80.2247 210.16C80.2051 210.184 80.1044 210.304 79.8953 210.578C79.7422 210.778 79.5754 211.002 79.3486 211.307C79.1406 211.587 78.8654 211.959 78.5843 212.33L78.5764 212.341C77.6352 213.584 75.4744 216.439 72.3145 218.702C71.8604 219.027 71.2269 219.601 69.6965 221.178C69.5826 221.295 69.4597 221.422 69.3282 221.558C68.0534 222.879 65.9762 225.032 63.6054 226.899C61.8649 228.27 59.0671 230.051 55.2975 230.729C51.0648 231.49 46.7821 230.633 43.2059 228.364C37.5084 224.748 35.7184 218.916 35.2633 217.433L35.2515 217.394C34.5253 215.03 34.1714 212.686 33.9878 211.403C33.7653 209.847 33.735 209.595 33.7592 209.676C32.3828 203.882 30.4778 198.113 28.3133 191.635L28.1082 191.022C26.0434 184.844 23.7473 177.975 22.0168 170.848C18.6096 156.816 17.207 142.961 16.2391 129.654C16.0308 126.792 15.851 123.914 15.6886 121.044C14.7096 117.347 13.7905 113.632 12.9281 109.885C12.6964 108.879 12.4027 107.941 11.9285 106.427C11.7722 105.928 11.5964 105.366 11.3968 104.719C10.7204 102.527 9.76733 99.3146 9.32661 95.7801C8.69995 90.7543 8.98523 86.0826 10.0949 81.7176C10.3156 75.0667 11.4456 68.4854 13.1827 63.0124C14.5198 58.7999 16.1351 54.1736 18.4232 49.4683C20.3938 45.416 23.2261 42.5094 24.5309 41.1702C24.5747 41.1253 24.6167 41.0822 24.6569 41.0408C25.9087 39.7538 26.2216 39.3973 26.2544 39.3705C26.2737 39.3384 26.2936 39.3055 26.314 39.2718C27.9718 36.5293 32.9979 28.2145 39.1388 22.0254C42.016 19.1256 47.1681 14.5452 54.0721 13.0129C57.9878 12.1438 62.5939 12.2393 67.1664 14.2856C71.6079 16.2732 74.7397 19.5283 76.8812 22.7855C79.0605 26.1003 81.1725 29.4979 83.18 32.9996ZM62.3485 42.4574C62.3484 42.458 62.3354 42.4666 62.3097 42.4817C62.3357 42.4644 62.3485 42.4569 62.3485 42.4574Z" fill="#FB0153"/>
<path fill-rule="evenodd" clip-rule="evenodd" d="M117.906 13.3844C117.466 13.5786 117.06 13.7575 116.697 13.9121C114.492 14.8504 112.176 15.5452 110.017 16.1931C109.166 16.4482 108.341 16.696 107.555 16.9485C107.306 17.0285 107.06 17.1095 106.815 17.1918C105.178 18.412 103.726 19.815 102.361 21.6124C100.31 24.3122 97.7845 27.226 95.3016 29.6235C94.7615 30.1451 94.0826 30.7164 93.4786 31.2247C93.1505 31.5009 92.8445 31.7584 92.5949 31.9793C91.7669 32.7118 91.1507 33.3644 90.7483 34.0679C86.6211 41.2826 83.7676 50.566 85.5005 58.572C85.6286 59.1639 85.7391 59.7771 85.8419 60.3808C86.7201 61.5826 87.6424 62.8641 88.5288 64.176C88.8149 63.7422 89.0708 63.3064 89.2919 62.8647L90.2298 60.9909L93.9816 62.8647L93.0436 64.7386C92.4551 65.9143 91.7155 67.0023 90.9221 68.0136C91.0431 68.2295 91.1611 68.4448 91.2757 68.6595C91.6406 69.343 91.9182 69.7181 92.0681 69.9019C92.1428 69.9934 92.1969 70.0513 92.2479 70.1057C92.2498 70.1077 92.341 70.2029 92.4165 70.2965L92.4194 70.3C92.4506 70.3386 92.5906 70.5116 92.7041 70.7597C92.7633 70.8892 93.2704 72.0333 92.3521 73.0473C91.9778 73.4606 91.5461 73.613 91.3213 73.6716C91.0878 73.7325 90.8951 73.7395 90.8001 73.7403C90.6121 73.7418 90.4618 73.7172 90.4268 73.7117C90.3708 73.7028 90.3217 73.693 90.3022 73.6891L90.2431 73.6772C90.1945 73.6675 90.1423 73.6578 90.0649 73.6504C89.911 73.6358 89.5675 73.6225 88.9913 73.7271C88.4915 73.8179 87.7345 74.194 86.7299 75.0192C85.7615 75.8148 84.7407 76.878 83.7134 78.0655C82.6907 79.2476 81.7096 80.4959 80.8016 81.6517L80.7533 81.7132C79.8901 82.812 79.0498 83.8816 78.3588 84.6243C75.316 87.8946 72.566 91.4181 69.7671 95.0315C69.6508 95.1815 69.5345 95.3318 69.4181 95.4821C66.7486 98.9295 64.0208 102.452 61.0141 105.772C60.3577 106.497 59.369 107.312 58.5133 108.018L58.3907 108.119C57.8961 108.528 57.4345 108.911 57.0274 109.268C60.4951 109.304 64.4032 109.753 68.1194 110.816C71.987 111.921 75.7821 113.73 78.6167 116.562C79.0938 117.038 79.5702 117.496 80.0483 117.939C82.0166 117.68 83.8816 117.285 85.6001 116.664C86.0352 116.506 87.0601 116.266 87.8374 116.242C88.0333 116.236 88.3837 116.235 88.7575 116.332C88.9823 116.39 90.215 116.749 90.4452 118.129C90.5457 118.731 90.375 119.219 90.2365 119.499C90.0972 119.781 89.9244 119.99 89.801 120.123C89.5551 120.389 89.2606 120.613 88.9952 120.795C88.8385 120.903 88.5607 121.166 88.1783 121.662C87.8135 122.135 87.4304 122.717 87.0396 123.359C87.0281 123.378 87.0166 123.397 87.0051 123.416C87.354 123.655 87.7082 123.894 88.068 124.133C88.6507 124.521 88.9094 125.097 88.9815 125.564C89.0436 125.965 88.9737 126.285 88.9359 126.428C88.8589 126.72 88.735 126.932 88.6992 126.993C88.6025 127.157 88.4947 127.295 88.4393 127.364C88.3078 127.529 88.1385 127.719 87.9722 127.9C87.6282 128.275 87.1631 128.757 86.6974 129.234C86.3391 129.6 85.9913 129.954 85.6839 130.266C85.1375 130.821 84.719 131.246 84.5968 131.386C81.8406 134.549 79.5166 137.937 77.3733 141.494C76.7782 142.737 76.1774 143.986 75.5608 145.235C73.9051 148.591 72.2919 152.038 70.667 155.51C67.7953 161.647 64.8867 167.862 61.6411 173.788C61.0662 174.837 60.4367 175.871 59.7639 176.873C61.2114 177.119 62.6205 177.451 64.0056 177.842C64.1143 177.832 64.2223 177.822 64.3297 177.813C64.8244 177.769 65.2963 177.732 65.7535 177.697C66.7165 177.623 67.6142 177.553 68.5225 177.431C68.5487 177.423 68.6004 177.407 68.6836 177.378C68.8636 177.314 69.1019 177.222 69.3981 177.104C69.5945 177.026 69.8194 176.935 70.06 176.838C70.5034 176.658 71.0005 176.457 71.4715 176.275C72.2024 175.991 73.0099 175.697 73.7006 175.516C74.0351 175.428 74.4461 175.339 74.8549 175.319C75.0596 175.309 75.3515 175.311 75.6733 175.384C75.9884 175.456 76.4955 175.635 76.9189 176.105C77.4139 176.655 77.5566 177.292 77.6094 177.652C77.6688 178.056 77.6622 178.46 77.6372 178.805C77.5867 179.499 77.4356 180.264 77.2735 180.944C77.0292 181.969 76.7148 182.981 76.512 183.601C76.5337 183.62 76.5552 183.639 76.5763 183.658C76.7902 183.851 76.996 184.048 77.1722 184.247C77.3265 184.421 77.5741 184.722 77.7388 185.123C77.9313 185.592 78.0589 186.348 77.6373 187.111C77.2936 187.733 76.761 188.01 76.5824 188.098C76.3703 188.203 76.1505 188.276 76.0753 188.302C75.9567 188.343 75.9063 188.36 75.8551 188.381C75.8476 188.384 75.8411 188.386 75.8356 188.389C74.3762 189.93 73.1276 191.928 71.9694 194.151C71.1804 195.666 70.4816 197.186 69.7865 198.697C69.4365 199.458 69.0874 200.217 68.7282 200.973C67.6647 203.209 66.6893 205.493 65.6953 207.821L65.54 208.184C65.1022 209.209 64.66 210.242 64.2064 211.276C64.2903 211.436 64.3726 211.597 64.453 211.76C64.614 211.479 64.7768 211.195 64.9327 210.932C65.1314 210.596 65.3401 210.255 65.5413 209.964C65.6945 209.743 66.0017 209.307 66.4156 208.997C67.0613 208.514 67.5224 208.093 68.0348 207.625C68.3441 207.343 68.6722 207.044 69.071 206.703C70.0531 205.864 71.1966 205.042 72.8385 204.446C73.6025 204.169 74.2879 203.725 74.9427 203.135C75.6283 202.328 76.3233 201.526 77.0162 200.73C77.1886 200.493 77.3626 200.246 77.539 199.991C77.777 199.646 78.0273 199.274 78.2854 198.891C78.7992 198.127 79.3438 197.317 79.8837 196.588C80.7212 195.456 81.6914 194.307 82.8787 193.385C83.1439 193.179 83.4165 192.958 83.6946 192.725C84.0666 192.229 84.429 191.731 84.7806 191.228C86.3896 188.926 87.8539 186.56 89.3531 184.137C89.8773 183.29 90.4057 182.436 90.9461 181.576C93.007 178.294 95.2059 174.979 97.8575 171.91C98.8278 170.788 99.7986 169.675 100.769 168.569C101.244 167.671 101.718 166.769 102.193 165.864C102.333 165.597 102.473 165.33 102.613 165.063C105.909 158.774 109.276 152.352 113.364 146.362C119.633 137.177 125.889 127.924 130.667 118.092C136.425 106.244 139.015 94.7287 139.42 81.3939C139.881 66.1887 138.371 50.9502 136.387 35.7551C136.145 33.9062 135.965 31.9254 135.784 29.9318L135.751 29.573C135.557 27.4416 135.356 25.2883 135.07 23.1624C135.014 22.743 134.955 22.3265 134.892 21.9135C134.05 20.6803 133.14 19.6376 132.184 18.8785C128.78 16.1784 125.815 13.951 122.72 12.8421C122.002 12.5844 121.272 12.3861 120.523 12.2616C119.572 12.6501 118.685 13.0411 117.906 13.3844ZM127.199 10.285C129.215 11.3792 131.139 12.7575 133.005 14.1957C132.677 13.3327 132.308 12.5099 131.89 11.7345C131.455 10.9272 130.788 10.4836 129.766 10.2915C129.043 10.1557 128.177 10.1584 127.199 10.285ZM140.801 37.1832C142.668 51.8052 144.064 66.6437 143.612 81.5208C143.192 95.3862 140.482 107.491 134.441 119.922C129.508 130.072 123.078 139.569 116.83 148.722C115.563 150.578 114.367 152.48 113.216 154.416C114.089 153.402 114.96 152.382 115.826 151.353C129.305 135.352 143.307 117.365 147.682 97.2387C150.016 86.4996 148.287 75.2407 146.556 63.9733C146.205 61.6901 145.855 59.4066 145.538 57.127C145.425 56.3121 145.17 55.5083 144.833 54.5639C144.779 54.4118 144.722 54.2537 144.662 54.0904C144.374 53.2974 144.042 52.3823 143.807 51.441C143.459 50.0521 143.255 48.6478 143.072 47.3487C143.061 47.2674 143.049 47.1865 143.038 47.106C142.864 45.8676 142.704 44.7279 142.456 43.6183C141.974 41.457 141.405 39.3255 140.801 37.1832ZM104.246 170.964C105.622 169.398 107.01 167.831 108.402 166.26C111.977 162.222 115.573 158.162 119.036 154.051C132.46 138.114 147.158 119.398 151.781 98.1277C154.296 86.5558 152.413 74.3725 150.672 63.1067C150.329 60.8816 149.99 58.6923 149.693 56.5506C149.517 55.2854 149.136 54.1425 148.784 53.1571C148.715 52.9625 148.647 52.7757 148.582 52.5949C148.298 51.8103 148.055 51.1379 147.876 50.4247C147.589 49.2776 147.411 48.0776 147.226 46.7658C147.213 46.6737 147.2 46.581 147.187 46.4877C147.019 45.2859 146.837 43.9867 146.55 42.7055C145.783 39.2724 144.803 35.892 143.843 32.5829C143.613 31.7894 143.384 31 143.159 30.2149C142.492 27.8824 141.472 25.1049 140.11 22.4974C139.737 21.7819 139.331 21.0676 138.894 20.3715C138.277 16.6672 137.313 12.957 135.583 9.74803C134.439 7.62448 132.563 6.55362 130.541 6.17369C128.605 5.81004 126.503 6.06307 124.585 6.51152C123.012 6.87911 121.422 7.41611 119.97 7.97375C117.162 7.73932 114.181 8.28149 110.954 9.89321C108.756 10.9909 106.735 12.0999 104.857 13.4335C102.268 14.3412 99.6409 15.516 97.1928 17.4181C97.0804 17.5055 96.9669 17.5936 96.8525 17.6824C91.8003 21.6058 84.9385 26.9345 81.4928 33.1301L80.4743 34.9615L84.141 36.9963L85.1595 35.1649C85.5611 34.4428 86.0205 33.7302 86.5277 33.0277C83.3704 38.848 80.8623 46.0754 80.7906 53.2258C76.8626 46.5401 72.57 39.9822 67.5674 34.0422C65.226 31.262 62.8888 28.4876 59.2891 26.4244C57.1873 25.2198 54.9437 24.8411 52.8591 24.7344C52.0412 24.6925 51.1669 24.6934 50.3064 24.7086C48.8921 23.9224 47.4121 23.2201 45.8502 22.6629C44.1594 22.0597 42.3928 21.9135 40.7881 21.8947C39.98 21.8853 39.1769 21.9085 38.4254 21.9323C38.3585 21.9345 38.2921 21.9366 38.2262 21.9387C37.5364 21.9608 36.8959 21.9813 36.2763 21.9813C27.7257 21.9813 18.6096 25.2058 11.7831 30.2571C11.5292 30.4449 11.2744 30.632 11.0193 30.8193C8.18721 32.8986 5.31376 35.0083 3.17354 38.5715C0.927671 42.3106 0.783588 46.3409 0.652691 50.0025C0.637688 50.4221 0.622859 50.837 0.605057 51.246C0.391563 56.151 0.40905 61.1739 0.604754 66.0612C0.612104 66.2448 0.620724 66.4281 0.630518 66.6112C0.0117688 71.6758 0.0118045 76.7617 0.0118422 82.1092L0.0118428 82.2344C0.0118428 83.2182 0.00895564 84.2168 0.00603246 85.2278C-0.0325079 98.557 -0.0773234 114.056 6.40533 126.648C7.6965 129.156 8.98242 131.685 10.2725 134.221C10.5523 134.772 10.8323 135.322 11.1125 135.873C12.4758 139.517 13.9562 143.111 15.4913 146.689C17.6802 151.791 20.3776 156.769 23.0211 161.648C24.5674 164.502 26.0953 167.322 27.4923 170.113C31.5886 178.297 35.8143 186.494 40.6141 194.385C44.1496 200.198 46.741 206.145 49.1198 212.609C49.4174 213.417 49.7173 214.208 50.0122 214.986C51.6991 219.436 53.223 223.456 53.223 227.863L53.2229 227.886C53.2222 228.046 53.2185 228.833 53.2986 229.492C53.3209 229.675 53.3555 229.901 53.4138 230.128C53.4553 230.29 53.5729 230.731 53.8933 231.14C54.071 231.367 54.416 231.719 54.976 231.897C55.591 232.092 56.1728 231.986 56.6037 231.777C57.2741 231.452 57.6037 230.876 57.7001 230.707L57.7013 230.705C58.5157 229.282 59.7092 228.028 61.0338 226.637C61.4807 226.168 61.9426 225.683 62.4098 225.17C65.8574 221.389 69.0171 217.34 72.1239 213.359C73.5429 211.541 74.9509 209.737 76.3702 207.979C76.8972 207.326 77.435 206.679 77.9812 206.034C78.8742 205.193 79.6357 204.254 80.3095 203.333C80.4643 203.155 80.6194 202.977 80.775 202.799C81.2925 202.206 81.8141 201.608 82.3378 201.002C83.8426 199.262 85.3503 197.475 86.7632 195.619C89.4686 193.295 92.4939 190.071 94.5567 187.177C98.235 182.015 101.316 176.487 104.246 170.964ZM63.0928 217.977C61.8683 219.457 60.6151 220.916 59.3086 222.349C58.9902 222.698 58.6297 223.076 58.2461 223.477C57.9075 223.832 57.5509 224.205 57.1894 224.594C56.6456 220.597 55.2185 216.856 53.8892 213.371C53.604 212.623 53.3233 211.887 53.0567 211.163C50.6252 204.556 47.9254 198.336 44.1988 192.21C40.9248 186.827 37.9138 181.283 35.0078 175.657C35.3369 176.11 35.6658 176.562 35.9944 177.014C39.117 181.307 42.2114 185.561 45.1423 189.952C46.2039 191.543 47.2651 193.129 48.3251 194.713C51.0504 198.786 53.7676 202.846 56.4612 206.943C56.8437 207.525 57.2329 208.093 57.6244 208.664C57.9014 209.068 58.1796 209.474 58.4575 209.888C57.8015 211.359 57.1716 212.814 56.5651 214.234C56.3194 214.81 56.1288 215.316 55.9958 215.755C55.8727 216.16 55.7579 216.638 55.7532 217.111C55.7504 217.389 55.7794 218.782 57.1474 219.365C57.7541 219.624 58.3104 219.554 58.6362 219.47C58.9656 219.385 59.2266 219.245 59.3979 219.14C60.0142 218.761 60.573 218.123 60.9779 217.593C61.2339 217.257 61.4909 216.881 61.7318 216.483C61.8077 216.708 61.9286 216.976 62.1271 217.235C62.3572 217.536 62.6842 217.81 63.0928 217.977ZM60.5031 205.442C63.0066 200.191 65.864 194.93 69.1849 190.384C70.3382 188.805 70.9217 187.204 71.5497 185.274C71.4852 185.237 71.42 185.2 71.3542 185.163C70.3197 184.581 69.2769 184.083 68.5751 183.816C66.8844 183.171 65.2467 182.585 63.6198 182.095C62.6171 182.211 61.693 182.369 60.8327 182.624C60.5369 182.711 60.1754 182.745 60.0087 182.76L60.0054 182.76C59.7533 182.784 59.4464 182.804 59.1126 182.818C58.4482 182.847 57.6161 182.856 56.8222 182.815C56.1042 182.777 55.1548 182.689 54.4136 182.408C54.1282 182.3 53.2768 181.955 52.8534 181.037C52.7609 180.836 52.7009 180.641 52.6667 180.453C52.4498 180.409 52.17 180.337 51.8884 180.209C51.6322 180.093 50.892 179.718 50.5758 178.818C50.2045 177.761 50.7065 176.913 51.003 176.547C51.302 176.177 51.6754 175.913 51.9682 175.73C52.5967 175.338 53.292 174.528 54.1002 173.324C54.4296 172.833 54.7445 172.33 55.0697 171.81C55.1277 171.717 55.186 171.624 55.2448 171.53C55.6203 170.931 56.0204 170.3 56.4267 169.744C60.2173 164.555 63.1809 158.914 66.2354 153.1C66.7467 152.126 67.2605 151.148 67.7812 150.167L67.915 149.914C69.7622 146.432 71.6178 142.933 73.6679 139.519C73.7789 139.286 73.8901 139.054 74.0014 138.82C76.2443 134.125 78.5665 129.263 81.3609 124.797C81.3993 124.736 81.4391 124.671 81.4803 124.603C80.5196 123.871 79.5795 123.113 78.6482 122.309C78.098 122.36 77.5494 122.402 77.0039 122.439C75.3245 122.55 73.6438 122.605 72.0247 122.655L71.6987 122.665C70.1847 122.711 68.7316 122.755 67.3322 122.839C66.5395 122.886 61.7092 122.995 57.047 122.771C54.7234 122.66 52.3455 122.462 50.5028 122.109C49.5989 121.936 48.6905 121.702 47.9543 121.356C47.406 121.098 46.0392 120.356 45.9451 118.757C45.8406 116.982 46.5232 115.35 47.2152 114.091C47.7445 113.129 48.4056 112.176 48.9261 111.426C49.0818 111.201 49.225 110.995 49.3483 110.812C54.2132 103.59 59.942 96.6252 65.7834 90.2396C71.4219 84.0759 76.8945 77.8026 82.2812 71.4053C82.8343 70.7484 83.4648 70.0573 84.0992 69.3744C83.2391 67.9401 82.7489 66.3732 82.4118 64.9117C82.3768 64.7598 82.3431 64.6077 82.3107 64.4557C80.9329 61.9384 79.5361 59.4262 78.1008 56.9407C71.6052 48.2125 64.9822 40.0158 56.182 33.7045C55.7762 33.4135 55.3753 33.124 54.978 32.8371C53.0235 31.4259 51.1566 30.0778 49.2356 28.927C48.5271 28.9479 47.7883 28.9689 46.9807 28.9689C38.4242 28.9689 29.6824 32.534 21.7762 36.6291C15.4619 39.8996 11.7329 46.5176 8.55972 53.4513C6.49648 57.9598 5.41105 62.2924 4.84006 66.7502C4.97309 68.8788 5.27349 70.997 5.58771 73.2126C5.62 73.4403 5.65243 73.669 5.68485 73.8989C6.06916 76.6241 6.44688 79.4907 6.44688 82.452C6.44688 94.167 7.51622 106.728 10.0678 118.082C11.3066 123.594 12.9964 128.917 14.9594 134.186C17.8413 139.849 20.7315 145.492 23.7711 151.044C27.2802 157.453 31.4034 163.475 35.7087 169.471C36.9057 171.138 38.12 172.808 39.3388 174.483C42.4801 178.802 45.6513 183.161 48.6324 187.628C49.6877 189.209 50.7452 190.79 51.8032 192.371C54.5319 196.449 57.2637 200.531 59.9673 204.643C60.1307 204.892 60.311 205.16 60.5031 205.442ZM4.7876 51.616C7.95013 44.7176 12.1668 36.8865 19.8454 32.9093C24.9558 30.2623 30.663 27.6893 36.6176 26.1696C36.5035 26.1707 36.3897 26.1713 36.2763 26.1713C28.6897 26.1713 20.4379 29.0673 14.2798 33.624C14.0507 33.7935 13.8257 33.9593 13.6048 34.1222C10.676 36.2807 8.46037 37.9136 6.77035 40.7273C5.11072 43.4903 4.99528 46.414 4.84463 50.2296C4.82924 50.6195 4.81348 51.0187 4.79566 51.428C4.79293 51.4906 4.79025 51.5533 4.7876 51.616ZM53.0579 112.812C52.9811 112.925 52.9046 113.038 52.8283 113.151C52.6437 113.425 52.4593 113.691 52.2772 113.954C51.7826 114.667 51.3057 115.355 50.8916 116.108C50.5455 116.738 50.3247 117.278 50.2141 117.738C50.4859 117.82 50.8427 117.908 51.2927 117.994C52.8365 118.29 54.9754 118.477 57.2479 118.586C61.7778 118.803 66.4566 118.694 67.0822 118.656C68.5453 118.569 70.0572 118.523 71.5565 118.477L71.896 118.467C72.7175 118.442 73.5361 118.415 74.3513 118.382C72.3323 116.813 69.7778 115.648 66.9654 114.844C63.5237 113.86 59.8294 113.455 56.565 113.455C55.5915 113.455 54.7171 113.382 53.9883 113.181C53.7101 113.105 53.3829 112.99 53.0579 112.812ZM49.6028 117.488C49.6056 117.488 49.6292 117.5 49.6652 117.527C49.6178 117.502 49.5999 117.489 49.6028 117.488ZM71.7885 180.659C72.1417 180.832 72.5032 181.017 72.8624 181.21C72.9634 180.864 73.0664 180.49 73.1586 180.116C73.1027 180.137 73.0462 180.159 72.989 180.181C72.5754 180.341 72.1764 180.502 71.7885 180.659Z" fill="black"/>
</svg>
