<svg width="900" height="600" viewBox="0 0 900 600" fill="none" xmlns="http://www.w3.org/2000/svg">
<path fill-rule="evenodd" clip-rule="evenodd" d="M425.169 545.931C425.497 546.216 425.894 546.716 425.984 547.446C426.127 548.604 425.316 549.66 424.172 549.805C423.57 549.881 422.995 549.689 422.566 549.321C422.532 549.316 422.494 549.311 422.453 549.306C421.898 549.237 421.087 549.216 420.175 549.229C419.283 549.242 418.375 549.286 417.655 549.327C417.435 549.34 417.207 549.354 416.997 549.367C416.617 549.391 416.296 549.412 416.184 549.412C405.154 549.412 394.1 549.461 383.082 549.852C390.897 550.638 398.714 551.597 406.455 552.882C409.374 553.367 412.089 554.118 414.833 555.207C415.206 555.355 415.581 555.518 415.878 555.7L415.879 555.7C415.984 555.765 416.324 555.972 416.6 556.344C416.748 556.543 417.022 556.982 417.035 557.61C417.049 558.336 416.711 558.9 416.346 559.24C416.034 559.53 415.712 559.656 415.559 559.708C415.382 559.768 415.228 559.797 415.126 559.812C414.925 559.842 414.738 559.846 414.609 559.845C414.342 559.844 414.046 559.819 413.781 559.791C412.96 559.704 411.756 559.501 411.253 559.416C411.138 559.396 411.059 559.383 411.031 559.379C409.274 559.12 407.526 558.773 405.847 558.44C405.099 558.291 404.365 558.145 403.65 558.012C401.276 557.567 398.984 557.223 396.609 557.193L396.076 557.187C378.061 556.958 359.989 556.729 342.146 558.098C327.973 559.184 314 561.474 299.933 563.78C293.77 564.79 287.588 565.803 281.364 566.72C281.349 566.723 281.325 566.728 281.292 566.735C281.206 566.754 281.085 566.779 280.941 566.807C280.659 566.862 280.266 566.93 279.851 566.969C279.474 567.004 278.913 567.032 278.363 566.921C277.948 566.837 276.547 566.449 276.259 564.89C276.117 564.122 276.333 563.367 276.828 562.81C277.219 562.371 277.677 562.177 277.849 562.107C281.809 560.503 286.007 559.66 289.945 558.869C290.231 558.812 290.516 558.754 290.799 558.697C293.997 558.051 297.209 557.497 300.394 556.955C300.714 556.901 301.033 556.846 301.353 556.792C304.221 556.305 307.065 555.822 309.897 555.28C313.075 554.672 316.267 554.036 319.47 553.398C322.967 552.701 326.477 552.002 329.998 551.333C324.752 551.365 319.509 551.474 314.282 551.64C297.484 552.175 280.31 553.712 263.902 557.15C263.474 557.239 263.099 557.309 262.746 557.375C262.215 557.474 261.732 557.564 261.189 557.699C260.367 557.904 259.734 558.146 259.244 558.477C258.285 559.124 256.99 558.862 256.351 557.891C255.711 556.92 255.971 555.608 256.929 554.961C257.995 554.242 259.158 553.853 260.193 553.596C260.825 553.439 261.556 553.3 262.189 553.181C262.513 553.12 262.811 553.063 263.057 553.012C279.775 549.509 297.204 547.957 314.15 547.417C327.5 546.992 340.997 546.937 354.419 547.593C374.944 545.353 395.711 545.186 416.184 545.186C416.16 545.186 416.172 545.185 416.258 545.18C416.308 545.177 416.383 545.173 416.49 545.166L416.539 545.162C416.768 545.148 417.07 545.129 417.418 545.108C418.164 545.065 419.139 545.018 420.116 545.004C421.072 544.99 422.114 545.007 422.96 545.112C423.365 545.162 423.859 545.247 424.308 545.422C424.532 545.509 424.859 545.661 425.169 545.931ZM354.543 551.83C352.363 552.07 350.186 552.334 348.014 552.625C344.517 553.092 341.032 553.643 337.552 554.248C338.977 554.115 340.404 553.994 341.831 553.884C350.83 553.194 359.88 552.906 368.92 552.819C367.498 552.703 366.077 552.589 364.656 552.477C361.294 552.212 357.922 551.998 354.543 551.83Z" fill="#FB0153"/>
</svg>
