<svg width="320" height="250" viewBox="0 0 320 250" fill="none" xmlns="http://www.w3.org/2000/svg">
<path fill-rule="evenodd" clip-rule="evenodd" d="M165.58 132.258C151.425 133.028 137.531 134.298 124.346 136.276C116.689 137.425 109.437 138.688 102.318 139.928C86.7383 142.641 71.7972 145.243 54.6571 146.291C53.5751 146.357 52.6407 145.476 52.5702 144.323C52.4997 143.169 53.3196 142.181 54.4017 142.115C71.3343 141.079 85.9533 138.532 101.426 135.837C108.586 134.589 115.929 133.31 123.769 132.134C165.105 125.932 213.216 126.636 254.427 127.933C256.98 128.013 259.665 128.01 262.401 128.007C267.406 128.001 272.578 127.995 277.401 128.5C277.848 128.547 278.568 128.765 278.962 128.889C279.205 128.965 279.437 129.042 279.611 129.103C279.692 129.132 279.787 129.166 279.869 129.2L279.872 129.201C279.897 129.211 280.005 129.255 280.121 129.319C280.156 129.339 280.23 129.382 280.318 129.445L280.322 129.448C280.368 129.481 280.638 129.672 280.858 130.024C280.98 130.22 281.23 130.691 281.185 131.345C281.134 132.097 280.733 132.607 280.385 132.875C280.086 133.106 279.801 133.186 279.681 133.216C279.537 133.251 279.419 133.262 279.352 133.266C277.143 133.401 273.402 133.109 269.875 132.812C269.438 132.775 269.003 132.738 268.573 132.701C265.632 132.45 262.925 132.219 261.191 132.195C260.942 132.196 260.693 132.196 260.444 132.195C204.073 132.466 132.571 135.924 88.7083 151.06C87.6791 151.415 86.568 150.812 86.2267 149.713C85.8853 148.613 86.4429 147.434 87.4721 147.079C108.778 139.727 136.398 135.107 165.58 132.258Z" fill="#45BCFF"/>
</svg>
