<svg width="450" height="300" viewBox="0 0 450 300" fill="none" xmlns="http://www.w3.org/2000/svg">
<path fill-rule="evenodd" clip-rule="evenodd" d="M224.045 169.801C208.958 170.628 194.148 171.955 180.089 173.986C171.925 175.166 164.192 176.458 156.601 177.727C139.988 180.503 124.055 183.166 105.786 184.283C104.633 184.354 103.641 183.476 103.57 182.323C103.5 181.169 104.377 180.177 105.531 180.107C123.579 179.003 139.168 176.397 155.666 173.638C163.302 172.362 171.132 171.053 179.49 169.845C223.565 163.476 274.831 163.987 318.741 165.119C321.461 165.189 324.323 165.175 327.238 165.161C332.572 165.135 338.083 165.108 343.221 165.594C343.697 165.639 344.463 165.854 344.882 165.976C345.141 166.051 345.388 166.127 345.573 166.188C345.66 166.216 345.76 166.25 345.848 166.284L345.851 166.285C345.878 166.295 345.992 166.338 346.115 166.402C346.153 166.422 346.232 166.464 346.325 166.527L346.33 166.53C346.378 166.563 346.665 166.753 346.898 167.105C347.028 167.3 347.292 167.77 347.242 168.424C347.184 169.176 346.755 169.689 346.383 169.958C346.063 170.19 345.759 170.272 345.631 170.301C345.478 170.337 345.352 170.348 345.281 170.353C342.926 170.497 338.941 170.22 335.183 169.937C334.717 169.901 334.254 169.866 333.797 169.831C330.664 169.592 327.779 169.372 325.932 169.355C325.667 169.356 325.401 169.357 325.135 169.358C265.064 169.855 188.855 173.601 142.053 188.916C140.955 189.276 139.773 188.677 139.414 187.579C139.055 186.481 139.653 185.299 140.752 184.94C163.486 177.5 192.937 172.768 224.045 169.801Z" fill="#45BCFF"/>
</svg>
