<svg width="720" height="600" viewBox="0 0 720 600" fill="none" xmlns="http://www.w3.org/2000/svg">
<path fill-rule="evenodd" clip-rule="evenodd" d="M342.169 545.931C342.497 546.216 342.894 546.716 342.984 547.446C343.127 548.604 342.316 549.66 341.172 549.805C340.57 549.881 339.995 549.689 339.566 549.321C339.532 549.316 339.494 549.311 339.453 549.306C338.898 549.237 338.087 549.216 337.175 549.229C336.283 549.242 335.375 549.286 334.655 549.327C334.435 549.34 334.207 549.354 333.997 549.367C333.617 549.391 333.296 549.412 333.184 549.412C322.154 549.412 311.1 549.461 300.082 549.852C307.897 550.638 315.714 551.597 323.455 552.882C326.374 553.367 329.089 554.118 331.833 555.207C332.206 555.355 332.581 555.518 332.878 555.7L332.879 555.7C332.984 555.765 333.324 555.972 333.6 556.344C333.748 556.543 334.022 556.982 334.035 557.61C334.049 558.336 333.711 558.9 333.346 559.24C333.034 559.53 332.712 559.656 332.559 559.708C332.382 559.768 332.228 559.797 332.126 559.812C331.925 559.842 331.738 559.846 331.609 559.845C331.342 559.844 331.046 559.819 330.781 559.791C329.96 559.704 328.756 559.501 328.253 559.416C328.138 559.396 328.059 559.383 328.031 559.379C326.274 559.12 324.526 558.773 322.847 558.44C322.099 558.291 321.365 558.145 320.65 558.012C318.276 557.567 315.984 557.223 313.609 557.193L313.076 557.187C295.061 556.958 276.989 556.729 259.146 558.098C244.973 559.184 231 561.474 216.933 563.78C210.77 564.79 204.588 565.803 198.364 566.72C198.349 566.723 198.325 566.728 198.292 566.735C198.206 566.754 198.085 566.779 197.941 566.807C197.659 566.862 197.266 566.93 196.851 566.969C196.474 567.004 195.913 567.032 195.363 566.921C194.948 566.837 193.547 566.449 193.259 564.89C193.117 564.122 193.333 563.367 193.828 562.81C194.219 562.371 194.677 562.177 194.849 562.107C198.809 560.503 203.007 559.66 206.945 558.869C207.231 558.812 207.516 558.754 207.799 558.697C210.997 558.051 214.209 557.497 217.394 556.955C217.714 556.901 218.033 556.846 218.353 556.792C221.221 556.305 224.065 555.822 226.897 555.28C230.075 554.672 233.267 554.036 236.47 553.398C239.967 552.701 243.477 552.002 246.998 551.333C241.752 551.365 236.509 551.474 231.282 551.64C214.484 552.175 197.31 553.712 180.902 557.15C180.474 557.239 180.099 557.309 179.746 557.375C179.215 557.474 178.732 557.564 178.189 557.699C177.367 557.904 176.734 558.146 176.244 558.477C175.285 559.124 173.99 558.862 173.351 557.891C172.711 556.92 172.971 555.608 173.929 554.961C174.995 554.242 176.158 553.853 177.193 553.596C177.825 553.439 178.556 553.3 179.189 553.181C179.513 553.12 179.811 553.063 180.057 553.012C196.775 549.509 214.204 547.957 231.15 547.417C244.5 546.992 257.997 546.937 271.419 547.593C291.944 545.353 312.711 545.186 333.184 545.186C333.16 545.186 333.172 545.185 333.258 545.18C333.308 545.177 333.383 545.173 333.49 545.166L333.539 545.162C333.768 545.148 334.07 545.129 334.418 545.108C335.164 545.065 336.139 545.018 337.116 545.004C338.072 544.99 339.114 545.007 339.96 545.112C340.365 545.162 340.859 545.247 341.308 545.422C341.532 545.509 341.859 545.661 342.169 545.931ZM271.543 551.83C269.363 552.07 267.186 552.334 265.014 552.625C261.517 553.092 258.032 553.643 254.552 554.248C255.977 554.115 257.404 553.994 258.831 553.884C267.83 553.194 276.88 552.906 285.92 552.819C284.498 552.703 283.077 552.589 281.656 552.477C278.294 552.212 274.922 551.998 271.543 551.83Z" fill="#FB0153"/>
</svg>
