<svg width="360" height="300" viewBox="0 0 360 300" fill="none" xmlns="http://www.w3.org/2000/svg">
<path fill-rule="evenodd" clip-rule="evenodd" d="M165.58 167.258C151.425 168.028 137.531 169.298 124.346 171.276C116.689 172.425 109.437 173.688 102.318 174.928C86.7383 177.641 71.7972 180.243 54.6571 181.291C53.5751 181.357 52.6407 180.476 52.5702 179.323C52.4997 178.169 53.3196 177.181 54.4017 177.115C71.3343 176.079 85.9533 173.532 101.426 170.837C108.586 169.589 115.929 168.31 123.769 167.134C165.105 160.932 213.216 161.636 254.427 162.933C256.98 163.013 259.665 163.01 262.401 163.007C267.406 163.001 272.578 162.995 277.401 163.5C277.848 163.547 278.568 163.765 278.962 163.889C279.205 163.965 279.437 164.042 279.611 164.103C279.692 164.132 279.787 164.166 279.869 164.2L279.872 164.201C279.897 164.211 280.005 164.255 280.121 164.319C280.156 164.339 280.23 164.382 280.318 164.445L280.322 164.448C280.368 164.481 280.638 164.672 280.858 165.024C280.98 165.22 281.23 165.691 281.185 166.345C281.134 167.097 280.733 167.607 280.385 167.875C280.086 168.106 279.801 168.186 279.681 168.216C279.537 168.251 279.419 168.262 279.352 168.266C277.143 168.401 273.402 168.109 269.875 167.812C269.438 167.775 269.003 167.738 268.573 167.701C265.632 167.45 262.925 167.219 261.191 167.195C260.942 167.196 260.693 167.196 260.444 167.195C204.073 167.466 132.571 170.924 88.7083 186.06C87.6791 186.415 86.568 185.812 86.2267 184.713C85.8853 183.613 86.4429 182.434 87.4721 182.079C108.778 174.727 136.398 170.107 165.58 167.258Z" fill="#45BCFF"/>
</svg>
