<svg width="720" height="311" viewBox="0 0 720 311" fill="none" xmlns="http://www.w3.org/2000/svg">
<rect width="720" height="310" transform="translate(0 0.081543)" fill="white"/>
<path fill-rule="evenodd" clip-rule="evenodd" d="M83.4006 109.265C85.9064 105.209 90.0967 101.651 95.6634 102.027C98.3832 102.211 100.966 102.932 103.249 103.57C103.303 103.585 103.358 103.6 103.412 103.616C105.828 104.29 107.923 104.86 110.037 104.982C111.991 105.094 113.694 106.056 114.822 106.693C114.866 106.718 114.908 106.742 114.95 106.765C116.308 107.53 117.071 107.925 117.797 108.004C119.214 108.159 120.235 109.41 120.078 110.799C119.92 112.187 118.644 113.188 117.226 113.034C115.336 112.828 113.684 111.892 112.566 111.26C112.501 111.223 112.438 111.187 112.376 111.152C111.028 110.393 110.336 110.068 109.733 110.033C106.986 109.875 104.373 109.145 102.059 108.5L101.998 108.482C99.5767 107.807 97.4607 107.221 95.3081 107.076C92.4688 106.884 89.8183 108.649 87.818 111.886C85.8271 115.108 84.9134 119.174 85.299 122.196C85.2988 122.195 85.2987 122.194 85.2988 122.194C85.2992 122.194 85.3284 122.349 85.5711 122.671C85.8244 123.007 86.2286 123.418 86.8115 123.889C87.9822 124.837 89.6079 125.823 91.4356 126.793C93.2459 127.754 95.1492 128.646 96.8396 129.429C96.9914 129.5 97.1427 129.57 97.2932 129.639C98.7441 130.311 100.113 130.944 100.953 131.43C101.842 131.944 102.897 132.518 104.046 133.144C106.694 134.585 109.848 136.302 112.658 138.201C116.687 140.924 120.781 144.492 122.254 149.144C124.238 155.408 122.059 160.776 118.151 164.523C114.335 168.182 108.834 170.375 103.652 170.766C94.0608 171.489 85.2864 170.812 77.033 164.746C75.8922 163.908 75.6609 162.322 76.5166 161.204C77.3722 160.086 78.9906 159.859 80.1314 160.698C86.9051 165.676 94.1534 166.407 103.256 165.721C107.371 165.41 111.688 163.64 114.54 160.906C117.3 158.259 118.639 154.803 117.322 150.644C116.395 147.715 113.585 144.974 109.726 142.367C107.121 140.606 104.389 139.121 101.841 137.736C100.616 137.07 99.4333 136.427 98.3281 135.788C97.706 135.428 96.5553 134.895 94.9616 134.157C94.8536 134.107 94.7437 134.056 94.6317 134.004C92.942 133.221 90.9235 132.277 88.9757 131.243C87.0453 130.218 85.0769 129.049 83.5228 127.791C82.0967 126.637 80.4476 124.962 80.1748 122.824C79.6276 118.534 80.8853 113.336 83.4006 109.265Z" fill="black"/>
<path fill-rule="evenodd" clip-rule="evenodd" d="M91.9459 102C93.5059 102 94.7706 103.14 94.7706 104.547V185.885C94.7706 186.2 94.8087 186.605 94.8651 187.203C94.8703 187.259 94.8757 187.316 94.8812 187.375C94.9403 188.003 95.0094 188.787 94.9989 189.565C94.9888 190.325 94.9039 191.262 94.5454 192.16C94.1675 193.106 93.4307 194.126 92.0884 194.731C90.6931 195.36 88.9965 194.85 88.2988 193.592C87.6532 192.428 88.0893 191.031 89.2636 190.33C89.3043 190.177 89.3446 189.913 89.3501 189.504C89.3569 188.999 89.3117 188.439 89.2521 187.804C89.2461 187.74 89.2398 187.674 89.2334 187.607C89.1823 187.071 89.1213 186.433 89.1213 185.885V104.547C89.1213 103.14 90.386 102 91.9459 102Z" fill="black"/>
<path fill-rule="evenodd" clip-rule="evenodd" d="M103.961 88C105.483 88 106.718 89.117 106.718 90.4949V128.551C106.718 132.277 106.668 136.01 106.618 139.74C106.403 155.751 106.189 171.716 109.934 186.963C110.264 188.308 109.327 189.641 107.84 189.94C106.354 190.239 104.881 189.391 104.551 188.046C100.654 172.176 100.883 155.489 101.103 139.442C101.154 135.773 101.203 132.136 101.203 128.551V90.4949C101.203 89.117 102.438 88 103.961 88Z" fill="black"/>
<path fill-rule="evenodd" clip-rule="evenodd" d="M217.71 114.692C218.529 116.295 218.855 118.234 218.855 120.467C218.855 121.852 217.702 122.975 216.28 122.975C214.859 122.975 213.706 121.852 213.706 120.467C213.706 118.653 213.431 117.573 213.1 116.926C212.808 116.354 212.417 116.002 211.812 115.733C211.124 115.426 210.133 115.219 208.676 115.114C207.308 115.015 205.738 115.015 203.861 115.015C203.746 115.015 203.63 115.015 203.513 115.015C200.555 115.015 196.89 116.646 194.222 119.322C191.574 121.979 190.355 125.18 191.235 128.18C191.258 128.258 191.428 128.611 192.175 129.169C192.88 129.696 193.852 130.223 194.997 130.734C196.589 131.445 198.144 131.978 199.502 132.444C200.186 132.678 200.82 132.896 201.385 133.11C206.412 135.021 210.735 137.961 214.761 140.902C219.787 144.574 225.384 150.921 224.979 158.406C224.73 163.026 222.824 168.024 220.036 172.295C217.253 176.559 213.413 180.369 209.035 182.376C205.227 184.122 199.548 185.218 194.224 184.963C189.021 184.715 183.228 183.112 180.367 178.468C179.636 177.28 180.031 175.74 181.25 175.027C182.469 174.315 184.051 174.7 184.782 175.887C186.278 178.316 189.78 179.73 194.476 179.954C199.052 180.173 203.877 179.197 206.843 177.838C210.08 176.354 213.254 173.339 215.691 169.604C218.124 165.877 219.645 161.704 219.838 158.142C220.104 153.218 216.271 148.274 211.672 144.914C207.698 142.011 203.846 139.429 199.513 137.782C199.2 137.663 198.732 137.502 198.165 137.307C196.726 136.811 194.65 136.096 192.852 135.294C191.546 134.711 190.182 134.002 189.04 133.148C187.939 132.325 186.752 131.152 186.284 129.558C184.73 124.256 187.091 119.277 190.529 115.828C193.948 112.399 198.878 110 203.513 110C203.651 110 203.79 110 203.928 110C205.732 109.999 207.489 109.999 209.058 110.112C210.74 110.234 212.444 110.5 213.952 111.171C215.544 111.88 216.852 113.012 217.71 114.692Z" fill="black"/>
<path fill-rule="evenodd" clip-rule="evenodd" d="M193.514 84C194.902 84 196.028 85.1379 196.028 86.5416C196.028 105.182 196.884 123.608 198.073 142.233C198.461 148.319 199.203 154.469 199.999 160.689C200.116 161.601 200.234 162.515 200.352 163.43C201.036 168.735 201.728 174.09 202.223 179.413L202.238 179.568C202.841 186.047 203.262 190.572 206.497 194.933C207.33 196.056 207.105 197.649 205.994 198.492C204.884 199.334 203.308 199.106 202.475 197.983C198.378 192.461 197.84 186.631 197.279 180.56C197.259 180.337 197.238 180.113 197.217 179.89C196.731 174.665 196.053 169.412 195.368 164.104C195.25 163.185 195.131 162.264 195.013 161.341C194.216 155.115 193.455 148.823 193.056 142.56C191.864 123.882 191 105.335 191 86.5416C191 85.1379 192.126 84 193.514 84Z" fill="black"/>
<path fill-rule="evenodd" clip-rule="evenodd" d="M200.63 88C202.083 88 203.26 89.128 203.26 90.5194C203.26 107.955 203.535 124.251 207.877 140.888C208.619 143.732 209.347 146.565 210.073 149.391C212.141 157.436 214.191 165.414 216.498 173.368C217.209 175.82 217.596 178.243 217.95 180.458C218.057 181.133 218.162 181.789 218.272 182.42C218.756 185.202 219.367 187.757 220.722 190.353C221.371 191.598 220.845 193.111 219.546 193.733C218.246 194.356 216.667 193.851 216.017 192.607C214.313 189.343 213.599 186.207 213.084 183.249C212.95 182.482 212.832 181.741 212.715 181.015C212.371 178.866 212.049 176.852 211.429 174.717C209.1 166.684 207.023 158.601 204.95 150.535C204.228 147.724 203.506 144.915 202.774 142.111C198.257 124.803 198 107.939 198 90.5194C198 89.128 199.177 88 200.63 88Z" fill="black"/>
<path fill-rule="evenodd" clip-rule="evenodd" d="M329.207 103.471C331.62 104.841 333.241 107.242 333.241 110.575C333.241 111.996 332.116 113.147 330.728 113.147C329.341 113.147 328.216 111.996 328.216 110.575C328.216 109.225 327.685 108.49 326.771 107.971C325.689 107.356 323.979 107.04 321.886 107.177C319.836 107.31 317.686 107.863 315.909 108.684C314.058 109.539 312.968 110.518 312.565 111.261C311.023 114.104 308.934 117.992 307.575 121.971C306.177 126.067 305.787 129.606 306.857 132.071C306.954 132.296 307.051 132.519 307.146 132.74C307.856 134.388 308.516 135.918 309.357 137.27C310.287 138.767 311.292 139.792 312.521 140.331C314.043 140.999 315.589 141.621 317.176 142.26C317.436 142.364 317.697 142.469 317.959 142.575C319.804 143.319 321.695 144.093 323.549 144.96C327.26 146.696 330.941 148.855 334.094 152.084C335.983 154.018 337.28 157.32 337.772 160.391C338.249 163.376 338.132 167.232 335.897 169.775C333.57 172.423 330.422 173.872 327.878 175.044C327.703 175.124 327.531 175.204 327.362 175.282C326.355 175.749 325.225 176.306 324.019 176.9C321.712 178.037 319.129 179.31 316.602 180.347C312.692 181.952 308.336 183.262 304.138 182.955C301.913 182.792 300.144 181.974 298.711 181.248C298.473 181.127 298.248 181.011 298.031 180.9C296.865 180.3 295.967 179.838 294.903 179.566C293.557 179.222 292.739 177.825 293.076 176.446C293.412 175.068 294.776 174.23 296.122 174.575C297.774 174.998 299.228 175.751 300.384 176.35C300.577 176.451 300.763 176.547 300.939 176.636C302.253 177.302 303.292 177.735 304.496 177.823C307.534 178.045 311.025 177.093 314.733 175.571C317.131 174.587 319.383 173.475 321.574 172.392C322.828 171.773 324.062 171.164 325.291 170.594C325.365 170.56 325.439 170.525 325.513 170.491C328.321 169.191 330.565 168.151 332.163 166.333C332.816 165.59 333.224 163.785 332.814 161.223C332.418 158.748 331.415 156.617 330.542 155.723C327.982 153.101 324.9 151.249 321.461 149.641C319.74 148.836 317.959 148.104 316.119 147.362C315.864 147.26 315.607 147.156 315.349 147.053C313.766 146.416 312.14 145.762 310.541 145.06C308.039 143.962 306.347 142.01 305.118 140.033C304.057 138.326 303.234 136.411 302.542 134.802C302.448 134.582 302.356 134.368 302.266 134.161C300.371 129.796 301.352 124.609 302.833 120.273C304.352 115.821 306.649 111.572 308.173 108.762C309.341 106.609 311.581 105.039 313.842 103.994C316.178 102.915 318.921 102.214 321.567 102.042C324.172 101.872 326.963 102.197 329.207 103.471Z" fill="black"/>
<path fill-rule="evenodd" clip-rule="evenodd" d="M310.507 94C311.849 94 312.936 95.1238 312.936 96.5102C312.936 100.856 312.916 105.195 312.897 109.527C312.817 127.208 312.737 144.782 313.993 162.304C314.092 163.687 313.088 164.891 311.751 164.993C310.413 165.095 309.248 164.058 309.149 162.675C307.878 144.937 307.959 127.114 308.039 109.415C308.059 105.105 308.079 100.802 308.079 96.5102C308.079 95.1238 309.166 94 310.507 94Z" fill="black"/>
<path fill-rule="evenodd" clip-rule="evenodd" d="M311 160C312.657 160 314 161.123 314 162.509V184.491C314 185.877 312.657 187 311 187C309.343 187 308 185.877 308 184.491V162.509C308 161.123 309.343 160 311 160Z" fill="black"/>
<path fill-rule="evenodd" clip-rule="evenodd" d="M320.256 71C321.653 71 322.785 72.1337 322.785 73.5323C322.785 82.8835 322.839 92.2552 322.892 101.637C323.006 121.547 323.12 141.502 322.723 161.406C322.646 165.268 322.145 168.504 320.617 172.138C320.499 172.418 320.316 173.192 320.192 174.44C320.075 175.613 320.03 176.987 320.076 178.319C320.123 179.667 320.259 180.871 320.466 181.736C320.549 182.086 320.63 182.32 320.691 182.46C321.632 183.184 321.961 184.497 321.41 185.6C320.785 186.851 319.266 187.358 318.017 186.732C317.069 186.258 316.533 185.445 316.238 184.874C315.92 184.258 315.703 183.57 315.546 182.915C315.231 181.595 315.074 180.022 315.021 178.494C314.967 176.949 315.018 175.348 315.158 173.938C315.291 172.605 315.526 171.192 315.955 170.172C317.174 167.275 317.598 164.706 317.666 161.305C318.062 141.466 317.948 121.623 317.834 101.749C317.78 92.3514 317.727 82.9465 317.727 73.5323C317.727 72.1337 318.859 71 320.256 71ZM320.76 182.596C320.76 182.597 320.755 182.59 320.745 182.573C320.755 182.588 320.76 182.596 320.76 182.596Z" fill="black"/>
<path fill-rule="evenodd" clip-rule="evenodd" d="M436.951 119.391C438.312 120.929 439 122.922 439 125.289C439 126.655 437.863 127.763 436.462 127.763C435.06 127.763 433.923 126.655 433.923 125.289C433.923 123.892 433.539 123.112 433.107 122.624C432.644 122.101 431.9 121.663 430.77 121.363C428.414 120.738 425.251 120.923 422.285 121.244C422.069 121.268 421.635 121.41 421 122.005C420.372 122.594 419.692 123.494 419.013 124.702C417.655 127.114 416.497 130.396 415.731 133.821C414.966 137.247 414.633 140.637 414.817 143.24C414.909 144.549 415.124 145.533 415.396 146.19C415.614 146.716 415.794 146.86 415.822 146.881C418.731 148.146 421.599 150.672 424.027 153.107C425.573 154.658 427.137 156.382 428.481 157.864C429.229 158.69 429.91 159.44 430.481 160.043C436.902 166.823 435.605 176.207 431.894 182.838C429.558 187.012 425.999 188.987 422.218 189.881C418.951 190.654 415.376 190.643 412.292 190.633C411.961 190.632 411.635 190.631 411.316 190.631C410.642 190.631 409.787 190.697 408.708 190.779C408.503 190.795 408.289 190.811 408.067 190.828C406.75 190.926 405.221 191.026 403.718 190.994C402.235 190.961 400.61 190.799 399.143 190.283C397.64 189.755 396.139 188.793 395.269 187.096C394.642 185.873 395.15 184.387 396.404 183.776C397.658 183.165 399.183 183.66 399.81 184.883C399.928 185.114 400.18 185.388 400.864 185.628C401.585 185.881 402.583 186.019 403.832 186.046C405.061 186.073 406.373 185.992 407.678 185.894C407.869 185.88 408.062 185.865 408.257 185.85C409.322 185.768 410.423 185.683 411.316 185.683C411.627 185.683 411.934 185.683 412.24 185.684C415.442 185.689 418.388 185.695 421.021 185.072C423.744 184.428 425.935 183.152 427.437 180.469C430.611 174.798 431.087 167.979 426.75 163.399C426.023 162.632 425.278 161.808 424.5 160.948C423.235 159.551 421.884 158.059 420.387 156.556C417.991 154.154 415.697 152.242 413.745 151.396C412.154 150.707 411.227 149.341 410.689 148.043C410.143 146.726 409.865 145.173 409.752 143.58C409.526 140.377 409.937 136.499 410.771 132.768C411.605 129.035 412.902 125.271 414.561 122.322C415.39 120.849 416.359 119.49 417.482 118.438C418.599 117.391 420.02 116.511 421.724 116.326C424.636 116.011 428.701 115.685 432.104 116.589C433.854 117.053 435.622 117.89 436.951 119.391Z" fill="black"/>
<path fill-rule="evenodd" clip-rule="evenodd" d="M411 93C412.657 93 414 94.1348 414 95.5345V195.465C414 196.865 412.657 198 411 198C409.343 198 408 196.865 408 195.465V95.5345C408 94.1348 409.343 93 411 93Z" fill="black"/>
<path fill-rule="evenodd" clip-rule="evenodd" d="M425.284 102C426.784 102 428 103.143 428 104.553V164.699C428 172.041 427.086 179.347 426.197 186.453L426.196 186.458C425.301 193.615 424.431 200.566 424.431 207.447C424.431 208.857 423.215 210 421.716 210C420.216 210 419 208.857 419 207.447C419 200.266 419.901 193.065 420.784 186.012L420.803 185.857C421.698 178.702 422.569 171.692 422.569 164.699V104.553C422.569 103.143 423.785 102 425.284 102Z" fill="black"/>
<path fill-rule="evenodd" clip-rule="evenodd" d="M526.023 119.187C530.696 116.225 534.717 116 539.518 116C541.383 116 543.016 116.491 544.295 117.563C545.546 118.611 546.192 119.991 546.538 121.276C546.88 122.549 546.972 123.893 546.995 125.074C547.008 125.766 546.995 126.561 546.983 127.259C546.977 127.669 546.971 128.045 546.971 128.348C546.971 129.728 545.848 130.846 544.462 130.846C543.077 130.846 541.954 129.728 541.954 128.348C541.954 127.853 541.962 127.413 541.97 126.986C541.981 126.391 541.991 125.822 541.979 125.168C541.959 124.127 541.878 123.259 541.692 122.569C541.51 121.892 541.274 121.56 541.066 121.386C540.887 121.236 540.485 120.996 539.518 120.996C534.944 120.996 532.137 121.235 528.716 123.403C526.692 124.685 525.8 125.801 525.191 127.089C524.647 128.241 524.315 129.518 523.828 131.389C523.677 131.969 523.512 132.606 523.32 133.314C523.086 134.182 522.623 136.614 522.46 139.01C522.378 140.206 522.38 141.281 522.485 142.094C522.538 142.5 522.607 142.764 522.664 142.915C522.664 142.916 522.665 142.918 522.666 142.919C523.688 143.75 524.788 144.178 526.24 144.744C526.613 144.889 527.01 145.044 527.434 145.217C529.47 146.045 531.856 147.243 533.466 150.112C533.842 150.783 534.262 151.378 534.727 151.999C534.834 152.142 534.949 152.293 535.069 152.451C535.433 152.931 535.841 153.467 536.198 153.997C537.245 155.548 538.109 157.379 538.179 160.021C538.241 162.384 538.22 164.79 538.2 167.143C538.19 168.293 538.18 169.431 538.18 170.544C538.18 174.8 537.564 179.453 535.432 183.169C533.195 187.071 529.389 189.74 523.674 189.944C518.274 190.136 513.511 189.932 508.137 187.826C507.362 187.523 506.471 187.394 505.275 187.223C504.904 187.169 504.503 187.112 504.067 187.043C502.565 186.807 500.303 186.398 498.735 184.836C497.755 183.86 497.755 182.278 498.735 181.303C499.714 180.327 501.302 180.327 502.282 181.303C502.555 181.575 503.213 181.851 504.847 182.108C505.087 182.145 505.356 182.183 505.645 182.223C506.919 182.402 508.594 182.636 509.973 183.177C514.401 184.912 518.356 185.133 523.495 184.95C527.449 184.81 529.687 183.113 531.076 180.691C532.571 178.085 533.163 174.459 533.163 170.544C533.163 169.336 533.174 168.151 533.184 166.978C533.204 164.681 533.224 162.431 533.164 160.152C533.126 158.698 532.703 157.775 532.034 156.784C531.762 156.38 531.48 156.008 531.144 155.566C531.007 155.386 530.862 155.196 530.705 154.986C530.192 154.301 529.621 153.502 529.087 152.55C528.317 151.178 527.235 150.533 525.537 149.842C525.278 149.736 524.992 149.627 524.686 149.51C523.124 148.912 521.039 148.114 519.266 146.6C518.588 146.021 518.201 145.288 517.969 144.674C517.731 144.044 517.593 143.372 517.51 142.733C517.345 141.458 517.363 140.017 517.455 138.672C517.638 135.983 518.149 133.227 518.476 132.015C518.619 131.485 518.755 130.959 518.89 130.44C519.402 128.458 519.888 126.577 520.653 124.96C521.722 122.699 523.317 120.902 526.023 119.187ZM522.7 142.997C522.7 142.997 522.698 142.994 522.695 142.989C522.698 142.994 522.7 142.997 522.7 142.997Z" fill="black"/>
<path fill-rule="evenodd" clip-rule="evenodd" d="M514.665 106C516.137 106 517.33 107.142 517.33 108.55V153.482C517.33 162.362 518.827 171.498 520.53 180.457C520.74 181.567 520.695 182.937 520.63 184.118C520.602 184.611 520.571 185.087 520.539 185.554C520.487 186.341 520.436 187.106 520.41 187.898C520.371 189.141 520.414 190.118 520.567 190.801C520.623 191.049 520.678 191.192 520.713 191.267C521.892 191.947 522.344 193.392 521.718 194.59C521.06 195.849 519.459 196.36 518.143 195.73C516.313 194.855 515.638 193.12 515.357 191.874C515.061 190.559 515.041 189.071 515.083 187.742C515.111 186.881 515.173 185.944 515.229 185.091C515.259 184.647 515.287 184.225 515.307 183.849C515.376 182.608 515.37 181.81 515.286 181.369C513.578 172.38 512 162.856 512 153.482V108.55C512 107.142 513.193 106 514.665 106ZM520.751 191.335C520.751 191.335 520.748 191.332 520.743 191.324C520.749 191.331 520.751 191.335 520.751 191.335Z" fill="black"/>
<path fill-rule="evenodd" clip-rule="evenodd" d="M529.5 103C530.881 103 532 104.145 532 105.558V197.442C532 198.855 530.881 200 529.5 200C528.119 200 527 198.855 527 197.442V105.558C527 104.145 528.119 103 529.5 103Z" fill="black"/>
<path fill-rule="evenodd" clip-rule="evenodd" d="M638.697 117.792C639.309 120.358 639.683 122.779 639.683 124.236C639.683 125.652 638.579 126.801 637.218 126.801C635.857 126.801 634.754 125.652 634.754 124.236C634.754 123.41 634.496 121.472 633.913 119.026C633.342 116.631 632.512 113.975 631.48 111.731C630.398 109.379 629.291 107.921 628.376 107.364C627.998 107.135 627.731 107.104 627.493 107.145C627.216 107.193 626.701 107.391 625.954 108.124C624.462 109.59 622.553 111.928 620.974 114.45C619.349 117.045 618.301 119.476 618.137 121.183C618.086 121.713 618.019 122.343 617.944 123.051C617.671 125.634 617.288 129.254 617.161 132.829C617.08 135.1 617.109 137.249 617.317 139.01C617.54 140.895 617.92 141.866 618.192 142.211C619.795 144.25 622.031 145.819 624.679 147.344C625.531 147.835 626.466 148.341 627.431 148.864C629.272 149.86 631.221 150.915 632.906 152.034C642.144 158.17 643.454 168.222 643.938 177.526C644.285 184.22 643.214 189.818 639.818 193.791C636.409 197.779 631.139 199.574 624.35 199.827C624.103 199.836 623.74 199.858 623.323 199.884C622.577 199.93 621.659 199.987 620.924 199.997C619.663 200.016 618.097 199.947 616.709 199.427C615.236 198.875 614.33 197.875 613.791 197.279C613.766 197.251 613.741 197.224 613.718 197.198C613.148 196.571 612.963 196.422 612.686 196.326C611.395 195.878 610.697 194.426 611.127 193.082C611.558 191.739 612.953 191.012 614.245 191.46C615.771 191.99 616.695 193.008 617.247 193.617C617.264 193.636 617.282 193.655 617.298 193.673C617.886 194.319 618.079 194.489 618.379 194.601C618.893 194.794 619.716 194.885 620.854 194.869C621.569 194.858 622.141 194.82 622.734 194.781C623.18 194.751 623.637 194.721 624.174 194.701C630.338 194.472 634.008 192.871 636.135 190.382C638.275 187.878 639.333 183.917 639.016 177.803C638.533 168.518 637.228 160.99 630.254 156.358C628.728 155.344 627.156 154.496 625.467 153.585C624.455 153.04 623.402 152.471 622.291 151.831C619.496 150.221 616.588 148.272 614.377 145.459C613.16 143.911 612.665 141.664 612.425 139.637C612.171 137.487 612.15 135.032 612.235 132.64C612.369 128.851 612.782 124.957 613.056 122.382C613.126 121.716 613.188 121.138 613.232 120.673C613.518 117.698 615.115 114.411 616.844 111.649C618.62 108.815 620.774 106.16 622.57 104.395C623.798 103.188 625.169 102.348 626.682 102.086C628.232 101.817 629.656 102.202 630.864 102.937C633.119 104.309 634.757 106.975 635.926 109.516C637.145 112.166 638.073 115.175 638.697 117.792Z" fill="black"/>
<path fill-rule="evenodd" clip-rule="evenodd" d="M618.871 94C620.457 94 621.742 95.1227 621.742 96.5077C621.742 111.328 622.056 126.147 622.371 140.983L622.371 141.024C622.686 155.839 623 170.671 623 185.492C623 186.877 621.715 188 620.129 188C618.543 188 617.258 186.877 617.258 185.492C617.258 170.718 616.944 155.924 616.63 141.094L616.629 141.076C616.315 126.247 616 111.382 616 96.5077C616 95.1227 617.285 94 618.871 94Z" fill="black"/>
<path fill-rule="evenodd" clip-rule="evenodd" d="M630.485 107C631.858 107 632.97 108.125 632.97 109.513C632.97 131.653 633.576 153.718 634.507 175.854C634.56 177.113 634.614 178.374 634.668 179.637C635.022 187.928 635.38 196.283 635.488 204.624C635.495 205.169 635.46 205.954 635.424 206.769C635.414 206.999 635.404 207.232 635.394 207.462C635.348 208.577 635.312 209.792 635.344 210.95C635.377 212.133 635.48 213.123 635.662 213.824C635.739 214.12 635.808 214.284 635.847 214.365C636.911 215.047 637.312 216.446 636.737 217.61C636.123 218.852 634.631 219.355 633.403 218.734C631.776 217.911 631.142 216.21 630.854 215.098C630.53 213.846 630.413 212.41 630.376 211.093C630.338 209.751 630.381 208.391 630.428 207.252C630.441 206.948 630.453 206.667 630.465 206.409C630.499 205.642 630.524 205.075 630.519 204.69C630.411 196.43 630.057 188.158 629.703 179.862C629.649 178.598 629.594 177.333 629.541 176.068C628.608 153.884 628 131.744 628 109.513C628 108.125 629.113 107 630.485 107Z" fill="black"/>
</svg>
