<svg width="900" height="310" viewBox="0 0 900 310" fill="none" xmlns="http://www.w3.org/2000/svg">
<rect width="900" height="310" fill="white"/>
<path fill-rule="evenodd" clip-rule="evenodd" d="M91.4475 105.371C94.6465 100.14 99.9958 95.5501 107.102 96.0353C110.574 96.2724 113.871 97.2026 116.785 98.025C116.855 98.0447 116.925 98.0644 116.994 98.084C120.078 98.9536 122.753 99.6888 125.451 99.8459C127.946 99.9912 130.12 101.232 131.56 102.053C131.616 102.085 131.67 102.116 131.724 102.147C133.457 103.133 134.431 103.643 135.357 103.745C137.167 103.944 138.471 105.558 138.269 107.349C138.068 109.14 136.439 110.431 134.629 110.232C132.216 109.967 130.107 108.76 128.68 107.944C128.597 107.896 128.516 107.85 128.438 107.805C126.716 106.825 125.833 106.407 125.064 106.362C121.557 106.158 118.22 105.217 115.267 104.384L115.189 104.361C112.098 103.49 109.397 102.735 106.649 102.547C103.024 102.3 99.6403 104.576 97.0868 108.752C94.5453 112.908 93.3788 118.152 93.8711 122.05C93.8708 122.049 93.8707 122.048 93.8708 122.048C93.8713 122.048 93.9085 122.247 94.2185 122.663C94.5418 123.097 95.0578 123.626 95.802 124.234C97.2964 125.456 99.3718 126.728 101.705 127.98C104.016 129.219 106.446 130.369 108.604 131.38C108.797 131.47 108.991 131.561 109.183 131.651C111.035 132.517 112.783 133.334 113.855 133.96C114.99 134.624 116.336 135.364 117.804 136.171C121.184 138.031 125.21 140.245 128.797 142.694C133.941 146.206 139.167 150.808 141.048 156.809C143.58 164.888 140.798 171.812 135.81 176.645C130.938 181.365 123.916 184.194 117.3 184.698C105.056 185.631 93.8549 184.757 83.3187 176.933C81.8623 175.852 81.5672 173.806 82.6594 172.364C83.7517 170.922 85.8178 170.63 87.2741 171.712C95.9214 178.133 105.175 179.075 116.794 178.19C122.048 177.79 127.559 175.507 131.2 171.98C134.723 168.566 136.433 164.108 134.752 158.744C133.567 154.966 129.98 151.431 125.054 148.067C121.729 145.796 118.241 143.881 114.989 142.095C113.425 141.235 111.915 140.406 110.504 139.581C109.71 139.117 108.241 138.43 106.206 137.477C106.068 137.413 105.928 137.347 105.785 137.28C103.628 136.27 101.051 135.053 98.5647 133.719C96.1004 132.397 93.5876 130.889 91.6036 129.267C89.783 127.778 87.6777 125.618 87.3296 122.86C86.631 117.327 88.2366 110.622 91.4475 105.371Z" fill="black"/>
<path fill-rule="evenodd" clip-rule="evenodd" d="M102.073 96C104.079 96 105.705 97.4712 105.705 99.286V204.239C105.705 204.645 105.754 205.168 105.827 205.939C105.833 206.011 105.84 206.085 105.847 206.161C105.923 206.972 106.012 207.983 105.999 208.987C105.986 209.968 105.876 211.177 105.416 212.335C104.93 213.556 103.982 214.872 102.257 215.652C100.463 216.464 98.2812 215.806 97.3842 214.183C96.5542 212.681 97.1149 210.879 98.6247 209.975C98.677 209.776 98.7288 209.436 98.7359 208.908C98.7446 208.257 98.6865 207.534 98.6099 206.715C98.6022 206.632 98.5941 206.547 98.5858 206.46C98.5201 205.77 98.4417 204.946 98.4417 204.239V99.286C98.4417 97.4712 100.068 96 102.073 96Z" fill="black"/>
<path fill-rule="evenodd" clip-rule="evenodd" d="M118.618 76C120.48 76 121.988 77.4674 121.988 79.2776V129.273C121.988 134.168 121.927 139.072 121.866 143.972C121.604 165.007 121.343 185.98 125.919 206.011C126.323 207.778 125.177 209.529 123.36 209.921C121.544 210.314 119.744 209.2 119.34 207.433C114.577 186.585 114.857 164.662 115.126 143.581C115.188 138.76 115.249 133.983 115.249 129.273V79.2776C115.249 77.4674 116.757 76 118.618 76Z" fill="black"/>
<path fill-rule="evenodd" clip-rule="evenodd" d="M265.604 111.068C266.659 113.141 267.079 115.65 267.079 118.537C267.079 120.329 265.594 121.781 263.761 121.781C261.929 121.781 260.443 120.329 260.443 118.537C260.443 116.191 260.089 114.795 259.663 113.957C259.286 113.217 258.782 112.763 258.002 112.414C257.116 112.018 255.839 111.75 253.96 111.614C252.196 111.486 250.173 111.486 247.755 111.486C247.607 111.486 247.457 111.487 247.306 111.487C243.493 111.487 238.77 113.596 235.331 117.057C231.917 120.493 230.346 124.632 231.481 128.512C231.51 128.614 231.729 129.07 232.692 129.792C233.6 130.474 234.854 131.156 236.329 131.816C238.382 132.735 240.385 133.425 242.136 134.027C243.018 134.33 243.835 134.612 244.563 134.889C251.042 137.361 256.614 141.162 261.803 144.967C268.281 149.716 275.495 157.924 274.973 167.605C274.652 173.58 272.195 180.044 268.602 185.568C265.015 191.082 260.066 196.01 254.423 198.606C249.514 200.864 242.196 202.282 235.334 201.953C228.628 201.631 221.16 199.558 217.473 193.551C216.531 192.015 217.04 190.023 218.611 189.102C220.183 188.18 222.221 188.678 223.164 190.214C225.092 193.355 229.605 195.184 235.658 195.474C241.556 195.757 247.775 194.495 251.597 192.737C255.769 190.818 259.86 186.918 263.002 182.088C266.138 177.267 268.099 171.87 268.347 167.264C268.69 160.895 263.75 154.502 257.821 150.156C252.699 146.401 247.735 143.062 242.15 140.932C241.746 140.778 241.143 140.569 240.413 140.317C238.558 139.675 235.882 138.75 233.565 137.713C231.882 136.959 230.123 136.042 228.651 134.938C227.233 133.874 225.703 132.356 225.1 130.294C223.096 123.438 226.139 116.998 230.571 112.538C234.977 108.103 241.331 105 247.306 105C247.484 105 247.662 105 247.84 105C250.166 104.999 252.431 104.998 254.452 105.145C256.621 105.303 258.816 105.646 260.761 106.515C262.812 107.431 264.498 108.896 265.604 111.068Z" fill="black"/>
<path fill-rule="evenodd" clip-rule="evenodd" d="M234.142 73C235.878 73 237.285 74.4644 237.285 76.2709C237.285 100.26 238.356 123.974 239.841 147.943C240.327 155.775 241.254 163.69 242.249 171.696C242.395 172.869 242.542 174.045 242.69 175.223C243.546 182.05 244.409 188.941 245.029 195.793L245.047 195.991C245.801 204.331 246.327 210.154 250.371 215.766C251.413 217.212 251.131 219.262 249.743 220.346C248.354 221.43 246.385 221.137 245.343 219.691C240.222 212.584 239.55 205.082 238.849 197.269C238.824 196.982 238.798 196.694 238.772 196.406C238.164 189.681 237.317 182.922 236.46 176.09C236.312 174.907 236.164 173.722 236.016 172.535C235.02 164.521 234.069 156.425 233.569 148.364C232.079 124.326 231 100.457 231 76.2709C231 74.4644 232.407 73 234.142 73Z" fill="black"/>
<path fill-rule="evenodd" clip-rule="evenodd" d="M244.43 76C246.325 76 247.861 77.4791 247.861 79.3037C247.861 102.168 248.22 123.536 253.883 145.354C254.851 149.083 255.801 152.798 256.748 156.503C259.445 167.053 262.119 177.514 265.127 187.945C266.055 191.161 266.56 194.338 267.021 197.242C267.162 198.127 267.299 198.987 267.442 199.815C268.074 203.463 268.869 206.813 270.637 210.218C271.484 211.85 270.798 213.835 269.103 214.65C267.408 215.466 265.348 214.805 264.501 213.173C262.278 208.893 261.346 204.781 260.675 200.902C260.5 199.897 260.346 198.924 260.194 197.972C259.745 195.155 259.324 192.514 258.517 189.713C255.479 179.181 252.769 168.581 250.066 158.003C249.123 154.317 248.182 150.633 247.227 146.956C241.336 124.26 241 102.146 241 79.3037C241 77.4791 242.536 76 244.43 76Z" fill="black"/>
<path fill-rule="evenodd" clip-rule="evenodd" d="M410.472 97.8887C413.635 99.6473 415.76 102.73 415.76 107.01C415.76 108.834 414.285 110.313 412.466 110.313C410.647 110.313 409.173 108.834 409.173 107.01C409.173 105.276 408.476 104.333 407.278 103.667C405.858 102.877 403.617 102.471 400.873 102.646C398.185 102.818 395.366 103.527 393.037 104.582C390.61 105.68 389.18 106.937 388.652 107.89C386.63 111.54 383.891 116.533 382.11 121.642C380.277 126.9 379.765 131.445 381.168 134.609C381.296 134.899 381.422 135.185 381.547 135.469C382.478 137.584 383.343 139.549 384.445 141.285C385.665 143.207 386.983 144.523 388.594 145.215C390.589 146.073 392.617 146.871 394.698 147.691C395.038 147.825 395.38 147.96 395.724 148.096C398.143 149.051 400.622 150.046 403.053 151.159C407.918 153.388 412.745 156.159 416.879 160.306C419.355 162.789 421.057 167.028 421.701 170.972C422.327 174.803 422.173 179.755 419.243 183.02C416.192 186.42 412.064 188.281 408.729 189.785C408.499 189.888 408.274 189.99 408.053 190.09C406.732 190.69 405.25 191.405 403.67 192.167C400.645 193.628 397.258 195.262 393.944 196.594C388.819 198.654 383.107 200.337 377.603 199.942C374.686 199.733 372.367 198.683 370.487 197.75C370.176 197.595 369.88 197.447 369.597 197.304C368.067 196.534 366.889 195.941 365.496 195.591C363.731 195.149 362.658 193.355 363.099 191.586C363.54 189.816 365.328 188.74 367.093 189.182C369.259 189.725 371.166 190.693 372.681 191.462C372.935 191.591 373.178 191.714 373.409 191.829C375.132 192.684 376.494 193.24 378.072 193.353C382.055 193.638 386.633 192.416 391.494 190.462C394.638 189.198 397.591 187.77 400.464 186.38C402.108 185.585 403.725 184.803 405.337 184.071C405.435 184.027 405.532 183.983 405.628 183.939C409.31 182.269 412.252 180.935 414.347 178.6C415.203 177.647 415.738 175.33 415.2 172.04C414.681 168.861 413.367 166.126 412.221 164.977C408.866 161.611 404.825 159.234 400.316 157.168C398.059 156.135 395.724 155.196 393.311 154.243C392.977 154.111 392.64 153.979 392.303 153.845C390.227 153.028 388.095 152.188 385.999 151.287C382.718 149.877 380.499 147.371 378.888 144.832C377.497 142.64 376.418 140.182 375.511 138.116C375.387 137.833 375.266 137.559 375.148 137.293C372.665 131.688 373.951 125.029 375.892 119.462C377.884 113.746 380.895 108.29 382.894 104.682C384.425 101.918 387.362 99.9024 390.327 98.5605C393.388 97.1744 396.985 96.2748 400.455 96.0534C403.869 95.8356 407.53 96.253 410.472 97.8887Z" fill="black"/>
<path fill-rule="evenodd" clip-rule="evenodd" d="M385.343 85C387.131 85 388.581 86.4562 388.581 88.2526C388.581 93.8839 388.555 99.5057 388.529 105.119C388.422 128.031 388.317 150.803 389.991 173.507C390.123 175.298 388.784 176.858 387.001 176.991C385.217 177.124 383.664 175.779 383.532 173.988C381.837 151.002 381.945 127.909 382.052 104.974C382.079 99.3896 382.105 93.8144 382.105 88.2526C382.105 86.4562 383.555 85 385.343 85Z" fill="black"/>
<path fill-rule="evenodd" clip-rule="evenodd" d="M386.5 170C388.433 170 390 171.456 390 173.252V201.748C390 203.544 388.433 205 386.5 205C384.567 205 383 203.544 383 201.748V173.252C383 171.456 384.567 170 386.5 170Z" fill="black"/>
<path fill-rule="evenodd" clip-rule="evenodd" d="M398.227 55C400.147 55 401.704 56.466 401.704 58.2745C401.704 70.3666 401.778 82.4852 401.852 94.617C402.009 120.362 402.166 146.167 401.619 171.905C401.513 176.899 400.824 181.083 398.723 185.781C398.561 186.144 398.309 187.145 398.139 188.759C397.978 190.275 397.916 192.053 397.98 193.774C398.044 195.518 398.231 197.074 398.516 198.194C398.63 198.645 398.742 198.948 398.825 199.13C400.119 200.066 400.571 201.763 399.814 203.189C398.955 204.807 396.866 205.462 395.148 204.654C393.845 204.04 393.108 202.989 392.703 202.251C392.265 201.454 391.966 200.565 391.751 199.717C391.318 198.011 391.101 195.977 391.029 194C390.955 192.003 391.025 189.932 391.218 188.11C391.4 186.386 391.724 184.559 392.313 183.24C393.989 179.493 394.572 176.171 394.665 171.774C395.21 146.12 395.054 120.46 394.897 94.7622C394.823 82.6095 394.749 70.4481 394.749 58.2745C394.749 56.466 396.306 55 398.227 55ZM398.92 199.306C398.919 199.306 398.913 199.297 398.9 199.276C398.914 199.294 398.92 199.305 398.92 199.306Z" fill="black"/>
<path fill-rule="evenodd" clip-rule="evenodd" d="M548.392 117.431C550.124 119.44 551 122.045 551 125.138C551 126.923 549.554 128.371 547.769 128.371C545.985 128.371 544.538 126.923 544.538 125.138C544.538 123.313 544.049 122.292 543.5 121.656C542.91 120.972 541.963 120.4 540.525 120.008C537.527 119.19 533.501 119.433 529.726 119.853C529.451 119.883 528.899 120.07 528.091 120.847C527.291 121.616 526.426 122.792 525.561 124.37C523.834 127.522 522.359 131.81 521.385 136.286C520.411 140.762 519.988 145.193 520.222 148.593C520.339 150.303 520.613 151.59 520.959 152.448C521.237 153.136 521.465 153.324 521.501 153.351C525.203 155.003 528.853 158.305 531.944 161.487C533.911 163.513 535.902 165.766 537.612 167.702C538.565 168.781 539.431 169.762 540.157 170.549C548.33 179.409 546.679 191.671 541.956 200.335C538.984 205.789 534.453 208.37 529.641 209.538C525.483 210.547 520.933 210.533 517.008 210.521C516.587 210.519 516.172 210.518 515.766 210.518C514.908 210.518 513.819 210.604 512.447 210.711C512.185 210.732 511.914 210.753 511.631 210.775C509.955 210.904 508.008 211.035 506.096 210.992C504.209 210.949 502.14 210.737 500.273 210.064C498.36 209.374 496.45 208.116 495.342 205.898C494.544 204.301 495.191 202.359 496.787 201.561C498.383 200.762 500.323 201.41 501.121 203.007C501.273 203.309 501.593 203.667 502.463 203.98C503.381 204.311 504.651 204.492 506.241 204.527C507.805 204.562 509.474 204.456 511.136 204.328C511.379 204.309 511.624 204.29 511.872 204.27C513.228 204.163 514.629 204.052 515.766 204.052C516.161 204.052 516.553 204.053 516.942 204.054C521.017 204.061 524.766 204.068 528.118 203.254C531.584 202.413 534.372 200.745 536.283 197.239C540.323 189.829 540.929 180.919 535.409 174.935C534.484 173.932 533.535 172.856 532.545 171.733C530.936 169.907 529.217 167.956 527.31 165.994C524.262 162.855 521.341 160.356 518.857 159.251C516.832 158.351 515.652 156.565 514.968 154.87C514.273 153.148 513.919 151.12 513.775 149.037C513.488 144.853 514.01 139.785 515.072 134.91C516.133 130.033 517.784 125.114 519.896 121.261C520.951 119.336 522.184 117.56 523.613 116.185C525.035 114.818 526.843 113.668 529.013 113.426C532.719 113.014 537.893 112.588 542.224 113.769C544.451 114.376 546.701 115.47 548.392 117.431Z" fill="black"/>
<path fill-rule="evenodd" clip-rule="evenodd" d="M516 84C518.209 84 520 85.459 520 87.2587V215.741C520 217.541 518.209 219 516 219C513.791 219 512 217.541 512 215.741V87.2587C512 85.459 513.791 84 516 84Z" fill="black"/>
<path fill-rule="evenodd" clip-rule="evenodd" d="M533.681 96C535.514 96 537 97.4711 537 99.2858V176.696C537 186.145 535.883 195.549 534.796 204.695L534.796 204.701C533.701 213.912 532.638 222.858 532.638 231.714C532.638 233.529 531.152 235 529.319 235C527.486 235 526 233.529 526 231.714C526 222.472 527.101 213.204 528.18 204.126L528.204 203.927C529.298 194.718 530.362 185.696 530.362 176.696V99.2858C530.362 97.4711 531.848 96 533.681 96Z" fill="black"/>
<path fill-rule="evenodd" clip-rule="evenodd" d="M664.601 117.178C670.706 113.295 675.957 113 682.227 113C684.664 113 686.797 113.644 688.467 115.048C690.101 116.422 690.945 118.232 691.396 119.916C691.844 121.585 691.964 123.346 691.993 124.895C692.01 125.801 691.993 126.843 691.978 127.759C691.97 128.296 691.962 128.789 691.962 129.186C691.962 130.994 690.495 132.461 688.686 132.461C686.876 132.461 685.409 130.994 685.409 129.186C685.409 128.538 685.42 127.96 685.43 127.4C685.444 126.621 685.458 125.875 685.442 125.017C685.416 123.653 685.309 122.515 685.067 121.611C684.829 120.723 684.521 120.289 684.25 120.061C684.016 119.864 683.491 119.549 682.227 119.549C676.254 119.549 672.587 119.862 668.119 122.704C665.475 124.385 664.311 125.848 663.515 127.536C662.804 129.046 662.37 130.719 661.735 133.172C661.538 133.933 661.321 134.768 661.071 135.696C660.765 136.833 660.161 140.021 659.948 143.161C659.841 144.73 659.844 146.139 659.981 147.205C660.05 147.736 660.14 148.083 660.214 148.28C660.215 148.282 660.215 148.284 660.216 148.286C661.551 149.375 662.988 149.936 664.884 150.678C665.372 150.868 665.89 151.071 666.445 151.297C669.104 152.383 672.22 153.954 674.323 157.715C674.814 158.594 675.363 159.374 675.97 160.188C676.11 160.376 676.26 160.574 676.416 160.78C676.893 161.409 677.425 162.112 677.892 162.807C679.258 164.84 680.388 167.24 680.479 170.703C680.56 173.8 680.533 176.955 680.506 180.038C680.493 181.547 680.48 183.038 680.48 184.497C680.48 190.075 679.675 196.175 676.891 201.046C673.969 206.16 668.998 209.659 661.533 209.926C654.481 210.178 648.259 209.911 641.24 207.15C640.228 206.752 639.065 206.585 637.502 206.359C637.017 206.289 636.493 206.214 635.924 206.124C633.962 205.815 631.008 205.278 628.96 203.231C627.68 201.952 627.68 199.878 628.96 198.6C630.239 197.321 632.313 197.321 633.593 198.6C633.95 198.956 634.809 199.318 636.944 199.655C637.257 199.704 637.608 199.753 637.986 199.806C639.65 200.04 641.837 200.347 643.639 201.056C649.422 203.33 654.587 203.62 661.299 203.381C666.464 203.196 669.388 200.972 671.202 197.798C673.154 194.381 673.928 189.628 673.928 184.497C673.928 182.914 673.941 181.36 673.955 179.823C673.981 176.811 674.007 173.862 673.929 170.875C673.879 168.97 673.327 167.759 672.453 166.46C672.097 165.93 671.729 165.443 671.29 164.863C671.112 164.628 670.922 164.378 670.717 164.103C670.047 163.205 669.301 162.158 668.603 160.91C667.598 159.112 666.185 158.266 663.967 157.36C663.628 157.222 663.255 157.079 662.856 156.925C660.816 156.142 658.092 155.096 655.776 153.111C654.89 152.352 654.384 151.391 654.081 150.587C653.77 149.761 653.591 148.879 653.483 148.042C653.267 146.371 653.291 144.482 653.41 142.718C653.649 139.194 654.317 135.581 654.744 133.993C654.931 133.298 655.109 132.609 655.285 131.928C655.954 129.331 656.589 126.864 657.587 124.745C658.984 121.781 661.067 119.426 664.601 117.178ZM660.261 148.388C660.261 148.388 660.259 148.385 660.255 148.378C660.259 148.384 660.261 148.388 660.261 148.388Z" fill="black"/>
<path fill-rule="evenodd" clip-rule="evenodd" d="M650.464 101C652.378 101 653.929 102.471 653.929 104.287V162.199C653.929 173.644 655.875 185.42 658.088 196.967C658.363 198.397 658.303 200.163 658.219 201.685C658.183 202.321 658.142 202.934 658.101 203.536C658.033 204.551 657.966 205.537 657.934 206.557C657.882 208.16 657.938 209.419 658.138 210.299C658.21 210.618 658.281 210.803 658.327 210.9C659.859 211.776 660.447 213.638 659.634 215.182C658.778 216.806 656.697 217.464 654.986 216.652C652.607 215.524 651.729 213.288 651.364 211.682C650.98 209.988 650.953 208.069 651.008 206.357C651.044 205.246 651.125 204.038 651.198 202.939C651.236 202.367 651.273 201.824 651.3 201.339C651.389 199.739 651.38 198.711 651.272 198.143C649.051 186.556 647 174.281 647 162.199V104.287C647 102.471 648.551 101 650.464 101ZM658.376 210.987C658.376 210.988 658.372 210.983 658.366 210.973C658.373 210.982 658.376 210.987 658.376 210.987Z" fill="black"/>
<path fill-rule="evenodd" clip-rule="evenodd" d="M670 97C671.657 97 673 98.4757 673 100.296V218.704C673 220.524 671.657 222 670 222C668.343 222 667 220.524 667 218.704V100.296C667 98.4757 668.343 97 670 97Z" fill="black"/>
<path fill-rule="evenodd" clip-rule="evenodd" d="M811.09 116.303C811.887 119.603 812.374 122.715 812.374 124.589C812.374 126.41 810.936 127.886 809.163 127.886C807.389 127.886 805.952 126.41 805.952 124.589C805.952 123.528 805.616 121.036 804.856 117.891C804.112 114.812 803.031 111.397 801.686 108.511C800.276 105.487 798.834 103.613 797.641 102.897C797.149 102.602 796.801 102.562 796.49 102.615C796.131 102.677 795.459 102.931 794.486 103.874C792.542 105.759 790.054 108.765 787.996 112.007C785.879 115.343 784.513 118.469 784.3 120.664C784.233 121.345 784.146 122.155 784.049 123.065C783.692 126.387 783.193 131.04 783.028 135.638C782.923 138.557 782.96 141.32 783.232 143.585C783.522 146.008 784.018 147.256 784.371 147.7C786.461 150.322 789.374 152.338 792.824 154.3C793.934 154.931 795.153 155.582 796.41 156.253C798.809 157.535 801.349 158.891 803.544 160.33C815.581 168.219 817.289 181.142 817.919 193.105C818.372 201.711 816.975 208.908 812.551 214.017C808.109 219.145 801.241 221.453 792.395 221.777C792.074 221.789 791.601 221.818 791.057 221.851C790.085 221.91 788.889 221.983 787.931 221.997C786.288 222.02 784.247 221.932 782.439 221.263C780.519 220.554 779.339 219.267 778.637 218.502C778.604 218.466 778.572 218.431 778.541 218.398C777.799 217.592 777.558 217.4 777.197 217.277C775.514 216.701 774.605 214.833 775.166 213.106C775.727 211.378 777.545 210.444 779.228 211.02C781.217 211.701 782.42 213.01 783.14 213.793C783.163 213.818 783.185 213.842 783.207 213.866C783.972 214.696 784.224 214.914 784.615 215.059C785.284 215.306 786.357 215.424 787.84 215.403C788.771 215.389 789.518 215.34 790.29 215.29C790.871 215.251 791.466 215.212 792.166 215.187C800.199 214.892 804.98 212.834 807.751 209.634C810.54 206.415 811.919 201.322 811.505 193.461C810.877 181.523 809.175 171.844 800.088 165.889C798.1 164.586 796.051 163.495 793.851 162.324C792.532 161.622 791.16 160.892 789.713 160.069C786.071 157.998 782.282 155.492 779.4 151.876C777.815 149.886 777.169 146.996 776.857 144.39C776.526 141.627 776.499 138.47 776.609 135.395C776.784 130.522 777.323 125.516 777.678 122.205C777.771 121.349 777.85 120.606 777.909 120.008C778.281 116.183 780.362 111.957 782.616 108.406C784.929 104.762 787.736 101.349 790.076 99.0798C791.677 97.5272 793.463 96.4479 795.434 96.1104C797.454 95.7644 799.31 96.2596 800.883 97.2044C803.821 98.9685 805.956 102.396 807.479 105.664C809.068 109.071 810.277 112.939 811.09 116.303Z" fill="black"/>
<path fill-rule="evenodd" clip-rule="evenodd" d="M785.281 85C787.093 85 788.563 86.4452 788.563 88.228C788.563 107.305 788.921 126.381 789.281 145.478L789.282 145.531C789.641 164.601 790 183.694 790 202.772C790 204.555 788.531 206 786.719 206C784.907 206 783.437 204.555 783.437 202.772C783.437 183.754 783.079 164.711 782.72 145.621L782.719 145.598C782.36 126.51 782 107.375 782 88.228C782 86.4452 783.469 85 785.281 85Z" fill="black"/>
<path fill-rule="evenodd" clip-rule="evenodd" d="M800.037 86C801.715 86 803.075 87.4568 803.075 89.2539C803.075 117.917 803.815 146.483 804.953 175.141C805.018 176.772 805.084 178.404 805.15 180.039C805.583 190.773 806.02 201.589 806.152 212.388C806.161 213.094 806.118 214.109 806.074 215.165C806.062 215.463 806.049 215.764 806.037 216.062C805.981 217.506 805.936 219.079 805.976 220.578C806.017 222.11 806.143 223.391 806.365 224.299C806.458 224.682 806.543 224.895 806.591 224.999C807.891 225.882 808.382 227.694 807.679 229.201C806.928 230.808 805.104 231.459 803.604 230.656C801.615 229.591 800.84 227.388 800.488 225.948C800.092 224.327 799.949 222.468 799.904 220.763C799.858 219.026 799.91 217.265 799.968 215.79C799.983 215.397 799.999 215.034 800.012 214.7C800.054 213.707 800.084 212.973 800.078 212.474C799.947 201.78 799.515 191.071 799.081 180.33C799.015 178.693 798.949 177.056 798.884 175.418C797.743 146.698 797 118.035 797 89.2539C797 87.4568 798.36 86 800.037 86Z" fill="black"/>
</svg>
