<svg width="640" height="250" viewBox="0 0 640 250" fill="none" xmlns="http://www.w3.org/2000/svg">
<rect width="640" height="250" fill="white"/>
<path fill-rule="evenodd" clip-rule="evenodd" d="M43.4006 85.2652C45.9064 81.2094 50.0967 77.6512 55.6634 78.0274C58.3832 78.2112 60.9657 78.9324 63.2486 79.5699C63.3033 79.5852 63.3579 79.6005 63.4124 79.6157C65.8278 80.2899 67.9231 80.8598 70.0366 80.9817C71.9912 81.0943 73.6938 82.0559 74.822 82.6931C74.8656 82.7177 74.9083 82.7419 74.9502 82.7655C76.3079 83.5304 77.0711 83.9255 77.7967 84.0045C79.214 84.1588 80.2352 85.4098 80.0778 86.7986C79.9203 88.1875 78.6437 89.1882 77.2264 89.0339C75.3361 88.8281 73.6836 87.8925 72.5658 87.2596C72.5008 87.2228 72.4376 87.187 72.3762 87.1525C71.0277 86.3927 70.3356 86.0681 69.7334 86.0333C66.9861 85.875 64.3727 85.1454 62.0594 84.4997L61.9977 84.4825C59.5767 83.8067 57.4607 83.2213 55.3081 83.0758C52.4688 82.8839 49.8183 84.6487 47.818 87.8861C45.8271 91.1084 44.9134 95.1737 45.299 98.1964C45.2988 98.1951 45.2987 98.1945 45.2988 98.1945C45.2992 98.1944 45.3284 98.3489 45.5711 98.6712C45.8244 99.0075 46.2286 99.4176 46.8115 99.8894C47.9822 100.837 49.6079 101.823 51.4356 102.793C53.2459 103.754 55.1492 104.646 56.8396 105.429C56.9914 105.5 57.1427 105.57 57.2932 105.639C58.7441 106.311 60.1131 106.944 60.9528 107.43C61.8424 107.944 62.8968 108.518 64.0464 109.144C66.6943 110.585 69.8477 112.302 72.6575 114.201C76.6871 116.924 80.7807 120.492 82.2541 125.144C84.2378 131.408 82.0587 136.776 78.1513 140.523C74.3351 144.182 68.8343 146.375 63.6517 146.766C54.0608 147.489 45.2864 146.812 37.033 140.746C35.8922 139.908 35.6609 138.322 36.5166 137.204C37.3722 136.086 38.9906 135.859 40.1314 136.698C46.9051 141.676 54.1534 142.407 63.2557 141.721C67.3713 141.41 71.688 139.64 74.5396 136.906C77.3001 134.259 78.6391 130.803 77.3221 126.644C76.3945 123.715 73.5847 120.974 69.7259 118.367C67.1207 116.606 64.3886 115.121 61.8415 113.736C60.616 113.07 59.4333 112.427 58.3281 111.788C57.706 111.428 56.5553 110.895 54.9616 110.157C54.8536 110.107 54.7437 110.056 54.6317 110.004C52.942 109.221 50.9235 108.277 48.9757 107.243C47.0453 106.218 45.0769 105.049 43.5228 103.791C42.0967 102.637 40.4476 100.962 40.1748 98.824C39.6276 94.5341 40.8853 89.3361 43.4006 85.2652Z" fill="black"/>
<path fill-rule="evenodd" clip-rule="evenodd" d="M51.9459 78C53.5059 78 54.7706 79.1402 54.7706 80.5466V161.885C54.7706 162.2 54.8087 162.605 54.8651 163.203C54.8703 163.259 54.8757 163.316 54.8812 163.375C54.9403 164.003 55.0094 164.787 54.9989 165.565C54.9888 166.325 54.9039 167.262 54.5454 168.16C54.1675 169.106 53.4307 170.126 52.0884 170.731C50.6931 171.36 48.9965 170.85 48.2988 169.592C47.6532 168.428 48.0893 167.031 49.2636 166.33C49.3043 166.177 49.3446 165.913 49.3501 165.504C49.3569 164.999 49.3117 164.439 49.2521 163.804C49.2461 163.74 49.2398 163.674 49.2334 163.607C49.1823 163.071 49.1213 162.433 49.1213 161.885V80.5466C49.1213 79.1402 50.386 78 51.9459 78Z" fill="black"/>
<path fill-rule="evenodd" clip-rule="evenodd" d="M63.9605 64C65.4832 64 66.7176 65.117 66.7176 66.4949V104.551C66.7176 108.277 66.6676 112.01 66.6177 115.74C66.4032 131.751 66.1894 147.716 69.9338 162.963C70.2641 164.308 69.3269 165.641 67.8404 165.94C66.354 166.239 64.8812 165.391 64.5509 164.046C60.6537 148.176 60.8828 131.489 61.1031 115.442C61.1535 111.773 61.2034 108.136 61.2034 104.551V66.4949C61.2034 65.117 62.4378 64 63.9605 64Z" fill="black"/>
<path fill-rule="evenodd" clip-rule="evenodd" d="M177.71 90.6916C178.529 92.2949 178.855 94.2344 178.855 96.4671C178.855 97.852 177.702 98.9747 176.28 98.9747C174.859 98.9747 173.706 97.852 173.706 96.4671C173.706 94.6525 173.431 93.5735 173.1 92.9256C172.808 92.3537 172.417 92.002 171.812 91.7326C171.124 91.4263 170.133 91.2194 168.676 91.1138C167.308 91.0146 165.738 91.0149 163.861 91.0153C163.746 91.0153 163.63 91.0153 163.513 91.0153C160.555 91.0153 156.89 92.6462 154.222 95.3222C151.574 97.9788 150.355 101.18 151.235 104.18C151.258 104.258 151.428 104.611 152.175 105.169C152.88 105.696 153.852 106.223 154.997 106.734C156.589 107.445 158.144 107.978 159.502 108.444C160.186 108.678 160.82 108.896 161.385 109.11C166.412 111.021 170.735 113.961 174.761 116.902C179.787 120.574 185.384 126.921 184.979 134.406C184.73 139.026 182.824 144.024 180.036 148.295C177.253 152.559 173.413 156.369 169.035 158.376C165.227 160.122 159.548 161.218 154.224 160.963C149.021 160.715 143.228 159.112 140.367 154.468C139.636 153.28 140.031 151.74 141.25 151.027C142.469 150.315 144.051 150.7 144.782 151.887C146.278 154.316 149.78 155.73 154.476 155.954C159.052 156.173 163.877 155.197 166.843 153.838C170.08 152.354 173.254 149.339 175.691 145.604C178.124 141.877 179.645 137.704 179.838 134.142C180.104 129.218 176.271 124.274 171.672 120.914C167.698 118.011 163.846 115.429 159.513 113.782C159.2 113.663 158.732 113.502 158.165 113.307C156.726 112.811 154.65 112.096 152.852 111.294C151.546 110.711 150.182 110.002 149.04 109.148C147.939 108.325 146.752 107.152 146.284 105.558C144.73 100.256 147.091 95.2767 150.529 91.8282C153.948 88.3992 158.878 86.0002 163.513 86.0002C163.651 86.0002 163.79 86.0002 163.928 86.0001C165.732 85.9994 167.489 85.9988 169.058 86.1125C170.74 86.2344 172.444 86.4996 173.952 87.1714C175.544 87.88 176.852 89.0122 177.71 90.6916Z" fill="black"/>
<path fill-rule="evenodd" clip-rule="evenodd" d="M153.514 60C154.902 60 156.028 61.1379 156.028 62.5416C156.028 81.1818 156.884 99.6082 158.073 118.233C158.461 124.319 159.203 130.469 159.999 136.689C160.116 137.601 160.234 138.515 160.352 139.43C161.036 144.735 161.728 150.09 162.223 155.413L162.238 155.568C162.841 162.047 163.262 166.572 166.497 170.933C167.33 172.056 167.105 173.649 165.994 174.492C164.884 175.334 163.308 175.106 162.475 173.983C158.378 168.461 157.84 162.631 157.279 156.56C157.259 156.337 157.238 156.113 157.217 155.89C156.731 150.665 156.053 145.412 155.368 140.104C155.25 139.185 155.131 138.264 155.013 137.341C154.216 131.115 153.455 124.823 153.056 118.56C151.864 99.8819 151 81.3351 151 62.5416C151 61.1379 152.126 60 153.514 60Z" fill="black"/>
<path fill-rule="evenodd" clip-rule="evenodd" d="M160.63 64C162.083 64 163.26 65.128 163.26 66.5194C163.26 83.9552 163.535 100.251 167.877 116.888C168.619 119.732 169.347 122.565 170.073 125.391C172.141 133.436 174.191 141.414 176.498 149.368C177.209 151.82 177.596 154.243 177.95 156.458C178.057 157.133 178.162 157.789 178.272 158.42C178.756 161.202 179.367 163.757 180.722 166.353C181.371 167.598 180.845 169.111 179.546 169.733C178.246 170.356 176.667 169.851 176.017 168.607C174.313 165.343 173.599 162.207 173.084 159.249C172.95 158.482 172.832 157.741 172.715 157.015C172.371 154.866 172.049 152.852 171.429 150.717C169.1 142.684 167.023 134.601 164.95 126.535C164.228 123.724 163.506 120.915 162.774 118.111C158.257 100.803 158 83.9386 158 66.5194C158 65.128 159.177 64 160.63 64Z" fill="black"/>
<path fill-rule="evenodd" clip-rule="evenodd" d="M289.207 79.471C291.62 80.8407 293.241 83.2418 293.241 86.5748C293.241 87.9956 292.116 89.1475 290.728 89.1475C289.341 89.1475 288.216 87.9956 288.216 86.5748C288.216 85.2248 287.685 84.4899 286.771 83.9711C285.689 83.3564 283.979 83.0402 281.886 83.1765C279.836 83.3101 277.686 83.8627 275.909 84.6839C274.058 85.5395 272.968 86.5181 272.565 87.2607C271.023 90.1035 268.934 93.9918 267.575 97.9713C266.177 102.067 265.787 105.606 266.857 108.071C266.954 108.296 267.051 108.519 267.146 108.74C267.856 110.388 268.516 111.918 269.357 113.27C270.287 114.767 271.292 115.792 272.521 116.331C274.043 116.999 275.589 117.621 277.176 118.26C277.436 118.364 277.697 118.469 277.959 118.575C279.804 119.319 281.695 120.093 283.549 120.96C287.26 122.696 290.941 124.855 294.094 128.084C295.983 130.018 297.28 133.32 297.772 136.391C298.249 139.376 298.132 143.232 295.897 145.775C293.57 148.423 290.422 149.872 287.878 151.044C287.703 151.124 287.531 151.204 287.362 151.282C286.355 151.749 285.225 152.306 284.019 152.9C281.712 154.037 279.129 155.31 276.602 156.347C272.692 157.952 268.336 159.262 264.138 158.955C261.913 158.792 260.144 157.974 258.711 157.248C258.473 157.127 258.248 157.011 258.031 156.9C256.865 156.3 255.967 155.838 254.903 155.566C253.557 155.222 252.739 153.825 253.076 152.446C253.412 151.068 254.776 150.23 256.122 150.575C257.774 150.998 259.228 151.751 260.384 152.35C260.577 152.451 260.763 152.547 260.939 152.636C262.253 153.302 263.292 153.735 264.496 153.823C267.534 154.045 271.025 153.093 274.733 151.571C277.131 150.587 279.383 149.475 281.574 148.392C282.828 147.773 284.062 147.164 285.291 146.594C285.365 146.56 285.439 146.525 285.513 146.491C288.321 145.191 290.565 144.151 292.163 142.333C292.816 141.59 293.224 139.785 292.814 137.223C292.418 134.748 291.415 132.617 290.542 131.723C287.982 129.101 284.9 127.249 281.461 125.641C279.74 124.836 277.959 124.104 276.119 123.362C275.864 123.26 275.607 123.156 275.349 123.053C273.766 122.416 272.14 121.762 270.541 121.06C268.039 119.962 266.347 118.01 265.118 116.033C264.057 114.326 263.234 112.411 262.542 110.802C262.448 110.582 262.356 110.368 262.266 110.161C260.371 105.796 261.352 100.609 262.833 96.2731C264.352 91.821 266.649 87.572 268.173 84.7619C269.341 82.6089 271.581 81.0394 273.842 79.9942C276.178 78.9147 278.921 78.214 281.567 78.0416C284.172 77.8719 286.963 78.197 289.207 79.471Z" fill="black"/>
<path fill-rule="evenodd" clip-rule="evenodd" d="M270.507 70C271.849 70 272.936 71.1238 272.936 72.5102C272.936 76.856 272.916 81.1947 272.897 85.5268C272.817 103.208 272.737 120.782 273.993 138.304C274.092 139.687 273.088 140.891 271.751 140.993C270.413 141.095 269.248 140.058 269.149 138.675C267.878 120.937 267.959 103.114 268.039 85.4148C268.059 81.105 268.079 76.8024 268.079 72.5102C268.079 71.1238 269.166 70 270.507 70Z" fill="black"/>
<path fill-rule="evenodd" clip-rule="evenodd" d="M271 136C272.657 136 274 137.123 274 138.509V160.491C274 161.877 272.657 163 271 163C269.343 163 268 161.877 268 160.491V138.509C268 137.123 269.343 136 271 136Z" fill="black"/>
<path fill-rule="evenodd" clip-rule="evenodd" d="M280.256 47C281.653 47 282.785 48.1337 282.785 49.5323C282.785 58.8835 282.839 68.2552 282.892 77.6372C283.006 97.5466 283.12 117.502 282.723 137.406C282.646 141.268 282.145 144.504 280.617 148.138C280.499 148.418 280.316 149.192 280.192 150.44C280.075 151.613 280.03 152.987 280.076 154.319C280.123 155.667 280.259 156.871 280.466 157.736C280.549 158.086 280.63 158.32 280.691 158.46C281.632 159.184 281.961 160.497 281.41 161.6C280.785 162.851 279.266 163.358 278.017 162.732C277.069 162.258 276.533 161.445 276.238 160.874C275.92 160.258 275.703 159.57 275.546 158.915C275.231 157.595 275.074 156.022 275.021 154.494C274.967 152.949 275.018 151.348 275.158 149.938C275.291 148.605 275.526 147.192 275.955 146.172C277.174 143.275 277.598 140.706 277.666 137.305C278.062 117.466 277.948 97.6226 277.834 77.7495C277.78 68.3514 277.727 58.9465 277.727 49.5323C277.727 48.1337 278.859 47 280.256 47ZM280.76 158.596C280.76 158.597 280.755 158.59 280.745 158.573C280.755 158.588 280.76 158.596 280.76 158.596Z" fill="black"/>
<path fill-rule="evenodd" clip-rule="evenodd" d="M396.951 95.3914C398.312 96.9286 399 98.9219 399 101.289C399 102.655 397.863 103.763 396.462 103.763C395.06 103.763 393.923 102.655 393.923 101.289C393.923 99.8925 393.539 99.1115 393.107 98.6242C392.644 98.1008 391.9 97.663 390.77 97.3631C388.414 96.7375 385.251 96.9233 382.285 97.2445C382.069 97.2679 381.635 97.4104 381 98.0052C380.372 98.5941 379.692 99.4937 379.013 100.702C377.655 103.114 376.497 106.396 375.731 109.821C374.966 113.247 374.633 116.637 374.817 119.24C374.909 120.549 375.124 121.533 375.396 122.19C375.614 122.716 375.794 122.86 375.822 122.881C378.731 124.146 381.599 126.672 384.027 129.107C385.573 130.658 387.137 132.382 388.481 133.864C389.229 134.69 389.91 135.44 390.481 136.043C396.902 142.823 395.605 152.207 391.894 158.838C389.558 163.012 385.999 164.987 382.218 165.881C378.951 166.654 375.376 166.643 372.292 166.633C371.961 166.632 371.635 166.631 371.316 166.631C370.642 166.631 369.787 166.697 368.708 166.779C368.503 166.795 368.289 166.811 368.067 166.828C366.75 166.926 365.221 167.026 363.718 166.994C362.235 166.961 360.61 166.799 359.143 166.283C357.64 165.755 356.139 164.793 355.269 163.096C354.642 161.873 355.15 160.387 356.404 159.776C357.658 159.165 359.183 159.66 359.81 160.883C359.928 161.114 360.18 161.388 360.864 161.628C361.585 161.881 362.583 162.019 363.832 162.046C365.061 162.073 366.373 161.992 367.678 161.894C367.869 161.88 368.062 161.865 368.257 161.85C369.322 161.768 370.423 161.683 371.316 161.683C371.627 161.683 371.934 161.683 372.24 161.684C375.442 161.689 378.388 161.695 381.021 161.072C383.744 160.428 385.935 159.152 387.437 156.469C390.611 150.798 391.087 143.979 386.75 139.399C386.023 138.632 385.278 137.808 384.5 136.948C383.235 135.551 381.884 134.059 380.387 132.556C377.991 130.154 375.697 128.242 373.745 127.396C372.154 126.707 371.227 125.341 370.689 124.043C370.143 122.726 369.865 121.173 369.752 119.58C369.526 116.377 369.937 112.499 370.771 108.768C371.605 105.035 372.902 101.271 374.561 98.322C375.39 96.8493 376.359 95.4897 377.482 94.4376C378.599 93.3913 380.02 92.5109 381.724 92.3263C384.636 92.0109 388.701 91.685 392.104 92.5886C393.854 93.0532 395.622 93.8902 396.951 95.3914Z" fill="black"/>
<path fill-rule="evenodd" clip-rule="evenodd" d="M371 69C372.657 69 374 70.1348 374 71.5345V171.465C374 172.865 372.657 174 371 174C369.343 174 368 172.865 368 171.465V71.5345C368 70.1348 369.343 69 371 69Z" fill="black"/>
<path fill-rule="evenodd" clip-rule="evenodd" d="M385.284 78C386.784 78 388 79.143 388 80.553V140.699C388 148.041 387.086 155.347 386.197 162.453L386.196 162.458C385.301 169.615 384.431 176.566 384.431 183.447C384.431 184.857 383.215 186 381.716 186C380.216 186 379 184.857 379 183.447C379 176.266 379.901 169.065 380.784 162.012L380.803 161.857C381.698 154.702 382.569 147.692 382.569 140.699V80.553C382.569 79.143 383.785 78 385.284 78Z" fill="black"/>
<path fill-rule="evenodd" clip-rule="evenodd" d="M486.023 95.1874C490.696 92.2251 494.717 92 499.518 92C501.383 92 503.016 92.4913 504.295 93.5628C505.546 94.6105 506.192 95.9914 506.538 97.2763C506.88 98.5493 506.972 99.893 506.995 101.074C507.008 101.766 506.995 102.561 506.983 103.259C506.977 103.669 506.971 104.045 506.971 104.348C506.971 105.728 505.848 106.846 504.462 106.846C503.077 106.846 501.954 105.728 501.954 104.348C501.954 103.853 501.962 103.413 501.97 102.986C501.981 102.391 501.991 101.822 501.979 101.168C501.959 100.127 501.878 99.2586 501.692 98.5693C501.51 97.8918 501.274 97.5604 501.066 97.3865C500.887 97.2362 500.485 96.9964 499.518 96.9964C494.944 96.9964 492.137 97.2346 488.716 99.4027C486.692 100.685 485.8 101.801 485.191 103.089C484.647 104.241 484.315 105.518 483.828 107.389C483.677 107.969 483.512 108.606 483.32 109.314C483.086 110.182 482.623 112.614 482.46 115.01C482.378 116.206 482.38 117.281 482.485 118.094C482.538 118.5 482.607 118.764 482.664 118.915C482.664 118.916 482.665 118.918 482.666 118.919C483.688 119.75 484.788 120.178 486.24 120.744C486.613 120.889 487.01 121.044 487.434 121.217C489.47 122.045 491.856 123.243 493.466 126.112C493.842 126.783 494.262 127.378 494.727 127.999C494.834 128.142 494.949 128.293 495.069 128.451C495.433 128.931 495.841 129.467 496.198 129.997C497.245 131.548 498.109 133.379 498.179 136.021C498.241 138.384 498.22 140.79 498.2 143.143C498.19 144.293 498.18 145.431 498.18 146.544C498.18 150.8 497.564 155.453 495.432 159.169C493.195 163.071 489.389 165.74 483.674 165.944C478.274 166.136 473.511 165.932 468.137 163.826C467.362 163.523 466.471 163.394 465.275 163.223C464.904 163.169 464.503 163.112 464.067 163.043C462.565 162.807 460.303 162.398 458.735 160.836C457.755 159.86 457.755 158.278 458.735 157.303C459.714 156.327 461.302 156.327 462.282 157.303C462.555 157.575 463.213 157.851 464.847 158.108C465.087 158.145 465.356 158.183 465.645 158.223C466.919 158.402 468.594 158.636 469.973 159.177C474.401 160.912 478.356 161.133 483.495 160.95C487.449 160.81 489.687 159.113 491.076 156.691C492.571 154.085 493.163 150.459 493.163 146.544C493.163 145.336 493.174 144.151 493.184 142.978C493.204 140.681 493.224 138.431 493.164 136.152C493.126 134.698 492.703 133.775 492.034 132.784C491.762 132.38 491.48 132.008 491.144 131.566C491.007 131.386 490.862 131.196 490.705 130.986C490.192 130.301 489.621 129.502 489.087 128.55C488.317 127.178 487.235 126.533 485.537 125.842C485.278 125.736 484.992 125.627 484.686 125.51C483.124 124.912 481.039 124.114 479.266 122.6C478.588 122.021 478.201 121.288 477.969 120.674C477.731 120.044 477.593 119.372 477.51 118.733C477.345 117.458 477.363 116.017 477.455 114.672C477.638 111.983 478.149 109.227 478.476 108.015C478.619 107.485 478.755 106.959 478.89 106.44C479.402 104.458 479.888 102.577 480.653 100.96C481.722 98.6987 483.317 96.9024 486.023 95.1874ZM482.7 118.997C482.7 118.997 482.698 118.994 482.695 118.989C482.698 118.994 482.7 118.997 482.7 118.997Z" fill="black"/>
<path fill-rule="evenodd" clip-rule="evenodd" d="M474.665 82C476.137 82 477.33 83.1417 477.33 84.55V129.482C477.33 138.362 478.827 147.498 480.53 156.457C480.74 157.567 480.695 158.937 480.63 160.118C480.602 160.611 480.571 161.087 480.539 161.554C480.487 162.341 480.436 163.106 480.41 163.898C480.371 165.141 480.414 166.118 480.567 166.801C480.623 167.049 480.678 167.192 480.713 167.267C481.892 167.947 482.344 169.392 481.718 170.59C481.06 171.849 479.459 172.36 478.143 171.73C476.313 170.855 475.638 169.12 475.357 167.874C475.061 166.559 475.041 165.071 475.083 163.742C475.111 162.881 475.173 161.944 475.229 161.091C475.259 160.647 475.287 160.225 475.307 159.849C475.376 158.608 475.37 157.81 475.286 157.369C473.578 148.38 472 138.856 472 129.482V84.55C472 83.1417 473.193 82 474.665 82ZM480.751 167.335C480.751 167.335 480.748 167.332 480.743 167.324C480.749 167.331 480.751 167.335 480.751 167.335Z" fill="black"/>
<path fill-rule="evenodd" clip-rule="evenodd" d="M489.5 79C490.881 79 492 80.1452 492 81.5578V173.442C492 174.855 490.881 176 489.5 176C488.119 176 487 174.855 487 173.442V81.5578C487 80.1452 488.119 79 489.5 79Z" fill="black"/>
<path fill-rule="evenodd" clip-rule="evenodd" d="M598.697 93.7915C599.309 96.3577 599.683 98.7786 599.683 100.236C599.683 101.652 598.579 102.801 597.218 102.801C595.857 102.801 594.754 101.652 594.754 100.236C594.754 99.4103 594.496 97.4721 593.913 95.0264C593.342 92.6315 592.512 89.9752 591.48 87.731C590.398 85.3789 589.291 83.9214 588.376 83.3644C587.998 83.1347 587.731 83.1038 587.493 83.1451C587.216 83.1931 586.701 83.3906 585.954 84.1244C584.462 85.5904 582.553 87.9283 580.974 90.45C579.349 93.0446 578.301 95.4761 578.137 97.183C578.086 97.7131 578.019 98.3432 577.944 99.0509C577.671 101.634 577.288 105.254 577.161 108.829C577.08 111.1 577.109 113.249 577.317 115.01C577.54 116.895 577.92 117.866 578.192 118.211C579.795 120.25 582.031 121.819 584.679 123.344C585.531 123.835 586.466 124.341 587.431 124.864C589.272 125.86 591.221 126.915 592.906 128.034C602.144 134.17 603.454 144.222 603.938 153.526C604.285 160.22 603.214 165.818 599.818 169.791C596.409 173.779 591.139 175.574 584.35 175.827C584.103 175.836 583.74 175.858 583.323 175.884C582.577 175.93 581.659 175.987 580.924 175.997C579.663 176.016 578.097 175.947 576.709 175.427C575.236 174.875 574.33 173.875 573.791 173.279C573.766 173.251 573.741 173.224 573.718 173.198C573.148 172.571 572.963 172.422 572.686 172.326C571.395 171.878 570.697 170.426 571.127 169.082C571.558 167.739 572.953 167.012 574.245 167.46C575.771 167.99 576.695 169.008 577.247 169.617C577.264 169.636 577.282 169.655 577.298 169.673C577.886 170.319 578.079 170.489 578.379 170.601C578.893 170.794 579.716 170.885 580.854 170.869C581.569 170.858 582.141 170.82 582.734 170.781C583.18 170.751 583.637 170.721 584.174 170.701C590.338 170.472 594.008 168.871 596.135 166.382C598.275 163.878 599.333 159.917 599.016 153.803C598.533 144.518 597.228 136.99 590.254 132.358C588.728 131.344 587.156 130.496 585.467 129.585C584.455 129.04 583.402 128.471 582.291 127.831C579.496 126.221 576.588 124.272 574.377 121.459C573.16 119.911 572.665 117.664 572.425 115.637C572.171 113.487 572.15 111.032 572.235 108.64C572.369 104.851 572.782 100.957 573.056 98.3818C573.126 97.7156 573.188 97.1377 573.232 96.6727C573.518 93.6978 575.115 90.4107 576.844 87.6494C578.62 84.8152 580.774 82.1601 582.57 80.3954C583.798 79.1878 585.169 78.3484 586.682 78.0859C588.232 77.8168 589.656 78.2019 590.864 78.9367C593.119 80.3088 594.757 82.9745 595.926 85.5164C597.145 88.1661 598.073 91.1745 598.697 93.7915Z" fill="black"/>
<path fill-rule="evenodd" clip-rule="evenodd" d="M578.871 70C580.457 70 581.742 71.1227 581.742 72.5077C581.742 87.3278 582.056 102.147 582.371 116.983L582.371 117.024C582.686 131.839 583 146.671 583 161.492C583 162.877 581.715 164 580.129 164C578.543 164 577.258 162.877 577.258 161.492C577.258 146.718 576.944 131.924 576.63 117.094L576.629 117.076C576.315 102.247 576 87.3819 576 72.5077C576 71.1227 577.285 70 578.871 70Z" fill="black"/>
<path fill-rule="evenodd" clip-rule="evenodd" d="M590.485 83C591.858 83 592.97 84.1253 592.97 85.5134C592.97 107.653 593.576 129.718 594.507 151.854C594.56 153.113 594.614 154.374 594.668 155.637C595.022 163.928 595.38 172.283 595.488 180.624C595.495 181.169 595.46 181.954 595.424 182.769C595.414 182.999 595.404 183.232 595.394 183.462C595.348 184.577 595.312 185.792 595.344 186.95C595.377 188.133 595.48 189.123 595.662 189.824C595.739 190.12 595.808 190.284 595.847 190.365C596.911 191.047 597.312 192.446 596.737 193.61C596.123 194.852 594.631 195.355 593.403 194.734C591.776 193.911 591.142 192.21 590.854 191.098C590.53 189.846 590.413 188.41 590.376 187.093C590.338 185.751 590.381 184.391 590.428 183.252C590.441 182.948 590.453 182.667 590.465 182.409C590.499 181.642 590.524 181.075 590.519 180.69C590.411 172.43 590.057 164.158 589.703 155.862C589.649 154.598 589.594 153.333 589.541 152.068C588.608 129.884 588 107.744 588 85.5134C588 84.1253 589.113 83 590.485 83Z" fill="black"/>
</svg>
