<svg width="675" height="600" viewBox="0 0 675 600" fill="none" xmlns="http://www.w3.org/2000/svg">
<path d="M367.478 206.522C367.478 199.818 366.697 194.734 364.866 188.325C363.439 183.333 359.367 176.879 356.533 172.471C354.474 169.269 353.306 165.297 351.623 161.931C349.264 157.212 344.386 153.353 342.525 148.328C341.581 145.78 339.753 144.226 338.651 141.707C333.188 129.22 324.187 116.865 316.22 105.808C310.909 98.4371 303.494 92.7939 296.086 87.7013C291.928 84.8426 286.907 84.4102 282.033 82.9268C277.218 81.4613 267.874 81.3751 262.89 82.6566C258.186 83.8663 251.37 87.2141 247.306 89.7732C244.547 91.5104 241.619 91.9863 238.793 93.4667C232.213 96.9131 224.601 99.7362 217.623 102.295C213.527 103.797 207.227 107.367 206.182 112.069C205.672 114.366 222.703 109 224.334 108.601C235.786 105.802 247.846 104.367 259.647 104.367C286.251 104.367 319.2 107.413 337.075 129.951C349.886 146.105 358.443 165.314 369.1 183.01C373.88 190.949 377.448 199.32 382.027 207.333C382.92 208.897 385.315 212.302 385.315 214.135C385.315 215.538 383.716 211.818 383.063 210.576C382.217 208.97 381.707 208.693 381.216 206.973C380.82 205.587 379.117 205.712 378.018 205.712C376.112 205.712 375.674 204.086 374.955 202.469C372.313 196.525 373.153 188.753 373.153 182.2C373.153 178.357 372.755 174.04 374.37 170.489C375.164 168.741 375.633 166.439 376.216 164.543C376.822 162.574 377.125 158.797 378.198 157.246C379.949 154.717 383.888 149.217 384.459 146.076C385.106 142.518 387.394 137.34 389.999 134.996C398.186 127.628 408.131 122.279 415.673 114.051C417.589 111.961 419.587 107.962 422.204 106.799C426.107 105.065 430.701 103.101 434.771 101.124C437.276 99.9071 440.371 98.3578 442.518 96.6196C443.051 96.1886 447.357 92.2055 446.122 92.2055C438.754 92.2055 433.524 94.7786 427.069 98.1961C423.161 100.265 417.745 100.49 417.745 105.988C417.745 108.376 415.684 109.671 414.097 111.258C413.374 111.981 409.728 115.17 409.728 116.078C409.728 118.329 412.952 112.935 414.502 111.303C416.803 108.882 418.526 105.75 421.033 103.556C424.728 100.323 428.918 97.2479 432.339 93.827C437.816 88.35 446.899 84.2968 453.824 80.4495C456.292 79.0785 461.629 80.0441 464.364 80.0441C470.45 80.0441 476.637 80.6961 481.795 84.2781C488.974 89.2633 495.587 93.3855 502.064 99.5023C506.648 103.832 514.023 107.408 517.063 112.88C519.011 116.387 522.38 118.788 524.405 122.654C526.049 125.794 527.894 128.259 529.179 131.662C530.554 135.302 533.304 140.481 533.683 144.274C534.103 148.465 536.696 152.115 536.926 156.255C537.106 159.484 540.659 166.729 542.196 169.633C544.568 174.112 544.758 179.956 546.836 184.632C548.655 188.724 549.638 192.551 550.709 196.838C553.248 206.995 558.006 216.954 558.006 227.422C558.006 231.1 560.197 250.132 555.979 251.069C551.935 251.968 551.204 253.553 548.682 257.195C546.021 261.039 541.082 269.44 535.125 267.149C532.069 265.974 528.477 261.147 526.387 258.771C519.944 251.45 514.203 243.777 509.361 235.304C504.648 227.057 500.839 218.278 497.019 209.585C495.836 206.892 492.962 203.155 493.146 200.036C493.318 197.109 497.622 192.734 498.641 189.677C499.446 187.261 500.858 185.188 501.208 182.56C502.041 176.315 502.485 182.484 503.28 185.488C504.618 190.543 505.114 195.757 506.928 200.667C507.946 203.42 507.378 206.765 509 209.315C510.779 212.109 513.241 213.938 515.036 216.432C517.949 220.477 520.927 225.479 524.315 229.224C525.863 230.935 527.049 233.932 529.224 234.899C529.729 235.123 530.44 236.577 530.44 236.025C530.44 234.438 530.513 232.834 530.395 231.251C530.027 226.277 527.568 221.116 526.387 216.251C524.923 210.224 522.633 204.415 521.072 198.415C518.201 187.386 513.963 176.857 510.532 166.075C507.316 155.968 500.298 149.985 492.965 142.653C482.97 132.657 472.945 123.412 459.454 118.555C452.224 115.952 440.058 112.927 433.69 118.961C432.314 120.264 429.176 123.62 429.096 125.627C428.92 130.023 433.869 126.813 436.302 126.077C445.282 123.362 454.66 122.704 463.688 120.222C469.493 118.625 474.755 117.495 480.128 120.987C487.68 125.896 491.181 135.249 494.947 143.013C504.481 162.664 513.208 183.095 523.954 202.108C533.084 218.261 541.34 234.214 548.457 251.294C550.047 255.109 551.743 260.283 552.286 264.356C552.837 268.491 549.511 261.663 549.043 260.843C546.316 256.071 542.553 251.95 538.458 248.321C530.687 241.436 522.903 233.776 514.405 227.827C486.985 208.633 469.037 181.264 449.545 154.544C444.966 148.268 441.216 141.582 436.843 135.221C433.617 130.528 434.318 137.029 434.591 139.32C435.018 142.912 436.553 146.1 437.609 149.544C440.57 159.202 443.541 168.66 447.338 178.056C457.149 202.338 468.341 226.749 480.894 249.763C481.072 250.088 488.732 265.209 490.083 260.483C492.085 253.474 490.45 244.949 489.452 237.962C488.048 228.131 486.353 219.594 483.371 210.036C478.462 194.296 470.479 179.737 465.264 164.093C464.354 161.36 462.337 158.354 462.337 155.445C462.337 153.397 460.715 153.361 460.715 155.49C460.715 168.203 460.853 182.204 458.914 194.811C458.336 198.567 456.17 199.058 453.418 200.892C445.813 205.962 437.972 211.412 432.339 218.684C428.439 223.717 423.82 228.734 419.322 233.232C417.248 235.306 413.691 238.07 413.691 233.187C413.691 201.328 413.691 169.468 413.691 137.608C413.691 136.573 413.404 131.445 412.43 131.167C410.419 130.592 404.357 146.519 403.557 148.238C391.302 174.562 381.406 200.537 376.126 229.134C375.12 234.586 375.586 240.361 375.586 245.889C375.586 247.657 374.793 252.79 376.577 254.177C377.208 254.668 377.207 250.786 377.207 250.664C377.207 245.666 377.329 240.701 377.613 235.71C378.406 221.753 379.923 208.075 382.522 194.316C384.499 183.853 385.427 173.252 387.116 162.741C387.305 161.569 387.747 152.918 387.747 156.345C387.747 161.373 389.903 165.514 391.35 170.218C397.046 188.728 404.248 206.82 410.448 225.17C419.609 252.281 431.385 278.554 443.419 304.489C445.95 309.944 448.478 315.372 451.166 320.749C451.887 322.191 454.463 328.551 452.968 323.452C448.824 309.314 439.672 296.516 432.249 283.995C425.009 271.784 418.56 259.139 411.259 246.97C409.015 243.231 407.882 238.73 405.584 235.079C404.189 232.863 402.464 231.136 401.71 228.593C400.32 223.903 403.673 217.808 405.584 213.774C409.975 204.504 413.817 195.136 419.051 186.253C423.163 179.275 427.407 171.94 433.87 166.885C437.529 164.024 442.026 163.048 446.302 161.48C456.618 157.697 466.344 151.791 477.111 149.589C484.978 147.98 488.977 147.884 494.587 154.003C497.724 157.425 497.84 160.556 498.776 164.768C500.552 172.76 508.556 181.168 515.036 185.848C520.323 189.667 524.675 194.801 530.08 198.505C534.432 201.487 538.183 204.408 541.701 208.324C546.756 213.952 552.887 218.563 557.961 224.314C562.635 229.611 566.516 236.713 568.456 243.502C571.764 255.079 572.537 268.721 572.6 280.662C572.652 290.673 573.629 300.064 569.537 309.308C568.927 310.687 566.467 315.581 564.898 315.93C563.812 316.171 562.293 316.189 561.429 316.966C558.201 319.872 556.473 326.356 554.358 330.163C545.434 346.226 531.858 359.272 515.036 367.683C513.742 368.33 512.148 368.378 510.802 368.989C507.768 370.369 516.096 364.938 518.775 362.954C526.075 357.546 535.03 351.833 543.593 348.585C545.692 347.789 542.584 349.047 542.151 349.171C540.361 349.682 538.938 351.502 538.143 353.27C527.961 375.896 510.842 391.515 493.641 408.716C490.476 411.882 484.395 413.84 481.975 417.319C479.908 420.291 478.313 423.744 476.57 426.913C472.577 434.173 469.346 442.05 464.859 448.849C458.262 458.845 450.268 467.905 443.689 477.946C441.104 481.892 438.955 485.973 436.843 490.198C435.69 492.504 434.321 496.246 431.978 497.585C430.184 498.61 428.175 506.037 427.384 507.854C424.597 514.26 422.451 522.1 418.556 527.943C415.758 532.14 412.847 535.359 410.268 539.744C409.766 540.598 407.38 542.4 406.755 542.221C404.089 541.46 403.189 547.514 401.98 549.068C399.844 551.815 401.077 552.756 398.287 549.473C396.65 547.547 394.96 544.022 393.783 541.726C389.299 532.982 382.701 523.892 375.315 517.178C359.093 502.43 348.294 482.631 333.877 466.235C330.509 462.406 327.326 458.462 323.967 454.749C322.098 452.683 319.286 446.466 316.4 445.696C315.096 445.348 317.022 442.079 317.256 441.552C320.556 434.128 324.675 427.069 328.291 419.797C334.191 407.934 339.597 396.173 343.966 383.673C346.987 375.029 349.381 366.139 352.794 357.639C357.779 345.225 365.837 334.259 370.721 321.92C371.771 319.267 370.21 318.733 368.559 316.876C359.38 306.549 351.565 294.886 344.867 282.824C327.697 251.904 327.905 216.368 330.544 182.065C330.861 177.935 331.728 172.879 330.634 168.777C329.692 165.245 326.381 162.392 324.508 159.318C321.311 154.072 317.762 148.946 314.418 143.779C313.129 141.786 311.722 140.508 309.734 139.229C307.805 137.989 305.443 137.682 303.428 136.617C299.861 134.732 297.496 130.49 294.96 127.519C291.725 123.728 289.539 119.786 284.465 119.006C279.788 118.286 275.536 116.434 270.998 115.267C262.646 113.12 254.814 111.707 246.27 110.808C243.859 110.554 241.105 108.914 238.748 108.241C235.542 107.324 232.171 107.925 228.929 108.826C223.49 110.337 218.228 115.406 212.623 115.717C208.747 115.933 206.781 114.869 203.255 116.528C201.555 117.328 199.581 118.15 197.669 118.15C195.435 118.15 196.102 123.735 196.949 123.735C198.23 123.735 198.951 122.838 200.012 122.384C201.614 121.697 204.273 122.204 205.957 122.204C212.411 122.204 219.407 124.915 224.695 128.6C231.838 133.578 236.871 140.81 242.441 147.337C243.086 148.092 247.182 153.288 246.675 152.202C245.545 149.78 244.118 147.532 242.711 145.265C237.048 136.137 230.816 131.121 220.371 127.699C218.416 127.059 207.552 124.286 206.317 126.618C205.692 127.8 206.137 131.964 206.137 130.626C206.137 128.31 206.493 127.523 208.164 125.852C215.115 118.901 203.378 119.463 199.291 119.861C187.665 120.996 178.691 124.048 169.473 131.122C168.311 132.013 167.392 132.405 166.05 132.788C165.254 133.016 165.044 138.227 164.789 139.094C164.493 140.1 161.413 148.058 161.996 148.058C163.177 148.058 163.978 144.724 163.978 147.337C163.978 153.268 163.799 159.325 164.969 165.174C166.559 173.125 165.54 183.052 168.707 190.442C174.981 205.081 182.713 219.206 190.463 233.097C198.199 246.965 206.946 260.183 218.389 271.293C223.792 276.539 229.467 281.553 235.73 285.751C241.924 289.904 257.788 296.493 259.647 283.634C260.391 278.492 256.925 271.616 255.053 267.149C250.97 257.409 245.745 248.228 240.414 239.133C234.473 228.996 227.843 219.302 222.352 208.91C217.717 200.136 213.028 192.882 209.56 183.866C208.952 182.285 204.729 170.35 202.083 170.038C199.701 169.758 199.752 166.865 198.66 164.723C197.678 162.796 189.721 152.765 189.156 157.562C188.933 159.463 188.953 164.138 188.12 159.769C187.528 156.657 187.809 154.212 183.841 154.679C179.614 155.176 179.019 161.526 178.617 164.949C178.045 169.805 176.19 179.135 172.085 182.47C170.368 183.865 168.25 183.855 166.41 185.037C163.702 186.778 163.167 185.073 163.167 182.11C163.167 178.038 162.356 174.313 162.356 170.309C162.356 168.294 163.555 161.058 162.176 159.679C160.212 157.714 160.735 165.931 160.735 166.075C160.735 168.542 161.015 171.2 160.69 173.642C160.229 177.098 158.124 180.267 157.672 183.731C156.573 192.158 157.076 201.647 157.537 210.171C157.979 218.346 161.673 226.869 164.789 234.268C165.085 234.972 168.79 239.44 168.842 238.142C169.341 225.667 166.61 212.956 168.752 200.577C172.294 180.116 190.106 168.088 205.642 156.751C213.14 151.279 223.758 147.853 232.622 145.265C244.052 141.928 255.585 138.905 267.034 135.626C269.354 134.962 273.139 133.512 275.682 134.725C277.996 135.83 278.614 139.168 279.961 141.121C281.956 144.013 285.016 145.977 287.078 148.914C291.327 154.965 296.46 160.558 299.735 167.246C304.214 176.395 306.961 186.496 309.689 196.253C312.305 205.611 315.015 215.194 316.04 224.9C316.942 233.433 318.312 242.544 310.185 247.421C304.321 250.939 297.317 249.606 290.952 248.367C275.704 245.396 261.867 237.097 249.603 227.782C238.965 219.702 227.359 210.115 219.109 199.496C215.776 195.205 213.284 188.333 215.236 182.92C216.459 179.527 219.608 176.236 221.902 173.822C228.092 167.309 234.821 160.747 242.036 155.355C246.05 152.355 252.362 148.762 255.864 153.958C259.015 158.634 258.026 164.705 258.026 170.038C258.026 185.172 258.069 200.307 258.026 215.441C258.018 218.19 259.725 238.797 254.603 239.673C251.162 240.262 245.011 231.582 243.792 230.169C239.67 225.391 235.782 220.416 231.901 215.441C226.975 209.124 222.173 202.638 217.983 195.802C214.271 189.745 225.807 191.208 229.424 191.208C236.359 191.208 244.081 191.232 250.729 193.46C267.007 198.916 276.094 212.263 281.358 228.053C287.242 245.707 287.213 266.074 287.213 284.535C287.213 297.605 273.517 281.095 270.683 277.284C265.668 270.539 262.164 261.85 258.927 254.177C255.888 246.973 253.217 239.191 256.224 231.566C259.741 222.645 265.017 215.746 271.719 209.045C275.484 205.28 281.671 198.422 287.393 198.054C292.727 197.712 295.399 213.966 296.221 217.648C298.941 229.816 298.25 243.786 298.924 256.069C299.704 270.292 300.185 284.443 300.185 298.679C300.185 301.176 301.459 309.855 297.393 304.264C291.706 296.445 287.286 287.397 282.619 278.95C274.231 263.769 266.845 248.061 259.557 232.332C253.142 218.485 246.107 204.309 241 189.857C239.23 184.849 235.691 172.514 239.063 167.696C240.964 164.981 253.306 166.795 256.314 166.795C258.049 166.795 272.611 165.833 272.619 165.984C272.938 171.724 270.137 178.304 269.016 183.911C266.001 198.986 264.495 214.314 261.809 229.449C261.516 231.101 260.338 244.619 257.035 240.214C248.148 228.365 242.134 217.745 229.694 209.405C220.586 203.299 214.998 201.093 204.02 201.703C193.856 202.268 186.984 214.429 178.211 218.188C171.76 220.953 168.696 216.668 165.329 211.297C162.365 206.568 160.941 200.971 158.167 196.118C157.393 194.762 152.314 182.911 151.051 189.857C149.806 196.702 151.106 204.636 151.816 211.387C152.216 215.185 154.846 219.114 155.059 222.738C155.313 227.045 157.098 232.088 157.942 236.43C158.965 241.688 159.944 246.865 160.825 252.15C161.516 256.298 163.167 259.667 163.167 263.906C163.167 265.989 164.316 268.005 165.239 269.852C166.159 271.692 167.035 273.43 168.392 274.986C170.076 276.918 169.871 278.801 171.004 280.842C172.59 283.697 173.672 286.901 175.509 289.58C177.656 292.712 179.472 296.899 181.094 300.345C182.144 302.576 183.613 307.805 185.868 309.308C190.079 312.116 191.286 315.505 194.381 319.578C199.43 326.221 203.409 332.586 206.768 340.207C207.902 342.78 209.156 345.643 210.596 348.045C211.956 350.31 212.051 353.508 213.839 355.296C228.285 369.742 240.131 385.825 254.242 400.564C256.622 403.05 257.072 406.824 259.512 409.032C265.992 414.894 272.206 420.96 278.385 427.139C284.445 433.199 291.046 436.647 296.942 442.543C302.787 448.388 306.893 455.647 312.752 461.506C317.705 466.459 322.894 471.059 327.751 476.054C329.761 478.122 331.414 480.258 333.381 482.225C336.368 485.212 340.276 486.664 343.876 489.026C349.313 492.594 357.517 496.687 361.623 501.818C362.062 502.367 361.65 503.116 362.298 503.62C363.28 504.384 364.359 504.04 365.046 505.242C365.25 505.6 367.311 497.716 367.478 495.963C368.091 489.524 367.335 483.95 365.316 477.406C360.405 461.487 351.887 446.443 339.192 435.652C332.733 430.162 325.301 425.306 319.283 419.391C305.687 406.03 291.458 393.281 277.214 380.61C262.719 367.716 248.101 354.171 237.216 337.955C229.563 326.553 219.888 316.404 212.083 305.075C207.659 298.653 203.971 291.73 198.885 285.797C198.165 284.956 198.92 289.599 199.021 289.805C202.102 296.139 207.263 302.247 211.948 307.417C221.653 318.126 233.61 326.618 243.432 337.054C244.788 338.495 239.219 332.827 238.207 332.01C236.873 330.932 234.322 328.707 233.343 331.289C231.021 337.409 230.643 345.229 230.145 351.648C229.726 357.047 229.649 362.452 229.649 367.863C229.649 368.187 229.857 371.224 229.199 370.566C226.125 367.492 226.452 363.819 224.785 360.206C222.533 355.328 220.048 352.843 215.866 349.576C208.833 344.081 201.45 339.163 195.597 332.37C192.749 329.064 189.973 325.517 186.679 322.641C184.998 321.173 181.604 320.206 180.373 318.407C179.397 316.98 175.587 315.672 176.545 313.948C177.151 312.856 176.348 310.451 177.13 309.669C177.67 309.129 185.89 320.657 186.589 321.335C197.563 331.971 212.115 335.819 226.721 338.811C240.859 341.707 255.117 343.572 269.557 343.045C276.024 342.809 285.329 338.709 290.726 343.54C295.96 348.226 301.123 353.118 306.131 358.044C306.799 358.701 315.851 367.411 310.635 363.269C302.624 356.908 295.667 349.511 286.492 344.802C280.565 341.759 274.803 338.387 268.926 335.253C268.345 334.943 267.864 334.442 267.755 333.811C265.662 321.672 257.14 309.019 251.134 298.679C241.737 282.499 232.396 266.359 223.253 250.033C221.33 246.598 218.378 248.385 214.875 246.7C208.423 243.596 206.362 237.489 202.714 232.016C200.709 229.008 199.651 235.508 199.651 236.295C199.651 243.972 198.037 250.433 196.228 257.87C195.549 260.661 194.67 263.55 193.165 266.023C192.531 267.064 191.047 268.143 190.778 269.356C190.482 270.687 192.479 271.848 193.21 272.689C196.637 276.63 199.406 281.034 202.579 285.166C207.4 291.445 213.362 296.598 219.56 301.471C232.555 311.689 246.173 321.136 260.278 329.758C275.059 338.793 290.593 346.586 305.41 355.567C310.194 358.466 312.654 357.407 312.347 351.648C312.009 345.318 306.534 339.308 303.248 334.262C299.952 329.2 296.013 324.311 293.069 319.038C290.159 313.827 291.343 312.627 295.185 308.408C306.964 295.474 317.676 281.694 328.832 268.23C335.376 260.333 340.806 252.18 345.588 243.052C347.55 239.305 349.21 235.615 350.903 231.746C352.1 229.008 354.157 226.848 354.866 223.909C356.669 216.439 357.884 209.005 359.37 201.478C359.615 200.24 360.797 194.539 358.74 198.415C356.696 202.266 355.417 206.328 354.146 210.486C349.497 225.685 346.408 240.858 343.11 256.384C341.034 266.161 339.764 276.193 337.39 285.887C335.006 295.622 331.046 304.95 327.526 314.308C324.038 323.58 323.737 335.688 318.202 343.991C317.383 345.22 317.025 345.86 317.346 347.414C319.004 355.427 323.071 363.316 325.364 371.196C332.512 395.769 333.447 422.029 342.164 446.146C343.916 450.994 344.98 451.568 347.119 454.524C356.832 467.946 366.523 481.586 378.829 492.72C381.519 495.154 385.503 496.403 388.513 498.711C393.031 502.175 395.648 505.84 399.098 510.151C400.351 511.718 398.606 505.748 398.647 505.692C405.278 496.618 414.136 487.339 422.655 480.063C428.901 474.728 433.356 468.961 436.393 461.371C439.752 452.971 444.752 445.76 448.914 437.769C454.726 426.61 462.114 416.521 467.607 405.203C472.26 395.615 478.496 388.014 484.182 379.169C487.988 373.248 491.226 365.282 491.524 358.134C491.78 351.99 502.348 345.507 506.658 342.189C512.891 337.392 518.338 334.031 522.693 327.37C525.116 323.665 526.34 319.174 528.819 315.524C532.891 309.529 539.668 304.725 544.403 299.174C546.471 296.75 548.83 294.067 546.385 291.066C541.25 284.764 533.755 280.481 526.567 277.058C522.195 274.977 518.399 271.855 514.36 269.221C506.173 263.882 497.81 258.855 489.903 253.096C483.156 248.183 476.506 243.237 469.273 239.043C464.448 236.245 458.763 234.505 454.319 231.115C451.56 229.011 448.741 226.543 445.671 224.9C441.238 222.527 436.859 227.98 434.05 230.755C425.396 239.306 416.85 246.99 407.115 254.357C399.821 259.877 392.045 264.875 384.954 270.662C373.73 279.823 363.698 290.658 353.47 300.886C348.11 306.246 343.614 312.247 338.876 318.137C337.464 319.893 336.12 321.182 335.453 323.317C333.554 329.394 330.334 339.343 339.552 339.757C344.684 339.988 349.816 334.66 353.56 331.875C358.941 327.872 363.535 323.575 370.271 322.191C378.712 320.456 390.113 322.87 396.125 315.614C406.583 302.992 417.18 290.47 427.564 277.779C431.524 272.94 435.597 267.264 440.807 263.726C443.315 262.022 453.726 255.608 446.662 253.096C443.852 252.097 439.668 255.549 437.609 256.879C430.584 261.418 425.083 267.401 419.096 273.185C411.682 280.348 403.891 286.797 395.674 293.003C393.78 294.434 391.549 296.868 389.369 297.958C388.205 298.54 383.348 296.618 381.666 296.471C378.656 296.21 380.118 294.568 382.072 293.769C387.124 291.702 392.95 290.474 398.152 288.769C415.089 283.218 430.968 277.791 446.032 268.05C450.433 265.204 453.291 264.086 458.418 264.086C466.73 264.086 472.693 266.048 480.083 270.122C489.954 275.563 501.839 277.774 511.162 284.085C525.726 293.943 514.522 317.202 506.433 327.28C489.552 348.312 468.099 366.578 454.59 389.934C448.529 400.411 440.178 409.144 434.095 419.572C424.965 435.224 417.02 452.502 410.989 469.568C409.762 473.038 408.91 478.126 404.728 478.126C394.962 478.126 389.734 474.016 383.153 466.55C373.34 455.42 367.532 444.155 361.442 430.922C358.73 425.028 355.674 419.691 354.506 413.266C354.32 412.242 353.201 410.586 353.245 409.662C353.379 406.853 359.061 401.863 360.542 399.933C372.247 384.678 378.91 368.402 385.675 350.567C389.59 340.246 395.529 330.982 401.215 321.56C407.224 311.602 414.883 303.714 425.582 299.129C436.298 294.536 447.149 290.672 458.418 287.598C465.447 285.681 476.873 281.974 479.723 290.931C481.842 297.591 478.623 305.657 478.552 312.461C478.511 316.432 478.984 320.689 478.372 324.623C477.498 330.237 471.093 336.136 467.742 340.297C456.68 354.034 444.845 367.235 434.726 381.691C430.965 387.064 427.048 392.338 423.646 397.951C423.22 398.654 421.6 401.854 424.051 400.384C425.63 399.437 426.528 398.269 427.744 396.78C433.153 390.161 438.006 383.063 443.149 376.241C455.149 360.324 467.88 344.96 479.633 328.857C484 322.873 488.993 316.853 493.01 310.66C495.023 307.558 495.847 303.734 497.38 300.39C498.02 298.993 502.386 292.74 499.632 297.147C493.525 306.918 483.575 315.167 476.12 323.902C459.731 343.104 444.344 363.148 427.654 382.097C413.773 397.856 398.968 412.564 383.198 426.418C379.082 430.034 373.757 433.627 370.361 437.994C367.71 441.402 374.772 442.498 376.216 442.453C383.658 442.223 392.765 435.475 399.053 442.048C400.397 443.453 403.151 449.696 403.151 444.029C403.151 420.842 402.1 397.391 403.962 374.259C404.369 369.21 405.108 363.751 408.106 359.485C410.873 355.548 415.532 353.889 418.105 349.666C423.545 340.739 426.325 329.805 430.627 320.299C433.576 313.782 443.495 294.885 439.275 300.66C433.685 308.31 430.028 317.936 425.763 326.334C419.283 339.091 411.786 351.12 403.422 362.728C396.419 372.448 389.369 382.183 381.847 391.51C379.008 395.03 376.252 399.601 372.838 402.636C371.604 403.733 372.343 407.685 372.343 409.167C372.343 412.304 387.818 412.502 382.882 409.212" stroke="#FB0153" stroke-width="37" stroke-linecap="round"/>
<path d="M304.239 397.051C304.239 353.225 323.006 316.416 342.525 278.68C350.749 262.781 364.358 251.138 374.325 236.52C382.593 224.393 394.045 215.344 402.07 203.144C415.048 183.418 432.151 167.255 448.284 150.22C451.599 146.719 457.351 142.787 458.914 137.968C459.647 135.707 459.92 133.343 460.445 131.032C462.379 122.523 463.593 113.579 466.03 105.223C467.08 101.625 468.235 98.2124 469.228 94.6378C469.816 92.5206 469.829 88.3169 471.435 86.7104C472.052 86.0934 472.066 91.386 472.066 91.8001C472.066 94.3675 472.066 96.9349 472.066 99.5023" stroke="#FB0153" stroke-width="37" stroke-linecap="round"/>
<path fill-rule="evenodd" clip-rule="evenodd" d="M238.121 64.1935C255.354 57.5671 274.471 55.249 292.175 62.3087C293.121 62.6859 294.309 63.1254 295.611 63.6073C297.852 64.4372 300.434 65.3929 302.707 66.3723C306.451 67.9853 310.562 70.1217 313.537 73.1723C314.083 73.7327 314.989 74.4251 316.33 75.3371C316.768 75.635 317.293 75.9823 317.852 76.3523C318.766 76.957 319.771 77.6221 320.638 78.2307C322.123 79.2731 323.735 80.5057 325.077 81.9279C326.401 83.3314 327.758 85.2284 328.229 87.6425C328.598 89.5339 327.715 91.3841 326.167 92.2915C325.039 94.5053 323.346 96.3099 321.938 97.7001C321.348 98.2835 320.819 98.7856 320.335 99.246C319.456 100.08 318.722 100.778 318.023 101.574C316.914 102.838 316.039 104.533 314.975 106.784C314.887 106.97 314.797 107.162 314.704 107.359C313.793 109.301 312.651 111.735 311.11 113.71C305.863 120.435 302.917 126.195 298.862 134.511C297.443 137.422 296.293 140.535 295.056 143.896L295.018 144C293.819 147.257 292.533 150.754 290.905 154.092C290.24 155.454 289.215 156.882 288.506 157.869C288.308 158.144 288.136 158.384 288.002 158.579C287.176 159.787 286.951 160.385 286.908 160.78C286.828 161.519 286.674 162.321 286.373 163.108C286.764 163.353 287.155 163.643 287.513 163.983C291.368 167.643 295.363 170.453 300.034 173.74L300.292 173.921C303.853 176.427 307.221 179.797 310.269 182.845C311.366 183.942 312.421 184.997 313.428 185.956C317.518 189.848 321.264 192.67 325.595 193.656C327.357 194.058 329.034 194.762 330.39 195.961C331.815 197.221 332.663 198.834 332.974 200.576C333.534 203.714 332.276 206.791 331.186 208.896C329.998 211.19 328.415 213.419 327.13 215.155C326.724 215.705 326.44 216.083 326.178 216.431C325.928 216.763 325.698 217.069 325.402 217.47C324.886 218.17 324.648 218.528 324.568 218.671C321.832 223.579 317.563 229.199 312.828 234.185C308.121 239.142 302.674 243.77 297.488 246.429C295.46 247.468 293.327 248.045 291.575 248.467C292.383 249.23 293.239 250.036 294.105 250.848C296.08 252.7 298.097 254.575 299.698 256.044C300.499 256.78 301.188 257.405 301.71 257.872C302.144 258.259 302.377 258.459 302.462 258.532C302.494 258.56 302.505 258.569 302.497 258.563C307.033 261.921 311.496 265.897 315.629 269.605C316.358 270.259 317.234 271.023 318.186 271.853C319.879 273.329 321.81 275.012 323.57 276.65C326.318 279.209 329.226 282.169 331.102 285.106C331.154 285.145 331.281 285.233 331.527 285.357C332.069 285.628 332.799 285.882 333.848 286.21C333.991 286.254 334.142 286.301 334.299 286.349C335.169 286.617 336.239 286.947 337.209 287.337C338.342 287.792 339.824 288.507 341.034 289.748C342.033 290.772 342.231 291.952 342.28 292.446C342.335 293.001 342.278 293.451 342.242 293.681C342.167 294.156 342.035 294.554 341.961 294.762C341.797 295.228 341.574 295.721 341.374 296.141C340.956 297.02 340.379 298.112 339.808 299.168C339.286 300.133 338.78 301.048 338.342 301.84C337.742 302.928 337.269 303.783 337.057 304.217C334.604 309.248 330.748 313.426 327.53 316.913C326.978 317.511 326.444 318.09 325.94 318.648C325.352 319.299 324.779 320.21 324.084 321.501C323.904 321.834 323.703 322.221 323.486 322.637C322.974 323.619 322.378 324.763 321.788 325.746C320.714 327.537 319.244 329.538 317.094 330.943C317.594 331.268 318.132 331.609 318.706 331.962C321.431 333.64 324.489 335.323 326.905 336.609C328.108 337.249 329.139 337.784 329.878 338.165C330.114 338.287 330.311 338.388 330.48 338.474C330.581 338.527 330.673 338.574 330.757 338.617C330.86 338.67 330.955 338.719 331.028 338.757C331.062 338.775 331.109 338.8 331.157 338.826C331.179 338.838 331.224 338.863 331.278 338.895C331.304 338.91 331.355 338.94 331.418 338.979C331.439 338.993 331.627 339.11 331.841 339.286C333.98 341.04 336.858 341.834 340.845 342.803C341.001 342.841 341.159 342.879 341.32 342.918C344.835 343.768 349.391 344.869 352.972 347.807C353.842 348.52 354.394 348.769 354.64 348.864C354.775 348.915 354.886 348.948 355.052 348.991L355.078 348.998C355.152 349.018 355.323 349.062 355.469 349.106L355.471 349.107C355.614 349.15 356.062 349.285 356.549 349.568C357.088 349.881 358.006 350.567 358.505 351.861C358.987 353.112 358.797 354.212 358.652 354.756C358.442 355.552 358.011 356.252 357.907 356.421C357.899 356.433 357.894 356.442 357.89 356.449C357.819 356.566 357.744 356.689 357.664 356.82C357.34 357.35 356.928 358.025 356.35 359.111C354.364 362.844 352.221 365.328 350.021 367.45C349.151 368.289 348.251 369.091 347.404 369.845C347.225 370.005 347.048 370.163 346.874 370.318C345.852 371.233 344.866 372.134 343.863 373.162C342.111 374.959 339.559 377.74 337.132 380.724C334.656 383.769 332.517 386.776 331.399 389.07C330.004 391.93 328.084 393.594 326.306 394.797C325.707 395.202 325.047 395.603 324.499 395.935C324.318 396.045 324.15 396.147 323.999 396.24C323.911 396.294 323.826 396.347 323.742 396.4C324.581 396.693 325.367 397.058 326.073 397.427C327.467 398.154 328.849 399.055 330.1 399.917C331.004 400.541 331.81 401.117 332.537 401.637C334.041 402.712 335.207 403.546 336.213 404.061C336.683 404.302 337.15 404.541 337.614 404.779C341.593 406.815 345.397 408.761 349.33 411.066C349.323 411.061 349.319 411.059 349.32 411.059C349.32 411.059 349.397 411.1 349.599 411.196C349.817 411.299 350.105 411.429 350.466 411.589C351.027 411.837 351.702 412.129 352.48 412.465C352.71 412.564 352.948 412.667 353.195 412.774C355.33 413.698 358.015 414.871 360.548 416.099C363.012 417.293 365.608 418.67 367.426 420.031C368.242 420.642 369.435 421.63 370.159 422.989C370.559 423.74 370.989 424.93 370.78 426.373C370.559 427.898 369.728 429.001 368.887 429.691C368.915 429.668 368.894 429.69 368.821 429.767C368.69 429.907 368.388 430.228 367.896 430.792C367.246 431.536 366.454 432.481 365.68 433.441C364.902 434.407 364.177 435.345 363.649 436.082C363.433 436.382 363.274 436.616 363.165 436.785C362.288 439.878 360.07 441.731 358.858 442.742C358.814 442.78 358.77 442.816 358.729 442.851C357.094 444.22 356.943 444.487 356.883 444.704C356.433 446.319 355.49 447.643 354.656 448.619C353.781 449.643 352.733 450.616 351.693 451.504C350.476 452.545 348.954 453.722 347.528 454.826C346.671 455.49 345.848 456.126 345.146 456.691C343.153 458.294 341.825 459.542 341.147 460.48C348.395 468.001 355.526 477.173 360.554 487.197C362.319 490.717 364.167 494.184 366.024 497.668C368.887 503.04 371.771 508.451 374.408 514.159C375.454 516.424 375.919 518.725 376.254 520.386C376.313 520.678 376.368 520.95 376.422 521.198C376.809 523.003 377.175 524.09 377.952 525.086C378.871 526.264 379.443 527.712 379.776 528.901C380.115 530.11 380.355 531.585 380.249 532.993C380.197 533.68 380.04 534.678 379.515 535.665C378.931 536.762 377.796 537.967 376.006 538.305C374.411 538.605 373.078 538.059 372.275 537.604C371.431 537.126 370.68 536.472 370.022 535.798C364.897 530.542 358.515 526.108 351.614 521.645C350.274 520.778 348.91 519.908 347.533 519.03C341.956 515.473 336.18 511.787 331.004 507.705C317.776 497.272 304.654 486.321 291.665 475.48C289.33 473.531 287 471.586 284.674 469.649C274.876 461.486 266.269 452.407 257.971 443.306C256.272 441.442 254.588 439.581 252.91 437.726C246.342 430.464 239.862 423.301 232.877 416.479C225.755 409.525 219.786 401.191 214.191 392.974C213.148 391.443 212.12 389.919 211.1 388.406C206.569 381.688 202.193 375.199 197.374 369.36C192.76 363.768 187.958 358.591 183.041 353.289C180.781 350.853 178.497 348.39 176.196 345.849C165.068 333.561 158.034 318.461 151.376 304.165C149.807 300.798 148.26 297.476 146.684 294.245C133.17 266.532 132 235.771 132 206.351C132 188.299 132.796 170.933 138.203 153.023C140.708 144.725 145.658 137.285 151.197 130.742C156.718 124.22 163.044 118.339 168.52 113.248L168.587 113.185C189.186 94.0359 210.745 74.7197 238.121 64.1935ZM316.949 399.329C316.939 399.332 316.939 399.332 316.949 399.329ZM280.933 160.97C280.933 160.97 280.942 160.974 280.957 160.982C280.941 160.975 280.933 160.971 280.933 160.97ZM318.821 87.8624C318.089 87.1174 317.084 86.3216 315.825 85.4378C314.998 84.8574 314.24 84.357 313.444 83.8324C312.869 83.453 312.275 83.0608 311.622 82.6166C310.252 81.6853 308.715 80.5815 307.513 79.3488C305.756 77.5471 302.924 75.9408 299.407 74.4251C297.221 73.4834 295.196 72.7386 293.189 72.0007C291.828 71.5003 290.475 71.003 289.088 70.4496C273.98 64.4255 257.145 66.2075 241.112 72.3723C215.452 82.2387 194.988 100.433 174.31 119.656C168.76 124.816 162.786 130.377 157.631 136.468C152.47 142.564 148.353 148.939 146.341 155.606C141.326 172.217 140.519 188.505 140.519 206.351C140.519 235.793 141.779 264.655 154.304 290.339C156.033 293.883 157.682 297.417 159.315 300.915C165.94 315.104 172.282 328.691 182.439 339.906C184.591 342.282 186.794 344.658 189.013 347.05C194.016 352.446 199.1 357.929 203.877 363.717C208.991 369.914 213.656 376.835 218.197 383.571C219.195 385.051 220.186 386.522 221.175 387.974C226.746 396.154 232.3 403.854 238.752 410.154C245.948 417.181 252.656 424.597 259.243 431.881C260.899 433.712 262.547 435.535 264.194 437.341C272.444 446.389 280.723 455.102 290.046 462.869C292.384 464.817 294.721 466.768 297.06 468.719C310.052 479.563 323.07 490.428 336.198 500.782C341.005 504.573 346.32 507.965 351.859 511.5C353.279 512.407 354.714 513.322 356.158 514.257C360.138 516.83 364.165 519.529 367.978 522.492C367.938 522.302 367.9 522.118 367.864 521.94C367.524 520.3 367.286 519.147 366.709 517.898C364.125 512.306 361.501 507.393 358.768 502.276C356.897 498.772 354.974 495.172 352.978 491.192C348.334 481.934 341.575 473.268 334.568 466.084C333.205 464.687 332.328 462.875 332.322 460.777C332.316 458.837 333.059 457.196 333.827 455.982C335.304 453.647 337.771 451.521 339.888 449.818C340.894 449.009 341.828 448.289 342.715 447.605C343.965 446.641 345.118 445.752 346.239 444.794C347.131 444.032 347.796 443.393 348.249 442.862C348.587 442.467 348.695 442.261 348.712 442.232C349.592 439.175 351.886 437.284 353.081 436.3C353.174 436.224 353.26 436.152 353.338 436.087C354.823 434.843 354.945 434.537 354.995 434.308C355.2 433.362 355.698 432.55 355.859 432.288L355.875 432.261C356.139 431.829 356.459 431.361 356.786 430.906C357.446 429.986 358.282 428.909 359.113 427.878C359.638 427.226 360.174 426.576 360.683 425.975C359.647 425.371 358.361 424.701 356.907 423.996C354.552 422.854 352.015 421.744 349.883 420.822C349.651 420.722 349.423 420.623 349.2 420.527C348.413 420.187 347.688 419.874 347.09 419.609C346.409 419.308 345.62 418.952 345.104 418.65C341.39 416.474 337.805 414.639 333.799 412.589C333.34 412.354 332.875 412.116 332.404 411.874C330.81 411.057 328.808 409.626 327.048 408.369C326.443 407.937 325.867 407.525 325.346 407.166C324.19 406.369 323.143 405.699 322.211 405.212C321.235 404.703 320.655 404.541 320.399 404.512C319.776 404.441 319.195 404.252 318.869 404.139C318.462 403.998 318.026 403.823 317.594 403.632C316.734 403.252 315.737 402.744 314.8 402.167C313.938 401.634 312.813 400.854 311.958 399.862C311.54 399.378 310.908 398.529 310.612 397.352C310.261 395.949 310.463 394.318 311.495 392.957C312.535 391.586 313.988 391.12 314.495 390.964C315.125 390.77 315.807 390.644 316.232 390.566L316.302 390.553C316.779 390.465 317.061 390.41 317.274 390.354C318.101 389.705 318.911 389.185 319.608 388.755C319.874 388.591 320.11 388.447 320.328 388.315C320.811 388.022 321.202 387.785 321.616 387.505C322.633 386.817 323.274 386.199 323.779 385.164C325.356 381.93 328.021 378.289 330.589 375.131C333.206 371.913 335.937 368.937 337.839 366.986C339.053 365.741 340.215 364.683 341.275 363.736C341.475 363.556 341.67 363.382 341.861 363.213C342.701 362.463 343.448 361.798 344.183 361.089C345.798 359.531 347.243 357.865 348.626 355.378C348.311 355.152 347.986 354.903 347.651 354.628C345.686 353.017 342.941 352.289 338.88 351.302L338.65 351.247C335.148 350.396 330.618 349.296 326.883 346.397C326.688 346.296 326.39 346.143 326.052 345.969C325.293 345.578 324.227 345.025 322.981 344.362C320.501 343.042 317.266 341.264 314.321 339.451C311.549 337.745 308.484 335.684 306.796 333.774C306.348 333.268 305.787 332.544 305.404 331.635C305.015 330.711 304.624 329.109 305.375 327.378C306.107 325.69 307.486 324.902 308.383 324.55C309.295 324.192 310.249 324.062 311.071 324.013C312.344 323.936 313.235 323.332 314.532 321.171C314.989 320.409 315.366 319.683 315.802 318.842C316.05 318.366 316.316 317.854 316.627 317.277C317.393 315.855 318.37 314.174 319.689 312.714C320.305 312.032 320.911 311.371 321.505 310.724C324.744 307.195 327.597 304.086 329.438 300.311C329.737 299.697 330.427 298.446 331.155 297.126C331.565 296.382 331.988 295.616 332.359 294.929C332.368 294.913 332.376 294.897 332.385 294.882C332.24 294.836 332.089 294.79 331.932 294.741C331.752 294.686 331.565 294.627 331.368 294.566C330.332 294.243 329.009 293.816 327.791 293.207C326.583 292.602 325.068 291.623 324.013 289.95C322.784 288.004 320.562 285.649 317.843 283.117C316.146 281.537 314.482 280.088 312.89 278.702C311.902 277.842 310.941 277.006 310.019 276.178C305.852 272.44 301.674 268.728 297.51 265.644C296.947 265.228 295.517 263.93 294.016 262.553C292.386 261.057 290.346 259.16 288.356 257.294C286.367 255.429 284.417 253.585 282.969 252.196C282.248 251.504 281.636 250.911 281.202 250.479C280.991 250.269 280.79 250.066 280.633 249.898C280.566 249.827 280.442 249.693 280.317 249.539L280.314 249.536C280.27 249.482 280.102 249.276 279.933 248.994C279.875 248.896 279.62 248.476 279.456 247.876C279.376 247.581 279.221 246.91 279.343 246.058C279.487 245.06 280.021 243.861 281.196 243.058C283.606 241.411 286.336 240.747 288.358 240.264C288.474 240.237 288.589 240.209 288.702 240.182C290.773 239.689 292.29 239.327 293.678 238.616C297.66 236.574 302.339 232.71 306.724 228.091C311.082 223.502 314.872 218.463 317.171 214.337C317.561 213.638 318.123 212.858 318.606 212.202C318.805 211.934 319.124 211.507 319.453 211.068C319.777 210.636 320.109 210.193 320.343 209.876C321.593 208.187 322.817 206.431 323.662 204.8C324.079 203.993 324.345 203.327 324.484 202.808C324.525 202.658 324.55 202.535 324.566 202.438C324.397 202.364 324.135 202.272 323.747 202.183C317.087 200.666 311.94 196.456 307.634 192.359C306.261 191.053 304.993 189.784 303.779 188.57C300.936 185.725 298.387 183.175 295.471 181.123C295.322 181.019 295.174 180.914 295.025 180.809C290.54 177.655 286.14 174.56 281.867 170.526C281.801 170.494 281.626 170.409 281.29 170.285C280.868 170.13 280.505 170.017 280.07 169.882C279.777 169.79 279.451 169.689 279.052 169.557C278.639 169.42 278.149 169.25 277.676 169.044C277.247 168.858 276.572 168.535 275.937 168.01C275.331 167.508 274.168 166.316 274.07 164.359C273.972 162.412 274.999 161.084 275.595 160.473C276.617 159.426 277.745 158.954 278.619 158.72C279.096 156.53 280.193 154.784 281.027 153.564C281.428 152.978 281.762 152.513 282.047 152.116C282.602 151.343 282.972 150.828 283.285 150.186C284.701 147.283 285.848 144.174 287.085 140.813L287.119 140.721C288.319 137.459 289.609 133.954 291.242 130.604C295.333 122.217 298.61 115.748 304.458 108.253C305.365 107.091 306.093 105.548 307.134 103.343C307.192 103.222 307.25 103.099 307.309 102.974C308.335 100.803 309.669 98.0341 311.691 95.7307C312.647 94.6419 313.865 93.4816 314.9 92.4951C315.315 92.0999 315.701 91.7326 316.028 91.409C317.384 90.0705 318.219 89.0639 318.651 88.1776C318.704 88.0693 318.761 87.9642 318.821 87.8624ZM278.409 160.023C278.409 160.022 278.41 160.016 278.413 160.004C278.411 160.017 278.409 160.023 278.409 160.023ZM317.449 390.299C317.453 390.298 317.444 390.303 317.42 390.311C317.436 390.304 317.446 390.3 317.449 390.299Z" fill="black"/>
<path fill-rule="evenodd" clip-rule="evenodd" d="M540.255 114.647C542.439 113.749 544.918 114.841 545.792 117.084C550.342 128.77 554.061 140.759 557.731 152.589L557.769 152.711C561.467 164.631 565.118 176.392 569.576 187.839C570.146 189.304 570.851 190.883 571.641 192.617C571.759 192.878 571.88 193.142 572.002 193.409C572.676 194.887 573.394 196.461 574.068 198.048C575.641 201.751 577.179 205.982 577.555 210.231C579.229 229.149 579.064 248.561 578.904 267.505C578.857 273.057 578.81 278.569 578.81 284.016C578.81 285.165 578.837 286.532 578.868 288.096C578.875 288.421 578.881 288.754 578.888 289.096C578.926 291.053 578.96 293.23 578.946 295.451C578.917 299.803 578.701 304.664 577.813 308.543C574.037 325.028 565.916 339.021 557.025 352.044C553.925 356.585 550.775 360.954 547.665 365.267C541.688 373.557 535.86 381.641 530.821 390.342C525.182 400.078 518.388 409.189 511.491 417.984C509.48 420.548 507.468 423.076 505.471 425.585C500.557 431.759 495.733 437.82 491.233 444.033C490.635 444.858 490.037 445.683 489.438 446.509C479.109 460.761 468.621 475.233 459.388 489.934C452.032 501.647 445.078 512.04 435.214 522.173C431.944 525.533 430.885 528.763 429.729 534.106C429.332 535.942 428.667 537.819 427.416 539.26C425.967 540.927 423.971 541.72 421.862 541.478C420.062 541.271 418.563 540.356 417.498 539.536C416.372 538.669 415.318 537.584 414.372 536.478C410.67 532.151 407.081 525.634 405.668 523.02C405.298 522.336 404.898 521.581 404.472 520.777C403.466 518.876 402.315 516.704 401.074 514.552C399.246 511.382 397.602 508.953 396.447 507.875C392.556 504.241 389.736 499.645 387.277 495.639C387.033 495.24 386.792 494.848 386.554 494.463C383.784 489.979 381.309 486.3 377.886 483.743C374.942 481.544 373.374 478.564 373.374 475.163C373.374 472.106 374.648 469.287 376.012 467.037C378.09 463.609 381.325 460.089 383.731 457.47C384.415 456.726 385.032 456.054 385.536 455.478C388.836 451.712 391.997 447.306 395.369 442.606L395.602 442.282C399.009 437.534 402.623 432.519 406.593 428.032C408.176 426.244 410.87 426.112 412.61 427.738C414.351 429.364 414.479 432.131 412.897 433.919C409.267 438.021 405.902 442.677 402.459 447.475L402.113 447.957C398.832 452.531 395.453 457.242 391.868 461.333C391.09 462.221 390.275 463.11 389.457 464.003C387.151 466.519 384.823 469.058 383.244 471.664C382.203 473.38 381.893 474.519 381.893 475.163C381.893 475.464 381.909 475.928 382.897 476.666C387.783 480.317 391.012 485.347 393.747 489.773C393.965 490.126 394.18 490.475 394.392 490.82C396.978 495.019 399.188 498.608 402.177 501.399C404.403 503.478 406.624 507.006 408.403 510.09C409.728 512.388 411.016 514.819 412.045 516.762C412.445 517.517 412.806 518.199 413.115 518.77C414.579 521.478 417.762 527.183 420.772 530.702C421.049 531.026 421.31 531.313 421.554 531.566C422.788 526 424.356 520.951 429.19 515.985C438.387 506.537 444.943 496.792 452.23 485.189C461.623 470.232 472.272 455.54 482.56 441.346C483.174 440.498 483.787 439.653 484.398 438.809C489.022 432.426 494.039 426.122 499.002 419.886C500.972 417.411 502.932 414.947 504.857 412.493C511.696 403.773 518.18 395.053 523.499 385.868C528.746 376.808 535.035 368.079 541.173 359.558C544.218 355.332 547.225 351.158 550.05 347.019C558.741 334.29 566.118 321.391 569.52 306.538C570.173 303.688 570.399 299.675 570.427 295.392C570.441 293.294 570.408 291.213 570.37 289.269C570.364 288.945 570.358 288.624 570.352 288.306C570.32 286.742 570.291 285.263 570.291 284.016C570.291 278.395 570.338 272.769 570.386 267.147C570.544 248.282 570.703 229.464 569.071 211.023C568.824 208.237 567.757 205.073 566.26 201.547C565.636 200.078 564.974 198.626 564.299 197.147C564.174 196.874 564.049 196.599 563.923 196.324C563.135 194.592 562.336 192.811 561.666 191.09C557.079 179.309 553.34 167.257 549.66 155.394L549.652 155.369C545.954 143.447 542.315 131.719 537.882 120.335C537.008 118.091 538.071 115.544 540.255 114.647Z" fill="black"/>
<path fill-rule="evenodd" clip-rule="evenodd" d="M424.775 66.1986C433.863 60.683 444.389 58 454.771 58C476.457 58 499.525 62.8472 516.663 79.0274C518.156 80.4368 519.759 81.8917 521.411 83.3921C526.071 87.6229 531.128 92.215 535.25 97.1665C540.969 104.036 545.49 112.24 545.49 122.5C545.49 124.903 543.58 126.851 541.223 126.851C538.866 126.851 536.956 124.903 536.956 122.5C536.956 115.082 533.752 108.814 528.744 102.798C525.038 98.3464 520.665 94.3755 516.152 90.2769C514.4 88.6865 512.628 87.0769 510.865 85.4126C495.969 71.35 475.429 66.702 454.771 66.702C445.794 66.702 436.8 69.0277 429.141 73.6761C426.486 75.287 423.387 76.7688 420.489 78.1542C419.232 78.755 418.013 79.3378 416.885 79.9051C412.889 81.9143 409.569 83.9223 407.207 86.4719C405.959 87.8193 404.379 89.9194 402.936 92.2026C401.475 94.5143 400.338 96.7234 399.811 98.274C399.511 99.1594 399.4 100.091 399.29 101.49C399.281 101.602 399.272 101.718 399.263 101.838C399.169 103.088 399.039 104.802 398.553 106.536C397.897 108.877 396.246 110.374 395.771 110.804C395.719 110.851 395.681 110.886 395.66 110.907C395.646 110.921 395.634 110.934 395.623 110.946C395.62 110.989 395.617 111.047 395.617 111.12C395.617 113.523 393.707 115.471 391.35 115.471C388.993 115.471 387.083 113.523 387.083 111.12C387.083 109.712 387.33 108.417 387.875 107.233C388.412 106.066 389.122 105.267 389.628 104.751C390.079 104.291 390.296 104.072 390.39 103.985C390.596 103.176 390.663 102.322 390.77 100.96C390.774 100.906 390.778 100.851 390.782 100.796C390.894 99.3771 391.056 97.4591 391.746 95.4275C392.595 92.9284 394.143 90.0497 395.762 87.4883C397.399 84.8985 399.295 82.3401 401.003 80.4969C404.465 76.7592 408.948 74.1932 413.11 72.1004C414.593 71.3547 416.005 70.6809 417.357 70.0359C420.041 68.755 422.486 67.5881 424.775 66.1986ZM395.637 110.831C395.638 110.832 395.637 110.835 395.635 110.84C395.637 110.834 395.637 110.831 395.637 110.831Z" fill="black"/>
<path d="M307.296 106.941C307.296 124.14 298 137.216 290.861 152.286C289.35 155.477 288.454 158.78 286.843 162.002C285.379 164.93 282.111 169.262 281.445 172.259C280.708 175.572 279.265 181.246 282.224 183.835C285.039 186.298 282.464 176.358 282.464 172.619C282.464 170.085 282.141 167.314 282.524 164.821C282.862 162.628 283.61 149.558 281.624 156.364C281.111 158.125 284.778 152.354 285.103 151.146C286.001 147.812 285.882 144.387 286.783 141.009C287.441 138.54 290.022 137.014 290.022 134.472C290.022 133.136 290.283 128.18 288.342 131.533C283.555 139.802 283.751 152.149 285.463 161.283C286.363 166.081 287.352 170.772 287.922 175.618C288.12 177.295 288.212 182.745 289.542 184.075C291.453 185.986 291.981 183.433 293.261 182.755C296.14 181.231 300.778 187.507 302.737 188.993C305.691 191.234 306.471 196.064 309.995 197.63C312.38 198.69 315.014 203.189 316.893 205.068C317.521 205.697 321.235 209.842 320.251 206.267C317.749 197.168 312.205 188.091 307.776 179.816C305.714 175.965 303.327 171.852 299.978 168.96C296.546 165.995 292.518 163.704 288.942 160.923C283.108 156.385 287.987 164.452 289.602 166.381C301.889 181.057 314.812 195.16 325.41 211.186C326.035 212.131 334.16 224.74 334.287 222.462C334.753 214.071 328.94 205.814 325.89 198.35C324.745 195.55 321.73 185.954 319.172 184.675" stroke="#FB0153" stroke-width="19" stroke-linecap="round"/>
<path d="M304.057 222.462C304.057 212.545 304.057 242.295 304.057 252.212C304.057 258.203 303.32 263.116 307.776 267.807C310.904 271.1 316.276 276.148 316.952 280.882C317.865 287.267 320.095 291.925 324.57 296.897C326.994 299.59 328.943 303.072 331.647 305.354C334.619 307.861 333.377 304.971 333.147 301.635C332.125 286.823 330.172 271.91 328.828 257.13C328.554 254.113 325.866 238.1 324.33 248.853C321.145 271.148 318.511 295.647 322.411 318.07C322.929 321.05 323.66 343.114 326.729 333.185C329.588 323.936 328.727 314.049 329.428 304.514C330.276 292.983 330.069 281.485 329.128 269.966C328.778 265.675 328.888 261.372 328.888 257.07C328.888 251.109 328.957 258.116 328.828 260.309C327.089 289.873 327.809 319.611 327.809 349.259C327.809 354.938 326.866 365.205 329.968 370.132C336.059 379.806 341.652 390.735 346.702 401.022C350.012 407.762 354.157 414.292 357.799 420.875C359.488 423.929 360.718 426.488 362.837 429.212C365.493 432.627 367.457 434.418 371.534 436.23C373.89 437.277 379.088 436.9 380.711 438.929C381.708 440.176 385.326 439.55 386.949 440.548C389.064 441.85 391.414 442.96 393.667 444.027C396.383 445.314 403.184 445.723 397.745 443.547C391.314 440.975 387.609 438.594 380.231 438.389C373.134 438.192 366.114 437.06 358.878 437.309C355.596 437.423 348.288 440.938 347.302 444.387C346.749 446.324 344.946 440.548 347.782 440.548C350.577 440.548 356.53 444.558 358.518 446.546C363.991 452.019 368.678 461.717 375.313 465.62C377.604 466.968 380.513 470.192 382.63 472.098C385.024 474.252 388.066 474.345 390.908 475.157C391.83 475.42 391.777 478.005 390.188 476.416C389.091 475.32 389.605 474.017 387.729 474.017C385.913 474.017 378.471 471.358 381.791 469.699" stroke="#FB0153" stroke-width="61" stroke-linecap="round"/>
<path d="M347.094 483.228C349.583 485.468 351.647 487.781 353.958 490.092C356.857 492.991 359.799 495.599 362.382 498.828C363.537 500.271 364.924 501.511 366.144 502.884C366.775 503.594 367.795 505.036 368.623 505.45C370.682 506.479 365.815 501.442 365.815 499.14" stroke="#FB0153" stroke-linecap="round"/>
<path d="M402.007 498.828C402.007 503.341 402.007 507.853 402.007 512.366C402.007 513.885 402.007 515.405 402.007 516.925C402.007 517.865 401.709 518.21 402.163 517.393C403.077 515.747 403.375 513.504 403.584 511.621C403.604 511.443 404.151 509.223 404.434 509.506C404.742 509.814 404.503 511.232 404.503 511.638C404.503 514.645 404.582 517.663 404.503 520.669C404.451 522.649 403.879 524.634 403.879 526.597C403.879 528.18 403.879 529.763 403.879 531.346C403.879 532.708 403.409 535.096 404.191 536.269" stroke="#FB0153" stroke-width="25" stroke-linecap="round"/>
<path d="M337.794 470.386C337.86 471.583 338.852 472.168 339.582 473.034C340.362 473.959 340.944 475.033 341.713 475.956C344.796 479.656 347.799 483.443 350.945 487.097C353.789 490.399 356.389 494.154 359.696 496.999C360.937 498.067 362.881 500.022 363.719 501.469C364.088 502.107 364.531 503.117 365.197 503.497C366.247 504.097 367.446 506.012 368.584 506.265C369.522 506.474 369.048 504.738 369.048 503.807" stroke="#FB0153" stroke-width="25" stroke-linecap="round"/>
<path d="M373.999 512.162C374.81 512.252 375.446 513.281 376.165 513.641C377.11 514.113 377.708 514.494 378.641 515.257C379.801 516.206 380.785 517.31 381.873 518.334C382.535 518.957 382.55 519.898 383.592 519.898" stroke="#FB0153" stroke-width="25" stroke-linecap="round"/>
<path d="M409.586 515.566C409.586 517.468 409.586 519.371 409.586 521.274C409.586 522.161 410.112 525.276 409.517 526.018C408.788 526.93 408.708 528.512 407.884 529.336C407.547 529.674 407.142 530.233 407.111 530.729C407.1 530.901 407.456 529.856 407.729 529.491" stroke="#FB0153" stroke-width="25" stroke-linecap="round"/>
<path d="M298.702 98.204C300.332 98.4297 302.167 98.6017 303.71 99.2055C304.811 99.6366 305.884 100.199 306.986 100.603C309.634 101.574 311.633 103.29 313.836 104.992C314.48 105.49 315.085 106.058 315.74 106.538C317.423 107.772 314.984 105.349 314.652 105.029C312.102 102.572 309.054 100.517 306.281 98.3152C305.947 98.0496 304.068 96.9655 304.068 96.5471C304.068 96.0597 306.167 96.9728 306.22 96.9922C308.741 97.9311 311.488 98.9829 313.75 100.442C315.401 101.507 317.351 102.981 319.301 103.335C319.864 103.438 321.19 104.771 320.018 103.991C318.502 102.98 316.867 102.188 315.27 101.307C312.771 99.9283 311.066 97.5827 308.594 96.2009C307.515 95.5983 308.732 96.1095 309.162 96.3246C311.654 97.5702 314.196 99.6765 316.161 101.641C317.401 102.881 318.423 104.28 319.623 105.548C320.445 106.418 320.858 107.815 322.071 108.219" stroke="#FB0153" stroke-width="25" stroke-linecap="round"/>
<path d="M391.417 110.324C391.192 112.354 389.202 114.913 388.302 116.652C385.13 122.782 382.788 129.207 380.22 135.59C379.373 137.697 378.119 139.616 377.251 141.724C376.411 143.762 376.232 146.011 375.742 148.15C375.479 149.295 375.008 153.58 373.892 154.138" stroke="black" stroke-width="8" stroke-linecap="round"/>
<path d="M321.314 87.1021C322.868 87.2747 325.643 91.4116 326.475 92.7979C327.686 94.8167 329.146 96.8322 330.491 98.7372C331.426 100.062 332.716 102.692 333.144 104.19C333.656 105.98 335.166 107.597 336.017 109.253C337.049 111.261 337.932 113.342 338.986 115.338C345.416 127.516 350.768 140.205 356.658 152.604C358.495 156.472 359.409 160.652 361.234 164.532C361.883 165.911 362.158 169.099 363.376 169.911" stroke="black" stroke-width="8" stroke-linecap="round"/>
<path d="M363.275 171.863C363.275 173.166 363.916 174.323 364.41 175.507C364.75 176.324 365.478 177.397 365.498 178.286C365.51 178.79 365.521 179.194 365.63 179.684C365.729 180.132 365.761 178.774 365.807 178.317C366.077 175.645 367.043 172.808 367.938 170.296C369.116 166.991 370.183 163.64 371.459 160.374C372.523 157.65 373.305 154.872 374.949 152.407" stroke="black" stroke-width="8" stroke-linecap="round"/>
<path d="M366.904 528.056C367.832 528.159 369.033 529.412 369.776 529.914C372.289 531.612 374.148 533.357 376.259 535.468C379.249 538.458 382.495 541.315 385.551 544.233C386.69 545.319 388.569 546.633 389.31 547.992C389.866 549.011 391.706 549.696 392.499 550.695C393.304 551.708 394.302 552.59 395.012 553.715C395.323 554.206 396.554 555.488 396.554 555.425" stroke="black" stroke-width="8" stroke-linecap="round"/>
<path d="M426.101 536.457C424.923 536.457 424.515 537.425 423.638 537.972C421.161 539.521 419.275 542.098 417.219 544.107C414.685 546.586 412.485 549.401 410.179 552.084C407.374 555.348 405.081 559.015 402.234 562.218" stroke="black" stroke-width="8" stroke-linecap="round"/>
<path d="M402.613 561.65C402.496 560.718 400.653 559.561 400.003 558.998C399.122 558.235 398.263 557.633 397.309 556.956C396.328 556.261 394.847 555.593 394.847 554.262" stroke="black" stroke-width="8" stroke-linecap="round"/>
</svg>
