<svg width="675" height="600" viewBox="0 0 675 600" fill="none" xmlns="http://www.w3.org/2000/svg">
<path fill-rule="evenodd" clip-rule="evenodd" d="M238.121 64.1935C255.354 57.5671 274.471 55.249 292.175 62.3087C293.121 62.6859 294.309 63.1254 295.611 63.6073C297.852 64.4372 300.434 65.3929 302.707 66.3723C306.451 67.9853 310.562 70.1217 313.537 73.1723C314.083 73.7327 314.989 74.4251 316.33 75.3371C316.768 75.635 317.293 75.9823 317.852 76.3523C318.766 76.957 319.771 77.6221 320.638 78.2307C322.123 79.2731 323.735 80.5057 325.077 81.9279C326.401 83.3314 327.758 85.2284 328.229 87.6425C328.598 89.5339 327.715 91.3841 326.167 92.2914C325.039 94.5053 323.346 96.3099 321.938 97.7001C321.348 98.2835 320.819 98.7856 320.335 99.246C319.456 100.08 318.722 100.778 318.023 101.574C316.914 102.838 316.039 104.533 314.975 106.784C314.887 106.97 314.797 107.162 314.704 107.359C313.793 109.301 312.651 111.735 311.11 113.71C305.863 120.435 302.917 126.195 298.862 134.511C297.442 137.422 296.293 140.535 295.056 143.896L295.018 144C293.819 147.257 292.533 150.754 290.905 154.092C290.24 155.454 289.215 156.882 288.506 157.869C288.308 158.144 288.136 158.384 288.002 158.579C287.176 159.787 286.951 160.385 286.908 160.78C286.828 161.519 286.674 162.321 286.373 163.108C286.764 163.353 287.155 163.643 287.513 163.983C291.368 167.643 295.363 170.453 300.034 173.74L300.292 173.921C303.853 176.427 307.221 179.797 310.269 182.845C311.366 183.942 312.421 184.997 313.428 185.956C317.518 189.848 321.264 192.67 325.595 193.656C327.357 194.058 329.034 194.762 330.39 195.961C331.815 197.221 332.663 198.834 332.974 200.576C333.534 203.714 332.276 206.791 331.186 208.896C329.998 211.19 328.415 213.419 327.13 215.155C326.724 215.705 326.44 216.083 326.178 216.431C325.928 216.763 325.698 217.069 325.402 217.47C324.886 218.17 324.648 218.528 324.568 218.671C321.832 223.579 317.563 229.199 312.828 234.185C308.121 239.142 302.674 243.77 297.488 246.429C295.46 247.468 293.327 248.045 291.575 248.467C292.383 249.23 293.239 250.036 294.105 250.848C296.08 252.7 298.097 254.575 299.698 256.044C300.499 256.78 301.188 257.405 301.71 257.872C302.144 258.259 302.377 258.459 302.462 258.532C302.494 258.56 302.505 258.569 302.497 258.563C307.033 261.921 311.496 265.897 315.629 269.605C316.358 270.259 317.234 271.023 318.186 271.853C319.879 273.329 321.81 275.012 323.57 276.65C326.318 279.209 329.226 282.169 331.102 285.106C331.154 285.145 331.281 285.233 331.527 285.357C332.069 285.628 332.799 285.882 333.848 286.21C333.991 286.254 334.142 286.301 334.299 286.349C335.169 286.617 336.239 286.947 337.209 287.337C338.342 287.792 339.824 288.507 341.034 289.748C342.033 290.772 342.231 291.952 342.28 292.446C342.335 293.001 342.278 293.451 342.242 293.681C342.167 294.156 342.035 294.554 341.961 294.762C341.797 295.228 341.574 295.721 341.374 296.141C340.956 297.02 340.379 298.112 339.808 299.168C339.286 300.133 338.78 301.048 338.342 301.84C337.742 302.928 337.269 303.783 337.057 304.217C334.604 309.248 330.748 313.426 327.53 316.913C326.978 317.511 326.444 318.09 325.94 318.648C325.352 319.299 324.779 320.21 324.084 321.501C323.904 321.834 323.703 322.221 323.486 322.637C322.974 323.619 322.378 324.763 321.788 325.746C320.714 327.537 319.244 329.538 317.094 330.943C317.594 331.268 318.132 331.609 318.706 331.962C321.431 333.64 324.489 335.323 326.905 336.609C328.107 337.249 329.139 337.784 329.878 338.165C330.114 338.287 330.311 338.388 330.48 338.474C330.581 338.527 330.673 338.574 330.757 338.617C330.86 338.67 330.955 338.719 331.028 338.757C331.062 338.775 331.109 338.8 331.157 338.826C331.179 338.838 331.224 338.863 331.278 338.895C331.304 338.91 331.355 338.94 331.418 338.979C331.439 338.993 331.627 339.11 331.841 339.286C333.98 341.04 336.858 341.834 340.845 342.803C341.001 342.841 341.159 342.879 341.32 342.918C344.835 343.768 349.391 344.869 352.972 347.807C353.842 348.52 354.394 348.769 354.64 348.864C354.775 348.915 354.886 348.948 355.052 348.991L355.078 348.998C355.152 349.018 355.323 349.062 355.469 349.106L355.471 349.107C355.614 349.15 356.062 349.285 356.549 349.568C357.088 349.881 358.006 350.567 358.505 351.861C358.987 353.112 358.797 354.212 358.652 354.756C358.442 355.552 358.011 356.252 357.907 356.421C357.899 356.433 357.894 356.442 357.89 356.449C357.819 356.566 357.744 356.689 357.664 356.82C357.34 357.35 356.928 358.025 356.35 359.111C354.364 362.844 352.221 365.328 350.021 367.45C349.151 368.289 348.251 369.091 347.404 369.845C347.225 370.005 347.048 370.163 346.874 370.318C345.852 371.233 344.866 372.134 343.863 373.162C342.111 374.959 339.559 377.74 337.132 380.724C334.656 383.769 332.517 386.776 331.399 389.07C330.004 391.93 328.084 393.594 326.306 394.797C325.707 395.202 325.047 395.602 324.499 395.935C324.318 396.045 324.149 396.147 323.999 396.24C323.911 396.294 323.826 396.347 323.742 396.4C324.581 396.693 325.367 397.058 326.073 397.427C327.467 398.154 328.849 399.055 330.1 399.917C331.004 400.541 331.81 401.117 332.537 401.637C334.041 402.712 335.207 403.546 336.213 404.061C336.683 404.302 337.15 404.541 337.614 404.779C341.593 406.815 345.397 408.761 349.33 411.066C349.323 411.061 349.319 411.059 349.32 411.059C349.32 411.059 349.397 411.1 349.599 411.196C349.817 411.299 350.105 411.429 350.466 411.589C351.027 411.837 351.702 412.129 352.48 412.465C352.71 412.564 352.948 412.667 353.195 412.774C355.33 413.698 358.015 414.871 360.548 416.099C363.012 417.293 365.608 418.67 367.426 420.031C368.241 420.642 369.435 421.63 370.159 422.989C370.559 423.74 370.989 424.93 370.78 426.373C370.558 427.898 369.728 429.001 368.887 429.691C368.915 429.668 368.894 429.69 368.821 429.767C368.69 429.907 368.388 430.228 367.896 430.792C367.246 431.536 366.454 432.481 365.68 433.441C364.902 434.407 364.177 435.345 363.648 436.082C363.433 436.382 363.274 436.616 363.165 436.785C362.288 439.878 360.07 441.731 358.858 442.742C358.814 442.78 358.77 442.816 358.729 442.851C357.094 444.22 356.943 444.487 356.883 444.704C356.433 446.319 355.49 447.643 354.656 448.619C353.781 449.643 352.733 450.616 351.693 451.504C350.475 452.545 348.954 453.722 347.528 454.826C346.671 455.49 345.848 456.126 345.146 456.691C343.153 458.294 341.825 459.542 341.147 460.48C348.395 468.001 355.526 477.173 360.554 487.197C362.319 490.717 364.167 494.184 366.024 497.668C368.887 503.04 371.771 508.451 374.408 514.159C375.454 516.424 375.919 518.725 376.254 520.386C376.313 520.678 376.368 520.95 376.422 521.198C376.809 523.003 377.175 524.09 377.952 525.086C378.871 526.264 379.443 527.712 379.776 528.901C380.115 530.11 380.355 531.585 380.249 532.993C380.197 533.68 380.04 534.678 379.515 535.665C378.931 536.762 377.796 537.967 376.006 538.304C374.411 538.605 373.078 538.059 372.275 537.604C371.431 537.126 370.68 536.472 370.022 535.798C364.897 530.542 358.515 526.108 351.614 521.645C350.274 520.778 348.91 519.908 347.533 519.03C341.956 515.473 336.18 511.787 331.004 507.705C317.776 497.272 304.654 486.321 291.665 475.48C289.33 473.531 287 471.586 284.674 469.649C274.875 461.486 266.269 452.407 257.971 443.306C256.272 441.442 254.588 439.581 252.91 437.726C246.342 430.464 239.862 423.301 232.877 416.479C225.755 409.525 219.786 401.191 214.19 392.974C213.148 391.443 212.12 389.919 211.1 388.406C206.569 381.688 202.193 375.199 197.374 369.36C192.76 363.768 187.958 358.591 183.041 353.289C180.781 350.853 178.497 348.39 176.196 345.849C165.068 333.561 158.034 318.461 151.376 304.165C149.807 300.798 148.26 297.476 146.684 294.245C133.17 266.532 132 235.771 132 206.351C132 188.299 132.796 170.933 138.203 153.023C140.708 144.725 145.658 137.285 151.197 130.742C156.718 124.22 163.044 118.339 168.52 113.248L168.587 113.185C189.186 94.0359 210.745 74.7197 238.121 64.1935ZM316.949 399.329C316.939 399.332 316.938 399.332 316.948 399.329ZM313.038 327.824C313.039 327.823 313.043 327.829 313.05 327.839C313.042 327.829 313.038 327.824 313.038 327.824ZM280.933 160.97C280.933 160.97 280.942 160.974 280.957 160.982C280.941 160.975 280.933 160.971 280.933 160.97ZM318.821 87.8624C318.089 87.1174 317.084 86.3216 315.825 85.4378C314.998 84.8574 314.24 84.357 313.444 83.8324C312.869 83.453 312.275 83.0608 311.622 82.6166C310.252 81.6853 308.715 80.5815 307.513 79.3488C305.756 77.5471 302.924 75.9408 299.407 74.4251C297.221 73.4834 295.196 72.7386 293.189 72.0007C291.828 71.5003 290.475 71.003 289.088 70.4496C273.98 64.4255 257.145 66.2075 241.112 72.3723C215.452 82.2387 194.988 100.433 174.31 119.656C168.76 124.816 162.786 130.377 157.631 136.468C152.47 142.564 148.353 148.939 146.341 155.606C141.326 172.217 140.519 188.505 140.519 206.351C140.519 235.793 141.779 264.655 154.304 290.339C156.033 293.883 157.682 297.417 159.315 300.915C165.94 315.104 172.282 328.691 182.439 339.906C184.591 342.282 186.794 344.658 189.013 347.05C194.016 352.446 199.1 357.929 203.877 363.717C208.991 369.914 213.656 376.835 218.197 383.571C219.195 385.051 220.186 386.522 221.175 387.974C226.746 396.154 232.3 403.854 238.752 410.154C245.948 417.181 252.656 424.597 259.243 431.881C260.899 433.712 262.547 435.534 264.194 437.341C272.444 446.389 280.723 455.102 290.046 462.869C292.384 464.817 294.721 466.768 297.06 468.719C310.052 479.563 323.07 490.428 336.198 500.782C341.005 504.573 346.32 507.965 351.859 511.5C353.279 512.407 354.714 513.322 356.158 514.257C360.138 516.83 364.165 519.529 367.978 522.492C367.938 522.302 367.9 522.118 367.864 521.94C367.524 520.3 367.286 519.147 366.709 517.898C364.125 512.306 361.501 507.393 358.768 502.276C356.897 498.772 354.974 495.172 352.978 491.192C348.334 481.934 341.575 473.268 334.568 466.084C333.205 464.687 332.328 462.875 332.322 460.777C332.316 458.837 333.059 457.196 333.827 455.982C335.304 453.647 337.771 451.521 339.888 449.818C340.894 449.009 341.828 448.289 342.715 447.605C343.965 446.641 345.118 445.752 346.239 444.794C347.131 444.032 347.796 443.393 348.249 442.862C348.587 442.467 348.695 442.261 348.712 442.232C349.592 439.175 351.886 437.284 353.081 436.3C353.174 436.224 353.26 436.153 353.338 436.087C354.823 434.843 354.945 434.537 354.995 434.308C355.2 433.362 355.698 432.55 355.858 432.288L355.875 432.261C356.139 431.829 356.459 431.361 356.786 430.906C357.446 429.986 358.282 428.909 359.113 427.877C359.638 427.226 360.174 426.576 360.683 425.975C359.647 425.371 358.361 424.701 356.907 423.996C354.552 422.854 352.015 421.744 349.883 420.822C349.651 420.722 349.423 420.623 349.2 420.527C348.413 420.187 347.688 419.874 347.09 419.609C346.409 419.308 345.62 418.952 345.104 418.65C341.39 416.474 337.805 414.639 333.799 412.589C333.34 412.354 332.875 412.116 332.404 411.874C330.81 411.057 328.808 409.626 327.048 408.369C326.443 407.937 325.867 407.525 325.346 407.166C324.19 406.369 323.143 405.699 322.211 405.212C321.235 404.703 320.655 404.541 320.399 404.512C319.776 404.441 319.195 404.252 318.869 404.139C318.461 403.998 318.026 403.823 317.594 403.632C316.734 403.252 315.737 402.744 314.8 402.167C313.938 401.634 312.813 400.853 311.958 399.862C311.54 399.378 310.907 398.529 310.612 397.352C310.261 395.949 310.463 394.318 311.495 392.957C312.535 391.586 313.988 391.12 314.494 390.964C315.125 390.77 315.807 390.644 316.232 390.566L316.302 390.553C316.779 390.465 317.061 390.41 317.274 390.354C318.101 389.705 318.911 389.185 319.608 388.755C319.874 388.591 320.11 388.447 320.328 388.315C320.811 388.022 321.202 387.785 321.616 387.505C322.633 386.817 323.274 386.199 323.779 385.164C325.356 381.93 328.021 378.289 330.589 375.131C333.206 371.913 335.936 368.937 337.839 366.986C339.053 365.741 340.215 364.683 341.275 363.736C341.475 363.556 341.67 363.382 341.861 363.213C342.701 362.463 343.448 361.798 344.183 361.089C345.798 359.531 347.243 357.865 348.626 355.378C348.311 355.152 347.986 354.903 347.651 354.628C345.686 353.017 342.941 352.289 338.88 351.302L338.65 351.247C335.148 350.396 330.618 349.296 326.883 346.397C326.688 346.296 326.39 346.144 326.052 345.969C325.293 345.578 324.226 345.025 322.981 344.362C320.501 343.042 317.266 341.264 314.321 339.451C311.549 337.745 308.484 335.684 306.796 333.774C306.348 333.268 305.787 332.544 305.404 331.635C305.015 330.711 304.624 329.109 305.375 327.378C306.106 325.69 307.486 324.902 308.383 324.55C309.295 324.192 310.249 324.062 311.07 324.013C312.344 323.936 313.235 323.332 314.531 321.171C314.989 320.409 315.366 319.683 315.802 318.842C316.05 318.366 316.316 317.854 316.627 317.277C317.393 315.855 318.37 314.174 319.689 312.714C320.305 312.032 320.911 311.371 321.505 310.724C324.744 307.195 327.597 304.086 329.438 300.311C329.737 299.697 330.427 298.446 331.155 297.126C331.565 296.382 331.988 295.616 332.359 294.929C332.368 294.913 332.376 294.897 332.385 294.882C332.24 294.836 332.089 294.79 331.932 294.741C331.752 294.686 331.565 294.627 331.368 294.566C330.332 294.243 329.009 293.816 327.791 293.207C326.583 292.602 325.068 291.623 324.013 289.95C322.784 288.004 320.562 285.649 317.843 283.117C316.146 281.537 314.482 280.088 312.89 278.702C311.902 277.842 310.941 277.006 310.019 276.178C305.852 272.44 301.674 268.728 297.51 265.644C296.947 265.228 295.517 263.93 294.016 262.553C292.386 261.057 290.346 259.159 288.356 257.294C286.367 255.429 284.417 253.585 282.969 252.196C282.248 251.504 281.636 250.911 281.202 250.479C280.991 250.269 280.79 250.066 280.633 249.898C280.566 249.827 280.442 249.693 280.317 249.539L280.314 249.536C280.27 249.482 280.102 249.276 279.933 248.994C279.875 248.896 279.62 248.476 279.456 247.876C279.376 247.581 279.221 246.91 279.343 246.058C279.487 245.06 280.021 243.861 281.196 243.058C283.606 241.411 286.336 240.747 288.358 240.264C288.474 240.237 288.589 240.209 288.702 240.182C290.773 239.689 292.29 239.327 293.678 238.616C297.66 236.574 302.339 232.71 306.724 228.091C311.082 223.502 314.872 218.463 317.171 214.337C317.561 213.638 318.123 212.858 318.606 212.202C318.805 211.934 319.124 211.507 319.453 211.068C319.777 210.636 320.109 210.193 320.343 209.876C321.593 208.187 322.817 206.431 323.662 204.8C324.079 203.993 324.345 203.327 324.484 202.808C324.525 202.658 324.55 202.535 324.566 202.438C324.397 202.364 324.135 202.272 323.747 202.183C317.087 200.666 311.94 196.456 307.633 192.359C306.261 191.053 304.993 189.784 303.779 188.57C300.936 185.725 298.387 183.175 295.471 181.123C295.322 181.019 295.174 180.914 295.025 180.809C290.54 177.655 286.14 174.56 281.867 170.526C281.801 170.494 281.626 170.409 281.29 170.285C280.868 170.13 280.505 170.017 280.07 169.882C279.777 169.79 279.451 169.689 279.052 169.557C278.639 169.42 278.149 169.25 277.676 169.044C277.247 168.858 276.572 168.535 275.937 168.01C275.331 167.508 274.168 166.316 274.07 164.359C273.972 162.412 274.999 161.084 275.595 160.473C276.617 159.426 277.745 158.954 278.619 158.72C279.095 156.53 280.193 154.784 281.027 153.564C281.428 152.978 281.762 152.513 282.047 152.116C282.602 151.343 282.972 150.828 283.285 150.186C284.701 147.283 285.848 144.174 287.085 140.813L287.119 140.721C288.319 137.459 289.609 133.954 291.242 130.604C295.333 122.217 298.61 115.748 304.458 108.253C305.365 107.091 306.093 105.548 307.134 103.343C307.192 103.222 307.25 103.099 307.309 102.974C308.335 100.803 309.669 98.0341 311.691 95.7307C312.647 94.6419 313.865 93.4816 314.9 92.4951C315.315 92.0999 315.701 91.7326 316.028 91.409C317.384 90.0705 318.219 89.0639 318.651 88.1776C318.704 88.0693 318.761 87.9642 318.821 87.8624ZM278.409 160.023C278.409 160.022 278.41 160.016 278.413 160.004C278.411 160.017 278.409 160.023 278.409 160.023ZM317.449 390.299C317.453 390.298 317.444 390.303 317.42 390.311C317.436 390.304 317.446 390.3 317.449 390.299Z" fill="black"/>
<path fill-rule="evenodd" clip-rule="evenodd" d="M403.295 90.8606C405.686 90.8606 407.623 92.8135 407.623 95.2225C407.623 99.6956 405.819 104.123 403.756 107.805C401.65 111.565 399.009 115.008 396.789 117.618C392.594 122.551 389.423 128.4 386.102 134.742C384.768 137.29 383.353 139.756 381.99 142.133C381.819 142.431 381.648 142.728 381.479 143.024C379.944 145.704 378.483 148.291 377.162 150.954C375.739 153.822 373.561 155.966 371.941 157.561C371.862 157.638 371.785 157.714 371.71 157.789C369.894 159.58 368.732 160.804 368.039 162.279C366.74 165.043 366.729 166.417 366.843 166.858C366.868 166.952 366.885 166.994 366.998 167.085C367.167 167.223 367.629 167.512 368.66 167.743C371.557 168.392 374.415 170.092 376.662 171.57C377.706 172.257 378.735 172.976 379.666 173.628C379.782 173.71 379.898 173.79 380.011 173.869C381.064 174.605 381.959 175.223 382.743 175.708C384.104 176.551 385.491 177.393 386.893 178.244C394.313 182.746 402.164 187.509 408.829 194.045C409.361 194.567 411.754 196.537 413.98 198.231C415.493 198.615 416.89 199.483 417.994 200.875L418 200.882C418.129 201.045 418.526 201.544 418.801 202.203L418.807 202.216C418.904 202.446 419.389 203.601 419.021 205.053C418.79 205.964 418.249 206.865 417.372 207.512C416.566 208.107 415.753 208.286 415.241 208.34C414.322 208.437 413.605 208.213 413.412 208.152C413.112 208.058 412.868 207.948 412.718 207.877C412.411 207.731 412.128 207.565 411.917 207.435C411.72 207.313 411.503 207.172 411.273 207.017C410.711 207.272 410.081 207.639 409.337 208.101C409.218 208.175 409.087 208.257 408.947 208.345C408.323 208.739 407.52 209.244 406.848 209.583C404.134 210.951 402.041 213.621 399.345 217.409C399.191 217.625 399.035 217.845 398.875 218.07C396.525 221.388 393.553 225.583 389.32 228.093C386.37 229.842 383.426 233.166 380.18 237.375C379.468 238.298 378.734 239.274 377.985 240.271C375.567 243.49 372.987 246.925 370.422 249.509C370.29 249.642 370.225 249.733 370.196 249.783C370.201 249.822 370.215 249.888 370.248 249.988C370.477 250.681 371.237 251.835 372.847 253.418C374.376 254.921 376.274 256.436 378.231 257.946C378.548 258.191 378.873 258.44 379.2 258.69C380.763 259.888 382.381 261.128 383.561 262.204C385.683 264.139 388.174 266.002 390.913 268.05C392.002 268.865 393.13 269.708 394.289 270.597C398.156 273.561 402.294 276.983 405.178 280.981C406.198 282.394 407.894 283.525 410.496 285.186C410.575 285.236 410.656 285.288 410.738 285.34C412.789 286.646 415.645 288.465 417.533 291.146C417.779 291.323 418.109 291.55 418.544 291.849L418.652 291.923C419.559 292.544 420.814 293.404 421.867 294.266C422.412 294.711 423.035 295.262 423.568 295.875C423.958 296.325 424.946 297.511 425.131 299.199C425.244 300.225 425.052 301.405 424.343 302.472C423.683 303.466 422.806 304.013 422.146 304.309C420.941 304.851 419.628 304.93 418.657 304.93C416.15 304.93 414.763 304.931 413.542 305.203C412.561 305.42 411.617 305.84 410.399 306.999C401.65 315.327 393.274 323.751 385.107 332.416C385.523 332.675 386.051 332.98 386.711 333.33C387.466 333.731 388.265 334.129 389.123 334.556L389.41 334.699C390.35 335.166 391.358 335.672 392.304 336.193C393.241 336.709 394.227 337.299 395.107 337.964C395.945 338.596 396.966 339.501 397.683 340.729C398.388 341.937 399.9 343.453 402.072 345.21C403.105 346.046 404.192 346.863 405.278 347.669C405.455 347.801 405.634 347.934 405.813 348.066C406.7 348.724 407.595 349.387 408.378 350.001C408.376 349.999 408.377 350 408.379 350.002C408.389 350.009 408.422 350.034 408.492 350.085C408.573 350.145 408.681 350.223 408.814 350.319C409.079 350.509 409.423 350.754 409.823 351.037C410.621 351.601 411.614 352.299 412.589 352.983C413.56 353.665 414.515 354.334 415.224 354.835C415.577 355.084 415.88 355.298 416.097 355.454C416.202 355.53 416.306 355.605 416.392 355.669C416.427 355.695 416.499 355.749 416.576 355.811C416.6 355.831 416.708 355.916 416.832 356.033L416.836 356.036C416.88 356.077 417.069 356.253 417.272 356.508L417.273 356.51C417.351 356.607 417.649 356.983 417.884 357.543C417.975 357.761 419.008 360.254 416.956 362.323C415.995 363.292 414.766 363.685 414.345 363.819L414.335 363.822C413.688 364.029 412.971 364.192 412.294 364.326C410.969 364.589 409.346 364.825 407.827 365.046L407.71 365.063C406.094 365.299 404.571 365.522 403.304 365.768C402.263 365.97 401.738 366.128 401.554 366.183C401.477 366.207 401.459 366.212 401.49 366.194C401.223 366.348 400.612 366.854 399.59 367.972C398.881 368.748 398.164 369.602 397.376 370.538C397.085 370.885 396.785 371.242 396.472 371.611C395.384 372.894 394.141 374.319 392.886 375.462C391.899 376.362 390.276 377.696 388.242 378.136C388.176 378.183 388.091 378.248 387.986 378.334C387.476 378.75 386.785 379.421 385.953 380.347C384.304 382.182 382.398 384.687 380.685 387.283C378.954 389.905 377.556 392.418 376.812 394.268C376.773 394.363 376.738 394.454 376.705 394.542C382.106 398.12 386.939 402.858 391.391 407.221C392.213 408.026 393.022 408.819 393.819 409.589C399.697 415.271 405.042 419.873 411.132 421.919C413.4 422.681 414.625 425.151 413.869 427.437C413.113 429.722 410.662 430.957 408.395 430.195C400.253 427.46 393.659 421.522 387.828 415.886C386.948 415.035 386.086 414.192 385.235 413.361C380.202 408.441 375.595 403.937 370.378 400.844C367.727 399.272 367.604 396.43 367.697 395.174C367.803 393.736 368.279 392.261 368.79 390.991C369.845 388.367 371.597 385.302 373.477 382.452C375.376 379.575 377.542 376.711 379.537 374.491C380.528 373.388 381.552 372.359 382.54 371.554C383.033 371.151 383.589 370.745 384.185 370.409C384.676 370.133 385.404 369.783 386.29 369.623C386.388 369.56 386.646 369.388 387.08 368.992C387.88 368.263 388.804 367.226 389.892 365.943C390.141 365.649 390.401 365.34 390.669 365.021C391.491 364.043 392.381 362.984 393.223 362.062C394.29 360.894 395.672 359.498 397.195 358.62C398.529 357.852 400.375 357.452 401.668 357.201C402.138 357.11 402.629 357.023 403.131 356.939C403.106 356.92 403.084 356.903 403.064 356.887C402.382 356.352 401.602 355.774 400.716 355.117C400.53 354.979 400.339 354.838 400.143 354.692C399.045 353.877 397.836 352.97 396.653 352.013C394.419 350.206 391.851 347.89 390.281 345.253C390.243 345.214 390.135 345.11 389.917 344.945C389.512 344.64 388.933 344.278 388.154 343.849C387.384 343.425 386.525 342.992 385.576 342.52L385.285 342.375C384.444 341.957 383.538 341.506 382.676 341.048C380.938 340.125 378.581 338.783 377.104 336.95C376.288 335.938 375.449 334.422 375.486 332.488C375.522 330.521 376.447 328.949 377.511 327.814C386.202 318.539 395.12 309.543 404.456 300.656C406.536 298.677 408.646 297.498 410.946 296.865C410.824 296.716 410.7 296.547 410.585 296.361C409.891 295.242 408.491 294.232 405.866 292.556C405.755 292.486 405.642 292.414 405.527 292.341C403.315 290.934 400.251 288.985 398.178 286.112C396.106 283.24 392.88 280.478 389.049 277.54C388.101 276.814 387.104 276.068 386.089 275.309C383.223 273.166 380.211 270.914 377.753 268.673C376.874 267.871 375.64 266.924 374.086 265.731C373.73 265.459 373.358 265.173 372.97 264.874C371.004 263.357 368.739 261.566 366.802 259.662C364.947 257.837 362.94 255.482 362.035 252.744C361.555 251.29 361.351 249.626 361.74 247.879C362.13 246.121 363.049 244.603 364.301 243.341C366.407 241.219 368.458 238.491 370.774 235.411C371.594 234.321 372.446 233.187 373.346 232.02C376.557 227.857 380.391 223.265 384.931 220.573C387.539 219.027 389.532 216.227 392.311 212.324L392.312 212.323C394.818 208.803 398.054 204.261 402.977 201.78C403.202 201.667 403.463 201.508 403.861 201.259C403.412 200.873 403.042 200.542 402.793 200.297C396.907 194.526 390.052 190.357 382.636 185.848C381.182 184.964 379.706 184.067 378.212 183.142C377.194 182.511 376.11 181.759 375.078 181.038C374.962 180.957 374.846 180.876 374.73 180.795C373.787 180.135 372.865 179.49 371.932 178.876C369.736 177.432 368.017 176.535 366.782 176.259C362.862 175.381 359.53 173.159 358.469 169.063C357.555 165.54 358.696 161.78 360.216 158.544C361.641 155.513 363.887 153.298 365.552 151.656C365.586 151.622 365.621 151.588 365.655 151.555C367.505 149.729 368.692 148.52 369.42 147.053C370.868 144.133 372.445 141.347 373.983 138.663C374.154 138.363 374.325 138.065 374.495 137.768C375.868 135.375 377.196 133.059 378.447 130.67C381.732 124.396 385.307 117.715 390.217 111.941C392.234 109.57 394.489 106.603 396.219 103.515C397.993 100.348 398.967 97.4876 398.967 95.2225C398.967 92.8135 400.905 90.8606 403.295 90.8606ZM417.054 301.62C417.123 301.701 417.101 301.692 417.036 301.601C417.043 301.608 417.049 301.614 417.054 301.62ZM411.854 355.456C411.856 355.457 411.825 355.471 411.751 355.496C411.814 355.468 411.851 355.455 411.854 355.456ZM388.408 378.025C388.426 378.015 388.423 378.018 388.4 378.029C388.403 378.027 388.406 378.026 388.408 378.025ZM370.192 249.739C370.192 249.739 370.193 249.743 370.192 249.749C370.192 249.742 370.192 249.739 370.192 249.739ZM370.179 249.812C370.176 249.822 370.174 249.827 370.173 249.827C370.173 249.827 370.175 249.822 370.179 249.812Z" fill="black"/>
<path fill-rule="evenodd" clip-rule="evenodd" d="M540.255 114.647C542.439 113.749 544.918 114.841 545.792 117.084C550.342 128.77 554.061 140.759 557.731 152.589L557.769 152.711C561.467 164.631 565.118 176.392 569.576 187.839C570.146 189.304 570.851 190.883 571.641 192.617C571.759 192.878 571.88 193.142 572.002 193.409C572.676 194.887 573.394 196.461 574.068 198.048C575.641 201.751 577.179 205.982 577.555 210.231C579.229 229.149 579.064 248.561 578.904 267.505C578.857 273.057 578.81 278.569 578.81 284.016C578.81 285.165 578.837 286.532 578.868 288.096C578.875 288.421 578.881 288.754 578.888 289.096C578.926 291.053 578.96 293.23 578.946 295.451C578.917 299.803 578.701 304.664 577.813 308.543C574.037 325.028 565.916 339.021 557.025 352.044C553.925 356.585 550.775 360.954 547.665 365.267C541.688 373.557 535.86 381.641 530.821 390.342C525.182 400.078 518.388 409.189 511.491 417.984C509.48 420.548 507.468 423.076 505.471 425.585C500.557 431.759 495.733 437.82 491.233 444.033C490.635 444.858 490.037 445.683 489.438 446.509C479.109 460.761 468.621 475.233 459.388 489.934C452.032 501.647 445.078 512.04 435.214 522.173C431.944 525.533 430.885 528.763 429.729 534.106C429.332 535.943 428.667 537.819 427.416 539.26C425.967 540.927 423.971 541.72 421.862 541.478C420.062 541.271 418.563 540.356 417.498 539.536C416.372 538.669 415.318 537.584 414.372 536.478C410.67 532.151 407.081 525.634 405.668 523.02C405.298 522.336 404.898 521.581 404.472 520.777C403.466 518.876 402.315 516.704 401.074 514.552C399.246 511.382 397.602 508.953 396.447 507.875C392.556 504.241 389.736 499.645 387.277 495.639C387.033 495.24 386.792 494.848 386.554 494.463C383.784 489.979 381.309 486.301 377.886 483.743C374.942 481.544 373.374 478.564 373.374 475.163C373.374 472.106 374.648 469.287 376.012 467.037C378.09 463.609 381.325 460.089 383.731 457.47C384.415 456.726 385.032 456.054 385.536 455.478C388.836 451.712 391.997 447.306 395.369 442.606L395.602 442.282C399.009 437.534 402.623 432.519 406.593 428.032C408.176 426.244 410.87 426.112 412.61 427.738C414.351 429.364 414.479 432.131 412.897 433.919C409.267 438.021 405.902 442.677 402.459 447.475L402.113 447.957C398.832 452.531 395.453 457.242 391.868 461.333C391.09 462.221 390.275 463.11 389.457 464.003C387.151 466.519 384.823 469.058 383.244 471.664C382.203 473.38 381.893 474.519 381.893 475.163C381.893 475.464 381.909 475.928 382.897 476.666C387.783 480.317 391.012 485.347 393.747 489.773C393.965 490.126 394.18 490.475 394.392 490.82C396.978 495.019 399.188 498.608 402.177 501.399C404.403 503.478 406.624 507.006 408.403 510.09C409.728 512.388 411.016 514.819 412.045 516.762C412.445 517.517 412.806 518.199 413.115 518.77C414.579 521.478 417.762 527.183 420.772 530.702C421.049 531.026 421.31 531.313 421.554 531.566C422.788 526 424.356 520.951 429.19 515.985C438.387 506.537 444.943 496.792 452.23 485.189C461.623 470.232 472.272 455.54 482.56 441.346C483.174 440.498 483.787 439.653 484.398 438.809C489.022 432.426 494.039 426.122 499.002 419.886C500.972 417.411 502.932 414.947 504.857 412.493C511.696 403.773 518.18 395.053 523.499 385.868C528.746 376.808 535.035 368.079 541.173 359.558C544.218 355.332 547.225 351.158 550.05 347.019C558.741 334.29 566.118 321.391 569.52 306.538C570.173 303.688 570.399 299.675 570.427 295.392C570.441 293.294 570.408 291.213 570.37 289.269C570.364 288.945 570.358 288.624 570.352 288.306C570.32 286.742 570.291 285.263 570.291 284.016C570.291 278.395 570.338 272.769 570.386 267.147C570.544 248.282 570.703 229.464 569.071 211.023C568.824 208.237 567.757 205.073 566.26 201.547C565.636 200.078 564.974 198.626 564.299 197.147C564.174 196.874 564.049 196.599 563.923 196.324C563.135 194.592 562.336 192.811 561.666 191.09C557.079 179.309 553.34 167.257 549.66 155.394L549.652 155.369C545.954 143.447 542.315 131.719 537.882 120.335C537.008 118.091 538.071 115.544 540.255 114.647Z" fill="black"/>
<path fill-rule="evenodd" clip-rule="evenodd" d="M424.775 66.1986C433.863 60.683 444.389 58 454.771 58C476.457 58 499.524 62.8472 516.663 79.0274C518.156 80.4368 519.758 81.8917 521.411 83.3921C526.071 87.6229 531.128 92.215 535.25 97.1665C540.969 104.036 545.49 112.24 545.49 122.5C545.49 124.903 543.58 126.851 541.223 126.851C538.866 126.851 536.955 124.903 536.955 122.5C536.955 115.082 533.752 108.814 528.743 102.798C525.038 98.3464 520.665 94.3755 516.151 90.2769C514.4 88.6865 512.628 87.0769 510.865 85.4126C495.969 71.35 475.429 66.702 454.771 66.702C445.794 66.702 436.8 69.0277 429.141 73.6761C426.486 75.287 423.387 76.7688 420.489 78.1542C419.232 78.755 418.013 79.3378 416.885 79.9051C412.888 81.9143 409.569 83.9223 407.207 86.4719C405.959 87.8193 404.379 89.9194 402.936 92.2026C401.474 94.5143 400.338 96.7234 399.811 98.274C399.511 99.1594 399.4 100.091 399.29 101.49C399.281 101.602 399.272 101.718 399.263 101.838C399.169 103.088 399.039 104.802 398.553 106.536C397.897 108.877 396.246 110.374 395.771 110.804C395.719 110.851 395.681 110.886 395.66 110.907C395.646 110.921 395.634 110.934 395.623 110.946C395.619 110.989 395.617 111.047 395.617 111.12C395.617 113.523 393.706 115.471 391.35 115.471C388.993 115.471 387.082 113.523 387.082 111.12C387.082 109.712 387.33 108.417 387.875 107.233C388.412 106.066 389.121 105.267 389.628 104.751C390.079 104.291 390.296 104.072 390.39 103.985C390.596 103.176 390.663 102.322 390.769 100.96C390.774 100.906 390.778 100.851 390.782 100.796C390.894 99.3771 391.056 97.4591 391.746 95.4275C392.594 92.9284 394.143 90.0497 395.762 87.4883C397.399 84.8985 399.295 82.3401 401.002 80.4969C404.465 76.7592 408.947 74.1932 413.11 72.1004C414.593 71.3547 416.005 70.6809 417.356 70.0359C420.04 68.755 422.485 67.5881 424.775 66.1986ZM395.637 110.831C395.637 110.832 395.637 110.835 395.635 110.84C395.636 110.834 395.637 110.831 395.637 110.831Z" fill="black"/>
</svg>
