<svg width="540" height="600" viewBox="0 0 540 600" fill="none" xmlns="http://www.w3.org/2000/svg">
<path fill-rule="evenodd" clip-rule="evenodd" d="M158.121 64.1935C175.354 57.5671 194.471 55.249 212.175 62.3087C213.121 62.6859 214.309 63.1254 215.611 63.6073C217.852 64.4372 220.434 65.3929 222.707 66.3723C226.451 67.9853 230.562 70.1217 233.537 73.1723C234.083 73.7327 234.989 74.4251 236.33 75.3371C236.768 75.635 237.293 75.9823 237.852 76.3523C238.766 76.957 239.771 77.6221 240.638 78.2307C242.123 79.2731 243.735 80.5057 245.077 81.9279C246.401 83.3314 247.758 85.2284 248.229 87.6425C248.598 89.5339 247.715 91.3841 246.167 92.2914C245.039 94.5053 243.346 96.3099 241.938 97.7001C241.348 98.2835 240.819 98.7856 240.335 99.246C239.456 100.08 238.722 100.778 238.023 101.574C236.914 102.838 236.039 104.533 234.975 106.784C234.887 106.97 234.797 107.162 234.704 107.359C233.793 109.301 232.651 111.735 231.11 113.71C225.863 120.435 222.917 126.195 218.862 134.511C217.442 137.422 216.293 140.535 215.056 143.896L215.018 144C213.819 147.257 212.533 150.754 210.905 154.092C210.24 155.454 209.215 156.882 208.506 157.869C208.308 158.144 208.136 158.384 208.002 158.579C207.176 159.787 206.951 160.385 206.908 160.78C206.828 161.519 206.674 162.321 206.373 163.108C206.764 163.353 207.155 163.643 207.513 163.983C211.368 167.643 215.363 170.453 220.034 173.74L220.292 173.921C223.853 176.427 227.221 179.797 230.269 182.845C231.366 183.942 232.421 184.997 233.428 185.956C237.518 189.848 241.264 192.67 245.595 193.656C247.357 194.058 249.034 194.762 250.39 195.961C251.815 197.221 252.663 198.834 252.974 200.576C253.534 203.714 252.276 206.791 251.186 208.896C249.998 211.19 248.415 213.419 247.13 215.155C246.724 215.705 246.44 216.083 246.178 216.431C245.928 216.763 245.698 217.069 245.402 217.47C244.886 218.17 244.648 218.528 244.568 218.671C241.832 223.579 237.563 229.199 232.828 234.185C228.121 239.142 222.674 243.77 217.488 246.429C215.46 247.468 213.327 248.045 211.575 248.467C212.383 249.23 213.239 250.036 214.105 250.848C216.08 252.7 218.097 254.575 219.698 256.044C220.499 256.78 221.188 257.405 221.71 257.872C222.144 258.259 222.377 258.459 222.462 258.532C222.494 258.56 222.505 258.569 222.497 258.563C227.033 261.921 231.496 265.897 235.629 269.605C236.358 270.259 237.234 271.023 238.186 271.853C239.879 273.329 241.81 275.012 243.57 276.65C246.318 279.209 249.226 282.169 251.102 285.106C251.154 285.145 251.281 285.233 251.527 285.357C252.069 285.628 252.799 285.882 253.848 286.21C253.991 286.254 254.142 286.301 254.299 286.349C255.169 286.617 256.239 286.947 257.209 287.337C258.342 287.792 259.824 288.507 261.034 289.748C262.033 290.772 262.231 291.952 262.28 292.446C262.335 293.001 262.278 293.451 262.242 293.681C262.167 294.156 262.035 294.554 261.961 294.762C261.797 295.228 261.574 295.721 261.374 296.141C260.956 297.02 260.379 298.112 259.808 299.168C259.286 300.133 258.78 301.048 258.342 301.84C257.742 302.928 257.269 303.783 257.057 304.217C254.604 309.248 250.748 313.426 247.53 316.913C246.978 317.511 246.444 318.09 245.94 318.648C245.352 319.299 244.779 320.21 244.084 321.501C243.904 321.834 243.703 322.221 243.486 322.637C242.974 323.619 242.378 324.763 241.788 325.746C240.714 327.537 239.244 329.538 237.094 330.943C237.594 331.268 238.132 331.609 238.706 331.962C241.431 333.64 244.489 335.323 246.905 336.609C248.107 337.249 249.139 337.784 249.878 338.165C250.114 338.287 250.311 338.388 250.48 338.474C250.581 338.527 250.673 338.574 250.757 338.617C250.86 338.67 250.955 338.719 251.028 338.757C251.062 338.775 251.109 338.8 251.157 338.826C251.179 338.838 251.224 338.863 251.278 338.895C251.304 338.91 251.355 338.94 251.418 338.979C251.439 338.993 251.627 339.11 251.841 339.286C253.98 341.04 256.858 341.834 260.845 342.803C261.001 342.841 261.159 342.879 261.32 342.918C264.835 343.768 269.391 344.869 272.972 347.807C273.842 348.52 274.394 348.769 274.64 348.864C274.775 348.915 274.886 348.948 275.052 348.991L275.078 348.998C275.152 349.018 275.323 349.062 275.469 349.106L275.471 349.107C275.614 349.15 276.062 349.285 276.549 349.568C277.088 349.881 278.006 350.567 278.505 351.861C278.987 353.112 278.797 354.212 278.652 354.756C278.442 355.552 278.011 356.252 277.907 356.421C277.899 356.433 277.894 356.442 277.89 356.449C277.819 356.566 277.744 356.689 277.664 356.82C277.34 357.35 276.928 358.025 276.35 359.111C274.364 362.844 272.221 365.328 270.021 367.45C269.151 368.289 268.251 369.091 267.404 369.845C267.225 370.005 267.048 370.163 266.874 370.318C265.852 371.233 264.866 372.134 263.863 373.162C262.111 374.959 259.559 377.74 257.132 380.724C254.656 383.769 252.517 386.776 251.399 389.07C250.004 391.93 248.084 393.594 246.306 394.797C245.707 395.202 245.047 395.602 244.499 395.935C244.318 396.045 244.149 396.147 243.999 396.24C243.911 396.294 243.826 396.347 243.742 396.4C244.581 396.693 245.367 397.058 246.073 397.427C247.467 398.154 248.849 399.055 250.1 399.917C251.004 400.541 251.81 401.117 252.537 401.637C254.041 402.712 255.207 403.546 256.213 404.061C256.683 404.302 257.15 404.541 257.614 404.779C261.593 406.815 265.397 408.761 269.33 411.066C269.323 411.061 269.319 411.059 269.32 411.059C269.32 411.059 269.397 411.1 269.599 411.196C269.817 411.299 270.105 411.429 270.466 411.589C271.027 411.837 271.702 412.129 272.48 412.465C272.71 412.564 272.948 412.667 273.195 412.774C275.33 413.698 278.015 414.871 280.548 416.099C283.012 417.293 285.608 418.67 287.426 420.031C288.241 420.642 289.435 421.63 290.159 422.989C290.559 423.74 290.989 424.93 290.78 426.373C290.558 427.898 289.728 429.001 288.887 429.691C288.915 429.668 288.894 429.69 288.821 429.767C288.69 429.907 288.388 430.228 287.896 430.792C287.246 431.536 286.454 432.481 285.68 433.441C284.902 434.407 284.177 435.345 283.648 436.082C283.433 436.382 283.274 436.616 283.165 436.785C282.288 439.878 280.07 441.731 278.858 442.742C278.814 442.78 278.77 442.816 278.729 442.851C277.094 444.22 276.943 444.487 276.883 444.704C276.433 446.319 275.49 447.643 274.656 448.619C273.781 449.643 272.733 450.616 271.693 451.504C270.475 452.545 268.954 453.722 267.528 454.826C266.671 455.49 265.848 456.126 265.146 456.691C263.153 458.294 261.825 459.542 261.147 460.48C268.395 468.001 275.526 477.173 280.554 487.197C282.319 490.717 284.167 494.184 286.024 497.668C288.887 503.04 291.771 508.451 294.408 514.159C295.454 516.424 295.919 518.725 296.254 520.386C296.313 520.678 296.368 520.95 296.422 521.198C296.809 523.003 297.175 524.09 297.952 525.086C298.871 526.264 299.443 527.712 299.776 528.901C300.115 530.11 300.355 531.585 300.249 532.993C300.197 533.68 300.04 534.678 299.515 535.665C298.931 536.762 297.796 537.967 296.006 538.304C294.411 538.605 293.078 538.059 292.275 537.604C291.431 537.126 290.68 536.472 290.022 535.798C284.897 530.542 278.515 526.108 271.614 521.645C270.274 520.778 268.91 519.908 267.533 519.03C261.956 515.473 256.18 511.787 251.004 507.705C237.776 497.272 224.654 486.321 211.665 475.48C209.33 473.531 207 471.586 204.674 469.649C194.875 461.486 186.269 452.407 177.971 443.306C176.272 441.442 174.588 439.581 172.91 437.726C166.342 430.464 159.862 423.301 152.877 416.479C145.755 409.525 139.786 401.191 134.19 392.974C133.148 391.443 132.12 389.919 131.1 388.406C126.569 381.688 122.193 375.199 117.374 369.36C112.76 363.768 107.958 358.591 103.041 353.289C100.781 350.853 98.4974 348.39 96.1961 345.849C85.068 333.561 78.0345 318.461 71.3758 304.165C69.8074 300.798 68.2598 297.476 66.6845 294.245C53.1705 266.532 52 235.771 52 206.351C52 188.299 52.7963 170.933 58.2027 153.023C60.7076 144.725 65.6584 137.285 71.1968 130.742C76.7177 124.22 83.0442 118.339 88.5204 113.248L88.5875 113.185C109.186 94.0359 130.745 74.7197 158.121 64.1935ZM236.949 399.329C236.939 399.332 236.938 399.332 236.948 399.329ZM233.038 327.824C233.039 327.823 233.043 327.829 233.05 327.839C233.042 327.829 233.038 327.824 233.038 327.824ZM200.933 160.97C200.933 160.97 200.942 160.974 200.957 160.982C200.941 160.975 200.933 160.971 200.933 160.97ZM238.821 87.8624C238.089 87.1174 237.084 86.3216 235.825 85.4378C234.998 84.8574 234.24 84.357 233.444 83.8324C232.869 83.453 232.275 83.0608 231.622 82.6166C230.252 81.6853 228.715 80.5815 227.513 79.3488C225.756 77.5471 222.924 75.9408 219.407 74.4251C217.221 73.4834 215.196 72.7386 213.189 72.0007C211.828 71.5003 210.475 71.003 209.088 70.4496C193.98 64.4255 177.145 66.2075 161.112 72.3723C135.452 82.2387 114.988 100.433 94.3096 119.656C88.7597 124.816 82.7858 130.377 77.6306 136.468C72.4704 142.564 68.3534 148.939 66.3408 155.606C61.3263 172.217 60.519 188.505 60.519 206.351C60.519 235.793 61.7795 264.655 74.3041 290.339C76.0325 293.883 77.6825 297.417 79.3154 300.915C85.9396 315.104 92.2825 328.691 102.439 339.906C104.591 342.282 106.794 344.658 109.013 347.05C114.016 352.446 119.1 357.929 123.877 363.717C128.991 369.914 133.656 376.835 138.197 383.571C139.195 385.051 140.186 386.522 141.175 387.974C146.746 396.154 152.3 403.854 158.752 410.154C165.948 417.181 172.656 424.597 179.243 431.881C180.899 433.712 182.547 435.534 184.194 437.341C192.444 446.389 200.723 455.102 210.046 462.869C212.384 464.817 214.721 466.768 217.06 468.719C230.052 479.563 243.07 490.428 256.198 500.782C261.005 504.573 266.32 507.965 271.859 511.5C273.279 512.407 274.714 513.322 276.158 514.257C280.138 516.83 284.165 519.529 287.978 522.492C287.938 522.302 287.9 522.118 287.864 521.94C287.524 520.3 287.286 519.147 286.709 517.898C284.125 512.306 281.501 507.393 278.768 502.276C276.897 498.772 274.974 495.172 272.978 491.192C268.334 481.934 261.575 473.268 254.568 466.084C253.205 464.687 252.328 462.875 252.322 460.777C252.316 458.837 253.059 457.196 253.827 455.982C255.304 453.647 257.771 451.521 259.888 449.818C260.894 449.009 261.828 448.289 262.715 447.605C263.965 446.641 265.118 445.752 266.239 444.794C267.131 444.032 267.796 443.393 268.249 442.862C268.587 442.467 268.695 442.261 268.712 442.232C269.592 439.175 271.886 437.284 273.081 436.3C273.174 436.224 273.26 436.153 273.338 436.087C274.823 434.843 274.945 434.537 274.995 434.308C275.2 433.362 275.698 432.55 275.858 432.288L275.875 432.261C276.139 431.829 276.459 431.361 276.786 430.906C277.446 429.986 278.282 428.909 279.113 427.877C279.638 427.226 280.174 426.576 280.683 425.975C279.647 425.371 278.361 424.701 276.907 423.996C274.552 422.854 272.015 421.744 269.883 420.822C269.651 420.722 269.423 420.623 269.2 420.527C268.413 420.187 267.688 419.874 267.09 419.609C266.409 419.308 265.62 418.952 265.104 418.65C261.39 416.474 257.805 414.639 253.799 412.589C253.34 412.354 252.875 412.116 252.404 411.874C250.81 411.057 248.808 409.626 247.048 408.369C246.443 407.937 245.867 407.525 245.346 407.166C244.19 406.369 243.143 405.699 242.211 405.212C241.235 404.703 240.655 404.541 240.399 404.512C239.776 404.441 239.195 404.252 238.869 404.139C238.461 403.998 238.026 403.823 237.594 403.632C236.734 403.252 235.737 402.744 234.8 402.167C233.938 401.634 232.813 400.853 231.958 399.862C231.54 399.378 230.907 398.529 230.612 397.352C230.261 395.949 230.463 394.318 231.495 392.957C232.535 391.586 233.988 391.12 234.494 390.964C235.125 390.77 235.807 390.644 236.232 390.566L236.302 390.553C236.779 390.465 237.061 390.41 237.274 390.354C238.101 389.705 238.911 389.185 239.608 388.755C239.874 388.591 240.11 388.447 240.328 388.315C240.811 388.022 241.202 387.785 241.616 387.505C242.633 386.817 243.274 386.199 243.779 385.164C245.356 381.93 248.021 378.289 250.589 375.131C253.206 371.913 255.936 368.937 257.839 366.986C259.053 365.741 260.215 364.683 261.275 363.736C261.475 363.556 261.67 363.382 261.861 363.213C262.701 362.463 263.448 361.798 264.183 361.089C265.798 359.531 267.243 357.865 268.626 355.378C268.311 355.152 267.986 354.903 267.651 354.628C265.686 353.017 262.941 352.289 258.88 351.302L258.65 351.247C255.148 350.396 250.618 349.296 246.883 346.397C246.688 346.296 246.39 346.144 246.052 345.969C245.293 345.578 244.226 345.025 242.981 344.362C240.501 343.042 237.266 341.264 234.321 339.451C231.549 337.745 228.484 335.684 226.796 333.774C226.348 333.268 225.787 332.544 225.404 331.635C225.015 330.711 224.624 329.109 225.375 327.378C226.106 325.69 227.486 324.902 228.383 324.55C229.295 324.192 230.249 324.062 231.07 324.013C232.344 323.936 233.235 323.332 234.531 321.171C234.989 320.409 235.366 319.683 235.802 318.842C236.05 318.366 236.316 317.854 236.627 317.277C237.393 315.855 238.37 314.174 239.689 312.714C240.305 312.032 240.911 311.371 241.505 310.724C244.744 307.195 247.597 304.086 249.438 300.311C249.737 299.697 250.427 298.446 251.155 297.126C251.565 296.382 251.988 295.616 252.359 294.929C252.368 294.913 252.376 294.897 252.385 294.882C252.24 294.836 252.089 294.79 251.932 294.741C251.752 294.686 251.565 294.627 251.368 294.566C250.332 294.243 249.009 293.816 247.791 293.207C246.583 292.602 245.068 291.623 244.013 289.95C242.784 288.004 240.562 285.649 237.843 283.117C236.146 281.537 234.482 280.088 232.89 278.702C231.902 277.842 230.941 277.006 230.019 276.178C225.852 272.44 221.674 268.728 217.51 265.644C216.947 265.228 215.517 263.93 214.016 262.553C212.386 261.057 210.346 259.159 208.356 257.294C206.367 255.429 204.417 253.585 202.969 252.196C202.248 251.504 201.636 250.911 201.202 250.479C200.991 250.269 200.79 250.066 200.633 249.898C200.566 249.827 200.442 249.693 200.317 249.539L200.314 249.536C200.27 249.482 200.102 249.276 199.933 248.994C199.875 248.896 199.62 248.476 199.456 247.876C199.376 247.581 199.221 246.91 199.343 246.058C199.487 245.06 200.021 243.861 201.196 243.058C203.606 241.411 206.336 240.747 208.358 240.264C208.474 240.237 208.589 240.209 208.702 240.182C210.773 239.689 212.29 239.327 213.678 238.616C217.66 236.574 222.339 232.71 226.724 228.091C231.082 223.502 234.872 218.463 237.171 214.337C237.561 213.638 238.123 212.858 238.606 212.202C238.805 211.934 239.124 211.507 239.453 211.068C239.777 210.636 240.109 210.193 240.343 209.876C241.593 208.187 242.817 206.431 243.662 204.8C244.079 203.993 244.345 203.327 244.484 202.808C244.525 202.658 244.55 202.535 244.566 202.438C244.397 202.364 244.135 202.272 243.747 202.183C237.087 200.666 231.94 196.456 227.633 192.359C226.261 191.053 224.993 189.784 223.779 188.57C220.936 185.725 218.387 183.175 215.471 181.123C215.322 181.019 215.174 180.914 215.025 180.809C210.54 177.655 206.14 174.56 201.867 170.526C201.801 170.494 201.626 170.409 201.29 170.285C200.868 170.13 200.505 170.017 200.07 169.882C199.777 169.79 199.451 169.689 199.052 169.557C198.639 169.42 198.149 169.25 197.676 169.044C197.247 168.858 196.572 168.535 195.937 168.01C195.331 167.508 194.168 166.316 194.07 164.359C193.972 162.412 194.999 161.084 195.595 160.473C196.617 159.426 197.745 158.954 198.619 158.72C199.095 156.53 200.193 154.784 201.027 153.564C201.428 152.978 201.762 152.513 202.047 152.116C202.602 151.343 202.972 150.828 203.285 150.186C204.701 147.283 205.848 144.174 207.085 140.813L207.119 140.721C208.319 137.459 209.609 133.954 211.242 130.604C215.333 122.217 218.61 115.748 224.458 108.253C225.365 107.091 226.093 105.548 227.134 103.343C227.192 103.222 227.25 103.099 227.309 102.974C228.335 100.803 229.669 98.0341 231.691 95.7307C232.647 94.6419 233.865 93.4816 234.9 92.4951C235.315 92.0999 235.701 91.7326 236.028 91.409C237.384 90.0705 238.219 89.0639 238.651 88.1776C238.704 88.0693 238.761 87.9642 238.821 87.8624ZM198.409 160.023C198.409 160.022 198.41 160.016 198.413 160.004C198.411 160.017 198.409 160.023 198.409 160.023ZM237.449 390.299C237.453 390.298 237.444 390.303 237.42 390.311C237.436 390.304 237.446 390.3 237.449 390.299Z" fill="black"/>
<path fill-rule="evenodd" clip-rule="evenodd" d="M323.295 90.8607C325.686 90.8607 327.623 92.8136 327.623 95.2226C327.623 99.6957 325.819 104.123 323.756 107.805C321.65 111.565 319.009 115.008 316.789 117.618C312.594 122.551 309.423 128.4 306.102 134.742C304.768 137.29 303.353 139.756 301.99 142.133C301.819 142.431 301.648 142.728 301.479 143.024C299.944 145.704 298.483 148.291 297.162 150.954C295.739 153.822 293.561 155.966 291.941 157.561C291.862 157.638 291.785 157.714 291.71 157.789C289.894 159.58 288.732 160.804 288.039 162.279C286.74 165.043 286.729 166.417 286.843 166.858C286.868 166.952 286.885 166.994 286.998 167.086C287.167 167.223 287.629 167.512 288.66 167.743C291.557 168.392 294.415 170.092 296.662 171.57C297.706 172.257 298.735 172.976 299.666 173.628C299.782 173.71 299.898 173.79 300.011 173.869C301.064 174.605 301.959 175.223 302.743 175.708C304.104 176.551 305.491 177.393 306.893 178.244C314.313 182.746 322.164 187.509 328.829 194.045C329.361 194.567 331.754 196.537 333.98 198.231C335.493 198.615 336.89 199.483 337.994 200.875L338 200.882C338.129 201.045 338.526 201.544 338.801 202.203L338.807 202.216C338.904 202.446 339.389 203.601 339.021 205.053C338.79 205.964 338.249 206.865 337.372 207.512C336.566 208.107 335.753 208.286 335.241 208.34C334.322 208.437 333.605 208.213 333.412 208.152C333.112 208.058 332.868 207.948 332.718 207.877C332.411 207.731 332.128 207.565 331.917 207.435C331.72 207.313 331.503 207.172 331.273 207.017C330.711 207.272 330.081 207.639 329.337 208.101C329.218 208.175 329.087 208.257 328.947 208.346C328.323 208.739 327.52 209.245 326.848 209.583C324.134 210.951 322.041 213.621 319.345 217.409C319.191 217.625 319.035 217.845 318.875 218.07C316.525 221.388 313.553 225.583 309.32 228.093C306.37 229.842 303.426 233.166 300.18 237.375C299.468 238.298 298.734 239.275 297.985 240.271C295.567 243.49 292.987 246.925 290.422 249.509C290.29 249.642 290.225 249.733 290.196 249.783C290.201 249.822 290.215 249.888 290.248 249.988C290.477 250.681 291.237 251.835 292.847 253.418C294.376 254.922 296.274 256.436 298.231 257.946C298.548 258.191 298.873 258.44 299.2 258.69C300.763 259.888 302.381 261.128 303.561 262.204C305.683 264.139 308.174 266.002 310.913 268.05C312.002 268.865 313.13 269.708 314.289 270.597C318.156 273.562 322.294 276.983 325.178 280.981C326.198 282.394 327.894 283.525 330.496 285.186C330.575 285.236 330.656 285.288 330.738 285.34C332.789 286.646 335.645 288.465 337.533 291.146C337.779 291.323 338.109 291.55 338.544 291.849L338.652 291.923C339.559 292.544 340.814 293.404 341.867 294.266C342.412 294.711 343.035 295.262 343.568 295.875C343.958 296.325 344.946 297.511 345.131 299.199C345.244 300.225 345.052 301.405 344.343 302.472C343.683 303.466 342.806 304.013 342.146 304.309C340.941 304.851 339.628 304.93 338.657 304.93C336.15 304.93 334.763 304.931 333.542 305.203C332.561 305.421 331.617 305.84 330.399 306.999C321.65 315.327 313.274 323.751 305.107 332.416C305.523 332.675 306.051 332.98 306.711 333.33C307.466 333.731 308.265 334.129 309.123 334.556L309.41 334.699C310.35 335.167 311.358 335.672 312.304 336.193C313.241 336.709 314.227 337.299 315.107 337.964C315.945 338.596 316.966 339.501 317.683 340.73C318.388 341.938 319.9 343.453 322.072 345.21C323.105 346.046 324.192 346.863 325.278 347.669C325.455 347.801 325.634 347.934 325.813 348.066C326.7 348.724 327.595 349.387 328.378 350.001C328.376 349.999 328.377 350 328.379 350.002C328.389 350.009 328.422 350.034 328.492 350.085C328.573 350.145 328.681 350.223 328.814 350.319C329.079 350.509 329.423 350.754 329.823 351.037C330.621 351.601 331.614 352.299 332.589 352.983C333.56 353.665 334.515 354.334 335.224 354.835C335.577 355.084 335.88 355.298 336.097 355.454C336.202 355.53 336.306 355.605 336.392 355.669C336.427 355.695 336.499 355.749 336.576 355.811C336.6 355.831 336.708 355.916 336.832 356.033L336.836 356.036C336.88 356.077 337.069 356.253 337.272 356.508L337.273 356.51C337.351 356.607 337.649 356.983 337.884 357.543C337.975 357.761 339.008 360.254 336.956 362.323C335.995 363.292 334.766 363.685 334.345 363.819L334.335 363.822C333.688 364.029 332.971 364.192 332.294 364.326C330.969 364.589 329.346 364.825 327.827 365.046L327.71 365.063C326.094 365.299 324.571 365.522 323.304 365.768C322.263 365.97 321.738 366.128 321.554 366.184C321.477 366.207 321.459 366.212 321.49 366.195C321.223 366.348 320.612 366.854 319.59 367.972C318.881 368.748 318.164 369.602 317.376 370.538C317.085 370.885 316.785 371.242 316.472 371.611C315.384 372.894 314.141 374.319 312.886 375.462C311.899 376.362 310.276 377.696 308.242 378.136C308.176 378.183 308.091 378.248 307.986 378.334C307.476 378.75 306.785 379.421 305.953 380.347C304.304 382.182 302.398 384.687 300.685 387.283C298.954 389.906 297.556 392.418 296.812 394.268C296.773 394.363 296.738 394.454 296.705 394.542C302.106 398.12 306.939 402.858 311.391 407.221C312.213 408.026 313.022 408.819 313.819 409.589C319.697 415.271 325.042 419.873 331.132 421.919C333.4 422.681 334.625 425.151 333.869 427.437C333.113 429.722 330.662 430.957 328.395 430.195C320.253 427.46 313.659 421.522 307.828 415.886C306.948 415.036 306.086 414.192 305.235 413.361C300.202 408.441 295.595 403.937 290.378 400.844C287.727 399.272 287.604 396.43 287.697 395.174C287.803 393.736 288.279 392.261 288.79 390.992C289.845 388.367 291.597 385.302 293.477 382.452C295.376 379.575 297.542 376.712 299.537 374.491C300.528 373.388 301.552 372.359 302.54 371.554C303.033 371.151 303.589 370.745 304.185 370.409C304.676 370.133 305.404 369.783 306.29 369.623C306.388 369.56 306.646 369.388 307.08 368.992C307.88 368.263 308.804 367.226 309.892 365.943C310.141 365.649 310.401 365.34 310.669 365.022C311.491 364.043 312.381 362.984 313.223 362.062C314.29 360.894 315.672 359.498 317.195 358.62C318.529 357.852 320.375 357.452 321.668 357.201C322.138 357.11 322.629 357.023 323.131 356.939C323.106 356.92 323.084 356.903 323.064 356.887C322.382 356.352 321.602 355.774 320.716 355.117C320.53 354.979 320.339 354.838 320.143 354.692C319.045 353.877 317.836 352.97 316.653 352.013C314.419 350.206 311.851 347.89 310.281 345.253C310.243 345.214 310.135 345.11 309.917 344.945C309.512 344.64 308.933 344.278 308.154 343.849C307.384 343.425 306.525 342.992 305.576 342.52L305.285 342.375C304.444 341.957 303.538 341.506 302.676 341.048C300.938 340.125 298.581 338.783 297.104 336.951C296.288 335.938 295.449 334.422 295.486 332.488C295.522 330.521 296.447 328.949 297.511 327.814C306.202 318.539 315.12 309.543 324.456 300.656C326.536 298.677 328.646 297.498 330.946 296.865C330.824 296.716 330.7 296.547 330.585 296.361C329.891 295.242 328.491 294.232 325.866 292.557C325.755 292.486 325.642 292.414 325.527 292.341C323.315 290.934 320.251 288.985 318.178 286.112C316.106 283.24 312.88 280.478 309.049 277.54C308.101 276.814 307.104 276.068 306.089 275.309C303.223 273.167 300.211 270.914 297.753 268.673C296.874 267.871 295.64 266.924 294.086 265.731C293.73 265.459 293.358 265.173 292.97 264.874C291.004 263.357 288.739 261.566 286.802 259.662C284.947 257.837 282.94 255.482 282.035 252.744C281.555 251.29 281.351 249.626 281.74 247.879C282.13 246.121 283.049 244.603 284.301 243.341C286.407 241.219 288.458 238.491 290.774 235.411C291.594 234.321 292.446 233.187 293.346 232.02C296.557 227.858 300.391 223.265 304.931 220.573C307.539 219.027 309.532 216.228 312.311 212.324L312.312 212.323C314.818 208.803 318.054 204.261 322.977 201.78C323.202 201.667 323.463 201.508 323.861 201.259C323.412 200.873 323.042 200.542 322.793 200.297C316.907 194.526 310.052 190.357 302.636 185.848C301.182 184.964 299.706 184.067 298.212 183.142C297.194 182.511 296.11 181.759 295.078 181.038C294.962 180.957 294.846 180.876 294.73 180.795C293.787 180.135 292.865 179.49 291.932 178.876C289.736 177.432 288.017 176.536 286.782 176.259C282.862 175.381 279.53 173.159 278.469 169.063C277.555 165.54 278.696 161.78 280.216 158.544C281.641 155.513 283.887 153.298 285.552 151.656C285.586 151.622 285.621 151.588 285.655 151.555C287.505 149.729 288.692 148.521 289.42 147.053C290.868 144.133 292.445 141.347 293.983 138.663C294.154 138.363 294.325 138.065 294.495 137.768C295.868 135.375 297.196 133.059 298.447 130.67C301.732 124.396 305.307 117.715 310.217 111.941C312.234 109.57 314.489 106.603 316.219 103.515C317.993 100.348 318.967 97.4877 318.967 95.2226C318.967 92.8136 320.905 90.8607 323.295 90.8607ZM337.054 301.62C337.123 301.701 337.101 301.692 337.036 301.601C337.043 301.608 337.049 301.614 337.054 301.62ZM331.854 355.456C331.856 355.457 331.825 355.471 331.751 355.496C331.814 355.468 331.851 355.455 331.854 355.456ZM308.408 378.025C308.426 378.015 308.423 378.018 308.4 378.029C308.403 378.027 308.406 378.026 308.408 378.025ZM290.192 249.739C290.192 249.739 290.193 249.743 290.192 249.749C290.192 249.742 290.192 249.739 290.192 249.739ZM290.179 249.812C290.176 249.822 290.174 249.827 290.173 249.827C290.173 249.827 290.175 249.822 290.179 249.812Z" fill="black"/>
<path fill-rule="evenodd" clip-rule="evenodd" d="M460.254 114.647C462.438 113.749 464.917 114.841 465.791 117.084C470.341 128.77 474.06 140.759 477.73 152.589L477.768 152.711C481.466 164.631 485.117 176.392 489.575 187.839C490.145 189.304 490.85 190.883 491.64 192.617C491.758 192.878 491.879 193.142 492.001 193.409C492.675 194.887 493.393 196.461 494.067 198.048C495.64 201.751 497.178 205.982 497.554 210.231C499.228 229.149 499.063 248.561 498.903 267.505C498.856 273.057 498.809 278.569 498.809 284.016C498.809 285.165 498.836 286.532 498.867 288.096C498.874 288.421 498.88 288.754 498.887 289.096C498.925 291.053 498.96 293.23 498.945 295.451C498.916 299.803 498.7 304.664 497.812 308.543C494.036 325.028 485.915 339.021 477.024 352.044C473.924 356.585 470.774 360.954 467.664 365.267C461.687 373.557 455.859 381.641 450.82 390.342C445.181 400.078 438.387 409.189 431.49 417.984C429.479 420.548 427.467 423.076 425.47 425.585C420.556 431.759 415.732 437.82 411.232 444.033C410.634 444.858 410.036 445.683 409.438 446.509C399.108 460.761 388.62 475.233 379.388 489.934C372.031 501.647 365.077 512.04 355.213 522.173C351.943 525.533 350.884 528.763 349.728 534.106C349.331 535.943 348.666 537.819 347.415 539.26C345.966 540.927 343.97 541.72 341.861 541.478C340.061 541.271 338.562 540.356 337.497 539.536C336.371 538.669 335.317 537.584 334.371 536.478C330.669 532.151 327.08 525.634 325.667 523.02C325.297 522.336 324.897 521.581 324.471 520.777C323.465 518.876 322.314 516.704 321.073 514.552C319.245 511.382 317.601 508.953 316.446 507.875C312.555 504.241 309.735 499.645 307.276 495.639C307.032 495.24 306.791 494.848 306.553 494.463C303.783 489.979 301.308 486.301 297.885 483.743C294.941 481.544 293.373 478.564 293.373 475.163C293.373 472.106 294.647 469.287 296.011 467.037C298.089 463.609 301.324 460.089 303.73 457.47C304.414 456.726 305.031 456.054 305.535 455.478C308.835 451.712 311.996 447.306 315.368 442.606L315.601 442.282C319.008 437.534 322.622 432.519 326.592 428.032C328.175 426.244 330.869 426.112 332.609 427.738C334.35 429.364 334.478 432.131 332.896 433.919C329.266 438.021 325.901 442.677 322.458 447.475L322.113 447.957C318.831 452.531 315.452 457.242 311.867 461.333C311.089 462.221 310.274 463.11 309.456 464.003C307.15 466.519 304.822 469.058 303.243 471.664C302.202 473.38 301.892 474.519 301.892 475.163C301.892 475.464 301.908 475.928 302.896 476.666C307.782 480.317 311.011 485.347 313.746 489.773C313.964 490.126 314.179 490.475 314.391 490.82C316.978 495.019 319.188 498.608 322.176 501.399C324.402 503.478 326.623 507.006 328.402 510.09C329.727 512.388 331.015 514.819 332.044 516.762C332.444 517.517 332.805 518.199 333.114 518.77C334.578 521.478 337.761 527.183 340.771 530.702C341.048 531.026 341.309 531.313 341.553 531.566C342.787 526 344.355 520.951 349.189 515.985C358.386 506.537 364.942 496.792 372.229 485.189C381.623 470.232 392.271 455.54 402.559 441.346C403.173 440.498 403.786 439.653 404.397 438.809C409.021 432.426 414.038 426.122 419.001 419.886C420.971 417.411 422.932 414.947 424.856 412.493C431.695 403.773 438.179 395.053 443.499 385.868C448.745 376.808 455.034 368.079 461.172 359.558C464.217 355.332 467.224 351.158 470.049 347.019C478.74 334.29 486.117 321.391 489.519 306.538C490.172 303.688 490.398 299.675 490.426 295.392C490.44 293.294 490.407 291.213 490.369 289.269C490.363 288.945 490.357 288.624 490.351 288.306C490.319 286.742 490.29 285.263 490.29 284.016C490.29 278.395 490.337 272.769 490.385 267.147C490.543 248.282 490.702 229.464 489.07 211.023C488.823 208.237 487.756 205.073 486.259 201.547C485.635 200.078 484.973 198.626 484.298 197.147C484.173 196.874 484.048 196.599 483.922 196.324C483.134 194.592 482.335 192.811 481.665 191.09C477.078 179.309 473.339 167.257 469.659 155.394L469.651 155.369C465.953 143.447 462.314 131.719 457.881 120.335C457.007 118.091 458.07 115.544 460.254 114.647Z" fill="black"/>
<path fill-rule="evenodd" clip-rule="evenodd" d="M344.775 66.1986C353.863 60.683 364.388 58 374.771 58C396.456 58 419.524 62.8472 436.663 79.0274C438.156 80.4368 439.758 81.8917 441.411 83.3921C446.07 87.6229 451.128 92.215 455.25 97.1665C460.969 104.036 465.49 112.24 465.49 122.5C465.49 124.903 463.579 126.851 461.223 126.851C458.866 126.851 456.955 124.903 456.955 122.5C456.955 115.082 453.751 108.814 448.743 102.798C445.038 98.3464 440.665 94.3755 436.151 90.2769C434.4 88.6865 432.627 87.0769 430.864 85.4126C415.969 71.35 395.429 66.702 374.771 66.702C365.794 66.702 356.799 69.0277 349.14 73.6761C346.486 75.287 343.386 76.7688 340.488 78.1542C339.232 78.755 338.013 79.3378 336.884 79.9051C332.888 81.9143 329.569 83.9223 327.207 86.4719C325.959 87.8193 324.379 89.9194 322.936 92.2026C321.474 94.5143 320.337 96.7234 319.811 98.274C319.51 99.1594 319.399 100.091 319.29 101.49C319.281 101.602 319.272 101.718 319.263 101.838C319.168 103.088 319.039 104.802 318.553 106.536C317.897 108.877 316.245 110.374 315.771 110.804C315.718 110.851 315.681 110.886 315.66 110.907C315.646 110.921 315.634 110.934 315.622 110.946C315.619 110.989 315.617 111.047 315.617 111.12C315.617 113.523 313.706 115.471 311.349 115.471C308.993 115.471 307.082 113.523 307.082 111.12C307.082 109.712 307.33 108.417 307.874 107.233C308.411 106.066 309.121 105.267 309.628 104.751C310.079 104.291 310.296 104.072 310.389 103.985C310.595 103.176 310.662 102.322 310.769 100.96C310.773 100.906 310.778 100.851 310.782 100.796C310.893 99.3771 311.056 97.4591 311.746 95.4275C312.594 92.9284 314.143 90.0497 315.762 87.4883C317.399 84.8985 319.295 82.3401 321.002 80.4969C324.464 76.7592 328.947 74.1932 333.11 72.1004C334.593 71.3547 336.005 70.6809 337.356 70.0359C340.04 68.755 342.485 67.5881 344.775 66.1986ZM315.637 110.831C315.637 110.832 315.636 110.835 315.635 110.84C315.636 110.834 315.637 110.831 315.637 110.831Z" fill="black"/>
</svg>
