<svg width="540" height="600" viewBox="0 0 540 600" fill="none" xmlns="http://www.w3.org/2000/svg">
<path d="M287.478 206.522C287.478 199.818 286.697 194.734 284.866 188.325C283.439 183.333 279.367 176.879 276.533 172.471C274.475 169.269 273.307 165.297 271.624 161.931C269.264 157.212 264.386 153.353 262.525 148.328C261.581 145.78 259.754 144.226 258.651 141.707C253.189 129.22 244.188 116.865 236.22 105.808C230.909 98.4371 223.494 92.7939 216.087 87.7013C211.928 84.8426 206.907 84.4102 202.033 82.9268C197.218 81.4613 187.874 81.3751 182.891 82.6566C178.186 83.8663 171.37 87.2141 167.306 89.7732C164.547 91.5104 161.619 91.9863 158.793 93.4667C152.214 96.9131 144.602 99.7362 137.623 102.295C133.527 103.797 127.227 107.367 126.183 112.069C125.672 114.366 142.703 109 144.334 108.601C155.786 105.802 167.846 104.367 179.648 104.367C206.252 104.367 239.2 107.413 257.075 129.951C269.887 146.105 278.444 165.314 289.1 183.01C293.88 190.949 297.448 199.32 302.027 207.333C302.92 208.897 305.315 212.302 305.315 214.135C305.315 215.538 303.717 211.818 303.063 210.576C302.218 208.97 301.708 208.693 301.216 206.973C300.82 205.587 299.117 205.712 298.018 205.712C296.112 205.712 295.674 204.086 294.955 202.469C292.314 196.525 293.154 188.753 293.154 182.2C293.154 178.357 292.755 174.04 294.37 170.489C295.164 168.741 295.633 166.439 296.216 164.543C296.822 162.574 297.125 158.797 298.198 157.246C299.949 154.717 303.888 149.217 304.459 146.076C305.106 142.518 307.394 137.34 309.999 134.996C318.186 127.628 328.131 122.279 335.673 114.051C337.589 111.961 339.588 107.962 342.204 106.799C346.107 105.065 350.701 103.101 354.771 101.124C357.276 99.9071 360.371 98.3578 362.518 96.6196C363.051 96.1886 367.357 92.2055 366.122 92.2055C358.755 92.2055 353.524 94.7786 347.069 98.1961C343.161 100.265 337.745 100.49 337.745 105.988C337.745 108.376 335.684 109.671 334.097 111.258C333.374 111.981 329.728 115.17 329.728 116.078C329.728 118.329 332.952 112.935 334.502 111.303C336.803 108.882 338.526 105.75 341.033 103.556C344.728 100.323 348.918 97.2479 352.339 93.827C357.816 88.35 366.899 84.2968 373.824 80.4495C376.292 79.0785 381.629 80.0441 384.364 80.0441C390.45 80.0441 396.637 80.6961 401.795 84.2781C408.974 89.2633 415.587 93.3855 422.064 99.5023C426.649 103.832 434.023 107.408 437.063 112.88C439.012 116.387 442.38 118.788 444.405 122.654C446.05 125.794 447.894 128.259 449.18 131.662C450.555 135.302 453.304 140.481 453.684 144.274C454.103 148.465 456.697 152.115 456.927 156.255C457.106 159.484 460.659 166.729 462.197 169.633C464.568 174.112 464.758 179.956 466.836 184.632C468.655 188.724 469.638 192.551 470.71 196.838C473.249 206.995 478.006 216.954 478.006 227.422C478.006 231.1 480.197 250.132 475.98 251.069C471.935 251.968 471.204 253.553 468.683 257.195C466.021 261.039 461.082 269.44 455.125 267.149C452.07 265.974 448.478 261.147 446.387 258.771C439.944 251.45 434.203 243.777 429.361 235.304C424.649 227.057 420.839 218.278 417.019 209.585C415.836 206.892 412.962 203.155 413.146 200.036C413.318 197.109 417.622 192.734 418.641 189.677C419.446 187.261 420.858 185.188 421.208 182.56C422.041 176.315 422.485 182.484 423.28 185.488C424.619 190.543 425.114 195.757 426.929 200.667C427.946 203.42 427.378 206.765 429.001 209.315C430.779 212.109 433.241 213.938 435.036 216.432C437.949 220.477 440.927 225.479 444.315 229.224C445.863 230.935 447.049 233.932 449.225 234.899C449.729 235.123 450.441 236.577 450.441 236.025C450.441 234.438 450.513 232.834 450.396 231.251C450.027 226.277 447.568 221.116 446.387 216.251C444.923 210.224 442.634 204.415 441.072 198.415C438.201 187.386 433.963 176.857 430.532 166.075C427.316 155.968 420.298 149.985 412.966 142.653C402.97 132.657 392.946 123.412 379.454 118.555C372.224 115.952 360.059 112.927 353.69 118.961C352.314 120.264 349.176 123.62 349.096 125.627C348.92 130.023 353.869 126.813 356.303 126.077C365.282 123.362 374.661 122.704 383.688 120.222C389.493 118.625 394.756 117.495 400.129 120.987C407.68 125.896 411.181 135.249 414.947 143.013C424.481 162.664 433.208 183.095 443.955 202.108C453.084 218.261 461.341 234.214 468.458 251.294C470.047 255.109 471.743 260.283 472.286 264.356C472.837 268.491 469.511 261.663 469.043 260.843C466.316 256.071 462.553 251.95 458.458 248.321C450.688 241.436 442.903 233.776 434.406 227.827C406.985 208.633 389.038 181.264 369.545 154.544C364.967 148.268 361.217 141.582 356.843 135.221C353.617 130.528 354.318 137.029 354.591 139.32C355.019 142.912 356.553 146.1 357.609 149.544C360.571 159.202 363.542 168.66 367.338 178.056C377.149 202.338 388.341 226.749 400.894 249.763C401.072 250.088 408.732 265.209 410.083 260.483C412.085 253.474 410.45 244.949 409.452 237.962C408.048 228.131 406.353 219.594 403.372 210.036C398.462 194.296 390.479 179.737 385.265 164.093C384.354 161.36 382.337 158.354 382.337 155.445C382.337 153.397 380.715 153.361 380.715 155.49C380.715 168.203 380.853 182.204 378.914 194.811C378.336 198.567 376.17 199.058 373.419 200.892C365.813 205.962 357.972 211.412 352.339 218.684C348.44 223.717 343.82 228.734 339.322 233.232C337.248 235.306 333.692 238.07 333.692 233.187C333.692 201.328 333.692 169.468 333.692 137.608C333.692 136.573 333.404 131.445 332.43 131.167C330.419 130.592 324.357 146.519 323.557 148.238C311.303 174.562 301.406 200.537 296.126 229.134C295.12 234.586 295.586 240.361 295.586 245.889C295.586 247.657 294.793 252.79 296.577 254.177C297.208 254.668 297.207 250.786 297.207 250.664C297.207 245.666 297.329 240.701 297.613 235.71C298.406 221.753 299.923 208.075 302.522 194.316C304.499 183.853 305.427 173.252 307.117 162.741C307.305 161.569 307.747 152.918 307.747 156.345C307.747 161.373 309.903 165.514 311.351 170.218C317.046 188.728 324.248 206.82 330.448 225.17C339.609 252.281 351.385 278.554 363.419 304.489C365.95 309.944 368.478 315.372 371.167 320.749C371.887 322.191 374.463 328.551 372.968 323.452C368.824 309.314 359.672 296.516 352.249 283.995C345.01 271.784 338.56 259.139 331.259 246.97C329.016 243.231 327.883 238.73 325.584 235.079C324.189 232.863 322.464 231.136 321.71 228.593C320.321 223.903 323.673 217.808 325.584 213.774C329.975 204.504 333.817 195.136 339.052 186.253C343.164 179.275 347.408 171.94 353.87 166.885C357.529 164.024 362.026 163.048 366.302 161.48C376.619 157.697 386.345 151.791 397.111 149.589C404.978 147.98 408.977 147.884 414.587 154.003C417.724 157.425 417.84 160.556 418.776 164.768C420.552 172.76 428.556 181.168 435.036 185.848C440.323 189.667 444.675 194.801 450.08 198.505C454.432 201.487 458.183 204.408 461.701 208.324C466.757 213.952 472.887 218.563 477.961 224.314C482.635 229.611 486.516 236.713 488.456 243.502C491.764 255.079 492.538 268.721 492.6 280.662C492.653 290.673 493.629 300.064 489.537 309.308C488.927 310.687 486.467 315.581 484.898 315.93C483.812 316.171 482.293 316.189 481.43 316.966C478.201 319.872 476.473 326.356 474.358 330.163C465.434 346.226 451.858 359.272 435.036 367.683C433.742 368.33 432.148 368.378 430.802 368.989C427.768 370.369 436.096 364.938 438.775 362.954C446.076 357.546 455.03 351.833 463.593 348.585C465.692 347.789 462.585 349.047 462.152 349.171C460.361 349.682 458.938 351.502 458.143 353.27C447.961 375.896 430.843 391.515 413.641 408.716C410.476 411.882 404.396 413.84 401.975 417.319C399.908 420.291 398.313 423.744 396.57 426.913C392.577 434.173 389.347 442.05 384.859 448.849C378.262 458.845 370.268 467.905 363.69 477.946C361.105 481.892 358.956 485.973 356.843 490.198C355.69 492.504 354.322 496.246 351.979 497.585C350.184 498.61 348.175 506.037 347.384 507.854C344.597 514.26 342.452 522.1 338.556 527.943C335.758 532.14 332.847 535.359 330.268 539.744C329.766 540.598 327.38 542.4 326.755 542.221C324.089 541.46 323.189 547.514 321.981 549.068C319.844 551.815 321.077 552.756 318.287 549.473C316.65 547.547 314.96 544.022 313.783 541.726C309.299 532.982 302.701 523.892 295.316 517.178C279.093 502.43 268.294 482.631 253.877 466.235C250.51 462.406 247.326 458.462 243.968 454.749C242.098 452.683 239.286 446.466 236.401 445.696C235.097 445.348 237.022 442.079 237.256 441.552C240.556 434.128 244.675 427.069 248.292 419.797C254.192 407.934 259.597 396.173 263.966 383.673C266.988 375.029 269.382 366.139 272.795 357.639C277.779 345.225 285.837 334.259 290.721 321.92C291.772 319.267 290.21 318.733 288.559 316.876C279.38 306.549 271.565 294.886 264.867 282.824C247.698 251.904 247.905 216.368 250.544 182.065C250.861 177.935 251.728 172.879 250.634 168.777C249.692 165.245 246.381 162.392 244.508 159.318C241.311 154.072 237.762 148.946 234.419 143.779C233.129 141.786 231.723 140.508 229.734 139.229C227.805 137.989 225.443 137.682 223.428 136.617C219.861 134.732 217.496 130.49 214.961 127.519C211.726 123.728 209.539 119.786 204.466 119.006C199.788 118.286 195.536 116.434 190.998 115.267C182.647 113.12 174.814 111.707 166.27 110.808C163.859 110.554 161.106 108.914 158.748 108.241C155.542 107.324 152.172 107.925 148.929 108.826C143.49 110.337 138.228 115.406 132.624 115.717C128.747 115.933 126.782 114.869 123.255 116.528C121.555 117.328 119.581 118.15 117.67 118.15C115.435 118.15 116.102 123.735 116.949 123.735C118.23 123.735 118.951 122.838 120.012 122.384C121.615 121.697 124.273 122.204 125.957 122.204C132.411 122.204 139.408 124.915 144.695 128.6C151.838 133.578 156.871 140.81 162.441 147.337C163.086 148.092 167.182 153.288 166.675 152.202C165.545 149.78 164.118 147.532 162.712 145.265C157.049 136.137 150.816 131.121 140.371 127.699C138.417 127.059 127.552 124.286 126.318 126.618C125.692 127.8 126.137 131.964 126.137 130.626C126.137 128.31 126.493 127.523 128.164 125.852C135.115 118.901 123.379 119.463 119.291 119.861C107.665 120.996 98.6912 124.048 89.4732 131.122C88.3117 132.013 87.3921 132.405 86.05 132.788C85.2539 133.016 85.0438 138.227 84.7888 139.094C84.4932 140.1 81.413 148.058 81.9962 148.058C83.1775 148.058 83.9781 144.724 83.9781 147.337C83.9781 153.268 83.7992 159.325 84.969 165.174C86.5593 173.125 85.5401 183.052 88.7075 190.442C94.9812 205.081 102.713 219.206 110.463 233.097C118.199 246.965 126.946 260.183 138.389 271.293C143.792 276.539 149.468 281.553 155.73 285.751C161.924 289.904 177.788 296.493 179.648 283.634C180.391 278.492 176.926 271.616 175.053 267.149C170.971 257.409 165.745 248.228 160.415 239.133C154.474 228.996 147.843 219.302 142.353 208.91C137.718 200.136 133.028 192.882 129.561 183.866C128.953 182.285 124.73 170.35 122.084 170.038C119.701 169.758 119.752 166.865 118.66 164.723C117.678 162.796 109.721 152.765 109.157 157.562C108.933 159.463 108.953 164.138 108.121 159.769C107.528 156.657 107.809 154.212 103.842 154.679C99.6146 155.176 99.0194 161.526 98.6168 164.949C98.0454 169.805 96.1898 179.135 92.0856 182.47C90.3685 183.865 88.2501 183.855 86.4103 185.037C83.7021 186.778 83.1673 185.073 83.1673 182.11C83.1673 178.038 82.3566 174.313 82.3566 170.309C82.3566 168.294 83.5557 161.058 82.1764 159.679C80.2118 157.714 80.735 165.931 80.735 166.075C80.735 168.542 81.0155 171.2 80.69 173.642C80.2292 177.098 78.124 180.267 77.6722 183.731C76.573 192.158 77.0763 201.647 77.537 210.171C77.9789 218.346 81.6732 226.869 84.7888 234.268C85.085 234.972 88.7907 239.44 88.8426 238.142C89.3416 225.667 86.61 212.956 88.7525 200.577C92.2938 180.116 110.106 168.088 125.642 156.751C133.14 151.279 143.758 147.853 152.622 145.265C164.052 141.928 175.585 138.905 187.034 135.626C189.354 134.962 193.139 133.512 195.683 134.725C197.997 135.83 198.614 139.168 199.962 141.121C201.956 144.013 205.016 145.977 207.078 148.914C211.327 154.965 216.461 160.558 219.735 167.246C224.215 176.395 226.962 186.496 229.689 196.253C232.306 205.611 235.015 215.194 236.04 224.9C236.942 233.433 238.312 242.544 230.185 247.421C224.322 250.939 217.317 249.606 210.952 248.367C195.704 245.396 181.867 237.097 169.603 227.782C158.965 219.702 147.359 210.115 139.11 199.496C135.776 195.205 133.285 188.333 135.236 182.92C136.459 179.527 139.608 176.236 141.902 173.822C148.092 167.309 154.821 160.747 162.036 155.355C166.05 152.355 172.362 148.762 175.864 153.958C179.015 158.634 178.026 164.705 178.026 170.038C178.026 185.172 178.069 200.307 178.026 215.441C178.018 218.19 179.725 238.797 174.603 239.673C171.162 240.262 165.011 231.582 163.793 230.169C159.67 225.391 155.782 220.416 151.902 215.441C146.975 209.124 142.173 202.638 137.984 195.802C134.271 189.745 145.807 191.208 149.424 191.208C156.359 191.208 164.081 191.232 170.729 193.46C187.008 198.916 196.095 212.263 201.358 228.053C207.243 245.707 207.213 266.074 207.213 284.535C207.213 297.605 193.517 281.095 190.683 277.284C185.668 270.539 182.164 261.85 178.927 254.177C175.888 246.973 173.218 239.191 176.224 231.566C179.741 222.645 185.017 215.746 191.719 209.045C195.484 205.28 201.671 198.422 207.393 198.054C212.727 197.712 215.399 213.966 216.222 217.648C218.942 229.816 218.251 243.786 218.924 256.069C219.704 270.292 220.185 284.443 220.185 298.679C220.185 301.176 221.459 309.855 217.393 304.264C211.706 296.445 207.286 287.397 202.619 278.95C194.231 263.769 186.845 248.061 179.557 232.332C173.142 218.485 166.108 204.309 161 189.857C159.23 184.849 155.691 172.514 159.063 167.696C160.964 164.981 173.306 166.795 176.314 166.795C178.049 166.795 192.611 165.833 192.62 165.984C192.939 171.724 190.138 178.304 189.016 183.911C186.001 198.986 184.495 214.314 181.81 229.449C181.516 231.101 180.339 244.619 177.035 240.214C168.148 228.365 162.134 217.745 149.695 209.405C140.587 203.299 134.998 201.093 124.021 201.703C113.856 202.268 106.984 214.429 98.2114 218.188C91.7602 220.953 88.6964 216.668 85.3293 211.297C82.3651 206.568 80.9408 200.971 78.1676 196.118C77.393 194.762 72.3138 182.911 71.051 189.857C69.8064 196.702 71.1061 204.636 71.8167 211.387C72.2164 215.185 74.8466 219.114 75.0597 222.738C75.3131 227.045 77.0982 232.088 77.9424 236.43C78.9648 241.688 79.9443 246.865 80.8251 252.15C81.5165 256.298 83.1673 259.667 83.1673 263.906C83.1673 265.989 84.316 268.005 85.2392 269.852C86.1595 271.692 87.0351 273.43 88.3922 274.986C90.0758 276.918 89.8709 278.801 91.0046 280.842C92.5906 283.697 93.672 286.901 95.5088 289.58C97.6563 292.712 99.4724 296.899 101.094 300.345C102.144 302.576 103.613 307.805 105.869 309.308C110.079 312.116 111.286 315.505 114.381 319.578C119.43 326.221 123.41 332.586 126.768 340.207C127.902 342.78 129.156 345.643 130.597 348.045C131.956 350.31 132.051 353.508 133.84 355.296C148.286 369.742 160.131 385.825 174.242 400.564C176.622 403.05 177.072 406.824 179.512 409.032C185.992 414.894 192.206 420.96 198.385 427.139C204.445 433.199 211.046 436.647 216.942 442.543C222.788 448.388 226.894 455.647 232.752 461.506C237.705 466.459 242.894 471.059 247.751 476.054C249.761 478.122 251.414 480.258 253.381 482.225C256.368 485.212 260.277 486.664 263.876 489.026C269.313 492.594 277.518 496.687 281.623 501.818C282.062 502.367 281.651 503.116 282.298 503.62C283.28 504.384 284.36 504.04 285.046 505.242C285.251 505.6 287.311 497.716 287.478 495.963C288.092 489.524 287.335 483.95 285.316 477.406C280.405 461.487 271.887 446.443 259.192 435.652C252.733 430.162 245.301 425.306 239.283 419.391C225.687 406.03 211.458 393.281 197.214 380.61C182.719 367.716 168.101 354.171 157.217 337.955C149.563 326.553 139.888 316.404 132.083 305.075C127.659 298.653 123.972 291.73 118.886 285.797C118.165 284.956 118.92 289.599 119.021 289.805C122.102 296.139 127.263 302.247 131.948 307.417C141.653 318.126 153.61 326.618 163.432 337.054C164.788 338.495 159.219 332.827 158.207 332.01C156.873 330.932 154.322 328.707 153.343 331.289C151.021 337.409 150.643 345.229 150.145 351.648C149.726 357.047 149.649 362.452 149.649 367.863C149.649 368.187 149.858 371.224 149.199 370.566C146.125 367.492 146.453 363.819 144.785 360.206C142.533 355.328 140.049 352.843 135.867 349.576C128.833 344.081 121.45 339.163 115.598 332.37C112.749 329.064 109.973 325.517 106.679 322.641C104.998 321.173 101.604 320.206 100.373 318.407C99.3971 316.98 95.5872 315.672 96.5448 313.948C97.1516 312.856 96.3483 310.451 97.1304 309.669C97.6699 309.129 105.89 320.657 106.589 321.335C117.564 331.971 132.116 335.819 146.722 338.811C160.859 341.707 175.117 343.572 189.557 343.045C196.024 342.809 205.329 338.709 210.727 343.54C215.96 348.226 221.123 353.118 226.131 358.044C226.799 358.701 235.851 367.411 230.635 363.269C222.625 356.908 215.668 349.511 206.493 344.802C200.565 341.759 194.803 338.387 188.926 335.253C188.345 334.943 187.864 334.442 187.755 333.811C185.662 321.672 177.14 309.019 171.135 298.679C161.737 282.499 152.396 266.359 143.253 250.033C141.33 246.598 138.378 248.385 134.876 246.7C128.423 243.596 126.363 237.489 122.714 232.016C120.709 229.008 119.651 235.508 119.651 236.295C119.651 243.972 118.037 250.433 116.228 257.87C115.549 260.661 114.67 263.55 113.165 266.023C112.532 267.064 111.048 268.143 110.778 269.356C110.482 270.687 112.479 271.848 113.21 272.689C116.637 276.63 119.406 281.034 122.579 285.166C127.4 291.445 133.362 296.598 139.56 301.471C152.555 311.689 166.173 321.136 180.278 329.758C195.059 338.793 210.593 346.586 225.41 355.567C230.195 358.466 232.654 357.407 232.347 351.648C232.009 345.318 226.534 339.308 223.248 334.262C219.952 329.2 216.014 324.311 213.069 319.038C210.159 313.827 211.343 312.627 215.186 308.408C226.965 295.474 237.676 281.694 248.832 268.23C255.376 260.333 260.806 252.18 265.588 243.052C267.551 239.305 269.21 235.615 270.903 231.746C272.101 229.008 274.157 226.848 274.867 223.909C276.67 216.439 277.884 209.005 279.371 201.478C279.615 200.24 280.797 194.539 278.74 198.415C276.697 202.266 275.418 206.328 274.146 210.486C269.497 225.685 266.408 240.858 263.111 256.384C261.034 266.161 259.764 276.193 257.39 285.887C255.006 295.622 251.046 304.95 247.526 314.308C244.038 323.58 243.737 335.688 238.202 343.991C237.383 345.22 237.025 345.86 237.346 347.414C239.004 355.427 243.071 363.316 245.364 371.196C252.512 395.769 253.448 422.029 262.165 446.146C263.917 450.994 264.98 451.568 267.119 454.524C276.832 467.946 286.523 481.586 298.829 492.72C301.519 495.154 305.504 496.403 308.513 498.711C313.031 502.175 315.649 505.84 319.098 510.151C320.352 511.718 318.606 505.748 318.647 505.692C325.278 496.618 334.137 487.339 342.655 480.063C348.901 474.728 353.357 468.961 356.393 461.371C359.753 452.971 364.752 445.76 368.914 437.769C374.726 426.61 382.115 416.521 387.607 405.203C392.26 395.615 398.496 388.014 404.182 379.169C407.989 373.248 411.226 365.282 411.524 358.134C411.78 351.99 422.348 345.507 426.658 342.189C432.891 337.392 438.338 334.031 442.693 327.37C445.116 323.665 446.34 319.174 448.819 315.524C452.892 309.529 459.669 304.725 464.404 299.174C466.471 296.75 468.83 294.067 466.386 291.066C461.25 284.764 453.755 280.481 446.567 277.058C442.195 274.977 438.399 271.855 434.361 269.221C426.174 263.882 417.81 258.855 409.903 253.096C403.157 248.183 396.507 243.237 389.273 239.043C384.448 236.245 378.763 234.505 374.32 231.115C371.56 229.011 368.742 226.543 365.671 224.9C361.238 222.527 356.859 227.98 354.051 230.755C345.396 239.306 336.85 246.99 327.115 254.357C319.821 259.877 312.046 264.875 304.955 270.662C293.73 279.823 283.698 290.658 273.47 300.886C268.11 306.246 263.614 312.247 258.877 318.137C257.464 319.893 256.121 321.182 255.453 323.317C253.554 329.394 250.335 339.343 259.552 339.757C264.684 339.988 269.816 334.66 273.56 331.875C278.941 327.872 283.535 323.575 290.271 322.191C298.713 320.456 310.113 322.87 316.125 315.614C326.584 302.992 337.181 290.47 347.564 277.779C351.524 272.94 355.598 267.264 360.807 263.726C363.315 262.022 373.727 255.608 366.662 253.096C363.852 252.097 359.668 255.549 357.609 256.879C350.584 261.418 345.083 267.401 339.097 273.185C331.682 280.348 323.891 286.797 315.675 293.003C313.78 294.434 311.549 296.868 309.369 297.958C308.205 298.54 303.349 296.618 301.667 296.471C298.657 296.21 300.118 294.568 302.072 293.769C307.124 291.702 312.951 290.474 318.152 288.769C335.09 283.218 350.968 277.791 366.032 268.05C370.433 265.204 373.291 264.086 378.418 264.086C386.731 264.086 392.693 266.048 400.084 270.122C409.955 275.563 421.84 277.774 431.163 284.085C445.726 293.943 434.523 317.202 426.433 327.28C409.553 348.312 388.1 366.578 374.59 389.934C368.53 400.411 360.179 409.144 354.096 419.572C344.965 435.224 337.02 452.502 330.989 469.568C329.763 473.038 328.91 478.126 324.728 478.126C314.962 478.126 309.735 474.016 303.153 466.55C293.341 455.42 287.532 444.155 281.443 430.922C278.73 425.028 275.674 419.691 274.506 413.266C274.32 412.242 273.201 410.586 273.245 409.662C273.379 406.853 279.061 401.863 280.542 399.933C292.247 384.678 298.91 368.402 305.675 350.567C309.59 340.246 315.529 330.982 321.215 321.56C327.224 311.602 334.883 303.714 345.583 299.129C356.299 294.536 367.149 290.672 378.418 287.598C385.448 285.681 396.873 281.974 399.723 290.931C401.842 297.591 398.623 305.657 398.552 312.461C398.511 316.432 398.984 320.689 398.372 324.623C397.499 330.237 391.093 336.136 387.742 340.297C376.68 354.034 364.846 367.235 354.726 381.691C350.965 387.064 347.048 392.338 343.646 397.951C343.22 398.654 341.601 401.854 344.051 400.384C345.63 399.437 346.529 398.269 347.745 396.78C353.153 390.161 358.006 383.063 363.149 376.241C375.149 360.324 387.88 344.96 399.633 328.857C404.001 322.873 408.994 316.853 413.011 310.66C415.023 307.558 415.847 303.734 417.38 300.39C418.02 298.993 422.386 292.74 419.632 297.147C413.525 306.918 403.575 315.167 396.12 323.902C379.731 343.104 364.345 363.148 347.655 382.097C333.773 397.856 318.968 412.564 303.198 426.418C299.082 430.034 293.757 433.627 290.361 437.994C287.71 441.402 294.773 442.498 296.216 442.453C303.658 442.223 312.766 435.475 319.053 442.048C320.397 443.453 323.152 449.696 323.152 444.029C323.152 420.842 322.1 397.391 323.962 374.259C324.369 369.21 325.109 363.751 328.106 359.485C330.873 355.548 335.533 353.889 338.106 349.666C343.546 340.739 346.325 329.805 350.627 320.299C353.576 313.782 363.496 294.885 359.275 300.66C353.685 308.31 350.029 317.936 345.763 326.334C339.283 339.091 331.786 351.12 323.422 362.728C316.419 372.448 309.369 382.183 301.847 391.51C299.008 395.03 296.253 399.601 292.838 402.636C291.604 403.733 292.343 407.685 292.343 409.167C292.343 412.304 307.818 412.502 302.883 409.212" stroke="#FB0153" stroke-width="37" stroke-linecap="round"/>
<path d="M224.238 397.051C224.238 353.225 243.005 316.416 262.524 278.68C270.748 262.781 284.357 251.138 294.324 236.52C302.593 224.393 314.044 215.344 322.07 203.144C335.048 183.418 352.15 167.255 368.283 150.22C371.598 146.719 377.35 142.787 378.913 137.968C379.646 135.707 379.919 133.343 380.444 131.032C382.378 122.523 383.592 113.579 386.03 105.223C387.079 101.625 388.235 98.2124 389.228 94.6378C389.816 92.5206 389.828 88.3169 391.435 86.7104C392.052 86.0934 392.065 91.386 392.065 91.8001C392.065 94.3675 392.065 96.9349 392.065 99.5023" stroke="#FB0153" stroke-width="37" stroke-linecap="round"/>
<path fill-rule="evenodd" clip-rule="evenodd" d="M158.121 64.1935C175.354 57.5671 194.471 55.249 212.175 62.3087C213.121 62.6859 214.309 63.1254 215.611 63.6073C217.852 64.4372 220.434 65.3929 222.707 66.3723C226.451 67.9853 230.562 70.1217 233.537 73.1723C234.083 73.7327 234.989 74.4251 236.33 75.3371C236.768 75.635 237.293 75.9823 237.852 76.3523C238.766 76.957 239.771 77.6221 240.638 78.2307C242.123 79.2731 243.735 80.5057 245.077 81.9279C246.401 83.3314 247.758 85.2284 248.229 87.6425C248.598 89.5339 247.715 91.3841 246.167 92.2915C245.039 94.5053 243.346 96.3099 241.938 97.7001C241.348 98.2835 240.819 98.7856 240.335 99.246C239.456 100.08 238.722 100.778 238.023 101.574C236.914 102.838 236.039 104.533 234.975 106.784C234.887 106.97 234.797 107.162 234.704 107.359C233.793 109.301 232.651 111.735 231.11 113.71C225.863 120.435 222.917 126.195 218.862 134.511C217.443 137.422 216.293 140.535 215.056 143.896L215.018 144C213.819 147.257 212.533 150.754 210.905 154.092C210.24 155.454 209.215 156.882 208.506 157.869C208.308 158.144 208.136 158.384 208.002 158.579C207.176 159.787 206.951 160.385 206.908 160.78C206.828 161.519 206.674 162.321 206.373 163.108C206.764 163.353 207.155 163.643 207.513 163.983C211.368 167.643 215.363 170.453 220.034 173.74L220.292 173.921C223.853 176.427 227.221 179.797 230.269 182.845C231.366 183.942 232.421 184.997 233.428 185.956C237.518 189.848 241.264 192.67 245.595 193.656C247.357 194.058 249.034 194.762 250.39 195.961C251.815 197.221 252.663 198.834 252.974 200.576C253.534 203.714 252.276 206.791 251.186 208.896C249.998 211.19 248.415 213.419 247.13 215.155C246.724 215.705 246.44 216.083 246.178 216.431C245.928 216.763 245.698 217.069 245.402 217.47C244.886 218.17 244.648 218.528 244.568 218.671C241.832 223.579 237.563 229.199 232.828 234.185C228.121 239.142 222.674 243.77 217.488 246.429C215.46 247.468 213.327 248.045 211.575 248.467C212.383 249.23 213.239 250.036 214.105 250.848C216.08 252.7 218.097 254.575 219.698 256.044C220.499 256.78 221.188 257.405 221.71 257.872C222.144 258.259 222.377 258.459 222.462 258.532C222.494 258.56 222.505 258.569 222.497 258.563C227.033 261.921 231.496 265.897 235.629 269.605C236.358 270.259 237.234 271.023 238.186 271.853C239.879 273.329 241.81 275.012 243.57 276.65C246.318 279.209 249.226 282.169 251.102 285.106C251.154 285.145 251.281 285.233 251.527 285.357C252.069 285.628 252.799 285.882 253.848 286.21C253.991 286.254 254.142 286.301 254.299 286.349C255.169 286.617 256.239 286.947 257.209 287.337C258.342 287.792 259.824 288.507 261.034 289.748C262.033 290.772 262.231 291.952 262.28 292.446C262.335 293.001 262.278 293.451 262.242 293.681C262.167 294.156 262.035 294.554 261.961 294.762C261.797 295.228 261.574 295.721 261.374 296.141C260.956 297.02 260.379 298.112 259.808 299.168C259.286 300.133 258.78 301.048 258.342 301.84C257.742 302.928 257.269 303.783 257.057 304.217C254.604 309.248 250.748 313.426 247.53 316.913C246.978 317.511 246.444 318.09 245.94 318.648C245.352 319.299 244.779 320.21 244.084 321.501C243.904 321.834 243.703 322.221 243.486 322.637C242.974 323.619 242.378 324.763 241.788 325.746C240.714 327.537 239.244 329.538 237.094 330.943C237.594 331.268 238.132 331.609 238.706 331.962C241.431 333.64 244.489 335.323 246.905 336.609C248.108 337.249 249.139 337.784 249.878 338.165C250.114 338.287 250.311 338.388 250.48 338.474C250.581 338.527 250.673 338.574 250.757 338.617C250.86 338.67 250.955 338.719 251.028 338.757C251.062 338.775 251.109 338.8 251.157 338.826C251.179 338.838 251.224 338.863 251.278 338.895C251.304 338.91 251.355 338.94 251.418 338.979C251.439 338.993 251.627 339.11 251.841 339.286C253.98 341.04 256.858 341.834 260.845 342.803C261.001 342.841 261.159 342.879 261.32 342.918C264.835 343.768 269.391 344.869 272.972 347.807C273.842 348.52 274.394 348.769 274.64 348.864C274.775 348.915 274.886 348.948 275.052 348.991L275.078 348.998C275.152 349.018 275.323 349.062 275.469 349.106L275.471 349.107C275.614 349.15 276.062 349.285 276.549 349.568C277.088 349.881 278.006 350.567 278.505 351.861C278.987 353.112 278.797 354.212 278.652 354.756C278.442 355.552 278.011 356.252 277.907 356.421C277.899 356.433 277.894 356.442 277.89 356.449C277.819 356.566 277.744 356.689 277.664 356.82C277.34 357.35 276.928 358.025 276.35 359.111C274.364 362.844 272.221 365.328 270.021 367.45C269.151 368.289 268.251 369.091 267.404 369.845C267.225 370.005 267.048 370.163 266.874 370.318C265.852 371.233 264.866 372.134 263.863 373.162C262.111 374.959 259.559 377.74 257.132 380.724C254.656 383.769 252.517 386.776 251.399 389.07C250.004 391.93 248.084 393.594 246.306 394.797C245.707 395.202 245.047 395.603 244.499 395.935C244.318 396.045 244.15 396.147 243.999 396.24C243.911 396.294 243.826 396.347 243.742 396.4C244.581 396.693 245.367 397.058 246.073 397.427C247.467 398.154 248.849 399.055 250.1 399.917C251.004 400.541 251.81 401.117 252.537 401.637C254.041 402.712 255.207 403.546 256.213 404.061C256.683 404.302 257.15 404.541 257.614 404.779C261.593 406.815 265.397 408.761 269.33 411.066C269.323 411.061 269.319 411.059 269.32 411.059C269.32 411.059 269.397 411.1 269.599 411.196C269.817 411.299 270.105 411.429 270.466 411.589C271.027 411.837 271.702 412.129 272.48 412.465C272.71 412.564 272.948 412.667 273.195 412.774C275.33 413.698 278.015 414.871 280.548 416.099C283.012 417.293 285.608 418.67 287.426 420.031C288.242 420.642 289.435 421.63 290.159 422.989C290.559 423.74 290.989 424.93 290.78 426.373C290.559 427.898 289.728 429.001 288.887 429.691C288.915 429.668 288.894 429.69 288.821 429.767C288.69 429.907 288.388 430.228 287.896 430.792C287.246 431.536 286.454 432.481 285.68 433.441C284.902 434.407 284.177 435.345 283.649 436.082C283.433 436.382 283.274 436.616 283.165 436.785C282.288 439.878 280.07 441.731 278.858 442.742C278.814 442.78 278.77 442.816 278.729 442.851C277.094 444.22 276.943 444.487 276.883 444.704C276.433 446.319 275.49 447.643 274.656 448.619C273.781 449.643 272.733 450.616 271.693 451.504C270.476 452.545 268.954 453.722 267.528 454.826C266.671 455.49 265.848 456.126 265.146 456.691C263.153 458.294 261.825 459.542 261.147 460.48C268.395 468.001 275.526 477.173 280.554 487.197C282.319 490.717 284.167 494.184 286.024 497.668C288.887 503.04 291.771 508.451 294.408 514.159C295.454 516.424 295.919 518.725 296.254 520.386C296.313 520.678 296.368 520.95 296.422 521.198C296.809 523.003 297.175 524.09 297.952 525.086C298.871 526.264 299.443 527.712 299.776 528.901C300.115 530.11 300.355 531.585 300.249 532.993C300.197 533.68 300.04 534.678 299.515 535.665C298.931 536.762 297.796 537.967 296.006 538.305C294.411 538.605 293.078 538.059 292.275 537.604C291.431 537.126 290.68 536.472 290.022 535.798C284.897 530.542 278.515 526.108 271.614 521.645C270.274 520.778 268.91 519.908 267.533 519.03C261.956 515.473 256.18 511.787 251.004 507.705C237.776 497.272 224.654 486.321 211.665 475.48C209.33 473.531 207 471.586 204.674 469.649C194.876 461.486 186.269 452.407 177.971 443.306C176.272 441.442 174.588 439.581 172.91 437.726C166.342 430.464 159.862 423.301 152.877 416.479C145.755 409.525 139.786 401.191 134.191 392.974C133.148 391.443 132.12 389.919 131.1 388.406C126.569 381.688 122.193 375.199 117.374 369.36C112.76 363.768 107.958 358.591 103.041 353.289C100.781 350.853 98.4974 348.39 96.1961 345.849C85.068 333.561 78.0345 318.461 71.3758 304.165C69.8074 300.798 68.2598 297.476 66.6845 294.245C53.1705 266.532 52 235.771 52 206.351C52 188.299 52.7963 170.933 58.2027 153.023C60.7076 144.725 65.6584 137.285 71.1968 130.742C76.7177 124.22 83.0442 118.339 88.5204 113.248L88.5875 113.185C109.186 94.0359 130.745 74.7197 158.121 64.1935ZM236.949 399.329C236.939 399.332 236.939 399.332 236.949 399.329ZM200.933 160.97C200.933 160.97 200.942 160.974 200.957 160.982C200.941 160.975 200.933 160.971 200.933 160.97ZM238.821 87.8624C238.089 87.1174 237.084 86.3216 235.825 85.4378C234.998 84.8574 234.24 84.357 233.444 83.8324C232.869 83.453 232.275 83.0608 231.622 82.6166C230.252 81.6853 228.715 80.5815 227.513 79.3488C225.756 77.5471 222.924 75.9408 219.407 74.4251C217.221 73.4834 215.196 72.7386 213.189 72.0007C211.828 71.5003 210.475 71.003 209.088 70.4496C193.98 64.4255 177.145 66.2075 161.112 72.3723C135.452 82.2387 114.988 100.433 94.3096 119.656C88.7597 124.816 82.7858 130.377 77.6306 136.468C72.4704 142.564 68.3534 148.939 66.3408 155.606C61.3263 172.217 60.519 188.505 60.519 206.351C60.519 235.793 61.7795 264.655 74.3041 290.339C76.0325 293.883 77.6825 297.417 79.3154 300.915C85.9396 315.104 92.2825 328.691 102.439 339.906C104.591 342.282 106.794 344.658 109.013 347.05C114.016 352.446 119.1 357.929 123.877 363.717C128.991 369.914 133.656 376.835 138.197 383.571C139.195 385.051 140.186 386.522 141.175 387.974C146.746 396.154 152.3 403.854 158.752 410.154C165.948 417.181 172.656 424.597 179.243 431.881C180.899 433.712 182.547 435.535 184.194 437.341C192.444 446.389 200.723 455.102 210.046 462.869C212.384 464.817 214.721 466.768 217.06 468.719C230.052 479.563 243.07 490.428 256.198 500.782C261.005 504.573 266.32 507.965 271.859 511.5C273.279 512.407 274.714 513.322 276.158 514.257C280.138 516.83 284.165 519.529 287.978 522.492C287.938 522.302 287.9 522.118 287.864 521.94C287.524 520.3 287.286 519.147 286.709 517.898C284.125 512.306 281.501 507.393 278.768 502.276C276.897 498.772 274.974 495.172 272.978 491.192C268.334 481.934 261.575 473.268 254.568 466.084C253.205 464.687 252.328 462.875 252.322 460.777C252.316 458.837 253.059 457.196 253.827 455.982C255.304 453.647 257.771 451.521 259.888 449.818C260.894 449.009 261.828 448.289 262.715 447.605C263.965 446.641 265.118 445.752 266.239 444.794C267.131 444.032 267.796 443.393 268.249 442.862C268.587 442.467 268.695 442.261 268.712 442.232C269.592 439.175 271.886 437.284 273.081 436.3C273.174 436.224 273.26 436.152 273.338 436.087C274.823 434.843 274.945 434.537 274.995 434.308C275.2 433.362 275.698 432.55 275.859 432.288L275.875 432.261C276.139 431.829 276.459 431.361 276.786 430.906C277.446 429.986 278.282 428.909 279.113 427.878C279.638 427.226 280.174 426.576 280.683 425.975C279.647 425.371 278.361 424.701 276.907 423.996C274.552 422.854 272.015 421.744 269.883 420.822C269.651 420.722 269.423 420.623 269.2 420.527C268.413 420.187 267.688 419.874 267.09 419.609C266.409 419.308 265.62 418.952 265.104 418.65C261.39 416.474 257.805 414.639 253.799 412.589C253.34 412.354 252.875 412.116 252.404 411.874C250.81 411.057 248.808 409.626 247.048 408.369C246.443 407.937 245.867 407.525 245.346 407.166C244.19 406.369 243.143 405.699 242.211 405.212C241.235 404.703 240.655 404.541 240.399 404.512C239.776 404.441 239.195 404.252 238.869 404.139C238.462 403.998 238.026 403.823 237.594 403.632C236.734 403.252 235.737 402.744 234.8 402.167C233.938 401.634 232.813 400.854 231.958 399.862C231.54 399.378 230.908 398.529 230.612 397.352C230.261 395.949 230.463 394.318 231.495 392.957C232.535 391.586 233.988 391.12 234.495 390.964C235.125 390.77 235.807 390.644 236.232 390.566L236.302 390.553C236.779 390.465 237.061 390.41 237.274 390.354C238.101 389.705 238.911 389.185 239.608 388.755C239.874 388.591 240.11 388.447 240.328 388.315C240.811 388.022 241.202 387.785 241.616 387.505C242.633 386.817 243.274 386.199 243.779 385.164C245.356 381.93 248.021 378.289 250.589 375.131C253.206 371.913 255.937 368.937 257.839 366.986C259.053 365.741 260.215 364.683 261.275 363.736C261.475 363.556 261.67 363.382 261.861 363.213C262.701 362.463 263.448 361.798 264.183 361.089C265.798 359.531 267.243 357.865 268.626 355.378C268.311 355.152 267.986 354.903 267.651 354.628C265.686 353.017 262.941 352.289 258.88 351.302L258.65 351.247C255.148 350.396 250.618 349.296 246.883 346.397C246.688 346.296 246.39 346.143 246.052 345.969C245.293 345.578 244.227 345.025 242.981 344.362C240.501 343.042 237.266 341.264 234.321 339.451C231.549 337.745 228.484 335.684 226.796 333.774C226.348 333.268 225.787 332.544 225.404 331.635C225.015 330.711 224.624 329.109 225.375 327.378C226.107 325.69 227.486 324.902 228.383 324.55C229.295 324.192 230.249 324.062 231.071 324.013C232.344 323.936 233.235 323.332 234.532 321.171C234.989 320.409 235.366 319.683 235.802 318.842C236.05 318.366 236.316 317.854 236.627 317.277C237.393 315.855 238.37 314.174 239.689 312.714C240.305 312.032 240.911 311.371 241.505 310.724C244.744 307.195 247.597 304.086 249.438 300.311C249.737 299.697 250.427 298.446 251.155 297.126C251.565 296.382 251.988 295.616 252.359 294.929C252.368 294.913 252.376 294.897 252.385 294.882C252.24 294.836 252.089 294.79 251.932 294.741C251.752 294.686 251.565 294.627 251.368 294.566C250.332 294.243 249.009 293.816 247.791 293.207C246.583 292.602 245.068 291.623 244.013 289.95C242.784 288.004 240.562 285.649 237.843 283.117C236.146 281.537 234.482 280.088 232.89 278.702C231.902 277.842 230.941 277.006 230.019 276.178C225.852 272.44 221.674 268.728 217.51 265.644C216.947 265.228 215.517 263.93 214.016 262.553C212.386 261.057 210.346 259.16 208.356 257.294C206.367 255.429 204.417 253.585 202.969 252.196C202.248 251.504 201.636 250.911 201.202 250.479C200.991 250.269 200.79 250.066 200.633 249.898C200.566 249.827 200.442 249.693 200.317 249.539L200.314 249.536C200.27 249.482 200.102 249.276 199.933 248.994C199.875 248.896 199.62 248.476 199.456 247.876C199.376 247.581 199.221 246.91 199.343 246.058C199.487 245.06 200.021 243.861 201.196 243.058C203.606 241.411 206.336 240.747 208.358 240.264C208.474 240.237 208.589 240.209 208.702 240.182C210.773 239.689 212.29 239.327 213.678 238.616C217.66 236.574 222.339 232.71 226.724 228.091C231.082 223.502 234.872 218.463 237.171 214.337C237.561 213.638 238.123 212.858 238.606 212.202C238.805 211.934 239.124 211.507 239.453 211.068C239.777 210.636 240.109 210.193 240.343 209.876C241.593 208.187 242.817 206.431 243.662 204.8C244.079 203.993 244.345 203.327 244.484 202.808C244.525 202.658 244.55 202.535 244.566 202.438C244.397 202.364 244.135 202.272 243.747 202.183C237.087 200.666 231.94 196.456 227.634 192.359C226.261 191.053 224.993 189.784 223.779 188.57C220.936 185.725 218.387 183.175 215.471 181.123C215.322 181.019 215.174 180.914 215.025 180.809C210.54 177.655 206.14 174.56 201.867 170.526C201.801 170.494 201.626 170.409 201.29 170.285C200.868 170.13 200.505 170.017 200.07 169.882C199.777 169.79 199.451 169.689 199.052 169.557C198.639 169.42 198.149 169.25 197.676 169.044C197.247 168.858 196.572 168.535 195.937 168.01C195.331 167.508 194.168 166.316 194.07 164.359C193.972 162.412 194.999 161.084 195.595 160.473C196.617 159.426 197.745 158.954 198.619 158.72C199.096 156.53 200.193 154.784 201.027 153.564C201.428 152.978 201.762 152.513 202.047 152.116C202.602 151.343 202.972 150.828 203.285 150.186C204.701 147.283 205.848 144.174 207.085 140.813L207.119 140.721C208.319 137.459 209.609 133.954 211.242 130.604C215.333 122.217 218.61 115.748 224.458 108.253C225.365 107.091 226.093 105.548 227.134 103.343C227.192 103.222 227.25 103.099 227.309 102.974C228.335 100.803 229.669 98.0341 231.691 95.7307C232.647 94.6419 233.865 93.4816 234.9 92.4951C235.315 92.0999 235.701 91.7326 236.028 91.409C237.384 90.0705 238.219 89.0639 238.651 88.1776C238.704 88.0693 238.761 87.9642 238.821 87.8624ZM198.409 160.023C198.409 160.022 198.41 160.016 198.413 160.004C198.411 160.017 198.409 160.023 198.409 160.023ZM237.449 390.299C237.453 390.298 237.444 390.303 237.42 390.311C237.436 390.304 237.446 390.3 237.449 390.299Z" fill="black"/>
<path fill-rule="evenodd" clip-rule="evenodd" d="M460.254 114.647C462.438 113.749 464.917 114.841 465.791 117.084C470.341 128.77 474.06 140.759 477.73 152.589L477.768 152.711C481.466 164.631 485.117 176.392 489.575 187.839C490.145 189.304 490.85 190.883 491.64 192.617C491.758 192.878 491.879 193.142 492.001 193.409C492.675 194.887 493.393 196.461 494.067 198.048C495.64 201.751 497.178 205.982 497.554 210.231C499.228 229.149 499.063 248.561 498.903 267.505C498.856 273.057 498.809 278.569 498.809 284.016C498.809 285.165 498.836 286.532 498.867 288.096C498.874 288.421 498.88 288.754 498.887 289.096C498.925 291.053 498.96 293.23 498.945 295.451C498.916 299.803 498.7 304.664 497.812 308.543C494.036 325.028 485.915 339.021 477.024 352.044C473.924 356.585 470.774 360.954 467.664 365.267C461.687 373.557 455.859 381.641 450.82 390.342C445.181 400.078 438.387 409.189 431.49 417.984C429.479 420.548 427.467 423.076 425.47 425.585C420.556 431.759 415.732 437.82 411.232 444.033C410.634 444.858 410.036 445.683 409.438 446.509C399.108 460.761 388.62 475.233 379.388 489.934C372.031 501.647 365.077 512.04 355.213 522.173C351.943 525.533 350.884 528.763 349.728 534.106C349.331 535.942 348.666 537.819 347.415 539.26C345.966 540.927 343.97 541.72 341.861 541.478C340.061 541.271 338.562 540.356 337.497 539.536C336.371 538.669 335.317 537.584 334.371 536.478C330.669 532.151 327.08 525.634 325.667 523.02C325.297 522.336 324.897 521.581 324.471 520.777C323.465 518.876 322.314 516.704 321.073 514.552C319.245 511.382 317.601 508.953 316.446 507.875C312.555 504.241 309.735 499.645 307.276 495.639C307.032 495.24 306.791 494.848 306.553 494.463C303.783 489.979 301.308 486.3 297.885 483.743C294.941 481.544 293.373 478.564 293.373 475.163C293.373 472.106 294.647 469.287 296.011 467.037C298.089 463.609 301.324 460.089 303.73 457.47C304.414 456.726 305.031 456.054 305.535 455.478C308.835 451.712 311.996 447.306 315.368 442.606L315.601 442.282C319.008 437.534 322.622 432.519 326.592 428.032C328.175 426.244 330.869 426.112 332.609 427.738C334.35 429.364 334.478 432.131 332.896 433.919C329.266 438.021 325.901 442.677 322.458 447.475L322.113 447.957C318.831 452.531 315.452 457.242 311.867 461.333C311.089 462.221 310.274 463.11 309.456 464.003C307.15 466.519 304.822 469.058 303.243 471.664C302.202 473.38 301.892 474.519 301.892 475.163C301.892 475.464 301.908 475.928 302.896 476.666C307.782 480.317 311.011 485.347 313.746 489.773C313.964 490.126 314.179 490.475 314.391 490.82C316.978 495.019 319.188 498.608 322.176 501.399C324.402 503.478 326.623 507.006 328.402 510.09C329.727 512.388 331.015 514.819 332.044 516.762C332.444 517.517 332.805 518.199 333.114 518.77C334.578 521.478 337.761 527.183 340.771 530.702C341.048 531.026 341.309 531.313 341.553 531.566C342.787 526 344.355 520.951 349.189 515.985C358.386 506.537 364.942 496.792 372.229 485.189C381.623 470.232 392.271 455.54 402.559 441.346C403.173 440.498 403.786 439.653 404.397 438.809C409.021 432.426 414.038 426.122 419.001 419.886C420.971 417.411 422.931 414.947 424.856 412.493C431.695 403.773 438.179 395.053 443.499 385.868C448.745 376.808 455.034 368.079 461.172 359.558C464.217 355.332 467.224 351.158 470.049 347.019C478.74 334.29 486.117 321.391 489.519 306.538C490.172 303.688 490.398 299.675 490.426 295.392C490.44 293.294 490.407 291.213 490.369 289.269C490.363 288.945 490.357 288.624 490.351 288.306C490.319 286.742 490.29 285.263 490.29 284.016C490.29 278.395 490.337 272.769 490.385 267.147C490.543 248.282 490.702 229.464 489.07 211.023C488.823 208.237 487.756 205.073 486.259 201.547C485.635 200.078 484.973 198.626 484.298 197.147C484.173 196.874 484.048 196.599 483.922 196.324C483.134 194.592 482.335 192.811 481.665 191.09C477.078 179.309 473.339 167.257 469.659 155.394L469.651 155.369C465.953 143.447 462.314 131.719 457.881 120.335C457.007 118.091 458.07 115.544 460.254 114.647Z" fill="black"/>
<path fill-rule="evenodd" clip-rule="evenodd" d="M344.775 66.1986C353.863 60.683 364.388 58 374.771 58C396.456 58 419.524 62.8472 436.663 79.0274C438.156 80.4368 439.758 81.8917 441.411 83.3921C446.07 87.6229 451.128 92.215 455.25 97.1665C460.969 104.036 465.49 112.24 465.49 122.5C465.49 124.903 463.579 126.851 461.223 126.851C458.866 126.851 456.955 124.903 456.955 122.5C456.955 115.082 453.751 108.814 448.743 102.798C445.038 98.3464 440.665 94.3755 436.151 90.2769C434.4 88.6865 432.627 87.0769 430.864 85.4126C415.969 71.35 395.429 66.702 374.771 66.702C365.794 66.702 356.799 69.0277 349.14 73.6761C346.486 75.287 343.386 76.7688 340.488 78.1542C339.232 78.755 338.013 79.3378 336.884 79.9051C332.888 81.9143 329.569 83.9223 327.207 86.4719C325.959 87.8193 324.379 89.9194 322.936 92.2026C321.474 94.5143 320.337 96.7234 319.811 98.274C319.51 99.1594 319.399 100.091 319.29 101.49C319.281 101.602 319.272 101.718 319.263 101.838C319.168 103.088 319.039 104.802 318.553 106.536C317.897 108.877 316.245 110.374 315.771 110.804C315.718 110.851 315.681 110.886 315.66 110.907C315.646 110.921 315.634 110.934 315.622 110.946C315.619 110.989 315.617 111.047 315.617 111.12C315.617 113.523 313.706 115.471 311.349 115.471C308.993 115.471 307.082 113.523 307.082 111.12C307.082 109.712 307.33 108.417 307.874 107.233C308.411 106.066 309.121 105.267 309.628 104.751C310.079 104.291 310.296 104.072 310.389 103.985C310.595 103.176 310.662 102.322 310.769 100.96C310.773 100.906 310.778 100.851 310.782 100.796C310.893 99.3771 311.056 97.4591 311.746 95.4275C312.594 92.9284 314.143 90.0497 315.762 87.4883C317.399 84.8985 319.295 82.3401 321.002 80.4969C324.464 76.7592 328.947 74.1932 333.11 72.1004C334.593 71.3547 336.005 70.6809 337.356 70.0359C340.04 68.755 342.485 67.5881 344.775 66.1986ZM315.637 110.831C315.637 110.832 315.636 110.835 315.635 110.84C315.636 110.834 315.637 110.831 315.637 110.831Z" fill="black"/>
<path d="M227.295 106.941C227.295 124.14 217.999 137.216 210.861 152.286C209.349 155.477 208.453 158.78 206.842 162.002C205.378 164.93 202.11 169.262 201.444 172.259C200.708 175.572 199.265 181.246 202.224 183.835C205.038 186.298 202.464 176.358 202.464 172.619C202.464 170.085 202.14 167.314 202.524 164.821C202.861 162.628 203.609 149.558 201.624 156.364C201.11 158.125 204.778 152.354 205.103 151.146C206 147.812 205.881 144.387 206.782 141.009C207.441 138.54 210.021 137.014 210.021 134.472C210.021 133.136 210.283 128.18 208.342 131.533C203.554 139.802 203.75 152.149 205.463 161.283C206.362 166.081 207.352 170.772 207.922 175.618C208.119 177.295 208.211 182.745 209.541 184.075C211.453 185.986 211.98 183.433 213.26 182.755C216.14 181.231 220.777 187.507 222.737 188.993C225.69 191.234 226.471 196.064 229.994 197.63C232.38 198.69 235.014 203.189 236.892 205.068C237.521 205.697 241.234 209.842 240.251 206.267C237.749 197.168 232.204 188.091 227.775 179.816C225.714 175.965 223.326 171.852 219.978 168.96C216.545 165.995 212.518 163.704 208.942 160.923C203.108 156.385 207.986 164.452 209.601 166.381C221.889 181.057 234.811 195.16 245.409 211.186C246.034 212.131 254.16 224.74 254.286 222.462C254.752 214.071 248.94 205.814 245.889 198.35C244.745 195.55 241.73 185.954 239.171 184.675" stroke="#FB0153" stroke-width="19" stroke-linecap="round"/>
<path d="M224.057 222.462C224.057 212.545 224.057 242.295 224.057 252.212C224.057 258.203 223.32 263.116 227.776 267.807C230.905 271.1 236.277 276.148 236.953 280.882C237.865 287.267 240.096 291.925 244.57 296.897C246.994 299.59 248.944 303.072 251.648 305.354C254.62 307.861 253.378 304.971 253.147 301.635C252.126 286.823 250.173 271.91 248.829 257.13C248.555 254.113 245.867 238.1 244.33 248.853C241.145 271.148 238.511 295.647 242.411 318.07C242.929 321.05 243.661 343.114 246.73 333.185C249.588 323.936 248.728 314.049 249.429 304.514C250.277 292.983 250.069 281.485 249.129 269.966C248.779 265.675 248.889 261.372 248.889 257.07C248.889 251.109 248.958 258.116 248.829 260.309C247.09 289.873 247.809 319.611 247.809 349.259C247.809 354.938 246.866 365.205 249.969 370.132C256.06 379.806 261.653 390.735 266.703 401.022C270.012 407.762 274.157 414.292 277.799 420.875C279.489 423.929 280.718 426.488 282.837 429.212C285.493 432.627 287.458 434.418 291.535 436.23C293.89 437.277 299.089 436.9 300.711 438.929C301.709 440.176 305.327 439.55 306.949 440.548C309.065 441.85 311.414 442.96 313.667 444.027C316.384 445.314 323.185 445.723 317.746 443.547C311.315 440.975 307.609 438.594 300.232 438.389C293.134 438.192 286.114 437.06 278.879 437.309C275.597 437.423 268.288 440.938 267.303 444.387C266.749 446.324 264.946 440.548 267.783 440.548C270.577 440.548 276.531 444.558 278.519 446.546C283.992 452.019 288.679 461.717 295.313 465.62C297.605 466.968 300.513 470.192 302.631 472.098C305.024 474.252 308.066 474.345 310.908 475.157C311.83 475.42 311.777 478.005 310.188 476.416C309.092 475.32 309.605 474.017 307.729 474.017C305.914 474.017 298.471 471.358 301.791 469.699" stroke="#FB0153" stroke-width="61" stroke-linecap="round"/>
<path d="M267.094 483.228C269.582 485.468 271.647 487.781 273.958 490.092C276.857 492.991 279.799 495.599 282.382 498.828C283.536 500.271 284.923 501.511 286.143 502.884C286.774 503.594 287.794 505.036 288.622 505.45C290.681 506.479 285.814 501.442 285.814 499.14" stroke="#FB0153" stroke-linecap="round"/>
<path d="M322.006 498.828C322.006 503.341 322.006 507.853 322.006 512.366C322.006 513.885 322.006 515.405 322.006 516.925C322.006 517.865 321.708 518.21 322.162 517.393C323.076 515.747 323.374 513.504 323.584 511.621C323.603 511.443 324.15 509.223 324.433 509.506C324.741 509.814 324.502 511.232 324.502 511.638C324.502 514.645 324.581 517.663 324.502 520.669C324.45 522.649 323.878 524.634 323.878 526.597C323.878 528.18 323.878 529.763 323.878 531.346C323.878 532.708 323.408 535.096 324.19 536.269" stroke="#FB0153" stroke-width="25" stroke-linecap="round"/>
<path d="M257.793 470.386C257.859 471.583 258.851 472.168 259.581 473.034C260.361 473.959 260.943 475.033 261.713 475.956C264.796 479.656 267.798 483.443 270.945 487.097C273.788 490.399 276.388 494.154 279.695 496.999C280.936 498.067 282.88 500.022 283.718 501.469C284.087 502.107 284.531 503.117 285.196 503.497C286.246 504.097 287.445 506.012 288.583 506.265C289.521 506.474 289.047 504.738 289.047 503.807" stroke="#FB0153" stroke-width="25" stroke-linecap="round"/>
<path d="M293.998 512.162C294.809 512.252 295.444 513.281 296.164 513.641C297.108 514.113 297.707 514.494 298.64 515.257C299.8 516.206 300.784 517.31 301.872 518.334C302.534 518.957 302.549 519.898 303.591 519.898" stroke="#FB0153" stroke-width="25" stroke-linecap="round"/>
<path d="M329.585 515.566C329.585 517.468 329.585 519.371 329.585 521.274C329.585 522.161 330.111 525.276 329.516 526.018C328.787 526.93 328.707 528.512 327.883 529.336C327.546 529.674 327.141 530.233 327.11 530.729C327.099 530.901 327.455 529.856 327.729 529.491" stroke="#FB0153" stroke-width="25" stroke-linecap="round"/>
<path d="M218.701 98.204C220.331 98.4297 222.166 98.6017 223.709 99.2055C224.81 99.6366 225.883 100.199 226.985 100.603C229.634 101.574 231.633 103.29 233.835 104.992C234.48 105.49 235.085 106.058 235.739 106.538C237.423 107.772 234.983 105.349 234.651 105.029C232.101 102.572 229.053 100.517 226.281 98.3152C225.946 98.0496 224.067 96.9655 224.067 96.5471C224.067 96.0597 226.167 96.9728 226.219 96.9922C228.74 97.9311 231.487 98.9829 233.749 100.442C235.4 101.507 237.35 102.981 239.3 103.335C239.863 103.438 241.189 104.771 240.018 103.991C238.501 102.98 236.866 102.188 235.27 101.307C232.77 99.9283 231.065 97.5827 228.593 96.2009C227.514 95.5983 228.731 96.1095 229.162 96.3246C231.653 97.5702 234.195 99.6765 236.16 101.641C237.4 102.881 238.422 104.28 239.622 105.548C240.444 106.418 240.857 107.815 242.07 108.219" stroke="#FB0153" stroke-width="25" stroke-linecap="round"/>
<path d="M311.416 110.324C311.191 112.354 309.201 114.913 308.301 116.652C305.129 122.782 302.787 129.207 300.219 135.59C299.372 137.697 298.118 139.616 297.25 141.724C296.41 143.762 296.231 146.011 295.741 148.15C295.478 149.295 295.007 153.58 293.891 154.138" stroke="black" stroke-width="8" stroke-linecap="round"/>
<path d="M241.314 87.1021C242.868 87.2747 245.643 91.4116 246.475 92.7979C247.686 94.8167 249.146 96.8322 250.491 98.7372C251.426 100.062 252.716 102.692 253.144 104.19C253.656 105.98 255.166 107.597 256.017 109.253C257.049 111.261 257.932 113.342 258.986 115.338C265.416 127.516 270.768 140.205 276.658 152.604C278.495 156.472 279.409 160.652 281.234 164.532C281.883 165.911 282.158 169.099 283.376 169.911" stroke="black" stroke-width="8" stroke-linecap="round"/>
<path d="M283.275 171.863C283.275 173.166 283.917 174.323 284.41 175.507C284.751 176.324 285.479 177.397 285.499 178.286C285.51 178.79 285.521 179.194 285.63 179.684C285.73 180.132 285.762 178.774 285.808 178.317C286.077 175.645 287.043 172.808 287.939 170.296C289.117 166.991 290.184 163.64 291.459 160.374C292.523 157.65 293.306 154.872 294.949 152.407" stroke="black" stroke-width="8" stroke-linecap="round"/>
<path d="M286.904 528.056C287.833 528.159 289.033 529.412 289.776 529.914C292.29 531.612 294.149 533.357 296.26 535.468C299.249 538.458 302.496 541.315 305.552 544.233C306.691 545.319 308.57 546.633 309.311 547.992C309.867 549.011 311.707 549.696 312.5 550.695C313.304 551.708 314.303 552.59 315.013 553.715C315.324 554.206 316.555 555.488 316.555 555.425" stroke="black" stroke-width="8" stroke-linecap="round"/>
<path d="M346.101 536.457C344.924 536.457 344.515 537.425 343.639 537.972C341.161 539.521 339.275 542.098 337.219 544.107C334.685 546.586 332.485 549.401 330.179 552.084C327.374 555.348 325.081 559.015 322.234 562.218" stroke="black" stroke-width="8" stroke-linecap="round"/>
<path d="M322.614 561.65C322.497 560.718 320.654 559.561 320.004 558.998C319.123 558.235 318.264 557.633 317.31 556.956C316.329 556.261 314.848 555.593 314.848 554.262" stroke="black" stroke-width="8" stroke-linecap="round"/>
</svg>
