<svg width="251" height="244" viewBox="0 0 251 244" fill="none" xmlns="http://www.w3.org/2000/svg">
<g clip-path="url(#clip0_416_44)">
<path fill-rule="evenodd" clip-rule="evenodd" d="M86.8957 83.3001C84.4105 81.4063 82.6565 78.5336 82.2403 75.1603C81.6274 70.1919 84.0913 65.5523 88.1241 63.2058C88.2644 63.0642 88.4348 62.8939 88.6134 62.7204C88.8655 62.4755 89.2203 62.1397 89.6379 61.7843C90.0355 61.4458 90.6614 60.9418 91.4614 60.4431C92.6295 59.7148 93.2504 59.3569 93.6564 59.1229C94.0929 58.8714 94.2807 58.7631 94.633 58.4915C98.1438 55.7848 102.457 53.7472 105.157 52.4721C105.728 52.202 106.228 51.966 106.632 51.7652C114.532 47.8386 123.212 45.8034 132.69 46.8417C140.766 47.7264 148.237 52.3187 152.288 54.8669C157.116 57.9027 161.47 61.8619 164.846 64.933C165.595 65.6138 166.296 66.2509 166.943 66.8247C173.647 72.7681 179.307 79.3612 184.345 86.3596C190.35 94.7019 195.839 103.69 200.143 113.59C204.155 122.822 207.45 132.307 209.39 142.78C210.26 147.471 211.348 154.923 210.146 161.783C207.66 175.984 197.679 185.044 189.119 190.72C182.268 195.261 173.647 196.186 169.019 196.682C168.673 196.72 168.349 196.754 168.051 196.788C165.198 197.11 162.283 197.316 159.211 197.316C159.128 197.316 158.961 197.321 158.467 197.347C158.428 197.35 158.386 197.352 158.342 197.354C157.933 197.375 157.297 197.409 156.651 197.421C155.344 197.447 152.732 197.441 149.922 196.491C139.784 193.067 130.388 188.549 121.463 183.876C117.645 183.64 114.427 182.594 111.921 181.585C110.534 181.026 109.219 180.415 108.19 179.936L108.184 179.934L108.175 179.93C107.064 179.414 106.238 179.03 105.418 178.691C103.096 177.731 100.678 176.891 97.8649 175.914L97.6609 175.843C96.393 175.403 95.0429 174.933 93.6497 174.425C91.4316 174.074 89.2499 173.707 87.1137 173.338C82.1279 172.479 77.3866 170.306 73.6778 166.331C70.0422 162.436 68.2448 157.717 67.4609 153.216C66.7934 149.384 66.258 145.238 65.769 141.453C65.5368 139.655 65.3152 137.939 65.0948 136.376C64.482 132.029 64.5997 127.305 66.0018 122.684C60.5543 121.581 56.4497 116.708 56.4497 110.864C56.4497 104.262 61.6866 98.9002 68.1807 98.8099C68.2493 98.7988 68.4931 98.7606 68.9887 98.6473C69.2889 98.5788 69.5436 98.5166 69.8701 98.4369C70.0508 98.3928 70.2534 98.3434 70.4977 98.2846C71.082 98.1438 71.8603 97.9612 72.6913 97.8071C73.6872 97.6224 74.6235 97.4548 75.5178 97.2947C76.4569 95.4793 77.541 93.7203 78.734 92.0475C79.2934 91.1718 79.9387 90.3185 80.6827 89.5071C82.5957 87.1842 84.7052 85.0832 86.8957 83.3001ZM174.424 146.131C174.437 146.116 174.45 146.099 174.463 146.084L174.464 146.083C174.504 146.036 175.317 145.073 174.416 141.544C174.465 143.073 174.468 144.604 174.424 146.131ZM141.022 142.323C141.425 142.612 141.837 142.897 142.258 143.178C142.838 142.17 143.343 141.124 143.783 140.022C142.927 140.873 142 141.643 141.022 142.323Z" fill="#FCFF56"/>
<path fill-rule="evenodd" clip-rule="evenodd" d="M102.751 66.721C102.769 68.1769 102.781 69.6719 102.781 71.2097C102.781 77.8333 97.4193 83.2027 90.8058 83.2027C84.1923 83.2027 78.831 77.8333 78.831 71.2097C78.831 69.1799 78.7857 66.9826 78.7376 64.6581C78.5191 54.081 78.2464 40.871 81.9471 28.8251C82.4844 27.0764 82.8159 25.1296 83.1948 22.3956C83.2399 22.0709 83.2862 21.7286 83.3346 21.3711C83.6307 19.1857 84.0035 16.4332 84.6127 13.6625L84.6142 13.6461L84.615 13.6369C84.655 13.2014 84.7458 12.2134 84.9434 11.1598C84.946 11.1455 84.949 11.1301 84.952 11.1135C85.079 10.4323 85.5631 7.83474 87.3 5.36211C88.3268 3.90034 90.4547 1.54226 94.0818 0.492106C97.93 -0.622076 101.296 0.350231 103.429 1.48111C104.698 2.1538 105.598 2.91281 106.102 3.37422C106.647 3.87332 107.068 4.34158 107.354 4.67973C107.914 5.34072 108.343 5.96227 108.587 6.32647C108.842 6.70649 109.065 7.06482 109.179 7.2481L109.189 7.26371C109.218 7.31015 109.24 7.34659 109.259 7.37436C110.059 8.53492 110.823 9.73281 111.445 10.7088C111.575 10.9133 111.7 11.108 111.817 11.2906C112.587 12.4925 113.18 13.3851 113.77 14.1635C117.245 18.7492 120.458 23.9711 123.254 28.5164C124.206 30.0629 125.109 31.5312 125.958 32.8693C127.171 34.7826 128.015 36.6836 128.52 37.8223L128.543 37.875C129.152 39.2479 129.362 39.7042 129.581 40.0747C130.146 41.0296 130.545 41.9068 130.816 42.5499C131.032 43.0624 131.237 43.6004 131.344 43.8824C131.361 43.9263 131.375 43.9639 131.387 43.9944C131.395 44.0151 131.402 44.0345 131.409 44.0529C133.506 47.2633 134.602 50.5393 135.289 52.9477C135.311 53.0248 135.34 53.1202 135.403 53.3167C135.408 53.3312 135.413 53.3496 135.42 53.3716C135.473 53.5354 135.588 53.8931 135.685 54.2268C135.686 54.229 135.687 54.2344 135.69 54.2432C135.776 54.5045 136.811 57.6632 135.921 61.2874C135.325 63.7142 133.994 66.0029 131.962 67.7625C131.89 67.8254 131.817 67.8868 131.745 67.9469C132.61 68.8657 133.512 69.6235 134.507 70.251C137.951 72.4226 143.106 73.7934 148.384 74.0092C148.591 74.0176 148.915 74.0286 149.313 74.0369C149.487 73.8306 149.665 73.6353 149.842 73.4513C151.552 71.6789 153.379 70.8365 154.133 70.5127C155.051 70.1186 155.87 69.8817 156.354 69.7521C156.873 69.6129 157.349 69.5082 157.649 69.4438C157.818 69.4075 157.919 69.3861 157.992 69.3708C158.72 69.0815 159.383 68.8803 159.94 68.7352C160.321 68.636 160.684 68.5561 160.988 68.4949C161.523 68.2049 162.466 67.7187 163.712 67.3069C164.319 66.9688 165.102 66.5916 166.032 66.2756C167.452 65.7935 168.812 65.5856 170.043 65.5267C170.384 65.3017 170.696 65.1109 170.963 64.9524C172.322 64.1487 173.714 63.5098 174.919 63.02C177.251 62.0714 179.855 61.2917 181.946 60.9111C182.319 60.8432 182.57 60.7601 183.374 60.4936C183.763 60.3647 184.282 60.1928 185.007 59.959C186.749 59.3973 189.762 58.4767 193.367 58.4767H205.889C206.5 58.4767 207.049 58.5107 207.417 58.5379C207.678 58.5573 207.937 58.5801 208.162 58.6009C208.727 58.2856 209.704 57.8054 210.954 57.4765C212.117 57.1706 218.623 55.7537 223.296 61.5151C225.261 63.9377 225.785 66.474 225.924 67.9491C226.064 69.436 225.896 70.6251 225.777 71.2669C225.543 72.534 225.154 73.4699 225.02 73.7857C224.735 74.4576 224.44 74.9738 224.329 75.1653C223.447 77.1886 222.32 78.5567 221.837 79.1372C221.632 79.3823 221.445 79.5958 221.321 79.7375C221.218 79.8546 221.17 79.9074 221.13 79.9524C220.69 80.589 220.235 81.2561 219.763 81.9459C217.591 85.1234 215.089 88.7824 212.37 92.1524C212.164 92.4078 211.863 92.8081 211.486 93.3105C210.001 95.2892 207.329 98.85 204.569 101.355C203.749 102.099 202.928 102.88 202.066 103.714C201.933 105.15 201.573 106.274 201.322 106.939C200.46 109.227 199.086 110.754 198.738 111.14L198.715 111.166C198.147 111.799 197.472 112.427 196.821 112.988C197.196 113.502 197.581 114.031 197.97 114.575C200.638 115.443 203.002 117.244 204.533 119.801C206.89 121.568 208.472 123.632 209.298 124.754C209.951 125.642 210.523 126.507 210.944 127.149C211.072 127.346 211.182 127.514 211.278 127.662C211.551 128.08 211.715 128.331 211.88 128.569C212.23 129.073 212.564 129.533 212.879 129.951C213.022 129.989 213.17 130.029 213.32 130.068C213.746 130.181 214.253 130.309 214.815 130.451C216.576 130.895 218.87 131.475 220.886 132.128C222.942 132.794 224.745 133.624 225.983 134.199C226.123 134.264 226.256 134.326 226.383 134.384C227.539 134.923 228.184 135.223 228.857 135.476C229.914 135.873 230.852 136.307 231.568 136.652C231.937 136.83 232.519 137.121 232.934 137.327C233.128 137.425 233.285 137.503 233.367 137.543C233.99 137.85 234.275 137.964 234.343 137.993C236.102 138.402 237.524 139.021 238.22 139.331C238.304 139.346 238.396 139.362 238.492 139.383L238.509 139.386C238.704 139.424 239.591 139.599 240.644 140.026C241.319 140.323 243.125 141.391 244.186 142.247C244.387 142.477 244.593 142.761 244.8 143.092C244.967 143.208 245.152 143.341 245.345 143.49C245.347 143.492 245.351 143.495 245.357 143.499C245.507 143.613 246.851 144.623 247.987 146.333C248.447 147.026 250.429 150.066 249.904 154.417C249.206 160.193 244.992 163.097 242.463 164.111C240.56 164.873 238.896 164.979 238.307 165.01C237.509 165.051 236.822 165.019 236.365 164.987C235.442 164.921 234.582 164.788 233.99 164.687C232.762 164.475 231.614 164.207 231.198 164.108C231.037 164.069 230.671 164.011 229.321 163.907C229.233 163.9 229.137 163.893 229.035 163.886C227.925 163.803 226.017 163.662 224.09 163.276C224.147 163.288 224.032 163.253 223.246 163.233C223.05 163.228 222.858 163.224 222.599 163.219C222.357 163.214 222.066 163.207 221.761 163.198C221.149 163.179 220.383 163.145 219.534 163.064C218.366 162.953 217.374 162.732 216.642 162.537C215.937 162.35 215.313 162.144 214.987 162.036L214.984 162.035C214.892 162.004 214.823 161.982 214.764 161.962C214.611 161.957 214.38 161.954 214.048 161.959C213.73 161.964 213.421 161.973 213.013 161.987C212.923 161.989 212.828 161.992 212.727 161.995C212.221 162.01 211.575 162.028 210.897 162.028C210.247 162.028 209.374 162.05 208.359 162.076C205.496 162.149 201.507 162.249 198.22 161.962C198.219 161.962 198.213 161.962 198.203 161.961C198.04 161.949 196.788 161.858 195.647 161.668C194.997 161.559 194.011 161.365 192.915 160.993C192.066 160.705 190.38 160.062 188.668 158.687C188.487 158.558 188.037 158.233 187.607 157.88C187.344 157.663 186.788 157.195 186.19 156.539C186.181 156.53 186.172 156.519 186.162 156.508C185.812 156.128 184.067 154.228 183.317 151.19C182.848 149.291 182.654 146.446 183.988 143.418C184.252 142.818 184.552 142.266 184.876 141.762C183.22 140.465 181.61 139.078 180.067 137.595C176.723 134.382 174.462 132.677 172.879 132.003C172.595 131.965 172.241 131.914 171.923 131.861C171.312 131.759 170.044 131.531 168.655 131.013C167.933 130.744 166.878 130.287 165.747 129.525C164.62 128.764 163.072 127.464 161.86 125.4C161.248 124.358 160.22 122.298 160.1 119.505C159.96 116.234 161.125 112.939 163.523 110.448C165.578 108.315 167.86 107.472 169.058 107.127C169.42 107.023 169.768 106.941 170.095 106.875C170.265 106.404 170.467 105.926 170.708 105.444C172.024 102.808 173.973 100.762 175.336 99.4945C175.768 98.0567 176.383 96.9887 176.561 96.6809L176.566 96.6719C176.972 95.9674 177.478 95.2375 177.726 94.8784C177.743 94.8543 177.758 94.8321 177.773 94.8115C179.681 92.052 181.93 89.8679 183.364 88.475C183.52 88.3233 183.666 88.1811 183.802 88.0485C185.035 86.84 186.41 85.4946 187.853 84.1621C187.343 84.2871 186.799 84.4063 186.23 84.5102C186.231 84.51 186.231 84.5099 186.23 84.5102C186.22 84.5121 186.141 84.5277 185.994 84.5643C185.834 84.604 185.63 84.6592 185.394 84.7302C184.91 84.8753 184.393 85.0551 183.928 85.2442C183.787 85.3013 183.661 85.3552 183.552 85.4047C181.806 87.0712 179.941 87.954 178.667 88.4242C177.049 89.021 175.573 89.2515 174.605 89.3588C174.121 89.4124 173.615 89.4469 173.138 89.4684C172.852 89.5879 172.555 89.7017 172.246 89.8082C172.057 89.8733 171.867 89.9342 171.679 89.9907C171.59 90.0401 171.492 90.0932 171.389 90.1485C171.159 90.2714 170.88 90.4155 170.561 90.566C170.032 90.8164 169.525 91.0193 169.054 91.1847C168.1 92.5667 166.994 93.6215 166.038 94.3418C163.943 95.9207 161.777 96.6218 160.609 96.9479C159.253 97.326 157.934 97.5438 156.856 97.6805C152.79 98.1952 148.218 98.0082 147.414 97.9753L147.408 97.9751C139.321 97.6446 129.736 95.5865 121.746 90.5487C112.291 84.5862 107.097 74.8523 103.732 68.542C103.483 68.0771 103.245 67.6308 103.016 67.2059C102.932 67.0518 102.844 66.89 102.751 66.721ZM122.48 46.9995C122.483 47.0009 122.433 47.0039 122.322 47.0043C122.421 46.9982 122.477 46.998 122.48 46.9995ZM170.79 130.333C170.774 130.328 170.758 130.324 170.741 130.319L170.752 130.322C170.764 130.325 170.777 130.329 170.79 130.333ZM195.401 160.177H195.193C195.202 160.177 195.213 160.178 195.227 160.178C195.265 160.178 195.324 160.178 195.401 160.177ZM203.043 118.82C203.04 118.818 203.038 118.816 203.036 118.815C203.125 118.876 203.13 118.885 203.043 118.82ZM173.601 132.102C173.598 132.103 173.554 132.096 173.476 132.083C173.566 132.095 173.605 132.102 173.601 132.102ZM188.893 158.85C188.891 158.849 188.858 158.825 188.802 158.783C188.868 158.83 188.895 158.851 188.893 158.85ZM158.561 69.2426C158.566 69.2432 158.51 69.2589 158.38 69.2881C158.492 69.2566 158.557 69.242 158.561 69.2426ZM150.07 90.944C150.09 90.9638 150.106 90.9799 150.118 90.9924L150.123 90.9978C150.106 90.9803 150.088 90.9624 150.07 90.944Z" fill="#FCFF56"/>
<path fill-rule="evenodd" clip-rule="evenodd" d="M162.747 184.213C162.747 177.532 168.116 172.116 174.74 172.116C178.536 172.116 181.685 173.805 183.781 175.995C185.58 177.875 186.392 179.87 186.754 180.919C187.465 182.983 187.596 184.945 187.642 185.682C187.677 186.224 187.697 186.845 187.709 187.298C188.571 189.997 189.91 192.781 191.721 196.068C193.054 198.488 194.772 200.89 196.932 203.74C197.623 204.65 198.147 205.484 198.465 205.997C198.556 206.143 198.63 206.26 198.69 206.357C198.884 206.67 198.945 206.768 199.034 206.898C199.311 207.303 199.725 207.93 200.117 208.679C200.119 208.684 200.125 208.692 200.132 208.704C200.295 209.004 201.598 211.388 201.606 214.581C201.611 216.697 201.012 220.63 197.544 223.729C194.299 226.628 190.693 226.834 189.13 226.782C186.458 226.693 184.441 225.688 184.153 225.544C184.141 225.538 184.132 225.534 184.127 225.531C183.152 225.061 182.264 224.472 182.073 224.344C182.061 224.336 182.051 224.33 182.044 224.325C181.899 224.231 181.812 224.173 181.763 224.142C180.093 223.192 178.148 222.319 175.699 221.299C175.206 221.094 174.677 220.877 174.121 220.648C172.08 219.81 169.685 218.826 167.45 217.769C165.513 216.852 163.5 216.121 160.889 215.174C160.311 214.963 159.704 214.743 159.062 214.507C155.836 213.324 151.799 211.779 147.935 209.487C147.4 209.17 146.645 208.828 145.284 208.339C145.014 208.243 144.614 208.106 144.137 207.942C142.957 207.537 141.311 206.973 140.049 206.478C140.038 206.474 139.968 206.45 139.811 206.413C139.589 206.361 139.287 206.303 138.748 206.213C138.645 206.196 138.519 206.176 138.375 206.153C137.386 205.997 135.521 205.7 133.697 205.175C127.328 203.34 123.641 196.645 125.461 190.221C127.28 183.798 133.918 180.078 140.287 181.914C140.612 182.007 140.888 182.052 141.931 182.223C142.134 182.258 142.368 182.296 142.637 182.341C143.992 182.565 146.266 182.959 148.74 183.929C149.592 184.263 150.208 184.471 151.008 184.742C151.611 184.947 152.32 185.186 153.312 185.541C155.189 186.215 157.614 187.161 160.097 188.634C161.173 189.273 162.396 189.855 163.863 190.462C163.839 190.245 163.825 190.073 163.816 189.958C163.791 189.65 163.775 189.352 163.764 189.095C163.111 187.602 162.747 185.95 162.747 184.213ZM195.299 204.158C195.3 204.16 195.277 204.145 195.222 204.111C195.27 204.14 195.297 204.157 195.299 204.158ZM163.706 187.241C163.686 187.076 163.694 187.056 163.705 187.233C163.705 187.236 163.706 187.238 163.706 187.241Z" fill="#FCFF56"/>
<path fill-rule="evenodd" clip-rule="evenodd" d="M76.6185 160.243C80.3085 154.735 87.7869 153.247 93.3219 156.918C101.312 162.219 104.513 170.634 106.049 176.835C107.226 181.587 107.817 186.949 108.227 190.676C108.342 191.724 108.443 192.643 108.539 193.383C108.854 195.815 109.034 197.689 109.184 199.273C109.207 199.51 109.229 199.74 109.25 199.965C111.446 198.022 113.841 197.07 114.813 196.698C116.348 196.111 117.849 195.718 118.973 195.486C127.88 193.653 136.725 193.694 144.275 193.729C145.283 193.734 146.266 193.739 147.224 193.739C153.876 193.739 159.269 199.105 159.269 205.723C159.269 212.343 153.876 217.709 147.224 217.709C146.173 217.709 145.15 217.707 144.155 217.704C136.967 217.685 131.148 217.67 125.38 218.672C124.864 219.428 124.21 220.26 123.405 221.061C120.958 223.497 118.385 225.72 115.877 227.73C115.854 227.752 115.828 227.777 115.8 227.805L115.785 227.818C115.54 228.053 115.086 228.486 114.587 228.926C114.148 229.312 113.282 230.057 112.209 230.74C111.686 231.072 110.704 231.658 109.401 232.122C108.346 232.497 105.382 233.423 101.751 232.39C99.9585 231.881 98.6062 231.069 97.706 230.41C96.8068 229.751 96.1484 229.091 95.7255 228.628C95.2739 228.133 94.898 227.646 94.6333 227.28C91.8141 224.576 90.2484 221.264 89.5214 219.637C88.3981 217.122 87.6152 214.618 87.1704 213.051C85.8365 208.356 85.3289 203.16 84.9648 199.433C84.8519 198.278 84.7529 197.264 84.6472 196.45C84.441 194.86 84.2771 193.381 84.1214 191.976C83.746 188.591 83.4182 185.633 82.6601 182.575C81.6161 178.362 80.41 177.162 79.9592 176.864C74.4241 173.191 72.9285 165.751 76.6185 160.243ZM98.6068 210.988C98.5777 211.013 98.5638 211.026 98.5641 211.025C98.5644 211.024 98.579 211.011 98.6068 210.988Z" fill="#FCFF56"/>
<path fill-rule="evenodd" clip-rule="evenodd" d="M58.293 134.805C58.2112 134.46 58.1137 134.116 57.9999 133.773C55.909 127.469 49.129 124.063 42.8563 126.164C38.4667 127.634 35.9524 130.889 34.7469 133.64C34.6551 133.849 34.5699 134.057 34.4907 134.264C34.4506 134.29 34.4108 134.316 34.3714 134.343C33.5994 134.857 32.9661 135.279 32.58 135.521C27.632 138.629 23.5133 142.656 20.3104 146.221C15.8743 151.158 10.8369 156.776 6.49275 163.026C6.48481 163.037 6.36521 163.198 5.93381 163.726C5.87711 163.796 5.81321 163.874 5.7435 163.959C5.38827 164.391 4.8823 165.008 4.41072 165.617C3.83732 166.357 3.08516 167.376 2.3894 168.55C1.73885 169.648 0.792941 171.447 0.290464 173.719C-0.630196 177.882 0.705059 181.962 3.34371 184.743C5.37421 186.884 7.61596 187.688 8.43715 187.956C10.1806 188.527 11.7195 188.586 12.1084 188.6C12.1188 188.601 12.1283 188.601 12.1371 188.602C12.3969 188.612 12.6425 188.615 12.8519 188.614C16.2204 188.984 19.8829 189.328 23.8607 189.328C28.3867 189.328 32.8123 189.026 36.7845 188.755L36.9507 188.744C41.0978 188.46 44.7719 188.214 48.4072 188.214H74.7187C81.3307 188.214 86.6908 182.828 86.6908 176.184C86.6908 169.539 81.3307 164.154 74.7187 164.154H73.5501C72.9268 160.689 71.0688 158.307 70.0074 157.152C68.611 155.632 67.1082 154.611 66.1875 154.033C65.9943 153.912 65.7825 153.786 65.5608 153.657C64.5503 152.261 63.9528 151.403 63.4602 150.377C62.8497 149.105 62.1874 147.923 61.7044 147.063L61.6122 146.899C61.1226 146.028 60.8 145.454 60.5145 144.888C60.3348 144.533 60.2236 144.28 60.1564 144.115C60.1939 143.51 60.2662 142.189 60.1369 140.758C60.0673 139.989 59.9072 138.769 59.4535 137.39C59.2357 136.728 58.8798 135.811 58.293 134.805ZM40.3736 164.412C39.9594 163.805 39.5688 163.163 39.2095 162.484C39.1215 162.317 39.0187 162.127 38.9042 161.917C38.8529 161.822 38.7992 161.723 38.7434 161.62C38.5241 161.857 38.304 162.098 38.0834 162.343C37.3689 163.139 36.667 163.921 35.9785 164.694C37.3943 164.598 38.8645 164.498 40.3736 164.412Z" fill="#FCFF56"/>
<path fill-rule="evenodd" clip-rule="evenodd" d="M89.1835 83.6932C90.1635 81.9514 90.7229 79.9381 90.7229 77.7931C90.7229 71.1746 85.3959 65.8091 78.8245 65.8091C76.1375 65.8091 72.4961 66.475 69.3094 69.2087C66.1775 71.8953 65.0596 75.237 64.6373 77.3244C64.442 78.2898 64.3507 79.2117 64.311 79.9979C64.1373 79.9592 63.9607 79.919 63.7811 79.8775C59.9526 78.9925 56.129 77.8446 51.8603 76.563L51.7934 76.5429C47.743 75.3269 43.2792 73.988 38.6654 72.9287C37.6578 72.4334 35.9897 71.6146 34.2789 70.9409C32.4384 70.2161 29.3136 69.1373 25.7706 69.1373H24.0666L24.0659 93.0627C24.0377 93.0596 24.0094 93.0564 23.9811 93.053C23.7474 93.0253 23.5135 92.9865 23.2821 92.9369C22.7789 92.8291 22.4141 92.6968 22.2575 92.6358C22.2072 92.6162 22.177 92.6033 22.1768 92.6032C22.1767 92.6032 22.182 92.6054 22.1934 92.6105C22.2436 92.6324 22.2985 92.6571 22.454 92.7271L22.4782 92.7381C22.7462 92.8588 23.2654 93.0927 23.8753 93.3296C25.9167 94.1227 28.1621 94.9255 30.5755 95.5978C31.5796 96.0704 32.4756 96.4797 33.2891 96.8513C34.4384 97.3763 35.4231 97.8262 36.316 98.2732C36.0523 99.0117 35.8058 99.7815 35.5968 100.563C34.6243 104.201 34.6437 107.785 34.7239 110.146C34.7779 111.735 34.8399 112.695 34.8898 113.466C34.9438 114.303 34.9836 114.92 34.9836 115.883V131.783C34.9836 138.403 40.3108 143.768 46.882 143.768C53.4534 143.768 58.7804 138.403 58.7804 131.783V115.883C58.7804 114.568 58.7138 113.268 58.6553 112.22C58.6418 111.977 58.6287 111.747 58.6161 111.526C58.5693 110.706 58.5305 110.026 58.5068 109.327C58.4779 108.476 58.4828 107.851 58.5132 107.373C58.5395 106.963 58.5777 106.788 58.5785 106.783C58.7566 106.12 58.9707 105.666 59.5972 104.336C59.7041 104.108 59.8229 103.856 59.9558 103.572C62.3237 104.079 65.3492 104.605 68.542 104.685C72.419 104.781 77.59 104.255 82.4668 101.294C82.4734 101.29 82.5256 101.261 82.6745 101.177L82.7007 101.162C82.8765 101.063 83.1997 100.88 83.5396 100.676C83.8994 100.46 84.4133 100.139 84.974 99.7299C85.5112 99.3385 86.3069 98.7121 87.1219 97.8401C88.4885 96.3774 91.2821 92.5974 90.3428 87.182C90.1098 85.8383 89.6848 84.6771 89.1835 83.6932ZM88.0823 81.0604C88.0827 81.0613 88.0828 81.083 88.0813 81.1228C88.0812 81.0794 88.0819 81.0596 88.0823 81.0604ZM85.1759 78.9777C85.1721 78.974 85.1732 78.9751 85.1786 78.9801L85.1759 78.9777ZM42.4156 101.901C42.4516 101.924 42.4397 101.919 42.3899 101.885C42.3996 101.891 42.4081 101.896 42.4156 101.901Z" fill="#FCFF56"/>
<path fill-rule="evenodd" clip-rule="evenodd" d="M86.6014 61.7593C91.0824 66.6764 90.6788 74.2503 85.6999 78.6757C84.6615 79.5987 83.2751 80.8804 81.7717 82.2704C79.5182 84.3537 77.0019 86.6802 75.0002 88.4059C72.5757 90.4964 71.4212 91.5042 70.5987 92.5638C70.6028 92.5583 70.5925 92.5714 70.5617 92.6143C70.5285 92.6606 70.4839 92.724 70.4081 92.8339C70.3941 92.8542 70.3761 92.8806 70.3544 92.9122C70.2168 93.1127 69.936 93.5218 69.6562 93.9021C68.886 94.9491 67.6652 96.4367 65.7761 97.8359C60.4173 101.806 52.8152 100.733 48.796 95.4403C45.0146 90.4608 45.7525 83.5199 50.3163 79.4105L50.3616 79.3448C50.5712 79.0412 50.9175 78.5421 51.3479 77.9879C53.7391 74.9075 56.6823 72.386 58.552 70.7842C58.7269 70.6343 58.8925 70.4925 59.0473 70.359L67.0238 79.3825" fill="#FCFF56"/>
<path fill-rule="evenodd" clip-rule="evenodd" d="M38.5204 69.8597C39.0682 70.3284 40.123 71.0219 41.996 71.9449C43.3473 72.6107 44.3626 73.054 45.5307 73.564C46.4312 73.9571 47.4224 74.3899 48.7283 74.9947C51.2535 76.1645 53.594 76.8697 56.7578 77.4931C57.8223 77.7029 58.7116 77.9797 59.3035 78.1777C59.6012 78.2774 59.8709 78.3735 60.0562 78.4398C60.0684 78.4441 60.0802 78.4484 60.0916 78.4524C65.9905 79.1601 70.5624 84.1673 70.5624 90.2388C70.5624 96.7957 65.2308 102.111 58.6539 102.111C55.9118 102.111 53.6949 101.377 52.7383 101.046C53.915 103.473 55.0884 105.891 56.2594 108.294C57.3076 110.446 58.4022 112.679 59.5036 114.928C60.8035 117.581 62.1131 120.253 63.368 122.835C64.6867 125.548 65.2035 126.46 65.7785 127.115C70.1095 132.05 69.608 139.55 64.6583 143.868C59.7087 148.185 52.1854 147.685 47.8545 142.75C44.9778 139.473 43.2051 135.812 42.1143 133.559C42.0527 133.432 41.9932 133.309 41.9359 133.191C40.65 130.546 39.4021 128 38.1451 125.434C37.0589 123.218 35.9659 120.987 34.8358 118.668C33.2338 115.381 31.6495 112.111 30.0714 108.854C26.6879 101.873 23.3333 94.9512 19.8966 88.0319C19.8582 87.9709 19.8171 87.9056 19.7699 87.8305C19.7045 87.7268 19.6276 87.6045 19.5303 87.4496C19.1371 86.8234 18.5674 85.9081 18.0118 84.9402C17.5145 84.0736 16.767 82.7186 16.1998 81.2919C15.9464 80.6545 15.4451 79.3164 15.2288 77.6557C15.2279 77.6496 15.227 77.6433 15.2262 77.6365C15.1158 76.7917 14.3707 71.0922 19.2219 66.7933C23.2476 63.2257 27.8022 63.6887 29.3755 63.9783C31.133 64.3018 32.4083 64.9448 32.8996 65.2033C34.0034 65.7843 34.8256 66.4306 35.1289 66.6716C35.8893 67.2754 36.5889 67.9387 37.004 68.34C37.4821 68.8022 37.9308 69.2575 38.2386 69.5718C38.3721 69.7082 38.4627 69.8006 38.5204 69.8597ZM20.0878 88.3412C20.0863 88.3392 20.0687 88.3107 20.0398 88.2615C20.0749 88.3185 20.0894 88.3431 20.0878 88.3412ZM60.5713 78.6215C60.5714 78.6216 60.5693 78.621 60.5654 78.6197C60.5692 78.6209 60.5713 78.6215 60.5713 78.6215Z" fill="#FCFF56"/>
<path fill-rule="evenodd" clip-rule="evenodd" d="M108.302 17.7199C110.183 19.4351 111.39 20.4867 111.738 20.7207C113.495 21.9044 115.233 23.7794 116.703 25.553C118.194 27.3533 119.587 29.2723 120.637 30.7195L120.668 30.7627C121.799 32.321 123.352 34.4617 124.615 36.7579C125.845 38.9951 127.012 41.7478 127.012 44.516C127.012 46.0921 125.748 47.3698 124.187 47.3698C122.628 47.3698 121.364 46.0921 121.364 44.516C121.364 43.2323 120.774 41.5257 119.677 39.53C118.612 37.5931 117.266 35.7271 116.113 34.1381C115.045 32.666 113.743 30.8726 112.371 29.2167C110.963 27.5161 109.653 26.1756 108.605 25.4699C107.821 24.9421 106.225 23.5142 104.518 21.9578C103.367 20.9094 102.051 19.6933 100.698 18.4431C99.9331 17.737 99.1567 17.02 98.3919 16.316C96.7255 14.7824 95.1107 13.308 93.7461 12.1003C93.7511 12.4241 93.7591 12.7596 93.7694 13.1044C93.7945 13.9391 93.824 14.6205 93.8533 15.2999C93.8794 15.9025 93.9055 16.5037 93.9283 17.2091C93.9669 18.4033 93.9899 19.7446 93.8392 20.7021C93.3778 23.6325 92.5957 26.6109 91.8558 29.4286C91.6451 30.2311 91.4378 31.0205 91.2423 31.7921C90.3325 35.383 89.6347 38.7263 89.6347 41.9805C89.6347 45.0673 88.9838 47.9936 88.4134 50.5581L88.398 50.6274C87.8007 53.3128 87.2987 55.6034 87.2987 57.893C87.2987 59.4692 86.0343 60.7469 84.4745 60.7469C82.9148 60.7469 81.6504 59.4692 81.6504 57.893C81.6504 54.9324 82.2848 52.0819 82.8459 49.561C82.8597 49.499 82.8734 49.4372 82.8871 49.3757C83.4812 46.7052 83.9865 44.3616 83.9865 41.9805C83.9865 37.9655 84.8432 34.0362 85.7705 30.3764C85.9945 29.4922 86.2209 28.6293 86.4431 27.7821C87.1683 25.0172 87.8493 22.4208 88.2611 19.8053C88.3118 19.4836 88.3254 18.7063 88.283 17.3954C88.2685 16.9483 88.2428 16.3311 88.2154 15.6735C88.1813 14.8538 88.1445 13.9714 88.1237 13.2774C88.0808 11.8478 88.067 10.3291 88.1768 9.0341C88.2315 8.38858 88.324 7.70556 88.4937 7.0728C88.6444 6.51128 88.9484 5.62023 89.6588 4.90242C90.7895 3.7598 92.1823 4.07968 92.3817 4.12548L92.3819 4.12553C92.7819 4.21741 93.096 4.37495 93.2469 4.45463C93.5867 4.63406 93.9237 4.86896 94.1978 5.07108C94.7786 5.49932 95.5154 6.10926 96.3202 6.80305C97.9471 8.20548 100.062 10.1328 102.195 12.0962C102.978 12.8165 103.763 13.5412 104.53 14.2502C105.872 15.4901 107.164 16.6822 108.302 17.7199ZM93.975 8.4737C93.9753 8.47437 93.9717 8.48585 93.9628 8.50612C93.9703 8.48315 93.9746 8.47302 93.975 8.4737Z" fill="black"/>
<path fill-rule="evenodd" clip-rule="evenodd" d="M11.8007 64.8186C13.2532 64.9205 14.9309 65.3767 15.6259 65.6754C17.3459 66.4147 19.3102 66.776 21.6129 67.1102C21.9267 67.1557 22.249 67.201 22.5781 67.2472C24.5424 67.5229 26.7471 67.8323 28.8202 68.4438C37.1905 70.9127 46.4099 73.3611 54.6585 73.3611C56.2045 73.3611 57.4578 74.618 57.4578 76.1685C57.4578 77.7189 56.2045 78.9759 54.6585 78.9759C45.503 78.9759 35.5653 76.2859 27.2404 73.8304C25.5958 73.3452 23.8541 73.0988 21.8698 72.8182C21.5244 72.7693 21.1717 72.7194 20.811 72.667C19.843 72.5266 18.8237 72.3684 17.7857 72.155C18.8287 73.0963 19.9136 74.0299 21.031 74.9916L21.165 75.1068C23.1723 76.8343 25.2795 78.6536 27.2383 80.6499C29.4862 82.9406 31.7923 85.1686 34.1316 87.4194C34.3203 87.601 34.5093 87.7829 34.6985 87.9649C36.8457 90.0302 39.0191 92.1206 41.1584 94.2661C41.9518 95.0617 42.7598 96.0547 43.4394 96.8897C43.7263 97.2423 43.9903 97.5666 44.2206 97.8362C45.1294 98.8996 45.8678 99.5842 46.6483 99.9757C48.0311 100.669 48.5916 102.356 47.9002 103.743C47.2089 105.129 45.5274 105.692 44.1447 104.998C42.3338 104.09 41.0022 102.699 39.9696 101.49C39.5396 100.987 39.1791 100.542 38.8477 100.132C38.2807 99.4322 37.7987 98.8372 37.1995 98.2363C35.1037 96.1343 32.9717 94.0836 30.8167 92.0107C30.6299 91.831 30.4428 91.6511 30.2556 91.4711C27.918 89.2218 25.5588 86.9431 23.248 84.5882C21.4793 82.7857 19.5473 81.1133 17.519 79.3677C17.4531 79.311 17.387 79.2541 17.3208 79.1972C15.3817 77.5286 13.3541 75.784 11.4718 73.8962C11.3257 73.7496 11.0325 73.5163 10.5876 73.1622C10.3636 72.984 10.1011 72.775 9.7995 72.5311C9.41967 72.2241 8.99641 71.873 8.63474 71.5341C8.45386 71.3646 8.25306 71.1653 8.06716 70.9499C7.91079 70.7687 7.62589 70.4197 7.42 69.9551C7.16722 69.3846 6.91192 68.5083 7.15265 67.5117C7.41784 66.414 8.14799 65.7123 8.8317 65.3339C9.44847 64.9927 10.072 64.8784 10.5006 64.8325C10.9591 64.7833 11.4091 64.7912 11.8007 64.8186ZM11.0964 70.4153C11.0979 70.4151 11.0994 70.415 11.1011 70.4148C11.084 70.4175 11.0815 70.4169 11.0964 70.4153Z" fill="black"/>
<path fill-rule="evenodd" clip-rule="evenodd" d="M36.7696 142.755C38.3101 142.755 39.5591 144.012 39.5591 145.562C39.5591 146.202 39.5326 147.107 39.0589 148.019C38.8395 148.441 38.5803 148.76 38.3925 148.974C38.2743 149.109 38.1165 149.277 37.9881 149.413C37.943 149.462 37.9014 149.506 37.8666 149.544C37.1251 150.34 36.486 151.422 35.6437 152.845C35.5812 152.95 35.5177 153.058 35.4528 153.167C34.6177 154.576 33.5203 156.404 32.0048 157.711C30.8547 158.703 29.761 159.887 28.5935 161.216C28.331 161.515 28.0622 161.824 27.788 162.139C26.8834 163.18 25.9191 164.289 24.9264 165.318C24.0404 166.236 23.2382 167.134 22.3909 168.084C21.7582 168.792 21.1004 169.529 20.3638 170.323C18.7539 172.059 16.9616 173.84 14.917 175.288C14.813 175.362 14.6954 175.444 14.5677 175.533C14.1984 175.79 13.7444 176.106 13.2877 176.453C14.6347 176.588 16.1426 176.589 17.8303 176.553C18.1284 176.547 18.4333 176.538 18.7439 176.53C21.1533 176.47 23.8999 176.401 26.407 176.851C34.6063 178.324 43.7465 178.825 52.2514 179.13C54.7427 179.22 57.1278 179.585 59.3329 179.922C59.5086 179.948 59.6833 179.976 59.8568 180.002C62.2594 180.367 64.4764 180.676 66.7649 180.676C68.3055 180.676 69.5544 181.934 69.5544 183.484C69.5544 185.034 68.3055 186.29 66.7649 186.29C64.0108 186.29 61.4183 185.916 59.0237 185.552C58.8673 185.529 58.7118 185.505 58.5572 185.481C56.2917 185.136 54.2093 184.818 52.0523 184.74C43.5285 184.435 34.0456 183.926 25.4262 182.377C23.5142 182.034 21.3718 182.085 18.8694 182.143C18.5682 182.152 18.2618 182.159 17.9499 182.165C15.2297 182.223 12.0695 182.239 9.20127 181.351C8.48924 181.13 7.65393 180.745 7.00067 180.013C6.2661 179.191 5.97676 178.17 6.06313 177.182C6.13954 176.309 6.49361 175.595 6.79525 175.112C7.11132 174.606 7.4938 174.155 7.85408 173.78C9.05624 172.526 10.7817 171.337 11.4846 170.852C11.5776 170.787 11.6528 170.735 11.7064 170.698C13.2767 169.585 14.7585 168.139 16.2855 166.493C16.8524 165.881 17.4665 165.196 18.0967 164.491C19.0381 163.439 20.0154 162.348 20.9248 161.406C21.8063 160.493 22.6367 159.538 23.5198 158.522C23.8108 158.188 24.1075 157.847 24.4137 157.498C25.6093 156.138 26.9147 154.707 28.3741 153.449C29.0892 152.832 29.7601 151.814 30.6612 150.293C30.7387 150.161 30.8184 150.027 30.9004 149.887C31.6609 148.595 32.6121 146.978 33.7925 145.708C33.8452 145.652 33.8946 145.599 33.9392 145.552L33.9807 145.507C34.0096 143.982 35.2472 142.755 36.7696 142.755ZM34.2284 145.237C34.2285 145.237 34.2276 145.239 34.2256 145.241C34.2274 145.239 34.2284 145.237 34.2284 145.237ZM10.7701 175.959C10.7703 175.959 10.7754 175.961 10.7847 175.965C10.7745 175.962 10.7699 175.959 10.7701 175.959ZM11.5141 178.107C11.5092 178.117 11.5061 178.122 11.5058 178.122C11.5056 178.122 11.508 178.117 11.5141 178.107Z" fill="black"/>
<path fill-rule="evenodd" clip-rule="evenodd" d="M89.5056 198.44C91.0601 198.44 92.3203 199.699 92.3203 201.252C92.3203 214.243 94.3004 225.104 97.9827 237.226C97.9831 237.226 97.9834 237.225 97.9838 237.225C98.3234 236.762 98.6156 236.334 98.932 235.87C99.1679 235.524 99.4172 235.158 99.7096 234.744C103.139 229.891 107.427 225.891 111.449 222.141C111.577 222.022 111.705 221.902 111.833 221.783C116.042 217.857 119.928 214.174 122.863 209.774C123.726 208.481 125.473 208.132 126.766 208.994C128.06 209.855 128.409 211.602 127.547 212.895C124.193 217.922 119.822 222.027 115.675 225.894C115.602 225.963 115.529 226.031 115.456 226.099C111.313 229.962 107.398 233.615 104.308 237.988C104.132 238.239 103.918 238.551 103.689 238.885C103.309 239.44 102.887 240.056 102.522 240.553C101.922 241.369 101.113 242.391 100.149 243.084C99.6458 243.445 98.9327 243.842 98.0418 243.964C97.0677 244.096 96.1057 243.867 95.2823 243.316C93.879 242.375 93.1526 240.683 92.6771 239.126C88.8162 226.48 86.6909 214.997 86.6909 201.252C86.6909 199.699 87.9511 198.44 89.5056 198.44ZM96.8461 238.528C96.8461 238.528 96.8493 238.525 96.8555 238.522C96.8493 238.526 96.8461 238.528 96.8461 238.528ZM98.6075 238.803C98.6099 238.806 98.6111 238.808 98.611 238.808C98.611 238.808 98.6098 238.806 98.6075 238.803Z" fill="black"/>
<path fill-rule="evenodd" clip-rule="evenodd" d="M180.735 185.758C182.026 184.883 183.77 185.237 184.631 186.55C187.407 190.785 189.487 195.445 191.369 200.003C191.838 201.137 192.291 202.26 192.741 203.369C194.128 206.798 195.467 210.108 197.028 213.281C199.049 217.392 200.595 220.714 200.595 225.933C200.595 226.01 200.595 226.104 200.596 226.208C200.598 226.539 200.601 226.985 200.587 227.382C200.57 227.871 200.522 228.666 200.268 229.412C200.136 229.796 199.881 230.383 199.36 230.898C198.769 231.485 197.96 231.852 197.055 231.851C196.252 231.85 195.598 231.56 195.165 231.307C194.716 231.044 194.315 230.711 193.963 230.372C191.924 228.414 189.44 227.07 186.537 225.635C186.216 225.476 185.889 225.316 185.556 225.153C182.99 223.896 180.122 222.492 177.519 220.526C176.994 220.129 176.319 219.59 175.674 219.076C175.177 218.679 174.697 218.296 174.32 218.005C173.268 217.194 172.307 216.525 171.398 216.063C169.661 215.181 167.907 213.979 166.336 212.903C165.727 212.486 165.146 212.087 164.604 211.733C162.495 210.357 160.619 209.38 158.628 209.069C157.094 208.83 156.042 207.371 156.278 205.812C156.514 204.253 157.948 203.184 159.482 203.423C162.671 203.922 165.36 205.44 167.637 206.925C168.427 207.44 169.146 207.934 169.826 208.4C171.254 209.38 172.514 210.244 173.91 210.954C175.29 211.655 176.578 212.578 177.714 213.453C178.34 213.936 178.833 214.331 179.296 214.704C179.809 215.116 180.285 215.5 180.87 215.941C183.015 217.561 185.377 218.721 187.995 220.006C188.325 220.168 188.657 220.331 188.994 220.498C190.901 221.441 192.923 222.478 194.857 223.815C194.537 221.151 193.577 219.039 192.002 215.836C190.341 212.457 188.891 208.874 187.486 205.401C187.05 204.325 186.62 203.26 186.189 202.214C184.331 197.715 182.419 193.476 179.956 189.719C179.095 188.406 179.444 186.633 180.735 185.758Z" fill="black"/>
<path fill-rule="evenodd" clip-rule="evenodd" d="M203.467 125.044C204.167 123.682 205.867 123.129 207.267 123.81C213.124 126.663 218.559 130.44 223.807 134.088C224.21 134.367 224.611 134.646 225.011 134.924C230.71 138.876 236.248 142.609 242.291 145.225C242.534 145.33 242.908 145.465 243.464 145.665C243.603 145.716 243.754 145.77 243.917 145.829C244.661 146.098 245.567 146.433 246.439 146.819C247.282 147.192 248.252 147.679 249.052 148.291C249.73 148.811 251 149.962 251 151.76C251 152.633 250.781 153.505 250.272 154.285C249.77 155.052 249.093 155.568 248.428 155.906C247.19 156.537 245.77 156.668 244.712 156.692C243.587 156.718 242.431 156.622 241.535 156.543L241.479 156.538C240.478 156.45 239.974 156.405 239.72 156.417C237.809 156.51 235.899 156.805 233.802 157.128C233.58 157.162 233.356 157.197 233.131 157.232C230.832 157.584 228.325 157.942 225.74 157.942H204.439C202.875 157.942 201.606 156.707 201.606 155.183C201.606 153.659 202.875 152.424 204.439 152.424H225.74C227.835 152.424 229.949 152.134 232.251 151.781C232.476 151.747 232.705 151.711 232.936 151.676C234.985 151.358 237.203 151.016 239.437 150.906C240.12 150.873 241.04 150.956 241.772 151.023C241.867 151.032 241.959 151.04 242.047 151.047C242.058 151.048 242.07 151.049 242.082 151.05C242.036 151.034 241.989 151.017 241.944 151.001C241.829 150.959 241.711 150.917 241.591 150.873C241.023 150.67 240.417 150.451 239.989 150.267C233.361 147.397 227.397 143.351 221.726 139.418C221.349 139.156 220.973 138.896 220.598 138.635C215.265 134.931 210.178 131.397 204.733 128.746C203.335 128.065 202.768 126.407 203.467 125.044ZM245.678 152.74C245.676 152.74 245.658 152.725 245.633 152.695C245.667 152.725 245.68 152.74 245.678 152.74Z" fill="black"/>
<path fill-rule="evenodd" clip-rule="evenodd" d="M173.381 63.6126C173.381 62.0298 174.652 60.7468 176.22 60.7468H230.624C231.157 60.7468 231.767 60.7945 232.363 60.9826C232.967 61.173 233.783 61.583 234.342 62.4611C234.919 63.3679 234.929 64.3107 234.813 64.9582C234.704 65.5674 234.463 66.0692 234.281 66.4C233.916 67.0573 233.403 67.6904 233.051 68.1174C232.942 68.2491 232.844 68.3674 232.754 68.4753C232.487 68.797 232.296 69.0266 232.143 69.2411C230.289 71.8317 228.133 74.3972 226.067 76.8536C224.862 78.2885 223.686 79.6862 222.622 81.03C221.664 82.2382 220.817 83.4898 219.903 84.8419C219.572 85.3322 219.232 85.8358 218.874 86.3553C217.579 88.2349 216.113 90.228 214.265 91.9901C213.933 92.3058 213.599 92.6164 213.264 92.9267C212.337 93.7872 211.411 94.6459 210.566 95.6114C209.395 96.9487 208.867 97.9729 208.787 98.6953C208.615 100.268 207.211 101.402 205.652 101.227C204.094 101.052 202.971 99.6354 203.145 98.0623C203.426 95.5115 204.956 93.3642 206.311 91.816C207.372 90.6038 208.623 89.4444 209.592 88.5471C209.879 88.281 210.141 88.0379 210.366 87.8233C211.773 86.4816 212.969 84.8876 214.212 83.083C214.505 82.658 214.805 82.2138 215.113 81.758C216.061 80.3553 217.083 78.8431 218.187 77.4496C219.486 75.8111 220.756 74.3047 221.994 72.8364C223.769 70.7311 225.477 68.7041 227.11 66.4782H176.22C174.652 66.4782 173.381 65.1952 173.381 63.6126Z" fill="black"/>
<path fill-rule="evenodd" clip-rule="evenodd" d="M121.466 53.5169C121.466 46.8859 126.814 41.5104 133.41 41.5104C139.859 41.5104 145.251 42.1911 151.553 43.9014C151.862 43.9853 152.179 44.0707 152.503 44.1579C155.469 44.9573 159.03 45.9173 162.641 47.3375C167.393 49.2067 170.755 51.9293 173.354 54.244C173.786 54.6286 174.294 55.0655 174.856 55.5501C177.566 57.8845 181.558 61.3229 184.574 65.32C188.59 70.6411 193.103 76.8036 196.395 84.3364C196.682 84.9934 197.031 85.7594 197.416 86.6038C198.624 89.2538 200.182 92.6758 201.287 95.9213C202.09 98.2826 202.712 100.589 203.233 102.569C203.321 102.906 203.407 103.231 203.489 103.547C203.921 105.196 204.285 106.585 204.706 107.975C206.193 112.874 206.702 118.371 207.056 122.198C207.137 123.066 207.209 123.849 207.283 124.519C207.72 128.477 208.257 135.26 205.752 141.767C203.796 146.848 202.326 152.581 201.145 158.518C199.073 168.927 192.602 178.161 184.272 183.854C184.241 183.877 184.209 183.898 184.177 183.92C183.108 186.385 181.679 188.525 180.228 190.253C177.796 193.151 174.401 195.965 170.316 197.544C169.635 197.807 169.011 197.999 168.51 198.139C168.008 198.28 167.544 198.39 167.183 198.473C166.946 198.527 166.691 198.583 166.486 198.628C166.164 198.857 165.872 199.048 165.625 199.203C164.884 199.668 164.193 200.027 163.715 200.266C163.334 200.458 162.922 200.652 162.68 200.766C162.632 200.79 162.591 200.809 162.557 200.825C162.407 200.896 162.333 200.932 162.307 200.946C159.955 202.243 156.707 203.84 153.057 204.758C150.637 205.366 148.434 205.33 147.323 205.294C146.725 205.275 146.363 205.259 146.129 205.246C145.234 205.753 144.404 206.114 143.728 206.373C142.537 206.831 141.426 207.122 140.609 207.311C139.852 207.486 139.114 207.626 138.644 207.716L138.545 207.734C138.279 207.785 138.103 207.819 137.954 207.85C137.828 207.875 137.778 207.887 137.778 207.887L137.782 207.886C134.601 208.686 131.03 208.572 129.985 208.54C129.861 208.536 129.772 208.533 129.725 208.533C126.592 208.533 123.849 207.672 122.76 207.33C122.683 207.306 122.613 207.284 122.553 207.265C122.202 207.158 121.963 207.089 121.813 207.047C117.555 206.986 113.522 206.218 109.94 205.189C106.812 204.291 104.516 202.864 103.026 201.86C102.224 201.318 101.775 201 101.467 200.781C101.193 200.587 101.029 200.471 100.825 200.346C100.716 200.305 100.493 200.222 100.284 200.142C99.5728 199.868 97.9282 199.235 96.1657 197.99C93.562 197.699 91.0783 197.101 89.7661 196.771C82.2003 194.87 78.4062 190.819 75.5462 187.765C75.3584 187.564 75.1747 187.368 74.9941 187.177C74.2931 186.435 73.7551 185.733 73.3788 185.211C73.0729 184.787 72.7937 184.367 72.6336 184.125C72.4506 183.963 72.2266 183.761 72.0033 183.552C71.5998 183.173 70.9243 182.514 70.2429 181.656C70.1342 181.52 70.0038 181.352 69.8591 181.153C69.8029 181.113 69.7438 181.07 69.6854 181.027C68.6761 180.286 67.9277 179.516 67.4134 178.922C66.8925 178.319 66.4931 177.758 66.2114 177.334C65.97 176.971 65.7684 176.638 65.6144 176.374C64.8031 175.513 64.2024 174.65 63.7676 173.916C62.9352 172.513 62.494 171.218 62.2787 170.532C62.1601 170.153 62.0681 169.82 62.0089 169.6C62.0069 169.593 62.005 169.586 62.0031 169.579C61.5251 168.572 61.0613 167.729 60.582 166.999C58.9018 164.442 57.1045 161.48 55.5905 158.553C55.2222 157.842 54.7573 157.114 53.8856 155.749L53.7615 155.555C53.0296 154.408 51.9618 152.733 51.0194 150.821C50.9543 150.726 50.8724 150.606 50.7893 150.481C50.5382 150.105 50.0563 149.364 49.5976 148.428C49.2456 147.71 48.8066 146.676 48.5 145.389C47.8858 144.301 47.3716 143.196 47.007 142.345C46.5779 141.344 45.5502 138.881 45.266 136.31C44.7223 131.389 44.4354 126.536 44.4354 121.502C44.4354 121.354 44.4292 121.14 44.4097 120.667C44.4083 120.631 44.4068 120.595 44.4052 120.556C44.3886 120.155 44.3638 119.556 44.3563 118.944C44.3407 117.674 44.3682 115.403 45.0555 112.916C45.3829 111.732 45.7686 110.537 46.0591 109.637C46.1095 109.481 46.1569 109.334 46.2008 109.198C46.5401 108.14 46.7474 107.448 46.8865 106.859C46.9355 106.65 46.9946 106.373 47.0657 106.039C47.4125 104.411 48.0445 101.443 49.1947 98.6166C50.9803 94.2291 53.4789 90.1369 56.3238 86.6174C57.7093 84.9031 59.1415 83.2694 60.3967 81.8376L60.5476 81.6654C61.8939 80.1294 63.0474 78.8075 64.114 77.4766C66.2171 74.8522 68.8536 73.1712 70.1693 72.3581C71.4154 71.588 71.9135 71.3123 72.2547 71.1235C72.5471 70.9616 72.7242 70.8635 73.1582 70.5727C74.416 69.7297 75.7351 68.7593 77.3035 67.5927C77.441 67.4904 77.5807 67.3864 77.7224 67.2809C79.122 66.2391 80.7188 65.0504 82.3572 63.9125C85.9249 61.4347 90.5327 58.5833 95.9876 56.9913C98.5608 56.2404 100.889 55.8753 103.099 55.7105C103.363 55.5737 103.597 55.4587 103.754 55.3896C104.073 55.2615 104.639 55.0607 104.883 54.9838C105.396 54.8281 105.812 54.7405 106.019 54.6993C106.257 54.6523 106.452 54.621 106.58 54.6018C106.996 54.5398 107.329 54.5134 107.405 54.5076L107.411 54.5071C107.538 54.497 107.641 54.491 107.697 54.4877C107.895 54.4766 108.077 54.4709 108.149 54.4688C108.519 54.4575 109.11 54.4469 109.641 54.4402C110.134 54.4342 110.817 54.4281 111.292 54.4364L111.296 54.4365C111.391 54.4382 111.689 54.4434 112.031 54.4663C112.134 54.4732 112.303 54.4857 112.511 54.5077C112.663 54.5238 113.103 54.5719 113.657 54.6852C113.919 54.7388 114.482 54.8617 115.172 55.101C115.525 55.2231 116.076 55.4324 116.72 55.7639C116.998 55.9116 117.599 56.2642 117.92 56.4721C118.301 56.7391 119.112 57.3882 119.537 57.7766C120.668 58.8646 122.477 61.052 123.053 64.4245C123.2 65.6841 123.099 68.1855 122.859 69.4004C122.538 70.4629 121.695 72.3317 121.203 73.136C120.755 73.7634 119.845 74.8216 119.398 75.2598C119.021 75.5964 118.302 76.1659 117.964 76.4038C117.193 76.9272 116.515 77.2549 116.107 77.4362C115.303 77.7937 114.635 77.9809 114.355 78.0561C114.012 78.1486 113.728 78.208 113.554 78.2421C113.322 78.2873 113.122 78.3195 112.975 78.341C112.55 78.5048 111.801 78.7834 110.937 79.0192C109.858 79.3141 108.407 79.602 106.689 79.602C104.72 79.602 103.744 79.7325 102.648 80.0521C100.896 80.5633 98.8015 81.6787 95.936 83.6688C94.6372 84.5708 93.3528 85.5267 91.8981 86.6091C91.771 86.7037 91.6425 86.7993 91.5126 86.8959C89.9698 88.0435 88.2158 89.342 86.4091 90.5528C85.5886 91.1025 84.7536 91.593 84.1833 91.9261C84.0518 92.0031 83.9302 92.074 83.8166 92.1402C83.351 92.4116 83.0189 92.6052 82.6806 92.8143C82.5173 92.9152 82.3926 92.9956 82.2997 93.0573C80.9851 94.6717 79.6506 96.1946 78.4713 97.5401L78.4506 97.5638C77.0993 99.1053 75.9435 100.424 74.8638 101.76C73.3705 103.607 72.1287 105.683 71.3044 107.708C71.0152 108.419 70.9362 108.784 70.7052 109.85C70.579 110.432 70.4076 111.222 70.1318 112.393C69.7563 113.986 69.2911 115.462 68.9364 116.567C68.8691 116.777 68.806 116.972 68.7466 117.157C68.5437 117.787 68.3836 118.284 68.2444 118.748C68.249 118.972 68.2597 119.232 68.2777 119.674L68.2784 119.692C68.2962 120.126 68.3238 120.799 68.3238 121.502C68.3238 125.298 68.5232 128.985 68.9131 132.766C68.9233 132.791 68.9338 132.815 68.9448 132.841C69.049 133.084 69.1548 133.305 69.2338 133.458C69.2351 133.461 69.2363 133.463 69.2377 133.466C70.4005 135.218 71.0458 136.888 71.4275 138.31C71.4986 138.424 71.5735 138.547 71.6504 138.678C71.8568 139.029 72.1101 139.488 72.3632 140.033C72.6114 140.568 73.0145 141.252 73.8644 142.583C73.936 142.694 74.0126 142.814 74.0935 142.94C74.8148 144.065 75.8795 145.726 76.7847 147.475C77.813 149.463 79.1504 151.688 80.516 153.767C81.9728 155.984 83.1025 158.195 84.023 160.231C84.2411 160.713 84.408 161.153 84.5323 161.512C84.7268 161.769 84.8885 162.001 85.0178 162.193C85.1733 162.424 85.3207 162.658 85.4539 162.877C85.4948 162.909 85.5347 162.94 85.5732 162.971C86.0168 163.325 86.7333 163.919 87.4592 164.678C87.8276 165.062 88.3496 165.647 88.8769 166.402C88.9301 166.479 88.9876 166.563 89.0488 166.655C89.0603 166.665 89.0718 166.675 89.0834 166.685C89.2545 166.84 89.517 167.08 89.8061 167.371C90.5691 168.138 91.1511 168.873 91.5597 169.427C91.94 169.942 92.2652 170.435 92.4354 170.692L92.4526 170.718C92.5193 170.818 92.5652 170.888 92.604 170.946C92.6641 171.01 92.7224 171.071 92.7787 171.131C93.3631 171.751 93.7598 172.171 94.1532 172.565C94.5956 173.006 94.8074 173.18 94.8971 173.249C94.918 173.265 94.9312 173.274 94.9379 173.278M82.0751 93.2146C82.0769 93.2133 82.0788 93.2117 82.0809 93.2101C82.0671 93.2214 82.0647 93.2228 82.0751 93.2146ZM48.2499 144.057C48.25 144.056 48.2519 144.067 48.2556 144.092C48.2516 144.069 48.2498 144.057 48.2499 144.057ZM61.8902 169.155C61.8906 169.156 61.8911 169.158 61.8915 169.159C61.861 169.059 61.8605 169.044 61.8902 169.155ZM70.7202 181.778C70.7452 181.798 70.7409 181.795 70.7131 181.772C70.7156 181.774 70.7181 181.776 70.7202 181.778ZM165.564 198.841C165.563 198.841 165.568 198.84 165.579 198.837C165.57 198.839 165.566 198.84 165.564 198.841ZM121.466 53.5169C121.466 60.1479 126.814 65.5234 133.41 65.5234L121.466 53.5169ZM133.41 65.5234C137.845 65.5234 141.139 65.9477 145.326 67.0843L133.41 65.5234ZM145.326 67.0843C145.61 67.1615 145.888 67.2366 146.159 67.3099L145.326 67.0843ZM146.159 67.3099C149.333 68.1693 151.622 68.7894 153.937 69.6995L146.159 67.3099ZM153.937 69.6995C154.798 70.0382 155.665 70.5725 157.515 72.2199L153.937 69.6995ZM157.515 72.2199C158.526 73.1202 159.416 73.8949 160.211 74.5857L157.515 72.2199ZM160.211 74.5857C162.674 76.7294 164.208 78.0641 165.542 79.8332L160.211 74.5857ZM165.542 79.8332C169.513 85.0933 172.47 89.2943 174.525 93.9962L165.542 79.8332ZM174.525 93.9962C175.139 95.4003 175.685 96.5977 176.177 97.6782L174.525 93.9962ZM176.177 97.6782C177.2 99.9213 177.992 101.66 178.684 103.694L176.177 97.6782ZM178.684 103.694C179.192 105.185 179.631 106.782 180.138 108.708L178.684 103.694ZM180.138 108.708C180.21 108.98 180.284 109.262 180.36 109.554L180.138 108.708ZM180.36 109.554C180.79 111.196 181.288 113.105 181.858 114.982L180.36 109.554ZM181.858 114.982C182.569 117.325 182.788 119.597 183.117 123.014L181.858 114.982ZM183.117 123.014C183.235 124.235 183.367 125.602 183.541 127.171L183.117 123.014ZM183.541 127.171C183.936 130.744 183.731 132.431 183.474 133.098L183.541 127.171ZM183.474 133.098C180.837 139.948 179.045 147.15 177.72 153.809L183.474 133.098ZM177.72 153.809C176.962 157.619 174.398 161.485 171.034 163.864L177.72 153.809ZM171.034 163.864C170.997 163.884 170.948 163.909 170.891 163.941C170.866 163.955 170.833 163.971 170.797 163.991C170.491 164.154 169.821 164.513 169.183 164.901C168.493 165.324 167.203 166.153 165.943 167.428C164.742 168.643 162.869 170.97 162.209 174.446C162.199 174.46 162.19 174.475 162.179 174.49C162.125 174.572 162.055 174.667 161.972 174.766C161.889 174.865 161.801 174.958 161.714 175.042C161.687 175.067 161.662 175.091 161.638 175.112C161.247 175.198 160.48 175.368 160.04 175.475C159.23 175.675 157.964 176.015 156.598 176.602C155.52 177.065 154.12 177.791 152.715 178.941L152.343 179.117C152.171 179.199 151.947 179.307 151.711 179.424C151.475 179.541 151.178 179.693 150.853 179.873C149.585 180.573 148.587 181.027 147.846 181.284C147.717 181.279 147.575 181.271 147.384 181.261C147.287 181.256 147.177 181.249 147.05 181.242C146.613 181.22 145.933 181.186 145.204 181.186C145.164 181.186 145.12 181.186 145.074 181.186C144.086 181.184 141.959 181.181 139.716 181.766C137.687 182.295 136.055 183.146 134.749 184.015C134.576 184.05 134.369 184.089 134.102 184.14C133.849 184.189 133.519 184.251 133.185 184.319C132.91 184.376 132.58 184.447 132.224 184.532C132.183 184.534 132.131 184.536 132.062 184.538C131.858 184.542 131.605 184.541 131.195 184.536C131.13 184.535 131.056 184.534 130.976 184.532C130.776 184.529 130.537 184.526 130.285 184.523C130.132 184.48 129.893 184.411 129.548 184.305C129.489 184.287 129.421 184.266 129.346 184.242C128.24 183.896 125.5 183.037 122.353 183.037C120.712 183.037 118.817 182.749 116.705 182.158C116.632 182.114 116.512 182.038 116.336 181.919C116.164 181.803 115.974 181.672 115.71 181.486L115.615 181.42C115.386 181.26 115.097 181.057 114.803 180.856C114.11 180.381 113.201 179.779 112.121 179.177C111.204 178.665 110.38 178.317 109.845 178.105C109.639 178.023 109.446 177.949 109.294 177.892C108.303 177.202 107.253 176.599 106.386 176.155C105.721 175.815 104.861 175.41 103.896 175.06C103.213 174.813 101.341 174.157 99.0082 174.146" fill="#FCFF56"/>
<path fill-rule="evenodd" clip-rule="evenodd" d="M104.793 180.535C103.251 180.535 102 179.277 102 177.724C102 170.42 103.598 163.079 107.3 156.498C109.844 151.974 113.472 147.167 117.93 143.458C122.383 139.753 127.847 137 133.98 137C137.811 137 141.071 138.828 143.547 141.188C146.02 143.545 147.89 146.591 149.027 149.505C151.99 157.094 152.401 164.84 152.401 172.415C152.401 173.969 151.15 175.228 149.608 175.228C148.066 175.228 146.815 173.969 146.815 172.415C146.815 164.978 146.387 158.12 143.828 151.561C142.944 149.295 141.497 146.981 139.705 145.272C137.916 143.566 135.961 142.624 133.98 142.624C129.558 142.624 125.314 144.611 121.489 147.793C117.669 150.972 114.45 155.2 112.162 159.269C109.005 164.881 107.586 171.238 107.586 177.724C107.586 179.277 106.335 180.535 104.793 180.535Z" fill="black"/>
<path fill-rule="evenodd" clip-rule="evenodd" d="M138.291 98.2075C139.856 98.2075 141.124 99.4647 141.124 101.016C141.124 103.845 141.028 106.679 140.932 109.451V109.457C140.836 112.248 140.742 114.977 140.742 117.673C140.742 119.224 139.474 120.481 137.91 120.481C136.344 120.481 135.076 119.224 135.076 117.673C135.076 114.878 135.173 112.068 135.268 109.307L135.269 109.266C135.364 106.476 135.458 103.735 135.458 101.016C135.458 99.4647 136.726 98.2075 138.291 98.2075Z" fill="black"/>
<path fill-rule="evenodd" clip-rule="evenodd" d="M118.948 101.245C120.618 101.245 121.972 102.492 121.972 104.03V115.671C121.972 117.209 120.618 118.456 118.948 118.456C117.278 118.456 115.924 117.209 115.924 115.671V104.03C115.924 102.492 117.278 101.245 118.948 101.245Z" fill="black"/>
<path fill-rule="evenodd" clip-rule="evenodd" d="M95.2858 48.5528C102.102 45.6866 109.425 43.5353 115.766 43.5353C124.82 43.5353 133.421 44.4935 142.204 45.5461C149.379 46.4059 157.721 49.5342 165.14 53.9624C165.802 54.3574 166.459 54.7642 167.11 55.1825C167.13 55.1603 167.151 55.1384 167.173 55.1168C168.273 54.0096 170.056 54.0096 171.156 55.1168C173.399 57.3753 175.959 59.5257 178.683 61.7569C179.088 62.0885 179.497 62.4222 179.909 62.7582C182.232 64.655 184.646 66.6251 186.929 68.701C192.315 73.5982 197.323 79.3865 199.469 87.2285C200.441 90.7862 201.673 94.1439 202.943 97.6055C203.333 98.6688 203.727 99.7419 204.118 100.834C205.755 105.406 207.297 110.196 207.999 115.425C209.705 128.137 207.935 142.515 204.819 154.595C201.716 166.62 194.215 178.636 186.497 187.862C178.502 197.42 167.749 208.377 154.752 212.342C140.97 216.545 124.2 214.332 111.097 210.878C107.94 210.046 105.039 208.744 102.328 207.379C101.085 206.753 99.9544 206.154 98.8536 205.571C97.4071 204.804 96.0112 204.065 94.4772 203.326C93.1457 202.685 91.7885 202.05 90.4168 201.408C83.5275 198.184 76.2732 194.789 70.0647 189.612C48.7327 171.829 37.0153 147.863 37.3025 120.106C37.5822 93.0764 56.5942 72.2705 76.8135 58.5532C81.8074 55.1653 88.4189 51.4405 95.2858 48.5528ZM183.433 73.1635C183.234 73.832 182.792 74.4287 182.145 74.8059C180.799 75.5904 179.076 75.1278 178.297 73.7727C175.131 68.268 169.202 62.9785 162.268 58.8399C155.352 54.7122 147.757 51.9218 141.539 51.1765C132.753 50.1237 124.45 49.2055 115.766 49.2055C110.523 49.2055 104.009 51.0298 97.4568 53.7849C90.9561 56.5186 84.6702 60.0608 79.9612 63.2553C60.2828 76.6057 43.1853 95.9483 42.9348 120.164C42.6663 146.11 53.5531 168.486 73.6571 185.246C79.2551 189.912 85.7292 192.949 92.6049 196.175C94.0234 196.84 95.4589 197.513 96.9074 198.211C98.4502 198.953 100.093 199.821 101.676 200.657C102.78 201.24 103.855 201.807 104.847 202.307C107.424 203.604 109.922 204.706 112.524 205.392C125.304 208.762 140.841 210.66 153.119 206.915C164.404 203.472 174.243 193.709 182.189 184.209C189.605 175.344 196.553 164.076 199.368 153.169C202.369 141.537 203.995 127.936 202.417 116.184C201.798 111.57 200.423 107.24 198.818 102.756C198.461 101.757 198.089 100.743 197.712 99.716C196.425 96.2115 195.082 92.5475 194.038 88.7339C192.347 82.5493 188.389 77.7148 183.433 73.1635Z" fill="black"/>
</g>
<defs>
<clipPath id="clip0_416_44">
<rect width="251" height="244" fill="white"/>
</clipPath>
</defs>
</svg>
