<svg width="217" height="211" viewBox="0 0 217 211" fill="none" xmlns="http://www.w3.org/2000/svg">
<g clip-path="url(#clip0_565_4441)">
<path fill-rule="evenodd" clip-rule="evenodd" d="M74.9849 72.3015C72.823 70.6751 71.2971 68.208 70.935 65.311C70.4017 61.044 72.5452 57.0596 76.0537 55.0444C76.1758 54.9229 76.3239 54.7766 76.4793 54.6276C76.6986 54.4172 77.0074 54.1288 77.3705 53.8236C77.7165 53.5329 78.261 53.1001 78.957 52.6717C79.9732 52.0463 80.5133 51.7389 80.8665 51.538C81.2462 51.3219 81.4098 51.2289 81.7162 50.9958C84.7705 48.6712 88.5228 46.9212 90.8718 45.8263C91.3689 45.5943 91.8037 45.3916 92.1547 45.2192C99.027 41.847 106.579 40.0992 114.825 40.9908C121.85 41.7505 128.35 45.6946 131.874 47.8829C136.074 50.4901 139.862 53.8902 142.8 56.5277C143.451 57.1123 144.06 57.6596 144.624 58.1523C150.456 63.2566 155.38 68.9187 159.762 74.929C164.985 82.0934 169.762 89.8125 173.506 98.3148C176.997 106.244 179.863 114.389 181.552 123.382C182.307 127.411 183.254 133.811 182.209 139.703C180.046 151.899 171.362 159.68 163.916 164.554C157.956 168.454 150.455 169.249 146.429 169.675C146.128 169.707 145.847 169.737 145.587 169.765C143.106 170.041 140.569 170.219 137.897 170.219C137.825 170.219 137.679 170.223 137.249 170.246C137.216 170.248 137.179 170.249 137.14 170.251C136.785 170.27 136.232 170.299 135.67 170.309C134.532 170.331 132.261 170.325 129.815 169.511C120.996 166.57 112.822 162.69 105.057 158.676C101.736 158.474 98.9362 157.575 96.7558 156.709C95.5489 156.229 94.406 155.704 93.5103 155.293L93.5051 155.292L93.4974 155.287C92.5308 154.845 91.8124 154.515 91.0983 154.224C89.0787 153.399 86.9753 152.678 84.5278 151.839L84.3503 151.777C83.2473 151.399 82.0727 150.996 80.8607 150.56C78.931 150.26 77.033 149.943 75.1747 149.627C70.8372 148.888 66.7125 147.022 63.4858 143.609C60.3231 140.264 58.7594 136.211 58.0774 132.345C57.4967 129.054 57.0308 125.494 56.6055 122.243C56.4035 120.7 56.2106 119.225 56.0189 117.883C55.4858 114.15 55.5883 110.094 56.8081 106.125C52.0689 105.177 48.498 100.993 48.498 95.973C48.498 90.3037 53.0539 85.6989 58.7035 85.6214C58.7633 85.6119 58.9753 85.579 59.4065 85.4818C59.6677 85.4228 59.8893 85.3695 60.1733 85.3011C60.3305 85.2632 60.5067 85.2207 60.7194 85.1702C61.2276 85.0493 61.9048 84.8925 62.6276 84.7602C63.494 84.6016 64.3086 84.4575 65.0866 84.3202C65.9036 82.761 66.8467 81.2504 67.8845 79.8138C68.3713 79.0617 68.9326 78.3289 69.5799 77.6321C71.2441 75.6372 73.0793 73.8328 74.9849 72.3015ZM151.131 126.261C151.142 126.248 151.154 126.234 151.166 126.22V126.22C151.201 126.179 151.908 125.352 151.124 122.322C151.167 123.635 151.17 124.949 151.131 126.261ZM122.072 122.991C122.423 123.239 122.782 123.483 123.149 123.725C123.653 122.859 124.093 121.961 124.475 121.015C123.73 121.745 122.925 122.406 122.072 122.991Z" fill="#FCFF56"/>
<path fill-rule="evenodd" clip-rule="evenodd" d="M89.2954 57.5969C89.3101 58.8536 89.3205 60.1441 89.3205 61.4717C89.3205 67.1894 84.6868 71.8246 78.9705 71.8246C73.2542 71.8246 68.6202 67.1894 68.6202 61.4717C68.6202 59.7194 68.5809 57.8226 68.5394 55.816C68.3506 46.6854 68.1148 35.2818 71.3136 24.8832C71.7779 23.3736 72.0644 21.693 72.392 19.333C72.4309 19.0526 72.4709 18.7571 72.5128 18.4485C72.7687 16.562 73.091 14.1859 73.6175 11.7941L73.6188 11.7799L73.6195 11.772C73.654 11.3961 73.7325 10.5432 73.9034 9.63371C73.9056 9.62143 73.9081 9.60811 73.9108 9.59376C74.0205 9.00564 74.439 6.76333 75.9402 4.62883C76.8278 3.36696 78.667 1.33136 81.8021 0.42481C85.1282 -0.537006 88.0384 0.302337 89.8816 1.27857C90.9778 1.85926 91.7568 2.51448 92.1916 2.91279C92.6628 3.34363 93.0268 3.74786 93.274 4.03977C93.7582 4.61038 94.1291 5.14691 94.34 5.46131C94.5596 5.78936 94.7524 6.0987 94.8518 6.2569L94.8596 6.27038C94.8847 6.31047 94.9046 6.34193 94.9193 6.3659C95.6118 7.36776 96.2723 8.40183 96.81 9.24431C96.9224 9.42089 97.0296 9.589 97.1308 9.74664C97.7965 10.7841 98.3091 11.5547 98.8192 12.2266C101.823 16.1853 104.6 20.693 107.017 24.6167C107.839 25.9518 108.62 27.2193 109.354 28.3744C110.403 30.026 111.132 31.667 111.568 32.65L111.588 32.6955C112.115 33.8806 112.296 34.2745 112.485 34.5944C112.973 35.4187 113.319 36.176 113.554 36.7311C113.74 37.1735 113.917 37.6379 114.009 37.8814C114.024 37.9193 114.036 37.9518 114.046 37.9781C114.053 37.9959 114.059 38.0128 114.065 38.0286C115.878 40.8 116.825 43.628 117.419 45.7069C117.438 45.7736 117.463 45.8559 117.518 46.0256C117.522 46.038 117.527 46.054 117.533 46.073C117.578 46.2143 117.677 46.5232 117.761 46.8112C117.762 46.813 117.764 46.8178 117.767 46.8254C117.84 47.0509 118.735 49.7776 117.965 52.9063C117.45 55.0011 116.3 56.9769 114.543 58.4959C114.481 58.5502 114.418 58.6032 114.355 58.6551C115.104 59.4482 115.884 60.1024 116.743 60.6441C119.72 62.5187 124.175 63.702 128.738 63.8882C128.917 63.8956 129.197 63.9051 129.541 63.9122C129.691 63.7341 129.844 63.5655 129.998 63.4066C131.476 61.8767 133.056 61.1495 133.708 60.8699C134.501 60.5298 135.209 60.3252 135.626 60.2133C136.075 60.0932 136.486 60.0028 136.746 59.9472C136.892 59.9159 136.979 59.8974 137.042 59.8842C137.672 59.6345 138.244 59.4608 138.726 59.3355C139.056 59.2499 139.37 59.1809 139.632 59.128C140.094 58.8777 140.909 58.4581 141.987 58.1027C142.511 57.8106 143.188 57.485 143.992 57.2122C145.219 56.7961 146.395 56.6166 147.458 56.5657C147.753 56.3716 148.023 56.2069 148.255 56.0701C149.429 55.3763 150.631 54.8247 151.673 54.4019C153.689 53.5829 155.939 52.9099 157.746 52.5814C158.069 52.5227 158.286 52.451 158.981 52.2209C159.317 52.1097 159.766 51.9613 160.393 51.7595C161.898 51.2746 164.503 50.4799 167.618 50.4799H178.442C178.971 50.4799 179.444 50.5093 179.762 50.5328C179.988 50.5495 180.212 50.5692 180.406 50.5872C180.894 50.3149 181.739 49.9005 182.82 49.6165C183.825 49.3525 189.448 48.1293 193.487 53.1028C195.186 55.1941 195.638 57.3836 195.759 58.657C195.88 59.9405 195.734 60.9671 195.632 61.5211C195.429 62.6149 195.093 63.4227 194.977 63.6954C194.731 64.2754 194.477 64.7211 194.38 64.8863C193.618 66.6329 192.644 67.8138 192.226 68.315C192.05 68.5267 191.888 68.711 191.78 68.8333C191.691 68.9344 191.65 68.9799 191.616 69.0188C191.236 69.5683 190.842 70.1442 190.434 70.7397C188.556 73.4826 186.394 76.6412 184.043 79.5504C183.865 79.7708 183.606 80.1164 183.28 80.55C181.996 82.2583 179.687 85.332 177.301 87.495C176.593 88.1366 175.883 88.8111 175.138 89.5315C175.023 90.7698 174.712 91.74 174.495 92.3142C173.75 94.2902 172.562 95.6081 172.26 95.9419L172.241 95.9635C171.749 96.51 171.168 97.0522 170.605 97.5365C170.929 97.9792 171.261 98.4367 171.597 98.9063C173.903 99.656 175.946 101.211 177.269 103.418C179.306 104.943 180.675 106.725 181.388 107.694C181.953 108.46 182.448 109.207 182.811 109.762C182.922 109.931 183.017 110.076 183.1 110.203C183.336 110.564 183.478 110.781 183.62 110.987C183.923 111.422 184.211 111.819 184.483 112.179C184.608 112.213 184.734 112.247 184.864 112.281C185.234 112.378 185.672 112.489 186.157 112.611C187.679 112.995 189.662 113.496 191.405 114.059C193.181 114.634 194.74 115.35 195.81 115.847C195.931 115.903 196.046 115.957 196.155 116.008C197.155 116.472 197.712 116.731 198.293 116.948C199.207 117.292 200.019 117.666 200.638 117.965C200.956 118.118 201.459 118.369 201.818 118.548C201.985 118.631 202.122 118.699 202.193 118.734C202.731 118.998 202.977 119.097 203.035 119.122C204.556 119.475 205.785 120.01 206.386 120.278C206.459 120.29 206.539 120.305 206.622 120.322L206.637 120.324C206.805 120.357 207.572 120.509 208.482 120.877C209.066 121.134 210.627 122.056 211.543 122.794C211.718 122.992 211.896 123.239 212.073 123.524C212.219 123.624 212.379 123.739 212.545 123.868C212.547 123.869 212.551 123.872 212.556 123.876C212.685 123.974 213.847 124.846 214.829 126.322C215.226 126.92 216.941 129.544 216.486 133.3C215.883 138.286 212.24 140.793 210.055 141.668C208.409 142.326 206.971 142.418 206.462 142.444C205.773 142.479 205.179 142.452 204.784 142.424C203.986 142.367 203.242 142.253 202.731 142.166C201.669 141.983 200.676 141.751 200.317 141.666C200.178 141.632 199.862 141.582 198.695 141.493C198.618 141.487 198.536 141.481 198.447 141.474C197.489 141.403 195.84 141.281 194.173 140.947C194.223 140.958 194.124 140.928 193.444 140.91C193.276 140.906 193.108 140.902 192.885 140.898C192.676 140.894 192.425 140.888 192.161 140.88C191.632 140.864 190.97 140.835 190.236 140.765C189.226 140.669 188.368 140.478 187.736 140.31C187.126 140.149 186.587 139.97 186.306 139.877L186.303 139.877C186.224 139.85 186.164 139.83 186.113 139.813C185.981 139.809 185.782 139.807 185.493 139.811C185.22 139.815 184.952 139.824 184.6 139.834C184.521 139.837 184.439 139.839 184.352 139.842C183.915 139.855 183.357 139.871 182.771 139.871C182.209 139.871 181.454 139.89 180.577 139.912C178.102 139.974 174.654 140.061 171.813 139.814C171.812 139.813 171.807 139.813 171.799 139.813C171.658 139.802 170.575 139.724 169.59 139.559C169.027 139.466 168.175 139.298 167.229 138.977C166.495 138.728 165.037 138.173 163.557 136.987C163.401 136.875 163.011 136.595 162.64 136.29C162.412 136.102 161.932 135.698 161.415 135.132C161.408 135.124 161.4 135.115 161.391 135.106C161.089 134.776 159.58 133.138 158.932 130.515C158.526 128.875 158.359 126.419 159.512 123.806C159.74 123.287 159.999 122.812 160.28 122.376C158.848 121.256 157.457 120.059 156.123 118.778C153.233 116.005 151.279 114.533 149.909 113.952C149.665 113.918 149.359 113.874 149.084 113.828C148.555 113.741 147.46 113.544 146.258 113.096C145.634 112.863 144.722 112.47 143.745 111.812C142.772 111.155 141.433 110.033 140.386 108.252C139.856 107.352 138.968 105.574 138.865 103.163C138.743 100.338 139.75 97.4941 141.823 95.3443C143.6 93.5024 145.572 92.7751 146.608 92.4777C146.921 92.3877 147.221 92.316 147.504 92.2598C147.65 91.8525 147.826 91.44 148.033 91.0249C149.171 88.7489 150.855 86.9822 152.033 85.8884C152.406 84.6472 152.939 83.7252 153.093 83.4596L153.097 83.4518C153.448 82.8437 153.884 82.2136 154.1 81.9036C154.114 81.8829 154.127 81.8636 154.14 81.8458C155.788 79.4637 157.733 77.5783 158.972 76.3759C159.107 76.2449 159.234 76.1221 159.351 76.0077C160.417 74.9645 161.606 73.803 162.852 72.6528C162.412 72.7607 161.942 72.8636 161.449 72.9532C161.45 72.9531 161.45 72.953 161.449 72.9532C161.441 72.9549 161.373 72.9683 161.246 73C161.108 73.0343 160.931 73.0819 160.727 73.1432C160.309 73.2685 159.862 73.4236 159.46 73.5869C159.338 73.6362 159.23 73.6827 159.135 73.7254C157.625 75.164 156.014 75.9262 154.912 76.332C153.514 76.8472 152.238 77.0461 151.402 77.1388C150.984 77.1852 150.546 77.2148 150.133 77.2334C149.887 77.3366 149.63 77.4348 149.363 77.5267C149.2 77.583 149.036 77.6355 148.873 77.6843C148.796 77.7269 148.711 77.7728 148.622 77.8205C148.423 77.9266 148.181 78.051 147.906 78.181C147.449 78.3971 147.011 78.5722 146.604 78.715C145.779 79.908 144.822 80.8186 143.997 81.4405C142.186 82.8033 140.314 83.4086 139.304 83.6901C138.133 84.0166 136.992 84.2046 136.06 84.3224C132.547 84.7668 128.594 84.6054 127.899 84.577L127.894 84.5768C120.904 84.2915 112.619 82.5148 105.714 78.166C97.5406 73.0189 93.0519 64.6161 90.1427 59.1688C89.9283 58.7675 89.7225 58.3821 89.5237 58.0154C89.4519 57.8823 89.3758 57.7427 89.2954 57.5969ZM106.348 40.5722C106.35 40.5734 106.307 40.5761 106.211 40.5764C106.297 40.5712 106.345 40.571 106.348 40.5722ZM148.104 112.51C148.09 112.506 148.076 112.502 148.062 112.498L148.07 112.5C148.082 112.504 148.093 112.506 148.104 112.51ZM169.377 138.273H169.197C169.204 138.273 169.215 138.273 169.226 138.273C169.259 138.273 169.311 138.274 169.377 138.273ZM175.981 102.571C175.98 102.569 175.978 102.568 175.976 102.567C176.052 102.619 176.057 102.627 175.981 102.571ZM150.534 114.038C150.532 114.038 150.493 114.032 150.425 114.02C150.504 114.031 150.538 114.037 150.534 114.038ZM163.751 137.127C163.75 137.126 163.721 137.105 163.673 137.069C163.73 137.11 163.754 137.128 163.751 137.127ZM137.535 59.7735C137.539 59.774 137.49 59.7875 137.378 59.8128C137.475 59.7856 137.531 59.7731 137.535 59.7735ZM130.195 78.5072C130.212 78.5243 130.226 78.5383 130.237 78.549L130.241 78.5537C130.226 78.5386 130.211 78.5231 130.195 78.5072Z" fill="#FCFF56"/>
<path fill-rule="evenodd" clip-rule="evenodd" d="M141.119 159.227C141.119 153.51 145.753 148.875 151.47 148.875C154.745 148.875 157.463 150.32 159.272 152.195C160.825 153.804 161.525 155.511 161.837 156.409C162.451 158.176 162.564 159.854 162.604 160.486C162.634 160.949 162.652 161.482 162.661 161.868C163.406 164.179 164.561 166.561 166.124 169.374C167.275 171.446 168.757 173.502 170.621 175.94C171.217 176.72 171.67 177.434 171.945 177.872C172.023 177.997 172.086 178.098 172.138 178.181C172.306 178.448 172.359 178.533 172.436 178.644C172.675 178.99 173.032 179.527 173.37 180.167C173.373 180.172 173.377 180.179 173.382 180.19C173.524 180.446 174.649 182.487 174.656 185.219C174.66 187.03 174.142 190.397 171.149 193.048C168.349 195.53 165.237 195.706 163.888 195.662C161.582 195.585 159.841 194.725 159.594 194.603C159.583 194.598 159.575 194.593 159.57 194.591C158.729 194.189 157.963 193.684 157.797 193.575C157.787 193.568 157.778 193.563 157.773 193.559C157.648 193.478 157.572 193.428 157.531 193.402C156.089 192.59 154.411 191.842 152.297 190.969C151.872 190.793 151.415 190.608 150.935 190.412C149.173 189.693 147.106 188.851 145.177 187.948C143.506 187.163 141.769 186.538 139.516 185.726C139.017 185.546 138.493 185.358 137.94 185.156C135.155 184.144 131.672 182.821 128.336 180.859C127.875 180.588 127.224 180.294 126.047 179.877C125.815 179.795 125.469 179.677 125.058 179.537C124.039 179.19 122.619 178.708 121.531 178.284C121.52 178.28 121.46 178.261 121.325 178.229C121.134 178.184 120.873 178.133 120.408 178.057C120.318 178.043 120.209 178.025 120.085 178.006C119.232 177.871 117.622 177.619 116.048 177.169C110.552 175.598 107.369 169.868 108.94 164.37C110.51 158.873 116.239 155.689 121.735 157.26C122.016 157.34 122.253 157.379 123.154 157.526C123.33 157.554 123.531 157.588 123.764 157.626C124.933 157.818 126.896 158.154 129.031 158.985C129.765 159.271 130.297 159.45 130.988 159.681C131.508 159.856 132.119 160.061 132.975 160.365C134.596 160.941 136.689 161.751 138.832 163.012C139.761 163.559 140.816 164.057 142.082 164.577C142.062 164.391 142.05 164.244 142.042 164.144C142.02 163.881 142.006 163.627 141.997 163.407C141.432 162.129 141.119 160.715 141.119 159.227ZM169.212 176.298C169.213 176.3 169.193 176.287 169.146 176.258C169.188 176.283 169.211 176.298 169.212 176.298ZM141.947 161.82C141.929 161.679 141.936 161.661 141.947 161.813C141.947 161.816 141.947 161.817 141.947 161.82Z" fill="#FCFF56"/>
<path fill-rule="evenodd" clip-rule="evenodd" d="M66.5246 138.79C69.6954 134.032 76.1216 132.746 80.8779 135.918C87.7444 140.497 90.4945 147.766 91.8146 153.122C92.8261 157.225 93.3336 161.858 93.6864 165.078C93.7849 165.983 93.8722 166.776 93.9544 167.415C94.225 169.516 94.3789 171.135 94.5085 172.504C94.5284 172.708 94.5474 172.907 94.5656 173.101C96.4529 171.423 98.5096 170.6 99.3457 170.28C100.664 169.773 101.954 169.433 102.92 169.233C110.574 167.649 118.175 167.684 124.663 167.715C125.528 167.719 126.374 167.722 127.197 167.722C132.913 167.722 137.547 172.358 137.547 178.075C137.547 183.793 132.913 188.428 127.197 188.428C126.293 188.428 125.415 188.426 124.559 188.424C118.383 188.408 113.382 188.395 108.426 189.259C107.982 189.913 107.42 190.632 106.729 191.324C104.625 193.428 102.415 195.349 100.26 197.085C100.24 197.104 100.217 197.126 100.193 197.149L100.181 197.16C99.9699 197.364 99.5799 197.738 99.1511 198.118C98.7742 198.452 98.0298 199.095 97.1074 199.685C96.6587 199.972 95.8149 200.478 94.6944 200.878C93.7884 201.202 91.2406 202.002 88.1204 201.111C86.5807 200.67 85.4188 199.969 84.6453 199.399C83.8726 198.83 83.3068 198.26 82.9435 197.86C82.5554 197.433 82.2324 197.012 82.0049 196.697C79.5823 194.36 78.2368 191.5 77.6122 190.094C76.6469 187.922 75.9741 185.758 75.5919 184.405C74.4458 180.349 74.0096 175.861 73.6966 172.642C73.5997 171.644 73.5145 170.768 73.4238 170.065C73.2466 168.691 73.1057 167.414 72.9719 166.201C72.6493 163.276 72.3676 160.721 71.7162 158.08C70.8191 154.441 69.7827 153.405 69.3952 153.146C64.639 149.974 63.3537 143.547 66.5246 138.79ZM85.4193 182.623C85.3944 182.646 85.3824 182.655 85.3827 182.654C85.383 182.654 85.3954 182.643 85.4193 182.623Z" fill="#FCFF56"/>
<path fill-rule="evenodd" clip-rule="evenodd" d="M50.3967 116.59C50.326 116.293 50.2417 115.997 50.1433 115.701C48.3356 110.277 42.474 107.346 37.051 109.154C33.2561 110.419 31.0823 113.22 30.0401 115.587C29.9608 115.767 29.8871 115.946 29.8187 116.124C29.784 116.147 29.7496 116.17 29.7155 116.192C29.0481 116.635 28.5006 116.998 28.1668 117.206C23.889 119.88 20.3281 123.345 17.5592 126.413C13.724 130.663 9.36895 135.498 5.61325 140.876C5.6064 140.885 5.50299 141.024 5.13003 141.478C5.08101 141.538 5.02576 141.605 4.96549 141.678C4.65838 142.051 4.22095 142.582 3.81325 143.106C3.31752 143.743 2.66725 144.62 2.06574 145.63C1.5033 146.574 0.685531 148.122 0.251117 150.077C-0.544831 153.66 0.609553 157.172 2.89079 159.565C4.64623 161.407 6.58432 162.099 7.29427 162.33C8.80164 162.821 10.132 162.872 10.4682 162.884C10.4772 162.885 10.4855 162.885 10.493 162.885C10.7176 162.895 10.93 162.897 11.111 162.897C14.0232 163.215 17.1897 163.51 20.6286 163.51C24.5415 163.51 28.3675 163.251 31.8017 163.018L31.9455 163.008C35.5307 162.764 38.7071 162.552 41.85 162.552H64.5974C70.3138 162.552 74.9478 157.917 74.9478 152.199C74.9478 146.482 70.3138 141.847 64.5974 141.847H63.5871C63.0483 138.865 61.4419 136.815 60.5243 135.821C59.3171 134.514 58.0178 133.634 57.2219 133.137C57.0548 133.033 56.8716 132.924 56.68 132.813C55.8064 131.611 55.2899 130.874 54.864 129.991C54.3362 128.895 53.7636 127.878 53.346 127.139L53.2663 126.998C52.843 126.248 52.5641 125.754 52.3173 125.268C52.162 124.961 52.0657 124.744 52.0078 124.601C52.0401 124.081 52.1027 122.944 51.9909 121.713C51.9307 121.051 51.7922 120.001 51.4001 118.815C51.2117 118.244 50.904 117.455 50.3967 116.59ZM34.9047 142.069C34.5466 141.547 34.2088 140.993 33.8983 140.409C33.8222 140.266 33.7333 140.102 33.6343 139.921C33.59 139.84 33.5435 139.755 33.4953 139.666C33.3056 139.87 33.1154 140.077 32.9247 140.288C32.307 140.973 31.7002 141.646 31.1049 142.311C32.3288 142.228 33.6 142.143 34.9047 142.069Z" fill="#FCFF56"/>
<path fill-rule="evenodd" clip-rule="evenodd" d="M77.4411 72.6383C78.2936 71.1337 78.7803 69.3944 78.7803 67.5414C78.7803 61.8236 74.1463 57.1885 68.4299 57.1885C66.0925 57.1885 62.925 57.7638 60.1527 60.1254C57.4283 62.4464 56.4559 65.3332 56.0885 67.1363C55.9186 67.9705 55.8392 68.7668 55.8047 69.4461C55.6536 69.4126 55.4999 69.3779 55.3437 69.342C52.0133 68.5775 48.6872 67.5858 44.9739 66.4786L44.9157 66.4613C41.3923 65.4108 37.5092 64.2542 33.4958 63.339C32.6192 62.9112 31.1682 62.2038 29.68 61.6217C28.0789 60.9956 25.3607 60.0636 22.2786 60.0636H20.7963L20.7957 80.7325C20.7711 80.7299 20.7466 80.7272 20.722 80.7243C20.5187 80.7003 20.3152 80.6668 20.1139 80.6239C19.6761 80.5308 19.3588 80.4165 19.2225 80.3638C19.1788 80.3469 19.1525 80.3358 19.1523 80.3357C19.1523 80.3357 19.1568 80.3376 19.1668 80.3419C19.2105 80.3609 19.2583 80.3822 19.3935 80.4427L19.4145 80.4522C19.6476 80.5565 20.0994 80.7586 20.6298 80.9632C22.4057 81.6484 24.3589 82.3418 26.4583 82.9227C27.3319 83.3309 28.1112 83.6845 28.819 84.0056C29.8186 84.4591 30.6752 84.8478 31.452 85.234C31.2226 85.8719 31.0082 86.5369 30.8263 87.2123C29.9804 90.3548 29.9973 93.4506 30.0671 95.4906C30.114 96.8638 30.1679 97.6923 30.2113 98.359C30.2583 99.0819 30.293 99.6155 30.293 100.447V114.183C30.293 119.901 34.927 124.536 40.6434 124.536C46.3597 124.536 50.9937 119.901 50.9937 114.183V100.447C50.9937 99.3111 50.9358 98.1878 50.8849 97.2824C50.8731 97.0722 50.8617 96.8733 50.8508 96.6831C50.8101 95.9749 50.7763 95.3868 50.7557 94.7832C50.7305 94.0473 50.7348 93.5077 50.7613 93.0952C50.7841 92.7407 50.8173 92.5902 50.818 92.585C50.973 92.0126 51.1592 91.62 51.7042 90.4707C51.7972 90.2744 51.9006 90.0565 52.0161 89.8118C54.0759 90.2493 56.7078 90.7042 59.4853 90.7725C62.8579 90.8564 67.356 90.4015 71.5983 87.8436C71.604 87.841 71.6496 87.815 71.779 87.7424L71.8018 87.7294C71.9548 87.6438 72.2359 87.4864 72.5316 87.31C72.8445 87.1232 73.2916 86.8456 73.7794 86.492C74.2467 86.1542 74.9388 85.6131 75.6477 84.8597C76.8367 83.5962 79.2667 80.3307 78.4496 75.6523C78.2469 74.4915 77.8772 73.4883 77.4411 72.6383ZM76.4832 70.364C76.4836 70.3647 76.4837 70.3834 76.4824 70.4178C76.4823 70.3804 76.4829 70.3632 76.4832 70.364ZM73.955 68.5648C73.9517 68.5616 73.9526 68.5624 73.9572 68.5668L73.955 68.5648ZM36.7581 88.3676C36.7893 88.3875 36.779 88.3832 36.7357 88.3538C36.7441 88.359 36.7515 88.3633 36.7581 88.3676Z" fill="#FCFF56"/>
<path fill-rule="evenodd" clip-rule="evenodd" d="M74.8467 53.2676C78.6707 57.5175 78.3263 64.0635 74.0773 67.8885C73.1912 68.6862 72.0081 69.7941 70.7251 70.9954C68.8021 72.7961 66.6546 74.8068 64.9466 76.2984C62.8775 78.1052 61.8922 78.9763 61.1902 79.8921C61.1938 79.8874 61.185 79.8986 61.1587 79.9357C61.1304 79.9758 61.0924 80.0306 61.0277 80.1255C61.0157 80.1431 61.0003 80.1659 60.9819 80.1932C60.8644 80.3665 60.6248 80.7201 60.3861 81.0488C59.7287 81.9537 58.6868 83.2395 57.0748 84.4488C52.5017 87.8791 46.0141 86.9521 42.5843 82.3782C39.3573 78.0744 39.987 72.0754 43.8817 68.5237L43.9204 68.4668C44.0992 68.2044 44.3948 67.7731 44.762 67.294C46.8027 64.6317 49.3143 62.4523 50.9099 61.0678C51.0592 60.9383 51.2004 60.8158 51.3325 60.7003L58.1395 68.4994" fill="#FCFF56"/>
<path fill-rule="evenodd" clip-rule="evenodd" d="M33.3655 60.3122C33.8416 60.7211 34.7584 61.3257 36.3864 62.1306C37.5608 62.7112 38.4433 63.0978 39.4585 63.5425C40.2412 63.8853 41.1027 64.2627 42.2377 64.7902C44.4326 65.8102 46.4668 66.4252 49.2166 66.9689C50.1419 67.1518 50.9149 67.3932 51.4293 67.5659C51.688 67.6528 51.9224 67.7366 52.0835 67.7943C52.0941 67.7982 52.1043 67.8019 52.1143 67.8054C57.2414 68.4226 61.215 72.789 61.215 78.0836C61.215 83.8014 56.581 88.4368 50.8647 88.4368C48.4814 88.4368 46.5545 87.7969 45.7232 87.508C46.7458 89.6241 47.7656 91.7324 48.7835 93.8285C49.6945 95.705 50.6459 97.6533 51.6033 99.6137C52.733 101.927 53.8713 104.257 54.962 106.508C56.1082 108.874 56.5572 109.669 57.0571 110.241C60.8214 114.544 60.3854 121.085 56.0835 124.85C51.7815 128.615 45.2425 128.179 41.4783 123.876C38.978 121.017 37.4371 117.825 36.4892 115.861C36.4356 115.749 36.3839 115.643 36.3341 115.54C35.2165 113.233 34.1318 111.013 33.0392 108.776C32.0952 106.843 31.1452 104.898 30.163 102.875C28.7706 100.008 27.3936 97.157 26.022 94.3171C23.0812 88.2292 20.1655 82.1929 17.1785 76.1591C17.1451 76.1058 17.1094 76.0488 17.0684 75.9835C17.0116 75.893 16.9446 75.7865 16.8601 75.6513C16.5183 75.1053 16.0232 74.3071 15.5403 73.463C15.108 72.7073 14.4584 71.5257 13.9653 70.2815C13.7451 69.7258 13.3094 68.5589 13.1213 67.1107C13.1207 67.1054 13.1199 67.0998 13.1191 67.094C13.0232 66.3572 12.3755 61.3871 16.592 57.6382C20.0911 54.5272 24.0497 54.9309 25.4171 55.1834C26.9446 55.4655 28.0531 56.0263 28.48 56.2518C29.4394 56.7583 30.1541 57.322 30.4177 57.532C31.0786 58.0587 31.6866 58.637 32.0475 58.987C32.4631 59.39 32.8531 59.7871 33.1206 60.0613C33.2366 60.1802 33.3153 60.2608 33.3655 60.3122ZM17.3447 76.4288C17.3433 76.4271 17.3281 76.4022 17.3029 76.3594C17.3334 76.4091 17.346 76.4305 17.3447 76.4288ZM52.5312 67.9529C52.5312 67.9529 52.5295 67.9524 52.5261 67.9513C52.5294 67.9523 52.5312 67.9528 52.5312 67.9529Z" fill="#FCFF56"/>
<path fill-rule="evenodd" clip-rule="evenodd" d="M93.4261 15.7094C95.048 17.1734 96.0897 18.071 96.3889 18.2708C97.9044 19.2811 99.4035 20.8816 100.67 22.3955C101.957 23.9321 103.157 25.5701 104.063 26.8054L104.09 26.8424C105.065 28.1724 106.405 29.9997 107.493 31.9596C108.554 33.8693 109.56 36.2188 109.56 38.5817C109.56 39.927 108.47 41.0177 107.125 41.0177C105.78 41.0177 104.689 39.927 104.689 38.5817C104.689 37.4859 104.182 36.0293 103.235 34.3259C102.317 32.6725 101.157 31.0798 100.163 29.7235C99.241 28.4669 98.1179 26.9361 96.9353 25.5228C95.7206 24.0711 94.5906 22.9269 93.6872 22.3245C93.012 21.874 91.6356 20.6552 90.1633 19.3267C89.1717 18.4318 88.0357 17.3938 86.8685 16.3267C86.2092 15.724 85.5398 15.1119 84.8803 14.5111C83.4433 13.202 82.0508 11.9436 80.8741 10.9126C80.8783 11.189 80.8852 11.4754 80.8941 11.7698C80.9157 12.4823 80.9411 13.0638 80.9665 13.6438C80.989 14.1582 81.0114 14.6713 81.0311 15.2733C81.0644 16.2927 81.0843 17.4377 80.9543 18.2549C80.5565 20.7561 79.882 23.2984 79.244 25.7036C79.0622 26.3885 78.8834 27.0625 78.7149 27.721C77.9303 30.7861 77.3287 33.6398 77.3287 36.4174C77.3287 39.0523 76.7673 41.5501 76.2754 43.7391L76.2622 43.7982C75.7471 46.0903 75.3142 48.0455 75.3142 49.9999C75.3142 51.3453 74.2238 52.4359 72.8788 52.4359C71.5337 52.4359 70.4434 51.3453 70.4434 49.9999C70.4434 47.4728 70.9905 45.0397 71.4744 42.8879C71.4863 42.835 71.4981 42.7824 71.5099 42.7298C72.0221 40.4503 72.4579 38.45 72.4579 36.4174C72.4579 32.9904 73.1967 29.6365 73.9963 26.5126C74.1895 25.7579 74.3847 25.0213 74.5763 24.2982C75.2017 21.9381 75.789 19.7219 76.1441 17.4894C76.1877 17.2148 76.1995 16.5514 76.163 15.4324C76.1505 15.0508 76.1283 14.5239 76.1047 13.9626C76.0752 13.263 76.0435 12.5098 76.0256 11.9174C75.9886 10.6972 75.9767 9.40089 76.0714 8.29545C76.1186 7.74447 76.1983 7.16146 76.3447 6.62135C76.4747 6.14206 76.7368 5.38148 77.3494 4.76878C78.3244 3.79347 79.5255 4.06652 79.6974 4.10561L79.6976 4.10565C80.0425 4.18407 80.3134 4.31855 80.4435 4.38657C80.7366 4.53971 81.0271 4.74022 81.2635 4.91274C81.7644 5.27827 82.3997 5.7989 83.0938 6.3911C84.4967 7.58817 86.3203 9.2333 88.1602 10.9092C88.8345 11.524 89.5114 12.1426 90.1737 12.7477C91.3313 13.8061 92.444 14.8237 93.4261 15.7094ZM81.0714 7.81711C81.0717 7.81769 81.0685 7.82749 81.0609 7.84479C81.0673 7.82518 81.0711 7.81653 81.0714 7.81711Z" fill="black"/>
<path fill-rule="evenodd" clip-rule="evenodd" d="M10.075 56.272C11.3388 56.3603 12.7983 56.7561 13.403 57.0154C14.8993 57.6569 16.6083 57.9703 18.6117 58.2603C18.8847 58.2998 19.1651 58.3391 19.4514 58.3792C21.1603 58.6184 23.0784 58.8869 24.882 59.4175C32.1642 61.5598 40.1852 63.6843 47.3614 63.6843C48.7064 63.6843 49.7967 64.7749 49.7967 66.1203C49.7967 67.4656 48.7064 68.5562 47.3614 68.5562C39.3961 68.5562 30.7503 66.2222 23.5077 64.0915C22.0768 63.6705 20.5615 63.4567 18.8352 63.2132C18.5347 63.1708 18.2279 63.1275 17.914 63.082C17.0719 62.9601 16.1851 62.8229 15.282 62.6378C16.1893 63.4544 17.1332 64.2645 18.1054 65.099L18.2219 65.1991C19.9683 66.6981 21.8016 68.2767 23.5058 70.0088C25.4614 71.9965 27.4677 73.9297 29.5029 75.8828C29.6672 76.0403 29.8316 76.1981 29.9962 76.3561C31.8642 78.1481 33.7551 79.962 35.6163 81.8236C36.3065 82.5141 37.0096 83.3756 37.6007 84.1002C37.8503 84.406 38.08 84.6876 38.2804 84.9214C39.0711 85.8442 39.7135 86.4382 40.3926 86.7782C41.5956 87.3792 42.0832 88.8432 41.4817 90.0461C40.8802 91.2498 39.4173 91.7375 38.2143 91.1357C36.6388 90.3479 35.4804 89.1407 34.582 88.0917C34.2079 87.655 33.8943 87.2693 33.6059 86.9139C33.1126 86.3063 32.6933 85.79 32.1721 85.2686C30.3487 83.4448 28.4938 81.6653 26.619 79.8667C26.4564 79.7108 26.2937 79.5547 26.1309 79.3984C24.0971 77.4468 22.0446 75.4695 20.0342 73.4261C18.4954 71.8621 16.8146 70.411 15.05 68.8963C14.9926 68.847 14.9351 68.7977 14.8776 68.7483C13.1905 67.3004 11.4266 65.7866 9.78894 64.1487C9.66168 64.0214 9.40673 63.8189 9.01968 63.5117C8.82472 63.357 8.59637 63.1757 8.33398 62.9641C8.00353 62.6976 7.63529 62.393 7.32063 62.0989C7.16327 61.9518 6.98857 61.7791 6.82684 61.5921C6.69081 61.4348 6.44294 61.132 6.26381 60.7288C6.04389 60.2339 5.82179 59.4735 6.03122 58.6088C6.26193 57.6563 6.89717 57.0474 7.492 56.7191C8.02858 56.423 8.57102 56.3239 8.94394 56.2839C9.34284 56.2412 9.73439 56.2481 10.075 56.272ZM9.46232 61.1282C9.46353 61.1281 9.46483 61.1279 9.46638 61.1278C9.45151 61.1302 9.44935 61.1296 9.46232 61.1282Z" fill="black"/>
<path fill-rule="evenodd" clip-rule="evenodd" d="M31.9178 123.462C33.2628 123.462 34.3532 124.552 34.3532 125.898C34.3532 126.453 34.3302 127.238 33.9165 128.03C33.725 128.397 33.4986 128.673 33.3347 128.859C33.2315 128.976 33.0937 129.122 32.9817 129.24C32.9423 129.282 32.906 129.321 32.8755 129.353C32.2282 130.045 31.6702 130.983 30.9347 132.218C30.8802 132.31 30.8247 132.403 30.7682 132.499C30.039 133.721 29.081 135.307 27.7577 136.442C26.7536 137.302 25.7987 138.331 24.7794 139.483C24.5502 139.743 24.3156 140.012 24.0761 140.285C23.2864 141.189 22.4444 142.151 21.5777 143.043C20.8043 143.84 20.1038 144.62 19.364 145.444C18.8116 146.059 18.2373 146.699 17.5942 147.388C16.1887 148.894 14.6238 150.44 12.8387 151.696C12.7479 151.76 12.6452 151.832 12.5338 151.909C12.2113 152.132 11.8149 152.407 11.4162 152.707C12.5922 152.825 13.9088 152.826 15.3823 152.794C15.6425 152.788 15.9088 152.781 16.1799 152.774C18.2835 152.722 20.6815 152.662 22.8704 153.053C30.029 154.331 38.0092 154.766 45.4346 155.031C47.6097 155.109 49.6922 155.425 51.6173 155.718C51.7708 155.741 51.9233 155.764 52.0747 155.787C54.1725 156.104 56.108 156.373 58.1061 156.373C59.4511 156.373 60.5415 157.464 60.5415 158.809C60.5415 160.154 59.4511 161.245 58.1061 161.245C55.7015 161.245 53.438 160.92 51.3473 160.605C51.2108 160.584 51.0751 160.563 50.94 160.543C48.9621 160.243 47.144 159.968 45.2608 159.9C37.8188 159.635 29.5396 159.193 22.0141 157.849C20.3448 157.551 18.4743 157.595 16.2895 157.647C16.0265 157.653 15.759 157.659 15.4867 157.665C13.1118 157.716 10.3527 157.729 7.84847 156.958C7.2268 156.767 6.49752 156.432 5.92716 155.798C5.28583 155.083 5.03321 154.197 5.10861 153.34C5.17533 152.583 5.48446 151.963 5.74782 151.543C6.02377 151.104 6.3577 150.714 6.67225 150.388C7.72184 149.299 9.22823 148.267 9.84197 147.846C9.92324 147.79 9.98886 147.745 10.0356 147.712C11.4067 146.747 12.7004 145.492 14.0335 144.063C14.5285 143.533 15.0647 142.937 15.6149 142.327C16.4369 141.413 17.2901 140.466 18.084 139.648C18.8536 138.856 19.5786 138.027 20.3496 137.146C20.6037 136.855 20.8628 136.559 21.13 136.257C22.174 135.076 23.3137 133.835 24.5879 132.742C25.2122 132.207 25.7979 131.323 26.5847 130.003C26.6524 129.89 26.7219 129.772 26.7935 129.651C27.4574 128.529 28.2879 127.127 29.3185 126.025C29.3646 125.976 29.4077 125.93 29.4466 125.888L29.4829 125.85C29.5081 124.526 30.5886 123.462 31.9178 123.462ZM29.6991 125.616C29.6992 125.616 29.6984 125.617 29.6967 125.619C29.6982 125.617 29.6991 125.616 29.6991 125.616ZM9.21812 152.279C9.21829 152.279 9.22279 152.281 9.23091 152.285C9.22201 152.282 9.21794 152.279 9.21812 152.279ZM9.86773 154.143C9.86341 154.151 9.86082 154.155 9.86056 154.155C9.8603 154.155 9.86246 154.151 9.86773 154.143Z" fill="black"/>
<path fill-rule="evenodd" clip-rule="evenodd" d="M77.5799 171.149C78.9249 171.149 80.0153 172.24 80.0153 173.585C80.0153 184.836 81.7286 194.242 84.9146 204.741C84.9149 204.74 84.9152 204.74 84.9156 204.739C85.2094 204.339 85.4622 203.968 85.7359 203.566C85.9401 203.266 86.1559 202.95 86.4088 202.592C89.3756 198.387 93.0862 194.924 96.566 191.676C96.6775 191.572 96.7882 191.469 96.8988 191.366C100.54 187.965 103.902 184.776 106.443 180.965C107.189 179.846 108.701 179.544 109.819 180.29C110.939 181.036 111.241 182.549 110.495 183.668C107.592 188.022 103.811 191.577 100.223 194.927C100.16 194.986 100.097 195.045 100.034 195.104C96.4493 198.451 93.0611 201.614 90.388 205.401C90.2349 205.619 90.0499 205.888 89.8519 206.177C89.5234 206.658 89.1577 207.192 88.8422 207.622C88.3234 208.329 87.6232 209.214 86.7889 209.814C86.3537 210.127 85.7366 210.471 84.9657 210.576C84.1229 210.691 83.2906 210.492 82.5781 210.015C81.3639 209.199 80.7354 207.735 80.324 206.386C76.9833 195.433 75.1445 185.49 75.1445 173.585C75.1445 172.24 76.2349 171.149 77.5799 171.149ZM83.9312 205.868C83.9312 205.868 83.934 205.866 83.9393 205.862C83.9339 205.867 83.9312 205.868 83.9312 205.868ZM85.4551 206.107C85.4573 206.11 85.4583 206.111 85.4583 206.111C85.4583 206.111 85.4572 206.11 85.4551 206.107Z" fill="black"/>
<path fill-rule="evenodd" clip-rule="evenodd" d="M156.808 160.811C157.927 160.065 159.439 160.368 160.186 161.487C162.592 165.099 164.394 169.073 166.026 172.962C166.432 173.929 166.826 174.886 167.215 175.832C168.418 178.757 169.579 181.581 170.932 184.287C172.684 187.792 174.024 190.626 174.024 195.078C174.024 195.144 174.025 195.223 174.025 195.312C174.028 195.595 174.03 195.975 174.017 196.313C174.003 196.731 173.96 197.408 173.74 198.045C173.627 198.374 173.404 198.872 172.954 199.313C172.441 199.813 171.741 200.126 170.955 200.125C170.258 200.124 169.693 199.877 169.317 199.661C168.928 199.437 168.58 199.152 168.275 198.864C166.508 197.194 164.354 196.047 161.838 194.823C161.559 194.688 161.276 194.551 160.988 194.413C158.763 193.341 156.277 192.143 154.021 190.466C153.565 190.127 152.98 189.668 152.421 189.229C151.99 188.89 151.574 188.564 151.247 188.316C150.334 187.624 149.502 187.054 148.713 186.66C147.209 185.906 145.688 184.882 144.326 183.963C143.798 183.608 143.294 183.267 142.824 182.966C140.996 181.793 139.37 180.96 137.644 180.694C136.315 180.49 135.403 179.246 135.607 177.916C135.812 176.586 137.055 175.674 138.384 175.879C141.149 176.304 143.479 177.599 145.454 178.866C146.139 179.305 146.762 179.725 147.351 180.124C148.589 180.959 149.681 181.697 150.892 182.302C152.087 182.9 153.204 183.687 154.189 184.433C154.732 184.845 155.159 185.183 155.56 185.5C156.006 185.852 156.419 186.179 156.925 186.555C158.784 187.937 160.832 188.926 163.102 190.023C163.387 190.16 163.676 190.3 163.968 190.442C165.621 191.246 167.374 192.132 169.05 193.271C168.772 190.999 167.941 189.198 166.575 186.466C165.135 183.584 163.878 180.528 162.661 177.566C162.283 176.647 161.909 175.739 161.535 174.847C159.924 171.009 158.268 167.394 156.133 164.19C155.387 163.07 155.689 161.557 156.808 160.811Z" fill="black"/>
<path fill-rule="evenodd" clip-rule="evenodd" d="M176.125 108.016C176.727 106.813 178.189 106.325 179.393 106.927C184.43 109.446 189.102 112.78 193.615 116.001C193.962 116.248 194.307 116.494 194.651 116.739C199.552 120.229 204.315 123.526 209.51 125.835C209.718 125.928 210.041 126.047 210.519 126.225C210.639 126.269 210.769 126.316 210.909 126.369C211.549 126.607 212.327 126.903 213.077 127.243C213.803 127.573 214.637 128.002 215.324 128.543C215.908 129.002 216.999 130.018 216.999 131.606C216.999 132.377 216.812 133.147 216.374 133.835C215.942 134.513 215.359 134.968 214.788 135.267C213.723 135.823 212.503 135.94 211.593 135.961C210.625 135.983 209.631 135.899 208.861 135.829L208.812 135.824C207.951 135.746 207.518 135.708 207.299 135.718C205.656 135.8 204.013 136.06 202.211 136.347C202.02 136.377 201.828 136.407 201.633 136.437C199.657 136.749 197.501 137.064 195.277 137.064H176.961C175.616 137.064 174.525 135.974 174.525 134.628C174.525 133.284 175.616 132.192 176.961 132.192H195.277C197.08 132.192 198.898 131.936 200.877 131.625C201.071 131.594 201.267 131.563 201.466 131.532C203.228 131.251 205.135 130.949 207.056 130.853C207.644 130.823 208.434 130.897 209.065 130.955C209.146 130.963 209.225 130.97 209.3 130.977C209.31 130.978 209.321 130.979 209.33 130.98C209.29 130.965 209.251 130.951 209.212 130.936C209.113 130.899 209.011 130.861 208.908 130.823C208.42 130.643 207.898 130.451 207.532 130.287C201.832 127.754 196.703 124.181 191.827 120.708C191.502 120.477 191.178 120.247 190.856 120.017C186.271 116.746 181.896 113.625 177.214 111.284C176.012 110.682 175.524 109.219 176.125 108.016ZM212.423 132.471C212.421 132.471 212.406 132.458 212.385 132.432C212.413 132.458 212.424 132.471 212.423 132.471Z" fill="black"/>
<path fill-rule="evenodd" clip-rule="evenodd" d="M150.352 55.3734C150.352 54.0281 151.442 52.9375 152.787 52.9375H199.456C199.912 52.9375 200.435 52.9781 200.947 53.138C201.465 53.2997 202.165 53.6483 202.644 54.3947C203.14 55.1655 203.148 55.967 203.049 56.5173C202.955 57.0351 202.749 57.4617 202.592 57.7429C202.279 58.3017 201.838 58.8399 201.537 59.2028C201.444 59.3147 201.36 59.4154 201.283 59.5071C201.053 59.7805 200.89 59.9756 200.759 60.158C199.168 62.3602 197.318 64.5409 195.547 66.629C194.512 67.8487 193.504 69.0369 192.59 70.1791C191.769 71.2061 191.043 72.27 190.259 73.4195C189.974 73.8363 189.683 74.2643 189.375 74.7059C188.265 76.3037 187.008 77.9979 185.423 79.4958C185.138 79.7642 184.851 80.0282 184.564 80.2919C183.769 81.0233 182.974 81.7534 182.249 82.574C181.245 83.7108 180.792 84.5815 180.724 85.1955C180.575 86.5327 179.372 87.496 178.034 87.3473C176.698 87.1994 175.735 85.9946 175.883 84.6575C176.124 82.4891 177.437 80.6639 178.6 79.3478C179.51 78.3174 180.583 77.3318 181.414 76.5692C181.66 76.3428 181.885 76.1362 182.078 75.9538C183.285 74.8133 184.31 73.4583 185.377 71.9242C185.628 71.5631 185.886 71.1855 186.15 70.798C186.963 69.6056 187.84 68.3203 188.787 67.1356C189.901 65.7429 190.99 64.4623 192.053 63.2142C193.575 61.4246 195.041 59.7015 196.441 57.8094H152.787C151.442 57.8094 150.352 56.7188 150.352 55.3734Z" fill="black"/>
<path fill-rule="evenodd" clip-rule="evenodd" d="M105.348 46.7757C105.348 41.0579 109.982 36.4229 115.698 36.4229C121.288 36.4229 125.96 37.0098 131.42 38.4845C131.688 38.5569 131.963 38.6305 132.243 38.7058C134.813 39.3949 137.9 40.2228 141.029 41.4474C145.146 43.0591 148.059 45.4068 150.312 47.4027C150.686 47.7344 151.126 48.1111 151.614 48.529C153.962 50.5419 157.421 53.5067 160.036 56.9532C163.515 61.5415 167.426 66.8553 170.279 73.3506C170.528 73.9171 170.83 74.5776 171.163 75.3057C172.209 77.5908 173.56 80.5414 174.517 83.34C175.213 85.376 175.753 87.365 176.204 89.072C176.281 89.3626 176.355 89.6428 176.426 89.9152C176.801 91.3377 177.115 92.5354 177.481 93.733C178.769 97.9582 179.21 102.698 179.517 105.998C179.586 106.747 179.649 107.421 179.713 107.999C180.093 111.411 180.558 117.26 178.387 122.872C176.692 127.253 175.418 132.196 174.395 137.316C172.6 146.291 166.992 154.254 159.774 159.163C159.746 159.182 159.718 159.2 159.691 159.219C158.765 161.344 157.526 163.19 156.269 164.68C154.161 167.178 151.219 169.605 147.68 170.967C147.089 171.193 146.549 171.359 146.115 171.48C145.679 171.601 145.278 171.696 144.965 171.768C144.759 171.814 144.539 171.863 144.361 171.901C144.081 172.099 143.828 172.264 143.614 172.397C142.972 172.798 142.374 173.108 141.96 173.315C141.629 173.479 141.272 173.647 141.062 173.745C141.021 173.765 140.984 173.782 140.956 173.795C140.826 173.857 140.761 173.889 140.74 173.899C138.701 175.018 135.886 176.396 132.723 177.187C130.627 177.711 128.718 177.68 127.754 177.65C127.237 177.633 126.923 177.619 126.72 177.607C125.945 178.045 125.225 178.356 124.639 178.58C123.607 178.974 122.644 179.224 121.937 179.388C121.282 179.539 120.641 179.66 120.234 179.737L120.148 179.754C119.918 179.797 119.765 179.826 119.636 179.852C119.527 179.875 119.483 179.885 119.483 179.885L119.486 179.884C116.731 180.573 113.636 180.477 112.73 180.448C112.623 180.445 112.546 180.442 112.505 180.442C109.79 180.442 107.413 179.7 106.469 179.405C106.402 179.384 106.341 179.365 106.29 179.349C105.986 179.256 105.779 179.197 105.648 179.16C101.959 179.108 98.4637 178.446 95.36 177.559C92.6497 176.784 90.6595 175.554 89.3688 174.688C88.6737 174.221 88.2846 173.947 88.0166 173.757C87.7806 173.59 87.6379 173.49 87.4624 173.383C87.3673 173.347 87.1737 173.276 86.993 173.207C86.3762 172.971 84.9511 172.424 83.4238 171.352C81.1675 171.1 79.0153 170.585 77.8782 170.3C71.322 168.661 68.0341 165.168 65.5558 162.535C65.3931 162.362 65.2338 162.192 65.0774 162.027C64.4699 161.388 64.0036 160.783 63.6775 160.332C63.4125 159.966 63.1705 159.604 63.0319 159.396C62.8732 159.255 62.679 159.083 62.4856 158.902C62.1359 158.575 61.5506 158.006 60.9601 157.267C60.8659 157.149 60.7529 157.005 60.6276 156.833C60.5789 156.799 60.5276 156.762 60.4771 156.724C59.6024 156.085 58.9539 155.422 58.5082 154.909C58.0568 154.389 57.7107 153.905 57.4666 153.54C57.2574 153.227 57.0827 152.939 56.9492 152.712C56.2462 151.97 55.7257 151.225 55.3489 150.593C54.6276 149.383 54.2454 148.266 54.0587 147.675C53.9559 147.349 53.8762 147.061 53.8248 146.871C53.8232 146.865 53.8216 146.859 53.8198 146.852C53.4056 145.984 53.0038 145.258 52.5884 144.629C51.1324 142.423 49.5749 139.869 48.263 137.346C47.9438 136.732 47.5409 136.104 46.7856 134.928L46.678 134.76C46.0438 133.772 45.1185 132.327 44.3017 130.679C44.2454 130.597 44.1744 130.493 44.1024 130.386C43.8848 130.061 43.4672 129.423 43.0698 128.615C42.7647 127.995 42.3843 127.105 42.1187 125.994C41.5865 125.056 41.1408 124.103 40.8249 123.37C40.453 122.507 39.5624 120.382 39.3162 118.166C38.845 113.923 38.5964 109.738 38.5964 105.398C38.5964 105.27 38.591 105.086 38.5741 104.677C38.5729 104.647 38.5716 104.615 38.5703 104.582C38.5558 104.236 38.5343 103.72 38.5278 103.192C38.5142 102.097 38.5382 100.139 39.1337 97.9946C39.4174 96.9724 39.7517 95.9425 40.0033 95.1668C40.0471 95.0328 40.0882 94.9057 40.1262 94.788C40.4202 93.8757 40.5999 93.2799 40.7204 92.7706C40.7629 92.5916 40.8141 92.352 40.8757 92.0641C41.1762 90.6606 41.7238 88.1009 42.7206 85.664C44.2679 81.8807 46.4331 78.3523 48.8983 75.3174C50.099 73.8392 51.3401 72.4306 52.4278 71.1959L52.5586 71.0474C53.7252 69.723 54.7248 68.5832 55.6491 67.4355C57.4716 65.1726 59.7563 63.7231 60.8964 63.022C61.9762 62.358 62.4078 62.1202 62.7035 61.9574C62.9569 61.8178 63.1104 61.7333 63.4864 61.4825C64.5764 60.7557 65.7196 59.9188 67.0786 58.9129C67.1977 58.8247 67.3188 58.7351 67.4415 58.6442C68.6544 57.7458 70.0381 56.7208 71.4579 55.7396C74.5495 53.6031 78.5425 51.1443 83.2695 49.7717C85.4993 49.1242 87.5169 48.8093 89.4319 48.6672C89.6601 48.5492 89.8633 48.4501 89.999 48.3905C90.2765 48.2801 90.7667 48.1069 90.9777 48.0407C91.4229 47.9064 91.7826 47.8308 91.9624 47.7954C92.1681 47.7548 92.3376 47.7277 92.4482 47.7112C92.8079 47.6577 93.0975 47.6351 93.1632 47.63L93.1684 47.6295C93.2782 47.6209 93.3673 47.6156 93.4165 47.6129C93.5877 47.6033 93.7459 47.5984 93.8082 47.5965C94.1281 47.5868 94.6416 47.5777 95.1007 47.572C95.5277 47.5667 96.12 47.5614 96.5315 47.5687H96.5349C96.6171 47.5701 96.8756 47.5746 97.1721 47.5944C97.2603 47.6003 97.4073 47.6111 97.5871 47.6301C97.7194 47.644 98.1015 47.6854 98.5813 47.7831C98.8078 47.8293 99.2963 47.9353 99.8937 48.1417C100.199 48.2469 100.678 48.4275 101.235 48.7133C101.477 48.8407 101.997 49.1447 102.275 49.3239C102.605 49.5541 103.309 50.1138 103.676 50.4487C104.656 51.387 106.225 53.2731 106.723 56.181C106.85 57.2672 106.763 59.4241 106.555 60.4717C106.277 61.3879 105.546 62.9993 105.12 63.6928C104.732 64.2338 103.943 65.1463 103.557 65.5241C103.23 65.8143 102.607 66.3054 102.314 66.5105C101.645 66.9619 101.057 67.2444 100.704 67.4008C100.007 67.709 99.4294 67.8704 99.1865 67.9353C98.8882 68.015 98.6427 68.0662 98.4914 68.0957C98.2908 68.1347 98.117 68.1624 97.99 68.1809C97.6217 68.3222 96.9724 68.5625 96.2246 68.7658C95.2891 69.0199 94.0312 69.2683 92.5433 69.2683C90.8367 69.2683 89.9904 69.3808 89.0411 69.6564C87.5229 70.0972 85.7079 71.0589 83.2248 72.7749C82.0993 73.5527 80.9862 74.3769 79.7257 75.3103C79.6155 75.3919 79.5042 75.4743 79.3917 75.5576C78.0547 76.5471 76.5347 77.6668 74.9691 78.7108C74.2581 79.1849 73.5346 79.6078 73.0404 79.8951C72.9264 79.9613 72.8211 80.0225 72.7226 80.0796C72.3191 80.3136 72.0313 80.4806 71.7381 80.6608C71.5966 80.7479 71.4886 80.8172 71.4081 80.8704C70.2689 82.2625 69.1125 83.5756 68.0906 84.7358L68.0726 84.7562C66.9016 86.0855 65.9001 87.2223 64.9645 88.3742C63.6704 89.967 62.5942 91.7579 61.88 93.5039C61.6294 94.117 61.5609 94.4309 61.3607 95.3501C61.2514 95.8517 61.1028 96.534 60.8639 97.5432C60.5384 98.9172 60.1353 100.188 59.828 101.142C59.7696 101.323 59.715 101.492 59.6635 101.651C59.4878 102.195 59.3489 102.624 59.2284 103.022C59.2323 103.216 59.2415 103.441 59.2572 103.822L59.2578 103.837C59.2732 104.211 59.2971 104.792 59.2971 105.398C59.2971 108.67 59.4699 111.85 59.8077 115.111C59.8166 115.131 59.8258 115.153 59.8353 115.175C59.9255 115.384 60.0173 115.575 60.0857 115.707C60.0868 115.709 60.0879 115.712 60.089 115.713C61.0968 117.224 61.6559 118.665 61.9866 119.89C62.0483 119.989 62.1132 120.095 62.1798 120.208C62.3586 120.511 62.5782 120.906 62.7975 121.377C63.0127 121.838 63.3619 122.427 64.0984 123.575C64.1604 123.672 64.2268 123.775 64.297 123.884C64.9219 124.853 65.8446 126.285 66.629 127.793C67.5201 129.508 68.6791 131.426 69.8624 133.219C71.1248 135.131 72.1038 137.037 72.9015 138.793C73.0904 139.209 73.2351 139.588 73.3428 139.897C73.5113 140.119 73.6514 140.319 73.7635 140.484C73.8983 140.684 74.026 140.885 74.1413 141.074C74.1768 141.102 74.2113 141.128 74.2448 141.155C74.6291 141.461 75.25 141.972 75.8791 142.627C76.1983 142.959 76.6507 143.462 77.1076 144.114C77.1537 144.179 77.2036 144.252 77.2566 144.332C77.2665 144.34 77.2766 144.35 77.2866 144.358C77.4348 144.492 77.6623 144.699 77.9129 144.95C78.5741 145.611 79.0784 146.244 79.4324 146.723C79.762 147.167 80.0439 147.591 80.1912 147.812L80.2062 147.835C80.264 147.922 80.3039 147.982 80.3374 148.032C80.3895 148.087 80.4399 148.14 80.4889 148.192C80.9951 148.726 81.3389 149.089 81.6798 149.428C82.0632 149.808 82.2467 149.958 82.3245 150.017C82.3426 150.031 82.354 150.04 82.3599 150.043M71.2135 81.006C71.2149 81.0049 71.2166 81.0036 71.2185 81.0022C71.2065 81.0119 71.2044 81.0131 71.2135 81.006ZM41.9019 124.846C41.9019 124.846 41.9037 124.856 41.9068 124.875C41.9034 124.856 41.9019 124.847 41.9019 124.846ZM53.722 146.487C53.7224 146.488 53.7228 146.49 53.7232 146.491C53.6966 146.404 53.6963 146.392 53.722 146.487ZM61.3738 157.372C61.3955 157.389 61.3917 157.387 61.3676 157.367C61.3698 157.369 61.3719 157.37 61.3738 157.372ZM143.563 172.085C143.561 172.085 143.565 172.083 143.575 172.081C143.568 172.083 143.563 172.084 143.563 172.085ZM105.348 46.7757C105.348 52.4934 109.982 57.1286 115.698 57.1286L105.348 46.7757ZM115.698 57.1286C119.542 57.1286 122.396 57.4946 126.024 58.4745L115.698 57.1286ZM126.024 58.4745C126.271 58.5411 126.511 58.6059 126.745 58.6691L126.024 58.4745ZM126.745 58.6691C129.496 59.4102 131.481 59.9448 133.485 60.7295L126.745 58.6691ZM133.485 60.7295C134.232 61.0216 134.984 61.4823 136.587 62.9028L133.485 60.7295ZM136.587 62.9028C137.463 63.6792 138.234 64.3472 138.923 64.9429L136.587 62.9028ZM138.923 64.9429C141.057 66.7913 142.386 67.9422 143.543 69.4675L138.923 64.9429ZM143.543 69.4675C146.984 74.0032 149.546 77.6257 151.327 81.68L143.543 69.4675ZM151.327 81.68C151.859 82.8907 152.332 83.9232 152.759 84.8549L151.327 81.68ZM152.759 84.8549C153.645 86.7891 154.331 88.2886 154.931 90.0423L152.759 84.8549ZM154.931 90.0423C155.371 91.3282 155.752 92.7049 156.191 94.3652L154.931 90.0423ZM156.191 94.3652C156.253 94.6004 156.317 94.8443 156.383 95.095L156.191 94.3652ZM156.383 95.095C156.755 96.5106 157.188 98.1571 157.681 99.7751L156.383 95.095ZM157.681 99.7751C158.298 101.796 158.487 103.755 158.772 106.702L157.681 99.7751ZM158.772 106.702C158.874 107.754 158.989 108.933 159.139 110.285L158.772 106.702ZM159.139 110.285C159.481 113.366 159.305 114.821 159.082 115.397L159.139 110.285ZM159.082 115.397C156.796 121.303 155.243 127.514 154.096 133.255L159.082 115.397ZM154.096 133.255C153.439 136.54 151.217 139.875 148.302 141.925L154.096 133.255ZM148.302 141.925C148.269 141.942 148.228 141.965 148.177 141.992C148.155 142.004 148.128 142.018 148.096 142.035C147.831 142.176 147.251 142.484 146.697 142.82C146.099 143.183 144.982 143.899 143.89 144.998C142.848 146.046 141.226 148.053 140.653 151.05C140.646 151.062 140.638 151.075 140.628 151.089C140.582 151.159 140.521 151.24 140.449 151.326C140.377 151.411 140.301 151.492 140.225 151.563C140.202 151.585 140.18 151.606 140.16 151.624C139.82 151.698 139.156 151.845 138.776 151.937C138.073 152.109 136.976 152.403 135.792 152.909C134.858 153.309 133.645 153.934 132.427 154.926L132.105 155.078C131.955 155.149 131.762 155.24 131.557 155.342C131.353 155.443 131.095 155.574 130.814 155.729C129.715 156.333 128.85 156.723 128.208 156.947C128.097 156.941 127.973 156.934 127.808 156.926C127.723 156.921 127.628 156.916 127.518 156.91C127.14 156.89 126.55 156.861 125.919 156.861C125.884 156.861 125.846 156.861 125.806 156.861C124.949 156.86 123.107 156.857 121.163 157.362C119.405 157.818 117.99 158.551 116.858 159.301C116.709 159.331 116.529 159.365 116.298 159.409C116.078 159.451 115.793 159.505 115.504 159.563C115.265 159.613 114.979 159.673 114.67 159.747C114.636 159.748 114.589 159.75 114.53 159.752C114.353 159.755 114.134 159.754 113.78 159.75C113.723 159.749 113.658 159.748 113.588 159.747C113.416 159.744 113.208 159.741 112.991 159.739C112.857 159.702 112.651 159.643 112.353 159.551C112.301 159.536 112.241 159.517 112.176 159.497C111.217 159.198 108.843 158.458 106.117 158.458C104.694 158.458 103.053 158.209 101.222 157.7C101.159 157.662 101.056 157.597 100.903 157.494C100.753 157.394 100.59 157.28 100.361 157.12L100.278 157.063C100.08 156.925 99.8288 156.75 99.5747 156.576C98.9738 156.167 98.1862 155.649 97.2499 155.129C96.4554 154.687 95.7404 154.388 95.2779 154.205C95.0989 154.134 94.9321 154.07 94.7998 154.021C93.9413 153.426 93.0318 152.906 92.2797 152.523C91.7047 152.23 90.9578 151.881 90.1226 151.58C89.5313 151.366 87.9085 150.801 85.887 150.791" fill="#FCFF56"/>
<path fill-rule="evenodd" clip-rule="evenodd" d="M133.337 152.197C134.66 152.197 135.733 151.221 135.733 150.018C135.733 144.36 134.362 138.674 131.187 133.575C129.005 130.071 125.894 126.347 122.071 123.474C118.251 120.604 113.565 118.471 108.305 118.471C105.019 118.471 102.223 119.888 100.1 121.716C97.9793 123.542 96.3747 125.9 95.3995 128.158C92.8586 134.038 92.5059 140.039 92.5059 145.906C92.5059 147.11 93.5788 148.085 94.9015 148.085C96.2243 148.085 97.2972 147.11 97.2972 145.906C97.2972 140.145 97.6637 134.832 99.8588 129.751C100.617 127.996 101.858 126.203 103.395 124.879C104.929 123.558 106.606 122.828 108.305 122.828C112.097 122.828 115.738 124.367 119.018 126.833C122.295 129.294 125.055 132.57 127.018 135.722C129.725 140.069 130.942 144.994 130.942 150.018C130.942 151.221 132.015 152.197 133.337 152.197Z" fill="black"/>
<path fill-rule="evenodd" clip-rule="evenodd" d="M119.703 84.9424C121.049 84.9424 122.139 86.033 122.139 87.3784C122.139 89.8326 122.055 92.2902 121.974 94.6959L121.973 94.7011C121.891 97.1224 121.81 99.4893 121.81 101.829C121.81 103.174 120.72 104.264 119.375 104.264C118.03 104.264 116.939 103.174 116.939 101.829C116.939 99.4045 117.022 96.9659 117.104 94.5706L117.105 94.536C117.188 92.1155 117.268 89.7383 117.268 87.3784C117.268 86.033 118.358 84.9424 119.703 84.9424Z" fill="black"/>
<path fill-rule="evenodd" clip-rule="evenodd" d="M102.957 87.5693C104.302 87.5693 105.392 88.6607 105.392 90.0053V100.187C105.392 101.532 104.302 102.623 102.957 102.623C101.613 102.623 100.521 101.532 100.521 100.187V90.0053C100.521 88.6607 101.613 87.5693 102.957 87.5693Z" fill="black"/>
<path fill-rule="evenodd" clip-rule="evenodd" d="M82.7553 42.5143C88.6495 40.0515 94.9831 38.2031 100.466 38.2031C108.295 38.2031 115.733 39.0264 123.329 39.9308C129.533 40.6696 136.747 43.3575 143.162 47.1622C143.735 47.5017 144.303 47.8512 144.865 48.2106C144.883 48.1916 144.902 48.1727 144.92 48.1541C145.871 47.2028 147.413 47.2028 148.364 48.1541C150.304 50.0947 152.518 51.9423 154.873 53.8594C155.224 54.1443 155.577 54.431 155.933 54.7198C157.943 56.3496 160.03 58.0423 162.004 59.826C166.661 64.0337 170.993 69.007 172.848 75.745C173.689 78.8019 174.754 81.6869 175.852 84.6611C176.19 85.5748 176.53 86.497 176.868 87.4353C178.283 91.3639 179.617 95.4792 180.224 99.9716C181.7 110.894 180.17 123.248 177.474 133.627C174.792 143.959 168.304 154.284 161.631 162.211C154.716 170.424 145.418 179.838 134.18 183.244C122.261 186.857 107.758 184.954 96.4277 181.987C93.6984 181.271 91.1895 180.153 88.844 178.98C87.7694 178.442 86.7924 177.927 85.8405 177.427C84.5897 176.768 83.3825 176.132 82.0559 175.498C80.9045 174.948 79.7309 174.401 78.5448 173.85C72.5872 171.08 66.314 168.163 60.945 163.715C42.4981 148.435 32.3655 127.844 32.6138 103.994C32.8557 80.7696 49.2965 62.8929 66.7811 51.1068C71.0997 48.1958 76.817 44.9953 82.7553 42.5143ZM158.981 63.6602C158.809 64.2346 158.427 64.7473 157.867 65.0713C156.703 65.7454 155.213 65.3479 154.54 64.1836C151.802 59.4539 146.675 54.909 140.678 51.3531C134.698 47.8065 128.13 45.4089 122.753 44.7686C115.155 43.864 107.975 43.0751 100.466 43.0751C95.9315 43.0751 90.2981 44.6425 84.6326 47.0098C79.011 49.3585 73.5752 52.402 69.5031 55.1469C52.4862 66.6177 37.7011 83.2373 37.4843 104.045C37.2522 126.338 46.6666 145.562 64.0517 159.963C68.8926 163.973 74.4911 166.582 80.4368 169.353C81.6634 169.925 82.9049 170.504 84.1575 171.103C85.4916 171.741 86.9126 172.486 88.2812 173.205C89.2356 173.706 90.165 174.193 91.0226 174.622C93.2514 175.738 95.4119 176.684 97.6623 177.274C108.714 180.169 122.15 181.8 132.767 178.581C142.526 175.624 151.034 167.235 157.905 159.072C164.318 151.456 170.327 141.774 172.76 132.403C175.355 122.408 176.762 110.722 175.398 100.625C174.862 96.6596 173.674 92.9386 172.286 89.087C171.977 88.2283 171.655 87.3575 171.329 86.4745C170.216 83.4634 169.054 80.3152 168.152 77.0384C166.689 71.7245 163.266 67.5707 158.981 63.6602Z" fill="black"/>
</g>
<defs>
<clipPath id="clip0_565_4441">
<rect width="217" height="211" fill="white"/>
</clipPath>
</defs>
</svg>
