<svg width="217" height="211" viewBox="0 0 217 211" fill="none" xmlns="http://www.w3.org/2000/svg">
<g clip-path="url(#clip0_565_4462)">
<path fill-rule="evenodd" clip-rule="evenodd" d="M75.1246 72.0342C72.976 70.3964 71.4596 67.9123 71.0998 64.9952C70.5699 60.6988 72.7 56.6867 76.1866 54.6575C76.3079 54.5351 76.4552 54.3878 76.6096 54.2378C76.8275 54.026 77.1343 53.7356 77.4953 53.4283C77.8391 53.1356 78.3802 52.6998 79.0718 52.2685C80.0817 51.6386 80.6185 51.3291 80.9695 51.1268C81.3468 50.9093 81.5093 50.8156 81.8137 50.5808C84.849 48.2402 88.5782 46.4781 90.9121 45.3755C91.4062 45.1419 91.8385 44.9378 92.187 44.7642C99.0169 41.3687 106.521 39.6087 114.716 40.5066C121.697 41.2716 128.157 45.2429 131.659 47.4465C135.833 50.0716 139.597 53.4953 142.516 56.1511C143.164 56.7398 143.769 57.2908 144.329 57.787C150.124 62.9266 155.018 68.628 159.373 74.6798C164.565 81.8939 169.311 89.6663 173.031 98.2272C176.5 106.211 179.349 114.413 181.026 123.469C181.778 127.526 182.719 133.97 181.68 139.903C179.53 152.183 170.901 160.018 163.501 164.926C157.578 168.853 150.124 169.653 146.123 170.082C145.824 170.114 145.545 170.144 145.287 170.173C142.82 170.451 140.3 170.63 137.644 170.63C137.572 170.63 137.428 170.634 137.001 170.657C136.967 170.659 136.931 170.661 136.893 170.662C136.54 170.681 135.99 170.71 135.431 170.721C134.301 170.743 132.043 170.738 129.613 169.916C120.848 166.955 112.725 163.049 105.009 159.007C101.709 158.803 98.9262 157.899 96.7597 157.026C95.5606 156.543 94.4242 156.015 93.5344 155.601L93.5291 155.599L93.5213 155.596C92.5609 155.149 91.8472 154.817 91.1378 154.524C89.1307 153.694 87.0402 152.967 84.6079 152.122L84.4315 152.061C83.3354 151.68 82.1682 151.274 80.9637 150.834C79.0461 150.532 77.1598 150.214 75.3131 149.895C71.0026 149.152 66.9036 147.273 63.6971 143.836C60.554 140.467 59.0001 136.387 58.3224 132.494C57.7453 129.18 57.2824 125.595 56.8596 122.322C56.6589 120.767 56.4673 119.283 56.2768 117.932C55.747 114.173 55.8488 110.088 57.0609 106.092C52.3513 105.138 48.8027 100.924 48.8027 95.8703C48.8027 90.161 53.3303 85.5244 58.9446 85.4463C59.004 85.4367 59.2147 85.4037 59.6432 85.3057C59.9028 85.2465 60.123 85.1927 60.4053 85.1238C60.5614 85.0856 60.7366 85.0429 60.9478 84.992C61.453 84.8703 62.1258 84.7124 62.8443 84.5791C63.7052 84.4194 64.5148 84.2745 65.2879 84.136C66.0998 82.5661 67.037 81.045 68.0684 79.5985C68.5521 78.8413 69.1099 78.1034 69.7532 77.4016C71.4071 75.3929 73.2308 73.5761 75.1246 72.0342ZM150.796 126.367C150.808 126.354 150.819 126.34 150.83 126.327L150.831 126.326C150.866 126.285 151.568 125.452 150.789 122.401C150.832 123.723 150.835 125.047 150.796 126.367ZM121.919 123.074C122.267 123.325 122.624 123.571 122.988 123.814C123.489 122.942 123.926 122.038 124.306 121.084C123.566 121.821 122.765 122.486 121.919 123.074Z" fill="#FCFF56"/>
<path fill-rule="evenodd" clip-rule="evenodd" d="M88.833 57.6973C88.8487 58.9563 88.8591 60.2491 88.8591 61.5789C88.8591 67.3066 84.2238 71.9499 78.5061 71.9499C72.7885 71.9499 68.1534 67.3066 68.1534 61.5789C68.1534 59.8236 68.1142 57.9234 68.0726 55.9133C67.8838 46.7668 67.6479 35.3434 70.8474 24.9266C71.3119 23.4144 71.5985 21.7309 71.9261 19.3666C71.965 19.0859 72.0051 18.7899 72.0469 18.4807C72.3029 16.5909 72.6253 14.2107 73.1519 11.8147L73.1532 11.8005L73.1539 11.7925C73.1885 11.416 73.2669 10.5616 73.4378 9.65049C73.4401 9.63815 73.4426 9.62484 73.4452 9.61048C73.5551 9.02134 73.9735 6.77512 75.4752 4.6369C76.3629 3.37284 78.2026 1.33368 81.3384 0.425551C84.6653 -0.537942 87.5754 0.302864 89.4195 1.2808C90.5167 1.86251 91.2949 2.51887 91.7307 2.91787C92.2013 3.34947 92.5656 3.7544 92.8131 4.04681C93.2967 4.61841 93.668 5.15589 93.8789 5.47084C94.0994 5.79946 94.292 6.10933 94.3905 6.26782L94.3992 6.28132C94.4244 6.32148 94.4436 6.35299 94.4593 6.37701C95.1513 7.3806 95.8118 8.41648 96.3496 9.26045C96.462 9.4373 96.57 9.60567 96.6711 9.76361C97.3369 10.8029 97.8494 11.5748 98.3592 12.248C101.364 16.2135 104.142 20.7291 106.559 24.6597C107.382 25.997 108.163 27.2667 108.896 28.4239C109.946 30.0784 110.675 31.7223 111.112 32.707L111.132 32.7525C111.658 33.9397 111.839 34.3343 112.028 34.6548C112.517 35.4805 112.862 36.2391 113.097 36.7952C113.283 37.2383 113.46 37.7036 113.553 37.9475C113.567 37.9854 113.58 38.018 113.59 38.0443C113.597 38.0622 113.603 38.079 113.609 38.095C115.422 40.8711 116.369 43.7041 116.964 45.7867C116.983 45.8535 117.008 45.9359 117.062 46.1059C117.067 46.1184 117.071 46.1343 117.077 46.1533C117.123 46.295 117.223 46.6043 117.306 46.8929C117.307 46.8947 117.308 46.8994 117.311 46.9071C117.385 47.133 118.28 49.8645 117.51 52.9986C116.995 55.0971 115.844 57.0763 114.088 58.5979C114.025 58.6523 113.962 58.7054 113.9 58.7574C114.647 59.5519 115.427 60.2072 116.287 60.7499C119.265 62.6278 123.722 63.8131 128.285 63.9997C128.464 64.007 128.744 64.0165 129.088 64.0237C129.239 63.8453 129.392 63.6764 129.545 63.5173C131.023 61.9846 132.603 61.2562 133.255 60.9761C134.049 60.6354 134.757 60.4305 135.175 60.3184C135.624 60.198 136.035 60.1075 136.295 60.0518C136.441 60.0204 136.529 60.0019 136.591 59.9887C137.221 59.7385 137.794 59.5645 138.276 59.439C138.605 59.3532 138.919 59.2842 139.181 59.2312C139.644 58.9805 140.459 58.56 141.537 58.204C142.062 57.9115 142.738 57.5853 143.542 57.3121C144.77 56.8952 145.946 56.7154 147.01 56.6644C147.304 56.4699 147.575 56.305 147.806 56.1679C148.98 55.4729 150.184 54.9203 151.225 54.4968C153.242 53.6765 155.493 53.0022 157.3 52.6731C157.623 52.6144 157.84 52.5425 158.535 52.3121C158.872 52.2006 159.321 52.052 159.947 51.8498C161.453 51.3641 164.058 50.5679 167.174 50.5679H178C178.529 50.5679 179.003 50.5974 179.321 50.6209C179.547 50.6376 179.771 50.6573 179.965 50.6754C180.454 50.4027 181.299 49.9875 182.379 49.703C183.385 49.4385 189.009 48.2132 193.05 53.1955C194.748 55.2904 195.201 57.4837 195.322 58.7593C195.443 60.0451 195.297 61.0734 195.194 61.6284C194.992 62.7241 194.656 63.5334 194.54 63.8065C194.293 64.3875 194.039 64.8339 193.943 64.9995C193.18 66.7492 192.206 67.9322 191.788 68.4342C191.611 68.6462 191.45 68.8308 191.342 68.9533C191.253 69.0546 191.212 69.1002 191.177 69.1392C190.797 69.6896 190.403 70.2665 189.995 70.8631C188.117 73.6108 185.954 76.7749 183.604 79.6892C183.425 79.91 183.165 80.2562 182.839 80.6906C181.556 82.4017 179.245 85.4809 176.859 87.6473C176.151 88.2908 175.44 88.9658 174.695 89.6873C174.58 90.9287 174.269 91.9006 174.052 92.4758C173.307 94.4545 172.119 95.7747 171.818 96.1092L171.798 96.1311C171.307 96.6783 170.724 97.222 170.161 97.707C170.485 98.1509 170.818 98.6088 171.154 99.0789C173.46 99.8301 175.504 101.387 176.828 103.598C178.865 105.126 180.234 106.911 180.947 107.881C181.512 108.649 182.007 109.398 182.37 109.953C182.481 110.123 182.576 110.268 182.66 110.396C182.895 110.757 183.037 110.975 183.18 111.18C183.482 111.616 183.771 112.014 184.044 112.375C184.167 112.409 184.295 112.443 184.425 112.477C184.793 112.574 185.232 112.685 185.717 112.808C187.239 113.192 189.223 113.693 190.966 114.258C192.744 114.834 194.302 115.552 195.372 116.049C195.493 116.105 195.608 116.159 195.718 116.209C196.718 116.675 197.275 116.934 197.857 117.153C198.771 117.496 199.582 117.872 200.201 118.171C200.52 118.325 201.023 118.576 201.382 118.754C201.549 118.839 201.685 118.906 201.757 118.941C202.295 119.206 202.541 119.305 202.6 119.33C204.121 119.683 205.35 120.219 205.952 120.487C206.024 120.5 206.104 120.514 206.187 120.532L206.202 120.534C206.37 120.568 207.137 120.719 208.048 121.088C208.631 121.345 210.193 122.269 211.109 123.009C211.284 123.207 211.462 123.453 211.64 123.74C211.785 123.839 211.945 123.955 212.112 124.084C212.113 124.086 212.117 124.088 212.122 124.092C212.252 124.19 213.414 125.063 214.396 126.542C214.793 127.141 216.507 129.77 216.053 133.532C215.449 138.527 211.807 141.039 209.62 141.915C207.975 142.575 206.536 142.667 206.027 142.693C205.338 142.729 204.743 142.701 204.348 142.673C203.55 142.616 202.807 142.501 202.295 142.414C201.233 142.231 200.24 141.999 199.881 141.913C199.742 141.88 199.425 141.829 198.259 141.739C198.182 141.733 198.099 141.727 198.011 141.721C197.051 141.649 195.402 141.528 193.735 141.193C193.785 141.204 193.686 141.174 193.006 141.156C192.837 141.152 192.671 141.148 192.447 141.144C192.237 141.14 191.986 141.134 191.722 141.126C191.193 141.11 190.531 141.08 189.797 141.01C188.787 140.914 187.93 140.723 187.297 140.555C186.687 140.393 186.147 140.214 185.866 140.122L185.863 140.121C185.784 140.093 185.724 140.074 185.673 140.058C185.541 140.053 185.341 140.051 185.054 140.055C184.779 140.059 184.512 140.067 184.16 140.079C184.081 140.08 183.999 140.083 183.912 140.086C183.475 140.099 182.916 140.115 182.33 140.115C181.768 140.115 181.014 140.134 180.136 140.156C177.661 140.219 174.212 140.305 171.371 140.058C171.37 140.058 171.364 140.058 171.356 140.057C171.215 140.046 170.132 139.967 169.146 139.803C168.584 139.709 167.731 139.541 166.784 139.22C166.05 138.97 164.592 138.414 163.112 137.225C162.955 137.114 162.567 136.833 162.195 136.528C161.967 136.34 161.487 135.935 160.969 135.367C160.962 135.36 160.955 135.351 160.946 135.341C160.643 135.012 159.134 133.37 158.486 130.742C158.08 129.1 157.913 126.639 159.066 124.022C159.294 123.502 159.553 123.025 159.834 122.589C158.402 121.468 157.01 120.268 155.676 118.986C152.785 116.208 150.831 114.733 149.461 114.15C149.217 114.117 148.911 114.073 148.635 114.028C148.107 113.939 147.011 113.742 145.81 113.294C145.186 113.061 144.273 112.666 143.296 112.007C142.321 111.349 140.984 110.225 139.935 108.44C139.406 107.539 138.517 105.757 138.414 103.343C138.292 100.514 139.3 97.6641 141.373 95.5103C143.15 93.6656 145.122 92.9372 146.158 92.6386C146.471 92.5485 146.772 92.4775 147.055 92.4206C147.202 92.0135 147.377 91.6003 147.585 91.1835C148.722 88.9037 150.408 87.1342 151.586 86.0383C151.959 84.7949 152.492 83.8714 152.645 83.6052L152.649 83.5974C153 82.9882 153.438 82.357 153.652 82.0465C153.667 82.0257 153.68 82.0064 153.692 81.9886C155.342 79.6023 157.286 77.7137 158.527 76.5091C158.662 76.378 158.788 76.255 158.905 76.1403C159.972 75.0952 161.16 73.9318 162.407 72.7795C161.966 72.8876 161.497 72.9907 161.004 73.0805C161.005 73.0803 161.005 73.0802 161.004 73.0805C160.996 73.0822 160.928 73.0957 160.8 73.1273C160.662 73.1617 160.486 73.2094 160.282 73.2708C159.863 73.3962 159.416 73.5517 159.014 73.7153C158.893 73.7646 158.784 73.8112 158.689 73.854C157.179 75.2951 155.567 76.0586 154.465 76.4652C153.067 76.9813 151.791 77.1806 150.954 77.2734C150.536 77.3198 150.098 77.3495 149.685 77.3682C149.439 77.4715 149.182 77.5699 148.915 77.662C148.751 77.7183 148.587 77.7709 148.424 77.8199C148.348 77.8625 148.263 77.9085 148.173 77.9563C147.975 78.0626 147.733 78.1871 147.458 78.3173C147 78.5338 146.562 78.7093 146.155 78.8524C145.331 80.0474 144.374 80.9596 143.547 81.5825C141.737 82.9478 139.864 83.5541 138.854 83.8361C137.682 84.1631 136.542 84.3514 135.609 84.4696C132.094 84.9147 128.141 84.753 127.446 84.7246L127.441 84.7244C120.45 84.4385 112.163 82.6588 105.255 78.3024C97.0807 73.1463 92.5908 64.7288 89.6809 59.272C89.4657 58.87 89.26 58.484 89.0622 58.1166C88.9899 57.9833 88.914 57.8434 88.833 57.6973ZM105.89 40.643C105.892 40.6442 105.849 40.6468 105.753 40.6472C105.839 40.6419 105.887 40.6418 105.89 40.643ZM147.656 112.706C147.642 112.702 147.628 112.699 147.614 112.694L147.623 112.697C147.633 112.699 147.644 112.703 147.656 112.706ZM168.933 138.514H168.753C168.761 138.514 168.771 138.515 168.782 138.515C168.815 138.515 168.867 138.515 168.933 138.514ZM175.54 102.75C175.537 102.748 175.535 102.746 175.534 102.746C175.61 102.798 175.615 102.806 175.54 102.75ZM150.086 114.236C150.084 114.237 150.045 114.231 149.978 114.219C150.056 114.23 150.09 114.236 150.086 114.236ZM163.307 137.366C163.305 137.365 163.276 137.344 163.228 137.308C163.285 137.349 163.308 137.367 163.307 137.366ZM137.084 59.8779C137.088 59.8783 137.039 59.8919 136.927 59.9172C137.024 59.8899 137.08 59.8773 137.084 59.8779ZM129.742 78.6442C129.76 78.6613 129.774 78.6752 129.784 78.686L129.788 78.6907C129.774 78.6756 129.758 78.6601 129.742 78.6442Z" fill="#FCFF56"/>
<path fill-rule="evenodd" clip-rule="evenodd" d="M140.701 159.299C140.701 153.522 145.344 148.838 151.07 148.838C154.352 148.838 157.074 150.299 158.887 152.192C160.441 153.818 161.144 155.543 161.457 156.451C162.071 158.235 162.184 159.932 162.225 160.569C162.255 161.038 162.272 161.575 162.282 161.967C163.028 164.301 164.185 166.709 165.751 169.551C166.904 171.644 168.389 173.721 170.256 176.185C170.853 176.972 171.306 177.694 171.582 178.137C171.66 178.263 171.724 178.364 171.776 178.448C171.943 178.719 171.996 178.804 172.073 178.916C172.313 179.266 172.671 179.808 173.01 180.456C173.012 180.46 173.016 180.467 173.022 180.478C173.163 180.737 174.29 182.799 174.297 185.56C174.302 187.39 173.783 190.791 170.785 193.471C167.98 195.978 164.863 196.156 163.511 196.111C161.201 196.034 159.457 195.165 159.208 195.04C159.198 195.035 159.19 195.032 159.186 195.029C158.343 194.623 157.575 194.113 157.41 194.003C157.399 193.996 157.39 193.991 157.385 193.986C157.26 193.905 157.184 193.855 157.142 193.828C155.698 193.007 154.017 192.252 151.899 191.369C151.473 191.192 151.015 191.004 150.535 190.806C148.771 190.081 146.7 189.23 144.768 188.316C143.093 187.524 141.352 186.892 139.095 186.072C138.596 185.89 138.071 185.7 137.516 185.496C134.727 184.473 131.237 183.137 127.896 181.155C127.434 180.881 126.781 180.585 125.604 180.162C125.371 180.08 125.025 179.96 124.613 179.819C123.592 179.468 122.169 178.981 121.078 178.553C121.069 178.549 121.008 178.529 120.873 178.497C120.681 178.452 120.419 178.401 119.954 178.324C119.864 178.309 119.755 178.292 119.631 178.272C118.776 178.137 117.163 177.88 115.587 177.426C110.081 175.839 106.893 170.05 108.466 164.494C110.039 158.94 115.778 155.723 121.284 157.311C121.565 157.391 121.803 157.431 122.705 157.579C122.881 157.608 123.083 157.642 123.316 157.68C124.487 157.874 126.454 158.214 128.592 159.054C129.329 159.342 129.861 159.522 130.553 159.757C131.074 159.934 131.687 160.14 132.544 160.448C134.168 161.03 136.264 161.849 138.41 163.122C139.341 163.675 140.398 164.178 141.666 164.703C141.646 164.515 141.634 164.367 141.626 164.267C141.604 164.001 141.59 163.743 141.581 163.521C141.016 162.229 140.701 160.801 140.701 159.299ZM168.844 176.547C168.845 176.549 168.825 176.535 168.778 176.506C168.819 176.531 168.843 176.546 168.844 176.547ZM141.531 161.918C141.514 161.775 141.521 161.758 141.53 161.911C141.53 161.913 141.531 161.915 141.531 161.918Z" fill="#FCFF56"/>
<path fill-rule="evenodd" clip-rule="evenodd" d="M66.2403 138.571C69.4304 133.808 75.8958 132.521 80.6811 135.696C87.589 140.28 90.3559 147.557 91.6841 152.919C92.702 157.028 93.2127 161.665 93.5674 164.888C93.6667 165.795 93.7539 166.589 93.8367 167.229C94.1094 169.332 94.2646 170.952 94.3944 172.322C94.4145 172.527 94.4336 172.726 94.4519 172.92C96.35 171.24 98.4207 170.417 99.2608 170.096C100.588 169.588 101.886 169.248 102.857 169.048C110.558 167.462 118.205 167.498 124.733 167.528C125.603 167.532 126.454 167.537 127.282 167.537C133.033 167.537 137.695 172.177 137.695 177.9C137.695 183.625 133.033 188.265 127.282 188.265C126.373 188.265 125.489 188.263 124.628 188.26C118.414 188.245 113.383 188.231 108.397 189.097C107.95 189.751 107.385 190.471 106.689 191.164C104.573 193.27 102.349 195.193 100.181 196.931C100.161 196.95 100.138 196.972 100.114 196.995L100.102 197.007C99.8891 197.21 99.497 197.585 99.0656 197.965C98.6865 198.299 97.937 198.943 97.0097 199.534C96.5574 199.821 95.7086 200.328 94.5818 200.729C93.6702 201.053 91.1072 201.854 87.9681 200.961C86.4187 200.52 85.2496 199.818 84.4713 199.248C83.694 198.678 83.1247 198.107 82.7591 197.707C82.3687 197.279 82.0437 196.858 81.8149 196.542C79.3775 194.203 78.0239 191.34 77.3954 189.933C76.4243 187.758 75.7474 185.592 75.3628 184.237C74.2097 180.177 73.7708 175.684 73.456 172.461C73.3584 171.462 73.2728 170.585 73.1815 169.881C73.0032 168.506 72.8615 167.227 72.7268 166.013C72.4023 163.085 72.1189 160.527 71.4635 157.883C70.5609 154.239 69.5182 153.202 69.1285 152.944C64.3431 149.768 63.0501 143.334 66.2403 138.571ZM85.2501 182.453C85.225 182.475 85.213 182.485 85.2132 182.485C85.2135 182.484 85.226 182.473 85.2501 182.453Z" fill="#FCFF56"/>
<path fill-rule="evenodd" clip-rule="evenodd" d="M50.3967 116.574C50.326 116.275 50.2417 115.977 50.1433 115.681C48.3357 110.23 42.474 107.284 37.0511 109.101C33.2561 110.372 31.0823 113.187 30.0401 115.566C29.9608 115.746 29.8871 115.927 29.8187 116.105C29.784 116.128 29.7496 116.151 29.7155 116.174C29.0481 116.618 28.5006 116.983 28.1668 117.193C23.889 119.88 20.3282 123.362 17.5592 126.445C13.724 130.715 9.36891 135.572 5.61325 140.978C5.60639 140.987 5.50299 141.127 5.13003 141.583C5.08101 141.643 5.02576 141.711 4.96549 141.784C4.65839 142.158 4.22095 142.691 3.81325 143.218C3.31752 143.858 2.66725 144.739 2.06574 145.755C1.5033 146.704 0.685531 148.26 0.251118 150.224C-0.544831 153.824 0.609553 157.353 2.89078 159.758C4.64623 161.609 6.58431 162.304 7.29427 162.536C8.80157 163.03 10.132 163.08 10.4682 163.093C10.4772 163.093 10.4855 163.093 10.493 163.094C10.7176 163.103 10.93 163.106 11.111 163.105C14.0233 163.424 17.1896 163.722 20.6286 163.722C24.5415 163.722 28.3676 163.461 31.8017 163.227L31.9455 163.217C35.5307 162.972 38.7071 162.759 41.8501 162.759H64.5974C70.3138 162.759 74.9478 158.101 74.9478 152.356C74.9478 146.61 70.3138 141.953 64.5974 141.953H63.5871C63.0483 138.956 61.4419 136.897 60.5244 135.898C59.3171 134.584 58.0179 133.701 57.2219 133.201C57.0548 133.096 56.8717 132.987 56.6801 132.876C55.8065 131.668 55.2899 130.927 54.864 130.039C54.3362 128.939 53.7636 127.917 53.346 127.174L53.2664 127.032C52.8431 126.279 52.5641 125.782 52.3173 125.293C52.1619 124.986 52.0658 124.767 52.0078 124.624C52.0402 124.101 52.1027 122.959 51.9908 121.721C51.9307 121.056 51.7922 120.001 51.4001 118.809C51.2117 118.236 50.904 117.443 50.3967 116.574ZM34.9047 142.176C34.5466 141.651 34.2089 141.096 33.8983 140.509C33.8222 140.364 33.7333 140.2 33.6343 140.018C33.5899 139.936 33.5435 139.851 33.4953 139.762C33.3057 139.967 33.1154 140.175 32.9247 140.387C32.3069 141.075 31.7001 141.752 31.1049 142.42C32.3289 142.337 33.6 142.251 34.9047 142.176Z" fill="#FCFF56"/>
<path fill-rule="evenodd" clip-rule="evenodd" d="M77.102 72.374C77.9492 70.8678 78.4329 69.1268 78.4329 67.2719C78.4329 61.5485 73.8275 56.9087 68.1463 56.9087C65.8232 56.9087 62.6751 57.4845 59.92 59.8485C57.2123 62.1718 56.2458 65.0615 55.8808 66.8666C55.712 67.7015 55.633 68.4986 55.5987 69.1786C55.4485 69.145 55.2958 69.1103 55.1405 69.0744C51.8306 68.3091 48.525 67.3164 44.8345 66.2082L44.7767 66.1908C41.2749 65.1393 37.4158 63.9815 33.427 63.0654C32.5559 62.6371 31.1138 61.929 29.6347 61.3464C28.0435 60.7197 25.342 59.7868 22.2789 59.7868H20.8057L20.8051 80.4763C20.7807 80.4737 20.7562 80.4709 20.7318 80.468C20.5297 80.444 20.3276 80.4105 20.1275 80.3676C19.6924 80.2744 19.3771 80.1599 19.2417 80.1072C19.1982 80.0902 19.1721 80.0791 19.1719 80.079C19.1718 80.079 19.1764 80.081 19.1863 80.0853C19.2297 80.1042 19.2772 80.1256 19.4115 80.1862L19.4325 80.1956C19.6642 80.3 20.1131 80.5023 20.6403 80.7072C22.4052 81.393 24.3464 82.0872 26.4329 82.6686C27.301 83.0773 28.0757 83.4312 28.779 83.7526C29.7725 84.2066 30.6239 84.5957 31.3959 84.9822C31.1679 85.6208 30.9547 86.2865 30.7741 86.9626C29.9333 90.1084 29.9501 93.2077 30.0194 95.2494C30.0661 96.6231 30.1197 97.4531 30.1628 98.1202C30.2095 98.8443 30.2439 99.3775 30.2439 100.21V113.96C30.2439 119.684 34.8495 124.324 40.5306 124.324C46.2118 124.324 50.8173 119.684 50.8173 113.96V100.21C50.8173 99.0728 50.7597 97.9486 50.7091 97.0425C50.6974 96.8323 50.6861 96.6336 50.6752 96.4427C50.6348 95.7336 50.6012 95.1452 50.5808 94.5411C50.5557 93.8048 50.5599 93.2646 50.5862 92.8514C50.609 92.4968 50.642 92.3453 50.6427 92.3409C50.7967 91.7675 50.9818 91.3752 51.5234 90.2248C51.6158 90.0278 51.7186 89.8098 51.8334 89.5647C53.8805 90.0024 56.4962 90.4577 59.2566 90.5269C62.6084 90.61 67.0789 90.1548 71.2951 87.5947C71.3009 87.5912 71.346 87.5659 71.4747 87.493L71.4974 87.4802C71.6494 87.3945 71.9288 87.2368 72.2226 87.0601C72.5337 86.873 72.9779 86.5953 73.4627 86.2419C73.9272 85.9034 74.615 85.3617 75.3196 84.6076C76.5012 83.3428 78.9163 80.074 78.1043 75.391C77.9028 74.2291 77.5354 73.2249 77.102 72.374ZM76.15 70.0973C76.1503 70.0981 76.1504 70.1168 76.1491 70.1513C76.149 70.1138 76.1496 70.0966 76.15 70.0973ZM73.6373 68.2963C73.634 68.2931 73.635 68.294 73.6396 68.2984L73.6373 68.2963ZM36.6692 88.1192C36.7003 88.1393 36.6901 88.1349 36.647 88.1052C36.6554 88.1104 36.6627 88.1148 36.6692 88.1192Z" fill="#FCFF56"/>
<path fill-rule="evenodd" clip-rule="evenodd" d="M74.8699 53.4067C78.7439 57.6589 78.395 64.2084 74.0905 68.0353C73.1928 68.8335 71.9942 69.9418 70.6945 71.1438C68.7462 72.9453 66.5708 74.9572 64.8402 76.4495C62.7441 78.2573 61.746 79.1288 61.0349 80.0451C61.0385 80.0404 61.0296 80.0517 61.0029 80.0888C60.9742 80.1288 60.9357 80.1836 60.8702 80.2787C60.8581 80.2962 60.8425 80.319 60.8237 80.3464C60.7048 80.5197 60.462 80.8735 60.2201 81.2024C59.5542 82.1078 58.4988 83.3942 56.8656 84.6042C52.2327 88.037 45.6603 87.1091 42.1856 82.5325C38.9164 78.2265 39.5543 72.2243 43.5 68.6707L43.5391 68.6139C43.7203 68.3513 44.0197 67.9198 44.3918 67.4405C46.4591 64.7767 49.0036 62.5963 50.62 61.2111C50.7712 61.0814 50.9144 60.9588 51.0483 60.8434L57.9443 68.6465" fill="#FCFF56"/>
<path fill-rule="evenodd" clip-rule="evenodd" d="M33.3024 60.4115C33.776 60.8169 34.6879 61.4165 36.3072 62.2147C37.4754 62.7905 38.3532 63.1739 39.3631 63.6149C40.1416 63.9547 40.9985 64.329 42.1275 64.8521C44.3107 65.8636 46.3341 66.4734 49.0693 67.0126C49.9897 67.194 50.7585 67.4334 51.2703 67.6046C51.5276 67.6908 51.7607 67.7739 51.921 67.8312C51.9316 67.835 51.9417 67.8386 51.9516 67.8421C57.0514 68.4541 61.004 72.7841 61.004 78.0345C61.004 83.7045 56.3946 88.3013 50.7086 88.3013C48.338 88.3013 46.4213 87.6666 45.5944 87.3799C46.6117 89.4789 47.6261 91.5697 48.6385 93.6481C49.5447 95.5086 50.491 97.44 51.4433 99.3845C52.567 101.678 53.6993 103.99 54.7842 106.222C55.9243 108.568 56.371 109.357 56.8682 109.923C60.6124 114.19 60.1789 120.676 55.8997 124.41C51.6205 128.144 45.1164 127.711 41.3721 123.444C38.8851 120.61 37.3525 117.444 36.4094 115.496C36.3562 115.386 36.3048 115.28 36.2552 115.177C35.1435 112.89 34.0646 110.688 32.9779 108.47C32.0388 106.553 31.0939 104.625 30.1169 102.619C28.7319 99.7759 27.3622 96.9488 25.9979 94.1323C23.0726 88.0956 20.1725 82.1095 17.2014 76.126C17.1682 76.0732 17.1326 76.0168 17.0918 75.9519C17.0352 75.8622 16.9688 75.7565 16.8847 75.6225C16.5447 75.081 16.0521 74.2895 15.5718 73.4525C15.1419 72.7031 14.4957 71.5313 14.0053 70.2976C13.7862 69.7464 13.3528 68.5893 13.1658 67.1532C13.1651 67.1479 13.1643 67.1424 13.1636 67.1366C13.0681 66.406 12.424 61.4774 16.618 57.7598C20.0984 54.6748 24.0361 55.0752 25.3962 55.3255C26.9156 55.6054 28.0182 56.1614 28.4429 56.3849C29.3972 56.8873 30.1081 57.4462 30.3703 57.6546C31.0277 58.1768 31.6325 58.7503 31.9913 59.0974C32.4047 59.497 32.7927 59.8908 33.0587 60.1626C33.1741 60.2805 33.2525 60.3605 33.3024 60.4115ZM17.3666 76.3935C17.3653 76.3918 17.3501 76.3672 17.3251 76.3246C17.3554 76.3739 17.368 76.3952 17.3666 76.3935ZM52.3663 67.9883C52.3663 67.9884 52.3646 67.9879 52.3612 67.9868C52.3645 67.9878 52.3663 67.9883 52.3663 67.9883Z" fill="#FCFF56"/>
<path fill-rule="evenodd" clip-rule="evenodd" d="M93.6311 15.3232C95.2573 16.8064 96.3013 17.7158 96.602 17.9182C98.121 18.9418 99.6234 20.5632 100.894 22.0969C102.183 23.6538 103.387 25.3132 104.295 26.5647L104.322 26.6021C105.3 27.9496 106.642 29.8008 107.734 31.7864C108.798 33.721 109.807 36.1015 109.807 38.4953C109.807 39.8582 108.714 40.9631 107.365 40.9631C106.017 40.9631 104.924 39.8582 104.924 38.4953C104.924 37.3851 104.414 35.9094 103.466 34.1836C102.545 32.5087 101.381 30.895 100.384 29.521C99.4613 28.248 98.3353 26.6971 97.1492 25.2652C95.9318 23.7946 94.7989 22.6354 93.8934 22.025C93.2154 21.5686 91.8358 20.3339 90.3595 18.988C89.3651 18.0814 88.227 17.0298 87.0569 15.9486C86.396 15.338 85.7248 14.718 85.0636 14.1092C83.6229 12.783 82.2269 11.508 81.0471 10.4636C81.0514 10.7436 81.0583 11.0338 81.0672 11.332C81.0889 12.0538 81.1144 12.643 81.1398 13.2305C81.1624 13.7517 81.1849 14.2715 81.2046 14.8815C81.238 15.9142 81.2579 17.0741 81.1276 17.9021C80.7287 20.4361 80.0525 23.0117 79.4129 25.4484C79.2307 26.1423 79.0515 26.825 78.8825 27.4922C78.0959 30.5975 77.4926 33.4886 77.4926 36.3026C77.4926 38.972 76.9299 41.5025 76.4367 43.7202L76.4234 43.7801C75.907 46.1023 75.473 48.0831 75.473 50.0631C75.473 51.4261 74.3799 52.531 73.0314 52.531C71.6829 52.531 70.5898 51.4261 70.5898 50.0631C70.5898 47.5029 71.1384 45.0379 71.6234 42.8579C71.6354 42.8043 71.6472 42.7509 71.6591 42.6977C72.1726 40.3883 72.6095 38.3618 72.6095 36.3026C72.6095 32.8307 73.3502 29.4328 74.1519 26.268C74.3455 25.5034 74.5412 24.7572 74.7333 24.0245C75.3603 21.6336 75.949 19.3883 76.305 17.1266C76.3489 16.8484 76.3607 16.1762 76.3241 15.0426C76.3115 14.656 76.2893 14.1223 76.2656 13.5536C76.2361 12.8448 76.2043 12.0817 76.1863 11.4815C76.1492 10.2453 76.1373 8.93201 76.2322 7.81214C76.2795 7.25393 76.3594 6.66329 76.5062 6.1161C76.6365 5.63052 76.8993 4.85999 77.5135 4.23925C78.491 3.25117 79.6951 3.52779 79.8675 3.56739L79.8677 3.56743C80.2135 3.64689 80.485 3.78313 80.6155 3.85203C80.9093 4.00719 81.2006 4.21032 81.4376 4.38511C81.9397 4.75543 82.5767 5.28287 83.2725 5.88283C84.6791 7.09559 86.5074 8.76225 88.3516 10.4601C89.0287 11.083 89.7068 11.7097 90.37 12.3228C91.5308 13.395 92.6472 14.4259 93.6311 15.3232ZM81.245 7.32753C81.2452 7.32811 81.2421 7.33804 81.2344 7.35557C81.2409 7.33571 81.2446 7.32695 81.245 7.32753Z" fill="black"/>
<path fill-rule="evenodd" clip-rule="evenodd" d="M10.2014 56.0521C11.4572 56.1402 12.9077 56.5347 13.5085 56.793C14.9956 57.4324 16.6937 57.7447 18.6846 58.0337C18.9559 58.0731 19.2345 58.1123 19.519 58.1522C21.2172 58.3906 23.1232 58.6582 24.9155 59.187C32.152 61.322 40.1226 63.4393 47.2538 63.4393C48.5904 63.4393 49.6739 64.5262 49.6739 65.8669C49.6739 67.2077 48.5904 68.2946 47.2538 68.2946C39.3385 68.2946 30.747 65.9685 23.5497 63.8451C22.1279 63.4255 20.6221 63.2124 18.9066 62.9697C18.608 62.9275 18.3031 62.8844 17.9912 62.839C17.1544 62.7176 16.2732 62.5808 15.3758 62.3963C16.2774 63.2103 17.2154 64.0176 18.1815 64.8492L18.2973 64.9489C20.0327 66.4428 21.8544 68.016 23.5479 69.7422C25.4913 71.7232 27.485 73.6498 29.5075 75.5962C29.6706 75.7533 29.834 75.9105 29.9976 76.0679C31.8539 77.8539 33.7329 79.6616 35.5824 81.5169C36.2684 82.205 36.9669 83.0636 37.5544 83.7857C37.8025 84.0906 38.0307 84.3711 38.2298 84.6042C39.0155 85.5238 39.6539 86.1158 40.3287 86.4543C41.5242 87.054 42.0088 88.5123 41.411 89.7118C40.8133 90.9104 39.3596 91.3971 38.1642 90.7974C36.5986 90.0121 35.4474 88.8091 34.5547 87.7637C34.1829 87.3286 33.8713 86.9436 33.5847 86.5898C33.0945 85.9843 32.6778 85.4698 32.1598 84.9502C30.3479 83.1325 28.5046 81.3591 26.6416 79.5666C26.4801 79.4112 26.3183 79.2556 26.1565 79.0999C24.1355 77.1549 22.0959 75.1844 20.0981 73.1479C18.569 71.5892 16.8987 70.143 15.1452 68.6335C15.0882 68.5844 15.031 68.5352 14.9739 68.486C13.2974 67.0431 11.5445 65.5345 9.91715 63.902C9.79079 63.7752 9.53736 63.5735 9.15269 63.2673C8.95904 63.1132 8.73211 62.9324 8.47135 62.7215C8.14297 62.456 7.77705 62.1525 7.46437 61.8593C7.30799 61.7128 7.13439 61.5405 6.97367 61.3542C6.83848 61.1974 6.59217 60.8956 6.41417 60.4939C6.19563 60.0006 5.97492 59.2428 6.18304 58.381C6.4123 57.4317 7.04355 56.8249 7.63465 56.4977C8.16786 56.2027 8.7069 56.1038 9.07748 56.0641C9.47383 56.0215 9.86295 56.0284 10.2014 56.0521ZM9.59261 60.8919C9.59383 60.8917 9.59514 60.8916 9.59662 60.8914C9.58189 60.8938 9.57971 60.8933 9.59261 60.8919Z" fill="black"/>
<path fill-rule="evenodd" clip-rule="evenodd" d="M31.7884 123.448C33.1202 123.448 34.1999 124.535 34.1999 125.875C34.1999 126.429 34.1771 127.211 33.7675 128C33.5779 128.365 33.3537 128.641 33.1914 128.826C33.0892 128.943 32.9527 129.088 32.8418 129.206C32.8028 129.248 32.7669 129.286 32.7367 129.319C32.0956 130.008 31.5431 130.943 30.8149 132.174C30.7609 132.265 30.706 132.358 30.6499 132.452C29.9279 133.671 28.9792 135.251 27.6689 136.381C26.6746 137.239 25.7291 138.263 24.7197 139.412C24.4928 139.671 24.2605 139.938 24.0233 140.211C23.2413 141.111 22.4076 142.07 21.5494 142.959C20.7834 143.753 20.0899 144.53 19.3573 145.351C18.8104 145.964 18.2416 146.601 17.6048 147.288C16.213 148.789 14.6635 150.329 12.8958 151.581C12.8059 151.645 12.7043 151.716 12.5939 151.793C12.2746 152.016 11.882 152.289 11.4873 152.589C12.6517 152.705 13.9554 152.706 15.4145 152.675C15.6722 152.67 15.9359 152.663 16.2044 152.656C18.2874 152.603 20.6619 152.543 22.8294 152.933C29.9181 154.207 37.8202 154.639 45.173 154.904C47.3269 154.982 49.3889 155.297 51.2953 155.589C51.4472 155.611 51.5982 155.635 51.7482 155.658C53.8254 155.973 55.742 156.241 57.7206 156.241C59.0524 156.241 60.1321 157.328 60.1321 158.669C60.1321 160.009 59.0524 161.096 57.7206 161.096C55.3395 161.096 53.0982 160.772 51.0279 160.457C50.8927 160.437 50.7583 160.416 50.6247 160.396C48.666 160.097 46.8657 159.823 45.0009 159.755C37.6317 159.491 29.4333 159.051 21.9815 157.712C20.3285 157.415 18.4763 157.459 16.3129 157.509C16.0525 157.516 15.7875 157.523 15.5179 157.528C13.1662 157.579 10.4341 157.592 7.95436 156.824C7.33877 156.633 6.61662 156.3 6.05184 155.667C5.41678 154.956 5.16663 154.073 5.2413 153.219C5.30736 152.464 5.61347 151.847 5.87425 151.429C6.14751 150.991 6.47817 150.602 6.78965 150.277C7.82897 149.193 9.32066 148.164 9.92835 147.745C10.0088 147.689 10.0738 147.644 10.1202 147.612C11.4778 146.649 12.7589 145.399 14.079 143.976C14.5691 143.447 15.1 142.854 15.6449 142.245C16.4587 141.335 17.3036 140.391 18.0898 139.577C18.8519 138.787 19.5699 137.962 20.3333 137.083C20.5849 136.794 20.8414 136.499 21.1061 136.198C22.1398 135.021 23.2684 133.784 24.5301 132.695C25.1483 132.162 25.7283 131.282 26.5073 129.966C26.5743 129.853 26.6433 129.736 26.7141 129.615C27.3717 128.498 28.194 127.1 29.2145 126.002C29.2601 125.953 29.3028 125.908 29.3413 125.866L29.3772 125.828C29.4022 124.509 30.4722 123.448 31.7884 123.448ZM29.5913 125.594C29.5914 125.594 29.5906 125.596 29.5889 125.598C29.5905 125.596 29.5913 125.594 29.5913 125.594ZM9.31064 152.162C9.31082 152.162 9.31526 152.164 9.32328 152.167C9.31448 152.164 9.31047 152.162 9.31064 152.162ZM9.95389 154.019C9.94962 154.027 9.947 154.032 9.94674 154.032C9.94657 154.032 9.94866 154.027 9.95389 154.019Z" fill="black"/>
<path fill-rule="evenodd" clip-rule="evenodd" d="M77.3807 171.602C78.7246 171.602 79.8141 172.691 79.8141 174.034C79.8141 185.268 81.526 194.659 84.7095 205.142C84.7098 205.142 84.7101 205.141 84.7104 205.141C85.004 204.741 85.2567 204.37 85.5302 203.969C85.7342 203.67 85.9497 203.354 86.2024 202.996C89.1673 198.799 92.8746 195.34 96.3518 192.097C96.4625 191.994 96.5732 191.891 96.6839 191.788C100.322 188.392 103.682 185.208 106.22 181.403C106.966 180.285 108.476 179.983 109.594 180.728C110.712 181.473 111.015 182.983 110.269 184.101C107.369 188.449 103.59 191.999 100.005 195.343C99.9424 195.403 99.8787 195.461 99.816 195.52C96.2342 198.861 92.8493 202.02 90.1782 205.801C90.0257 206.018 89.841 206.288 89.6431 206.577C89.3146 207.057 88.9494 207.59 88.634 208.019C88.1154 208.724 87.4156 209.609 86.5823 210.208C86.1473 210.52 85.5308 210.863 84.7605 210.968C83.9184 211.083 83.0868 210.885 82.3749 210.408C81.1617 209.595 80.5337 208.132 80.1226 206.785C76.7846 195.849 74.9473 185.92 74.9473 174.034C74.9473 172.691 76.0367 171.602 77.3807 171.602ZM83.7269 206.268C83.7269 206.268 83.7296 206.265 83.735 206.262C83.7296 206.266 83.7269 206.268 83.7269 206.268ZM85.2496 206.506C85.2517 206.508 85.2528 206.51 85.2527 206.51C85.2527 206.51 85.2516 206.508 85.2496 206.506Z" fill="black"/>
<path fill-rule="evenodd" clip-rule="evenodd" d="M156.253 160.635C157.369 159.878 158.877 160.185 159.621 161.319C162.021 164.982 163.819 169.012 165.446 172.953C165.851 173.934 166.243 174.905 166.632 175.864C167.831 178.829 168.989 181.692 170.338 184.436C172.086 187.99 173.423 190.863 173.423 195.376C173.423 195.443 173.423 195.524 173.424 195.614C173.425 195.901 173.428 196.286 173.416 196.629C173.401 197.052 173.359 197.74 173.139 198.384C173.025 198.717 172.805 199.224 172.355 199.67C171.844 200.178 171.145 200.494 170.362 200.494C169.667 200.493 169.103 200.242 168.728 200.023C168.34 199.796 167.993 199.508 167.689 199.215C165.926 197.522 163.779 196.359 161.269 195.119C160.991 194.981 160.709 194.843 160.421 194.702C158.202 193.615 155.723 192.4 153.473 190.701C153.019 190.358 152.435 189.891 151.877 189.446C151.447 189.103 151.032 188.772 150.707 188.521C149.797 187.82 148.966 187.241 148.18 186.842C146.679 186.078 145.162 185.039 143.804 184.108C143.278 183.748 142.775 183.403 142.306 183.097C140.483 181.907 138.861 181.062 137.14 180.794C135.814 180.586 134.905 179.324 135.109 177.977C135.313 176.629 136.553 175.704 137.878 175.911C140.636 176.342 142.96 177.655 144.929 178.939C145.612 179.385 146.233 179.811 146.821 180.215C148.055 181.062 149.145 181.809 150.352 182.423C151.545 183.03 152.659 183.827 153.641 184.585C154.182 185.002 154.608 185.344 155.008 185.666C155.452 186.022 155.864 186.354 156.369 186.736C158.224 188.137 160.266 189.14 162.529 190.251C162.814 190.391 163.102 190.532 163.393 190.676C165.042 191.492 166.79 192.389 168.461 193.545C168.185 191.241 167.355 189.415 165.993 186.645C164.557 183.723 163.304 180.625 162.089 177.622C161.713 176.691 161.34 175.77 160.967 174.865C159.361 170.975 157.709 167.309 155.579 164.06C154.835 162.925 155.136 161.391 156.253 160.635Z" fill="black"/>
<path fill-rule="evenodd" clip-rule="evenodd" d="M175.906 108.133C176.51 106.954 177.981 106.476 179.19 107.065C184.254 109.533 188.953 112.798 193.49 115.953C193.838 116.194 194.185 116.435 194.531 116.676C199.458 120.093 204.246 123.322 209.47 125.583C209.68 125.674 210.003 125.791 210.484 125.964C210.605 126.008 210.735 126.055 210.876 126.106C211.519 126.339 212.302 126.629 213.056 126.962C213.786 127.285 214.624 127.706 215.316 128.235C215.902 128.684 217 129.68 217 131.235C217 131.99 216.811 132.744 216.37 133.418C215.936 134.082 215.351 134.528 214.776 134.82C213.705 135.366 212.478 135.479 211.563 135.5C210.591 135.522 209.591 135.439 208.816 135.371L208.768 135.366C207.903 135.29 207.467 135.252 207.248 135.262C205.595 135.343 203.944 135.598 202.131 135.877C201.94 135.907 201.746 135.936 201.551 135.967C199.564 136.271 197.396 136.581 195.161 136.581H176.746C175.393 136.581 174.297 135.513 174.297 134.195C174.297 132.877 175.393 131.809 176.746 131.809H195.161C196.973 131.809 198.8 131.558 200.79 131.253C200.985 131.223 201.183 131.193 201.383 131.162C203.154 130.887 205.072 130.591 207.003 130.497C207.594 130.468 208.389 130.54 209.022 130.597C209.104 130.605 209.183 130.612 209.259 130.618C209.269 130.619 209.279 130.62 209.29 130.621C209.25 130.607 209.209 130.592 209.17 130.578C209.071 130.542 208.969 130.506 208.865 130.468C208.374 130.292 207.85 130.103 207.48 129.943C201.75 127.462 196.594 123.963 191.691 120.562C191.365 120.336 191.04 120.111 190.716 119.885C186.106 116.682 181.707 113.626 177 111.333C175.791 110.744 175.301 109.311 175.906 108.133ZM212.398 132.082C212.396 132.082 212.382 132.069 212.36 132.044C212.389 132.069 212.4 132.082 212.398 132.082Z" fill="black"/>
<path fill-rule="evenodd" clip-rule="evenodd" d="M149.896 55.0094C149.896 53.6407 150.995 52.5312 152.351 52.5312H199.386C199.846 52.5312 200.373 52.5725 200.889 52.7352C201.411 52.8998 202.116 53.2543 202.6 54.0137C203.098 54.7978 203.107 55.6132 203.007 56.1731C202.912 56.6999 202.704 57.1338 202.546 57.4199C202.231 57.9883 201.787 58.5357 201.483 58.905C201.389 59.0188 201.305 59.1212 201.227 59.2145C200.996 59.4927 200.83 59.6912 200.698 59.8767C199.095 62.117 197.231 64.3354 195.446 66.4596C194.403 67.7005 193.387 68.9091 192.467 70.0712C191.639 71.116 190.907 72.1983 190.116 73.3675C189.831 73.7916 189.536 74.227 189.227 74.6763C188.107 76.3017 186.84 78.0252 185.242 79.549C184.955 79.822 184.666 80.0906 184.377 80.3589C183.575 81.103 182.775 81.8456 182.044 82.6805C181.032 83.837 180.575 84.7227 180.507 85.3474C180.358 86.7076 179.144 87.6877 177.796 87.5366C176.449 87.3855 175.478 86.1603 175.628 84.8C175.871 82.5941 177.194 80.7372 178.365 79.3985C179.283 78.3502 180.365 77.3476 181.202 76.5717C181.45 76.3415 181.677 76.1313 181.871 75.9458C183.088 74.7855 184.121 73.4071 185.196 71.8465C185.45 71.4791 185.709 71.0949 185.975 70.7007C186.795 69.4878 187.678 68.1801 188.633 66.975C189.756 65.5582 190.854 64.2555 191.924 62.9857C193.459 61.1652 194.936 59.4123 196.348 57.4875H152.351C150.995 57.4875 149.896 56.378 149.896 55.0094Z" fill="black"/>
<path fill-rule="evenodd" clip-rule="evenodd" d="M105.013 46.2792C105.013 40.545 109.636 35.8965 115.339 35.8965C120.915 35.8965 125.576 36.4852 131.024 37.9641C131.291 38.0367 131.565 38.1105 131.846 38.186C134.41 38.8772 137.489 39.7074 140.61 40.9355C144.718 42.5519 147.625 44.9063 149.872 46.908C150.245 47.2405 150.685 47.6184 151.171 48.0374C153.513 50.0561 156.964 53.0294 159.572 56.486C163.044 61.0874 166.946 66.4165 169.792 72.9305C170.04 73.4986 170.342 74.161 170.675 74.8912C171.719 77.1828 173.066 80.142 174.021 82.9485C174.716 84.9905 175.253 86.985 175.704 88.6973C175.78 88.9888 175.854 89.2699 175.925 89.543C176.298 90.9692 176.613 92.1704 176.977 93.3717C178.263 97.6083 178.703 102.362 179.009 105.672C179.078 106.422 179.141 107.099 179.205 107.679C179.583 111.101 180.048 116.967 177.881 122.594C176.19 126.987 174.92 131.945 173.898 137.079C172.107 146.081 166.512 154.066 159.311 158.989C159.284 159.008 159.256 159.027 159.229 159.046C158.305 161.177 157.069 163.028 155.815 164.522C153.712 167.028 150.777 169.462 147.246 170.827C146.657 171.055 146.117 171.221 145.684 171.342C145.25 171.464 144.849 171.559 144.537 171.631C144.332 171.677 144.112 171.725 143.934 171.765C143.656 171.963 143.403 172.128 143.19 172.262C142.549 172.664 141.952 172.975 141.538 173.181C141.209 173.347 140.853 173.515 140.644 173.614C140.602 173.634 140.567 173.651 140.538 173.665C140.408 173.726 140.344 173.757 140.322 173.769C138.288 174.89 135.48 176.272 132.324 177.065C130.233 177.591 128.327 177.56 127.367 177.529C126.85 177.513 126.537 177.498 126.335 177.487C125.561 177.926 124.843 178.238 124.259 178.462C123.229 178.858 122.269 179.109 121.563 179.273C120.909 179.425 120.27 179.545 119.864 179.623L119.778 179.639C119.548 179.683 119.396 179.713 119.267 179.739C119.159 179.761 119.115 179.771 119.115 179.771L119.118 179.77C116.368 180.462 113.281 180.364 112.378 180.336C112.27 180.333 112.194 180.33 112.153 180.33C109.444 180.33 107.073 179.586 106.132 179.29C106.064 179.269 106.004 179.25 105.952 179.234C105.649 179.141 105.442 179.081 105.312 179.045C101.631 178.992 98.1444 178.328 95.048 177.438C92.3438 176.661 90.3586 175.428 89.0705 174.559C88.3768 174.091 87.989 173.816 87.7223 173.626C87.4861 173.459 87.3441 173.358 87.1681 173.25C87.0735 173.215 86.8806 173.143 86.7 173.074C86.0851 172.837 84.6632 172.289 83.1395 171.213C80.8885 170.961 78.7412 170.444 77.6068 170.159C71.0659 168.515 67.7857 165.012 65.3131 162.37C65.1507 162.197 64.9919 162.027 64.8358 161.863C64.2298 161.221 63.7646 160.613 63.4392 160.162C63.1748 159.796 62.9334 159.432 62.795 159.223C62.6368 159.083 62.4431 158.909 62.2501 158.727C61.9012 158.4 61.3173 157.83 60.7281 157.088C60.6342 156.97 60.5214 156.825 60.3964 156.653C60.3477 156.618 60.2967 156.581 60.2462 156.544C59.3736 155.903 58.7266 155.238 58.282 154.724C57.8316 154.203 57.4863 153.717 57.2428 153.351C57.0341 153.037 56.8598 152.748 56.7266 152.52C56.0252 151.776 55.5059 151.03 55.13 150.395C54.4104 149.182 54.0289 148.062 53.8428 147.468C53.7402 147.141 53.6607 146.853 53.6095 146.663C53.6078 146.657 53.6062 146.65 53.6045 146.644C53.1913 145.773 52.7903 145.045 52.3759 144.414C50.9233 142.202 49.3694 139.641 48.0606 137.11C47.7421 136.494 47.3402 135.865 46.5866 134.685L46.4793 134.517C45.8465 133.526 44.9234 132.077 44.1086 130.424C44.0523 130.341 43.9816 130.237 43.9097 130.129C43.6926 129.804 43.276 129.164 42.8794 128.354C42.5751 127.733 42.1955 126.839 41.9305 125.726C41.3995 124.785 40.955 123.829 40.6398 123.094C40.2688 122.228 39.3803 120.098 39.1346 117.875C38.6645 113.62 38.4165 109.423 38.4165 105.069C38.4165 104.942 38.4111 104.757 38.3943 104.347C38.3931 104.317 38.3918 104.285 38.3904 104.252C38.376 103.905 38.3546 103.387 38.3481 102.858C38.3346 101.759 38.3584 99.7953 38.9526 97.6451C39.2356 96.6207 39.5691 95.5876 39.8202 94.8093C39.8638 94.6744 39.9048 94.5475 39.9428 94.4293C40.2361 93.5144 40.4154 92.9164 40.5355 92.4068C40.578 92.2265 40.629 91.9866 40.6905 91.6977C40.9903 90.2898 41.5367 87.7237 42.5311 85.2793C44.0748 81.4852 46.235 77.9465 48.6945 74.9029C49.8923 73.4205 51.1305 72.0078 52.2157 70.7696L52.3462 70.6207C53.5101 69.2924 54.5074 68.1494 55.4295 66.9984C57.2477 64.729 59.527 63.2754 60.6645 62.5722C61.7418 61.9062 62.1724 61.6678 62.4674 61.5045C62.7203 61.3645 62.8734 61.2797 63.2486 61.0282C64.336 60.2993 65.4764 59.4601 66.8324 58.4512C66.9512 58.3628 67.072 58.2729 67.1945 58.1817C68.4045 57.2808 69.785 56.2528 71.2015 55.2688C74.2859 53.1262 78.2696 50.6604 82.9855 49.2837C85.2102 48.6343 87.223 48.3186 89.1333 48.1761C89.3616 48.0578 89.5638 47.9583 89.6997 47.8986C89.976 47.7879 90.4649 47.6142 90.6758 47.5477C91.1194 47.4131 91.4793 47.3373 91.658 47.3017C91.8636 47.261 92.0327 47.2339 92.1434 47.2174C92.5024 47.1637 92.7909 47.1409 92.8562 47.1359L92.8615 47.1354C92.9713 47.1268 93.0602 47.1215 93.109 47.1187C93.2798 47.1091 93.4375 47.1042 93.4994 47.1023C93.8192 47.0925 94.3308 47.0834 94.7892 47.0776C95.2154 47.0724 95.8062 47.0671 96.2167 47.0743L96.2202 47.0744C96.3021 47.0759 96.5601 47.0804 96.8555 47.1001C96.9444 47.1061 97.0908 47.117 97.2703 47.136C97.4019 47.1499 97.7828 47.1915 98.2612 47.2894C98.4878 47.3358 98.9749 47.4421 99.571 47.649C99.8761 47.7546 100.353 47.9357 100.91 48.2223C101.15 48.35 101.67 48.6549 101.947 48.8347C102.276 49.0656 102.978 49.6269 103.345 49.9627C104.322 50.9037 105.887 52.7952 106.384 55.7116C106.512 56.8008 106.424 58.9639 106.217 60.0145C105.94 60.9333 105.21 62.5494 104.785 63.2449C104.398 63.7874 103.611 64.7025 103.225 65.0815C102.899 65.3725 102.277 65.865 101.985 66.0707C101.318 66.5234 100.733 66.8067 100.38 66.9635C99.6843 67.2726 99.1074 67.4345 98.8651 67.4996C98.568 67.5796 98.3231 67.6309 98.1723 67.6604C97.9719 67.6995 97.7993 67.7274 97.6721 67.7459C97.3043 67.8876 96.6568 68.1285 95.9099 68.3324C94.9774 68.5874 93.7225 68.8364 92.2375 68.8364C90.5355 68.8364 89.691 68.9492 88.7437 69.2256C87.2291 69.6677 85.4183 70.6322 82.9409 72.3532C81.8181 73.1332 80.7076 73.9597 79.45 74.8958C79.3401 74.9776 79.229 75.0603 79.1167 75.1438C77.7828 76.1362 76.2665 77.259 74.7045 78.3061C73.9952 78.7815 73.2733 79.2057 72.7803 79.4937C72.6665 79.5603 72.5614 79.6215 72.4632 79.6788C72.0607 79.9135 71.7735 80.0809 71.481 80.2617C71.3399 80.349 71.2321 80.4185 71.1518 80.4719C70.0152 81.868 68.8615 83.1849 67.842 84.3484L67.824 84.3689C66.6558 85.7019 65.6566 86.8423 64.7231 87.9977C63.4321 89.5947 62.3585 91.3904 61.6459 93.1414C61.3959 93.756 61.3275 94.0712 61.1278 94.9931C61.0188 95.4965 60.8705 96.1803 60.6321 97.1924C60.3075 98.5705 59.9053 99.8461 59.5986 100.802C59.5405 100.983 59.4859 101.152 59.4346 101.313C59.2592 101.857 59.1207 102.287 59.0004 102.688C59.0043 102.882 59.0136 103.107 59.0292 103.489L59.0298 103.504C59.0451 103.88 59.069 104.462 59.069 105.069C59.069 108.352 59.2414 111.54 59.5785 114.81C59.5873 114.831 59.5964 114.852 59.6059 114.875C59.6959 115.085 59.7874 115.276 59.8558 115.408C59.8569 115.411 59.8579 115.413 59.8591 115.415C60.8644 116.93 61.4223 118.375 61.7523 119.604C61.8137 119.703 61.8785 119.81 61.945 119.923C62.1235 120.226 62.3425 120.623 62.5612 121.094C62.7759 121.557 63.1243 122.148 63.8591 123.3C63.921 123.396 63.9872 123.499 64.0572 123.609C64.6808 124.581 65.6012 126.017 66.3838 127.53C67.2728 129.249 68.4291 131.173 69.6097 132.97C70.8692 134.888 71.8458 136.8 72.6416 138.561C72.8302 138.977 72.9745 139.358 73.082 139.668C73.2501 139.891 73.3899 140.091 73.5017 140.257C73.6361 140.457 73.7636 140.659 73.8787 140.848C73.9141 140.876 73.9486 140.904 73.9819 140.93C74.3653 141.236 74.9848 141.75 75.6124 142.406C75.9308 142.739 76.3822 143.244 76.8381 143.897C76.884 143.964 76.9338 144.036 76.9867 144.116C76.9966 144.125 77.0065 144.133 77.0165 144.142C77.1644 144.276 77.3915 144.484 77.6414 144.735C78.301 145.398 78.8041 146.034 79.1574 146.513C79.4862 146.959 79.7674 147.384 79.9145 147.607L79.9294 147.629C79.987 147.716 80.0267 147.776 80.0603 147.826C80.1122 147.881 80.1626 147.935 80.2113 147.987C80.7165 148.522 81.0595 148.886 81.3996 149.226C81.7821 149.608 81.9652 149.759 82.0428 149.818C82.0608 149.832 82.0722 149.84 82.078 149.843M70.9576 80.6079C70.9591 80.6068 70.9608 80.6055 70.9626 80.6041C70.9507 80.6138 70.9486 80.615 70.9576 80.6079ZM41.7143 124.574C41.7144 124.573 41.7161 124.583 41.7192 124.604C41.7158 124.585 41.7142 124.574 41.7143 124.574ZM53.5069 146.277C53.5073 146.278 53.5077 146.28 53.508 146.281C53.4816 146.194 53.4812 146.182 53.5069 146.277ZM61.1408 157.193C61.1624 157.211 61.1587 157.208 61.1347 157.188C61.1369 157.19 61.1389 157.192 61.1408 157.193ZM143.137 171.949C143.137 171.949 143.141 171.948 143.151 171.945C143.143 171.947 143.139 171.948 143.137 171.949ZM105.013 46.2792C105.013 52.0134 109.636 56.6619 115.339 56.6619L105.013 46.2792ZM115.339 56.6619C119.173 56.6619 122.021 57.0288 125.641 58.0116L115.339 56.6619ZM125.641 58.0116C125.886 58.0784 126.126 58.1433 126.361 58.2067L125.641 58.0116ZM126.361 58.2067C129.105 58.9499 131.084 59.4861 133.085 60.2731L126.361 58.2067ZM133.085 60.2731C133.829 60.5661 134.58 61.0281 136.179 62.4526L133.085 60.2731ZM136.179 62.4526C137.053 63.2312 137.822 63.9012 138.509 64.4985L136.179 62.4526ZM138.509 64.4985C140.639 66.3523 141.964 67.5065 143.118 69.0363L138.509 64.4985ZM143.118 69.0363C146.551 73.585 149.108 77.2178 150.884 81.2838L143.118 69.0363ZM150.884 81.2838C151.415 82.498 151.887 83.5335 152.312 84.4678L150.884 81.2838ZM152.312 84.4678C153.197 86.4076 153.882 87.911 154.48 89.67L152.312 84.4678ZM154.48 89.67C154.919 90.9596 155.299 92.3403 155.737 94.0055L154.48 89.67ZM155.737 94.0055C155.799 94.241 155.863 94.4853 155.929 94.7375L155.737 94.0055ZM155.929 94.7375C156.3 96.1576 156.731 97.8079 157.224 99.4311L155.929 94.7375ZM157.224 99.4311C157.839 101.457 158.028 103.423 158.313 106.377L157.224 99.4311ZM158.313 106.377C158.415 107.433 158.529 108.615 158.679 109.971L158.313 106.377ZM158.679 109.971C159.02 113.061 158.843 114.521 158.621 115.098L158.679 109.971ZM158.621 115.098C156.341 121.021 154.792 127.249 153.647 133.007L158.621 115.098ZM153.647 133.007C152.991 136.302 150.774 139.645 147.866 141.702L153.647 133.007ZM147.866 141.702C147.834 141.72 147.792 141.741 147.742 141.769C147.721 141.781 147.693 141.795 147.661 141.812C147.396 141.953 146.818 142.263 146.266 142.599C145.669 142.965 144.555 143.682 143.465 144.784C142.426 145.835 140.807 147.847 140.236 150.853C140.228 150.865 140.221 150.878 140.211 150.891C140.164 150.962 140.104 151.044 140.032 151.13C139.96 151.215 139.884 151.296 139.808 151.369C139.786 151.391 139.764 151.411 139.743 151.429C139.405 151.503 138.742 151.651 138.362 151.743C137.661 151.916 136.566 152.21 135.386 152.718C134.454 153.118 133.244 153.746 132.029 154.74L131.707 154.893C131.558 154.964 131.365 155.056 131.161 155.158C130.957 155.259 130.7 155.391 130.419 155.546C129.323 156.152 128.46 156.544 127.819 156.766C127.708 156.762 127.585 156.755 127.42 156.746C127.336 156.742 127.241 156.736 127.131 156.73C126.754 156.711 126.165 156.681 125.535 156.681C125.5 156.681 125.463 156.681 125.423 156.681C124.569 156.68 122.73 156.677 120.791 157.183C119.037 157.641 117.626 158.376 116.496 159.128C116.347 159.158 116.168 159.192 115.937 159.236C115.718 159.278 115.433 159.332 115.144 159.391C114.907 159.44 114.622 159.501 114.313 159.575C114.278 159.577 114.233 159.578 114.174 159.58C113.997 159.584 113.778 159.583 113.424 159.578C113.368 159.577 113.304 159.577 113.234 159.575C113.062 159.572 112.855 159.57 112.637 159.567C112.505 159.53 112.298 159.471 112 159.379C111.949 159.363 111.89 159.345 111.825 159.324C110.869 159.025 108.5 158.283 105.78 158.283C104.361 158.283 102.722 158.033 100.897 157.522C100.834 157.484 100.73 157.418 100.578 157.315C100.429 157.215 100.265 157.102 100.036 156.941L99.9545 156.884C99.7567 156.745 99.5066 156.57 99.2521 156.396C98.6534 155.985 97.8673 155.465 96.9339 154.944C96.1409 154.501 95.428 154.201 94.9661 154.017C94.7875 153.946 94.621 153.882 94.4894 153.833C93.6327 153.236 92.7246 152.715 91.9752 152.331C91.4009 152.037 90.6566 151.686 89.8226 151.384C89.2326 151.171 87.6134 150.603 85.5969 150.594" fill="#FCFF56"/>
<path fill-rule="evenodd" clip-rule="evenodd" d="M131.794 112.942C133.128 112.942 134.209 114.03 134.209 115.373C134.209 121.689 132.827 128.038 129.627 133.728C127.427 137.64 124.291 141.797 120.437 145.004C116.587 148.209 111.863 150.589 106.561 150.589C103.249 150.589 100.43 149.008 98.2899 146.967C96.1521 144.929 94.5347 142.295 93.5516 139.776C90.9903 133.213 90.6348 126.514 90.6348 119.964C90.6348 118.621 91.7163 117.531 93.0497 117.531C94.383 117.531 95.4645 118.621 95.4645 119.964C95.4645 126.395 95.834 132.326 98.0468 137.997C98.811 139.957 100.062 141.958 101.611 143.436C103.158 144.911 104.848 145.726 106.561 145.726C110.384 145.726 114.053 144.008 117.36 141.256C120.663 138.507 123.445 134.851 125.424 131.332C128.153 126.479 129.379 120.982 129.379 115.373C129.379 114.03 130.461 112.942 131.794 112.942Z" fill="black"/>
<path fill-rule="evenodd" clip-rule="evenodd" d="M119.558 84.9253C120.912 84.9253 122.008 86.0124 122.008 87.3535C122.008 89.8002 121.925 92.2508 121.842 94.6479V94.6532C121.759 97.067 121.678 99.4265 121.678 101.758C121.678 103.099 120.582 104.187 119.229 104.187C117.876 104.187 116.779 103.099 116.779 101.758C116.779 99.3416 116.863 96.9111 116.945 94.5236L116.946 94.4886C117.029 92.0757 117.11 89.7056 117.11 87.3535C117.11 86.0124 118.206 84.9253 119.558 84.9253Z" fill="black"/>
<path fill-rule="evenodd" clip-rule="evenodd" d="M102.835 87.5518C104.279 87.5518 105.45 88.6304 105.45 89.9603V100.027C105.45 101.357 104.279 102.436 102.835 102.436C101.391 102.436 100.221 101.357 100.221 100.027V89.9603C100.221 88.6304 101.391 87.5518 102.835 87.5518Z" fill="black"/>
<path fill-rule="evenodd" clip-rule="evenodd" d="M82.3776 41.9864C88.2702 39.5078 94.6016 37.6475 100.083 37.6475C107.911 37.6475 115.347 38.4761 122.941 39.3863C129.144 40.1298 136.355 42.8351 142.769 46.6643C143.342 47.006 143.909 47.3578 144.472 47.7194C144.49 47.7003 144.508 47.6813 144.527 47.6626C145.478 46.7051 147.02 46.7051 147.971 47.6626C149.91 49.6157 152.123 51.4752 154.478 53.4047C154.828 53.6914 155.182 53.98 155.538 54.2706C157.546 55.9109 159.634 57.6145 161.607 59.4096C166.263 63.6445 170.593 68.6499 172.448 75.4313C173.289 78.5079 174.354 81.4115 175.452 84.4049C175.789 85.3244 176.129 86.2524 176.467 87.1966C177.883 91.1504 179.216 95.2925 179.822 99.8145C181.298 110.808 179.768 123.241 177.074 133.687C174.391 144.085 167.906 154.477 161.234 162.454C154.321 170.72 145.025 180.195 133.789 183.624C121.874 187.259 107.375 185.345 96.0474 182.358C93.3179 181.638 90.8098 180.512 88.4655 179.332C87.3909 178.791 86.4138 178.272 85.4621 177.768C84.2116 177.105 83.0047 176.466 81.6785 175.827C80.5273 175.273 79.354 174.724 78.1681 174.169C72.2121 171.38 65.9404 168.445 60.5729 163.968C42.1305 148.59 32.0003 127.865 32.2486 103.862C32.4904 80.4883 48.9271 62.4963 66.4075 50.6343C70.725 47.7045 76.4409 44.4835 82.3776 41.9864ZM158.584 63.2686C158.413 63.8467 158.03 64.3627 157.471 64.6888C156.307 65.3673 154.818 64.9672 154.144 63.7954C151.407 59.0352 146.282 54.4611 140.287 50.8822C134.307 47.3128 127.741 44.8997 122.365 44.2553C114.77 43.3448 107.591 42.5508 100.083 42.5508C95.5506 42.5508 89.9191 44.1284 84.2545 46.5109C78.6344 48.8748 73.1999 51.9379 69.1288 54.7005C52.116 66.2452 37.3345 82.9718 37.1179 103.913C36.8858 126.35 46.2979 145.699 63.6787 160.192C68.5184 164.227 74.1155 166.854 80.0598 169.643C81.2862 170.218 82.5272 170.801 83.7795 171.404C85.1133 172.046 86.5335 172.796 87.9025 173.519C88.8568 174.023 89.7858 174.514 90.6433 174.946C92.8717 176.068 95.0312 177.02 97.2805 177.614C108.329 180.528 121.762 182.169 132.377 178.931C142.133 175.953 150.639 167.511 157.509 159.296C163.92 151.629 169.928 141.886 172.361 132.454C174.955 122.395 176.361 110.633 174.997 100.471C174.462 96.4806 173.273 92.736 171.886 88.8592C171.576 87.995 171.255 87.1182 170.929 86.23C169.817 83.1995 168.655 80.031 167.753 76.7331C166.291 71.385 162.869 67.2044 158.584 63.2686Z" fill="black"/>
</g>
<defs>
<clipPath id="clip0_565_4462">
<rect width="217" height="211" fill="white"/>
</clipPath>
</defs>
</svg>
